<?xml version="1.0" encoding="UTF-8"?><svg version="1.1" viewBox="0 0 42 42" xmlns="http://www.w3.org/2000/svg"><path d="m23.091 14.018v-0.342l-1.063 0.073c-0.301 0.019-0.527 0.083-0.679 0.191-0.152 0.109-0.228 0.26-0.228 0.453 0 0.188 0.075 0.338 0.226 0.449 0.15 0.112 0.352 0.167 0.604 0.167 0.161 0 0.312-0.025 0.451-0.074s0.261-0.118 0.363-0.206c0.102-0.087 0.182-0.191 0.239-0.312 0.058-0.121 0.087-0.254 0.087-0.399zm-2.091-13.768c-11.579 0-20.75 9.171-20.75 20.75 0 11.58 9.171 20.75 20.75 20.75s20.75-9.17 20.75-20.75c0-11.579-9.17-20.75-20.75-20.75zm4.028 12.299c0.098-0.275 0.236-0.511 0.415-0.707s0.394-0.347 0.646-0.453 0.533-0.159 0.842-0.159c0.279 0 0.531 0.042 0.755 0.125 0.225 0.083 0.417 0.195 0.578 0.336s0.289 0.305 0.383 0.493 0.15 0.387 0.169 0.596h-0.833c-0.021-0.115-0.059-0.223-0.113-0.322s-0.125-0.185-0.213-0.258c-0.089-0.073-0.193-0.13-0.312-0.171-0.12-0.042-0.254-0.062-0.405-0.062-0.177 0-0.338 0.036-0.481 0.107-0.144 0.071-0.267 0.172-0.369 0.302s-0.181 0.289-0.237 0.475c-0.057 0.187-0.085 0.394-0.085 0.622 0 0.236 0.028 0.448 0.085 0.634 0.056 0.187 0.136 0.344 0.24 0.473 0.103 0.129 0.228 0.228 0.373 0.296s0.305 0.103 0.479 0.103c0.285 0 0.517-0.067 0.697-0.201s0.296-0.33 0.35-0.588h0.834c-0.024 0.228-0.087 0.436-0.189 0.624s-0.234 0.348-0.396 0.481c-0.163 0.133-0.354 0.236-0.574 0.308s-0.462 0.109-0.725 0.109c-0.312 0-0.593-0.052-0.846-0.155-0.252-0.103-0.469-0.252-0.649-0.445s-0.319-0.428-0.417-0.705-0.147-0.588-0.147-0.935c-2e-3 -0.339 0.047-0.647 0.145-0.923zm-11.853-1.262h0.834v0.741h0.016c0.051-0.123 0.118-0.234 0.2-0.33 0.082-0.097 0.176-0.179 0.284-0.248 0.107-0.069 0.226-0.121 0.354-0.157 0.129-0.036 0.265-0.054 0.407-0.054 0.306 0 0.565 0.073 0.775 0.219 0.211 0.146 0.361 0.356 0.449 0.63h0.021c0.056-0.132 0.13-0.25 0.221-0.354s0.196-0.194 0.314-0.268 0.248-0.13 0.389-0.169 0.289-0.058 0.445-0.058c0.215 0 0.41 0.034 0.586 0.103s0.326 0.165 0.451 0.29 0.221 0.277 0.288 0.455 0.101 0.376 0.101 0.594v2.981h-0.87v-2.772c0-0.287-0.074-0.51-0.222-0.667-0.147-0.157-0.358-0.236-0.632-0.236-0.134 0-0.257 0.024-0.369 0.071-0.111 0.047-0.208 0.113-0.288 0.198-0.081 0.084-0.144 0.186-0.189 0.304-0.046 0.118-0.069 0.247-0.069 0.387v2.715h-0.858v-2.844c0-0.126-0.02-0.24-0.059-0.342s-0.094-0.189-0.167-0.262c-0.072-0.073-0.161-0.128-0.264-0.167-0.104-0.039-0.22-0.059-0.349-0.059-0.134 0-0.258 0.025-0.373 0.075-0.114 0.05-0.212 0.119-0.294 0.207-0.082 0.089-0.146 0.193-0.191 0.314-0.044 0.12-0.116 0.252-0.116 0.394v2.683h-0.825v-4.374zm1.893 20.939c-3.825 0-6.224-2.658-6.224-6.9s2.399-6.909 6.224-6.909 6.215 2.667 6.215 6.909c0 4.241-2.39 6.9-6.215 6.9zm7.082-16.575c-0.141 0.036-0.285 0.054-0.433 0.054-0.218 0-0.417-0.031-0.598-0.093-0.182-0.062-0.337-0.149-0.467-0.262s-0.232-0.249-0.304-0.409c-0.073-0.16-0.109-0.338-0.109-0.534 0-0.384 0.143-0.684 0.429-0.9s0.7-0.342 1.243-0.377l1.18-0.068v-0.338c0-0.252-0.08-0.445-0.24-0.576s-0.386-0.197-0.679-0.197c-0.118 0-0.229 0.015-0.331 0.044-0.102 0.03-0.192 0.072-0.27 0.127s-0.143 0.121-0.193 0.198c-0.051 0.076-0.086 0.162-0.105 0.256h-0.818c5e-3 -0.193 0.053-0.372 0.143-0.536s0.212-0.306 0.367-0.427 0.336-0.215 0.546-0.282 0.438-0.101 0.685-0.101c0.266 0 0.507 0.033 0.723 0.101s0.401 0.163 0.554 0.288 0.271 0.275 0.354 0.451 0.125 0.373 0.125 0.59v3.001h-0.833v-0.729h-0.021c-0.062 0.118-0.14 0.225-0.235 0.32-0.096 0.095-0.203 0.177-0.322 0.244-0.12 0.067-0.25 0.119-0.391 0.155zm5.503 16.575c-2.917 0-4.9-1.528-5.038-3.927h1.899c0.148 1.371 1.473 2.279 3.288 2.279 1.741 0 2.992-0.908 2.992-2.149 0-1.074-0.76-1.723-2.519-2.167l-1.714-0.426c-2.464-0.611-3.584-1.732-3.584-3.575 0-2.269 1.982-3.844 4.807-3.844 2.76 0 4.686 1.584 4.76 3.862h-1.88c-0.13-1.371-1.25-2.214-2.918-2.214-1.658 0-2.806 0.852-2.806 2.084 0 0.972 0.722 1.547 2.482 1.991l1.445 0.361c2.751 0.667 3.881 1.751 3.881 3.696-1e-3 2.482-1.964 4.029-5.095 4.029zm-12.585-12.106c-2.621 0-4.26 2.01-4.26 5.205 0 3.186 1.639 5.196 4.26 5.196 2.612 0 4.26-2.01 4.26-5.196 1e-3 -3.195-1.648-5.205-4.26-5.205z"/></svg>