<?xml version="1.0" encoding="UTF-8" standalone="no"?>
<svg
   xmlns:dc="http://purl.org/dc/elements/1.1/"
   xmlns:cc="http://creativecommons.org/ns#"
   xmlns:rdf="http://www.w3.org/1999/02/22-rdf-syntax-ns#"
   xmlns:svg="http://www.w3.org/2000/svg"
   xmlns="http://www.w3.org/2000/svg"
   xmlns:sodipodi="http://sodipodi.sourceforge.net/DTD/sodipodi-0.dtd"
   xmlns:inkscape="http://www.inkscape.org/namespaces/inkscape"
   id="b6bdd2b4-52ab-488a-9a30-1e6d1d7dd2d4"
   data-name="Layer 1"
   viewBox="0 0 192.30001 146"
   version="1.1"
   sodipodi:docname="logo.svg"
   width="192.3"
   height="146"
   inkscape:version="0.92.5 (2060ec1f9f, 2020-04-08)">
  <metadata
     id="metadata15">
    <rdf:RDF>
      <cc:Work
         rdf:about="">
        <dc:format>image/svg+xml</dc:format>
        <dc:type
           rdf:resource="http://purl.org/dc/dcmitype/StillImage" />
        <dc:title></dc:title>
      </cc:Work>
    </rdf:RDF>
  </metadata>
  <sodipodi:namedview
     pagecolor="#ffffff"
     bordercolor="#666666"
     borderopacity="1"
     objecttolerance="10"
     gridtolerance="10"
     guidetolerance="10"
     inkscape:pageopacity="0"
     inkscape:pageshadow="2"
     inkscape:window-width="1920"
     inkscape:window-height="1007"
     id="namedview13"
     showgrid="false"
     fit-margin-top="1"
     fit-margin-right="1"
     fit-margin-bottom="1"
     fit-margin-left="1"
     inkscape:zoom="0.45930043"
     inkscape:cx="306.89999"
     inkscape:cy="73"
     inkscape:window-x="0"
     inkscape:window-y="0"
     inkscape:window-maximized="1"
     inkscape:current-layer="b6bdd2b4-52ab-488a-9a30-1e6d1d7dd2d4" />
  <defs
     id="defs4">
    <style
       id="style2">.a737459c-e8c7-4afa-8008-f6cfd15ccda2{fill:#e00;}</style>
  </defs>
  <path
     class="a737459c-e8c7-4afa-8008-f6cfd15ccda2"
     d="m 128,84 c 12.5,0 30.6,-2.6 30.6,-17.5 a 19.53,19.53 0 0 0 -0.3,-3.4 L 150.9,30.7 C 149.2,23.6 147.7,20.3 135.2,14.1 125.5,9.1 104.4,1 98.1,1 92.2,1 90.5,8.5 83.6,8.5 76.9,8.5 72,2.9 65.7,2.9 c -6,0 -9.9,4.1 -12.9,12.5 0,0 -8.4,23.7 -9.5,27.2 a 6.15,6.15 0 0 0 -0.2,1.9 C 43,53.7 79.3,83.9 128,84 m 32.5,-11.4 c 1.7,8.2 1.7,9.1 1.7,10.1 0,14 -15.7,21.8 -36.4,21.8 C 79,104.5 38.1,77.1 38.1,59 a 18.35,18.35 0 0 1 1.5,-7.3 C 22.8,52.5 1,55.5 1,74.7 1,106.2 75.6,145 134.6,145 c 45.3,0 56.7,-20.5 56.7,-36.7 0,-12.7 -11,-27.1 -30.8,-35.7"
     id="path8"
     inkscape:connector-curvature="0"
     style="fill:#ee0000" />
  <path
     d="m 160.5,72.6 c 1.7,8.2 1.7,9.1 1.7,10.1 0,14 -15.7,21.8 -36.4,21.8 C 79,104.5 38.1,77.1 38.1,59 a 18.35,18.35 0 0 1 1.5,-7.3 l 3.7,-9.1 a 6.15,6.15 0 0 0 -0.2,1.9 c 0,9.2 36.3,39.4 84.9,39.4 12.5,0 30.6,-2.6 30.6,-17.5 A 19.53,19.53 0 0 0 158.3,63 Z"
     id="path10"
     inkscape:connector-curvature="0" />
</svg>
