<?xml version="1.0" standalone="yes"?>

<svg version="1.1" viewBox="0.0 0.0 960.0 720.0" fill="none" stroke="none" stroke-linecap="square" stroke-miterlimit="10" xmlns="http://www.w3.org/2000/svg" xmlns:xlink="http://www.w3.org/1999/xlink"><clipPath id="p.0"><path d="m0 0l960.0 0l0 720.0l-960.0 0l0 -720.0z" clip-rule="nonzero"></path></clipPath><g clip-path="url(#p.0)"><path fill="#000000" fill-opacity="0.0" d="m0 0l960.0 0l0 720.0l-960.0 0z" fill-rule="nonzero"></path><path fill="#cfe2f3" d="m110.0 326.28873l0 0c0 -8.288635 10.5195465 -15.007874 23.496063 -15.007874l0 0c12.976517 0 23.496063 6.7192383 23.496063 15.007874l0 0c0 8.288605 -10.5195465 15.007874 -23.496063 15.007874l0 0c-12.976517 0 -23.496063 -6.719269 -23.496063 -15.007874z" fill-rule="nonzero"></path><path stroke="#000000" stroke-width="1.0" stroke-linejoin="round" stroke-linecap="butt" d="m110.0 326.28873l0 0c0 -8.288635 10.5195465 -15.007874 23.496063 -15.007874l0 0c12.976517 0 23.496063 6.7192383 23.496063 15.007874l0 0c0 8.288605 -10.5195465 15.007874 -23.496063 15.007874l0 0c-12.976517 0 -23.496063 -6.719269 -23.496063 -15.007874z" fill-rule="nonzero"></path><path fill="#000000" d="m127.3524 333.2087l5.265625 -7.09375l-4.640625 -6.5l2.140625 0l2.46875 3.484375q0.78125 1.078125 1.09375 1.671875q0.453125 -0.75 1.078125 -1.546875l2.734375 -3.609375l1.96875 0l-4.78125 6.40625l5.140625 7.1875l-2.21875 0l-3.421875 -4.859375q-0.296875 -0.40625 -0.59375 -0.90625q-0.453125 0.75 -0.65625 1.03125l-3.40625 4.734375l-2.171875 0z" fill-rule="nonzero"></path><path fill="#cfe2f3" d="m79.0 141.00787l0 0c0 -8.28862 10.5195465 -15.007874 23.496063 -15.007874l0 0c12.976517 0 23.496063 6.7192535 23.496063 15.007874l0 0c0 8.28862 -10.5195465 15.007874 -23.496063 15.007874l0 0c-12.976517 0 -23.496063 -6.7192535 -23.496063 -15.007874z" fill-rule="nonzero"></path><path stroke="#000000" stroke-width="1.0" stroke-linejoin="round" stroke-linecap="butt" d="m79.0 141.00787l0 0c0 -8.28862 10.5195465 -15.007874 23.496063 -15.007874l0 0c12.976517 0 23.496063 6.7192535 23.496063 15.007874l0 0c0 8.28862 -10.5195465 15.007874 -23.496063 15.007874l0 0c-12.976517 0 -23.496063 -6.7192535 -23.496063 -15.007874z" fill-rule="nonzero"></path><path fill="#000000" d="m101.57115 147.92787l0 -5.765625l-5.234375 -7.828125l2.1875 0l2.671875 4.09375q0.75 1.15625 1.390625 2.296875q0.609375 -1.0625 1.484375 -2.40625l2.625 -3.984375l2.109375 0l-5.4375 7.828125l0 5.765625l-1.796875 0z" fill-rule="nonzero"></path><path fill="#cfe2f3" d="m163.51181 141.00787l0 0c0 -8.28862 10.5195465 -15.007874 23.496063 -15.007874l0 0c12.976517 0 23.496063 6.7192535 23.496063 15.007874l0 0c0 8.28862 -10.5195465 15.007874 -23.496063 15.007874l0 0c-12.976517 0 -23.496063 -6.7192535 -23.496063 -15.007874z" fill-rule="nonzero"></path><path stroke="#000000" stroke-width="1.0" stroke-linejoin="round" stroke-linecap="butt" d="m163.51181 141.00787l0 0c0 -8.28862 10.5195465 -15.007874 23.496063 -15.007874l0 0c12.976517 0 23.496063 6.7192535 23.496063 15.007874l0 0c0 8.28862 -10.5195465 15.007874 -23.496063 15.007874l0 0c-12.976517 0 -23.496063 -6.7192535 -23.496063 -15.007874z" fill-rule="nonzero"></path><path fill="#000000" d="m181.68489 147.92787l0 -1.671875l6.96875 -8.703125q0.75 -0.9375 1.421875 -1.625l-7.59375 0l0 -1.59375l9.734375 0l0 1.59375l-7.625 9.4375l-0.828125 0.953125l8.6875 0l0 1.609375l-10.765625 0z" fill-rule="nonzero"></path><path fill="#cfe2f3" d="m0 141.00787l0 0c0 -8.28862 10.519546 -15.007874 23.496063 -15.007874l0 0c12.976517 0 23.496063 6.7192535 23.496063 15.007874l0 0c0 8.28862 -10.5195465 15.007874 -23.496063 15.007874l0 0c-12.976518 0 -23.496063 -6.7192535 -23.496063 -15.007874z" fill-rule="nonzero"></path><path stroke="#000000" stroke-width="1.0" stroke-linejoin="round" stroke-linecap="butt" d="m0 141.00787l0 0c0 -8.28862 10.519546 -15.007874 23.496063 -15.007874l0 0c12.976517 0 23.496063 6.7192535 23.496063 15.007874l0 0c0 8.28862 -10.5195465 15.007874 -23.496063 15.007874l0 0c-12.976518 0 -23.496063 -6.7192535 -23.496063 -15.007874z" fill-rule="nonzero"></path><path fill="#000000" d="m22.719948 147.92787l0 -12.0l-4.46875 0l0 -1.59375l10.765625 0l0 1.59375l-4.5 0l0 12.0l-1.796875 0z" fill-rule="nonzero"></path><path fill="#cfe2f3" d="m110.0 19.007874l0 0c0 -8.288619 10.5195465 -15.007874 23.496063 -15.007874l0 0c12.976517 0 23.496063 6.7192545 23.496063 15.007874l0 0c0 8.28862 -10.5195465 15.007874 -23.496063 15.007874l0 0c-12.976517 0 -23.496063 -6.7192535 -23.496063 -15.007874z" fill-rule="nonzero"></path><path stroke="#000000" stroke-width="1.0" stroke-linejoin="round" stroke-linecap="butt" d="m110.0 19.007874l0 0c0 -8.288619 10.5195465 -15.007874 23.496063 -15.007874l0 0c12.976517 0 23.496063 6.7192545 23.496063 15.007874l0 0c0 8.28862 -10.5195465 15.007874 -23.496063 15.007874l0 0c-12.976517 0 -23.496063 -6.7192535 -23.496063 -15.007874z" fill-rule="nonzero"></path><path fill="#000000" d="m128.53548 25.927872l-3.6093674 -13.59375l1.84375 0l2.0624924 8.90625q0.34375 1.40625 0.578125 2.78125q0.515625 -2.171875 0.609375 -2.515625l2.59375 -9.171875l2.171875 0l1.953125 6.875q0.734375 2.5625 1.046875 4.8125q0.265625 -1.28125 0.6875 -2.953125l2.125 -8.734375l1.8125 0l-3.734375 13.59375l-1.734375 0l-2.859375 -10.359375q-0.359375 -1.296875 -0.421875 -1.59375q-0.21875 0.9375 -0.40625 1.59375l-2.890625 10.359375l-1.828125 0z" fill-rule="nonzero"></path><path fill="#000000" fill-opacity="0.0" d="m133.49606 311.28085l-30.992126 -155.2756" fill-rule="nonzero"></path><path stroke="#000000" stroke-width="1.0" stroke-linejoin="round" stroke-linecap="butt" d="m133.49606 311.28085l-29.817726 -149.39166" fill-rule="evenodd"></path><path fill="#000000" stroke="#000000" stroke-width="1.0" stroke-linecap="butt" d="m105.29812 161.56589l-2.5080414 -4.127014l-0.7315216 4.7736206z" fill-rule="evenodd"></path><path fill="#000000" fill-opacity="0.0" d="m133.49606 311.28085l53.51181 -155.2756" fill-rule="nonzero"></path><path stroke="#000000" stroke-width="1.0" stroke-linejoin="round" stroke-linecap="butt" d="m133.49606 311.28085l51.5569 -149.60301" fill-rule="evenodd"></path><path fill="#000000" stroke="#000000" stroke-width="1.0" stroke-linecap="butt" d="m186.61456 162.216l-0.08300781 -4.8286285l-3.0401917 3.752304z" fill-rule="evenodd"></path><path fill="#000000" fill-opacity="0.0" d="m102.49606 126.0l30.992126 -92.0" fill-rule="nonzero"></path><path stroke="#000000" stroke-width="1.0" stroke-linejoin="round" stroke-linecap="butt" d="m102.49606 126.0l29.076675 -86.313965" fill-rule="evenodd"></path><path fill="#000000" stroke="#000000" stroke-width="1.0" stroke-linecap="butt" d="m133.13803 40.21334l-0.11654663 -4.8279343l-3.0140533 3.7733269z" fill-rule="evenodd"></path><path fill="#000000" fill-opacity="0.0" d="m187.00787 126.0l-53.51181 -92.0" fill-rule="nonzero"></path><path stroke="#000000" stroke-width="1.0" stroke-linejoin="round" stroke-linecap="butt" d="m187.00787 126.0l-50.495102 -86.81353" fill-rule="evenodd"></path><path fill="#000000" stroke="#000000" stroke-width="1.0" stroke-linecap="butt" d="m137.94055 38.356003l-3.7094727 -3.0923195l0.85391235 4.75325z" fill-rule="evenodd"></path><path fill="#000000" fill-opacity="0.0" d="m110.0 326.28873l-86.48819 -170.26773" fill-rule="nonzero"></path><path stroke="#000000" stroke-width="1.0" stroke-linejoin="round" stroke-linecap="butt" d="m110.0 326.28873l-83.77092 -164.9183" fill-rule="evenodd"></path><path fill="#000000" stroke="#000000" stroke-width="1.0" stroke-linecap="butt" d="m27.701717 160.6224l-3.5278435 -3.2980194l0.5825653 4.7940826z" fill-rule="evenodd"></path><path fill="#cfe2f3" d="m0 19.007874l0 0c0 -8.288619 10.519546 -15.007874 23.496063 -15.007874l0 0c12.976517 0 23.496063 6.7192545 23.496063 15.007874l0 0c0 8.28862 -10.5195465 15.007874 -23.496063 15.007874l0 0c-12.976518 0 -23.496063 -6.7192535 -23.496063 -15.007874z" fill-rule="nonzero"></path><path stroke="#000000" stroke-width="1.0" stroke-linejoin="round" stroke-linecap="butt" d="m0 19.007874l0 0c0 -8.288619 10.519546 -15.007874 23.496063 -15.007874l0 0c12.976517 0 23.496063 6.7192545 23.496063 15.007874l0 0c0 8.28862 -10.5195465 15.007874 -23.496063 15.007874l0 0c-12.976518 0 -23.496063 -6.7192535 -23.496063 -15.007874z" fill-rule="nonzero"></path><path fill="#000000" d="m28.005974 24.474747q1.265625 0.859375 2.3125 1.265625l-0.53125 1.25q-1.453125 -0.53125 -2.921875 -1.671875q-1.5 0.84375 -3.328125 0.84375q-1.84375 0 -3.359375 -0.890625q-1.5 -0.890625 -2.3125 -2.5q-0.8125 -1.625 -0.8125 -3.640625q0 -2.015625 0.8125 -3.65625q0.828125 -1.65625 2.328125 -2.515625q1.515625 -0.875 3.375 -0.875q1.890625 0 3.390625 0.90625q1.515625 0.890625 2.3125 2.5q0.796875 1.609375 0.796875 3.625q0 1.6875 -0.515625 3.03125q-0.515625 1.328125 -1.546875 2.328125zm-3.953125 -2.296875q1.5625 0.421875 2.5625 1.296875q1.59375 -1.453125 1.59375 -4.359375q0 -1.65625 -0.5625 -2.875q-0.5625 -1.234375 -1.640625 -1.921875q-1.078125 -0.6875 -2.421875 -0.6875q-2.015625 0 -3.34375 1.390625q-1.328125 1.375 -1.328125 4.109375q0 2.65625 1.3125 4.078125q1.3125 1.40625 3.359375 1.40625q0.953125 0 1.8125 -0.359375q-0.84375 -0.546875 -1.78125 -0.78125l0.4375 -1.296875z" fill-rule="nonzero"></path><path fill="#000000" fill-opacity="0.0" d="m23.496063 126.0l0 -92.0" fill-rule="nonzero"></path><path stroke="#000000" stroke-width="1.0" stroke-linejoin="round" stroke-linecap="butt" d="m23.496063 126.0l0 -86.0" fill-rule="evenodd"></path><path fill="#000000" stroke="#000000" stroke-width="1.0" stroke-linecap="butt" d="m25.147795 40.0l-1.6517315 -4.5380974l-1.6517334 4.5380974z" fill-rule="evenodd"></path><path fill="#ffff00" d="m244.7559 329.46457l0 0c0 -8.288635 20.82051 -15.007874 46.503952 -15.007874l0 0c25.68341 0 46.503937 6.7192383 46.503937 15.007874l0 0c0 8.288605 -20.820526 15.007874 -46.503937 15.007874l0 0c-25.683441 0 -46.503952 -6.719269 -46.503952 -15.007874z" fill-rule="nonzero"></path><path stroke="#ff0000" stroke-width="1.0" stroke-linejoin="round" stroke-linecap="butt" d="m244.7559 329.46457l0 0c0 -8.288635 20.82051 -15.007874 46.503952 -15.007874l0 0c25.68341 0 46.503937 6.7192383 46.503937 15.007874l0 0c0 8.288605 -20.820526 15.007874 -46.503937 15.007874l0 0c-25.683441 0 -46.503952 -6.719269 -46.503952 -15.007874z" fill-rule="nonzero"></path><path fill="#000000" d="m272.57236 336.38455l5.234375 -13.59375l1.9375 0l5.5625 13.59375l-2.046875 0l-1.59375 -4.125l-5.6875 0l-1.484375 4.125l-1.921875 0zm3.921875 -5.578125l4.609375 0l-1.40625 -3.78125q-0.65625 -1.703125 -0.96875 -2.8125q-0.265625 1.3125 -0.734375 2.59375l-1.5 4.0zm12.990448 9.578125q-1.375 -1.75 -2.328125 -4.078125q-0.953125 -2.34375 -0.953125 -4.84375q0 -2.21875 0.703125 -4.234375q0.84375 -2.34375 2.578125 -4.671875l1.2030945 0q-1.1249695 1.921875 -1.4843445 2.75q-0.5625 1.28125 -0.890625 2.671875q-0.40625 1.734375 -0.40625 3.484375q0 4.46875 2.7812195 8.921875l-1.2030945 0zm1.8532715 -4.0l5.265625 -7.09375l-4.640625 -6.5l2.140625 0l2.46875 3.484375q0.78125 1.078125 1.09375 1.671875q0.453125 -0.75 1.078125 -1.546875l2.734375 -3.609375l1.96875 0l-4.78125 6.40625l5.140625 7.1875l-2.21875 0l-3.421875 -4.859375q-0.296875 -0.40625 -0.59375 -0.90625q-0.453125 0.75 -0.65625 1.03125l-3.40625 4.734375l-2.171875 0zm14.709198 4.0l-1.1875 0q2.765625 -4.453125 2.765625 -8.921875q0 -1.734375 -0.390625 -3.453125q-0.328125 -1.390625 -0.890625 -2.671875q-0.359375 -0.84375 -1.484375 -2.78125l1.1875 0q1.75 2.328125 2.578125 4.671875q0.71875 2.015625 0.71875 4.234375q0 2.5 -0.96875 4.84375q-0.953125 2.328125 -2.328125 4.078125z" fill-rule="nonzero"></path><path fill="#ffff00" d="m217.57217 216.36745l0 0c0 -8.28862 20.820526 -15.007874 46.503937 -15.007874l0 0c25.68341 0 46.503937 6.7192535 46.503937 15.007874l0 0c0 8.28862 -20.820526 15.007889 -46.503937 15.007889l0 0c-25.68341 0 -46.503937 -6.719269 -46.503937 -15.007889z" fill-rule="nonzero"></path><path stroke="#ff0000" stroke-width="1.0" stroke-linejoin="round" stroke-linecap="butt" d="m217.57217 216.36745l0 0c0 -8.28862 20.820526 -15.007874 46.503937 -15.007874l0 0c25.68341 0 46.503937 6.7192535 46.503937 15.007874l0 0c0 8.28862 -20.820526 15.007889 -46.503937 15.007889l0 0c-25.68341 0 -46.503937 -6.719269 -46.503937 -15.007889z" fill-rule="nonzero"></path><path fill="#000000" d="m245.38861 223.28745l5.234375 -13.59375l1.9375 0l5.5625 13.59375l-2.046875 0l-1.59375 -4.125l-5.6875 0l-1.484375 4.125l-1.921875 0zm3.921875 -5.578125l4.609375 0l-1.40625 -3.78125q-0.65625 -1.703125 -0.96875 -2.8125q-0.265625 1.3125 -0.734375 2.59375l-1.5 4.0zm12.990448 9.578125q-1.375 -1.75 -2.328125 -4.078125q-0.953125 -2.34375 -0.953125 -4.84375q0 -2.21875 0.703125 -4.234375q0.84375 -2.34375 2.578125 -4.671875l1.203125 0q-1.125 1.921875 -1.484375 2.75q-0.5625 1.28125 -0.890625 2.671875q-0.40625 1.734375 -0.40625 3.484375q0 4.46875 2.78125 8.921875l-1.203125 0zm7.072052 -4.0l0 -5.765625l-5.234375 -7.828125l2.1875 0l2.671875 4.09375q0.75 1.15625 1.390625 2.296875q0.609375 -1.0625 1.484375 -2.40625l2.625 -3.984375l2.109375 0l-5.4375 7.828125l0 5.765625l-1.796875 0zm9.490448 4.0l-1.1875 0q2.765625 -4.453125 2.765625 -8.921875q0 -1.734375 -0.390625 -3.453125q-0.328125 -1.390625 -0.890625 -2.671875q-0.359375 -0.84375 -1.484375 -2.78125l1.1875 0q1.75 2.328125 2.578125 4.671875q0.71875 2.015625 0.71875 4.234375q0 2.5 -0.96875 4.84375q-0.953125 2.328125 -2.328125 4.078125z" fill-rule="nonzero"></path><path fill="#ffff00" d="m372.01575 141.00787l0 0c0 -8.28862 20.820526 -15.007874 46.503937 -15.007874l0 0c25.68341 0 46.503937 6.7192535 46.503937 15.007874l0 0c0 8.28862 -20.820526 15.007874 -46.503937 15.007874l0 0c-25.68341 0 -46.503937 -6.7192535 -46.503937 -15.007874z" fill-rule="nonzero"></path><path stroke="#ff0000" stroke-width="1.0" stroke-linejoin="round" stroke-linecap="butt" d="m372.01575 141.00787l0 0c0 -8.28862 20.820526 -15.007874 46.503937 -15.007874l0 0c25.68341 0 46.503937 6.7192535 46.503937 15.007874l0 0c0 8.28862 -20.820526 15.007874 -46.503937 15.007874l0 0c-25.68341 0 -46.503937 -6.7192535 -46.503937 -15.007874z" fill-rule="nonzero"></path><path fill="#000000" d="m400.356 147.92787l5.234375 -13.59375l1.9375 0l5.5625 13.59375l-2.046875 0l-1.59375 -4.125l-5.6875 0l-1.484375 4.125l-1.921875 0zm3.921875 -5.578125l4.609375 0l-1.40625 -3.78125q-0.65625 -1.703125 -0.96875 -2.8125q-0.265625 1.3125 -0.734375 2.59375l-1.5 4.0zm12.990448 9.578125q-1.375 -1.75 -2.328125 -4.078125q-0.953125 -2.34375 -0.953125 -4.84375q0 -2.21875 0.703125 -4.234375q0.84375 -2.34375 2.578125 -4.671875l1.203125 0q-1.125 1.921875 -1.484375 2.75q-0.5625 1.28125 -0.890625 2.671875q-0.40625 1.734375 -0.40625 3.484375q0 4.46875 2.78125 8.921875l-1.203125 0zm2.150177 -4.0l0 -1.671875l6.96875 -8.703125q0.75 -0.9375 1.421875 -1.625l-7.59375 0l0 -1.59375l9.734375 0l0 1.59375l-7.625 9.4375l-0.828125 0.953125l8.6875 0l0 1.609375l-10.765625 0zm13.364716 4.0l-1.1875 0q2.765625 -4.453125 2.765625 -8.921875q0 -1.734375 -0.390625 -3.453125q-0.328125 -1.390625 -0.890625 -2.671875q-0.359375 -0.84375 -1.484375 -2.78125l1.1875 0q1.75 2.328125 2.578125 4.671875q0.71875 2.015625 0.71875 4.234375q0 2.5 -0.96875 4.84375q-0.953125 2.328125 -2.328125 4.078125z" fill-rule="nonzero"></path><path fill="#ffff00" d="m295.0 19.007874l0 0c0 -8.288619 20.820526 -15.007874 46.503937 -15.007874l0 0c25.68341 0 46.503937 6.7192545 46.503937 15.007874l0 0c0 8.28862 -20.820526 15.007874 -46.503937 15.007874l0 0c-25.68341 0 -46.503937 -6.7192535 -46.503937 -15.007874z" fill-rule="nonzero"></path><path stroke="#ff0000" stroke-width="1.0" stroke-linejoin="round" stroke-linecap="butt" d="m295.0 19.007874l0 0c0 -8.288619 20.820526 -15.007874 46.503937 -15.007874l0 0c25.68341 0 46.503937 6.7192545 46.503937 15.007874l0 0c0 8.28862 -20.820526 15.007874 -46.503937 15.007874l0 0c-25.68341 0 -46.503937 -6.7192535 -46.503937 -15.007874z" fill-rule="nonzero"></path><path fill="#000000" d="m320.2339 25.927872l5.234375 -13.59375l1.9375 0l5.5625 13.59375l-2.046875 0l-1.59375 -4.125l-5.6875 0l-1.484375 4.125l-1.921875 0zm3.921875 -5.578125l4.609375 0l-1.40625 -3.78125q-0.65625 -1.703125 -0.96875 -2.8125q-0.265625 1.3125 -0.734375 2.59375l-1.5 4.0zm12.990448 9.578125q-1.375 -1.75 -2.328125 -4.078125q-0.953125 -2.34375 -0.953125 -4.84375q0 -2.21875 0.703125 -4.234375q0.84375 -2.34375 2.578125 -4.671875l1.203125 0q-1.125 1.921875 -1.484375 2.75q-0.5625 1.28125 -0.890625 2.671875q-0.40625 1.734375 -0.40625 3.484375q0 4.46875 2.78125 8.921875l-1.203125 0zm5.618927 -4.0l-3.609375 -13.59375l1.84375 0l2.0625 8.90625q0.34375 1.40625 0.578125 2.78125q0.515625 -2.171875 0.609375 -2.515625l2.59375 -9.171875l2.171875 0l1.953125 6.875q0.734375 2.5625 1.046875 4.8125q0.265625 -1.28125 0.6875 -2.953125l2.125 -8.734375l1.8125 0l-3.734375 13.59375l-1.734375 0l-2.859375 -10.359375q-0.359375 -1.296875 -0.421875 -1.59375q-0.21875 0.9375 -0.40625 1.59375l-2.890625 10.359375l-1.828125 0zm16.108673 4.0l-1.1875 0q2.765625 -4.453125 2.765625 -8.921875q0 -1.734375 -0.390625 -3.453125q-0.328125 -1.390625 -0.890625 -2.671875q-0.359375 -0.84375 -1.484375 -2.78125l1.1875 0q1.75 2.328125 2.578125 4.671875q0.71875 2.015625 0.71875 4.234375q0 2.5 -0.96875 4.84375q-0.953125 2.328125 -2.328125 4.078125z" fill-rule="nonzero"></path><path fill="#000000" fill-opacity="0.0" d="m244.7559 329.46457l-87.74803 -3.1810913" fill-rule="nonzero"></path><path stroke="#ff0000" stroke-width="1.0" stroke-linejoin="round" stroke-linecap="butt" d="m244.7559 329.46457l-81.75197 -2.9637146" fill-rule="evenodd"></path><path fill="#ff0000" stroke="#ff0000" stroke-width="1.0" stroke-linecap="butt" d="m163.06378 324.8502l-4.5949707 1.4862366l4.475281 1.8150635z" fill-rule="evenodd"></path><path fill="#000000" fill-opacity="0.0" d="m291.25986 314.4567l-27.181122 -83.086624" fill-rule="nonzero"></path><path stroke="#0000ff" stroke-width="1.0" stroke-linejoin="round" stroke-linecap="butt" d="m291.25986 314.4567l-25.315552 -77.384" fill-rule="evenodd"></path><path fill="#0000ff" stroke="#0000ff" stroke-width="1.0" stroke-linecap="butt" d="m267.51416 236.55911l-2.9808655 -3.799591l-0.158844 4.826721z" fill-rule="evenodd"></path><path fill="#000000" fill-opacity="0.0" d="m291.25986 314.4567l127.27557 -158.4252" fill-rule="nonzero"></path><path stroke="#0000ff" stroke-width="1.0" stroke-linejoin="round" stroke-linecap="butt" d="m291.25986 314.4567l123.51779 -153.74771" fill-rule="evenodd"></path><path fill="#0000ff" stroke="#0000ff" stroke-width="1.0" stroke-linecap="butt" d="m416.06528 161.74347l1.5545654 -4.572296l-4.129883 2.5033264z" fill-rule="evenodd"></path><path fill="#000000" fill-opacity="0.0" d="m231.19287 205.75528l-112.09449 -54.141724" fill-rule="nonzero"></path><path stroke="#ff0000" stroke-width="1.0" stroke-linejoin="round" stroke-linecap="butt" d="m231.19287 205.7553l-106.6917 -51.53218" fill-rule="evenodd"></path><path fill="#ff0000" stroke="#ff0000" stroke-width="1.0" stroke-linecap="butt" d="m125.21955 152.73578l-4.8047867 -0.48640442l3.3680267 3.4610596z" fill-rule="evenodd"></path><path fill="#000000" fill-opacity="0.0" d="m372.01575 141.00787l-161.51181 0" fill-rule="nonzero"></path><path stroke="#ff0000" stroke-width="1.0" stroke-linejoin="round" stroke-linecap="butt" d="m372.01575 141.00787l-155.51181 0" fill-rule="evenodd"></path><path fill="#ff0000" stroke="#ff0000" stroke-width="1.0" stroke-linecap="butt" d="m216.50394 139.35614l-4.538101 1.6517334l4.538101 1.6517334z" fill-rule="evenodd"></path><path fill="#000000" fill-opacity="0.0" d="m264.0761 201.35957l77.41733 -167.33858" fill-rule="nonzero"></path><path stroke="#0000ff" stroke-width="1.0" stroke-linejoin="round" stroke-linecap="butt" d="m264.0761 201.35957l74.89804 -161.8931" fill-rule="evenodd"></path><path fill="#0000ff" stroke="#0000ff" stroke-width="1.0" stroke-linecap="butt" d="m340.47324 40.160004l0.40637207 -4.812214l-3.404541 3.4251518z" fill-rule="evenodd"></path><path fill="#000000" fill-opacity="0.0" d="m418.51968 126.0l-77.00787 -92.0" fill-rule="nonzero"></path><path stroke="#0000ff" stroke-width="1.0" stroke-linejoin="round" stroke-linecap="butt" d="m418.51968 126.0l-73.15671 -87.39908" fill-rule="evenodd"></path><path fill="#0000ff" stroke="#0000ff" stroke-width="1.0" stroke-linecap="butt" d="m346.62955 37.54074l-4.179413 -2.4197235l1.6462708 4.5400887z" fill-rule="evenodd"></path><path fill="#000000" fill-opacity="0.0" d="m295.0 19.007874l-138.01575 0" fill-rule="nonzero"></path><path stroke="#ff0000" stroke-width="1.0" stroke-linejoin="round" stroke-linecap="butt" d="m295.0 19.007874l-132.01575 0" fill-rule="evenodd"></path><path fill="#ff0000" stroke="#ff0000" stroke-width="1.0" stroke-linecap="butt" d="m162.98425 17.356142l-4.538101 1.6517315l4.538101 1.6517334z" fill-rule="evenodd"></path><path fill="#000000" fill-opacity="0.0" d="m137.17401 206.24611l11.842514 46.771652l-29.102364 7.3700867l-11.842514 -46.771667z" fill-rule="nonzero"></path><path fill="#000000" d="m121.81724 223.98074l0.69675446 -0.17645264q-0.9483261 -0.30786133 -1.2091141 -1.3378601q-0.16491699 -0.6513214 0.05670166 -1.3038177q0.22162628 -0.65249634 0.79623413 -1.1203918q0.57460785 -0.46788025 1.4228363 -0.6826935q0.83306885 -0.21096802 1.5685654 -0.10710144q0.75447845 0.11517334 1.240921 0.57225037q0.50159454 0.4532318 0.6741791 1.1348419q0.1265564 0.4998474 0.014221191 0.94737244q-0.112342834 0.44752502 -0.38420868 0.77427673l2.7415695 -0.6943054l0.23779297 0.93911743l-7.6340103 1.9332886l-0.22244263 -0.8785248zm2.0088654 -3.6517944q-1.0602798 0.2685089 -1.4792023 0.84202576q-0.39993286 0.5848236 -0.24652863 1.1907043q0.15724182 0.6210327 0.76447296 0.91856384q0.60723877 0.29753113 1.6372223 0.036697388q1.1360092 -0.2876892 1.5549316 -0.8612213q0.42275238 -0.55836487 0.2578354 -1.2096863q-0.15724182 -0.6210327 -0.7796173 -0.9147186q-0.6034012 -0.2823944 -1.7091141 -0.0023651123zm1.2829971 9.141266l0.12427521 1.0000916q-0.90574646 -0.012390137 -1.5325394 -0.5145111q-0.62680054 -0.5021057 -0.86841583 -1.4563751q-0.3068161 -1.2117615 0.25512695 -2.111618q0.5619354 -0.8998718 1.9100037 -1.241272q1.4086609 -0.35673523 2.3462524 0.16337585q0.9565811 0.5314331 1.2442245 1.6674652q0.28379822 1.1208649 -0.29711914 2.00943q-0.56578064 0.88471985 -1.9441376 1.2337799q-0.075737 0.019180298 -0.24235535 0.06138611l-1.0431747 -4.119995q-0.8973007 0.275589 -1.2669449 0.8527527q-0.36580658 0.5923004 -0.18938446 1.2890625q0.13039398 0.5149994 0.4799347 0.813324q0.36468506 0.29447937 1.0242538 0.35310364zm0.7361374 -3.458435l0.78237915 3.0899963q0.6814194 -0.23704529 0.95692444 -0.61305237q0.41508484 -0.5886688 0.23482513 -1.3005829q-0.16490936 -0.6513214 -0.71539307 -0.9793396q-0.5353317 -0.3318634 -1.2587357 -0.19702148zm-4.1481476 6.40654l7.649147 -1.9371185l0.21861267 0.8633728l-0.7118988 0.1802826q0.485672 0.19937134 0.7936096 0.524353q0.30792236 0.32496643 0.44599915 0.8702698q0.17642212 0.6967621 -0.049041748 1.3341064q-0.22544861 0.6373596 -0.822876 1.0787811q-0.58229065 0.43759155 -1.3850708 0.6408844q-0.8482208 0.21481323 -1.6065292 0.084487915q-0.74316406 -0.13415527 -1.2562637 -0.63282776q-0.5092621 -0.4835205 -0.6703415 -1.1197052q-0.118888855 -0.46955872 -0.017860413 -0.8981018q0.10486603 -0.4133911 0.34643555 -0.7324524l-2.6961365 0.68278503l-0.23778534 -0.93911743zm5.06176 -0.3792572q-1.0602798 0.26852417 -1.4640503 0.8381958q-0.3886261 0.56585693 -0.23521423 1.1717377q0.15724182 0.62101746 0.7834549 0.9298706q0.645195 0.32014465 1.7660599 0.03630066q1.0451355 -0.26467896 1.4640503 -0.8381958q0.42276 -0.5583801 0.26934814 -1.1642609q-0.15341187 -0.60588074 -0.83273315 -0.9335022q-0.67549133 -0.31248474 -1.7509155 -0.040145874zm0.07243347 4.805786l0.38542175 0.8856201q-0.54125977 0.21765137 -0.7559891 0.64276123q-0.19573975 0.43640137 -0.03466797 1.072586q0.16491699 0.6513214 0.499115 0.8890381q0.33803558 0.2528839 0.701561 0.16082764q0.31808472 -0.080566406 0.43081665 -0.39923096q0.07131958 -0.2276001 0.07646179 -1.0348206q-0.0032958984 -1.0951996 0.074920654 -1.5502014q0.09718323 -0.44369507 0.37672424 -0.7401428q0.28337097 -0.28129578 0.69233704 -0.38487244q0.37867737 -0.09588623 0.72380066 -0.005996704q0.36026 0.08607483 0.6490326 0.3353119q0.2203064 0.16986084 0.4222107 0.52168274q0.2019043 0.3518219 0.30929565 0.77593994q0.16491699 0.6513214 0.10588074 1.1820526q-0.0552063 0.5458832 -0.3309021 0.8574829q-0.25672913 0.3229065 -0.763855 0.54803467l-0.35128784 -0.87812805q0.40493774 -0.18313599 0.5554352 -0.5436249q0.16947937 -0.34916687 0.031417847 -0.89445496q-0.16491699 -0.6513214 -0.4460144 -0.8702698q-0.28108215 -0.2189331 -0.5688782 -0.14605713q-0.1817627 0.046035767 -0.29122925 0.18658447q-0.120788574 0.15953064 -0.16545105 0.42874146q-0.010925293 0.14782715 -0.031417847 0.89445496q-0.0082092285 1.0497589 -0.07510376 1.4857788q-0.06690979 0.4360199 -0.3426056 0.7476196q-0.26055908 0.30775452 -0.7452545 0.43049622q-0.4695511 0.118927 -0.9475479 -0.05015564q-0.47799683 -0.16908264 -0.8356018 -0.62654114q-0.35759735 -0.4574585 -0.5225067 -1.1087799q-0.27230072 -1.0754395 0.021217346 -1.7622681q0.3125 -0.6755066 1.1526642 -1.049469z" fill-rule="nonzero"></path><path fill="#000000" fill-opacity="0.0" d="m120.55516 255.70743l18.960632 -44.377945l28.283463 12.094482l-18.960632 44.377945z" fill-rule="nonzero"></path><path fill="#000000" d="m143.51901 250.92964l-0.6608734 -0.28259277q0.56707764 0.8202667 0.14962769 1.7973175q-0.26397705 0.6178436 -0.83592224 1.0020447q-0.5719452 0.3841858 -1.3124847 0.4073944q-0.74053955 0.023208618 -1.5450745 -0.3208313q-0.79016113 -0.33789062 -1.3117828 -0.8668213q-0.52986145 -0.54945374 -0.6392975 -1.2080231q-0.123794556 -0.66470337 0.15246582 -1.3112946q0.20259094 -0.4741516 0.56333923 -0.761734q0.36073303 -0.28756714 0.7750244 -0.38230896l-2.600357 -1.1119537l0.3806305 -0.8908539l7.240753 3.096283l-0.35604858 0.833374zm-3.8118286 1.6837463q1.005661 0.43003845 1.6865234 0.2283783q0.67263794 -0.22218323 0.91819763 -0.7969208q0.25169373 -0.5891113 -0.05050659 -1.1941528q-0.30221558 -0.60505676 -1.2791443 -1.0228119q-1.0774994 -0.4607544 -1.7583466 -0.25907898q-0.6747284 0.18730164 -0.93870544 0.80514526q-0.25169373 0.5891113 0.06488037 1.2003021q0.30833435 0.590683 1.3571014 1.0391388zm4.5248566 -8.045364l0.50782776 -0.8704376q0.7124481 0.55955505 0.9061127 1.3391113q0.19366455 0.7795563 -0.19308472 1.6847687q-0.49111938 1.1494751 -1.4836121 1.5237732q-0.9924927 0.37428284 -2.2711334 -0.1724701q-1.3360901 -0.5713501 -1.7658844 -1.553833q-0.4380188 -1.003006 0.022399902 -2.0806427q0.45428467 -1.0632629 1.4550018 -1.417038q0.98635864 -0.35992432 2.2937164 0.1991272q0.07183838 0.030715942 0.22987366 0.09828186l-1.6697998 3.9082336q0.8804016 0.3255005 1.5243073 0.091033936q0.6500397 -0.24884033 0.9324341 -0.90979004q0.20872498 -0.4885254 0.111831665 -0.9378052q-0.11126709 -0.45542908 -0.59999084 -0.90231323zm-2.6828613 2.3024597l1.2523499 -2.9311676q-0.6854248 -0.22512817 -1.1324921 -0.093429565q-0.6870117 0.21603394 -0.97554016 0.8913574q-0.26397705 0.6178436 -0.025375366 1.2126923q0.22424316 0.58869934 0.88105774 0.9205475zm7.183197 -2.5752563l-7.255142 -3.102417l0.3499298 -0.81900024l0.67523193 0.28874207q-0.26512146 -0.45324707 -0.31277466 -0.898468q-0.047668457 -0.44522095 0.17333984 -0.96247864q0.2823944 -0.6609497 0.8481903 -1.030777q0.56581116 -0.36982727 1.3084412 -0.3581543q0.7282715 0.0055389404 1.4897003 0.33113098q0.80451965 0.34403992 1.3282471 0.90786743q0.50935364 0.5576782 0.61473083 1.2654877q0.11151123 0.69343567 -0.14633179 1.2969208q-0.19030762 0.4454193 -0.5305481 0.72476196q-0.3340912 0.26498413 -0.71965027 0.37200928l2.557251 1.0935364l-0.38061523 0.8908386zm-4.253525 -2.770523q1.005661 0.43003845 1.6721497 0.222229q0.6521301 -0.21395874 0.8976898 -0.7886963q0.25169373 -0.5891113 -0.05873108 -1.2146606q-0.31866455 -0.64608765 -1.3817902 -1.1006927q-0.9913025 -0.42388916 -1.6721649 -0.222229q-0.67471313 0.18730164 -0.9202728 0.7620392q-0.24555969 0.57473755 0.095687866 1.247467q0.34739685 0.6583557 1.3674316 1.0945435zm2.8573914 -3.8642426l0.2308197 -0.937912q0.56225586 0.15545654 0.9907837 -0.05215454q0.42030334 -0.2281189 0.67814636 -0.83158875q0.26397705 -0.6178436 0.14251709 -1.0096588q-0.11531067 -0.4061737 -0.46011353 -0.5536194q-0.30169678 -0.1289978 -0.5845947 0.055908203q-0.19474792 0.13764954 -0.6884613 0.77619934q-0.6616821 0.8726196 -0.99983215 1.1868439q-0.3463745 0.29371643 -0.74838257 0.35972595q-0.39587402 0.051635742 -0.78378296 -0.114227295q-0.35916138 -0.15359497 -0.57896423 -0.43450928q-0.23416138 -0.2870636 -0.31251526 -0.66044617q-0.07209778 -0.2687378 -0.019180298 -0.6709595q0.05290222 -0.40220642 0.22479248 -0.8045349q0.26397705 -0.6178436 0.63282776 -1.0039062q0.37498474 -0.4004364 0.7831421 -0.4808197q0.3999176 -0.100875854 0.9395752 0.027923584l-0.2534027 0.91127014q-0.43295288 -0.10017395 -0.77124023 0.09503174q-0.34649658 0.17471313 -0.5675049 0.6919861q-0.26397705 0.6178436 -0.1733551 0.96247864q0.09063721 0.344635 0.36360168 0.46136475q0.1723938 0.07371521 0.3446808 0.028427124q0.19276428 -0.053512573 0.3915558 -0.24040222q0.098358154 -0.11088562 0.56752014 -0.6919708q0.6432648 -0.82951355 0.960907 -1.1355133q0.3176422 -0.306015 0.72579956 -0.38638306q0.39378357 -0.086517334 0.8535156 0.110076904q0.44535828 0.19044495 0.72276306 0.61494446q0.27738953 0.42451477 0.28416443 1.005188q0.0067749023 0.5806885 -0.25720215 1.1985321q-0.4358673 1.0201569 -1.0857849 1.3880005q-0.6581421 0.34733582 -1.5527954 0.13470459z" fill-rule="nonzero"></path><path fill="#000000" fill-opacity="0.0" d="m81.12184 104.50765l17.41732 -44.976383l28.692917 11.118114l-17.41732 44.97637z" fill-rule="nonzero"></path><path fill="#000000" d="m103.909035 98.94311l-0.6701889 -0.25969696q0.59490204 0.80026245 0.21121216 1.7910614q-0.24263 0.6265335 -0.80107117 1.030159q-0.55844116 0.40361786 -1.2977829 0.45227814q-0.7393341 0.04865265 -1.5552292 -0.2674942q-0.8013153 -0.3105011 -1.340805 -0.8211746q-0.54842377 -0.5308838 -0.6803894 -1.1852722q-0.14653015 -0.6600342 0.10738373 -1.315712q0.186203 -0.48082733 0.5368805 -0.7806244q0.3506775 -0.29979706 0.76148224 -0.40872955l-2.6370697 -1.0218277l0.34983826 -0.90338135l7.34301 2.8453217l-0.3272705 0.8450928zm-3.7519302 1.8137894q1.0198593 0.39518738 1.6934204 0.17022705q0.66464233 -0.2451706 0.8903427 -0.8279953q0.23134613 -0.59739685 -0.09146118 -1.1916733q-0.32279968 -0.5942764 -1.3135223 -0.9781647q-1.0927124 -0.42341614 -1.7662735 -0.19845581q-0.667923 0.21038055 -0.910553 0.8369217q-0.23134613 0.5973892 0.106025696 1.197319q0.32844543 0.5797043 1.3920212 0.9918213zm4.246277 -8.195946l0.47768402 -0.887352q0.73124695 0.5347061 0.951561 1.307106q0.2203064 0.77240753 -0.13516998 1.6903534q-0.4514084 1.1656494 -1.4305115 1.5738373q-0.9791031 0.4081955 -2.2757797 -0.09425354q-1.3549652 -0.52503204 -1.8182373 -1.4921188q-0.4721985 -0.9873123 -0.04901123 -2.080101q0.41754913 -1.0782242 1.4055786 -1.4662018q0.97345734 -0.39362335 2.2992783 0.12011719q0.07285309 0.02822876 0.23311615 0.09033203l-1.5347672 3.9631958q0.8910904 0.29502106 1.5265884 0.03855896q0.6411438 -0.27103424 0.90070343 -0.9412842q0.19184113 -0.49539948 0.079582214 -0.94107056q-0.12683105 -0.4513092 -0.63061523 -0.8811188zm-2.6023788 2.3932877l1.1510773 -2.9724045q-0.6927643 -0.20140839 -1.1350708 -0.05441284q-0.67920685 0.23952484 -0.9444046 0.9243469q-0.24263 0.6265335 0.01625061 1.2127991q0.24430847 0.5806198 0.9121475 0.8896713zm7.0908585 -2.820671l-7.3575745 -2.8509598l0.32162476 -0.83052826l0.68476105 0.26533508q-0.2805252 -0.44384003 -0.34342957 -0.88713837q-0.06291199 -0.44330597 0.14022064 -0.9678421q0.259552 -0.67024994 0.81235504 -1.0593033q0.5527954 -0.38904572 1.2954178 -0.40291595q0.72805023 -0.019515991 1.5002365 0.2796936q0.81588745 0.31614685 1.3586655 0.8616028q0.5282059 0.5398102 0.657814 1.2435608q0.13524628 0.68917084 -0.101737976 1.3011398q-0.17491913 0.45168304 -0.50538635 0.74256134q-0.32482147 0.27629852 -0.70648956 0.39652252l2.593361 1.0048904l-0.34983826 0.90338135zm-4.346245 -2.6225052q1.019867 0.39517975 1.6788559 0.1645813q0.64443207 -0.2362442 0.87013245 -0.8190689q0.2313385 -0.59739685 -0.10038757 -1.2118912q-0.34065247 -0.6347122 -1.4187927 -1.052475q-1.0052948 -0.389534 -1.6788559 -0.1645813q-0.667923 0.21038818 -0.893631 0.7932129q-0.22570038 0.5828247 0.13845062 1.243393q0.36979675 0.6460037 1.4042282 1.0468292zm2.7232208 -3.9600906l0.19850159 -0.9452667q0.56728363 0.1360321 0.9884491 -0.08618164q0.41223907 -0.24243164 0.64923096 -0.854393q0.24262238 -0.62654114 0.107795715 -1.0139236q-0.12918854 -0.40195465 -0.47885895 -0.53744507q-0.30595398 -0.11856079 -0.5823517 0.07596588q-0.18991089 0.14425659 -0.661438 0.7993927q-0.6313782 0.8948288 -0.9585571 1.2204895q-0.33611298 0.3054428 -0.73563385 0.38523102q-0.39388275 0.065223694 -0.78725433 -0.08720398q-0.36424255 -0.14113617 -0.59355927 -0.41432953q-0.24388885 -0.27882385 -0.33501434 -0.64927673q-0.08126831 -0.2660904 -0.04219055 -0.66986847q0.03907776 -0.4037857 0.19706726 -0.81175995q0.24263 -0.62654114 0.59802246 -1.0250549q0.3610382 -0.4130783 0.76620483 -0.50743866q0.39624023 -0.11457825 0.9400253 -0.00440979l-0.2219925 0.9194031q-0.43615723 -0.08522034 -0.76755524 0.12150574q-0.34031677 0.18651581 -0.5434494 0.7110596q-0.24263 0.6265335 -0.14022064 0.9678421q0.10240173 0.3413086 0.37922668 0.44857025q0.1748352 0.06774902 0.34545135 0.016563416q0.19084167 -0.060112 0.38310242 -0.25372314q0.09449768 -0.11419678 0.54345703 -0.7110596q0.6144409 -0.85111237 0.9214096 -1.1678467q0.30697632 -0.3167343 0.71214294 -0.41109467q0.39059448 -0.1000061 0.85681915 0.08065033q0.45165253 0.17501068 0.7434616 0.5897064q0.29180908 0.41469574 0.31850433 0.9947815q0.026695251 0.58008575 -0.21593475 1.2066193q-0.4006195 1.0345078 -1.0375519 1.4244766q-0.64585876 0.36975098 -1.5473099 0.1880188z" fill-rule="nonzero"></path><path fill="#000000" fill-opacity="0.0" d="m171.07939 43.463318l21.732285 43.08661l-26.803146 13.511818l-21.732285 -43.086617z" fill-rule="nonzero"></path><path fill="#000000" d="m159.94344 64.10798l0.6417999 -0.32354355q-0.9926758 -0.094516754 -1.4711609 -1.0431747q-0.30256653 -0.59988785 -0.22807312 -1.284874q0.07450867 -0.6849899 0.5337219 -1.2664528q0.45922852 -0.58145905 1.2405548 -0.9753418q0.76737976 -0.38684464 1.5079498 -0.4452057q0.7615509 -0.051445007 1.3357697 0.2890129q0.58818054 0.3334236 0.90483093 0.96121216q0.23220825 0.46038055 0.21983337 0.92157364q-0.012390137 0.46119308 -0.20675659 0.83914566l2.5253906 -1.2730789l0.43626404 0.8649521l-7.032013 3.5449257l-0.40811157 -0.8091507zm1.1671906 -4.0005302q-0.9766693 0.49235153 -1.2609406 1.1431007q-0.26327515 0.65766907 0.018188477 1.215702q0.28849792 0.57198715 0.94595337 0.7305031q0.65745544 0.15851593 1.6062164 -0.319767q1.0464325 -0.5275192 1.3307037 -1.1782722q0.29130554 -0.63679886 -0.011276245 -1.2366867q-0.28849792 -0.57198334 -0.9598999 -0.72346497q-0.65042114 -0.14456558 -1.6689453 0.36888504zm3.239624 8.643436l0.33872986 0.94911957q-0.8868866 0.18462372 -1.6079102 -0.16932678q-0.72102356 -0.35394287 -1.1643372 -1.2328491q-0.56292725 -1.116066 -0.2099762 -2.1164017q0.3529358 -1.0003357 1.594696 -1.6263275q1.2975769 -0.6541214 2.3259277 -0.35011292q1.0493164 0.31093597 1.5770721 1.3572464q0.5207062 1.0323639 0.14677429 2.0257797q-0.35998535 0.98638916 -1.6296539 1.626442q-0.06976318 0.03517151 -0.22323608 0.1125412l-1.9139557 -3.7946396q-0.81604004 0.46387482 -1.0514221 1.1074753q-0.22833252 0.657547 0.09535217 1.2992859q0.23924255 0.47433472 0.64530945 0.6895828q0.4200287 0.2082138 1.0766296 0.12218475zm-0.033187866 -3.5353851l1.4354706 2.8459778q0.6136627 -0.37934875 0.8008728 -0.8061905q0.27722168 -0.66469574 -0.053497314 -1.3203888q-0.30256653 -0.59989166 -0.9112549 -0.80049133q-0.59472656 -0.20763397 -1.2715912 0.081092834zm-2.656723 7.153839l7.0459595 -3.5519638l0.40109253 0.79520416l-0.6557617 0.33057404q0.5174408 0.08911133 0.88868713 0.3394165q0.37124634 0.25029755 0.62457275 0.75253296q0.3236847 0.6417389 0.24214172 1.3127747q-0.08154297 0.67103577 -0.5687866 1.2316284q-0.47329712 0.55355835 -1.2127686 0.9263382q-0.78134155 0.39388275 -1.5499268 0.4313736q-0.7546387 0.030464172 -1.3639221 -0.3448105q-0.60224915 -0.36132812 -0.8977814 -0.9472656q-0.21813965 -0.43247986 -0.212677 -0.8726883q0.012496948 -0.42625427 0.17897034 -0.79013824l-2.4835358 1.251976l-0.43626404 -0.8649521zm4.8588104 -1.4694977q-0.9766693 0.49234772 -1.2469788 1.1360626q-0.25636292 0.63668823 0.025100708 1.1947174q0.28849792 0.57199097 0.9669342 0.7374191q0.6994324 0.17235565 1.7319183 -0.34812927q0.9627075 -0.48532104 1.2469788 -1.1360703q0.2913208 -0.6368027 0.009841919 -1.1948318q-0.28146362 -0.5580368 -1.0158386 -0.7302704q-0.72732544 -0.15828705 -1.7179565 0.3411026zm1.1154175 4.67482l0.5687561 0.78066254q-0.48104858 0.33000183 -0.5982666 0.79154205q-0.096206665 0.46846008 0.19932556 1.0543976q0.3025818 0.59988403 0.6804962 0.75933075q0.384964 0.17339325 0.7198181 0.0045928955q0.29299927 -0.14770508 0.33377075 -0.48322296q0.020141602 -0.23763275 -0.15029907 -1.0266113q-0.24130249 -1.0682297 -0.26387024 -1.5293045q-0.0015716553 -0.4541626 0.20687866 -0.8042145q0.21546936 -0.33609772 0.5921936 -0.5260086q0.34880066 -0.17583466 0.70526123 -0.16304779q0.37039185 0.0057525635 0.7064667 0.18630219q0.25198364 0.11794281 0.52557373 0.41748047q0.27357483 0.29953766 0.4705963 0.690155q0.3025818 0.59989166 0.36032104 1.130722q0.06477356 0.5447769 -0.1366272 0.90878296q-0.18040466 0.37091827 -0.6265259 0.70079803l-0.5338135 -0.7807846q0.355484 -0.26669312 0.42404175 -0.6512146q0.089538574 -0.37760162 -0.16378784 -0.87983704q-0.30256653 -0.59988403 -0.6245575 -0.7525253q-0.32199097 -0.15264893 -0.58709717 -0.019012451q-0.16741943 0.08440399 -0.2437439 0.24536133q-0.083221436 0.1819458 -0.06829834 0.45439148q0.021469116 0.14665985 0.16377258 0.87983704q0.22018433 1.0263748 0.2496643 1.4664688q0.02947998 0.440094 -0.17193604 0.8040924q-0.18743896 0.35697174 -0.6339264 0.5820465q-0.43252563 0.21804047 -0.9358978 0.15682983q-0.5033722 -0.061210632 -0.9519043 -0.43003845q-0.4485321 -0.3688202 -0.75109863 -0.96871185q-0.49960327 -0.99050903 -0.36238098 -1.724617q0.15821838 -0.7271881 0.8970947 -1.274643z" fill-rule="nonzero"></path><path fill="#000000" fill-opacity="0.0" d="m61.231503 170.96638l41.700787 76.44095l-26.330704 14.362198l-41.70079 -76.44093z" fill-rule="nonzero"></path><path fill="#000000" d="m48.99513 188.71129l5.006748 -2.730957l0.41156006 0.75442505l-0.7544441 0.41151428q0.6995926 0.009963989 0.9988899 0.16706848q0.29929733 0.15711975 0.45643616 0.44517517q0.23945236 0.43893433 0.20455933 1.0275116l-0.93901443 0.13842773q0.006214142 -0.41275024 -0.16588974 -0.72824097q-0.1496582 -0.27433777 -0.43398666 -0.40402222q-0.28433228 -0.12966919 -0.63848877 -0.061080933q-0.5274925 0.10974121 -1.0624619 0.40153503l-2.6199684 1.4290771l-0.46393967 -0.85043335zm3.495327 6.4072113l0.7407265 -0.40402222q-1.172226 -0.12593079 -1.7184715 -1.1272583q-0.23945236 -0.43893433 -0.29185104 -0.9264984q-0.031196594 -0.4813385 0.11095047 -0.80804443q0.16334915 -0.32048035 0.49629593 -0.5910797q0.21697617 -0.18954468 0.76566315 -0.4888153l3.1000671 -1.6909485l0.46393967 0.85043335l-2.7708588 1.511383q-0.6721382 0.36660767 -0.87540054 0.54867554q-0.2843132 0.26187134 -0.34165955 0.6135254q-0.049865723 0.36535645 0.15965271 0.74942017q0.20952225 0.38407898 0.58115005 0.6085205q0.39282608 0.23069763 0.7968674 0.18829346q0.41775513 -0.04989624 1.0487442 -0.39405823l2.6885529 -1.4664917l0.46393967 0.85043335l-5.006748 2.730957l-0.41156006 -0.75442505zm1.0423317 1.9106903l5.006748 -2.730957l0.41904068 0.76812744l-0.71329117 0.3890686q1.1223412 0.099746704 1.69104 1.1422119q0.24693298 0.45265198 0.29184723 0.9264984q0.058631897 0.46636963 -0.11843109 0.79434204q-0.15586472 0.33418274 -0.46761322 0.61102295q-0.2244606 0.17582703 -0.8142967 0.4975586l-3.0726357 1.6759796l-0.46393585 -0.85043335l3.0452003 -1.661026q0.5212517 -0.28431702 0.71577835 -0.51501465q0.20824432 -0.23817444 0.2169609 -0.5810852q0.029911041 -0.33668518 -0.1571579 -0.6796112q-0.29183197 -0.5349426 -0.8517647 -0.74568176q-0.5599289 -0.21072388 -1.533844 0.3204956l-2.7297058 1.4889374l-0.46393967 -0.85043335zm4.6103287 6.6566315l-0.6808624 0.5137634q-0.27685547 -0.31173706 -0.42651367 -0.5860748q-0.25441742 -0.46636963 -0.24570465 -0.8092804q0.016197205 -0.32920837 0.1895256 -0.5661316q0.18081284 -0.22322083 0.9489708 -0.6422119l2.8805962 -1.571228l-0.34421158 -0.6309662l0.65842056 -0.35914612l0.34421158 0.6309662l1.234539 -0.6733856l0.9777069 0.5523987l-1.7557907 0.95770264l0.4714203 0.864151l-0.6584244 0.35914612l-0.4714203 -0.864151l-2.935463 1.6011505q-0.35664368 0.1945343 -0.44393158 0.2955475q-0.06608963 0.10723877 -0.082294464 0.24066162q0.0049934387 0.1396637 0.10227203 0.3179779q0.08230972 0.15089417 0.23695374 0.3691101zm5.5927467 -2.0809174l0.9739151 -0.5312195l0.46393585 0.85043335l-0.9739151 0.5312195l-0.46393585 -0.85043335zm-5.9395103 3.2397308l5.006748 -2.7309418l0.46393585 0.85043335l-5.006748 2.7309418l-0.46393585 -0.85043335zm1.1263084 2.064621l5.006748 -2.730957l0.41904068 0.7681427l-0.6995735 0.38157654q0.49757004 0.031173706 0.92656326 0.29553223q0.43647766 0.2780609 0.7058563 0.77186584q0.30680084 0.5623779 0.2681656 1.0462189q-0.024925232 0.47633362 -0.36784363 0.8591614q1.1996613 0.11097717 1.7159805 1.0574188q0.41155243 0.75442505 0.21704102 1.3766632q-0.19451141 0.6222534 -1.0449677 1.0861359l-3.442997 1.878006l-0.45645523 -0.8367157l3.1549377 -1.7208862q0.5075302 -0.27682495 0.682106 -0.47885132q0.18829346 -0.20948792 0.20574188 -0.5037689q0.017448425 -0.29429626 -0.13969421 -0.5823517q-0.29183197 -0.5349426 -0.84303284 -0.697052q-0.54371643 -0.14837646 -1.3118744 0.27061462l-2.9080276 1.5861969l-0.46393585 -0.85043335l3.2509575 -1.7732391q0.562397 -0.3067627 0.7382164 -0.6696472q0.1758194 -0.36286926 -0.07859802 -0.8292389q-0.19455719 -0.35662842 -0.55870056 -0.56736755q-0.35666275 -0.19702148 -0.8018532 -0.13217163q-0.43147278 0.057373047 -1.1173286 0.43147278l-2.592537 1.4141083l-0.46393585 -0.85043335zm7.740425 10.338898l0.36917114 0.9377136q-0.8804016 0.21325684 -1.6124344 -0.1171875q-0.73202515 -0.33044434 -1.2034454 -1.1945953q-0.598629 -1.0973358 -0.27818298 -2.1086426q0.3204422 -1.0113068 1.5412674 -1.6772003q1.2756958 -0.6958313 2.31324 -0.4252472q1.058754 0.2768097 1.6199646 1.3055573q0.5537338 1.0150299 0.21208954 2.020111q-0.32792664 0.9975891 -1.5761871 1.6784515q-0.06858063 0.03741455 -0.21947479 0.11972046l-2.0353317 -3.7309418q-0.8005829 0.49006653 -1.0150452 1.1409912q-0.20697784 0.6646576 0.13723755 1.2956238q0.2544098 0.46635437 0.66719055 0.6683655q0.4264984 0.19451904 1.0799408 0.08728027zm-0.14730835 -3.5326996l1.5265045 2.7982025q0.60105896 -0.3990326 0.7743759 -0.83174133q0.25561523 -0.67337036 -0.096076965 -1.3180542q-0.32176208 -0.5898285 -0.9365616 -0.7706299q-0.60108185 -0.1882782 -1.2682419 0.1222229zm-2.850727 6.454727l0.61727524 -0.33668518l3.0679703 5.6238403l-0.6172714 0.33668518l-3.067974 -5.6238403zm6.958576 8.187897l0.6309891 -0.34417725q-0.9951477 -0.062332153 -1.5039749 -0.9950714q-0.3217697 -0.58981323 -0.26942444 -1.2769012q0.052345276 -0.687088 0.49253082 -1.2831421q0.44017792 -0.59606934 1.2083359 -1.0150604q0.7544403 -0.41151428 1.4926834 -0.4938202q0.7594452 -0.07608032 1.3443222 0.24563599q0.59859467 0.31422424 0.9353256 0.9314728q0.24693298 0.45265198 0.24944305 0.914032q0.0025177002 0.46139526 -0.17953491 0.845459l2.4827957 -1.354248l0.46394348 0.85043335l-6.9134293 3.7709656l-0.43400574 -0.795578zm1.0373535 -4.036484q-0.96019745 0.5237427 -1.2232895 1.1833954q-0.24189758 0.66589355 0.057418823 1.2145538q0.3067932 0.5623932 0.9689789 0.69955444q0.66218567 0.13716125 1.5949478 -0.3716278q1.0287857 -0.5611572 1.2918854 -1.2208099q0.27057648 -0.64593506 -0.051185608 -1.2357483q-0.30680084 -0.5623932 -0.98270416 -0.6920624q-0.65470123 -0.1234436 -1.6560516 0.42274475zm3.5167618 8.534607l0.3691635 0.9377136q-0.8804016 0.21325684 -1.6124268 -0.1171875q-0.7320328 -0.33044434 -1.2034531 -1.1945953q-0.5986252 -1.0973358 -0.27818298 -2.1086426q0.32044983 -1.0113068 1.5412674 -1.6772003q1.2756958 -0.6958313 2.3132477 -0.4252472q1.0587463 0.2768097 1.6199646 1.3055573q0.5537262 1.0150452 0.21208191 2.020111q-0.32792664 0.9975891 -1.5761871 1.6784515q-0.06858063 0.03741455 -0.21946716 0.11972046l-2.0353394 -3.7309418q-0.8005829 0.49006653 -1.0150452 1.1410065q-0.20697784 0.66464233 0.13723755 1.2956085q0.25441742 0.46636963 0.6671982 0.6683655q0.42649078 0.19451904 1.0799408 0.08728027zm-0.14730835 -3.5326996l1.5264969 2.7982025q0.60105896 -0.3990326 0.7743759 -0.83174133q0.25561523 -0.67337036 -0.096076965 -1.3180542q-0.32176208 -0.5898285 -0.9365616 -0.7706299q-0.60108185 -0.1882782 -1.2682343 0.1222229zm-2.4242096 7.2365875l6.927147 -3.7784576l0.4265213 0.78186035l-0.6447067 0.35165405q0.52001953 0.07232666 0.8991318 0.31048584q0.37911224 0.23817444 0.64849854 0.7319641q0.34420776 0.63098145 0.28437805 1.3043518q-0.059822083 0.67337036 -0.5286865 1.2494812q-0.4551468 0.5686188 -1.1821518 0.9651642q-0.76815796 0.41900635 -1.5350876 0.48136902q-0.753212 0.054870605 -1.3742523 -0.3005066q-0.6135559 -0.3416748 -0.9278412 -0.9177704q-0.23196411 -0.42521667 -0.24071503 -0.8654022q-0.0012664795 -0.4264679 0.15335083 -0.795578l-2.4416504 1.3318176l-0.46393585 -0.85043335zm4.8085175 -1.6261292q-0.96019745 0.5237427 -1.2095795 1.1759186q-0.23565674 0.64468384 0.06365967 1.1933594q0.3067932 0.5623779 0.99018097 0.70578q0.7045822 0.14962769 1.7196503 -0.40405273q0.9464798 -0.51626587 1.2095795 -1.1759186q0.27057648 -0.64593506 -0.02873993 -1.1946106q-0.2993164 -0.5486603 -1.0388184 -0.69703674q-0.7320175 -0.13467407 -1.7059326 0.39656067zm1.2656784 4.636566l0.5936203 0.76190186q-0.47011566 0.3454132 -0.5723572 0.8105469q-0.0810318 0.47135925 0.23324585 1.0474548q0.32176208 0.58981323 0.70461273 0.73695374q0.39032745 0.16085815 0.71954346 -0.018707275q0.28805542 -0.15711975 0.31797028 -0.49380493q0.012458801 -0.23817444 -0.18335724 -1.021286q-0.27565002 -1.0599213 -0.31307983 -1.5200653q-0.016227722 -0.45388794 0.18078613 -0.8105316q0.20449829 -0.34292603 0.5748596 -0.54493713q0.34293365 -0.1870575 0.69958496 -0.18580627q0.37036896 -0.0062408447 0.71206665 0.16334534q0.25564575 0.10972595 0.53874207 0.40026855q0.28308868 0.2905426 0.49260712 0.6746063q0.32176208 0.58981323 0.39661407 1.1185455q0.0823288 0.5424347 -0.10720825 0.91278076q-0.16833496 0.3765869 -0.6035385 0.72076416l-0.5587082 -0.7631378q0.34666443 -0.27809143 0.402771 -0.6646576q0.077293396 -0.38032532 -0.19208527 -0.87413025q-0.32176208 -0.58981323 -0.64849854 -0.7319641q-0.32672882 -0.14215088 -0.58735657 1.5258789E-5q-0.16460419 0.089782715 -0.23567963 0.25312805q-0.077308655 0.18455505 -0.053596497 0.45640564q0.026191711 0.14588928 0.19207764 0.87413025q0.25319672 1.0187836 0.29685974 1.4577179q0.043670654 0.43893433 -0.1458664 0.8092804q-0.17581177 0.36288452 -0.61476135 0.6023102q-0.42523193 0.2319336 -0.9302826 0.1870575q-0.5050583 -0.044891357 -0.96523285 -0.39901733q-0.46017456 -0.35414124 -0.78193665 -0.94395447q-0.5312805 -0.9738922 -0.41783142 -1.7120972q0.13464355 -0.73197937 0.85541534 -1.3031158z" fill-rule="nonzero"></path><path fill="#000000" fill-opacity="0.0" d="m53.480316 46.299507l0 50.92914l-29.984253 0l0 -50.92914z" fill-rule="nonzero"></path><path fill="#000000" d="m34.240314 59.721382l0.71875 0q-0.84375 -0.53125 -0.84375 -1.59375q0 -0.671875 0.375 -1.25q0.375 -0.578125 1.046875 -0.890625q0.671875 -0.3125 1.546875 -0.3125q0.859375 0 1.546875 0.28125q0.703125 0.296875 1.0625 0.859375q0.375 0.5625 0.375 1.265625q0 0.515625 -0.21875 0.921875q-0.21875 0.40625 -0.5625 0.65625l2.828125 0l0 0.96875l-7.875 0l0 -0.90625zm2.84375 -3.046875q-1.09375 0 -1.640625 0.453125q-0.53125 0.46875 -0.53125 1.09375q0 0.640625 0.515625 1.078125q0.515625 0.4375 1.578125 0.4375q1.171875 0 1.71875 -0.453125q0.546875 -0.4375 0.546875 -1.109375q0 -0.640625 -0.53125 -1.078125q-0.515625 -0.421875 -1.65625 -0.421875zm-1.0 9.176498l-0.125 1.0q-0.875 -0.234375 -1.359375 -0.875q-0.484375 -0.640625 -0.484375 -1.625q0 -1.25 0.765625 -1.984375q0.765625 -0.734375 2.15625 -0.734375q1.453125 0 2.234375 0.734375q0.796875 0.75 0.796875 1.921875q0 1.15625 -0.78125 1.875q-0.765625 0.71875 -2.1875 0.71875q-0.078125 0 -0.25 0l0 -4.25q-0.9375 0.046875 -1.4375 0.515625q-0.5 0.484375 -0.5 1.203125q0 0.53125 0.265625 0.90625q0.28125 0.375 0.90625 0.59375zm1.5625 -3.171875l0 3.1875q0.71875 -0.0625 1.078125 -0.359375q0.546875 -0.46875 0.546875 -1.203125q0 -0.671875 -0.453125 -1.125q-0.4375 -0.453125 -1.171875 -0.5zm-5.59375 5.1921234l7.890625 0l0 0.890625l-0.734375 0q0.421875 0.3125 0.640625 0.703125q0.21875 0.390625 0.21875 0.953125q0 0.71875 -0.375 1.28125q-0.375 0.5625 -1.0625 0.84375q-0.671875 0.28125 -1.5 0.28125q-0.875 0 -1.578125 -0.3125q-0.6875 -0.3125 -1.0625 -0.921875q-0.375 -0.59375 -0.375 -1.25q0 -0.484375 0.203125 -0.875q0.203125 -0.375 0.515625 -0.625l-2.78125 0l0 -0.96875zm5.0 0.875q-1.09375 0 -1.625 0.453125q-0.515625 0.453125 -0.515625 1.078125q0 0.640625 0.53125 1.09375q0.546875 0.46875 1.703125 0.46875q1.078125 0 1.625 -0.453125q0.546875 -0.4375 0.546875 -1.0625q0 -0.625 -0.578125 -1.109375q-0.578125 -0.46875 -1.6875 -0.46875zm-1.109375 4.6764984l0.15625 0.953125q-0.578125 0.078125 -0.890625 0.4375q-0.296875 0.375 -0.296875 1.03125q0 0.671875 0.265625 0.984375q0.265625 0.328125 0.640625 0.328125q0.328125 0 0.515625 -0.28125q0.125 -0.203125 0.328125 -0.984375q0.265625 -1.0625 0.453125 -1.484375q0.203125 -0.40625 0.546875 -0.625q0.34375 -0.203125 0.765625 -0.203125q0.390625 0 0.703125 0.171875q0.328125 0.171875 0.546875 0.484375q0.171875 0.21875 0.28125 0.609375q0.109375 0.390625 0.109375 0.828125q0 0.671875 -0.1875 1.171875q-0.1875 0.515625 -0.53125 0.75q-0.328125 0.25 -0.875 0.34375l-0.125 -0.9375q0.4375 -0.078125 0.671875 -0.390625q0.25 -0.296875 0.25 -0.859375q0 -0.671875 -0.21875 -0.953125q-0.21875 -0.28125 -0.515625 -0.28125q-0.1875 0 -0.328125 0.109375q-0.15625 0.125 -0.265625 0.375q-0.046875 0.140625 -0.25 0.859375q-0.265625 1.015625 -0.4375 1.421875q-0.171875 0.40625 -0.515625 0.640625q-0.328125 0.234375 -0.828125 0.234375q-0.484375 0 -0.90625 -0.28125q-0.421875 -0.28125 -0.65625 -0.8125q-0.234375 -0.53125 -0.234375 -1.203125q0 -1.109375 0.453125 -1.703125q0.46875 -0.578125 1.375 -0.734375z" fill-rule="nonzero"></path></g></svg>

