<svg xmlns="http://www.w3.org/2000/svg" viewBox="0 0 158 64">
  <style>
    .dark-green-left { fill: #00701a }
    .dark-green-right { fill: #004300 }
    .green { fill: #43a047 }
    .light-green { fill: #76d275 }
    .wordmark { fill: #5f6368 }
  </style>
  <path class="dark-green-left" d="M22.64,43.31V54L11.75,43.11V32.42Z"/>
  <path class="dark-green-right" d="M22.64,43.31l10.9-10.89V43.11L22.64,54Z"/>
  <path class="green" d="M11.75,32.42V43.11L.86,32.21V21.52Z"/>
  <path class="green" d="M44.43,21.52V32.21L33.54,43.11V32.42Z"/>
  <path class="green" d="M22.64,43.31,11.75,32.42l10.89-10.9,10.9,10.9Z"/>
  <path class="light-green" d="M11.75,32.42.86,21.52,11.75,10.63,22.64,21.52Z"/>
  <path class="light-green" d="M33.54,32.42l-10.9-10.9,10.9-10.89L44.43,21.52Z"/>
  <path class="wordmark" d="M58.43,47.93V16H70a9.4,9.4,0,0,1,6.5,2.48,8,8,0,0,1,2.74,6.22,7,7,0,0,1-1.18,4,7.43,7.43,0,0,1-3.15,2.63v.18a8.09,8.09,0,0,1,3.88,2.77,7.23,7.23,0,0,1,1.52,4.55,8.37,8.37,0,0,1-2.88,6.51,9.81,9.81,0,0,1-6.8,2.59Zm4.1-18.25H70a4.8,4.8,0,0,0,3.73-1.54,4.74,4.74,0,0,0,0-6.71,4.58,4.58,0,0,0-3.59-1.52H62.53Zm0,14.32h8.26a4.89,4.89,0,0,0,3.83-1.65,5.28,5.28,0,0,0,1.48-3.61,5.38,5.38,0,0,0-5.49-5.22H62.53Zm28.6,4.65a8.62,8.62,0,0,1-5.82-2A6.66,6.66,0,0,1,83,41.33a6.56,6.56,0,0,1,2.76-5.6,11.2,11.2,0,0,1,6.83-2A11.71,11.71,0,0,1,98.5,35v-.63a4.91,4.91,0,0,0-1.66-3.86,6,6,0,0,0-4.06-1.45,6.33,6.33,0,0,0-3.23.85,4.4,4.4,0,0,0-2,2.32l-3.74-1.61a8.49,8.49,0,0,1,3-3.63,9.57,9.57,0,0,1,5.89-1.68,10.11,10.11,0,0,1,7,2.46,8.76,8.76,0,0,1,2.76,6.91V47.93H98.5v-3h-.18A8.05,8.05,0,0,1,91.13,48.65Zm.67-3.75A6.66,6.66,0,0,0,96.42,43a5.89,5.89,0,0,0,2.08-4.48,8.1,8.1,0,0,0-5.23-1.43,6.79,6.79,0,0,0-4.5,1.29,3.92,3.92,0,0,0-1.52,3A2.91,2.91,0,0,0,88.63,44,5.58,5.58,0,0,0,91.8,44.9Zm14.64,3V44.36l12.45-14.54h-12.1V26.07h17.14v3.57L111.48,44.18h12.63v3.75Zm31.05.72a10.54,10.54,0,0,1-8.05-3.31,11.69,11.69,0,0,1-3.1-8.34,12,12,0,0,1,3-8.21A9.78,9.78,0,0,1,137,25.35a10.09,10.09,0,0,1,7.79,3.17A12,12,0,0,1,147.75,37l0,.76H130.44A7.45,7.45,0,0,0,132.65,43a6.69,6.69,0,0,0,4.75,1.92q4.42,0,6-3.75L147,42.67a9.81,9.81,0,0,1-3.53,4.26A10.26,10.26,0,0,1,137.49,48.65Zm5.89-14.28a5.81,5.81,0,0,0-1.72-3.57,6.12,6.12,0,0,0-4.7-1.7,5.89,5.89,0,0,0-4,1.43,7.21,7.21,0,0,0-2.3,3.84Zm12.23,13.56H151.5V16h4.11Z"/>
</svg>
