<?xml version="1.0" encoding="UTF-8" standalone="no"?>
<!DOCTYPE svg PUBLIC "-//W3C//DTD SVG 1.1//EN"
 "http://www.w3.org/Graphics/SVG/1.1/DTD/svg11.dtd">
<!-- Generated by graphviz version 2.36.0 (20140111.2315)
 -->
<!-- Title: mygraph Pages: 1 -->
<svg width="473pt" height="188pt"
 viewBox="0.00 0.00 473.00 188.00" xmlns="http://www.w3.org/2000/svg" xmlns:xlink="http://www.w3.org/1999/xlink">
<g id="graph0" class="graph" transform="scale(1 1) rotate(0) translate(4 184)">
<title>mygraph</title>
<polygon fill="white" stroke="none" points="-4,4 -4,-184 469,-184 469,4 -4,4"/>
<!-- //:ProjectRunner -->
<g id="node1" class="node"><title>//:ProjectRunner</title>
<polygon fill="none" stroke="black" points="277.5,-180 172.5,-180 172.5,-144 277.5,-144 277.5,-180"/>
<text text-anchor="middle" x="225" y="-158.3" font-family="Times,serif" font-size="14.00">//:ProjectRunner</text>
</g>
<!-- //:greeter -->
<g id="node2" class="node"><title>//:greeter</title>
<polygon fill="none" stroke="black" points="160.25,-108 95.75,-108 95.75,-72 160.25,-72 160.25,-108"/>
<text text-anchor="middle" x="128" y="-86.3" font-family="Times,serif" font-size="14.00">//:greeter</text>
</g>
<!-- //:ProjectRunner&#45;&gt;//:greeter -->
<g id="edge1" class="edge"><title>//:ProjectRunner&#45;&gt;//:greeter</title>
<path fill="none" stroke="black" d="M201.022,-143.697C188.689,-134.796 173.484,-123.823 160.147,-114.199"/>
<polygon fill="black" stroke="black" points="161.859,-111.118 151.702,-108.104 157.763,-116.794 161.859,-111.118"/>
</g>
<!-- //:src/main/java/com/example/ProjectRunner.java -->
<g id="node3" class="node"><title>//:src/main/java/com/example/ProjectRunner.java</title>
<polygon fill="none" stroke="black" points="465.25,-108 178.75,-108 178.75,-72 465.25,-72 465.25,-108"/>
<text text-anchor="middle" x="322" y="-86.3" font-family="Times,serif" font-size="14.00">//:src/main/java/com/example/ProjectRunner.java</text>
</g>
<!-- //:ProjectRunner&#45;&gt;//:src/main/java/com/example/ProjectRunner.java -->
<g id="edge2" class="edge"><title>//:ProjectRunner&#45;&gt;//:src/main/java/com/example/ProjectRunner.java</title>
<path fill="none" stroke="black" d="M248.978,-143.697C261.311,-134.796 276.516,-123.823 289.853,-114.199"/>
<polygon fill="black" stroke="black" points="292.237,-116.794 298.298,-108.104 288.141,-111.118 292.237,-116.794"/>
</g>
<!-- //:src/main/java/com/example/Greeting.java -->
<g id="node4" class="node"><title>//:src/main/java/com/example/Greeting.java</title>
<polygon fill="none" stroke="black" points="256.25,-36 -0.25,-36 -0.25,-0 256.25,-0 256.25,-36"/>
<text text-anchor="middle" x="128" y="-14.3" font-family="Times,serif" font-size="14.00">//:src/main/java/com/example/Greeting.java</text>
</g>
<!-- //:greeter&#45;&gt;//:src/main/java/com/example/Greeting.java -->
<g id="edge3" class="edge"><title>//:greeter&#45;&gt;//:src/main/java/com/example/Greeting.java</title>
<path fill="none" stroke="black" d="M128,-71.6966C128,-63.9827 128,-54.7125 128,-46.1124"/>
<polygon fill="black" stroke="black" points="131.5,-46.1043 128,-36.1043 124.5,-46.1044 131.5,-46.1043"/>
</g>
</g>
</svg>
