<svg xmlns="http://www.w3.org/2000/svg" xmlns:xlink="http://www.w3.org/1999/xlink" width="250" height="250">
  <defs>
    <clipPath id="d">
      <path d="m 147.985,279.49 c 3.393,-2.371 7.203,-3.992 10.951,-5.478 l 0,0 c 3.738,-1.518 7.478,-2.913 11.08,-4.575 l 0,0 c 3.59,-1.67 7.102,-3.484 10.399,-5.635 l 0,0 c 0.829,-0.532 1.653,-1.087 2.454,-1.637 l 0,0 c 0.809,-0.561 1.638,-1.149 2.382,-1.725 l 0,0 c 1.53,-1.177 2.959,-2.474 4.281,-3.881 l 0,0 c 2.664,-2.808 4.871,-6.047 6.654,-9.52 l 0,0 c 3.526,-6.993 5.465,-14.865 5.963,-22.899 l 0,0 c 0.504,4.022 0.294,8.111 -0.285,12.152 l 0,0 c -0.623,4.045 -1.736,8.035 -3.409,11.824 l 0,0 c -1.67,3.79 -3.929,7.348 -6.719,10.468 l 0,0 c -2.822,3.126 -6.205,5.652 -9.662,7.826 l 0,0 c -6.926,4.452 -14.704,7.368 -22.336,9.81 l 0,0 c -3.786,1.296 -7.563,2.539 -10.966,4.507 l 0,0 c -3.442,1.911 -6.378,4.686 -8.661,8.013 l 0,0 c 1.715,-3.658 4.477,-6.882 7.874,-9.25"/>
    </clipPath>
    <radialGradient cx="0" cy="0" r="1" fx="0" fy="0" id="a" gradientUnits="userSpaceOnUse" gradientTransform="matrix(37.26 -181.5 -181.5 -37.26 203.71 274.94)" spreadMethod="pad">
      <stop offset="0" stop-color="#90c84b"/>
      <stop offset="1" stop-color="#256f46"/>
    </radialGradient>
    <clipPath id="f">
      <path d="m 134.29,241.719 c 2.117,-19.034 16.329,-28.986 29.573,-31.684 l 0,0 c 13.239,-2.707 22.289,-2.172 22.289,-2.172 l 0,0 c -34.368,4.912 -40.138,15.059 -44.33,22.933 l 0,0 c -5.514,10.39 -7.491,62.632 -7.491,62.632 l 0,0 c 0,0 -2.157,-32.68 -0.041,-51.709"/>
    </clipPath>
    <radialGradient cx="0" cy="0" r="1" fx="0" fy="0" id="b" gradientUnits="userSpaceOnUse" gradientTransform="matrix(37.26 -181.5 -181.5 -37.26 203.71 274.94)" spreadMethod="pad">
      <stop offset="0" stop-color="#90c84b"/>
      <stop offset="1" stop-color="#256f46"/>
    </radialGradient>
    <clipPath id="h">
      <path d="m 188.8,214.415 c 5.376,-21.65 -2.645,-63.904 -2.645,-63.904 l 0,0 c -2.911,-21.256 11.489,-40.394 32.742,-43.302 l 0,0 c 21.408,-2.925 40.572,11.619 43.456,32.727 l 0,0 c 2.95,21.555 -12.532,40.687 -33.029,43.488 l 0,0 c -10.638,1.458 -20.71,-1.467 -28.426,-7.324 l 0,0 c -0.324,-0.245 -0.667,-0.461 -0.98,-0.717 l 0,0 c 0.196,4.505 0.292,8.674 0.283,12.558 l 0,0 c 12.11,33.218 33.039,34.151 33.039,34.151 l 0,0 c -13.867,-3.563 -25.174,-24.17 -25.174,-24.17 l 0,0 c 0,0 11.655,-5.318 22.068,3.098 l 0,0 c 11.287,9.127 12.62,29.135 12.62,29.135 l 0,0 c 0,0 -24.356,0.221 -32.369,-7.023 l 0,0 c -8.016,-7.242 -5.613,-18 -5.613,-18 l 0,0 -4.896,-7.01 c -0.737,10.952 -2.762,19.196 -6.535,26.03 l 0,0 c -11.423,20.704 -27.091,32.117 -49.985,40.865 l 0,0 c 4.472,-1.809 36.797,-15.865 45.444,-50.602 m -17.992,33.948 c -0.569,0.564 -1.142,1.115 -1.714,1.65 l 0,0 c 3.752,-2.728 7.134,-5.692 10.235,-8.932 l 0,0 c -2.628,2.599 -5.446,5.026 -8.521,7.282 m 23.799,-125.52 c -5.891,7.805 -8.39,17.561 -7.033,27.473 l 0,0 c 0.319,1.665 8.007,42.738 2.617,64.445 l 0,0 c -3.491,14.024 -10.686,24.706 -18.435,32.64 l 0,0 c 8.285,-8.064 16.162,-19.187 19.868,-34.073 l 0,0 c 5.39,-21.707 -2.298,-62.78 -2.617,-64.445 l 0,0 c -1.357,-9.911 1.142,-19.667 7.033,-27.473 l 0,0 c 0.812,-1.073 1.68,-2.09 2.59,-3.055 l 0,0 c -1.448,1.375 -2.798,2.868 -4.023,4.488 m 5.332,72.866 6.37,9.119 -0.137,0.616 c -0.023,0.096 -2.103,10.052 5.175,16.625 l 0,0 c 5.524,4.995 20.734,6.508 29.818,6.643 l 0,0 c -0.05,-0.413 -0.12,-0.922 -0.201,-1.472 l 0,0 c -9.177,-0.284 -22.979,-1.897 -28.185,-6.605 l 0,0 c -5.593,-5.052 -5.657,-12.083 -5.379,-15.12 l 0,0 c -2.247,-3.3 -4.427,-7.206 -6.44,-11.83 l 0,0 -0.809,-1.156 -0.212,3.18 z m 10.233,2.973 c 2.836,4.672 12.411,19.193 23.426,22.021 l 0,0 c -6.888,-3.146 -11.297,-6.596 -21.423,-22.533 l 0,0 c -0.782,0.162 -1.46,0.345 -2.003,0.512 m -10.275,-25.166 0.927,0.757 c 0.154,0.126 0.319,0.24 0.482,0.354 l 0,0 c 0.154,0.109 0.309,0.219 0.46,0.333 l 0,0 c 6.379,4.842 14.041,7.403 22.155,7.403 l 0,0 c 1.725,0 3.477,-0.121 5.208,-0.358 l 0,0 c 8.42,-1.151 16.078,-5.125 21.914,-11.305 l 0,0 c -5.632,5.361 -12.733,8.813 -20.48,9.872 l 0,0 c -1.732,0.238 -3.484,0.358 -5.209,0.358 l 0,0 c -8.114,0 -15.777,-2.561 -22.155,-7.403 l 0,0 c -0.151,-0.114 -0.305,-0.223 -0.46,-0.333 l 0,0 c -0.163,-0.115 -0.328,-0.228 -0.481,-0.354 l 0,0 -2.479,-2.024 0.118,2.7 z m 20.545,-56.156 c -15.331,2.103 -26.212,16.426 -24.118,31.76 l 0,0 c 2.123,15.483 16.43,26.213 31.762,24.116 l 0,0 c 15.487,-2.12 26.232,-16.274 24.113,-31.757 l 0,0 c -1.919,-14.057 -13.982,-24.382 -27.905,-24.382 l 0,0 c -1.271,0 -2.556,0.086 -3.852,0.263 m 33.177,23.926 c 1.076,7.867 -0.96,15.662 -5.732,21.95 l 0,0 c -0.549,0.723 -1.134,1.406 -1.741,2.071 l 0,0 c 1.134,-1.082 2.21,-2.236 3.173,-3.505 l 0,0 c 4.773,-6.287 6.81,-14.081 5.734,-21.95 l 0,0 c -1.996,-14.607 -14.603,-25.62 -29.327,-25.62 l 0,0 c -1.343,0 -2.703,0.093 -4.045,0.276 l 0,0 c -7.135,0.978 -13.327,4.44 -17.839,9.384 l 0,0 c 4.356,-4.168 9.992,-7.071 16.406,-7.95 l 0,0 c 1.342,-0.184 2.702,-0.278 4.045,-0.278 l 0,0 c 14.725,0 27.331,11.015 29.326,25.622"/>
    </clipPath>
    <radialGradient cx="0" cy="0" r="1" fx="0" fy="0" id="c" gradientUnits="userSpaceOnUse" gradientTransform="scale(185.3) rotate(-78.4 1.46 .07)" spreadMethod="pad">
      <stop offset="0" stop-color="#90c84b"/>
      <stop offset="1" stop-color="#256f46"/>
    </radialGradient>
    <radialGradient cx="0" cy="0" r="1" fx="0" fy="0" id="e" xlink:href="#a" gradientUnits="userSpaceOnUse" gradientTransform="matrix(37.26 -181.5 -181.5 -37.26 203.71 274.94)" spreadMethod="pad"/>
    <radialGradient cx="0" cy="0" r="1" fx="0" fy="0" id="g" xlink:href="#b" gradientUnits="userSpaceOnUse" gradientTransform="matrix(37.26 -181.5 -181.5 -37.26 203.71 274.94)" spreadMethod="pad"/>
    <radialGradient cx="0" cy="0" r="1" fx="0" fy="0" id="i" xlink:href="#c" gradientUnits="userSpaceOnUse" gradientTransform="scale(185.3) rotate(-78.4 1.46 .07)" spreadMethod="pad"/>
  </defs>
  <g clip-path="url(#d)" transform="matrix(1.25 0 0 -1.25 -122.55 375.16)">
    <path d="m 147.985,279.49 c 3.393,-2.371 7.203,-3.992 10.951,-5.478 l 0,0 c 3.738,-1.518 7.478,-2.913 11.08,-4.575 l 0,0 c 3.59,-1.67 7.102,-3.484 10.399,-5.635 l 0,0 c 0.829,-0.532 1.653,-1.087 2.454,-1.637 l 0,0 c 0.809,-0.561 1.638,-1.149 2.382,-1.725 l 0,0 c 1.53,-1.177 2.959,-2.474 4.281,-3.881 l 0,0 c 2.664,-2.808 4.871,-6.047 6.654,-9.52 l 0,0 c 3.526,-6.993 5.465,-14.865 5.963,-22.899 l 0,0 c 0.504,4.022 0.294,8.111 -0.285,12.152 l 0,0 c -0.623,4.045 -1.736,8.035 -3.409,11.824 l 0,0 c -1.67,3.79 -3.929,7.348 -6.719,10.468 l 0,0 c -2.822,3.126 -6.205,5.652 -9.662,7.826 l 0,0 c -6.926,4.452 -14.704,7.368 -22.336,9.81 l 0,0 c -3.786,1.296 -7.563,2.539 -10.966,4.507 l 0,0 c -3.442,1.911 -6.378,4.686 -8.661,8.013 l 0,0 c 1.715,-3.658 4.477,-6.882 7.874,-9.25" fill="url(#e)"/>
  </g>
  <g clip-path="url(#f)" transform="matrix(1.25 0 0 -1.25 -122.55 375.16)">
    <path d="m 134.29,241.719 c 2.117,-19.034 16.329,-28.986 29.573,-31.684 l 0,0 c 13.239,-2.707 22.289,-2.172 22.289,-2.172 l 0,0 c -34.368,4.912 -40.138,15.059 -44.33,22.933 l 0,0 c -5.514,10.39 -7.491,62.632 -7.491,62.632 l 0,0 c 0,0 -2.157,-32.68 -0.041,-51.709" fill="url(#g)"/>
  </g>
  <g clip-path="url(#h)" transform="matrix(1.25 0 0 -1.25 -122.55 375.16)">
    <path d="m 188.8,214.415 c 5.376,-21.65 -2.645,-63.904 -2.645,-63.904 l 0,0 c -2.911,-21.256 11.489,-40.394 32.742,-43.302 l 0,0 c 21.408,-2.925 40.572,11.619 43.456,32.727 l 0,0 c 2.95,21.555 -12.532,40.687 -33.029,43.488 l 0,0 c -10.638,1.458 -20.71,-1.467 -28.426,-7.324 l 0,0 c -0.324,-0.245 -0.667,-0.461 -0.98,-0.717 l 0,0 c 0.196,4.505 0.292,8.674 0.283,12.558 l 0,0 c 12.11,33.218 33.039,34.151 33.039,34.151 l 0,0 c -13.867,-3.563 -25.174,-24.17 -25.174,-24.17 l 0,0 c 0,0 11.655,-5.318 22.068,3.098 l 0,0 c 11.287,9.127 12.62,29.135 12.62,29.135 l 0,0 c 0,0 -24.356,0.221 -32.369,-7.023 l 0,0 c -8.016,-7.242 -5.613,-18 -5.613,-18 l 0,0 -4.896,-7.01 c -0.737,10.952 -2.762,19.196 -6.535,26.03 l 0,0 c -11.423,20.704 -27.091,32.117 -49.985,40.865 l 0,0 c 4.472,-1.809 36.797,-15.865 45.444,-50.602 m -17.992,33.948 c -0.569,0.564 -1.142,1.115 -1.714,1.65 l 0,0 c 3.752,-2.728 7.134,-5.692 10.235,-8.932 l 0,0 c -2.628,2.599 -5.446,5.026 -8.521,7.282 m 23.799,-125.52 c -5.891,7.805 -8.39,17.561 -7.033,27.473 l 0,0 c 0.319,1.665 8.007,42.738 2.617,64.445 l 0,0 c -3.491,14.024 -10.686,24.706 -18.435,32.64 l 0,0 c 8.285,-8.064 16.162,-19.187 19.868,-34.073 l 0,0 c 5.39,-21.707 -2.298,-62.78 -2.617,-64.445 l 0,0 c -1.357,-9.911 1.142,-19.667 7.033,-27.473 l 0,0 c 0.812,-1.073 1.68,-2.09 2.59,-3.055 l 0,0 c -1.448,1.375 -2.798,2.868 -4.023,4.488 m 5.332,72.866 6.37,9.119 -0.137,0.616 c -0.023,0.096 -2.103,10.052 5.175,16.625 l 0,0 c 5.524,4.995 20.734,6.508 29.818,6.643 l 0,0 c -0.05,-0.413 -0.12,-0.922 -0.201,-1.472 l 0,0 c -9.177,-0.284 -22.979,-1.897 -28.185,-6.605 l 0,0 c -5.593,-5.052 -5.657,-12.083 -5.379,-15.12 l 0,0 c -2.247,-3.3 -4.427,-7.206 -6.44,-11.83 l 0,0 -0.809,-1.156 -0.212,3.18 z m 10.233,2.973 c 2.836,4.672 12.411,19.193 23.426,22.021 l 0,0 c -6.888,-3.146 -11.297,-6.596 -21.423,-22.533 l 0,0 c -0.782,0.162 -1.46,0.345 -2.003,0.512 m -10.275,-25.166 0.927,0.757 c 0.154,0.126 0.319,0.24 0.482,0.354 l 0,0 c 0.154,0.109 0.309,0.219 0.46,0.333 l 0,0 c 6.379,4.842 14.041,7.403 22.155,7.403 l 0,0 c 1.725,0 3.477,-0.121 5.208,-0.358 l 0,0 c 8.42,-1.151 16.078,-5.125 21.914,-11.305 l 0,0 c -5.632,5.361 -12.733,8.813 -20.48,9.872 l 0,0 c -1.732,0.238 -3.484,0.358 -5.209,0.358 l 0,0 c -8.114,0 -15.777,-2.561 -22.155,-7.403 l 0,0 c -0.151,-0.114 -0.305,-0.223 -0.46,-0.333 l 0,0 c -0.163,-0.115 -0.328,-0.228 -0.481,-0.354 l 0,0 -2.479,-2.024 0.118,2.7 z m 20.545,-56.156 c -15.331,2.103 -26.212,16.426 -24.118,31.76 l 0,0 c 2.123,15.483 16.43,26.213 31.762,24.116 l 0,0 c 15.487,-2.12 26.232,-16.274 24.113,-31.757 l 0,0 c -1.919,-14.057 -13.982,-24.382 -27.905,-24.382 l 0,0 c -1.271,0 -2.556,0.086 -3.852,0.263 m 33.177,23.926 c 1.076,7.867 -0.96,15.662 -5.732,21.95 l 0,0 c -0.549,0.723 -1.134,1.406 -1.741,2.071 l 0,0 c 1.134,-1.082 2.21,-2.236 3.173,-3.505 l 0,0 c 4.773,-6.287 6.81,-14.081 5.734,-21.95 l 0,0 c -1.996,-14.607 -14.603,-25.62 -29.327,-25.62 l 0,0 c -1.343,0 -2.703,0.093 -4.045,0.276 l 0,0 c -7.135,0.978 -13.327,4.44 -17.839,9.384 l 0,0 c 4.356,-4.168 9.992,-7.071 16.406,-7.95 l 0,0 c 1.342,-0.184 2.702,-0.278 4.045,-0.278 l 0,0 c 14.725,0 27.331,11.015 29.326,25.622" fill="url(#i)"/>
  </g>
</svg>
