<svg xmlns="http://www.w3.org/2000/svg" viewBox="0 0 499.8 175.2">
  <style>
    .regular{fill:#44A147;} .light{fill:#7EC575;} .dark-left{fill:#0C713A;} .dark-right{fill:#1E431E;} .text{opacity:0.52; fill:#010101;}
  </style>
  <path class="regular" d="M0 44v43.2l44 44V88z"/>
  <path class="dark-left" d="M88 132v43.2l-44-44V88z"/>
  <path class="regular" d="M176 44v43.2l-44 44V88z"/>
  <path class="dark-right" d="M88 132l44-44v43.2l-44 44z"/>
  <path class="light" d="M44 .018l43.982 43.98L44 87.982.018 44z"/>
  <path class="regular" d="M88 44.017L131.982 88 88 131.98 44.018 88z"/>
  <path class="light" d="M132 .017L175.98 44 132 87.98 88.017 44z"/>
  <path class="text" d="M224 135.2V44.5h32.8c7.1 0 13.2 2.3 18.4 7 5.2 4.7 7.8 10.6 7.8 17.7 0 4.3-1.1 8.1-3.4 11.4-2.2 3.3-5.2 5.8-8.9 7.5v.5c4.5 1.5 8.1 4.1 11 7.9 2.9 3.7 4.3 8 4.3 12.9 0 7.4-2.7 13.6-8.2 18.5-5.4 4.9-11.9 7.3-19.3 7.3H224zm11.7-51.8h21.1c4.4 0 7.9-1.5 10.6-4.4 2.7-2.9 4-6.1 4-9.6s-1.3-6.6-3.9-9.5c-2.6-2.9-6-4.3-10.2-4.3h-21.7v27.8zm0 40.7h23.4c4.5 0 8.1-1.6 10.9-4.7 2.8-3.1 4.2-6.5 4.2-10.3 0-3.7-1.4-7.1-4.3-10.2-2.9-3.1-6.6-4.6-11.3-4.6h-22.9v29.8zM316.8 137.2c-6.6 0-12.1-1.9-16.5-5.7s-6.6-8.8-6.6-15.1c0-6.8 2.6-12.1 7.9-15.9 5.2-3.8 11.7-5.8 19.4-5.8 6.8 0 12.5 1.3 16.8 3.8v-1.8c0-4.6-1.6-8.2-4.7-11-3.1-2.7-7-4.1-11.5-4.1-3.4 0-6.4.8-9.2 2.4-2.7 1.6-4.6 3.8-5.6 6.6L296.2 86c1.4-3.7 4.3-7.2 8.5-10.3 4.2-3.2 9.8-4.7 16.7-4.7 7.9 0 14.5 2.3 19.8 7 5.2 4.6 7.9 11.2 7.9 19.6v37.5H338v-8.6h-.5c-4.9 7.2-11.7 10.7-20.7 10.7zm1.9-10.6c4.8 0 9.2-1.8 13.1-5.4 3.9-3.6 5.9-7.8 5.9-12.7-3.3-2.7-8.2-4.1-14.8-4.1-5.7 0-9.9 1.2-12.8 3.7-2.9 2.4-4.3 5.3-4.3 8.6 0 3 1.3 5.4 3.9 7.2 2.6 1.8 5.6 2.7 9 2.7zM360.3 135.2v-10.1l35.3-41.3h-34.3V73.2h48.6v10.1l-35.3 41.3h35.8v10.6h-50.1zM448.4 137.2c-9.4 0-17-3.1-22.9-9.4-5.9-6.2-8.8-14.1-8.8-23.7 0-9 2.8-16.8 8.5-23.3s13-9.8 21.8-9.8c9.2 0 16.6 3 22.1 9s8.3 14 8.3 24.1l-.1 2.2h-49c.3 6.2 2.4 11.2 6.3 14.8 3.8 3.6 8.3 5.4 13.5 5.4 8.4 0 14-3.5 17-10.6l10.4 4.3c-2 4.8-5.4 8.8-10 12.1-4.6 3.3-10.3 4.9-17.1 4.9zm16.7-40.5c-.3-3.5-1.9-6.9-4.9-10.1-3-3.2-7.5-4.8-13.4-4.8-4.3 0-8 1.4-11.2 4.1-3.2 2.7-5.3 6.3-6.5 10.9h36zM499.8 135.2h-11.7V44.5h11.7v90.7z"/>
</svg>
