<?xml version="1.0" encoding="utf-8"?>
<!-- Generator: Adobe Illustrator 19.1.0, SVG Export Plug-In . SVG Version: 6.00 Build 0)  -->
<svg version="1.1" id="Layer_1" xmlns="http://www.w3.org/2000/svg" xmlns:xlink="http://www.w3.org/1999/xlink" x="0px" y="0px"
	 viewBox="0 0 317.8 86.5" style="enable-background:new 0 0 317.8 86.5;" xml:space="preserve">
<style type="text/css">
	.st0{fill:none;stroke:#FFFFFF;stroke-width:2;stroke-linejoin:round;stroke-miterlimit:10;}
	.st1{opacity:0.2;fill:none;stroke:#FFFFFF;stroke-width:2;stroke-linejoin:round;stroke-miterlimit:10;}
	.st2{fill:#FFFFFF;}
</style>
<rect x="39" y="2.8" transform="matrix(-0.7071 -0.7071 0.7071 -0.7071 69.033 94.234)" class="st0" width="30" height="60"/>
<rect x="17.8" y="2.8" transform="matrix(-0.7071 0.7071 -0.7071 -0.7071 79.234 32.8198)" class="st0" width="30" height="60"/>
<rect x="39" y="23.6" transform="matrix(-0.7071 -0.7071 0.7071 -0.7071 54.3112 129.7757)" class="st1" width="30" height="60"/>
<rect x="17.8" y="23.6" transform="matrix(-0.7071 0.7071 -0.7071 -0.7071 93.9558 68.3614)" class="st1" width="30" height="60"/>
<polygon class="st0" points="1,22.2 1,43 22.2,64.2 22.2,43.4 "/>
<polygon class="st0" points="43.4,64.6 43.4,85.5 22.2,64.2 22.2,43.4 "/>
<polygon class="st0" points="85.9,22.2 85.9,43 64.6,64.2 64.6,43.4 "/>
<polygon class="st0" points="43.4,64.6 64.6,43.4 64.6,64.2 43.4,85.5 "/>
<line class="st1" x1="22.2" y1="1" x2="22.2" y2="21.8"/>
<line class="st1" x1="64.6" y1="1" x2="64.6" y2="21.8"/>
<line class="st1" x1="43.4" y1="22.1" x2="43.4" y2="43.1"/>
<g>
	<path class="st2" d="M117.2,76.5v-66H141c5.2,0,9.6,1.7,13.4,5.1c3.8,3.4,5.7,7.7,5.7,12.9c0,3.1-0.8,5.9-2.4,8.3
		c-1.6,2.4-3.8,4.2-6.5,5.4v0.4c3.3,1.1,5.9,3,8,5.7c2.1,2.7,3.1,5.8,3.1,9.4c0,5.4-2,9.9-5.9,13.5c-4,3.6-8.6,5.3-14,5.3H117.2z
		 M125.6,38.8H141c3.2,0,5.8-1.1,7.7-3.2c1.9-2.1,2.9-4.4,2.9-7c0-2.5-0.9-4.8-2.8-6.9c-1.9-2.1-4.3-3.1-7.4-3.1h-15.8V38.8z
		 M125.6,68.3h17c3.3,0,5.9-1.1,7.9-3.4c2-2.3,3-4.8,3-7.5c0-2.7-1-5.2-3.1-7.4c-2.1-2.2-4.8-3.4-8.2-3.4h-16.7V68.3z"/>
	<path class="st2" d="M184.7,77.9c-4.8,0-8.8-1.4-12-4.1c-3.2-2.8-4.8-6.4-4.8-11c0-4.9,1.9-8.8,5.7-11.6c3.8-2.8,8.5-4.2,14.1-4.2
		c5,0,9.1,0.9,12.3,2.8v-1.3c0-3.3-1.1-6-3.4-8c-2.3-2-5.1-3-8.4-3c-2.5,0-4.7,0.6-6.7,1.8c-2,1.2-3.4,2.8-4.1,4.8l-7.7-3.3
		c1-2.7,3.1-5.2,6.2-7.5c3.1-2.3,7.1-3.5,12.2-3.5c5.8,0,10.6,1.7,14.4,5.1c3.8,3.4,5.7,8.1,5.7,14.3v27.3h-8.1v-6.3h-0.4
		C196.1,75.3,191.2,77.9,184.7,77.9z M186.1,70.2c3.5,0,6.7-1.3,9.5-3.9c2.9-2.6,4.3-5.7,4.3-9.3c-2.4-2-6-2.9-10.8-2.9
		c-4.1,0-7.2,0.9-9.3,2.7c-2.1,1.8-3.1,3.9-3.1,6.3c0,2.2,1,4,2.9,5.3C181.4,69.5,183.6,70.2,186.1,70.2z"/>
	<path class="st2" d="M216.3,76.5v-7.4L242,39h-25v-7.7h35.4v7.4l-25.7,30h26.1v7.7H216.3z"/>
	<path class="st2" d="M280.4,77.9c-6.8,0-12.4-2.3-16.6-6.8c-4.3-4.5-6.4-10.3-6.4-17.2c0-6.6,2.1-12.2,6.2-17
		c4.1-4.7,9.4-7.1,15.9-7.1c6.7,0,12.1,2.2,16.1,6.5c4,4.4,6,10.2,6,17.5l-0.1,1.6h-35.7c0.2,4.5,1.8,8.1,4.6,10.8
		c2.8,2.6,6.1,4,9.8,4c6.1,0,10.2-2.6,12.3-7.7l7.6,3.1c-1.5,3.5-3.9,6.4-7.3,8.8C289.5,76.7,285.3,77.9,280.4,77.9z M292.6,48.4
		c-0.2-2.6-1.4-5-3.5-7.4c-2.2-2.3-5.4-3.5-9.7-3.5c-3.1,0-5.9,1-8.2,2.9c-2.3,2-3.9,4.6-4.7,7.9H292.6z"/>
	<path class="st2" d="M317.8,76.5h-8.5v-66h8.5V76.5z"/>
</g>
</svg>
