<svg xmlns="http://www.w3.org/2000/svg" id="Layer_1" viewBox="0 0 40 25"><defs><style>.cls-1{fill:#9be583}.cls-2{fill:#303030}</style></defs><path d="M30.12 14.44c-.34-.14-.62-.16-.85-.05a.8.8 0 0 0-.25.21c.21.39.36.8.42 1.22.26.22.55.41.84.53.42.18.82.21 1.17.11.06-.06.12-.13.17-.21-.24-.68-.68-1.46-1.5-1.81ZM30.24 16.86c.3.04.57 0 .8-.11-.26 0-.53-.06-.8-.17v.28ZM27.63 13.15c-.03-.19-.06-.38-.07-.57 0-.12.01-.23.02-.35l-.14-.09.12-.21.04.02c.05-.29.15-.54.29-.75-.47.3-.76.9-.73 1.72v.03c.09.02.19.05.28.09.06.03.12.07.18.1Z" class="cls-1"/><path d="M28.89 14.36c.09-.08.18-.15.28-.2.29-.13.64-.12 1.04.05.82.34 1.29 1.07 1.56 1.75.12-.29.18-.64.17-1.04-.05-1.53-1.16-3.22-2.48-3.77-.41-.17-.78-.2-1.11-.13-.37.33-.57.87-.55 1.55 0 .25.05.49.11.74.37.26.71.62.97 1.04Zm.57-2.42c.18-.12.42-.14.67-.03.51.21.92.83.94 1.42.01.31-.1.56-.29.7-.1.07-.22.1-.35.1-.1 0-.21-.02-.33-.07-.51-.21-.92-.83-.94-1.42 0-.31.1-.56.29-.7ZM29.48 16.14c0 .16 0 .32-.03.46.07.03.13.08.2.11.12.05.23.08.35.11v-.35c-.18-.09-.35-.2-.52-.32Z" class="cls-1"/><path d="M29.71 13.07s.06.01.07 0c.01 0 .03-.04.03-.09 0-.13-.1-.28-.21-.33h-.06c-.01 0-.03.04-.03.09 0 .13.1.28.21.33ZM29.69 12.44c.15.06.28.22.33.39l.1.04s.03-.05.06-.07c.08-.06.19-.06.3-.02.14.06.25.19.31.34-.09-.43-.39-.84-.75-.99a.682.682 0 0 0-.23-.05.37.37 0 0 0-.21.06c-.09.06-.14.17-.16.31.08-.04.17-.05.26 0ZM30.38 13h-.06c-.01 0-.03.04-.03.09 0 .13.1.28.21.32.03.01.06.02.07 0 .01 0 .03-.04.03-.09 0-.13-.1-.28-.21-.33Z" class="cls-1"/><path d="M30.54 13.66s-.09 0-.14-.03c-.19-.08-.35-.32-.36-.54h-.02c-.02.07-.05.14-.11.18-.05.03-.1.05-.16.05-.04 0-.09 0-.14-.03.15.24.35.45.58.55.17.07.33.07.44-.01.11-.08.17-.23.18-.42-.02.08-.05.16-.11.2-.05.03-.1.05-.16.05ZM22.16 20.19c-.87-.36-1.63-1.34-1.91-2.36l-.38-.22c.14 1.14.96 2.32 1.92 2.72.45.19.85.17 1.16 0-.04 0-.08.02-.12.02-.21 0-.44-.05-.68-.15ZM20.13 17.12c-.01-.44.09-.83.28-1.11-.36.23-.58.69-.57 1.31l.33.2c-.02-.13-.04-.26-.05-.39ZM22.05 16.79a.593.593 0 0 0-.17-.04c-.05 0-.1.01-.15.04-.09.06-.14.19-.13.36.01.36.28.77.59.9.12.05.24.05.31 0 .09-.06.14-.19.13-.35-.01-.36-.28-.77-.59-.9Z" class="cls-1"/><path d="M22.11 18.56c-.25-.1-.46-.12-.63-.04-.16.07-.29.25-.38.49.32.43.72.78 1.16.96.38.16.73.16 1.02.02-.18-.53-.52-1.16-1.16-1.43Z" class="cls-1"/><path d="M21.38 18.3c.23-.1.5-.09.82.04.68.28 1.04.9 1.25 1.45.11-.24.17-.52.16-.86-.03-.87-.49-1.8-1.14-2.41 0 .09-.03.16-.08.22.27.23.47.6.49.95 0 .25-.08.45-.24.56a.46.46 0 0 1-.28.08c-.08 0-.17-.02-.26-.06-.4-.17-.72-.65-.74-1.11 0-.25.08-.45.24-.56a.49.49 0 0 1 .24-.08.731.731 0 0 1-.07-.19c0-.11.04-.19.1-.25-.07-.04-.14-.08-.22-.12-.25-.11-.49-.15-.7-.13-.03.01-.06.02-.08.04-.33.23-.51.68-.49 1.25.02.57.24 1.17.57 1.69.11-.23.25-.41.44-.5Z" class="cls-1"/><path d="M22.21 16.58s.02-.02.01-.06c0-.1-.08-.22-.17-.26h-.03s-.02.03-.01.07c0 .1.08.22.17.26h.04ZM20.99 5.45c0 .11.09.21.21.21s.21-.09.21-.21-.09-.21-.21-.21-.21.09-.21.21ZM29.47 19.79c0-.23-.19-.42-.42-.42s-.42.19-.42.42.19.42.42.42.42-.19.42-.42Z" class="cls-1"/><circle cx="14.35" cy="8.88" r=".58" class="cls-1"/><path d="M15.01 2.73c-.22.13-.4.32-.53.57l.23.13c.06-.27.16-.51.3-.7ZM17.55 8.17h-.02c-.07-.02-.13-.05-.2-.07v.31c.36.04.68-.03.94-.2-.08.01-.15.03-.24.03-.16 0-.32-.03-.48-.07ZM17.06 8c-.1-.05-.19-.1-.29-.16-.39-.24-.76-.57-1.07-.97-.09-.11-.15-.18-.16-.19l-.04-.05c-.51-.74-.85-1.62-.88-2.45 0-.17 0-.34.03-.49l-.29-.16c-.1.27-.15.6-.14.96.05 1.53 1.16 3.22 2.48 3.77.13.05.25.08.37.11v-.36h-.02Z" class="cls-1"/><path d="M16.19 5.71c.29-.13.62-.11 1.01.05.86.36 1.32 1.15 1.58 1.85.15-.31.24-.68.22-1.13-.05-1.53-1.16-3.22-2.48-3.77-.36-.15-.7-.19-1.01-.15-.43.3-.66.89-.64 1.62.02.74.31 1.53.74 2.19.14-.32.33-.54.58-.65Zm-.74.04-.12-.21s.58-.36.96-.85c-.03-.08-.04-.16-.06-.25-.32.5-.74.8-.77.82l-.14-.2s.7-.5.93-1.24V3.8h.01c.05-.12.12-.21.21-.27.18-.12.41-.13.66-.03.26.11.49.33.65.59l.82 1.18-.2.14-.37-.53c0 .05-.02.09-.02.14.25.49.66.84.67.85l-.15.19s-.35-.29-.62-.7c-.03.04-.06.08-.09.11.11.18.3.46.61.75l-.17.17c-.32-.31-.52-.6-.64-.79-.07.03-.13.06-.21.06-.1 0-.21-.02-.32-.07-.17-.07-.32-.2-.46-.35-.25.28-.51.47-.52.48l-.14-.2s.26-.2.51-.47c-.03-.05-.05-.1-.08-.15-.39.48-.92.8-.95.82Z" class="cls-1"/><path d="m15.64 18.4-.11.21.15.07.11-.21-.15-.07zM19.51 2.9s.07-.02.1-.04h.03l-.07-.23s-.1.03-.15.05h-.01l.09.23h.02ZM15.27 18.21l-.11.21.15.08.11-.22-.15-.07zM16.38 18.77l-.11.21.15.08.11-.22-.15-.07zM16.01 18.58l-.11.21.15.08.11-.21-.15-.08zM18.94 3.38s.04-.07.07-.11l-.19-.16v.02s-.07.08-.1.12l.2.14ZM19.18 3.09s.06-.04.1-.07h.02l-.14-.21h-.01s-.08.07-.12.1l.15.19ZM15.06 18.1l-.16-.08-.1.21.15.08.11-.21zM14.06 17.86l.15.08.1-.22-.15-.07-.1.21zM13.69 17.67l.15.08.1-.21-.14-.08-.11.21zM14.68 17.91l-.15-.08-.11.22.15.07.11-.21zM18.53 17.77l.24.01v-.15l-.23-.01-.01.15zM18.53 17.36l.24.01v-.15l-.23-.02-.01.16zM18.53 18.04v.14l.23.04v-.02s.02-.09.02-.15l-.24-.03v.02ZM17.62 19.1c-.05 0-.09.02-.13.02h-.01l.02.23v.02h.02s.1-.02.15-.04l-.05-.23ZM18.25 18.72s-.06.07-.09.09h-.01l.17.19h.01s.07-.09.1-.12l-.18-.17ZM17.12 19.1h-.01l-.06.23h.02c.05.02.1.02.15.03l.03-.24h-.02s-.08 0-.12-.02ZM18.67 18.48l-.22-.09h-.01s-.02.08-.05.13l.2.12h.07l-.04-.02s.04-.09.06-.13ZM17.96 18.96s-.07.04-.11.06l.12.27v-.06s.08-.04.13-.06l-.12-.22h-.02ZM16.8 19.24l.1-.21h-.02s0-.02-.02-.02l-.1-.05-.11.22.1.05s.02.01.03.01h.03ZM18.77 13.91l-.23-.01-.01.14.24.02v-.15zM18.77 15.15l-.23-.02-.01.16.24.01v-.15zM18.77 14.73l-.23-.01-.01.15.24.03v-.17zM18.77 14.32l-.23-.02-.01.16.24.01v-.15zM18.77 11.84l-.23-.02-.01.15.24.02v-.15zM22.25 3.76l-.14-.08-.13.2.15.09.12-.21zM18.77 12.25l-.23-.02-.01.17h.24v-.15zM18.77 15.56l-.23-.01-.01.15.24.01v-.15zM18.77 16.13v-.16l-.23-.01-.01.15.24.02zM20.36 2.91h.01l.09-.22c-.05-.02-.09-.04-.14-.06l-.08.22v.06l.02-.04s.07.02.11.04ZM21.19 3.12l-.14-.09-.13.2.15.09.12-.2zM21.55 3.33l-.15-.08-.12.2.14.09.13-.21zM18.77 11.42l-.23-.01-.01.15.24.01v-.15zM19.87 2.82h.14v-.23H19.84v.23h.03ZM21.9 3.55l-.14-.09-.13.2.14.09.13-.2zM20.84 2.9l-.14-.09-.13.21.14.09.13-.21zM18.77 11.01l-.23-.02-.01.16.24.01v-.15zM18.77 10.59l-.23-.01-.01.15.24.02v-.16zM18.77 10.18l-.23-.01-.01.15.24.01v-.15zM18.77 8.94l-.23-.02-.01.15.24.02v-.15zM18.77 9.76l-.23-.01-.01.15.24.02v-.16zM18.77 13.08l-.23-.02-.01.15.24.02v-.15zM18.77 13.49l-.23-.01-.01.15.24.02v-.16zM18.77 9.35l-.23-.01-.01.15.24.01v-.15zM18.77 8.52l-.23-.01-.01.15.24.01v-.15zM18.77 12.66l-.23-.01-.01.15.24.02v-.16z" class="cls-2"/><path d="M30.09 10.65c-.66-.28-1.28-.25-1.76.08-.18.12-.32.3-.43.49-.13.22-.23.47-.29.75l-.04-.02-.12.21.14.09c0 .11-.02.22-.02.35 0 .19.03.38.07.57-.06-.03-.12-.07-.18-.1-.09-.04-.19-.06-.28-.09-.41-.1-.79-.06-1.09.15-.02.01-.03.03-.05.05l-.62.59c-.15.17-.26.38-.33.62l.02.14-.45-.3c-.46-.31-.74-.83-.74-1.39V7.02c.18.07.35.11.51.11.2 0 .38-.05.54-.16.02-.01.04-.04.06-.05l.5-.48c.18-.23.28-.55.27-.93-.03-.94-.72-1.98-1.53-2.32-.39-.17-.77-.15-1.05.05-.02.01-.03.03-.04.04l-.47.44c-.06.07-.11.15-.16.23l-.08-.05-.12.21.11.06c-.05.16-.08.34-.07.53.03.86.6 1.79 1.32 2.21h-.03v2.75s-.03-.01-.04-.01l-.07.21v.02s.07.02.11.04v2.92c0 .64.32 1.23.84 1.59l.49.33c0 .1-.02.2-.02.3.02.66.29 1.35.69 1.92l.03.05s.2.3.53.6l.03.02c.08.07.17.14.27.21.05.03.09.06.14.09.1.06.21.12.33.18.23.1.46.15.68.15.26 0 .5-.07.7-.21.03-.02.05-.05.07-.07l.66-.64c.16-.2.27-.45.32-.74.02-.15.04-.3.03-.46.17.13.34.23.52.32v3.84c0 .42-.22.79-.58 1s-.8.21-1.16 0l-4.14-2.4c0-.08.02-.15.01-.23-.04-1.22-.91-2.55-1.95-3.04v-.07h-.2c-.47-.17-.91-.14-1.25.09-.13.09-.23.2-.31.34-.19.29-.3.67-.28 1.11 0 .13.02.26.05.39l-.33-.2-1.3-.78h.22v-.14l-.23-.02v.15l-.23-.13c-.61-.36-.99-1.03-.99-1.75V8.09c.07.02.14.05.2.06h.02c.16.05.33.07.48.07.08 0 .16-.02.24-.03.09-.01.19-.03.27-.06v.11h.23V8.1h-.14c.11-.05.18-.09.19-.09l.08-.05c.49-.36.76-1.01.73-1.81-.03-.83-.36-1.7-.87-2.43h.03c0-.05.02-.08.03-.12v-.02l-.22-.08c-.43-.54-.96-.99-1.53-1.23-.65-.27-1.25-.24-1.72.08-.14.1-.26.23-.36.37-.14.2-.24.44-.3.7l-.23-.13-1.07-.61c-.44-.25-.96-.25-1.39 0-.44.25-.7.71-.7 1.21v10.37c-.45-.15-.88-.11-1.21.11-.4.28-.62.81-.6 1.45.04 1.25.95 2.63 2.03 3.07.23.1.46.15.68.15.26 0 .5-.07.7-.21.37-.26.58-.74.59-1.33l.08-.16-.08-.04c-.07-1.2-.92-2.49-1.94-2.96V3.91c0-.42.22-.79.58-1 .36-.21.79-.21 1.16 0l1.08.62.29.16c-.02.16-.04.32-.03.49.03.83.37 1.71.88 2.44l.04.06s.07.08.16.19c.08.09.19.21.32.34.11.12.23.22.35.32.13.11.26.21.4.3.09.06.19.12.29.16h.02v6.64c0 .8.43 1.55 1.11 1.95l.35.21v.13l.23.02v-.02l1.11.66.38.22c.28 1.02 1.03 2 1.91 2.36.23.1.46.15.68.15.04 0 .08-.01.12-.02.21-.02.4-.08.57-.19.29-.2.49-.54.56-.96l4.04 2.34c.22.13.46.19.7.19s.48-.06.7-.19c.44-.25.7-.71.7-1.21v-3.72c.28.11.55.17.8.17h.02c.33 0 .63-.09.89-.26.51-.35.79-1.03.76-1.86-.05-1.61-1.23-3.4-2.62-3.98Zm-7.12-6.86c.12-.08.25-.12.4-.12.13 0 .28.03.42.09.73.31 1.35 1.25 1.38 2.11.01.35-.09.64-.27.82-.16-.42-.43-.89-.95-1.11-.24-.1-.46-.11-.63-.03-.13.06-.23.18-.31.34-.23-.37-.38-.79-.39-1.2-.01-.41.12-.74.35-.9Zm.19 2.32c.07-.17.15-.29.26-.34.11-.05.26-.04.44.03.45.19.7.63.83 1.01-.2.09-.44.1-.7-.01-.31-.13-.6-.38-.84-.69ZM11.63 18.69c-.43-.18-.83-.53-1.16-.96.09-.25.22-.42.38-.49.17-.08.38-.06.63.04.65.27.98.91 1.16 1.43-.28.14-.64.13-1.02-.02Zm1.64-1.29c.02.51-.14.93-.42 1.17-.2-.56-.57-1.23-1.28-1.52-.31-.13-.59-.14-.82-.04-.19.08-.33.27-.44.5-.33-.51-.55-1.11-.57-1.69-.02-.56.16-1.02.49-1.25.16-.11.35-.17.56-.17.18 0 .38.04.58.13 1 .42 1.84 1.7 1.88 2.86Zm2.34-11.04c-.44-.66-.72-1.45-.74-2.19-.02-.73.21-1.31.64-1.61.21-.15.45-.22.72-.22.24 0 .49.06.76.17 1.28.53 2.36 2.18 2.41 3.66.02.69-.19 1.24-.58 1.55-.01-.04-.03-.07-.04-.11-.26-.69-.72-1.49-1.58-1.85-.39-.16-.73-.18-1.01-.05-.24.11-.44.33-.58.65Zm6.65 13.61c-.43-.18-.83-.53-1.16-.96.09-.25.22-.42.38-.49.17-.08.38-.06.63.04.65.27.98.91 1.16 1.43-.28.14-.64.13-1.02-.02Zm1.22-.11s-.02-.05-.03-.07c-.21-.55-.57-1.17-1.25-1.45-.31-.13-.59-.14-.82-.04-.19.08-.33.27-.44.5-.33-.51-.55-1.11-.57-1.69-.02-.56.16-1.02.49-1.25.02-.02.05-.02.08-.04.14-.08.3-.13.48-.13s.38.04.58.13c1 .42 1.84 1.7 1.88 2.86.02.51-.14.93-.42 1.17Zm1.75-4.82c-.02-.56.16-1.02.49-1.25.16-.11.35-.17.56-.17.18 0 .38.04.58.13 1 .42 1.84 1.7 1.88 2.86.02.51-.14.93-.42 1.17-.26-.76-.69-1.27-1.28-1.52-.31-.13-.59-.14-.82-.04-.19.08-.33.27-.44.5-.33-.51-.55-1.11-.57-1.69Zm6.22 1.42c-.34.1-.75.06-1.17-.11-.29-.12-.58-.31-.84-.53-.06-.42-.21-.83-.42-1.22.08-.08.15-.16.25-.21.22-.1.51-.08.85.05.82.34 1.26 1.13 1.5 1.81.01.04.03.08.04.11-.07.04-.14.07-.22.1Zm.42-.23c-.03-.09-.06-.17-.1-.26-.28-.68-.74-1.41-1.56-1.75-.4-.17-.75-.18-1.04-.05-.1.05-.19.12-.28.2-.26-.42-.6-.78-.97-1.04-.06-.25-.1-.5-.11-.74-.02-.68.18-1.22.55-1.55.04-.03.07-.08.11-.11.22-.15.47-.22.75-.22.24 0 .51.06.78.17 1.31.55 2.42 2.24 2.47 3.76.02.71-.2 1.28-.6 1.6Z" class="cls-2"/><path d="M30.13 11.91c-.25-.1-.49-.09-.67.03-.2.14-.3.39-.29.7.02.59.43 1.21.94 1.42.11.05.22.07.33.07.13 0 .25-.04.35-.1.2-.14.3-.39.29-.7-.02-.58-.43-1.21-.94-1.42Zm-.63.84c0-.05.01-.08.03-.09h.06c.11.05.21.2.21.33 0 .05-.01.08-.03.09h-.07c-.11-.04-.21-.2-.21-.33Zm1.13 1.08c-.11.08-.27.08-.44.01-.23-.1-.43-.3-.58-.55s.09.03.14.03c.06 0 .11-.02.16-.05.06-.04.09-.11.11-.19h.02c0 .23.17.47.36.54a.302.302 0 0 0 .3-.02c.06-.04.1-.12.11-.2-.01.18-.07.34-.18.42Zm-.35-.74c0-.05.01-.08.03-.09h.06c.11.05.21.2.21.33 0 .05-.01.08-.03.09-.01.01-.04 0-.07 0-.11-.04-.21-.2-.21-.32Zm.19-.31c-.11-.04-.21-.04-.3.02-.02.02-.04.05-.06.07l-.1-.04a.617.617 0 0 0-.33-.39.335.335 0 0 0-.26 0c.03-.13.07-.24.16-.31a.37.37 0 0 1 .21-.06c.07 0 .15.02.23.05.36.15.66.57.75.99-.06-.15-.18-.29-.31-.34ZM29.75 7.58l-.15-.08-.12.2.14.09.13-.21zM29.04 7.16l-.15-.09-.12.21.14.09.13-.21zM29.39 7.37l-.14-.09-.13.21.15.09.12-.21zM32.24 9.06l-.15-.08-.12.21.14.08.13-.21zM31.52 8.65l-.14-.09-.12.2.14.09.12-.2zM32.59 9.28l-.14-.09-.13.21.15.08.12-.2zM31.88 8.85l-.14-.08-.13.2.15.09.12-.21zM30.34 8.21l.12-.2-.15-.09-.12.21.15.08zM30.69 8.42l.12-.2-.14-.09-.12.21.14.08zM31.05 8.65l.12-.22-.14-.09-.13.21.15.1zM15.84 22.01l.12.21.17-.11-.12-.2-.17.1zM16.27 21.75l.12.2.17-.1-.12-.2-.17.1zM15.4 22.28l.12.2.17-.1-.12-.21-.17.11zM17.27 21.42l.17-.1-.13-.2-.17.1.13.2zM14.53 22.81l.12.2.17-.1-.12-.21-.17.11zM14.96 22.54l.13.21.17-.1-.12-.21-.18.1zM17.58 20.96l.12.2.17-.11-.12-.2-.17.11zM18.45 20.42l.12.21.17-.1-.12-.21-.17.1zM18.14 20.9l.17-.11-.13-.2-.17.1.13.21zM18.88 20.16l.13.21.17-.11-.13-.2-.17.1zM16.88 21.38l-.06.04-1.96-1.18-.13.21 3.74 2.23.12-.21-1.65-.98-.06-.11zM31.2 7.29l-.12-.2-1.07.65-.05-.03-.05.09-1.38.84.13.21 2.54-1.56zM10.97 15.31c-.16.11-.24.31-.24.56.02.46.34.95.74 1.11.09.04.18.06.26.06.1 0 .2-.03.28-.09.16-.11.24-.31.24-.56-.02-.46-.34-.95-.74-1.11a.541.541 0 0 0-.54.03Zm.91 1.45c-.08.06-.19.06-.31 0-.17-.07-.32-.22-.43-.41l.24-.25.51.65Zm.12-.24-.46-.59.18-.19c.16.19.29.43.29.67 0 .04-.01.07-.02.11Zm-.57-1.01s.08.05.11.08l-.51.54a.798.798 0 0 1-.05-.26c0-.16.04-.29.13-.35.04-.03.09-.04.15-.04.05 0 .11.01.17.04ZM22.47 16.52c0-.2-.14-.41-.31-.48-.1-.04-.2-.03-.27.02 0 0 0 .01-.02.02-.07.06-.11.14-.1.25 0 .07.04.13.07.19-.09 0-.17.03-.24.08-.16.11-.25.31-.24.56.02.46.34.95.74 1.11.09.04.18.06.26.06.1 0 .2-.03.28-.08.16-.11.25-.31.24-.56a1.31 1.31 0 0 0-.49-.95.33.33 0 0 0 .08-.22Zm-.45-.26h.03c.08.04.16.16.17.26 0 .04 0 .06-.01.06h-.04a.369.369 0 0 1-.17-.26c0-.04 0-.06.01-.06Zm.61 1.44c0 .16-.04.29-.13.35-.08.05-.19.06-.31 0-.31-.13-.58-.54-.59-.9 0-.16.04-.29.13-.36.04-.03.09-.04.15-.04.05 0 .11.01.17.04.31.13.58.54.59.9ZM16.4 4.93c.03.05.05.1.08.15-.24.27-.5.47-.51.47l.14.2s.27-.21.52-.48c.14.15.29.28.46.35.11.05.22.07.32.07.08 0 .14-.04.21-.06.12.19.32.48.64.79l.17-.17c-.3-.29-.49-.57-.61-.75.03-.03.06-.07.09-.11.27.41.6.68.62.7l.15-.19s-.42-.36-.67-.85c0-.05.03-.09.02-.14l.37.52.2-.14-.82-1.18c-.17-.26-.4-.48-.65-.59-.24-.1-.48-.09-.66.03-.09.06-.16.16-.21.27v.02c-.24.73-.93 1.23-.94 1.24l.14.2s.45-.32.77-.82c.02.08.03.17.06.25-.37.5-.95.85-.96.85l.12.21s.56-.34.95-.82ZM26.95 16.2c.09.04.18.06.26.06.1 0 .2-.03.28-.08.16-.11.25-.31.24-.56-.02-.46-.34-.95-.74-1.11-.2-.08-.39-.07-.54.03-.16.11-.25.31-.24.56.02.46.34.95.74 1.11ZM23.85 5.52a.433.433 0 0 0 .4-.02c.12-.08.18-.23.17-.41-.01-.32-.24-.66-.51-.78-.15-.06-.29-.05-.4.02-.12.08-.18.23-.18.41.01.32.24.66.52.78Zm-.2-.99s.05-.02.08-.02.06 0 .1.02c.19.08.36.34.37.56 0 .09-.02.17-.07.2-.04.03-.1.03-.17 0-.19-.08-.36-.34-.37-.56 0-.09.02-.17.07-.2ZM22.18 14.74l-.23-.01-.01.15.24.02v-.16zM22.18 14.33l-.23-.02-.01.16.24.01v-.15zM22.18 13.5l-.23-.01-.01.16h.24v-.15zM22.18 13.09l-.23-.02-.01.16.24.01v-.15zM22.18 13.92l-.23-.02-.01.15.24.02v-.15zM25.31 10.88l.15.08.12-.2-.14-.09-.13.21zM22.18 12.67l-.23-.01-.01.15.24.02v-.16zM22.18 15.16l-.23-.01-.01.15.24.01v-.15zM24.34 10.09l.04.24h.01l.13-.21-.15-.09-.03.06zM24.75 10.54l.12-.21-.14-.08-.13.2.15.09zM27 11.61l-.14-.09-.13.21.15.08.12-.2zM25.81 11.18l.13-.21-.14-.09-.13.21.14.09zM26.29 11.18l-.14-.09-.13.21.15.1.12-.22zM27.36 11.82l-.14-.09-.13.21.15.09.12-.21zM26.65 11.4l-.14-.09-.13.2.14.09.13-.2zM23.26 9.82h.07l.02-.23h-.19l.02.22h.08ZM22.95 9.87h.02l-.07-.24h-.02s-.1.04-.14.06h-.01l.09.23h.01s.08-.04.12-.05ZM25.1 10.75l.13-.2-.15-.09-.12.2.14.09zM22.18 12.26l-.23-.02-.01.16.24.01v-.15zM22.52 10.11s.06-.06.1-.08l-.14-.2h-.01s-.08.06-.11.09h-.01v.02l.16.18ZM22.18 11.02l-.23-.02-.01.16.24.01v-.15zM22.19 10.76s.01-.08.02-.12v-.02l-.23-.06v.02s-.02.09-.03.15l.24.04ZM22.16 10.16l-.08.13v.02l.21.11v-.02s.05-.06.07-.1h.01l-.2-.15ZM22.18 11.43l-.23-.01-.01.15.24.01v-.15zM22.18 11.84l-.23-.01-.01.15.24.02v-.16z" class="cls-2"/></svg>