<svg xmlns="http://www.w3.org/2000/svg" viewBox="0 0 900 900"><defs><style>.c{fill:#fff}.e,.f,.g{fill:none;stroke:#fff;stroke-width:2.5px}.e,.g{stroke-miterlimit:10}.f{stroke-linejoin:bevel}.g{stroke-dasharray:0 0 5 10}</style></defs><g id="a"><ellipse cx="711.35" cy="468.37" class="e" rx="34.71" ry="51.14" transform="rotate(-29.84 711.424 468.39)"/><path d="m736.56 512.94 16.3-9.02c7.2-5.42 11.65-15.06 11.64-27.63-.02-25.14-17.88-52.5-39.88-61.1-7.57-2.96-14.64-3.31-20.67-1.48l-17.48 9.74" class="e"/><path d="m690.24 455.83 16.94 28.24 82.45-67.77" class="e"/><path d="m736.56 512.94 16.3-9.02c7.2-5.42 11.65-15.06 11.64-27.63-.02-25.14-17.88-52.5-39.88-61.1-7.57-2.96-14.64-3.31-20.67-1.48l-17.48 9.74s34.18-11.93 54.69 27.62c23.2 44.75-4.6 61.87-4.6 61.87Z" class="c"/><path d="m400.76 406.73 41.51 23.85" class="e"/></g><g id="b"><path d="m662.5 451.76-125.36-72.85V511.9l162.16 97.58v-90.8s-37.65-19.48-36.8-66.92Z" style="fill:#9be583"/><path d="m346.22 129.85 57.04 99.96-57.23 35.01v-35.58L234.46 164.6v-58.73l111.76 66.9v-42.92" class="f"/><path d="m234.46 105.87 18.63-10.72 92.57 54.47.56 23.15-111.76-66.9z" class="c"/><path d="m346.22 129.85 16.94-10.16 55.91 99.39-15.81 10.73" class="f"/><path d="m346.22 129.85 16.94-10.16 55.91 99.39-15.81 10.73-57.04-99.96z" class="c"/><path d="M644.1 332.02v96.3" class="e"/><path d="m649.58 335.83 19.65 11.74v-85.79l-147.05-87.27-19.82-11.78v85.8l147.22 87.3zM669.38 262.93l16.79-10.19" class="f"/><path d="m669.23 347.57 16.94-9.03v-85.8l-91.7-53.53-75.17-45.51-16.94 9.03" class="f"/><path d="m519.3 153.7-14.93 9.53 166.02 99.13 15.78-9.62L519.3 153.7z" class="c"/><path d="m539.1 215.74 104.72 60.96M539.28 238.43l104.54 60.86M535.4 197.6l-18.64-11.3v52.74l14.12 7.91M492.43 651.24 288.39 529.97" class="e"/><path d="m446.12 624.13-89.22 53.65M302.73 587.75l56.99 34.12" class="g"/><path d="m255.82 629.78 127.39-75.27" class="e"/><path d="m223.34 230.75 81.28 48.91M280.29 409.38l-84.14-49.69M168.48 431.97l-40.8-24.28" class="g"/><path d="m291.59 358.56-151.06 92.05M365.47 518.39l-134.4-80.19M365.47 526.6v-8.21M365.47 518.39l62.4-36.42-133.27-81.32-63.53 37.55v7.89l134.4 80.51L429 489.46v-7.21M518.79 303.52v156.99M405.84 225.59l121.98 72.85v157.55l-9.03 5.08L304.2 335.71V205.26" class="e"/><path d="m527.1 298.85-8.31 4.67-119.84-70.95" class="e"/><path d="m398.95 232.57 119.84 70.95 8.31-4.67-123.51-76.08-4.64 9.8z" class="c"/><path d="M371.96 374.37v17.81l-29.36 15.81 70.02 41.22 31.62-18.63v-13.55M304.2 309.73l214.02 120.98M709.66 513.03v94.49l-108.51 63.65-158.98-92.14" class="e"/><path d="m549.75 513.51 159.91 94.01v14.52l-108.43 64.33-159.67-93.83v-14.12l108.19-64.91V374.17l121.59 70.95M601.23 670.24v15.44M671.11 516.13l20.21 11.66M604.85 456.2l59.11 33.98M604.85 441.04l76.01 44.88M606.4 478.94l56.57 33.37M604.85 512.18l87.66 49.56M604.85 497.02l87.66 49.56M435.49 243.54v-68.92l66.35 39.11" class="e"/><circle cx="412.54" cy="105.32" r="14.36" class="c"/><circle cx="447.85" cy="119.82" r="7.39" class="c"/><circle cx="735.5" cy="383.21" r="14.36" class="c"/><circle cx="186.61" cy="566.18" r="14.36" class="c"/><circle cx="716.65" cy="347.3" r="7.39" class="c"/><circle cx="244.34" cy="314.25" r="7.39" class="c"/><path d="M587.12 396.7v138.91M333 222.05v104.04M457.93 317.07l20.22 11.66M392.24 279.17l59.1 33.97M392.24 259.01l73.86 42.95M393.79 299.91l56.57 33.36M392.24 335.14l87.66 49.57M392.24 317.98l87.66 49.57" class="e"/><path d="m565.48 556.93-6.5 4.02 6 3.53 6.49-4.01-5.99-3.54zM579.76 565.81l-6.51 4.02 6 3.53 6.49-4.01-5.98-3.54zM564.4 546.85l6.5-4-5.99-3.54-6.5 4.01 5.99 3.53zM520.87 547.94l-6.51 4.01 6 3.53 6.5-4-5.99-3.54zM535.31 539.15l-6.5 4.01 6 3.53 6.49-4.01-5.99-3.53zM550.15 530.48l-6.5 4.02 6 3.53 6.49-4.01-5.99-3.54zM624.26 582.48l6.5-4.01-5.99-3.54-6.5 4.02 5.99 3.53zM594.51 574.64l-6.5 4.02 6 3.52 6.49-4-5.99-3.54zM640.11 600.98l-6.51 4.01 6 3.53 6.49-4-5.98-3.54zM609.93 583.6l-6.51 4.01 6 3.53 6.49-4-5.98-3.54zM579.82 555.81l6.49-4-5.98-3.54-6.51 4.01 6 3.53zM670.37 601.27l-6.51 4.02 6 3.53 6.49-4.01-5.98-3.54zM625.66 609.77l-6.5 4.02 6 3.52 6.49-4-5.99-3.54zM639.69 591.03l6.49-4.01-5.99-3.54-6.5 4.02 6 3.53zM655.02 617.48l6.49-4.01-5.99-3.53-6.5 4.01 6 3.53zM610.91 600.94l-6.51 4.02 6 3.53 6.5-4.01-5.99-3.54zM625.35 592.15l-6.5 4.01 6 3.53 6.49-4-5.99-3.54zM565.31 574.61l-6.5 4.01 36.17 21.32 6.49-4.01-36.16-21.32z" class="c"/><path d="m548.95 514.5-105.37 62.53c-1.36.81 1.11 2.33 2.48 3.13l154.99 90.27 106.72-63.49-158.82-92.44Zm105.35 77.43 1.27-2.15 10.2 6.03-10.66 6.58-1.31-2.13 7.13-4.4-6.64-3.92Zm-3.29-4.95-11.3 6.97-10.88-6.4 11.32-6.99 10.85 6.41Zm-100.8-31.08-1.27 2.15-10.23-6.01 10.68-6.59 1.31 2.13-7.15 4.41 6.65 3.91Zm-6.84 3.32 1.31 2.13-9.54 5.88-9.09-5.34 1.27-2.15 7.79 4.58 8.25-5.09Zm7.64 3.59 10.85 6.41-11.3 6.97-10.87-6.4 11.32-6.99Zm3.12-1.81 11.32-6.99 10.85 6.41-11.3 6.97-10.88-6.4Zm25.59 1.89 10.85 6.41-11.3 6.97-10.88-6.4 11.32-6.99Zm14.76 8.83 10.85 6.41-11.3 6.97-10.87-6.4 11.32-6.99Zm15.42 8.96 10.85 6.41-11.3 6.97-10.88-6.4 11.32-6.99Zm15.42 8.55 10.85 6.41-11.3 6.97-10.88-6.4 11.32-6.99Zm14.76 8.83 10.85 6.41-11.3 6.97-10.88-6.4 11.32-6.99Zm-4.49-19.63-11.3 6.97-10.87-6.4 11.32-6.99 10.85 6.41Zm-18.49-10 1.31 2.13-9.54 5.88-9.09-5.34 1.27-2.15 7.79 4.58 8.25-5.09Zm-13.46-8.84-1.27 2.15-7.77-4.59-8.27 5.1-1.31-2.13 9.55-5.9 9.07 5.36Zm-12.49-7.83-11.3 6.97-10.88-6.4 11.32-6.99 10.85 6.41Zm-15.42-8.96-11.3 6.97-10.87-6.4 11.32-6.99 10.85 6.41Zm-25.61-15.24 10.85 6.41-11.3 6.97-10.88-6.4 11.32-6.99Zm-14.84 8.67 10.85 6.41-11.3 6.97-10.88-6.4 11.32-6.99Zm-14.44 8.79 10.85 6.41-11.3 6.97-10.87-6.4 11.32-6.99Zm37.78 85.07-50.96-30.2 28.94-15.73 48.45 28.94-26.42 16.99Zm-4.65-51.42 11.32-6.99 41.03 24.2-11.3 6.97-41.04-24.18Zm45.59 26.34 11.32-6.99 10.85 6.41-11.3 6.97-10.87-6.4Zm14.76 8.83 11.32-6.99 10.85 6.41-11.3 6.97-10.88-6.4Zm34.53 9.48-7.77-4.59-8.27 5.1-1.31-2.13 9.56-5.9 9.07 5.36-1.27 2.15Zm6.2-2.92-10.87-6.4 11.32-6.99 10.85 6.41-11.3 6.97Zm3.97-15.06 11.32-6.99 10.85 6.41-11.3 6.97-10.88-6.4Z" class="c"/><path d="m551.04 565.73-6.5 4.01 5.99 3.53 6.5-4.01-5.99-3.53zM298.25 417.89l4.08 2.47-4.71 2.83-4.09-2.47 4.72-2.84m0-2.92-9.57 5.76 8.93 5.39 9.55-5.74-8.91-5.4Z" class="c"/><path d="m281.7 435.18-8.93-5.39 9.56-5.76M275.75 438.63l-9.55 5.75-8.93-5.39" class="e"/><path d="m314.58 427.63 4.08 2.47-4.71 2.83-4.09-2.47 4.72-2.84m0-2.92-9.57 5.76 8.93 5.39 9.55-5.74-8.91-5.4ZM298.65 436.69l4.08 2.47-4.71 2.83-4.09-2.47 4.72-2.84m0-2.92-9.57 5.76 8.93 5.39 9.55-5.74-8.91-5.4ZM283.15 445.89l4.08 2.47-4.71 2.83-4.09-2.47 4.72-2.84m0-2.92-9.57 5.76 8.93 5.39 9.55-5.74-8.91-5.4Z" class="c"/><path d="m320.12 440.1 9.57-5.76 8.91 5.41" class="e"/><path d="m313.76 446.32 4.08 2.47-4.71 2.83-4.09-2.47 4.72-2.84m0-2.92-9.57 5.76 8.93 5.39 9.55-5.74-8.91-5.4ZM298.26 455.52l36.03 21.8-4.7 2.83-36.04-21.79 4.72-2.84m0-2.92-9.57 5.76 40.88 24.71 9.55-5.74-40.86-24.73Z" class="c"/><path d="m354.23 449.33-9.55 5.75-8.93-5.39" class="e"/><path d="m329.38 455.91 4.08 2.47-4.71 2.83-4.09-2.47 4.72-2.84m0-2.92-9.57 5.76 8.93 5.39 9.55-5.74-8.91-5.4ZM361.63 456.59l4.08 2.47-4.71 2.83-4.09-2.47 4.72-2.84m0-2.92-9.57 5.76 8.93 5.39 9.55-5.74-8.91-5.4ZM345.71 465.64l4.08 2.47-4.71 2.83-4.09-2.47 4.72-2.84m0-2.92-9.57 5.76 8.93 5.39 9.55-5.74-8.91-5.4ZM377.97 465.89l4.08 2.47-4.71 2.83-4.09-2.47 4.72-2.84m0-2.92-9.57 5.76 8.93 5.39 9.55-5.74-8.91-5.4ZM362.04 474.94l4.08 2.47-4.71 2.83-4.09-2.47 4.72-2.84m0-2.92-9.57 5.76 8.93 5.39 9.55-5.74-8.91-5.4ZM346.54 484.14l4.08 2.47-4.71 2.83-4.09-2.47 4.72-2.84m0-2.92-9.57 5.76 8.93 5.39 9.55-5.74-8.91-5.4Z" class="c"/><path d="m393.6 472.55 8.91 5.4-9.55 5.75" class="e"/><path d="m377.67 484.53 4.08 2.47-4.71 2.83-4.09-2.47 4.72-2.84m0-2.92-9.57 5.76 8.93 5.39 9.55-5.74-8.91-5.4ZM362.17 493.73l4.08 2.47-4.71 2.83-4.09-2.47 4.72-2.84m0-2.92-9.57 5.76 8.93 5.39 9.55-5.74-8.91-5.4Z" class="c"/></g></svg>