<svg xmlns="http://www.w3.org/2000/svg" id="Layer_1" viewBox="0 0 40 25"><defs><style>.cls-1{fill:#9be583}.cls-2{fill:#303030}</style></defs><path d="M31.39 14.23c-.12 0-.23.1-.23.23s.1.23.23.23.23-.1.23-.23-.1-.23-.23-.23Z" class="cls-1"/><circle cx="17.22" cy="21.02" r=".46" class="cls-1"/><circle cx="23.88" cy="3.66" r=".63" class="cls-1"/><path d="m18.38 17.17 3.12-1.78v-.2l-5.93 3.4-.06-.04-6.37-3.78v-3.13l-.19.12v3.45l3.19 1.9 3.12 1.86 2.89-1.66.23-.14z" class="cls-1"/><path d="m12.07 9.85-2.42 1.47 2.77 1.56 2.41-1.47-2.76-1.56zM9.42 11.47l-.04.02v3.14l2.96 1.76V13.1l-2.92-1.63zM18.38 13.03l-2.69-1.67-.47.28-.15-.09-2.41 1.46 2.92 1.64 2.8-1.62zM15.92 11.22l2.69 1.67 2.47-1.43-2.78-1.65-2.38 1.41z" class="cls-1"/><path d="m18.49 13.24-2.91 1.69-.06-.04-2.94-1.65v3.29l2.99 1.78 2.92-1.67v-3.4zM18.73 16.5l2.76-1.59-.01-3.21-.16-.1-2.59 1.5v3.4z" class="cls-1"/><path d="M25.39 10.09c0-2.45-1.99-5.24-4.43-6.21l-.19-.08c-1.15-.46-2.25-.43-3.09.02V3.8l-.19.11s-.02 0-.03.01h-.01l-.85.54s-.02 0-.02.01h-.02v.02c-.77.53-1.2 1.45-1.2 2.58v3.81l-2.99-1.7-3.24 1.98v3.6l6.37 3.79.06.04 5.92-3.4.37-.21.06-.04.02-3.7.09-.05-3.39-2.01-3.04 1.77V7.09c0-1.06.39-1.9 1.1-2.39l.04-.02c.42-.28.93-.42 1.49-.42.49 0 1.03.11 1.57.33l.19.08c2.36.95 4.28 3.63 4.28 5.99v4.99c0 1.04-.38 1.87-1.07 2.36l-.12.07c-.78.49-1.87.52-3.01.07l-.19-.08c-.53-.21-1.04-.52-1.51-.89l-.23.13c.51.41 1.06.75 1.64.98l.19.08c.57.23 1.14.34 1.66.34s.97-.11 1.37-.32l.1-.06c.06-.03.12-.06.17-.1.01 0 .02-.02.03-.03l.77-.47s.06-.03.09-.05c0 0 .01-.01.02-.01h.02v-.02c.76-.54 1.18-1.44 1.18-2.57v-4.5l.07-.13-.07-.04v-.33Zm-9.7 1.27 2.69 1.67-2.8 1.62-2.92-1.64 2.41-1.46.47-.28.16.1Zm-3.31-1.89 2.92 1.66-.47.29-2.41 1.46-2.77-1.55-.16-.09 2.88-1.76Zm-3 2.02v-.05l.04.02 2.92 1.64v3.28l-2.96-1.76v-3.14Zm3.2 5.04v-3.29l2.95 1.65.06.03 2.91-1.69v3.4l-2.92 1.68-3-1.78Zm9.11-1.73-.19.11-2.76 1.59v-3.4l2.58-1.5.39-.23-.02 3.43Zm-3.05-5.35 2.92 1.73-.48.28-2.47 1.43-2.69-1.67-.15-.1 2.87-1.68ZM22.68 20.71l-.17.11.12.2.17-.1-.12-.21zM21.2 21.61l.12.21.17-.11-.12-.2-.17.1zM23.55 20.19l-.17.1.12.2.17-.09-.12-.21zM24.25 19.76l.12.21.17-.11-.12-.2-.17.1zM24.68 19.5l.13.2.17-.1-.13-.2-.17.1zM22.24 20.98l-.17.1.12.21.17-.11-.12-.2zM23.98 19.92l-.17.11.13.2.17-.1-.13-.21zM23.11 20.45l-.17.11.12.2.17-.1-.12-.21zM20.76 21.88l.13.2.17-.1-.13-.21-.17.11zM25.12 19.23l.12.21.17-.11-.12-.2-.17.1zM21.81 21.25l-.02.01-1.31-.78-.12.21 1.37.82.03.04.02-.01 2.31 1.38.13-.21-2.39-1.42-.02-.04zM11.11 18.54l.17.11.12-.21-.16-.1-.13.2zM10.68 18.27l.17.1.13-.2-.17-.1-.13.2zM11.54 18.81l.17.11.13-.2-.17-.11-.13.2zM8.96 17.18l.16.1.13-.2-.17-.11-.12.21zM9.39 17.45l.16.11.13-.21-.16-.1-.13.2zM10.25 18l.17.1.12-.2-.16-.11-.13.21zM12.83 19.63l.17.11.13-.21-.17-.1-.13.2zM13.26 19.9l.17.11.13-.21-.17-.1-.13.2zM11.97 19.09l.17.1.13-.2-.17-.11-.13.21zM12.4 19.36l.17.1.13-.2-.17-.11-.13.21zM9.82 17.72l.16.11.13-.2-.17-.11-.12.2zM6.8 15.82l.17.1.13-.2-.17-.11-.13.21zM7.23 16.09l.17.1.13-.2-.17-.09-.13.19zM8.52 16.912l.13-.201.169.108-.13.202zM8.1 16.63l.16.11.13-.2-.17-.11-.12.2zM7.66 16.36l.17.11.13-.21-.17-.1-.13.2zM28.67 14.86l-.08-.03s-.06-.01-.08-.02h.19v-.18h-.25v.17c-.47-.16-.94-.13-1.28.1-.34.23-.53.63-.53 1.12v.56c0 1.03.83 2.2 1.86 2.61l.08.03c.24.1.48.15.71.15.27 0 .51-.07.71-.2.34-.23.53-.63.53-1.12v-.56c0-1.03-.83-2.2-1.86-2.61Zm1.62 3.17c0 .41-.15.74-.42.92-.3.21-.74.22-1.2.04l-.08-.03c-.94-.38-1.71-1.45-1.71-2.39v-.56c0-.41.15-.74.42-.92.16-.11.36-.16.58-.16.19 0 .4.04.62.13l.08.03.1.05h-.21v.18h.24v-.16c.88.42 1.58 1.43 1.58 2.32v.56ZM32.23 9.4l.13-.2-.71-.46v-.47l.58.37.13-.2-.71-.46V6.86a.79.79 0 0 0-.35-.66l-.87-.56V4.46h-.24v1.03l-.36-.23V4.03h-.24v1.08l-.37-.24V3.65h-.24v1.06l-.52-.33a.335.335 0 0 0-.36-.01c-.12.06-.18.18-.18.31v.94l-.51-.32-.13.2.63.4v.47l-.5-.32-.13.2.63.4v.41l-.5-.32-.13.2.63.4v.99c0 .27.13.52.36.66l.71.45v.93h.24v-.78l.37.23v.92h.24v-.77l.36.23v.98h.24v-.83l.67.43c.06.04.12.06.19.06.06 0 .12-.01.17-.04.12-.06.18-.18.18-.31V9.7l.59.38.13-.2-.72-.46v-.41l.59.38Zm-.83-.12-.41-.26-.13.2.53.34v.95c0 .06-.04.09-.06.1-.02 0-.06.03-.12 0l-.8-.51v-.63h-.24v.48l-.36-.23v-.59h-.24v.44l-.37-.24V8.7h-.24v.47l-.58-.37a.532.532 0 0 1-.25-.46V7.5l.2.13.13-.2-.33-.21v-.41l.22.14.13-.2-.35-.22v-.47l.17.11.13-.2-.3-.19V4.69c0-.06.04-.09.06-.1.01 0 .03-.01.05-.01.02 0 .04 0 .06.02l.65.42v.54h.24v-.39l.37.24v.53h.24v-.37l.36.23v.48h.24v-.33l.74.48c.16.1.25.27.25.46v.97l-.35-.22-.13.2.48.31v.47l-.34-.22-.13.2.46.3v.41ZM27.04 11.75l.16-.18s-.09-.08-.13-.11l-.02-.02-.08.12h.02l-.08.08s.08.07.12.11ZM27.44 11.8l-.17.18s.07.08.11.12l.18-.15s-.08-.09-.12-.13l-.11.1.11-.11Z" class="cls-2"/><path d="m28.58 16.16-.44-.19.45 1.06.44-1.06-.44.19h-.01zM25.75 10.62l-.11.21.15.09.12-.21-.15-.09h-.01zM28.49 13.59l-.23.08.1-.03-.1.03c.02.05.03.11.05.16l.23-.07c-.02-.06-.03-.11-.05-.17ZM28.42 14.32l.24-.04c0-.06-.02-.11-.03-.17v-.02l-.24.05h.11l-.11.02.03.16ZM28.2 13.15l-.11.04v.02l.06.15.22-.09c-.02-.05-.04-.11-.07-.16l-.11.04ZM27.58 12.34c.03.06.06.1.09.15l.2-.13s-.07-.1-.1-.14l-.2.13ZM28.07 12.65l-.21.1.11-.04-.1.06s.05.1.08.15l.21-.12c-.03-.05-.06-.1-.08-.15ZM28.71 15.65v-.01l-.24.01v.17h.24v-.17zM26.8 11.24s-.1-.07-.14-.1l-.12.2s.09.06.13.09l.14-.19ZM26.2 10.87l-.11.21.13.07.15-.18-.16-.1h-.01zM23.54 9.38h-.01l-.11.2v.01l.15.08.12-.21-.15-.08zM23.98 9.63l-.01-.01-.1.21-.01.01.15.08.12-.21-.15-.08zM22.97 9.34l.15.08.12-.2-.15-.09h-.01l-.1.21h-.01zM22.66 9.54l.04-.4.07-.13.32-.25-1.14-.13.71.91z" class="cls-2"/></svg>