<svg xmlns="http://www.w3.org/2000/svg" id="Layer_1" viewBox="0 0 53.52 33.45"><defs><style>.cls-1{fill:#9be583}.cls-2{fill:#303030}</style></defs><path d="M21.06 26.08c-.44-.7-1.47-1.2-2.67-1.23-.13 0-.26 0-.39.02l1.1 1.38-.16.12-1.19-1.49c-.33.04-.64.12-.91.23-.15.09-.3.2-.42.31-.29.29-.45.62-.45.97 0 1 1.25 1.85 2.8 1.88h.1c.88 0 1.69-.28 2.2-.74.14-.22.22-.46.22-.72s-.08-.52-.23-.75Z" class="cls-1"/><path d="M16.13 27.89c.53.46 1.34.77 2.27.79.78.02 1.49-.17 2.02-.5-.45.19-.98.3-1.53.3h-.1c-1.65-.04-2.99-.97-2.99-2.08 0-.28.09-.55.25-.79-.33.3-.53.68-.53 1.09 0 .31.12.6.32.86.09.12.19.23.31.33ZM16.2 17.54s.09-.01.16.03c.12.07.24.27.3.5.02.09.1.41 0 .58-.04.06-.08.08-.12.09l-.29.08c.19.36.43.59.57.55.19-.05.26-.6.07-1.34-.17-.66-.52-1.13-.73-1.13h-.03c-.13.03-.21.32-.2.71l.27-.08Z" class="cls-1"/><path d="m15.97 17.82.02.02.02-.03h-.03Z" class="cls-1"/><path d="M16.85 19.57h-.07c-.26 0-.54-.3-.74-.7H16c-.03 0-.07 0-.11-.03-.14-.08-.25-.33-.3-.51-.03-.12-.09-.41 0-.57.03-.05.07-.08.12-.09h.01c-.01-.23 0-.44.05-.61l-.06.04c-.3.08-.36.78-.18 1.47s.62 1.26.92 1.18l1.37-.14.04-.16-1.02.11Z" class="cls-1"/><path d="M23.1 18.71s.03-.02.05-.03c.24-.56.18-1.56-.11-2.54-.26-.85-.71-1.61-1.18-2.01-.25-.21-.49-.3-.72-.28l-4.77 2.92c.3.17.58.68.72 1.22.13.5.17 1.05.03 1.36l6-.63ZM19.4 19.46l.71-.08.33-.03 2.28-.24c.11-.03.19-.1.27-.19l-4.91.52-.04.16 1.16-.12.2-.02Z" class="cls-1"/><path d="m10.34 22.07 1.16.7-.06.03.1.17.16-.09 2.66 1.59.1-.18-4.02-2.39-.1.17zM14.72 20.81l.1.17.18-.11-.1-.17-.18.11zM10.97 23.09l.1.17.18-.11-.1-.17-.18.11zM9.56 23.94l.1.17.18-.11-.1-.17-.18.11zM10.03 23.66l.1.17.18-.11-.1-.17-.18.11zM10.5 23.37l.1.17.18-.11-.1-.17-.18.11zM15.19 20.52l.1.17.16-.09-.11-.17-.15.09zM14.25 21.09l.1.17.18-.1-.1-.17-.18.1zM14.06 21.44l-.1-.17-.18.11.1.17.18-.11zM9.09 24.23l.11.17.17-.11-.1-.18-.18.12zM13.59 21.73l-.1-.18-.18.11.1.17.18-.1zM13.12 22.01l-.1-.17-.18.11.11.17.17-.11zM12.19 22.58l-.11-.17-.18.11.11.17.18-.11zM12.66 22.29l-.11-.17-.18.11.11.17.18-.11zM38.13 28.68l-.1.17.18.11.1-.17-.18-.11zM37.19 28.12l-.1.17.18.11.1-.17-.18-.11zM37.66 28.4l-.1.17.18.11.1-.17-.18-.11zM39.44 29.7l.18.1.1-.17-.18-.1-.1.17zM38.97 29.42l.18.1.1-.17-.18-.11-.1.18zM40.86 30.54l.18.1.1-.17-.18-.1-.1.17zM40.398 30.267l.101-.172.173.101-.102.173zM39.91 29.98l.18.1.1-.17-.17-.1-.11.17zM39.7 28.3l-.11-.17-3.72 2.42.11.17 2.57-1.67-.05.08.18.11.1-.17-.13-.08 1.05-.69zM19.2 19.71h.2v-.25l-.2.02v.23zM34.04 16.54h-.01l-.13.13v.02s.08.08.13.11l.02.02.13-.15h-.01s-.1-.09-.14-.13ZM34.46 16.87v-.03l-.12.19c.06.04.11.08.17.1l.09-.17-.15-.09ZM31.77 11.81l-.2.04.04.21.2-.04v-.04l-.04-.15v-.02ZM31.59 8.01c-.02.06-.04.12-.05.18l.18.06h.01c.02-.07.04-.12.05-.18h.01L31.6 8ZM31.63 8.77c0-.07.02-.13.03-.18l-.19-.04c-.01.07-.02.13-.03.19l.2.04ZM31.58 9.31c0-.06 0-.11.01-.18h-.01v-.02h-.19v.2h.2ZM31.56 9.65h-.2v.2h.2v-.2ZM31.68 12.39h.01c0 .06.02.1.03.15v.06l.21-.05v-.02c-.02-.06-.04-.11-.05-.17l-.2.03ZM31.71 11.48h-.01v-.1c0-.03-.01-.06-.01-.09l-.2.02v.1c.01.03.01.06.02.09l.2-.02ZM31.63 10.94c-.01-.07-.01-.13-.02-.19h-.2v.02s.01.09.02.14v.06l.2-.03ZM31.58 10.4v-.19h-.2c0 .06.01.11.01.17v.04l.2-.02ZM31.99 13.47c.02.06.04.12.06.17h.01l.19-.05v-.02s-.05-.11-.07-.17l-.19.06ZM32.37 13.92v-.02l-.18.07h-.01v.02s.05.1.07.15v.03l.19-.08s-.02-.07-.03-.09c-.02-.03-.03-.06-.04-.08ZM31.82 12.94s.02.05.03.08c.01.03.02.06.03.1l.19-.05-.03-.12-.03-.08-.19.06Z" class="cls-2"/><path d="M40.58 24.9V12.86h-.2v12.03c0 .54-.28 1.03-.74 1.31-.46.28-1.02.3-1.51.06l-2.26-1.16v-4.81l1.53.9.06.04.97-.56V7.86l-6.85-4.03-.05-.03-.97.56v3.72l-1.89 1.18-2.97-1.77-.45-2.03-3.86-2.3V5.9l-2.26-1.35v3c-.07-.01-.15 0-.22.03-.12.06-.19.19-.21.35-.03.31.16.67.44.81v.51c-.08-.01-.17 0-.24.03-.12.06-.19.19-.21.35-.03.31.16.67.44.81h.01v.51c-.09-.01-.17-.01-.24.03-.12.06-.19.19-.21.35-.03.31.16.67.44.81h.02v2.64l-3.13 1.92c-.13.05-.22.17-.27.35-.05.17-.06.38-.05.6h-.01s-.09.05-.12.1c-.09.16-.03.45 0 .57.05.18.15.43.3.51.04.02.08.03.11.03h.04c.2.4.48.7.74.7h.07l1.02-.11-.04.16-1.08 3.92v.05l.8 1.02c-.5.14-.94.36-1.26.67-.1.1-.19.21-.26.32-.16.25-.25.52-.25.79 0 1.11 1.34 2.04 2.99 2.08h.1c.56 0 1.08-.11 1.53-.3-.52.32-1.23.52-2.02.5-.92-.02-1.74-.33-2.27-.79-.12-.1-.22-.21-.31-.33.16 1.01 1.42 1.83 2.96 1.86h.1c.96 0 1.85-.31 2.39-.84.33-.33.51-.71.51-1.12v-.94c0-1.11-1.34-2.04-2.99-2.08-.36 0-.7.04-1.02.11l-.81-1.02 1.09-3.94.04-.16 4.91-.52.15-.02c.21-.06.36-.23.47-.46l9.8-.95v2.65l-.02 6.84c0 .07.01.15.03.21L21.1 19.73l-.69-.42-.33.03.61.37 12.9 7.8a.83.83 0 0 0 .59.26c.15 0 .3-.04.44-.13l.49-.31c.45-.28.72-.76.72-1.3v-.74L38 26.4c.25.13.52.19.79.19.31 0 .63-.09.91-.26.52-.32.83-.87.83-1.49Zm-21.9-.24h.1c1.54.04 2.8.88 2.8 1.88 0 .35-.15.69-.45.97-.01.01-.04.02-.05.04-.51.46-1.31.74-2.2.74h-.1c-1.54-.04-2.8-.88-2.8-1.88 0-.35.16-.69.45-.97.12-.12.26-.22.42-.31.24-.15.53-.25.84-.33l.08.1 1.19 1.49.16-.12-1.1-1.38-.11-.13c.25-.05.51-.08.78-.08Zm13.23-16.9c.03-.08.06-.12.08-.17H32l-.13-.08.3-.19h.02s.08-.06.11-.08h.02c.07-.06.15-.1.23-.12.32-.08.69 0 1.08.22.82.48 1.9 1.81 2.48 4.08.67 2.63.3 5.38-.77 5.66-.05.01-.1.02-.15.02h-.11c-.06-.01-.11-.02-.16-.03l-.02.06-1.3.13v-.88l.03.03h.01l.15-.12s-.07-.09-.12-.14l-.06.03v-1.19l-2.84-1.71v-5.1l1.01-.63-.05.1.18.1Zm-1.24 2.8Zm-.1-2.24v2.07l-1.7-1.01 1.7-1.06ZM28.68 9.5l.85.51 1.04.62v2.55l-3.96-2.39 2-1.24.08-.05ZM21.6 3.52l3.48 2.07.45 2.03 2.96 1.76-.1.06-1.98 1.23-2.97-1.79-.45-2.03-.76-.46-.63-.37v-2.5Zm-2.7 4.44c0-.09.05-.16.1-.19.02-.01.05-.02.08-.02.04 0 .09.01.14.04.2.11.36.39.33.62 0 .09-.05.16-.1.19-.06.03-.14.02-.23-.02-.2-.11-.36-.39-.34-.62Zm0 1.71c0-.09.05-.16.1-.19.02-.01.05-.02.08-.02.04 0 .09.01.14.04.2.11.36.39.33.62 0 .09-.05.16-.1.19-.06.03-.14.02-.23-.02-.2-.11-.36-.39-.34-.62Zm0 1.71c0-.09.05-.16.1-.19.02-.01.05-.02.08-.02.04 0 .09.01.15.04.2.11.36.39.33.62 0 .09-.05.16-.1.19-.06.03-.14.02-.23-.02-.2-.11-.36-.39-.34-.62Zm.46.86h.02c.06 0 .12-.01.18-.04.12-.06.19-.19.21-.35.03-.3-.15-.63-.41-.79v-.53h.03c.06 0 .12-.01.18-.04.12-.06.19-.19.21-.35.03-.3-.15-.64-.42-.8v-.52h.03c.06 0 .12-.01.18-.04.12-.06.19-.19.21-.35.03-.3-.16-.65-.42-.8V4.92l3.47 2.07.45 2.03 2.95 1.78-4.36 2.71a.839.839 0 0 0-.49-.04l-2 1.22v-2.46Zm-3.4 5.61-.02-.02h.03l-.02.02Zm-.2.46c-.06-.25-.04-.4-.03-.42.04 0 .16.15.22.38.07.25.04.41.02.43s-.15-.16-.21-.39Zm1.03 1.09c-.14.04-.38-.19-.57-.55l.29-.08s.08-.03.12-.09c.1-.17.03-.49 0-.58-.06-.23-.18-.43-.3-.5-.07-.04-.12-.04-.16-.03l-.27.08c-.01-.39.06-.67.2-.71h.03c.21 0 .56.47.73 1.13.19.74.12 1.29-.07 1.34Zm6.33-.7s-.03.03-.05.03l-6 .63c.14-.3.1-.86-.03-1.36-.14-.53-.42-1.05-.72-1.22l4.77-2.92.32-.2c.28-.08.64.11.99.53.36.42.69 1.04.88 1.7.2.67.29 1.36.25 1.88-.02.3-.12.78-.43.93Zm.55-.45c.04-.14.07-.29.08-.46.04-.56-.05-1.25-.26-1.96-.2-.68-.54-1.32-.92-1.77-.17-.2-.34-.34-.51-.44l4.34-2.7 7 4.22v2.17l-9.72.94Zm11.53-.92h.14s.03-.02.05-.02c1.3-.34 1.56-3.4.92-5.9-.51-1.98-1.47-3.56-2.57-4.21-.44-.26-.86-.34-1.23-.25-.1.02-.19.07-.28.12l-.02-.02v.03l-1.43.9V4.61l6.6 3.88v12.47l-3.76-2.21v-1.26l1.61-.16Zm.45 8.76c0 .46-.23.88-.63 1.13l-.49.31a.622.622 0 0 1-.96-.53v-8.01l2.13 1.24h-.05v4.8l-.51-.26c0-.29-.18-.59-.43-.73-.14-.08-.3-.09-.42-.02-.12.06-.19.19-.21.35-.03.31.16.67.44.81.08.04.16.07.24.07.06 0 .12-.01.18-.04.09-.05.14-.13.17-.23l.54.28v.85Zm-.71-1.27c0 .09-.05.16-.1.19-.06.03-.14.02-.23-.02-.2-.11-.36-.39-.33-.62 0-.09.05-.16.1-.19.02-.01.05-.02.08-.02.04 0 .09.01.14.04.2.11.36.39.33.62Z" class="cls-2"/><path d="m35.03 9.61-2.71-1.6-.05.08-.05.09 2.71 1.61.1-.18zM43.18 13.47l.05-.09-2.7-1.6-.1.17 2.7 1.61.05-.09zM34.1 10.39l-.05.08 1.82 1.09.11-.17-1.83-1.09-.05.09zM33.34 9.94l.05-.09-1.07-.63-.05.08-.05.09 1.07.63.05-.08zM32.97 12.27l-.05.09 2.95 1.75.11-.17-2.96-1.75-.05.08zM34.69 14.69l1.18.7.11-.17-1.18-.7-.11.17zM34.02 14.06l-1.7-1.01-.05.08-.05.09 1.7 1.01.1-.17zM35.21 12.33l.05-.09-2.94-1.75-.05.09-.05.09 2.94 1.74.05-.08zM41.36 13.53l-.06.09 2.46 1.46.1-.18-2.45-1.46-.05.09zM41.36 16.08l-.06.09 2.35 1.39.05-.08.06-.09L41.41 16l-.05.08zM41.3 14.89l2.38 1.41.1-.17-2.37-1.41-.11.17z" class="cls-2"/><path d="M41.36 7c.38 0 .68-.31.68-.68s-.31-.68-.68-.68-.68.31-.68.68.31.68.68.68Z" class="cls-1"/><circle cx="14.08" cy="8.53" r=".33" class="cls-1"/><path d="M27.88 26.77a.939.939 0 1 0 0 1.88.939.939 0 1 0 0-1.88Z" class="cls-1"/></svg>