<?xml version="1.0" standalone="yes"?>

<svg version="1.1" viewBox="0.0 0.0 921.6325459317585 371.34120734908134" fill="none" stroke="none" stroke-linecap="square" stroke-miterlimit="10" xmlns="http://www.w3.org/2000/svg" xmlns:xlink="http://www.w3.org/1999/xlink"><clipPath id="p.0"><path d="m0 0l921.63257 0l0 371.34122l-921.63257 0l0 -371.34122z" clip-rule="nonzero"></path></clipPath><g clip-path="url(#p.0)"><path fill="#000000" fill-opacity="0.0" d="m0 0l921.63257 0l0 371.34122l-921.63257 0z" fill-rule="nonzero"></path><path fill="#cfe2f3" d="m-1.7716535 144.4042l80.10467 0l16.021317 16.021317l0 80.10466l-96.125984 0z" fill-rule="nonzero"></path><path stroke="#000000" stroke-width="1.0" stroke-linejoin="round" stroke-linecap="butt" d="m-1.7716535 144.4042l80.10467 0l16.021317 16.021317l0 80.10466l-96.125984 0z" fill-rule="nonzero"></path><path fill="#cfe2f3" d="m6.209974 161.39633l80.10467 0l16.021317 16.021317l0 80.10466l-96.125984 0z" fill-rule="nonzero"></path><path stroke="#000000" stroke-width="1.0" stroke-linejoin="round" stroke-linecap="butt" d="m6.209974 161.39633l80.10467 0l16.021317 16.021317l0 80.10466l-96.125984 0z" fill-rule="nonzero"></path><path fill="#cfe2f3" d="m177.4357 141.41995l96.11023 0l0 135.44882l-96.11023 0z" fill-rule="nonzero"></path><path stroke="#000000" stroke-width="1.0" stroke-linejoin="round" stroke-linecap="butt" d="m177.4357 141.41995l96.11023 0l0 135.44882l-96.11023 0z" fill-rule="nonzero"></path><path fill="#000000" d="m205.98764 194.06436l-1.546875 0l0 -13.59375l1.65625 0l0 4.84375q1.0625 -1.328125 2.703125 -1.328125q0.90625 0 1.71875 0.375q0.8125 0.359375 1.328125 1.03125q0.53125 0.65625 0.828125 1.59375q0.296875 0.9375 0.296875 2.0q0 2.53125 -1.25 3.921875q-1.25 1.375 -3.0 1.375q-1.75 0 -2.734375 -1.453125l0 1.234375zm-0.015625 -5.0q0 1.765625 0.46875 2.5625q0.796875 1.28125 2.140625 1.28125q1.09375 0 1.890625 -0.9375q0.796875 -0.953125 0.796875 -2.84375q0 -1.921875 -0.765625 -2.84375q-0.765625 -0.921875 -1.84375 -0.921875q-1.09375 0 -1.890625 0.953125q-0.796875 0.953125 -0.796875 2.75zm15.281967 3.78125q-0.9375 0.796875 -1.796875 1.125q-0.859375 0.3125 -1.84375 0.3125q-1.609375 0 -2.484375 -0.78125q-0.875 -0.796875 -0.875 -2.03125q0 -0.734375 0.328125 -1.328125q0.328125 -0.59375 0.859375 -0.953125q0.53125 -0.359375 1.203125 -0.546875q0.5 -0.140625 1.484375 -0.25q2.03125 -0.25 2.984375 -0.578125q0 -0.34375 0 -0.4375q0 -1.015625 -0.46875 -1.4375q-0.640625 -0.5625 -1.90625 -0.5625q-1.171875 0 -1.734375 0.40625q-0.5625 0.40625 -0.828125 1.46875l-1.640625 -0.234375q0.234375 -1.046875 0.734375 -1.6875q0.515625 -0.640625 1.46875 -0.984375q0.96875 -0.359375 2.25 -0.359375q1.265625 0 2.046875 0.296875q0.78125 0.296875 1.15625 0.75q0.375 0.453125 0.515625 1.140625q0.09375 0.421875 0.09375 1.53125l0 2.234375q0 2.328125 0.09375 2.953125q0.109375 0.609375 0.4375 1.171875l-1.75 0q-0.265625 -0.515625 -0.328125 -1.21875zm-0.140625 -3.71875q-0.90625 0.359375 -2.734375 0.625q-1.03125 0.140625 -1.453125 0.328125q-0.421875 0.1875 -0.65625 0.546875q-0.234375 0.359375 -0.234375 0.796875q0 0.671875 0.5 1.125q0.515625 0.4375 1.484375 0.4375q0.96875 0 1.71875 -0.421875q0.75 -0.4375 1.109375 -1.15625q0.265625 -0.578125 0.265625 -1.671875l0 -0.609375zm3.2038422 4.9375l0 -1.359375l6.265625 -7.1875q-1.0625 0.046875 -1.875 0.046875l-4.015625 0l0 -1.359375l8.046875 0l0 1.109375l-5.34375 6.25l-1.015625 1.140625q1.109375 -0.078125 2.09375 -0.078125l4.5625 0l0 1.4375l-8.71875 0zm16.953125 -3.171875l1.71875 0.21875q-0.40625 1.5 -1.515625 2.34375q-1.09375 0.828125 -2.8125 0.828125q-2.15625 0 -3.421875 -1.328125q-1.265625 -1.328125 -1.265625 -3.734375q0 -2.484375 1.265625 -3.859375q1.28125 -1.375 3.328125 -1.375q1.984375 0 3.234375 1.34375q1.25 1.34375 1.25 3.796875q0 0.140625 -0.015625 0.4375l-7.34375 0q0.09375 1.625 0.921875 2.484375q0.828125 0.859375 2.0625 0.859375q0.90625 0 1.546875 -0.46875q0.65625 -0.484375 1.046875 -1.546875zm-5.484375 -2.703125l5.5 0q-0.109375 -1.234375 -0.625 -1.859375q-0.796875 -0.96875 -2.078125 -0.96875q-1.140625 0 -1.9375 0.78125q-0.78125 0.765625 -0.859375 2.046875zm9.078842 5.875l0 -13.59375l1.671875 0l0 13.59375l-1.671875 0z" fill-rule="nonzero"></path><path fill="#000000" d="m210.23358 220.06436q-1.375 -1.75 -2.328125 -4.078125q-0.953125 -2.34375 -0.953125 -4.84375q0 -2.21875 0.703125 -4.234375q0.84375 -2.34375 2.578125 -4.671875l1.203125 0q-1.125 1.921875 -1.484375 2.75q-0.5625 1.28125 -0.890625 2.671875q-0.40625 1.734375 -0.40625 3.484375q0 4.46875 2.78125 8.921875l-1.203125 0zm4.853302 -4.0l-3.015625 -9.859375l1.71875 0l1.5625 5.6875l0.59375 2.125q0.03125 -0.15625 0.5 -2.03125l1.578125 -5.78125l1.71875 0l1.46875 5.71875l0.484375 1.890625l0.578125 -1.90625l1.6875 -5.703125l1.625 0l-3.078125 9.859375l-1.734375 0l-1.578125 -5.90625l-0.375 -1.671875l-2.0 7.578125l-1.734375 0zm11.660446 -11.6875l0 -1.90625l1.671875 0l0 1.90625l-1.671875 0zm0 11.6875l0 -9.859375l1.671875 0l0 9.859375l-1.671875 0zm7.785446 -1.5l0.234375 1.484375q-0.703125 0.140625 -1.265625 0.140625q-0.90625 0 -1.40625 -0.28125q-0.5 -0.296875 -0.703125 -0.75q-0.203125 -0.46875 -0.203125 -1.984375l0 -5.65625l-1.234375 0l0 -1.3125l1.234375 0l0 -2.4375l1.65625 -1.0l0 3.4375l1.6875 0l0 1.3125l-1.6875 0l0 5.75q0 0.71875 0.078125 0.921875q0.09375 0.203125 0.296875 0.328125q0.203125 0.125 0.578125 0.125q0.265625 0 0.734375 -0.078125zm1.5270538 1.5l0 -13.59375l1.671875 0l0 4.875q1.171875 -1.359375 2.953125 -1.359375q1.09375 0 1.890625 0.4375q0.8125 0.421875 1.15625 1.1875q0.359375 0.765625 0.359375 2.203125l0 6.25l-1.671875 0l0 -6.25q0 -1.25 -0.546875 -1.8125q-0.546875 -0.578125 -1.53125 -0.578125q-0.75 0 -1.40625 0.390625q-0.640625 0.375 -0.921875 1.046875q-0.28125 0.65625 -0.28125 1.8125l0 5.390625l-1.671875 0z" fill-rule="nonzero"></path><path fill="#000000" d="m202.58862 236.84561q-0.9375 0.796875 -1.796875 1.125q-0.859375 0.3125 -1.84375 0.3125q-1.609375 0 -2.484375 -0.78125q-0.875 -0.796875 -0.875 -2.03125q0 -0.734375 0.328125 -1.328125q0.328125 -0.59375 0.859375 -0.953125q0.53125 -0.359375 1.203125 -0.546875q0.5 -0.140625 1.484375 -0.25q2.03125 -0.25 2.984375 -0.578125q0 -0.34375 0 -0.4375q0 -1.015625 -0.46875 -1.4375q-0.640625 -0.5625 -1.90625 -0.5625q-1.171875 0 -1.734375 0.40625q-0.5625 0.40625 -0.828125 1.46875l-1.640625 -0.234375q0.234375 -1.046875 0.734375 -1.6875q0.515625 -0.640625 1.46875 -0.984375q0.96875 -0.359375 2.25 -0.359375q1.265625 0 2.046875 0.296875q0.78125 0.296875 1.15625 0.75q0.375 0.453125 0.515625 1.140625q0.09375 0.421875 0.09375 1.53125l0 2.234375q0 2.328125 0.09375 2.953125q0.109375 0.609375 0.4375 1.171875l-1.75 0q-0.265625 -0.515625 -0.328125 -1.21875zm-0.140625 -3.71875q-0.90625 0.359375 -2.734375 0.625q-1.03125 0.140625 -1.453125 0.328125q-0.421875 0.1875 -0.65625 0.546875q-0.234375 0.359375 -0.234375 0.796875q0 0.671875 0.5 1.125q0.515625 0.4375 1.484375 0.4375q0.96875 0 1.71875 -0.421875q0.75 -0.4375 1.109375 -1.15625q0.265625 -0.578125 0.265625 -1.671875l0 -0.609375zm3.4069672 2.0l1.65625 -0.265625q0.140625 1.0 0.765625 1.53125q0.640625 0.515625 1.78125 0.515625q1.15625 0 1.703125 -0.46875q0.5625 -0.46875 0.5625 -1.09375q0 -0.5625 -0.484375 -0.890625q-0.34375 -0.21875 -1.703125 -0.5625q-1.84375 -0.46875 -2.5625 -0.796875q-0.703125 -0.34375 -1.078125 -0.9375q-0.359375 -0.609375 -0.359375 -1.328125q0 -0.65625 0.296875 -1.21875q0.3125 -0.5625 0.828125 -0.9375q0.390625 -0.28125 1.0625 -0.484375q0.671875 -0.203125 1.4375 -0.203125q1.171875 0 2.046875 0.34375q0.875 0.328125 1.28125 0.90625q0.421875 0.5625 0.578125 1.515625l-1.625 0.21875q-0.109375 -0.75 -0.65625 -1.171875q-0.53125 -0.4375 -1.5 -0.4375q-1.15625 0 -1.640625 0.390625q-0.484375 0.375 -0.484375 0.875q0 0.328125 0.203125 0.59375q0.203125 0.265625 0.640625 0.4375q0.25 0.09375 1.46875 0.4375q1.765625 0.46875 2.46875 0.765625q0.703125 0.296875 1.09375 0.875q0.40625 0.578125 0.40625 1.4375q0 0.828125 -0.484375 1.578125q-0.484375 0.734375 -1.40625 1.140625q-0.921875 0.390625 -2.078125 0.390625q-1.921875 0 -2.9375 -0.796875q-1.0 -0.796875 -1.28125 -2.359375zm10.0 6.71875l0 -13.640625l1.53125 0l0 1.28125q0.53125 -0.75 1.203125 -1.125q0.6875 -0.375 1.640625 -0.375q1.265625 0 2.234375 0.65625q0.96875 0.640625 1.453125 1.828125q0.5 1.1875 0.5 2.59375q0 1.515625 -0.546875 2.734375q-0.546875 1.203125 -1.578125 1.84375q-1.03125 0.640625 -2.171875 0.640625q-0.84375 0 -1.515625 -0.34375q-0.65625 -0.359375 -1.078125 -0.890625l0 4.796875l-1.671875 0zm1.515625 -8.65625q0 1.90625 0.765625 2.8125q0.78125 0.90625 1.875 0.90625q1.109375 0 1.890625 -0.9375q0.796875 -0.9375 0.796875 -2.921875q0 -1.875 -0.78125 -2.8125q-0.765625 -0.9375 -1.84375 -0.9375q-1.0625 0 -1.890625 1.0q-0.8125 1.0 -0.8125 2.890625zm15.610092 1.703125l1.71875 0.21875q-0.40625 1.5 -1.515625 2.34375q-1.09375 0.828125 -2.8125 0.828125q-2.15625 0 -3.421875 -1.328125q-1.265625 -1.328125 -1.265625 -3.734375q0 -2.484375 1.265625 -3.859375q1.28125 -1.375 3.328125 -1.375q1.984375 0 3.234375 1.34375q1.25 1.34375 1.25 3.796875q0 0.140625 -0.015625 0.4375l-7.34375 0q0.09375 1.625 0.921875 2.484375q0.828125 0.859375 2.0625 0.859375q0.90625 0 1.546875 -0.46875q0.65625 -0.484375 1.046875 -1.546875zm-5.484375 -2.703125l5.5 0q-0.109375 -1.234375 -0.625 -1.859375q-0.796875 -0.96875 -2.078125 -0.96875q-1.140625 0 -1.9375 0.78125q-0.78125 0.765625 -0.859375 2.046875zm15.547592 2.265625l1.640625 0.21875q-0.265625 1.6875 -1.375 2.65625q-1.109375 0.953125 -2.734375 0.953125q-2.015625 0 -3.25 -1.3125q-1.21875 -1.328125 -1.21875 -3.796875q0 -1.59375 0.515625 -2.78125q0.53125 -1.203125 1.609375 -1.796875q1.09375 -0.609375 2.359375 -0.609375q1.609375 0 2.625 0.8125q1.015625 0.8125 1.3125 2.3125l-1.625 0.25q-0.234375 -1.0 -0.828125 -1.5q-0.59375 -0.5 -1.421875 -0.5q-1.265625 0 -2.0625 0.90625q-0.78125 0.90625 -0.78125 2.859375q0 1.984375 0.765625 2.890625q0.765625 0.890625 1.984375 0.890625q0.984375 0 1.640625 -0.59375q0.65625 -0.609375 0.84375 -1.859375zm6.546875 2.109375l0.234375 1.484375q-0.703125 0.140625 -1.265625 0.140625q-0.90625 0 -1.40625 -0.28125q-0.5 -0.296875 -0.703125 -0.75q-0.203125 -0.46875 -0.203125 -1.984375l0 -5.65625l-1.234375 0l0 -1.3125l1.234375 0l0 -2.4375l1.65625 -1.0l0 3.4375l1.6875 0l0 1.3125l-1.6875 0l0 5.75q0 0.71875 0.078125 0.921875q0.09375 0.203125 0.296875 0.328125q0.203125 0.125 0.578125 0.125q0.265625 0 0.734375 -0.078125zm2.6208038 5.5l-1.1875 0q2.765625 -4.453125 2.765625 -8.921875q0 -1.734375 -0.390625 -3.453125q-0.328125 -1.390625 -0.890625 -2.671875q-0.359375 -0.84375 -1.484375 -2.78125l1.1875 0q1.75 2.328125 2.578125 4.671875q0.71875 2.015625 0.71875 4.234375q0 2.5 -0.96875 4.84375q-0.953125 2.328125 -2.328125 4.078125z" fill-rule="nonzero"></path><path fill="#cfe2f3" d="m327.61942 144.4147l80.104675 0l0 0c4.249115 0 8.324188 1.6879578 11.328766 4.6925354c3.0046082 3.0045776 4.6925354 7.079666 4.6925354 11.328781l0 80.10466l-96.12598 0z" fill-rule="nonzero"></path><path stroke="#000000" stroke-width="1.0" stroke-linejoin="round" stroke-linecap="butt" d="m327.61942 144.4147l80.104675 0l0 0c4.249115 0 8.324188 1.6879578 11.328766 4.6925354c3.0046082 3.0045776 4.6925354 7.079666 4.6925354 11.328781l0 80.10466l-96.12598 0z" fill-rule="nonzero"></path><path fill="#cfe2f3" d="m335.61942 152.4147l80.104675 0l0 0c4.249115 0 8.324188 1.6879578 11.328766 4.6925354c3.0046082 3.0045776 4.6925354 7.079666 4.6925354 11.328781l0 80.10466l-96.12598 0z" fill-rule="nonzero"></path><path stroke="#000000" stroke-width="1.0" stroke-linejoin="round" stroke-linecap="butt" d="m335.61942 152.4147l80.104675 0l0 0c4.249115 0 8.324188 1.6879578 11.328766 4.6925354c3.0046082 3.0045776 4.6925354 7.079666 4.6925354 11.328781l0 80.10466l-96.12598 0z" fill-rule="nonzero"></path><path fill="#cfe2f3" d="m345.61417 162.40683l80.104675 0l0 0c4.249115 0 8.324188 1.6879425 11.328766 4.6925354c3.0046082 3.0045776 4.6925354 7.079666 4.6925354 11.328781l0 80.10466l-96.12598 0z" fill-rule="nonzero"></path><path stroke="#000000" stroke-width="1.0" stroke-linejoin="round" stroke-linecap="butt" d="m345.61417 162.40683l80.104675 0l0 0c4.249115 0 8.324188 1.6879425 11.328766 4.6925354c3.0046082 3.0045776 4.6925354 7.079666 4.6925354 11.328781l0 80.10466l-96.12598 0z" fill-rule="nonzero"></path><path fill="#cfe2f3" d="m135.37796 178.68242l14.267715 0l0 -31.283463l14.267715 62.566925l-14.267715 62.566925l0 -31.283463l-14.267715 0z" fill-rule="nonzero"></path><path stroke="#000000" stroke-width="1.0" stroke-linejoin="round" stroke-linecap="butt" d="m135.37796 178.68242l14.267715 0l0 -31.283463l14.267715 62.566925l-14.267715 62.566925l0 -31.283463l-14.267715 0z" fill-rule="nonzero"></path><path fill="#cfe2f3" d="m287.37796 178.68242l14.2677 0l0 -31.283463l14.267731 62.566925l-14.267731 62.566925l0 -31.283463l-14.2677 0z" fill-rule="nonzero"></path><path stroke="#000000" stroke-width="1.0" stroke-linejoin="round" stroke-linecap="butt" d="m287.37796 178.68242l14.2677 0l0 -31.283463l14.267731 62.566925l-14.267731 62.566925l0 -31.283463l-14.2677 0z" fill-rule="nonzero"></path><path fill="#000000" fill-opacity="0.0" d="m-0.77952754 109.35433l128.15749 0l0 23.023628l-128.15749 0z" fill-rule="nonzero"></path><path fill="#000000" d="m9.611097 136.27432l0 -13.593742l5.109375 0q1.546875 0 2.484375 0.40625q0.953125 0.40625 1.484375 1.265625q0.53125 0.859375 0.53125 1.796875q0 0.875 -0.46875 1.65625q-0.46875 0.7656174 -1.4375 1.2343674q1.234375 0.359375 1.890625 1.234375q0.671875 0.875 0.671875 2.0625q0 0.953125 -0.40625 1.78125q-0.390625 0.8125 -0.984375 1.265625q-0.59375 0.4375 -1.5 0.671875q-0.890625 0.21875 -2.1875 0.21875l-5.1875 0zm1.796875 -7.890625l2.9375 0q1.203125 0 1.71875 -0.15625q0.6875 -0.203125 1.03125 -0.6718674q0.359375 -0.46875 0.359375 -1.1875q0 -0.671875 -0.328125 -1.1875q-0.328125 -0.515625 -0.9375 -0.703125q-0.59375 -0.203125 -2.0625 -0.203125l-2.71875 0l0 4.1093674zm0 6.28125l3.390625 0q0.875 0 1.21875 -0.0625q0.625 -0.109375 1.046875 -0.359375q0.421875 -0.265625 0.6875 -0.765625q0.265625 -0.5 0.265625 -1.140625q0 -0.765625 -0.390625 -1.328125q-0.390625 -0.5625 -1.078125 -0.78125q-0.6875 -0.234375 -1.984375 -0.234375l-3.15625 0l0 4.671875zm19.646698 -11.984367l1.7968769 0l0 7.8437424q0 2.0625 -0.46875 3.265625q-0.4531269 1.203125 -1.6718769 1.96875q-1.203125 0.75 -3.171875 0.75q-1.90625 0 -3.125 -0.65625q-1.21875 -0.65625 -1.734375 -1.90625q-0.515625 -1.25 -0.515625 -3.421875l0 -7.8437424l1.796875 0l0 7.8437424q0 1.765625 0.328125 2.609375q0.328125 0.84375 1.125 1.296875q0.8125 0.453125 1.96875 0.453125q1.984375 0 2.828125 -0.890625q0.84375 -0.90625 0.84375 -3.46875l0 -7.8437424zm4.847948 13.593742l0 -13.593742l1.8125 0l0 13.593742l-1.8125 0zm4.808304 0l0 -13.593742l1.796875 0l0 11.984367l6.703125 0l0 1.609375l-8.5 0zm10.453842 0l0 -13.593742l4.6875 0q1.578125 0 2.421875 0.1875q1.15625 0.265625 1.984375 0.96875q1.078125 0.921875 1.609375 2.34375q0.53125 1.40625 0.53125 3.2187424q0 1.546875 -0.359375 2.75q-0.359375 1.1875 -0.921875 1.984375q-0.5625 0.78125 -1.234375 1.234375q-0.671875 0.4375 -1.625 0.671875q-0.953125 0.234375 -2.1875 0.234375l-4.90625 0zm1.796875 -1.609375l2.90625 0q1.34375 0 2.109375 -0.25q0.765625 -0.25 1.21875 -0.703125q0.640625 -0.640625 1.0 -1.71875q0.359375 -1.078125 0.359375 -2.625q0 -2.1249924 -0.703125 -3.2656174q-0.703125 -1.15625 -1.703125 -1.546875q-0.71875 -0.28125 -2.328125 -0.28125l-2.859375 0l0 10.390617zm17.046875 1.609375l0 -8.546867l-1.484375 0l0 -1.3125l1.484375 0l0 -1.046875q0 -0.984375 0.171875 -1.46875q0.234375 -0.65625 0.84375 -1.046875q0.609375 -0.40625 1.703125 -0.40625q0.703125 0 1.5625 0.15625l-0.25 1.46875q-0.515625 -0.09375 -0.984375 -0.09375q-0.765625 0 -1.078125 0.328125q-0.3125 0.3125 -0.3125 1.203125l0 0.90625l1.921875 0l0 1.3125l-1.921875 0l0 8.546867l-1.65625 0zm4.792679 -11.687492l0 -1.90625l1.671875 0l0 1.90625l-1.671875 0zm0 11.687492l0 -9.859367l1.671875 0l0 9.859367l-1.671875 0zm4.097946 0l0 -13.593742l1.671875 0l0 13.593742l-1.671875 0zm10.926071 -3.171875l1.71875 0.21875q-0.40625 1.5 -1.515625 2.34375q-1.09375 0.828125 -2.8125 0.828125q-2.15625 0 -3.421875 -1.328125q-1.265625 -1.328125 -1.265625 -3.734375q0 -2.484375 1.265625 -3.8593674q1.28125 -1.375 3.328125 -1.375q1.984375 0 3.234375 1.34375q1.25 1.3437424 1.25 3.7968674q0 0.140625 -0.015625 0.4375l-7.34375 0q0.09375 1.625 0.921875 2.484375q0.828125 0.859375 2.0625 0.859375q0.90625 0 1.546875 -0.46875q0.65625 -0.484375 1.046875 -1.546875zm-5.484375 -2.703125l5.5 0q-0.109375 -1.234375 -0.625 -1.859375q-0.796875 -0.9687424 -2.078125 -0.9687424q-1.140625 0 -1.9375 0.7812424q-0.78125 0.765625 -0.859375 2.046875zm8.438217 2.9375l1.65625 -0.265625q0.140625 1.0 0.765625 1.53125q0.640625 0.515625 1.78125 0.515625q1.15625 0 1.703125 -0.46875q0.5625 -0.46875 0.5625 -1.09375q0 -0.5625 -0.484375 -0.890625q-0.34375 -0.21875 -1.703125 -0.5625q-1.84375 -0.46875 -2.5625 -0.796875q-0.703125 -0.34375 -1.078125 -0.9375q-0.359375 -0.609375 -0.359375 -1.328125q0 -0.65625 0.296875 -1.2187424q0.3125 -0.5625 0.828125 -0.9375q0.390625 -0.28125 1.0625 -0.484375q0.671875 -0.203125 1.4375 -0.203125q1.171875 0 2.046875 0.34375q0.875 0.328125 1.28125 0.90625q0.421875 0.5624924 0.578125 1.5156174l-1.625 0.21875q-0.109375 -0.75 -0.65625 -1.171875q-0.53125 -0.43749237 -1.5 -0.43749237q-1.15625 0 -1.640625 0.390625q-0.484375 0.37499237 -0.484375 0.8749924q0 0.328125 0.203125 0.59375q0.203125 0.265625 0.640625 0.4375q0.25 0.09375 1.46875 0.4375q1.765625 0.46875 2.46875 0.765625q0.703125 0.296875 1.09375 0.875q0.40625 0.578125 0.40625 1.4375q0 0.828125 -0.484375 1.578125q-0.484375 0.734375 -1.40625 1.140625q-0.921875 0.390625 -2.078125 0.390625q-1.921875 0 -2.9375 -0.796875q-1.0 -0.796875 -1.28125 -2.359375z" fill-rule="nonzero"></path><path fill="#000000" fill-opacity="0.0" d="m319.22046 82.35958l158.55121 0l0 50.01574l-158.55121 0z" fill-rule="nonzero"></path><path fill="#000000" d="m329.9392 109.27958l0 -1.90625l1.90625 0l0 1.90625l-1.90625 0zm11.464569 -3.171875l1.71875 0.21875q-0.40625 1.5 -1.515625 2.34375q-1.09375 0.828125 -2.8125 0.828125q-2.15625 0 -3.421875 -1.328125q-1.265625 -1.328125 -1.265625 -3.734375q0 -2.484375 1.265625 -3.859375q1.28125 -1.375 3.328125 -1.375q1.984375 0 3.234375 1.34375q1.25 1.34375 1.25 3.796875q0 0.140625 -0.015625 0.4375l-7.34375 0q0.09375 1.625 0.921875 2.484375q0.828125 0.859375 2.0625 0.859375q0.90625 0 1.546875 -0.46875q0.65625 -0.484375 1.046875 -1.546875zm-5.484375 -2.703125l5.5 0q-0.109375 -1.234375 -0.625 -1.859375q-0.796875 -0.96875 -2.078125 -0.96875q-1.140625 0 -1.9375 0.78125q-0.78125 0.765625 -0.859375 2.046875zm14.000702 5.875l0 -3.25l-5.90625 0l0 -1.53125l6.21875 -8.8125l1.359375 0l0 8.8125l1.84375 0l0 1.53125l-1.84375 0l0 3.25l-1.671875 0zm0 -4.78125l0 -6.140625l-4.25 6.140625l4.25 0zm7.0319824 4.78125l-1.546875 0l0 -13.59375l1.65625 0l0 4.84375q1.0625 -1.328125 2.703125 -1.328125q0.90625 0 1.71875 0.375q0.8125 0.359375 1.328125 1.03125q0.53125 0.65625 0.828125 1.59375q0.296875 0.9375 0.296875 2.0q0 2.53125 -1.25 3.921875q-1.25 1.375 -3.0 1.375q-1.75 0 -2.734375 -1.453125l0 1.234375zm-0.015625 -5.0q0 1.765625 0.46875 2.5625q0.796875 1.28125 2.140625 1.28125q1.09375 0 1.890625 -0.9375q0.796875 -0.953125 0.796875 -2.84375q0 -1.921875 -0.765625 -2.84375q-0.765625 -0.921875 -1.84375 -0.921875q-1.09375 0 -1.890625 0.953125q-0.796875 0.953125 -0.796875 2.75zm8.203827 0.921875l0 -1.6875l5.125 0l0 1.6875l-5.125 0zm8.400177 4.078125l-1.546875 0l0 -13.59375l1.65625 0l0 4.84375q1.0625 -1.328125 2.703125 -1.328125q0.90625 0 1.71875 0.375q0.8125 0.359375 1.328125 1.03125q0.53125 0.65625 0.828125 1.59375q0.296875 0.9375 0.296875 2.0q0 2.53125 -1.25 3.921875q-1.25 1.375 -3.0 1.375q-1.75 0 -2.734375 -1.453125l0 1.234375zm-0.015625 -5.0q0 1.765625 0.46875 2.5625q0.796875 1.28125 2.140625 1.28125q1.09375 0 1.890625 -0.9375q0.796875 -0.953125 0.796875 -2.84375q0 -1.921875 -0.765625 -2.84375q-0.765625 -0.921875 -1.84375 -0.921875q-1.09375 0 -1.890625 0.953125q-0.796875 0.953125 -0.796875 2.75zm15.297607 5.0l0 -1.453125q-1.140625 1.671875 -3.125 1.671875q-0.859375 0 -1.625 -0.328125q-0.75 -0.34375 -1.125 -0.84375q-0.359375 -0.5 -0.515625 -1.234375q-0.09375 -0.5 -0.09375 -1.5625l0 -6.109375l1.671875 0l0 5.46875q0 1.3125 0.09375 1.765625q0.15625 0.65625 0.671875 1.03125q0.515625 0.375 1.265625 0.375q0.75 0 1.40625 -0.375q0.65625 -0.390625 0.921875 -1.046875q0.28125 -0.671875 0.28125 -1.9375l0 -5.28125l1.671875 0l0 9.859375l-1.5 0zm3.938202 -11.6875l0 -1.90625l1.671875 0l0 1.90625l-1.671875 0zm0 11.6875l0 -9.859375l1.671875 0l0 9.859375l-1.671875 0zm4.0979614 0l0 -13.59375l1.671875 0l0 13.59375l-1.671875 0zm10.566681 0l0 -1.25q-0.9375 1.46875 -2.75 1.46875q-1.171875 0 -2.171875 -0.640625q-0.984375 -0.65625 -1.53125 -1.8125q-0.53125 -1.171875 -0.53125 -2.6875q0 -1.46875 0.484375 -2.671875q0.5 -1.203125 1.46875 -1.84375q0.984375 -0.640625 2.203125 -0.640625q0.890625 0 1.578125 0.375q0.703125 0.375 1.140625 0.984375l0 -4.875l1.65625 0l0 13.59375l-1.546875 0zm-5.28125 -4.921875q0 1.890625 0.796875 2.828125q0.8125 0.9375 1.890625 0.9375q1.09375 0 1.859375 -0.890625q0.765625 -0.890625 0.765625 -2.734375q0 -2.015625 -0.78125 -2.953125q-0.78125 -0.953125 -1.921875 -0.953125q-1.109375 0 -1.859375 0.90625q-0.75 0.90625 -0.75 2.859375zm9.735107 4.921875l0 -1.90625l1.90625 0l0 1.90625l-1.90625 0zm4.7145386 -11.65625l0 -1.9375l1.65625 0l0 1.9375l-1.65625 0zm-2.125 15.484375l0.3125 -1.421875q0.5 0.125 0.796875 0.125q0.515625 0 0.765625 -0.34375q0.25 -0.328125 0.25 -1.6875l0 -10.359375l1.65625 0l0 10.390625q0 1.828125 -0.46875 2.546875q-0.59375 0.921875 -2.0 0.921875q-0.671875 0 -1.3125 -0.171875zm5.5979614 -6.765625l1.65625 -0.265625q0.140625 1.0 0.765625 1.53125q0.640625 0.515625 1.78125 0.515625q1.15625 0 1.703125 -0.46875q0.5625 -0.46875 0.5625 -1.09375q0 -0.5625 -0.484375 -0.890625q-0.34375 -0.21875 -1.703125 -0.5625q-1.84375 -0.46875 -2.5625 -0.796875q-0.703125 -0.34375 -1.078125 -0.9375q-0.359375 -0.609375 -0.359375 -1.328125q0 -0.65625 0.296875 -1.21875q0.3125 -0.5625 0.828125 -0.9375q0.390625 -0.28125 1.0625 -0.484375q0.671875 -0.203125 1.4375 -0.203125q1.171875 0 2.046875 0.34375q0.875 0.328125 1.28125 0.90625q0.421875 0.5625 0.578125 1.515625l-1.625 0.21875q-0.109375 -0.75 -0.65625 -1.171875q-0.53125 -0.4375 -1.5 -0.4375q-1.15625 0 -1.640625 0.390625q-0.484375 0.375 -0.484375 0.875q0 0.328125 0.203125 0.59375q0.203125 0.265625 0.640625 0.4375q0.25 0.09375 1.46875 0.4375q1.765625 0.46875 2.46875 0.765625q0.703125 0.296875 1.09375 0.875q0.40625 0.578125 0.40625 1.4375q0 0.828125 -0.484375 1.578125q-0.484375 0.734375 -1.40625 1.140625q-0.921875 0.390625 -2.078125 0.390625q-1.921875 0 -2.9375 -0.796875q-1.0 -0.796875 -1.28125 -2.359375zm9.375 -1.984375q0 -2.734375 1.53125 -4.0625q1.265625 -1.09375 3.09375 -1.09375q2.03125 0 3.3125 1.34375q1.296875 1.328125 1.296875 3.671875q0 1.90625 -0.578125 3.0q-0.5625 1.078125 -1.65625 1.6875q-1.078125 0.59375 -2.375 0.59375q-2.0625 0 -3.34375 -1.328125q-1.28125 -1.328125 -1.28125 -3.8125zm1.71875 0q0 1.890625 0.828125 2.828125q0.828125 0.9375 2.078125 0.9375q1.25 0 2.0625 -0.9375q0.828125 -0.953125 0.828125 -2.890625q0 -1.828125 -0.828125 -2.765625q-0.828125 -0.9375 -2.0625 -0.9375q-1.25 0 -2.078125 0.9375q-0.828125 0.9375 -0.828125 2.828125zm9.281952 4.921875l0 -9.859375l1.5 0l0 1.40625q1.09375 -1.625 3.140625 -1.625q0.890625 0 1.640625 0.328125q0.75 0.3125 1.109375 0.84375q0.375 0.515625 0.53125 1.21875q0.09375 0.46875 0.09375 1.625l0 6.0625l-1.671875 0l0 -6.0q0 -1.015625 -0.203125 -1.515625q-0.1875 -0.515625 -0.6875 -0.8125q-0.5 -0.296875 -1.171875 -0.296875q-1.0625 0 -1.84375 0.671875q-0.765625 0.671875 -0.765625 2.578125l0 5.375l-1.671875 0zm10.813232 0l0 -1.90625l1.90625 0l0 1.90625q0 1.046875 -0.375 1.6875q-0.375 0.65625 -1.171875 1.0l-0.46875 -0.71875q0.53125 -0.21875 0.78125 -0.671875q0.25 -0.453125 0.28125 -1.296875l-0.953125 0z" fill-rule="nonzero"></path><path fill="#000000" d="m328.84546 126.357704q0 -2.734375 1.53125 -4.0625q1.265625 -1.09375 3.09375 -1.09375q2.03125 0 3.3125 1.34375q1.296875 1.328125 1.296875 3.671875q0 1.9062424 -0.578125 2.9999924q-0.5625 1.078125 -1.65625 1.6875q-1.078125 0.59375 -2.375 0.59375q-2.0625 0 -3.34375 -1.328125q-1.28125 -1.328125 -1.28125 -3.8124924zm1.71875 0q0 1.8906174 0.828125 2.8281174q0.828125 0.9375 2.078125 0.9375q1.25 0 2.0625 -0.9375q0.828125 -0.953125 0.828125 -2.8906174q0 -1.828125 -0.828125 -2.765625q-0.828125 -0.9375 -2.0625 -0.9375q-1.25 0 -2.078125 0.9375q-0.828125 0.9375 -0.828125 2.828125zm9.281982 4.9218674l0 -9.859367l1.5 0l0 1.40625q1.09375 -1.625 3.140625 -1.625q0.890625 0 1.640625 0.328125q0.75 0.3125 1.109375 0.84375q0.375 0.515625 0.53125 1.21875q0.09375 0.46875 0.09375 1.625l0 6.0624924l-1.671875 0l0 -5.9999924q0 -1.015625 -0.203125 -1.515625q-0.1875 -0.515625 -0.6875 -0.8125q-0.5 -0.296875 -1.171875 -0.296875q-1.0625 0 -1.84375 0.671875q-0.765625 0.671875 -0.765625 2.578125l0 5.3749924l-1.671875 0zm17.125702 -3.171875l1.71875 0.21875q-0.40625 1.5 -1.515625 2.34375q-1.09375 0.828125 -2.8125 0.828125q-2.15625 0 -3.421875 -1.328125q-1.265625 -1.328125 -1.265625 -3.7343674q0 -2.484375 1.265625 -3.859375q1.28125 -1.375 3.328125 -1.375q1.984375 0 3.234375 1.34375q1.25 1.34375 1.25 3.796875q0 0.140625 -0.015625 0.4375l-7.34375 0q0.09375 1.6249924 0.921875 2.4843674q0.828125 0.859375 2.0625 0.859375q0.90625 0 1.546875 -0.46875q0.65625 -0.484375 1.046875 -1.546875zm-5.484375 -2.7031174l5.5 0q-0.109375 -1.234375 -0.625 -1.859375q-0.796875 -0.96875 -2.078125 -0.96875q-1.140625 0 -1.9375 0.78125q-0.78125 0.765625 -0.859375 2.046875zm14.293396 9.656242l0 -13.640617l1.53125 0l0 1.28125q0.53125 -0.75 1.203125 -1.125q0.6875 -0.375 1.640625 -0.375q1.265625 0 2.234375 0.65625q0.96875 0.640625 1.453125 1.828125q0.5 1.1875 0.5 2.59375q0 1.515625 -0.546875 2.7343674q-0.546875 1.203125 -1.578125 1.84375q-1.03125 0.640625 -2.171875 0.640625q-0.84375 0 -1.515625 -0.34375q-0.65625 -0.359375 -1.078125 -0.890625l0 4.796875l-1.671875 0zm1.515625 -8.656242q0 1.9062424 0.765625 2.8124924q0.78125 0.90625 1.875 0.90625q1.109375 0 1.890625 -0.9375q0.796875 -0.9375 0.796875 -2.9218674q0 -1.875 -0.78125 -2.8125q-0.765625 -0.9375 -1.84375 -0.9375q-1.0625 0 -1.890625 1.0q-0.8125 1.0 -0.8125 2.890625zm15.610107 1.7031174l1.71875 0.21875q-0.40625 1.5 -1.515625 2.34375q-1.09375 0.828125 -2.8125 0.828125q-2.15625 0 -3.421875 -1.328125q-1.265625 -1.328125 -1.265625 -3.7343674q0 -2.484375 1.265625 -3.859375q1.28125 -1.375 3.328125 -1.375q1.984375 0 3.234375 1.34375q1.25 1.34375 1.25 3.796875q0 0.140625 -0.015625 0.4375l-7.34375 0q0.09375 1.6249924 0.921875 2.4843674q0.828125 0.859375 2.0625 0.859375q0.90625 0 1.546875 -0.46875q0.65625 -0.484375 1.046875 -1.546875zm-5.484375 -2.7031174l5.5 0q-0.109375 -1.234375 -0.625 -1.859375q-0.796875 -0.96875 -2.078125 -0.96875q-1.140625 0 -1.9375 0.78125q-0.78125 0.765625 -0.859375 2.046875zm9.094452 5.8749924l0 -9.859367l1.5 0l0 1.5q0.578125 -1.046875 1.0625 -1.375q0.484375 -0.34375 1.078125 -0.34375q0.84375 0 1.71875 0.546875l-0.578125 1.546875q-0.609375 -0.359375 -1.234375 -0.359375q-0.546875 0 -0.984375 0.328125q-0.421875 0.328125 -0.609375 0.90625q-0.28125 0.890625 -0.28125 1.953125l0 5.1562424l-1.671875 0zm15.067871 -1.5l0.234375 1.484375q-0.703125 0.140625 -1.265625 0.140625q-0.90625 0 -1.40625 -0.28125q-0.5 -0.296875 -0.703125 -0.75q-0.203125 -0.46875 -0.203125 -1.984375l0 -5.6562424l-1.234375 0l0 -1.3125l1.234375 0l0 -2.4375l1.65625 -1.0l0 3.4375l1.6875 0l0 1.3125l-1.6875 0l0 5.7499924q0 0.71875 0.078125 0.921875q0.09375 0.203125 0.296875 0.328125q0.203125 0.125 0.578125 0.125q0.265625 0 0.734375 -0.078125zm7.9645386 0.28125q-0.9375 0.796875 -1.796875 1.125q-0.859375 0.3125 -1.84375 0.3125q-1.609375 0 -2.484375 -0.78125q-0.875 -0.796875 -0.875 -2.03125q0 -0.7343674 0.328125 -1.3281174q0.328125 -0.59375 0.859375 -0.953125q0.53125 -0.359375 1.203125 -0.546875q0.5 -0.140625 1.484375 -0.25q2.03125 -0.25 2.984375 -0.578125q0 -0.34375 0 -0.4375q0 -1.015625 -0.46875 -1.4375q-0.640625 -0.5625 -1.90625 -0.5625q-1.171875 0 -1.734375 0.40625q-0.5625 0.40625 -0.828125 1.46875l-1.640625 -0.234375q0.234375 -1.046875 0.734375 -1.6875q0.515625 -0.640625 1.46875 -0.984375q0.96875 -0.359375 2.25 -0.359375q1.265625 0 2.046875 0.296875q0.78125 0.296875 1.15625 0.75q0.375 0.453125 0.515625 1.140625q0.09375 0.421875 0.09375 1.53125l0 2.234375q0 2.3281174 0.09375 2.9531174q0.109375 0.609375 0.4375 1.171875l-1.75 0q-0.265625 -0.515625 -0.328125 -1.21875zm-0.140625 -3.7187424q-0.90625 0.359375 -2.734375 0.625q-1.03125 0.140625 -1.453125 0.328125q-0.421875 0.1875 -0.65625 0.546875q-0.234375 0.35936737 -0.234375 0.7968674q0 0.671875 0.5 1.125q0.515625 0.4375 1.484375 0.4375q0.96875 0 1.71875 -0.421875q0.75 -0.4375 1.109375 -1.15625q0.265625 -0.578125 0.265625 -1.6718674l0 -0.609375zm4.0632324 4.9374924l0 -9.859367l1.5 0l0 1.5q0.578125 -1.046875 1.0625 -1.375q0.484375 -0.34375 1.078125 -0.34375q0.84375 0 1.71875 0.546875l-0.578125 1.546875q-0.609375 -0.359375 -1.234375 -0.359375q-0.546875 0 -0.984375 0.328125q-0.421875 0.328125 -0.609375 0.90625q-0.28125 0.890625 -0.28125 1.953125l0 5.1562424l-1.671875 0zm5.931427 0.8125l1.609375 0.25q0.109375 0.75 0.578125 1.09375q0.609375 0.453125 1.6875 0.453125q1.171875 0 1.796875 -0.46875q0.625 -0.453125 0.859375 -1.28125q0.125 -0.515625 0.109375 -2.15625q-1.09375 1.296875 -2.71875 1.296875q-2.03125 0 -3.15625 -1.46875q-1.109375 -1.46875 -1.109375 -3.5156174q0 -1.40625 0.515625 -2.59375q0.515625 -1.203125 1.484375 -1.84375q0.96875 -0.65625 2.265625 -0.65625q1.75 0 2.875 1.40625l0 -1.1875l1.546875 0l0 8.515617q0 2.3125 -0.46875 3.265625q-0.46875 0.96875 -1.484375 1.515625q-1.015625 0.5625 -2.5 0.5625q-1.765625 0 -2.859375 -0.796875q-1.078125 -0.796875 -1.03125 -2.390625zm1.375 -5.9218674q0 1.9531174 0.765625 2.8437424q0.78125 0.890625 1.9375 0.890625q1.140625 0 1.921875 -0.890625q0.78125 -0.890625 0.78125 -2.7812424q0 -1.8125 -0.8125 -2.71875q-0.796875 -0.921875 -1.921875 -0.921875q-1.109375 0 -1.890625 0.90625q-0.78125 0.890625 -0.78125 2.671875zm16.047577 1.9374924l1.71875 0.21875q-0.40625 1.5 -1.515625 2.34375q-1.09375 0.828125 -2.8125 0.828125q-2.15625 0 -3.421875 -1.328125q-1.265625 -1.328125 -1.265625 -3.7343674q0 -2.484375 1.265625 -3.859375q1.28125 -1.375 3.328125 -1.375q1.984375 0 3.234375 1.34375q1.25 1.34375 1.25 3.796875q0 0.140625 -0.015625 0.4375l-7.34375 0q0.09375 1.6249924 0.921875 2.4843674q0.828125 0.859375 2.0625 0.859375q0.90625 0 1.546875 -0.46875q0.65625 -0.484375 1.046875 -1.546875zm-5.484375 -2.7031174l5.5 0q-0.109375 -1.234375 -0.625 -1.859375q-0.796875 -0.96875 -2.078125 -0.96875q-1.140625 0 -1.9375 0.78125q-0.78125 0.765625 -0.859375 2.046875zm12.766357 4.3749924l0.234375 1.484375q-0.703125 0.140625 -1.265625 0.140625q-0.90625 0 -1.40625 -0.28125q-0.5 -0.296875 -0.703125 -0.75q-0.203125 -0.46875 -0.203125 -1.984375l0 -5.6562424l-1.234375 0l0 -1.3125l1.234375 0l0 -2.4375l1.65625 -1.0l0 3.4375l1.6875 0l0 1.3125l-1.6875 0l0 5.7499924q0 0.71875 0.078125 0.921875q0.09375 0.203125 0.296875 0.328125q0.203125 0.125 0.578125 0.125q0.265625 0 0.734375 -0.078125z" fill-rule="nonzero"></path><path fill="#cfe2f3" d="m485.7848 66.34121l422.48816 0l0 274.3307l-422.48816 0z" fill-rule="nonzero"></path><path stroke="#000000" stroke-width="1.0" stroke-linejoin="round" stroke-linecap="butt" d="m485.7848 66.34121l422.48816 0l0 274.3307l-422.48816 0z" fill-rule="nonzero"></path><path fill="#000000" fill-opacity="0.0" d="m545.853 82.35958l297.3543 0l0 30.047241l-297.3543 0z" fill-rule="nonzero"></path><path fill="#000000" d="m665.9597 109.27958l0 -13.59375l9.84375 0l0 1.59375l-8.046875 0l0 4.171875l7.53125 0l0 1.59375l-7.53125 0l0 4.625l8.359375 0l0 1.609375l-10.15625 0zm18.631104 -3.609375l1.640625 0.21875q-0.265625 1.6875 -1.375 2.65625q-1.109375 0.953125 -2.734375 0.953125q-2.015625 0 -3.25 -1.3125q-1.21875 -1.328125 -1.21875 -3.796875q0 -1.59375 0.515625 -2.78125q0.53125 -1.203125 1.609375 -1.796875q1.09375 -0.609375 2.359375 -0.609375q1.609375 0 2.625 0.8125q1.015625 0.8125 1.3125 2.3125l-1.625 0.25q-0.234375 -1.0 -0.828125 -1.5q-0.59375 -0.5 -1.421875 -0.5q-1.265625 0 -2.0625 0.90625q-0.78125 0.90625 -0.78125 2.859375q0 1.984375 0.765625 2.890625q0.765625 0.890625 1.984375 0.890625q0.984375 0 1.640625 -0.59375q0.65625 -0.609375 0.84375 -1.859375zm2.859375 3.609375l0 -13.59375l1.671875 0l0 13.59375l-1.671875 0zm4.1917114 -11.6875l0 -1.90625l1.671875 0l0 1.90625l-1.671875 0zm0 11.6875l0 -9.859375l1.671875 0l0 9.859375l-1.671875 0zm4.1291504 3.78125l0 -13.640625l1.53125 0l0 1.28125q0.53125 -0.75 1.203125 -1.125q0.6875 -0.375 1.640625 -0.375q1.265625 0 2.234375 0.65625q0.96875 0.640625 1.453125 1.828125q0.5 1.1875 0.5 2.59375q0 1.515625 -0.546875 2.734375q-0.546875 1.203125 -1.578125 1.84375q-1.03125 0.640625 -2.171875 0.640625q-0.84375 0 -1.515625 -0.34375q-0.65625 -0.359375 -1.078125 -0.890625l0 4.796875l-1.671875 0zm1.515625 -8.65625q0 1.90625 0.765625 2.8125q0.78125 0.90625 1.875 0.90625q1.109375 0 1.890625 -0.9375q0.796875 -0.9375 0.796875 -2.921875q0 -1.875 -0.78125 -2.8125q-0.765625 -0.9375 -1.84375 -0.9375q-1.0625 0 -1.890625 1.0q-0.8125 1.0 -0.8125 2.890625zm8.188232 1.9375l1.65625 -0.265625q0.140625 1.0 0.765625 1.53125q0.640625 0.515625 1.78125 0.515625q1.15625 0 1.703125 -0.46875q0.5625 -0.46875 0.5625 -1.09375q0 -0.5625 -0.484375 -0.890625q-0.34375 -0.21875 -1.703125 -0.5625q-1.84375 -0.46875 -2.5625 -0.796875q-0.703125 -0.34375 -1.078125 -0.9375q-0.359375 -0.609375 -0.359375 -1.328125q0 -0.65625 0.296875 -1.21875q0.3125 -0.5625 0.828125 -0.9375q0.390625 -0.28125 1.0625 -0.484375q0.671875 -0.203125 1.4375 -0.203125q1.171875 0 2.046875 0.34375q0.875 0.328125 1.28125 0.90625q0.421875 0.5625 0.578125 1.515625l-1.625 0.21875q-0.109375 -0.75 -0.65625 -1.171875q-0.53125 -0.4375 -1.5 -0.4375q-1.15625 0 -1.640625 0.390625q-0.484375 0.375 -0.484375 0.875q0 0.328125 0.203125 0.59375q0.203125 0.265625 0.640625 0.4375q0.25 0.09375 1.46875 0.4375q1.765625 0.46875 2.46875 0.765625q0.703125 0.296875 1.09375 0.875q0.40625 0.578125 0.40625 1.4375q0 0.828125 -0.484375 1.578125q-0.484375 0.734375 -1.40625 1.140625q-0.921875 0.390625 -2.078125 0.390625q-1.921875 0 -2.9375 -0.796875q-1.0 -0.796875 -1.28125 -2.359375zm16.75 -0.234375l1.71875 0.21875q-0.40625 1.5 -1.515625 2.34375q-1.09375 0.828125 -2.8125 0.828125q-2.15625 0 -3.421875 -1.328125q-1.265625 -1.328125 -1.265625 -3.734375q0 -2.484375 1.265625 -3.859375q1.28125 -1.375 3.328125 -1.375q1.984375 0 3.234375 1.34375q1.25 1.34375 1.25 3.796875q0 0.140625 -0.015625 0.4375l-7.34375 0q0.09375 1.625 0.921875 2.484375q0.828125 0.859375 2.0625 0.859375q0.90625 0 1.546875 -0.46875q0.65625 -0.484375 1.046875 -1.546875zm-5.484375 -2.703125l5.5 0q-0.109375 -1.234375 -0.625 -1.859375q-0.796875 -0.96875 -2.078125 -0.96875q-1.140625 0 -1.9375 0.78125q-0.78125 0.765625 -0.859375 2.046875z" fill-rule="nonzero"></path><path fill="#cfe2f3" d="m504.8058 154.44357l158.55115 0l0 120.12598l-158.55115 0z" fill-rule="nonzero"></path><path stroke="#000000" stroke-width="1.0" stroke-linejoin="round" stroke-linecap="butt" d="m504.8058 154.44357l158.55115 0l0 120.12598l-158.55115 0z" fill-rule="nonzero"></path><path fill="#000000" d="m521.8058 218.25468l1.71875 0.21875q-0.40625 1.5 -1.515625 2.34375q-1.09375 0.828125 -2.8125 0.828125q-2.15625 0 -3.421875 -1.328125q-1.265625 -1.328125 -1.265625 -3.734375q0 -2.484375 1.265625 -3.859375q1.28125 -1.375 3.328125 -1.375q1.984375 0 3.234375 1.34375q1.25 1.34375 1.25 3.796875q0 0.140625 -0.015625 0.4375l-7.34375 0q0.09375 1.625 0.921875 2.484375q0.828125 0.859375 2.0625 0.859375q0.90625 0 1.546875 -0.46875q0.65625 -0.484375 1.046875 -1.546875zm-5.484375 -2.703125l5.5 0q-0.109375 -1.234375 -0.625 -1.859375q-0.796875 -0.96875 -2.078125 -0.96875q-1.140625 0 -1.9375 0.78125q-0.78125 0.765625 -0.859375 2.046875zm14.000732 5.875l0 -3.25l-5.90625 0l0 -1.53125l6.21875 -8.8125l1.359375 0l0 8.8125l1.84375 0l0 1.53125l-1.84375 0l0 3.25l-1.671875 0zm0 -4.78125l0 -6.140625l-4.25 6.140625l4.25 0zm7.0319214 4.78125l-1.546875 0l0 -13.59375l1.65625 0l0 4.84375q1.0625 -1.328125 2.703125 -1.328125q0.90625 0 1.71875 0.375q0.8125 0.359375 1.328125 1.03125q0.53125 0.65625 0.828125 1.59375q0.296875 0.9375 0.296875 2.0q0 2.53125 -1.25 3.921875q-1.25 1.375 -3.0 1.375q-1.75 0 -2.734375 -1.453125l0 1.234375zm-0.015625 -5.0q0 1.765625 0.46875 2.5625q0.796875 1.28125 2.140625 1.28125q1.09375 0 1.890625 -0.9375q0.796875 -0.953125 0.796875 -2.84375q0 -1.921875 -0.765625 -2.84375q-0.765625 -0.921875 -1.84375 -0.921875q-1.09375 0 -1.890625 0.953125q-0.796875 0.953125 -0.796875 2.75zm14.027771 8.78125l0 -13.640625l1.53125 0l0 1.28125q0.53125 -0.75 1.203125 -1.125q0.6875 -0.375 1.640625 -0.375q1.265625 0 2.234375 0.65625q0.96875 0.640625 1.453125 1.828125q0.5 1.1875 0.5 2.59375q0 1.515625 -0.546875 2.734375q-0.546875 1.203125 -1.578125 1.84375q-1.03125 0.640625 -2.171875 0.640625q-0.84375 0 -1.515625 -0.34375q-0.65625 -0.359375 -1.078125 -0.890625l0 4.796875l-1.671875 0zm1.515625 -8.65625q0 1.90625 0.765625 2.8125q0.78125 0.90625 1.875 0.90625q1.109375 0 1.890625 -0.9375q0.796875 -0.9375 0.796875 -2.921875q0 -1.875 -0.78125 -2.8125q-0.765625 -0.9375 -1.84375 -0.9375q-1.0625 0 -1.890625 1.0q-0.8125 1.0 -0.8125 2.890625zm8.828857 4.875l0 -13.59375l1.671875 0l0 13.59375l-1.671875 0zm10.629211 0l0 -1.453125q-1.140625 1.671875 -3.125 1.671875q-0.859375 0 -1.625 -0.328125q-0.75 -0.34375 -1.125 -0.84375q-0.359375 -0.5 -0.515625 -1.234375q-0.09375 -0.5 -0.09375 -1.5625l0 -6.109375l1.671875 0l0 5.46875q0 1.3125 0.09375 1.765625q0.15625 0.65625 0.671875 1.03125q0.515625 0.375 1.265625 0.375q0.75 0 1.40625 -0.375q0.65625 -0.390625 0.921875 -1.046875q0.28125 -0.671875 0.28125 -1.9375l0 -5.28125l1.671875 0l0 9.859375l-1.5 0zm3.6257324 0.8125l1.609375 0.25q0.109375 0.75 0.578125 1.09375q0.609375 0.453125 1.6875 0.453125q1.171875 0 1.796875 -0.46875q0.625 -0.453125 0.859375 -1.28125q0.125 -0.515625 0.109375 -2.15625q-1.09375 1.296875 -2.71875 1.296875q-2.03125 0 -3.15625 -1.46875q-1.109375 -1.46875 -1.109375 -3.515625q0 -1.40625 0.515625 -2.59375q0.515625 -1.203125 1.484375 -1.84375q0.96875 -0.65625 2.265625 -0.65625q1.75 0 2.875 1.40625l0 -1.1875l1.546875 0l0 8.515625q0 2.3125 -0.46875 3.265625q-0.46875 0.96875 -1.484375 1.515625q-1.015625 0.5625 -2.5 0.5625q-1.765625 0 -2.859375 -0.796875q-1.078125 -0.796875 -1.03125 -2.390625zm1.375 -5.921875q0 1.953125 0.765625 2.84375q0.78125 0.890625 1.9375 0.890625q1.140625 0 1.921875 -0.890625q0.78125 -0.890625 0.78125 -2.78125q0 -1.8125 -0.8125 -2.71875q-0.796875 -0.921875 -1.921875 -0.921875q-1.109375 0 -1.890625 0.90625q-0.78125 0.890625 -0.78125 2.671875zm9.313171 -6.578125l0 -1.90625l1.671875 0l0 1.90625l-1.671875 0zm0 11.6875l0 -9.859375l1.671875 0l0 9.859375l-1.671875 0zm4.1292114 0l0 -9.859375l1.5 0l0 1.40625q1.09375 -1.625 3.140625 -1.625q0.890625 0 1.640625 0.328125q0.75 0.3125 1.109375 0.84375q0.375 0.515625 0.53125 1.21875q0.09375 0.46875 0.09375 1.625l0 6.0625l-1.671875 0l0 -6.0q0 -1.015625 -0.203125 -1.515625q-0.1875 -0.515625 -0.6875 -0.8125q-0.5 -0.296875 -1.171875 -0.296875q-1.0625 0 -1.84375 0.671875q-0.765625 0.671875 -0.765625 2.578125l0 5.375l-1.671875 0z" fill-rule="nonzero"></path><path fill="#cfe2f3" d="m740.06036 154.40683l148.18896 0l0 118.11023l-148.18896 0z" fill-rule="nonzero"></path><path stroke="#000000" stroke-width="1.0" stroke-linejoin="round" stroke-linecap="butt" d="m740.06036 154.40683l148.18896 0l0 118.11023l-148.18896 0z" fill-rule="nonzero"></path><path fill="#000000" d="m764.8466 220.38194l0 -13.59375l9.84375 0l0 1.59375l-8.046875 0l0 4.171875l7.53125 0l0 1.59375l-7.53125 0l0 4.625l8.359375 0l0 1.609375l-10.15625 0zm18.631104 -3.609375l1.640625 0.21875q-0.265625 1.6875 -1.375 2.65625q-1.109375 0.953125 -2.734375 0.953125q-2.015625 0 -3.25 -1.3125q-1.21875 -1.328125 -1.21875 -3.796875q0 -1.59375 0.515625 -2.78125q0.53125 -1.203125 1.609375 -1.796875q1.09375 -0.609375 2.359375 -0.609375q1.609375 0 2.625 0.8125q1.015625 0.8125 1.3125 2.3125l-1.625 0.25q-0.234375 -1.0 -0.828125 -1.5q-0.59375 -0.5 -1.421875 -0.5q-1.265625 0 -2.0625 0.90625q-0.78125 0.90625 -0.78125 2.859375q0 1.984375 0.765625 2.890625q0.765625 0.890625 1.984375 0.890625q0.984375 0 1.640625 -0.59375q0.65625 -0.609375 0.84375 -1.859375zm2.859375 3.609375l0 -13.59375l1.671875 0l0 13.59375l-1.671875 0zm4.1917114 -11.6875l0 -1.90625l1.671875 0l0 1.90625l-1.671875 0zm0 11.6875l0 -9.859375l1.671875 0l0 9.859375l-1.671875 0zm4.1291504 3.78125l0 -13.640625l1.53125 0l0 1.28125q0.53125 -0.75 1.203125 -1.125q0.6875 -0.375 1.640625 -0.375q1.265625 0 2.234375 0.65625q0.96875 0.640625 1.453125 1.828125q0.5 1.1875 0.5 2.59375q0 1.515625 -0.546875 2.734375q-0.546875 1.203125 -1.578125 1.84375q-1.03125 0.640625 -2.171875 0.640625q-0.84375 0 -1.515625 -0.34375q-0.65625 -0.359375 -1.078125 -0.890625l0 4.796875l-1.671875 0zm1.515625 -8.65625q0 1.90625 0.765625 2.8125q0.78125 0.90625 1.875 0.90625q1.109375 0 1.890625 -0.9375q0.796875 -0.9375 0.796875 -2.921875q0 -1.875 -0.78125 -2.8125q-0.765625 -0.9375 -1.84375 -0.9375q-1.0625 0 -1.890625 1.0q-0.8125 1.0 -0.8125 2.890625zm8.188232 1.9375l1.65625 -0.265625q0.140625 1.0 0.765625 1.53125q0.640625 0.515625 1.78125 0.515625q1.15625 0 1.703125 -0.46875q0.5625 -0.46875 0.5625 -1.09375q0 -0.5625 -0.484375 -0.890625q-0.34375 -0.21875 -1.703125 -0.5625q-1.84375 -0.46875 -2.5625 -0.796875q-0.703125 -0.34375 -1.078125 -0.9375q-0.359375 -0.609375 -0.359375 -1.328125q0 -0.65625 0.296875 -1.21875q0.3125 -0.5625 0.828125 -0.9375q0.390625 -0.28125 1.0625 -0.484375q0.671875 -0.203125 1.4375 -0.203125q1.171875 0 2.046875 0.34375q0.875 0.328125 1.28125 0.90625q0.421875 0.5625 0.578125 1.515625l-1.625 0.21875q-0.109375 -0.75 -0.65625 -1.171875q-0.53125 -0.4375 -1.5 -0.4375q-1.15625 0 -1.640625 0.390625q-0.484375 0.375 -0.484375 0.875q0 0.328125 0.203125 0.59375q0.203125 0.265625 0.640625 0.4375q0.25 0.09375 1.46875 0.4375q1.765625 0.46875 2.46875 0.765625q0.703125 0.296875 1.09375 0.875q0.40625 0.578125 0.40625 1.4375q0 0.828125 -0.484375 1.578125q-0.484375 0.734375 -1.40625 1.140625q-0.921875 0.390625 -2.078125 0.390625q-1.921875 0 -2.9375 -0.796875q-1.0 -0.796875 -1.28125 -2.359375zm16.75 -0.234375l1.71875 0.21875q-0.40625 1.5 -1.515625 2.34375q-1.09375 0.828125 -2.8125 0.828125q-2.15625 0 -3.421875 -1.328125q-1.265625 -1.328125 -1.265625 -3.734375q0 -2.484375 1.265625 -3.859375q1.28125 -1.375 3.328125 -1.375q1.984375 0 3.234375 1.34375q1.25 1.34375 1.25 3.796875q0 0.140625 -0.015625 0.4375l-7.34375 0q0.09375 1.625 0.921875 2.484375q0.828125 0.859375 2.0625 0.859375q0.90625 0 1.546875 -0.46875q0.65625 -0.484375 1.046875 -1.546875zm-5.484375 -2.703125l5.5 0q-0.109375 -1.234375 -0.625 -1.859375q-0.796875 -0.96875 -2.078125 -0.96875q-1.140625 0 -1.9375 0.78125q-0.78125 0.765625 -0.859375 2.046875zm20.730896 2.265625l1.640625 0.21875q-0.265625 1.6875 -1.375 2.65625q-1.109375 0.953125 -2.734375 0.953125q-2.015625 0 -3.25 -1.3125q-1.21875 -1.328125 -1.21875 -3.796875q0 -1.59375 0.515625 -2.78125q0.53125 -1.203125 1.609375 -1.796875q1.09375 -0.609375 2.359375 -0.609375q1.609375 0 2.625 0.8125q1.015625 0.8125 1.3125 2.3125l-1.625 0.25q-0.234375 -1.0 -0.828125 -1.5q-0.59375 -0.5 -1.421875 -0.5q-1.265625 0 -2.0625 0.90625q-0.78125 0.90625 -0.78125 2.859375q0 1.984375 0.765625 2.890625q0.765625 0.890625 1.984375 0.890625q0.984375 0 1.640625 -0.59375q0.65625 -0.609375 0.84375 -1.859375zm2.265625 -1.3125q0 -2.734375 1.53125 -4.0625q1.265625 -1.09375 3.09375 -1.09375q2.03125 0 3.3125 1.34375q1.296875 1.328125 1.296875 3.671875q0 1.90625 -0.578125 3.0q-0.5625 1.078125 -1.65625 1.6875q-1.078125 0.59375 -2.375 0.59375q-2.0625 0 -3.34375 -1.328125q-1.28125 -1.328125 -1.28125 -3.8125zm1.71875 0q0 1.890625 0.828125 2.828125q0.828125 0.9375 2.078125 0.9375q1.25 0 2.0625 -0.9375q0.828125 -0.953125 0.828125 -2.890625q0 -1.828125 -0.828125 -2.765625q-0.828125 -0.9375 -2.0625 -0.9375q-1.25 0 -2.078125 0.9375q-0.828125 0.9375 -0.828125 2.828125zm9.266357 4.921875l0 -9.859375l1.5 0l0 1.5q0.578125 -1.046875 1.0625 -1.375q0.484375 -0.34375 1.078125 -0.34375q0.84375 0 1.71875 0.546875l-0.578125 1.546875q-0.609375 -0.359375 -1.234375 -0.359375q-0.546875 0 -0.984375 0.328125q-0.421875 0.328125 -0.609375 0.90625q-0.28125 0.890625 -0.28125 1.953125l0 5.15625l-1.671875 0zm12.9782715 -3.171875l1.71875 0.21875q-0.40625 1.5 -1.515625 2.34375q-1.09375 0.828125 -2.8125 0.828125q-2.15625 0 -3.421875 -1.328125q-1.265625 -1.328125 -1.265625 -3.734375q0 -2.484375 1.265625 -3.859375q1.28125 -1.375 3.328125 -1.375q1.984375 0 3.234375 1.34375q1.25 1.34375 1.25 3.796875q0 0.140625 -0.015625 0.4375l-7.34375 0q0.09375 1.625 0.921875 2.484375q0.828125 0.859375 2.0625 0.859375q0.90625 0 1.546875 -0.46875q0.65625 -0.484375 1.046875 -1.546875zm-5.484375 -2.703125l5.5 0q-0.109375 -1.234375 -0.625 -1.859375q-0.796875 -0.96875 -2.078125 -0.96875q-1.140625 0 -1.9375 0.78125q-0.78125 0.765625 -0.859375 2.046875z" fill-rule="nonzero"></path><path fill="#cfe2f3" d="m665.0105 154.40683l40.53546 0l0 120.12598l-40.53546 0z" fill-rule="nonzero"></path><path stroke="#000000" stroke-width="1.0" stroke-linejoin="round" stroke-linecap="butt" d="m665.0105 154.40683l40.53546 0l0 120.12598l-40.53546 0z" fill-rule="nonzero"></path><path fill="#000000" fill-opacity="0.0" d="m657.0105 153.37007l0 123.11812l67.27557 0l0 -123.11812z" fill-rule="nonzero"></path><path fill="#000000" d="m673.96423 255.05804l-2.171875 0.390625l-1.875 0l0 -1.609375l1.875 0l2.171875 0.359375l0 0.859375zm0 -2.59375l-2.171875 0.390625l-1.875 0l0 -1.609375l1.875 0l2.171875 0.375l0 0.84375zm3.390625 -11.3671875l0.375 -1.515625q1.875 0.46875 2.859375 1.71875q0.984375 1.234375 0.984375 3.015625q0 1.859375 -0.75 3.015625q-0.765625 1.15625 -2.1875 1.765625q-1.4375 0.609375 -3.078125 0.609375q-1.796875 0 -3.125 -0.6875q-1.328125 -0.6875 -2.015625 -1.9375q-0.703125 -1.265625 -0.703125 -2.78125q0 -1.71875 0.875 -2.890625q0.875 -1.171875 2.46875 -1.640625l0.34375 1.5q-1.25 0.390625 -1.8125 1.15625q-0.578125 0.75 -0.578125 1.90625q0 1.3125 0.640625 2.203125q0.625 0.890625 1.703125 1.25q1.0625 0.359375 2.1875 0.359375q1.46875 0 2.5625 -0.421875q1.078125 -0.4375 1.625 -1.328125q0.53125 -0.90625 0.53125 -1.953125q0 -1.265625 -0.734375 -2.140625q-0.734375 -0.890625 -2.171875 -1.203125zm4.015625 -3.1796875l-11.453125 0l0 -1.40625l11.453125 0l0 1.40625zm-1.03125 -8.9921875q0.671875 0.78125 0.953125 1.5q0.265625 0.71875 0.265625 1.546875q0 1.375 -0.671875 2.109375q-0.671875 0.734375 -1.703125 0.734375q-0.609375 0 -1.109375 -0.28125q-0.515625 -0.28125 -0.8125 -0.71875q-0.3125 -0.453125 -0.46875 -1.015625q-0.109375 -0.421875 -0.203125 -1.25q-0.203125 -1.703125 -0.484375 -2.515625q-0.296875 0 -0.375 0q-0.859375 0 -1.203125 0.390625q-0.484375 0.546875 -0.484375 1.609375q0 0.984375 0.359375 1.46875q0.34375 0.46875 1.21875 0.6875l-0.1875 1.375q-0.875 -0.1875 -1.421875 -0.609375q-0.546875 -0.4375 -0.828125 -1.25q-0.296875 -0.8125 -0.296875 -1.875q0 -1.0625 0.25 -1.71875q0.25 -0.671875 0.625 -0.984375q0.375 -0.3125 0.953125 -0.4375q0.359375 -0.078125 1.296875 -0.078125l1.875 0q1.96875 0 2.484375 -0.078125q0.515625 -0.09375 1.0 -0.359375l0 1.46875q-0.4375 0.21875 -1.03125 0.28125zm-3.140625 0.109375q0.3125 0.765625 0.53125 2.296875q0.125 0.875 0.28125 1.234375q0.15625 0.359375 0.46875 0.5625q0.296875 0.1875 0.65625 0.1875q0.5625 0 0.9375 -0.421875q0.375 -0.4375 0.375 -1.25q0 -0.8125 -0.34375 -1.4375q-0.359375 -0.640625 -0.984375 -0.9375q-0.46875 -0.234375 -1.40625 -0.234375l-0.515625 0zm1.6875 -3.0390625l-0.21875 -1.390625q0.84375 -0.109375 1.296875 -0.640625q0.4375 -0.546875 0.4375 -1.5q0 -0.96875 -0.390625 -1.4375q-0.40625 -0.46875 -0.9375 -0.46875q-0.46875 0 -0.75 0.40625q-0.1875 0.296875 -0.46875 1.4375q-0.390625 1.546875 -0.671875 2.15625q-0.296875 0.59375 -0.796875 0.90625q-0.5 0.296875 -1.109375 0.296875q-0.5625 0 -1.03125 -0.25q-0.46875 -0.25 -0.78125 -0.6875q-0.25 -0.328125 -0.40625 -0.890625q-0.171875 -0.578125 -0.171875 -1.21875q0 -0.984375 0.28125 -1.71875q0.28125 -0.734375 0.765625 -1.078125q0.46875 -0.359375 1.28125 -0.5l0.1875 1.375q-0.640625 0.09375 -1.0 0.546875q-0.359375 0.453125 -0.359375 1.265625q0 0.96875 0.328125 1.390625q0.3125 0.40625 0.734375 0.40625q0.28125 0 0.5 -0.171875q0.21875 -0.171875 0.375 -0.53125q0.078125 -0.21875 0.359375 -1.25q0.390625 -1.484375 0.65625 -2.078125q0.25 -0.59375 0.734375 -0.921875q0.484375 -0.34375 1.203125 -0.34375q0.703125 0 1.328125 0.421875q0.609375 0.40625 0.953125 1.1875q0.34375 0.765625 0.34375 1.734375q0 1.625 -0.671875 2.46875q-0.671875 0.84375 -2.0 1.078125zm0 -8.0l-0.21875 -1.390625q0.84375 -0.109375 1.296875 -0.640625q0.4375 -0.546875 0.4375 -1.5q0 -0.96875 -0.390625 -1.4375q-0.40625 -0.46875 -0.9375 -0.46875q-0.46875 0 -0.75 0.40625q-0.1875 0.296875 -0.46875 1.4375q-0.390625 1.546875 -0.671875 2.15625q-0.296875 0.59375 -0.796875 0.90625q-0.5 0.296875 -1.109375 0.296875q-0.5625 0 -1.03125 -0.25q-0.46875 -0.25 -0.78125 -0.6875q-0.25 -0.328125 -0.40625 -0.890625q-0.171875 -0.578125 -0.171875 -1.21875q0 -0.984375 0.28125 -1.71875q0.28125 -0.734375 0.765625 -1.078125q0.46875 -0.359375 1.28125 -0.5l0.1875 1.375q-0.640625 0.09375 -1.0 0.546875q-0.359375 0.453125 -0.359375 1.265625q0 0.96875 0.328125 1.390625q0.3125 0.40625 0.734375 0.40625q0.28125 0 0.5 -0.171875q0.21875 -0.171875 0.375 -0.53125q0.078125 -0.21875 0.359375 -1.25q0.390625 -1.484375 0.65625 -2.078125q0.25 -0.59375 0.734375 -0.921875q0.484375 -0.34375 1.203125 -0.34375q0.703125 0 1.328125 0.421875q0.609375 0.40625 0.953125 1.1875q0.34375 0.765625 0.34375 1.734375q0 1.625 -0.671875 2.46875q-0.671875 0.84375 -2.0 1.078125zm5.671875 -8.5625l-11.484375 0l0 -1.28125l1.078125 0q-0.640625 -0.453125 -0.953125 -1.015625q-0.3125 -0.578125 -0.3125 -1.390625q0 -1.0625 0.546875 -1.875q0.546875 -0.8125 1.546875 -1.21875q0.984375 -0.421875 2.171875 -0.421875q1.28125 0 2.296875 0.46875q1.015625 0.453125 1.5625 1.328125q0.546875 0.859375 0.546875 1.828125q0 0.703125 -0.296875 1.265625q-0.296875 0.546875 -0.75 0.90625l4.046875 0l0 1.40625zm-7.296875 -1.265625q1.609375 0 2.375 -0.640625q0.765625 -0.65625 0.765625 -1.578125q0 -0.9375 -0.796875 -1.609375q-0.796875 -0.671875 -2.453125 -0.671875q-1.59375 0 -2.375 0.65625q-0.796875 0.65625 -0.796875 1.5625q0 0.890625 0.84375 1.59375q0.84375 0.6875 2.4375 0.6875zm3.078125 -13.0390625q0.671875 0.78125 0.953125 1.5q0.265625 0.71875 0.265625 1.546875q0 1.375 -0.671875 2.109375q-0.671875 0.734375 -1.703125 0.734375q-0.609375 0 -1.109375 -0.28125q-0.515625 -0.28125 -0.8125 -0.71875q-0.3125 -0.453125 -0.46875 -1.015625q-0.109375 -0.421875 -0.203125 -1.25q-0.203125 -1.703125 -0.484375 -2.515625q-0.296875 0 -0.375 0q-0.859375 0 -1.203125 0.390625q-0.484375 0.546875 -0.484375 1.609375q0 0.984375 0.359375 1.46875q0.34375 0.46875 1.21875 0.6875l-0.1875 1.375q-0.875 -0.1875 -1.421875 -0.609375q-0.546875 -0.4375 -0.828125 -1.25q-0.296875 -0.8125 -0.296875 -1.875q0 -1.0625 0.25 -1.71875q0.25 -0.671875 0.625 -0.984375q0.375 -0.3125 0.953125 -0.4375q0.359375 -0.078125 1.296875 -0.078125l1.875 0q1.96875 0 2.484375 -0.078125q0.515625 -0.09375 1.0 -0.359375l0 1.46875q-0.4375 0.21875 -1.03125 0.28125zm-3.140625 0.109375q0.3125 0.765625 0.53125 2.296875q0.125 0.875 0.28125 1.234375q0.15625 0.359375 0.46875 0.5625q0.296875 0.1875 0.65625 0.1875q0.5625 0 0.9375 -0.421875q0.375 -0.4375 0.375 -1.25q0 -0.8125 -0.34375 -1.4375q-0.359375 -0.640625 -0.984375 -0.9375q-0.46875 -0.234375 -1.40625 -0.234375l-0.515625 0zm2.90625 -6.6640625l1.25 -0.203125q0.125 0.59375 0.125 1.0625q0 0.765625 -0.234375 1.1875q-0.25 0.421875 -0.640625 0.59375q-0.40625 0.171875 -1.671875 0.171875l-4.765625 0l0 1.03125l-1.09375 0l0 -1.03125l-2.0625 0l-0.84375 -1.40625l2.90625 0l0 -1.40625l1.09375 0l0 1.40625l4.84375 0q0.609375 0 0.78125 -0.0625q0.171875 -0.078125 0.28125 -0.25q0.09375 -0.171875 0.09375 -0.484375q0 -0.234375 -0.0625 -0.609375zm1.265625 -1.3828125l-11.453125 0l0 -1.40625l4.109375 0q-1.140625 -0.984375 -1.140625 -2.484375q0 -0.921875 0.359375 -1.59375q0.359375 -0.6875 1.0 -0.96875q0.640625 -0.296875 1.859375 -0.296875l5.265625 0l0 1.40625l-5.265625 0q-1.046875 0 -1.53125 0.453125q-0.484375 0.453125 -0.484375 1.296875q0 0.625 0.328125 1.171875q0.328125 0.546875 0.890625 0.78125q0.546875 0.234375 1.515625 0.234375l4.546875 0l0 1.40625zm-7.40625 -8.9609375l-2.171875 0.390625l-1.875 0l0 -1.609375l1.875 0l2.171875 0.359375l0 0.859375zm0 -2.59375l-2.171875 0.390625l-1.875 0l0 -1.609375l1.875 0l2.171875 0.375l0 0.84375z" fill-rule="nonzero"></path><path fill="#000000" fill-opacity="0.0" d="m739.2598 188.27559l-35.055115 0" fill-rule="nonzero"></path><path stroke="#000000" stroke-width="1.0" stroke-linejoin="round" stroke-linecap="butt" d="m739.2598 188.27559l-29.055115 0" fill-rule="evenodd"></path><path fill="#000000" stroke="#000000" stroke-width="1.0" stroke-linecap="butt" d="m710.2047 186.62386l-4.538086 1.6517334l4.538086 1.6517334z" fill-rule="evenodd"></path><path fill="#000000" fill-opacity="0.0" d="m739.2598 212.27559l-35.055115 0" fill-rule="nonzero"></path><path stroke="#000000" stroke-width="1.0" stroke-linejoin="round" stroke-linecap="butt" d="m739.2598 212.27559l-29.055115 0" fill-rule="evenodd"></path><path fill="#000000" stroke="#000000" stroke-width="1.0" stroke-linecap="butt" d="m710.2047 210.62386l-4.538086 1.6517334l4.538086 1.6517334z" fill-rule="evenodd"></path><path fill="#000000" fill-opacity="0.0" d="m739.2598 236.27559l-35.055115 0" fill-rule="nonzero"></path><path stroke="#000000" stroke-width="1.0" stroke-linejoin="round" stroke-linecap="butt" d="m739.2598 236.27559l-29.055115 0" fill-rule="evenodd"></path><path fill="#000000" stroke="#000000" stroke-width="1.0" stroke-linecap="butt" d="m710.2047 234.62386l-4.538086 1.6517334l4.538086 1.6517334z" fill-rule="evenodd"></path><path fill="#000000" fill-opacity="0.0" d="m584.08136 154.44357c0 -44.03676 -89.64566 -86.443596 -179.29132 -88.07352c-89.64569 -1.629921 -179.29135 37.517075 -179.29135 75.03415" fill-rule="nonzero"></path><path stroke="#000000" stroke-width="1.0" stroke-linejoin="round" stroke-linecap="butt" d="m584.08136 154.44357c0 -44.03676 -89.64566 -86.443596 -179.29132 -88.07352c-44.822845 -0.81495667 -89.64569 8.564308 -123.26282 22.836952c-16.808563 7.136322 -30.81569 15.495987 -40.62068 24.416382c-4.9024963 4.4601974 -8.754471 9.060593 -11.380798 13.71833c-1.3131561 2.3288727 -2.319931 4.6720734 -2.998413 7.019287c-0.08480835 0.293396 -0.16448975 0.586853 -0.23898315 0.88035583l-0.051086426 0.20846558" fill-rule="evenodd"></path><path fill="#000000" stroke="#000000" stroke-width="1.0" stroke-linecap="butt" d="m224.5981 135.2465l1.0805511 4.706909l2.1977844 -4.3002625z" fill-rule="evenodd"></path><path fill="#000000" fill-opacity="0.0" d="m362.3126 20.309711l96.09448 0l0 38.047245l-96.09448 0z" fill-rule="nonzero"></path><path fill="#000000" d="m374.32822 35.526585l0.40625 -1.890625l1.65625 0l-0.390625 1.890625l-1.671875 0zm-2.453125 11.703125l2.0625 -9.859375l1.6875 0l-2.0625 9.859375l-1.6875 0zm4.207306 0l2.0625 -9.859375l1.53125 0l-0.375 1.71875q1.0 -1.0 1.859375 -1.46875q0.859375 -0.46875 1.765625 -0.46875q1.203125 0 1.875 0.65625q0.6875 0.640625 0.6875 1.734375q0 0.546875 -0.25 1.71875l-1.25 5.96875l-1.671875 0l1.3125 -6.25q0.1875 -0.90625 0.1875 -1.34375q0 -0.484375 -0.34375 -0.78125q-0.328125 -0.3125 -0.96875 -0.3125q-1.296875 0 -2.3125 0.921875q-1.0 0.921875 -1.46875 3.1875l-0.953125 4.578125l-1.6875 0zm12.875732 0l-1.625 -9.859375l1.640625 0l0.84375 5.4375q0.140625 0.890625 0.34375 2.90625q0.484375 -1.046875 1.234375 -2.40625l3.28125 -5.9375l1.78125 0l-5.640625 9.859375l-1.859375 0zm7.125 -3.734375q0 -2.890625 1.703125 -4.78125q1.40625 -1.5625 3.671875 -1.5625q1.78125 0 2.875 1.125q1.09375 1.109375 1.09375 3.0q0 1.6875 -0.6875 3.15625q-0.6875 1.453125 -1.953125 2.234375q-1.265625 0.78125 -2.671875 0.78125q-1.15625 0 -2.09375 -0.484375q-0.9375 -0.5 -1.4375 -1.390625q-0.5 -0.90625 -0.5 -2.078125zm1.6875 -0.171875q0 1.390625 0.65625 2.109375q0.671875 0.71875 1.703125 0.71875q0.546875 0 1.0625 -0.21875q0.53125 -0.21875 0.984375 -0.65625q0.46875 -0.453125 0.78125 -1.015625q0.328125 -0.578125 0.515625 -1.234375q0.28125 -0.921875 0.28125 -1.765625q0 -1.328125 -0.671875 -2.0625q-0.671875 -0.75 -1.6875 -0.75q-0.78125 0 -1.4375 0.375q-0.65625 0.375 -1.1875 1.109375q-0.515625 0.71875 -0.765625 1.6875q-0.234375 0.953125 -0.234375 1.703125zm8.422577 3.90625l2.84375 -13.59375l1.671875 0l-1.765625 8.421875l4.890625 -4.6875l2.21875 0l-4.203125 3.6875l2.546875 6.171875l-1.84375 0l-1.953125 -5.0625l-2.046875 1.765625l-0.6875 3.296875l-1.671875 0zm16.546875 -3.34375l1.625 0.15625q-0.359375 1.21875 -1.625 2.3125q-1.265625 1.09375 -3.015625 1.09375q-1.09375 0 -2.015625 -0.5q-0.90625 -0.5 -1.390625 -1.46875q-0.46875 -0.96875 -0.46875 -2.203125q0 -1.609375 0.75 -3.125q0.75 -1.515625 1.9375 -2.25q1.1875 -0.75 2.5625 -0.75q1.765625 0 2.8125 1.09375q1.0625 1.09375 1.0625 2.984375q0 0.734375 -0.140625 1.484375l-7.25 0q-0.03125 0.296875 -0.03125 0.53125q0 1.375 0.625 2.109375q0.640625 0.71875 1.5625 0.71875q0.859375 0 1.6875 -0.5625q0.84375 -0.5625 1.3125 -1.625zm-4.890625 -2.453125l5.53125 0q0.015625 -0.25 0.015625 -0.359375q0 -1.265625 -0.640625 -1.9375q-0.625 -0.671875 -1.625 -0.671875q-1.0625 0 -1.953125 0.75q-0.890625 0.734375 -1.328125 2.21875zm8.172607 2.421875l1.6875 -0.09375q0 0.71875 0.21875 1.234375q0.21875 0.515625 0.8125 0.84375q0.609375 0.3125 1.40625 0.3125q1.109375 0 1.671875 -0.4375q0.5625 -0.453125 0.5625 -1.046875q0 -0.4375 -0.34375 -0.828125q-0.34375 -0.390625 -1.671875 -0.953125q-1.328125 -0.578125 -1.703125 -0.8125q-0.625 -0.375 -0.9375 -0.890625q-0.3125 -0.515625 -0.3125 -1.1875q0 -1.171875 0.921875 -2.0q0.9375 -0.84375 2.609375 -0.84375q1.84375 0 2.8125 0.859375q0.96875 0.859375 1.015625 2.265625l-1.640625 0.109375q-0.046875 -0.890625 -0.640625 -1.40625q-0.59375 -0.53125 -1.671875 -0.53125q-0.875 0 -1.359375 0.40625q-0.484375 0.390625 -0.484375 0.859375q0 0.46875 0.421875 0.8125q0.28125 0.25 1.4375 0.75q1.9375 0.828125 2.4375 1.3125q0.796875 0.765625 0.796875 1.875q0 0.734375 -0.453125 1.4375q-0.453125 0.703125 -1.375 1.125q-0.921875 0.421875 -2.171875 0.421875q-1.703125 0 -2.90625 -0.84375q-1.203125 -0.84375 -1.140625 -2.75z" fill-rule="nonzero"></path><path fill="#cfe2f3" d="m354.2966 170.40683l80.104645 0l0 0c4.249115 0 8.324219 1.6879425 11.328796 4.6925354c3.0045776 3.0045776 4.6925354 7.079666 4.6925354 11.328781l0 80.10466l-96.12598 0z" fill-rule="nonzero"></path><path stroke="#000000" stroke-width="1.0" stroke-linejoin="round" stroke-linecap="butt" d="m354.2966 170.40683l80.104645 0l0 0c4.249115 0 8.324219 1.6879425 11.328796 4.6925354c3.0045776 3.0045776 4.6925354 7.079666 4.6925354 11.328781l0 80.10466l-96.12598 0z" fill-rule="nonzero"></path><path fill="#cfe2f3" d="m362.2966 178.40683l80.104645 0l0 0c4.249115 0 8.324219 1.6879425 11.328796 4.6925354c3.0045776 3.0045776 4.6925354 7.079666 4.6925354 11.328781l0 80.10466l-96.12598 0z" fill-rule="nonzero"></path><path stroke="#000000" stroke-width="1.0" stroke-linejoin="round" stroke-linecap="butt" d="m362.2966 178.40683l80.104645 0l0 0c4.249115 0 8.324219 1.6879425 11.328796 4.6925354c3.0045776 3.0045776 4.6925354 7.079666 4.6925354 11.328781l0 80.10466l-96.12598 0z" fill-rule="nonzero"></path><path fill="#000000" fill-opacity="0.0" d="m441.74014 191.4462l77.07089 0l0 38.04724l-77.07089 0z" fill-rule="nonzero"></path><path fill="#000000" d="m451.36514 218.3662l2.0625 -9.859375l1.484375 0l-0.421875 2.015625q0.765625 -1.140625 1.484375 -1.6875q0.734375 -0.546875 1.5 -0.546875q0.5 0 1.234375 0.359375l-0.6875 1.5625q-0.4375 -0.3125 -0.953125 -0.3125q-0.875 0 -1.8125 0.984375q-0.921875 0.984375 -1.453125 3.53125l-0.828125 3.953125l-1.609375 0zm13.462677 -3.34375l1.625 0.15625q-0.359375 1.21875 -1.625 2.3125q-1.265625 1.09375 -3.015625 1.09375q-1.09375 0 -2.015625 -0.5q-0.90625 -0.5 -1.390625 -1.46875q-0.46875 -0.96875 -0.46875 -2.203125q0 -1.609375 0.75 -3.125q0.75 -1.515625 1.9375 -2.25q1.1875 -0.75 2.5625 -0.75q1.765625 0 2.8125 1.09375q1.0625 1.09375 1.0625 2.984375q0 0.734375 -0.140625 1.484375l-7.25 0q-0.03125 0.296875 -0.03125 0.53125q0 1.375 0.625 2.109375q0.640625 0.71875 1.5625 0.71875q0.859375 0 1.6875 -0.5625q0.84375 -0.5625 1.3125 -1.625zm-4.890625 -2.453125l5.53125 0q0.015625 -0.25 0.015625 -0.359375q0 -1.265625 -0.640625 -1.9375q-0.625 -0.671875 -1.625 -0.671875q-1.0625 0 -1.953125 0.75q-0.890625 0.734375 -1.328125 2.21875zm14.672607 4.578125q-0.875 0.75 -1.6875 1.09375q-0.8125 0.34375 -1.71875 0.34375q-1.375 0 -2.21875 -0.796875q-0.828125 -0.796875 -0.828125 -2.0625q0 -0.8125 0.375 -1.453125q0.390625 -0.640625 1.0 -1.015625q0.625 -0.390625 1.53125 -0.5625q0.5625 -0.109375 2.140625 -0.171875q1.578125 -0.0625 2.265625 -0.328125q0.203125 -0.6875 0.203125 -1.140625q0 -0.59375 -0.4375 -0.921875q-0.578125 -0.46875 -1.703125 -0.46875q-1.046875 0 -1.734375 0.46875q-0.671875 0.46875 -0.96875 1.328125l-1.703125 -0.140625q0.515625 -1.46875 1.640625 -2.25q1.140625 -0.78125 2.859375 -0.78125q1.828125 0 2.890625 0.875q0.8125 0.65625 0.8125 1.6875q0 0.796875 -0.234375 1.828125l-0.546875 2.453125q-0.25 1.171875 -0.25 1.890625q0 0.46875 0.203125 1.34375l-1.703125 0q-0.140625 -0.484375 -0.1875 -1.21875zm0.609375 -3.765625q-0.34375 0.125 -0.75 0.203125q-0.40625 0.078125 -1.34375 0.15625q-1.46875 0.140625 -2.078125 0.34375q-0.59375 0.1875 -0.90625 0.625q-0.3125 0.4375 -0.3125 0.96875q0 0.703125 0.484375 1.15625q0.5 0.453125 1.390625 0.453125q0.84375 0 1.609375 -0.4375q0.765625 -0.4375 1.203125 -1.21875q0.453125 -0.796875 0.703125 -2.25zm9.766327 3.5625q-1.453125 1.640625 -3.015625 1.640625q-1.40625 0 -2.34375 -1.03125q-0.921875 -1.03125 -0.921875 -3.0q0 -1.796875 0.734375 -3.28125q0.75 -1.5 1.84375 -2.234375q1.109375 -0.75 2.234375 -0.75q1.828125 0 2.765625 1.78125l1.109375 -5.296875l1.671875 0l-2.828125 13.59375l-1.546875 0l0.296875 -1.421875zm-4.609375 -2.703125q0 1.03125 0.203125 1.625q0.203125 0.59375 0.6875 0.984375q0.5 0.390625 1.1875 0.390625q1.140625 0 2.0625 -1.1875q1.25 -1.578125 1.25 -3.890625q0 -1.171875 -0.609375 -1.828125q-0.609375 -0.65625 -1.546875 -0.65625q-0.59375 0 -1.09375 0.265625q-0.5 0.265625 -0.984375 0.921875q-0.484375 0.640625 -0.828125 1.640625q-0.328125 0.984375 -0.328125 1.734375zm8.485107 0.75l1.6875 -0.09375q0 0.71875 0.21875 1.234375q0.21875 0.515625 0.8125 0.84375q0.609375 0.3125 1.40625 0.3125q1.109375 0 1.671875 -0.4375q0.5625 -0.453125 0.5625 -1.046875q0 -0.4375 -0.34375 -0.828125q-0.34375 -0.390625 -1.671875 -0.953125q-1.328125 -0.578125 -1.703125 -0.8125q-0.625 -0.375 -0.9375 -0.890625q-0.3125 -0.515625 -0.3125 -1.1875q0 -1.171875 0.921875 -2.0q0.9375 -0.84375 2.609375 -0.84375q1.84375 0 2.8125 0.859375q0.96875 0.859375 1.015625 2.265625l-1.640625 0.109375q-0.046875 -0.890625 -0.640625 -1.40625q-0.59375 -0.53125 -1.671875 -0.53125q-0.875 0 -1.359375 0.40625q-0.484375 0.390625 -0.484375 0.859375q0 0.46875 0.421875 0.8125q0.28125 0.25 1.4375 0.75q1.9375 0.828125 2.4375 1.3125q0.796875 0.765625 0.796875 1.875q0 0.734375 -0.453125 1.4375q-0.453125 0.703125 -1.375 1.125q-0.921875 0.421875 -2.171875 0.421875q-1.703125 0 -2.90625 -0.84375q-1.203125 -0.84375 -1.140625 -2.75z" fill-rule="nonzero"></path><path fill="#000000" fill-opacity="0.0" d="m504.59055 199.41208l-88.09448 9.007874" fill-rule="nonzero"></path><path stroke="#000000" stroke-width="1.0" stroke-linejoin="round" stroke-linecap="butt" d="m504.59055 199.41208l-82.12561 8.397537" fill-rule="evenodd"></path><path fill="#000000" stroke="#000000" stroke-width="1.0" stroke-linecap="butt" d="m422.29694 206.16646l-4.3465576 2.104782l4.6825867 1.1815338z" fill-rule="evenodd"></path></g></svg>

