<?xml version="1.0" encoding="UTF-8" standalone="no"?>
<!DOCTYPE svg PUBLIC "-//W3C//DTD SVG 1.1//EN" "http://www.w3.org/Graphics/SVG/1.1/DTD/svg11.dtd">
<!-- Generated by graphviz version 2.40.1 (20161225.0304)
 -->
<!-- Title: mygraph Pages: 1 -->
<svg xmlns="http://www.w3.org/2000/svg" xmlns:xlink="http://www.w3.org/1999/xlink" width="710pt" height="332pt" viewBox="0.00 0.00 709.50 332.00">
<g id="graph0" class="graph" transform="scale(1 1) rotate(0) translate(4 328)">
<title>mygraph</title>
<polygon fill="white" stroke="transparent" points="-4,4 -4,-328 705.5,-328 705.5,4 -4,4"/>
<!-- //net/proto_compiler:protocol&#45;compiler -->
<g id="node1" class="node">
<title>//net/proto_compiler:protocol-compiler</title>
<polygon fill="none" stroke="black" points="418,-324 188,-324 188,-288 418,-288 418,-324"/>
<text text-anchor="middle" x="303" y="-302.3" font-family="Times,serif" font-size="14.00">//net/proto_compiler:protocol-compiler</text>
</g>
<!-- //net/proto_compiler:util -->
<g id="node2" class="node">
<title>//net/proto_compiler:util</title>
<polygon fill="none" stroke="black" points="150,-180 0,-180 0,-144 150,-144 150,-180"/>
<text text-anchor="middle" x="75" y="-158.3" font-family="Times,serif" font-size="14.00">//net/proto_compiler:util</text>
</g>
<!-- //net/proto_compiler:protocol&#45;compiler&#45;&gt;//net/proto_compiler:util -->
<g id="edge1" class="edge">
<title>//net/proto_compiler:protocol-compiler-&gt;//net/proto_compiler:util</title>
<path fill="none" stroke="black" d="M239.5865,-287.9961C214.5565,-279.2804 186.2795,-267.3314 163,-252 136.491,-234.5418 111.7343,-207.9214 95.2752,-188.1561"/>
<polygon fill="black" stroke="black" points="97.7805,-185.69 88.7485,-180.1516 92.3553,-190.1136 97.7805,-185.69"/>
</g>
<!-- //net/proto_compiler:protocol&#45;compiler&#45;lib -->
<g id="node3" class="node">
<title>//net/proto_compiler:protocol-compiler-lib</title>
<polygon fill="none" stroke="black" points="701.5,-252 452.5,-252 452.5,-216 701.5,-216 701.5,-252"/>
<text text-anchor="middle" x="577" y="-230.3" font-family="Times,serif" font-size="14.00">//net/proto_compiler:protocol-compiler-lib</text>
</g>
<!-- //net/proto_compiler:protocol&#45;compiler&#45;&gt;//net/proto_compiler:protocol&#45;compiler&#45;lib -->
<g id="edge2" class="edge">
<title>//net/proto_compiler:protocol-compiler-&gt;//net/proto_compiler:protocol-compiler-lib</title>
<path fill="none" stroke="black" d="M371.7881,-287.9243C410.3041,-277.8033 458.4771,-265.1447 498.4684,-254.6361"/>
<polygon fill="black" stroke="black" points="499.4015,-258.0098 508.1836,-252.0831 497.6224,-251.2396 499.4015,-258.0098"/>
</g>
<!-- //net/proto2/bridge/public:compiler_upgrader -->
<g id="node4" class="node">
<title>//net/proto2/bridge/public:compiler_upgrader</title>
<polygon fill="none" stroke="black" points="434.5,-252 171.5,-252 171.5,-216 434.5,-216 434.5,-252"/>
<text text-anchor="middle" x="303" y="-230.3" font-family="Times,serif" font-size="14.00">//net/proto2/bridge/public:compiler_upgrader</text>
</g>
<!-- //net/proto_compiler:protocol&#45;compiler&#45;&gt;//net/proto2/bridge/public:compiler_upgrader -->
<g id="edge3" class="edge">
<title>//net/proto_compiler:protocol-compiler-&gt;//net/proto2/bridge/public:compiler_upgrader</title>
<path fill="none" stroke="black" d="M303,-287.8314C303,-280.131 303,-270.9743 303,-262.4166"/>
<polygon fill="black" stroke="black" points="306.5001,-262.4132 303,-252.4133 299.5001,-262.4133 306.5001,-262.4132"/>
</g>
<!-- //net/proto_compiler:parser -->
<g id="node6" class="node">
<title>//net/proto_compiler:parser</title>
<polygon fill="none" stroke="black" points="548.5,-108 383.5,-108 383.5,-72 548.5,-72 548.5,-108"/>
<text text-anchor="middle" x="466" y="-86.3" font-family="Times,serif" font-size="14.00">//net/proto_compiler:parser</text>
</g>
<!-- //net/proto_compiler:util&#45;&gt;//net/proto_compiler:parser -->
<g id="edge9" class="edge">
<title>//net/proto_compiler:util-&gt;//net/proto_compiler:parser</title>
<path fill="none" stroke="black" d="M150.0776,-145.7681C153.0893,-145.1626 156.0723,-144.571 159,-144 230.8248,-129.9926 312.4276,-115.7165 373.4389,-105.3638"/>
<polygon fill="black" stroke="black" points="374.1563,-108.7922 383.4317,-103.672 372.9878,-101.8905 374.1563,-108.7922"/>
</g>
<!-- //net/proto_compiler:proto&#45;min&#45;lib -->
<g id="node5" class="node">
<title>//net/proto_compiler:proto-min-lib</title>
<polygon fill="none" stroke="black" points="700,-180 494,-180 494,-144 700,-144 700,-180"/>
<text text-anchor="middle" x="597" y="-158.3" font-family="Times,serif" font-size="14.00">//net/proto_compiler:proto-min-lib</text>
</g>
<!-- //net/proto_compiler:protocol&#45;compiler&#45;lib&#45;&gt;//net/proto_compiler:proto&#45;min&#45;lib -->
<g id="edge11" class="edge">
<title>//net/proto_compiler:protocol-compiler-lib-&gt;//net/proto_compiler:proto-min-lib</title>
<path fill="none" stroke="black" d="M582.0468,-215.8314C584.2094,-208.0463 586.7853,-198.7729 589.1848,-190.1347"/>
<polygon fill="black" stroke="black" points="592.581,-190.9852 591.8852,-180.4133 585.8364,-189.1117 592.581,-190.9852"/>
</g>
<!-- //net/proto_compiler:protocol&#45;compiler&#45;lib&#45;&gt;//net/proto_compiler:parser -->
<g id="edge10" class="edge">
<title>//net/proto_compiler:protocol-compiler-lib-&gt;//net/proto_compiler:parser</title>
<path fill="none" stroke="black" d="M529.6391,-215.7791C513.2165,-207.2457 496.1464,-195.4806 485,-180 472.1477,-162.1502 467.6252,-137.4553 466.1895,-118.448"/>
<polygon fill="black" stroke="black" points="469.6758,-118.0892 465.6686,-108.2814 462.685,-118.4475 469.6758,-118.0892"/>
</g>
<!-- //net/proto2/bridge/internal:compiler_upgrader -->
<g id="node8" class="node">
<title>//net/proto2/bridge/internal:compiler_upgrader</title>
<polygon fill="none" stroke="black" points="438,-180 168,-180 168,-144 438,-144 438,-180"/>
<text text-anchor="middle" x="303" y="-158.3" font-family="Times,serif" font-size="14.00">//net/proto2/bridge/internal:compiler_upgrader</text>
</g>
<!-- //net/proto2/bridge/public:compiler_upgrader&#45;&gt;//net/proto2/bridge/internal:compiler_upgrader -->
<g id="edge12" class="edge">
<title>//net/proto2/bridge/public:compiler_upgrader-&gt;//net/proto2/bridge/internal:compiler_upgrader</title>
<path fill="none" stroke="black" d="M297.0476,-215.8314C296.2972,-208.131 296.0763,-198.9743 296.3849,-190.4166"/>
<polygon fill="black" stroke="black" points="299.8792,-190.6161 297.024,-180.4133 292.8935,-190.1697 299.8792,-190.6161"/>
</g>
<!-- //net/proto_compiler:proto&#45;min&#45;lib&#45;&gt;//net/proto_compiler:parser -->
<g id="edge4" class="edge">
<title>//net/proto_compiler:proto-min-lib-&gt;//net/proto_compiler:parser</title>
<path fill="none" stroke="black" d="M563.9432,-143.8314C547.0323,-134.5368 526.2615,-123.1208 508.2059,-113.1971"/>
<polygon fill="black" stroke="black" points="509.4957,-109.9122 499.0463,-108.1628 506.124,-116.0468 509.4957,-109.9122"/>
</g>
<!-- //util/regexp:regexp -->
<g id="node7" class="node">
<title>//util/regexp:regexp</title>
<polygon fill="none" stroke="black" points="582.5,-36 459.5,-36 459.5,0 582.5,0 582.5,-36"/>
<text text-anchor="middle" x="521" y="-14.3" font-family="Times,serif" font-size="14.00">//util/regexp:regexp</text>
</g>
<!-- //net/proto_compiler:proto&#45;min&#45;lib&#45;&gt;//util/regexp:regexp -->
<g id="edge5" class="edge">
<title>//net/proto_compiler:proto-min-lib-&gt;//util/regexp:regexp</title>
<path fill="none" stroke="black" d="M590.352,-143.9306C583.2667,-125.4072 571.2598,-95.9968 558,-72 552.9416,-62.8456 546.7384,-53.2943 540.8671,-44.8146"/>
<polygon fill="black" stroke="black" points="543.5648,-42.5677 534.9308,-36.4273 537.8511,-46.6117 543.5648,-42.5677"/>
</g>
<!-- //net/proto_compiler:parser&#45;&gt;//util/regexp:regexp -->
<g id="edge8" class="edge">
<title>//net/proto_compiler:parser-&gt;//util/regexp:regexp</title>
<path fill="none" stroke="black" d="M479.8788,-71.8314C486.2136,-63.5386 493.8384,-53.557 500.7926,-44.4533"/>
<polygon fill="black" stroke="black" points="503.6452,-46.4847 506.9343,-36.4133 498.0825,-42.2353 503.6452,-46.4847"/>
</g>
<!-- //net/proto2/bridge/internal:compiler_upgrader&#45;&gt;//net/proto2/bridge/public:compiler_upgrader -->
<g id="edge7" class="edge">
<title>//net/proto2/bridge/internal:compiler_upgrader-&gt;//net/proto2/bridge/public:compiler_upgrader</title>
<path fill="none" stroke="black" d="M308.976,-180.4133C309.7071,-188.0593 309.9203,-197.1084 309.6155,-205.5726"/>
<polygon fill="black" stroke="black" points="306.1048,-205.6264 308.9524,-215.8314 313.0902,-206.078 306.1048,-205.6264"/>
</g>
<!-- //net/proto2/bridge/internal:compiler_upgrader&#45;&gt;//net/proto_compiler:parser -->
<g id="edge6" class="edge">
<title>//net/proto2/bridge/internal:compiler_upgrader-&gt;//net/proto_compiler:parser</title>
<path fill="none" stroke="black" d="M344.1318,-143.8314C365.9321,-134.2018 392.8878,-122.295 415.9004,-112.1299"/>
<polygon fill="black" stroke="black" points="417.4308,-115.2802 425.164,-108.038 414.6024,-108.877 417.4308,-115.2802"/>
</g>
</g>
</svg>
