<?xml version="1.0" encoding="UTF-8" standalone="no"?>
<!DOCTYPE svg PUBLIC "-//W3C//DTD SVG 1.1//EN" "http://www.w3.org/Graphics/SVG/1.1/DTD/svg11.dtd">
<!-- Generated by graphviz version 2.40.1 (20161225.0304)
 -->
<!-- Title: mygraph Pages: 1 -->
<svg xmlns="http://www.w3.org/2000/svg" xmlns:xlink="http://www.w3.org/1999/xlink" width="139pt" height="260pt" viewBox="0.00 0.00 138.50 260.00">
<g id="graph0" class="graph" transform="scale(1 1) rotate(0) translate(4 256)">
<title>mygraph</title>
<polygon fill="white" stroke="transparent" points="-4,4 -4,-256 134.5,-256 134.5,4 -4,4"/>
<!-- //a:a -->
<g id="node1" class="node">
<title>//a:a</title>
<polygon fill="none" stroke="black" points="55,-108 1,-108 1,-72 55,-72 55,-108"/>
<text text-anchor="middle" x="28" y="-86.3" font-family="Times,serif" font-size="14.00">//a:a</text>
</g>
<!-- //a:a.cc -->
<g id="node2" class="node">
<title>//a:a.cc</title>
<polygon fill="none" stroke="black" points="56,-36 0,-36 0,0 56,0 56,-36"/>
<text text-anchor="middle" x="28" y="-14.3" font-family="Times,serif" font-size="14.00">//a:a.cc</text>
</g>
<!-- //a:a&#45;&gt;//a:a.cc -->
<g id="edge1" class="edge">
<title>//a:a-&gt;//a:a.cc</title>
<path fill="none" stroke="black" d="M28,-71.8314C28,-64.131 28,-54.9743 28,-46.4166"/>
<polygon fill="black" stroke="black" points="31.5001,-46.4132 28,-36.4133 24.5001,-46.4133 31.5001,-46.4132"/>
</g>
<!-- //b:b -->
<g id="node3" class="node">
<title>//b:b</title>
<polygon fill="none" stroke="black" points="110,-180 56,-180 56,-144 110,-144 110,-180"/>
<text text-anchor="middle" x="83" y="-158.3" font-family="Times,serif" font-size="14.00">//b:b</text>
</g>
<!-- //b:b&#45;&gt;//a:a -->
<g id="edge2" class="edge">
<title>//b:b-&gt;//a:a</title>
<path fill="none" stroke="black" d="M69.1212,-143.8314C62.7864,-135.5386 55.1616,-125.557 48.2074,-116.4533"/>
<polygon fill="black" stroke="black" points="50.9175,-114.2353 42.0657,-108.4133 45.3548,-118.4847 50.9175,-114.2353"/>
</g>
<!-- //b:b.cc -->
<g id="node4" class="node">
<title>//b:b.cc</title>
<polygon fill="none" stroke="black" points="130.5,-108 73.5,-108 73.5,-72 130.5,-72 130.5,-108"/>
<text text-anchor="middle" x="102" y="-86.3" font-family="Times,serif" font-size="14.00">//b:b.cc</text>
</g>
<!-- //b:b&#45;&gt;//b:b.cc -->
<g id="edge3" class="edge">
<title>//b:b-&gt;//b:b.cc</title>
<path fill="none" stroke="black" d="M87.7945,-143.8314C89.8489,-136.0463 92.296,-126.7729 94.5756,-118.1347"/>
<polygon fill="black" stroke="black" points="97.9735,-118.9753 97.1409,-108.4133 91.2052,-117.1892 97.9735,-118.9753"/>
</g>
<!-- //c:c -->
<g id="node5" class="node">
<title>//c:c</title>
<polygon fill="none" stroke="black" points="82,-252 28,-252 28,-216 82,-216 82,-252"/>
<text text-anchor="middle" x="55" y="-230.3" font-family="Times,serif" font-size="14.00">//c:c</text>
</g>
<!-- //c:c&#45;&gt;//a:a -->
<g id="edge5" class="edge">
<title>//c:c-&gt;//a:a</title>
<path fill="none" stroke="black" d="M51.5804,-215.7623C46.9549,-191.0928 38.6612,-146.8598 33.245,-117.9731"/>
<polygon fill="black" stroke="black" points="36.6748,-117.2733 31.3918,-108.0896 29.7947,-118.5634 36.6748,-117.2733"/>
</g>
<!-- //c:c&#45;&gt;//b:b -->
<g id="edge4" class="edge">
<title>//c:c-&gt;//b:b</title>
<path fill="none" stroke="black" d="M62.0656,-215.8314C65.126,-207.9617 68.7779,-198.5712 72.1682,-189.8533"/>
<polygon fill="black" stroke="black" points="75.4768,-191.0019 75.8393,-180.4133 68.9527,-188.4647 75.4768,-191.0019"/>
</g>
</g>
</svg>
