<?xml version="1.0" encoding="UTF-8" standalone="no"?>
<!DOCTYPE svg PUBLIC "-//W3C//DTD SVG 1.1//EN" "http://www.w3.org/Graphics/SVG/1.1/DTD/svg11.dtd">
<!-- Generated by graphviz version 2.40.1 (20161225.0304)
 -->
<!-- Title: somepath2 Pages: 1 -->
<svg xmlns="http://www.w3.org/2000/svg" xmlns:xlink="http://www.w3.org/1999/xlink" width="152pt" height="288pt" viewBox="0.00 0.00 152.33 288.00">
<g id="graph0" class="graph" transform="scale(.8456 .8456) rotate(0) translate(4 336.5928)">
<title>somepath2</title>
<polygon fill="white" stroke="transparent" points="-4,4 -4,-336.5928 176.1482,-336.5928 176.1482,4 -4,4"/>
<!-- n1 -->
<g id="node1" class="node">
<title>n1</title>
<ellipse fill="none" stroke="black" cx="40" cy="-312.4446" rx="18" ry="18"/>
</g>
<!-- n2 -->
<g id="node2" class="node">
<title>n2</title>
<ellipse fill="none" stroke="black" cx="41" cy="-236.1482" rx="18" ry="18"/>
</g>
<!-- n1&#45;&gt;n2 -->
<g id="edge1" class="edge">
<title>n1-&gt;n2</title>
<path fill="none" stroke="black" d="M40.237,-294.3634C40.3532,-285.4965 40.4959,-274.6075 40.6264,-264.6554"/>
<polygon fill="black" stroke="black" points="44.1298,-264.4091 40.7612,-254.364 37.1304,-264.3173 44.1298,-264.4091"/>
</g>
<!-- n3 -->
<g id="node3" class="node">
<title>n3</title>
<ellipse fill="none" stroke="black" cx="18" cy="-162" rx="18" ry="18"/>
</g>
<!-- n2&#45;&gt;n3 -->
<g id="edge2" class="edge">
<title>n2-&gt;n3</title>
<path fill="none" stroke="black" d="M35.6655,-218.9508C32.9275,-210.1237 29.5274,-199.1624 26.4435,-189.2204"/>
<polygon fill="black" stroke="black" points="29.6908,-187.8752 23.3852,-179.3611 23.0051,-189.9491 29.6908,-187.8752"/>
</g>
<!-- n10 -->
<g id="node10" class="node">
<title>n10</title>
<ellipse fill="none" stroke="black" cx="23" cy="-90" rx="18" ry="18"/>
</g>
<!-- n2&#45;&gt;n10 -->
<g id="edge9" class="edge">
<title>n2-&gt;n10</title>
<path fill="none" stroke="black" d="M44.2389,-218.297C47.0603,-199.5961 49.9868,-169.4573 45,-144 43.1054,-134.328 39.4698,-124.2023 35.6916,-115.3671"/>
<polygon fill="black" stroke="black" points="38.7737,-113.6893 31.4504,-106.033 32.4008,-116.5851 38.7737,-113.6893"/>
</g>
<!-- n3&#45;&gt;n10 -->
<g id="edge10" class="edge">
<title>n3-&gt;n10</title>
<path fill="none" stroke="black" d="M19.2617,-143.8314C19.7965,-136.131 20.4323,-126.9743 21.0266,-118.4166"/>
<polygon fill="black" stroke="black" points="24.52,-118.6317 21.7213,-108.4133 17.5368,-118.1467 24.52,-118.6317"/>
</g>
<!-- n4 -->
<g id="node4" class="node">
<title>n4</title>
<ellipse fill="pink" stroke="black" cx="74" cy="-18" rx="18" ry="18"/>
<text text-anchor="middle" x="74" y="-14.3" font-family="Times,serif" font-size="14.00">E</text>
</g>
<!-- n5 -->
<g id="node5" class="node">
<title>n5</title>
<ellipse fill="none" stroke="black" cx="96" cy="-236.1482" rx="18" ry="18"/>
</g>
<!-- n6 -->
<g id="node6" class="node">
<title>n6</title>
<ellipse fill="pink" stroke="black" cx="114" cy="-162" rx="18" ry="18"/>
</g>
<!-- n5&#45;&gt;n6 -->
<g id="edge5" class="edge">
<title>n5-&gt;n6</title>
<path fill="none" stroke="black" d="M100.2657,-218.5761C102.3577,-209.9588 104.9266,-199.3765 107.2745,-189.7046"/>
<polygon fill="black" stroke="black" points="110.7446,-190.2464 109.7025,-179.7029 103.9421,-188.595 110.7446,-190.2464"/>
</g>
<!-- n6&#45;&gt;n4 -->
<g id="edge6" class="edge">
<title>n6-&gt;n4</title>
<path fill="none" stroke="black" d="M106.6597,-145.2221C102.2549,-134.6847 96.7901,-120.7254 93,-108 86.8937,-87.4979 81.9754,-63.8091 78.6739,-45.8822"/>
<polygon fill="black" stroke="black" points="82.0777,-45.033 76.8756,-35.8032 75.1866,-46.2626 82.0777,-45.033"/>
</g>
<!-- n9 -->
<g id="node9" class="node">
<title>n9</title>
<ellipse fill="none" stroke="black" cx="120" cy="-90" rx="18" ry="18"/>
</g>
<!-- n6&#45;&gt;n9 -->
<g id="edge8" class="edge">
<title>n6-&gt;n9</title>
<path fill="none" stroke="black" d="M115.5141,-143.8314C116.1558,-136.131 116.9188,-126.9743 117.6319,-118.4166"/>
<polygon fill="black" stroke="black" points="121.1229,-118.6694 118.4656,-108.4133 114.1471,-118.088 121.1229,-118.6694"/>
</g>
<!-- n7 -->
<g id="node7" class="node">
<title>n7</title>
<ellipse fill="none" stroke="black" cx="96" cy="-312.4446" rx="20.2975" ry="20.2975"/>
<text text-anchor="middle" x="96" y="-308.7446" font-family="Times,serif" font-size="14.00">S1</text>
</g>
<!-- n7&#45;&gt;n2 -->
<g id="edge4" class="edge">
<title>n7-&gt;n2</title>
<path fill="none" stroke="black" d="M84.0658,-295.8894C76.3372,-285.1683 66.1629,-271.0544 57.6441,-259.2371"/>
<polygon fill="black" stroke="black" points="60.4794,-257.1848 51.7924,-251.1195 54.801,-261.2782 60.4794,-257.1848"/>
</g>
<!-- n7&#45;&gt;n5 -->
<g id="edge3" class="edge">
<title>n7-&gt;n5</title>
<path fill="none" stroke="black" d="M96,-291.9986C96,-283.5595 96,-273.6353 96,-264.5119"/>
<polygon fill="black" stroke="black" points="99.5001,-264.3065 96,-254.3065 92.5001,-264.3065 99.5001,-264.3065"/>
</g>
<!-- n8 -->
<g id="node8" class="node">
<title>n8</title>
<ellipse fill="pink" stroke="black" cx="152" cy="-236.1482" rx="20.2975" ry="20.2975"/>
<text text-anchor="middle" x="152" y="-232.4482" font-family="Times,serif" font-size="14.00">S2</text>
</g>
<!-- n8&#45;&gt;n6 -->
<g id="edge7" class="edge">
<title>n8-&gt;n6</title>
<path fill="none" stroke="black" d="M142.8013,-218.199C138.0739,-208.9747 132.2319,-197.5753 127.0475,-187.4592"/>
<polygon fill="black" stroke="black" points="130.012,-185.5695 122.3363,-178.2664 123.7824,-188.7621 130.012,-185.5695"/>
</g>
<!-- n10&#45;&gt;n4 -->
<g id="edge11" class="edge">
<title>n10-&gt;n4</title>
<path fill="none" stroke="black" d="M33.5672,-75.0816C40.4738,-65.3311 49.6369,-52.395 57.4935,-41.3032"/>
<polygon fill="black" stroke="black" points="60.5222,-43.0827 63.4463,-32.8993 54.81,-39.0365 60.5222,-43.0827"/>
</g>
<!-- n11 -->
<g id="node11" class="node">
<title>n11</title>
<ellipse fill="none" stroke="black" cx="20" cy="-18" rx="18" ry="18"/>
</g>
<!-- n10&#45;&gt;n11 -->
<g id="edge12" class="edge">
<title>n10-&gt;n11</title>
<path fill="none" stroke="black" d="M22.243,-71.8314C21.9221,-64.131 21.5406,-54.9743 21.184,-46.4166"/>
<polygon fill="black" stroke="black" points="24.6806,-46.2589 20.7672,-36.4133 17.6867,-46.5503 24.6806,-46.2589"/>
</g>
</g>
</svg>
