<?xml version="1.0" encoding="UTF-8" standalone="no"?>
<!DOCTYPE svg PUBLIC "-//W3C//DTD SVG 1.1//EN"
 "http://www.w3.org/Graphics/SVG/1.1/DTD/svg11.dtd">
<!-- Generated by graphviz version 2.36.0 (20140111.2315)
 -->
<!-- Title: mygraph Pages: 1 -->
<svg width="479pt" height="188pt"
 viewBox="0.00 0.00 479.00 188.00" xmlns="http://www.w3.org/2000/svg" xmlns:xlink="http://www.w3.org/1999/xlink">
<g id="graph0" class="graph" transform="scale(1 1) rotate(0) translate(4 184)">
<title>mygraph</title>
<polygon fill="white" stroke="none" points="-4,4 -4,-184 475,-184 475,4 -4,4"/>
<!-- //src/main/java/com/example/cmdline:runner -->
<g id="node1" class="node"><title>//src/main/java/com/example/cmdline:runner</title>
<polygon fill="none" stroke="black" points="375.25,-180 112.75,-180 112.75,-144 375.25,-144 375.25,-180"/>
<text text-anchor="middle" x="244" y="-158.3" font-family="Times,serif" font-size="14.00">//src/main/java/com/example/cmdline:runner</text>
</g>
<!-- //src/main/java/com/example/cmdline:Runner.java -->
<g id="node2" class="node"><title>//src/main/java/com/example/cmdline:Runner.java</title>
<polygon fill="none" stroke="black" points="292.25,-108 -0.25,-108 -0.25,-72 292.25,-72 292.25,-108"/>
<text text-anchor="middle" x="146" y="-86.3" font-family="Times,serif" font-size="14.00">//src/main/java/com/example/cmdline:Runner.java</text>
</g>
<!-- //src/main/java/com/example/cmdline:runner&#45;&gt;//src/main/java/com/example/cmdline:Runner.java -->
<g id="edge1" class="edge"><title>//src/main/java/com/example/cmdline:runner&#45;&gt;//src/main/java/com/example/cmdline:Runner.java</title>
<path fill="none" stroke="black" d="M220.027,-143.876C207.45,-134.893 191.868,-123.763 178.248,-114.034"/>
<polygon fill="black" stroke="black" points="180.237,-111.154 170.066,-108.19 176.169,-116.85 180.237,-111.154"/>
</g>
<!-- //:greeter -->
<g id="node3" class="node"><title>//:greeter</title>
<polygon fill="none" stroke="black" points="375.25,-108 310.75,-108 310.75,-72 375.25,-72 375.25,-108"/>
<text text-anchor="middle" x="343" y="-86.3" font-family="Times,serif" font-size="14.00">//:greeter</text>
</g>
<!-- //src/main/java/com/example/cmdline:runner&#45;&gt;//:greeter -->
<g id="edge2" class="edge"><title>//src/main/java/com/example/cmdline:runner&#45;&gt;//:greeter</title>
<path fill="none" stroke="black" d="M268.218,-143.876C280.923,-134.893 296.664,-123.763 310.423,-114.034"/>
<polygon fill="black" stroke="black" points="312.544,-116.821 318.689,-108.19 308.503,-111.105 312.544,-116.821"/>
</g>
<!-- //:src/main/java/com/example/Greeting.java -->
<g id="node4" class="node"><title>//:src/main/java/com/example/Greeting.java</title>
<polygon fill="none" stroke="black" points="471.25,-36 214.75,-36 214.75,-0 471.25,-0 471.25,-36"/>
<text text-anchor="middle" x="343" y="-14.3" font-family="Times,serif" font-size="14.00">//:src/main/java/com/example/Greeting.java</text>
</g>
<!-- //:greeter&#45;&gt;//:src/main/java/com/example/Greeting.java -->
<g id="edge3" class="edge"><title>//:greeter&#45;&gt;//:src/main/java/com/example/Greeting.java</title>
<path fill="none" stroke="black" d="M343,-71.6966C343,-63.9827 343,-54.7125 343,-46.1124"/>
<polygon fill="black" stroke="black" points="346.5,-46.1043 343,-36.1043 339.5,-46.1044 346.5,-46.1043"/>
</g>
</g>
</svg>
