<?xml version="1.0" standalone="yes"?>

<svg version="1.1" viewBox="0.0 0.0 960.0 720.0" fill="none" stroke="none" stroke-linecap="square" stroke-miterlimit="10" xmlns="http://www.w3.org/2000/svg" xmlns:xlink="http://www.w3.org/1999/xlink"><clipPath id="p.0"><path d="m0 0l960.0 0l0 720.0l-960.0 0l0 -720.0z" clip-rule="nonzero"></path></clipPath><g clip-path="url(#p.0)"><path fill="#000000" fill-opacity="0.0" d="m0 0l960.0 0l0 720.0l-960.0 0z" fill-rule="nonzero"></path><path fill="#cfe2f3" d="m105.04724 275.39633l0 0c0 -8.288635 10.5195465 -15.007874 23.496063 -15.007874l0 0c12.976517 0 23.496063 6.7192383 23.496063 15.007874l0 0c0 8.288605 -10.5195465 15.007874 -23.496063 15.007874l0 0c-12.976517 0 -23.496063 -6.719269 -23.496063 -15.007874z" fill-rule="nonzero"></path><path stroke="#000000" stroke-width="1.0" stroke-linejoin="round" stroke-linecap="butt" d="m105.04724 275.39633l0 0c0 -8.288635 10.5195465 -15.007874 23.496063 -15.007874l0 0c12.976517 0 23.496063 6.7192383 23.496063 15.007874l0 0c0 8.288605 -10.5195465 15.007874 -23.496063 15.007874l0 0c-12.976517 0 -23.496063 -6.719269 -23.496063 -15.007874z" fill-rule="nonzero"></path><path fill="#000000" d="m122.39964 282.3163l5.265625 -7.09375l-4.640625 -6.5l2.140625 0l2.46875 3.484375q0.78125 1.078125 1.09375 1.671875q0.453125 -0.75 1.078125 -1.546875l2.734375 -3.609375l1.96875 0l-4.78125 6.40625l5.140625 7.1875l-2.21875 0l-3.421875 -4.859375q-0.296875 -0.40625 -0.59375 -0.90625q-0.453125 0.75 -0.65625 1.03125l-3.40625 4.734375l-2.171875 0z" fill-rule="nonzero"></path><path fill="#cfe2f3" d="m79.0 141.00787l0 0c0 -8.28862 10.5195465 -15.007874 23.496063 -15.007874l0 0c12.976517 0 23.496063 6.7192535 23.496063 15.007874l0 0c0 8.28862 -10.5195465 15.007874 -23.496063 15.007874l0 0c-12.976517 0 -23.496063 -6.7192535 -23.496063 -15.007874z" fill-rule="nonzero"></path><path stroke="#000000" stroke-width="1.0" stroke-linejoin="round" stroke-linecap="butt" d="m79.0 141.00787l0 0c0 -8.28862 10.5195465 -15.007874 23.496063 -15.007874l0 0c12.976517 0 23.496063 6.7192535 23.496063 15.007874l0 0c0 8.28862 -10.5195465 15.007874 -23.496063 15.007874l0 0c-12.976517 0 -23.496063 -6.7192535 -23.496063 -15.007874z" fill-rule="nonzero"></path><path fill="#000000" d="m101.57115 147.92787l0 -5.765625l-5.234375 -7.828125l2.1875 0l2.671875 4.09375q0.75 1.15625 1.390625 2.296875q0.609375 -1.0625 1.484375 -2.40625l2.625 -3.984375l2.109375 0l-5.4375 7.828125l0 5.765625l-1.796875 0z" fill-rule="nonzero"></path><path fill="#cfe2f3" d="m163.51181 141.00787l0 0c0 -8.28862 10.5195465 -15.007874 23.496063 -15.007874l0 0c12.976517 0 23.496063 6.7192535 23.496063 15.007874l0 0c0 8.28862 -10.5195465 15.007874 -23.496063 15.007874l0 0c-12.976517 0 -23.496063 -6.7192535 -23.496063 -15.007874z" fill-rule="nonzero"></path><path stroke="#000000" stroke-width="1.0" stroke-linejoin="round" stroke-linecap="butt" d="m163.51181 141.00787l0 0c0 -8.28862 10.5195465 -15.007874 23.496063 -15.007874l0 0c12.976517 0 23.496063 6.7192535 23.496063 15.007874l0 0c0 8.28862 -10.5195465 15.007874 -23.496063 15.007874l0 0c-12.976517 0 -23.496063 -6.7192535 -23.496063 -15.007874z" fill-rule="nonzero"></path><path fill="#000000" d="m181.68489 147.92787l0 -1.671875l6.96875 -8.703125q0.75 -0.9375 1.421875 -1.625l-7.59375 0l0 -1.59375l9.734375 0l0 1.59375l-7.625 9.4375l-0.828125 0.953125l8.6875 0l0 1.609375l-10.765625 0z" fill-rule="nonzero"></path><path fill="#cfe2f3" d="m0 141.00787l0 0c0 -8.28862 10.519546 -15.007874 23.496063 -15.007874l0 0c12.976517 0 23.496063 6.7192535 23.496063 15.007874l0 0c0 8.28862 -10.5195465 15.007874 -23.496063 15.007874l0 0c-12.976518 0 -23.496063 -6.7192535 -23.496063 -15.007874z" fill-rule="nonzero"></path><path stroke="#000000" stroke-width="1.0" stroke-linejoin="round" stroke-linecap="butt" d="m0 141.00787l0 0c0 -8.28862 10.519546 -15.007874 23.496063 -15.007874l0 0c12.976517 0 23.496063 6.7192535 23.496063 15.007874l0 0c0 8.28862 -10.5195465 15.007874 -23.496063 15.007874l0 0c-12.976518 0 -23.496063 -6.7192535 -23.496063 -15.007874z" fill-rule="nonzero"></path><path fill="#000000" d="m22.719948 147.92787l0 -12.0l-4.46875 0l0 -1.59375l10.765625 0l0 1.59375l-4.5 0l0 12.0l-1.796875 0z" fill-rule="nonzero"></path><path fill="#cfe2f3" d="m110.0 19.007874l0 0c0 -8.288619 10.5195465 -15.007874 23.496063 -15.007874l0 0c12.976517 0 23.496063 6.7192545 23.496063 15.007874l0 0c0 8.28862 -10.5195465 15.007874 -23.496063 15.007874l0 0c-12.976517 0 -23.496063 -6.7192535 -23.496063 -15.007874z" fill-rule="nonzero"></path><path stroke="#000000" stroke-width="1.0" stroke-linejoin="round" stroke-linecap="butt" d="m110.0 19.007874l0 0c0 -8.288619 10.5195465 -15.007874 23.496063 -15.007874l0 0c12.976517 0 23.496063 6.7192545 23.496063 15.007874l0 0c0 8.28862 -10.5195465 15.007874 -23.496063 15.007874l0 0c-12.976517 0 -23.496063 -6.7192535 -23.496063 -15.007874z" fill-rule="nonzero"></path><path fill="#000000" d="m128.53548 25.927872l-3.6093674 -13.59375l1.84375 0l2.0624924 8.90625q0.34375 1.40625 0.578125 2.78125q0.515625 -2.171875 0.609375 -2.515625l2.59375 -9.171875l2.171875 0l1.953125 6.875q0.734375 2.5625 1.046875 4.8125q0.265625 -1.28125 0.6875 -2.953125l2.125 -8.734375l1.8125 0l-3.734375 13.59375l-1.734375 0l-2.859375 -10.359375q-0.359375 -1.296875 -0.421875 -1.59375q-0.21875 0.9375 -0.40625 1.59375l-2.890625 10.359375l-1.828125 0z" fill-rule="nonzero"></path><path fill="#000000" fill-opacity="0.0" d="m128.5433 260.38846l-26.047241 -104.37796" fill-rule="nonzero"></path><path stroke="#000000" stroke-width="1.0" stroke-linejoin="round" stroke-linecap="butt" d="m128.5433 260.38846l-24.594505 -98.55649" fill-rule="evenodd"></path><path fill="#000000" stroke="#000000" stroke-width="1.0" stroke-linecap="butt" d="m105.551384 161.43205l-2.7013626 -4.0031433l-0.5038147 4.8029785z" fill-rule="evenodd"></path><path fill="#000000" fill-opacity="0.0" d="m128.5433 260.38846l58.456696 -104.37796" fill-rule="nonzero"></path><path stroke="#000000" stroke-width="1.0" stroke-linejoin="round" stroke-linecap="butt" d="m128.5433 260.38846l55.52487 -99.143036" fill-rule="evenodd"></path><path fill="#000000" stroke="#000000" stroke-width="1.0" stroke-linecap="butt" d="m185.50931 162.05252l0.7763519 -4.7665253l-3.6585846 3.1523438z" fill-rule="evenodd"></path><path fill="#000000" fill-opacity="0.0" d="m102.49606 126.0l30.992126 -92.0" fill-rule="nonzero"></path><path stroke="#000000" stroke-width="1.0" stroke-linejoin="round" stroke-linecap="butt" d="m102.49606 126.0l29.076675 -86.313965" fill-rule="evenodd"></path><path fill="#000000" stroke="#000000" stroke-width="1.0" stroke-linecap="butt" d="m133.13803 40.21334l-0.11654663 -4.8279343l-3.0140533 3.7733269z" fill-rule="evenodd"></path><path fill="#000000" fill-opacity="0.0" d="m187.00787 126.0l-53.51181 -92.0" fill-rule="nonzero"></path><path stroke="#000000" stroke-width="1.0" stroke-linejoin="round" stroke-linecap="butt" d="m187.00787 126.0l-50.495102 -86.81353" fill-rule="evenodd"></path><path fill="#000000" stroke="#000000" stroke-width="1.0" stroke-linecap="butt" d="m137.94055 38.356003l-3.7094727 -3.0923195l0.85391235 4.75325z" fill-rule="evenodd"></path><path fill="#000000" fill-opacity="0.0" d="m105.04724 275.39633l-81.543304 -119.37009" fill-rule="nonzero"></path><path stroke="#000000" stroke-width="1.0" stroke-linejoin="round" stroke-linecap="butt" d="m105.04724 275.39633l-78.158905 -114.41571" fill-rule="evenodd"></path><path fill="#000000" stroke="#000000" stroke-width="1.0" stroke-linecap="butt" d="m28.25222 160.04893l-3.9236736 -2.8155518l1.1959076 4.6789246z" fill-rule="evenodd"></path><path fill="#cfe2f3" d="m0 19.007874l0 0c0 -8.288619 10.519546 -15.007874 23.496063 -15.007874l0 0c12.976517 0 23.496063 6.7192545 23.496063 15.007874l0 0c0 8.28862 -10.5195465 15.007874 -23.496063 15.007874l0 0c-12.976518 0 -23.496063 -6.7192535 -23.496063 -15.007874z" fill-rule="nonzero"></path><path stroke="#000000" stroke-width="1.0" stroke-linejoin="round" stroke-linecap="butt" d="m0 19.007874l0 0c0 -8.288619 10.519546 -15.007874 23.496063 -15.007874l0 0c12.976517 0 23.496063 6.7192545 23.496063 15.007874l0 0c0 8.28862 -10.5195465 15.007874 -23.496063 15.007874l0 0c-12.976518 0 -23.496063 -6.7192535 -23.496063 -15.007874z" fill-rule="nonzero"></path><path fill="#000000" d="m28.005974 24.474747q1.265625 0.859375 2.3125 1.265625l-0.53125 1.25q-1.453125 -0.53125 -2.921875 -1.671875q-1.5 0.84375 -3.328125 0.84375q-1.84375 0 -3.359375 -0.890625q-1.5 -0.890625 -2.3125 -2.5q-0.8125 -1.625 -0.8125 -3.640625q0 -2.015625 0.8125 -3.65625q0.828125 -1.65625 2.328125 -2.515625q1.515625 -0.875 3.375 -0.875q1.890625 0 3.390625 0.90625q1.515625 0.890625 2.3125 2.5q0.796875 1.609375 0.796875 3.625q0 1.6875 -0.515625 3.03125q-0.515625 1.328125 -1.546875 2.328125zm-3.953125 -2.296875q1.5625 0.421875 2.5625 1.296875q1.59375 -1.453125 1.59375 -4.359375q0 -1.65625 -0.5625 -2.875q-0.5625 -1.234375 -1.640625 -1.921875q-1.078125 -0.6875 -2.421875 -0.6875q-2.015625 0 -3.34375 1.390625q-1.328125 1.375 -1.328125 4.109375q0 2.65625 1.3125 4.078125q1.3125 1.40625 3.359375 1.40625q0.953125 0 1.8125 -0.359375q-0.84375 -0.546875 -1.78125 -0.78125l0.4375 -1.296875z" fill-rule="nonzero"></path><path fill="#000000" fill-opacity="0.0" d="m23.496063 126.0l0 -92.0" fill-rule="nonzero"></path><path stroke="#000000" stroke-width="1.0" stroke-linejoin="round" stroke-linecap="butt" d="m23.496063 126.0l0 -86.0" fill-rule="evenodd"></path><path fill="#000000" stroke="#000000" stroke-width="1.0" stroke-linecap="butt" d="m25.147795 40.0l-1.6517315 -4.5380974l-1.6517334 4.5380974z" fill-rule="evenodd"></path><path fill="#000000" fill-opacity="0.0" d="m137.17401 181.13062l11.842514 46.771652l-29.102364 7.3700867l-11.842514 -46.771652z" fill-rule="nonzero"></path><path fill="#000000" d="m121.81724 198.86525l0.69675446 -0.17643738q-0.9483261 -0.30786133 -1.2091141 -1.3378601q-0.16491699 -0.6513214 0.05670166 -1.303833q0.22162628 -0.65249634 0.79623413 -1.1203766q0.57460785 -0.46788025 1.4228363 -0.6826935q0.83306885 -0.21096802 1.5685654 -0.10710144q0.75447845 0.11517334 1.240921 0.5722351q0.50159454 0.4532318 0.6741791 1.1348572q0.1265564 0.4998474 0.014221191 0.94737244q-0.112342834 0.44752502 -0.38420868 0.7742615l2.7415695 -0.69429016l0.23779297 0.93911743l-7.6340103 1.9332886l-0.22244263 -0.87854004zm2.0088654 -3.6517944q-1.0602798 0.2685089 -1.4792023 0.842041q-0.39993286 0.5848236 -0.24652863 1.1907043q0.15724182 0.6210327 0.76447296 0.91856384q0.60723877 0.29753113 1.6372223 0.03668213q1.1360092 -0.2876892 1.5549316 -0.86120605q0.42275238 -0.5583801 0.2578354 -1.2097015q-0.15724182 -0.62101746 -0.7796173 -0.9147186q-0.6034012 -0.28237915 -1.7091141 -0.0023651123zm1.2829971 9.141281l0.12427521 1.0000916q-0.90574646 -0.012390137 -1.5325394 -0.5145111q-0.62680054 -0.502121 -0.86841583 -1.4563751q-0.3068161 -1.2117615 0.25512695 -2.1116333q0.5619354 -0.8998718 1.9100037 -1.2412567q1.4086609 -0.35673523 2.3462524 0.16337585q0.9565811 0.53141785 1.2442245 1.66745q0.28379822 1.1208801 -0.29711914 2.00943q-0.56578064 0.88471985 -1.9441376 1.2337952q-0.075737 0.019180298 -0.24235535 0.06137085l-1.0431747 -4.11998q-0.8973007 0.275589 -1.2669449 0.8527527q-0.36580658 0.5923004 -0.18938446 1.2890625q0.13039398 0.5149994 0.4799347 0.813324q0.36468506 0.29447937 1.0242538 0.35310364zm0.7361374 -3.458435l0.78237915 3.089981q0.6814194 -0.23703003 0.95692444 -0.61305237q0.41508484 -0.5886688 0.23482513 -1.3005676q-0.16490936 -0.6513214 -0.71539307 -0.97935486q-0.5353317 -0.33184814 -1.2587357 -0.19700623zm-4.1481476 6.40654l7.649147 -1.9371338l0.21861267 0.86338806l-0.7118988 0.1802826q0.485672 0.19937134 0.7936096 0.52433777q0.30792236 0.3249817 0.44599915 0.8702698q0.17642212 0.6967621 -0.049041748 1.3341217q-0.22544861 0.63734436 -0.822876 1.0787811q-0.58229065 0.4375763 -1.3850708 0.6408844q-0.8482208 0.21481323 -1.6065292 0.084487915q-0.74316406 -0.13417053 -1.2562637 -0.632843q-0.5092621 -0.4835205 -0.6703415 -1.11969q-0.118888855 -0.46955872 -0.017860413 -0.8981018q0.10486603 -0.4133911 0.34643555 -0.73246765l-2.6961365 0.68278503l-0.23778534 -0.9391022zm5.06176 -0.3792572q-1.0602798 0.2685089 -1.4640503 0.8381958q-0.3886261 0.5658417 -0.23521423 1.1717224q0.15724182 0.6210327 0.7834549 0.9298706q0.645195 0.3201599 1.7660599 0.03630066q1.0451355 -0.26467896 1.4640503 -0.8381958q0.42276 -0.55836487 0.26934814 -1.1642456q-0.15341187 -0.60588074 -0.83273315 -0.93351746q-0.67549133 -0.31248474 -1.7509155 -0.040130615zm0.07243347 4.805786l0.38542175 0.88560486q-0.54125977 0.21766663 -0.7559891 0.64276123q-0.19573975 0.43641663 -0.03466797 1.072586q0.16491699 0.6513214 0.499115 0.88905334q0.33803558 0.2528839 0.701561 0.16081238q0.31808472 -0.08055115 0.43081665 -0.39923096q0.07131958 -0.2276001 0.07646179 -1.0348053q-0.0032958984 -1.0952148 0.074920654 -1.5502167q0.09718323 -0.4436798 0.37672424 -0.74012756q0.28337097 -0.28131104 0.69233704 -0.38487244q0.37867737 -0.09590149 0.72380066 -0.005996704q0.36026 0.08605957 0.6490326 0.33529663q0.2203064 0.16986084 0.4222107 0.52168274q0.2019043 0.35183716 0.30929565 0.77593994q0.16491699 0.6513214 0.10588074 1.1820679q-0.0552063 0.5458832 -0.3309021 0.85746765q-0.25672913 0.3229065 -0.763855 0.5480499l-0.35128784 -0.8781433q0.40493774 -0.18313599 0.5554352 -0.5436096q0.16947937 -0.34916687 0.031417847 -0.89445496q-0.16491699 -0.6513214 -0.4460144 -0.8702698q-0.28108215 -0.21894836 -0.5688782 -0.14605713q-0.1817627 0.046020508 -0.29122925 0.18656921q-0.120788574 0.1595459 -0.16545105 0.42874146q-0.010925293 0.1478424 -0.031417847 0.8944702q-0.0082092285 1.0497589 -0.07510376 1.4857788q-0.06690979 0.4360199 -0.3426056 0.74760437q-0.26055908 0.30776978 -0.7452545 0.43051147q-0.4695511 0.11891174 -0.9475479 -0.0501709q-0.47799683 -0.16906738 -0.8356018 -0.6265259q-0.35759735 -0.4574585 -0.5225067 -1.1087799q-0.27230072 -1.0754395 0.021217346 -1.7622681q0.3125 -0.67552185 1.1526642 -1.049469z" fill-rule="nonzero"></path><path fill="#000000" fill-opacity="0.0" d="m136.62865 226.32948l18.960632 -44.37796l28.283463 12.094498l-18.960632 44.377945z" fill-rule="nonzero"></path><path fill="#000000" d="m159.5925 221.55168l-0.66085815 -0.28259277q0.5670624 0.8202667 0.14961243 1.7973328q-0.26397705 0.6178436 -0.83592224 1.0020294q-0.57192993 0.38420105 -1.3124847 0.4073944q-0.74053955 0.023208618 -1.5450745 -0.32081604q-0.79016113 -0.33789062 -1.3117828 -0.86683655q-0.52986145 -0.54945374 -0.6392822 -1.2080078q-0.123794556 -0.6647186 0.15245056 -1.3112946q0.20259094 -0.47416687 0.56333923 -0.761734q0.3607483 -0.28756714 0.7750397 -0.38230896l-2.600357 -1.111969l0.38061523 -0.8908386l7.2407684 3.0962677l-0.35606384 0.833374zm-3.8118286 1.6837616q1.005661 0.43003845 1.6865234 0.22836304q0.67263794 -0.22216797 0.91819763 -0.7969055q0.25169373 -0.5891113 -0.05050659 -1.1941681q-0.30220032 -0.6050415 -1.2791443 -1.0227966q-1.0774841 -0.4607544 -1.7583466 -0.25909424q-0.6747284 0.18730164 -0.93870544 0.80514526q-0.25169373 0.5891113 0.06488037 1.2003021q0.3083496 0.590683 1.3571014 1.039154zm4.524872 -8.04538l0.50782776 -0.8704376q0.71243286 0.55955505 0.9061127 1.3391113q0.19366455 0.7795563 -0.19309998 1.6847687q-0.49111938 1.1494751 -1.4836121 1.5237732q-0.9924927 0.3742981 -2.2711182 -0.1724701q-1.3361053 -0.57133484 -1.7658997 -1.5538177q-0.4380188 -1.003006 0.022399902 -2.0806427q0.45428467 -1.0632629 1.4550171 -1.4170532q0.9863434 -0.35992432 2.2937164 0.1991272q0.07182312 0.030715942 0.2298584 0.09829712l-1.6697998 3.9082336q0.88041687 0.32548523 1.5243073 0.091033936q0.6500397 -0.24884033 0.9324341 -0.90979004q0.20872498 -0.4885254 0.111831665 -0.9378052q-0.11126709 -0.45542908 -0.5999756 -0.9023285zm-2.6828766 2.3024597l1.2523499 -2.9311676q-0.6854248 -0.22512817 -1.1324921 -0.09341431q-0.68699646 0.21603394 -0.9755249 0.8913574q-0.26397705 0.6178436 -0.025390625 1.212677q0.22424316 0.5887146 0.88105774 0.9205475zm7.183197 -2.575241l-7.255127 -3.102417l0.34991455 -0.8190155l0.67523193 0.28874207q-0.26512146 -0.4532318 -0.31277466 -0.89845276q-0.0476532 -0.44522095 0.17333984 -0.9624939q0.2823944 -0.6609497 0.84820557 -1.030777q0.5657959 -0.369812 1.3084259 -0.35813904q0.7282715 0.0055236816 1.4897003 0.33113098q0.8045349 0.34402466 1.3282471 0.9078522q0.50935364 0.5576782 0.61473083 1.2654877q0.11151123 0.6934509 -0.14631653 1.2969208q-0.19030762 0.44543457 -0.5305481 0.7247772q-0.33410645 0.26498413 -0.7196655 0.37200928l2.557251 1.0935211l-0.38061523 0.8908539zm-4.253525 -2.770523q1.005661 0.43003845 1.6721497 0.22221375q0.6521301 -0.21394348 0.8976898 -0.78868103q0.25170898 -0.5891113 -0.05873108 -1.2146759q-0.31866455 -0.6460724 -1.3817902 -1.1006775q-0.9913025 -0.42390442 -1.6721497 -0.222229q-0.6747284 0.18728638 -0.9202881 0.7620392q-0.24555969 0.57473755 0.095687866 1.247467q0.34739685 0.6583557 1.3674316 1.0945435zm2.8574066 -3.8642578l0.23080444 -0.937912q0.56225586 0.1554718 0.9907837 -0.052139282q0.42030334 -0.2281189 0.67814636 -0.831604q0.26397705 -0.6178436 0.14251709 -1.0096436q-0.11531067 -0.4061737 -0.46011353 -0.5536194q-0.30169678 -0.12901306 -0.5845947 0.055892944q-0.19473267 0.13764954 -0.68844604 0.7762146q-0.6616974 0.8726196 -0.9998474 1.1868439q-0.3463745 0.29371643 -0.74838257 0.35972595q-0.39587402 0.051635742 -0.7837677 -0.11424255q-0.35917664 -0.15357971 -0.5789795 -0.43450928q-0.23416138 -0.2870636 -0.31251526 -0.66044617q-0.07208252 -0.26872253 -0.019180298 -0.6709442q0.05290222 -0.40222168 0.22480774 -0.8045349q0.2639618 -0.6178436 0.6328125 -1.0039215q0.37498474 -0.4004364 0.7831421 -0.48080444q0.3999176 -0.10089111 0.93959045 0.027923584l-0.25341797 0.9112549q-0.43295288 -0.10017395 -0.77124023 0.095047q-0.34649658 0.17471313 -0.5675049 0.6919708q-0.26397705 0.6178436 -0.17333984 0.96247864q0.09062195 0.34465027 0.36358643 0.46138q0.17240906 0.07371521 0.3446808 0.028427124q0.19277954 -0.053512573 0.39157104 -0.24040222q0.098342896 -0.11088562 0.5675049 -0.6919861q0.6432648 -0.82951355 0.960907 -1.1355133q0.31765747 -0.30599976 0.72579956 -0.3863678q0.39378357 -0.086517334 0.8535156 0.110061646q0.44535828 0.19044495 0.72276306 0.6149597q0.27738953 0.4244995 0.28416443 1.005188q0.0067749023 0.5806732 -0.25720215 1.1985168q-0.4358673 1.0201569 -1.0857849 1.3880005q-0.65812683 0.34733582 -1.5527802 0.13470459z" fill-rule="nonzero"></path><path fill="#000000" fill-opacity="0.0" d="m81.12184 104.50765l17.41732 -44.976383l28.692917 11.118114l-17.41732 44.97637z" fill-rule="nonzero"></path><path fill="#000000" d="m103.909035 98.94311l-0.6701889 -0.25969696q0.59490204 0.80026245 0.21121216 1.7910614q-0.24263 0.6265335 -0.80107117 1.030159q-0.55844116 0.40361786 -1.2977829 0.45227814q-0.7393341 0.04865265 -1.5552292 -0.2674942q-0.8013153 -0.3105011 -1.340805 -0.8211746q-0.54842377 -0.5308838 -0.6803894 -1.1852722q-0.14653015 -0.6600342 0.10738373 -1.315712q0.186203 -0.48082733 0.5368805 -0.7806244q0.3506775 -0.29979706 0.76148224 -0.40872955l-2.6370697 -1.0218277l0.34983826 -0.90338135l7.34301 2.8453217l-0.3272705 0.8450928zm-3.7519302 1.8137894q1.0198593 0.39518738 1.6934204 0.17022705q0.66464233 -0.2451706 0.8903427 -0.8279953q0.23134613 -0.59739685 -0.09146118 -1.1916733q-0.32279968 -0.5942764 -1.3135223 -0.9781647q-1.0927124 -0.42341614 -1.7662735 -0.19845581q-0.667923 0.21038055 -0.910553 0.8369217q-0.23134613 0.5973892 0.106025696 1.197319q0.32844543 0.5797043 1.3920212 0.9918213zm4.246277 -8.195946l0.47768402 -0.887352q0.73124695 0.5347061 0.951561 1.307106q0.2203064 0.77240753 -0.13516998 1.6903534q-0.4514084 1.1656494 -1.4305115 1.5738373q-0.9791031 0.4081955 -2.2757797 -0.09425354q-1.3549652 -0.52503204 -1.8182373 -1.4921188q-0.4721985 -0.9873123 -0.04901123 -2.080101q0.41754913 -1.0782242 1.4055786 -1.4662018q0.97345734 -0.39362335 2.2992783 0.12011719q0.07285309 0.02822876 0.23311615 0.09033203l-1.5347672 3.9631958q0.8910904 0.29502106 1.5265884 0.03855896q0.6411438 -0.27103424 0.90070343 -0.9412842q0.19184113 -0.49539948 0.079582214 -0.94107056q-0.12683105 -0.4513092 -0.63061523 -0.8811188zm-2.6023788 2.3932877l1.1510773 -2.9724045q-0.6927643 -0.20140839 -1.1350708 -0.05441284q-0.67920685 0.23952484 -0.9444046 0.9243469q-0.24263 0.6265335 0.01625061 1.2127991q0.24430847 0.5806198 0.9121475 0.8896713zm7.0908585 -2.820671l-7.3575745 -2.8509598l0.32162476 -0.83052826l0.68476105 0.26533508q-0.2805252 -0.44384003 -0.34342957 -0.88713837q-0.06291199 -0.44330597 0.14022064 -0.9678421q0.259552 -0.67024994 0.81235504 -1.0593033q0.5527954 -0.38904572 1.2954178 -0.40291595q0.72805023 -0.019515991 1.5002365 0.2796936q0.81588745 0.31614685 1.3586655 0.8616028q0.5282059 0.5398102 0.657814 1.2435608q0.13524628 0.68917084 -0.101737976 1.3011398q-0.17491913 0.45168304 -0.50538635 0.74256134q-0.32482147 0.27629852 -0.70648956 0.39652252l2.593361 1.0048904l-0.34983826 0.90338135zm-4.346245 -2.6225052q1.019867 0.39517975 1.6788559 0.1645813q0.64443207 -0.2362442 0.87013245 -0.8190689q0.2313385 -0.59739685 -0.10038757 -1.2118912q-0.34065247 -0.6347122 -1.4187927 -1.052475q-1.0052948 -0.389534 -1.6788559 -0.1645813q-0.667923 0.21038818 -0.893631 0.7932129q-0.22570038 0.5828247 0.13845062 1.243393q0.36979675 0.6460037 1.4042282 1.0468292zm2.7232208 -3.9600906l0.19850159 -0.9452667q0.56728363 0.1360321 0.9884491 -0.08618164q0.41223907 -0.24243164 0.64923096 -0.854393q0.24262238 -0.62654114 0.107795715 -1.0139236q-0.12918854 -0.40195465 -0.47885895 -0.53744507q-0.30595398 -0.11856079 -0.5823517 0.07596588q-0.18991089 0.14425659 -0.661438 0.7993927q-0.6313782 0.8948288 -0.9585571 1.2204895q-0.33611298 0.3054428 -0.73563385 0.38523102q-0.39388275 0.065223694 -0.78725433 -0.08720398q-0.36424255 -0.14113617 -0.59355927 -0.41432953q-0.24388885 -0.27882385 -0.33501434 -0.64927673q-0.08126831 -0.2660904 -0.04219055 -0.66986847q0.03907776 -0.4037857 0.19706726 -0.81175995q0.24263 -0.62654114 0.59802246 -1.0250549q0.3610382 -0.4130783 0.76620483 -0.50743866q0.39624023 -0.11457825 0.9400253 -0.00440979l-0.2219925 0.9194031q-0.43615723 -0.08522034 -0.76755524 0.12150574q-0.34031677 0.18651581 -0.5434494 0.7110596q-0.24263 0.6265335 -0.14022064 0.9678421q0.10240173 0.3413086 0.37922668 0.44857025q0.1748352 0.06774902 0.34545135 0.016563416q0.19084167 -0.060112 0.38310242 -0.25372314q0.09449768 -0.11419678 0.54345703 -0.7110596q0.6144409 -0.85111237 0.9214096 -1.1678467q0.30697632 -0.3167343 0.71214294 -0.41109467q0.39059448 -0.1000061 0.85681915 0.08065033q0.45165253 0.17501068 0.7434616 0.5897064q0.29180908 0.41469574 0.31850433 0.9947815q0.026695251 0.58008575 -0.21593475 1.2066193q-0.4006195 1.0345078 -1.0375519 1.4244766q-0.64585876 0.36975098 -1.5473099 0.1880188z" fill-rule="nonzero"></path><path fill="#000000" fill-opacity="0.0" d="m171.07939 43.463318l21.732285 43.08661l-26.803146 13.511818l-21.732285 -43.086617z" fill-rule="nonzero"></path><path fill="#000000" d="m159.94344 64.10798l0.6417999 -0.32354355q-0.9926758 -0.094516754 -1.4711609 -1.0431747q-0.30256653 -0.59988785 -0.22807312 -1.284874q0.07450867 -0.6849899 0.5337219 -1.2664528q0.45922852 -0.58145905 1.2405548 -0.9753418q0.76737976 -0.38684464 1.5079498 -0.4452057q0.7615509 -0.051445007 1.3357697 0.2890129q0.58818054 0.3334236 0.90483093 0.96121216q0.23220825 0.46038055 0.21983337 0.92157364q-0.012390137 0.46119308 -0.20675659 0.83914566l2.5253906 -1.2730789l0.43626404 0.8649521l-7.032013 3.5449257l-0.40811157 -0.8091507zm1.1671906 -4.0005302q-0.9766693 0.49235153 -1.2609406 1.1431007q-0.26327515 0.65766907 0.018188477 1.215702q0.28849792 0.57198715 0.94595337 0.7305031q0.65745544 0.15851593 1.6062164 -0.319767q1.0464325 -0.5275192 1.3307037 -1.1782722q0.29130554 -0.63679886 -0.011276245 -1.2366867q-0.28849792 -0.57198334 -0.9598999 -0.72346497q-0.65042114 -0.14456558 -1.6689453 0.36888504zm3.239624 8.643436l0.33872986 0.94911957q-0.8868866 0.18462372 -1.6079102 -0.16932678q-0.72102356 -0.35394287 -1.1643372 -1.2328491q-0.56292725 -1.116066 -0.2099762 -2.1164017q0.3529358 -1.0003357 1.594696 -1.6263275q1.2975769 -0.6541214 2.3259277 -0.35011292q1.0493164 0.31093597 1.5770721 1.3572464q0.5207062 1.0323639 0.14677429 2.0257797q-0.35998535 0.98638916 -1.6296539 1.626442q-0.06976318 0.03517151 -0.22323608 0.1125412l-1.9139557 -3.7946396q-0.81604004 0.46387482 -1.0514221 1.1074753q-0.22833252 0.657547 0.09535217 1.2992859q0.23924255 0.47433472 0.64530945 0.6895828q0.4200287 0.2082138 1.0766296 0.12218475zm-0.033187866 -3.5353851l1.4354706 2.8459778q0.6136627 -0.37934875 0.8008728 -0.8061905q0.27722168 -0.66469574 -0.053497314 -1.3203888q-0.30256653 -0.59989166 -0.9112549 -0.80049133q-0.59472656 -0.20763397 -1.2715912 0.081092834zm-2.656723 7.153839l7.0459595 -3.5519638l0.40109253 0.79520416l-0.6557617 0.33057404q0.5174408 0.08911133 0.88868713 0.3394165q0.37124634 0.25029755 0.62457275 0.75253296q0.3236847 0.6417389 0.24214172 1.3127747q-0.08154297 0.67103577 -0.5687866 1.2316284q-0.47329712 0.55355835 -1.2127686 0.9263382q-0.78134155 0.39388275 -1.5499268 0.4313736q-0.7546387 0.030464172 -1.3639221 -0.3448105q-0.60224915 -0.36132812 -0.8977814 -0.9472656q-0.21813965 -0.43247986 -0.212677 -0.8726883q0.012496948 -0.42625427 0.17897034 -0.79013824l-2.4835358 1.251976l-0.43626404 -0.8649521zm4.8588104 -1.4694977q-0.9766693 0.49234772 -1.2469788 1.1360626q-0.25636292 0.63668823 0.025100708 1.1947174q0.28849792 0.57199097 0.9669342 0.7374191q0.6994324 0.17235565 1.7319183 -0.34812927q0.9627075 -0.48532104 1.2469788 -1.1360703q0.2913208 -0.6368027 0.009841919 -1.1948318q-0.28146362 -0.5580368 -1.0158386 -0.7302704q-0.72732544 -0.15828705 -1.7179565 0.3411026zm1.1154175 4.67482l0.5687561 0.78066254q-0.48104858 0.33000183 -0.5982666 0.79154205q-0.096206665 0.46846008 0.19932556 1.0543976q0.3025818 0.59988403 0.6804962 0.75933075q0.384964 0.17339325 0.7198181 0.0045928955q0.29299927 -0.14770508 0.33377075 -0.48322296q0.020141602 -0.23763275 -0.15029907 -1.0266113q-0.24130249 -1.0682297 -0.26387024 -1.5293045q-0.0015716553 -0.4541626 0.20687866 -0.8042145q0.21546936 -0.33609772 0.5921936 -0.5260086q0.34880066 -0.17583466 0.70526123 -0.16304779q0.37039185 0.0057525635 0.7064667 0.18630219q0.25198364 0.11794281 0.52557373 0.41748047q0.27357483 0.29953766 0.4705963 0.690155q0.3025818 0.59989166 0.36032104 1.130722q0.06477356 0.5447769 -0.1366272 0.90878296q-0.18040466 0.37091827 -0.6265259 0.70079803l-0.5338135 -0.7807846q0.355484 -0.26669312 0.42404175 -0.6512146q0.089538574 -0.37760162 -0.16378784 -0.87983704q-0.30256653 -0.59988403 -0.6245575 -0.7525253q-0.32199097 -0.15264893 -0.58709717 -0.019012451q-0.16741943 0.08440399 -0.2437439 0.24536133q-0.083221436 0.1819458 -0.06829834 0.45439148q0.021469116 0.14665985 0.16377258 0.87983704q0.22018433 1.0263748 0.2496643 1.4664688q0.02947998 0.440094 -0.17193604 0.8040924q-0.18743896 0.35697174 -0.6339264 0.5820465q-0.43252563 0.21804047 -0.9358978 0.15682983q-0.5033722 -0.061210632 -0.9519043 -0.43003845q-0.4485321 -0.3688202 -0.75109863 -0.96871185q-0.49960327 -0.99050903 -0.36238098 -1.724617q0.15821838 -0.7271881 0.8970947 -1.274643z" fill-rule="nonzero"></path><path fill="#000000" fill-opacity="0.0" d="m62.48595 164.64017l52.724415 69.291336l-23.874016 18.173233l-52.724415 -69.29135z" fill-rule="nonzero"></path><path fill="#000000" d="m53.061855 184.02805l4.53796 -3.4543457l0.52038574 0.6838989l-0.68379974 0.5205231q0.6930313 -0.09553528 1.0125313 0.014709473q0.31950378 0.11026001 0.5181961 0.37138367q0.30277252 0.39790344 0.35688782 0.98509216l-0.9073601 0.2783203q-0.055992126 -0.4090271 -0.27360916 -0.6950226q-0.18923187 -0.24868774 -0.48981094 -0.33407593q-0.30057907 -0.08538818 -0.64033127 0.03578186q-0.50489426 0.18797302 -0.9897728 0.5570679l-2.3746567 1.8076172l-0.58662033 -0.7709503zm4.4196167 5.8083496l0.67136765 -0.5110626q-1.1776772 0.052078247 -1.8683739 -0.85565186q-0.30277252 -0.39790344 -0.42796326 -0.8720703q-0.10329819 -0.47120667 -0.01197052 -0.8156433q0.113220215 -0.34146118 0.40159607 -0.6591644q0.1859436 -0.22007751 0.68325424 -0.5986481l2.809803 -2.138855l0.58662033 0.77093506l-2.5114174 1.9117279q-0.60920715 0.46374512 -0.78271484 0.6743622q-0.24161911 0.30174255 -0.24536896 0.6580658q0.005710602 0.36875916 0.2706375 0.71691895q0.2649231 0.34817505 0.6660614 0.5140991q0.42303085 0.1689148 0.8160324 0.06611633q0.40543365 -0.11224365 0.9773407 -0.54759216l2.436821 -1.85495l0.58662033 0.7709503l-4.53796 3.454361l-0.52038574 -0.6838989zm1.3179626 1.7320862l4.537956 -3.454361l0.52985 0.69633484l-0.64650345 0.49212646q1.1244316 -0.07044983 1.8435097 0.87457275q0.31223297 0.41033936 0.42796326 0.8720856q0.1281662 0.4522705 0.0025100708 0.80319214q-0.103759766 0.3538971 -0.3702469 0.6745758q-0.19540405 0.20765686 -0.730011 0.61460876l-2.7849388 2.119934l-0.5866165 -0.7709503l2.7600708 -2.100998q0.47244644 -0.3596344 0.6300087 -0.6170349q0.16999054 -0.26686096 0.12697601 -0.60720825q-0.021110535 -0.33740234 -0.25765228 -0.6482544q-0.3690033 -0.48495483 -0.9542084 -0.608963q-0.5852051 -0.12399292 -1.4679298 0.5479431l-2.474121 1.8833313l-0.5866165 -0.77093506zm5.5593147 5.886963l-0.5956726 0.61053467q-0.3205986 -0.26651 -0.5098305 -0.515213q-0.32169342 -0.42277527 -0.36470413 -0.7631378q-0.033546448 -0.32792664 0.10211563 -0.58828735q0.14512634 -0.2479248 0.841362 -0.7779083l2.6108818 -1.987442l-0.43523407 -0.57199097l0.59677124 -0.4542694l0.43523407 0.57199097l1.1189499 -0.85176086l1.0495987 0.39888l-1.5913925 1.2113953l0.59607697 0.783371l-0.59677124 0.4542694l-0.59607697 -0.783371l-2.660614 2.025299q-0.32324982 0.24606323 -0.39432907 0.35906982q-0.04918289 0.115982056 -0.04511261 0.25035095q0.025959015 0.1373291 0.14896011 0.2989807q0.1040802 0.13677979 0.2897873 0.3292389zm5.215065 -2.8999329l0.8827286 -0.67193604l0.5866165 0.77093506l-0.88272095 0.6719513l-0.58662415 -0.7709503zm-5.3833847 4.0979156l4.537964 -3.454361l0.5866165 0.7709503l-4.537956 3.4543457l-0.58662415 -0.77093506zm1.4241486 1.8716278l4.537956 -3.454361l0.5298462 0.6963501l-0.6340637 0.48265076q0.49652863 -0.044128418 0.9603729 0.15261841q0.47331238 0.20916748 0.8139343 0.6568146q0.3879242 0.50982666 0.42256927 0.9940033q0.047073364 0.47473145 -0.23426056 0.90489197q1.2025452 -0.071014404 1.8553925 0.78697205q0.52038574 0.6839142 0.42179108 1.3284302q-0.098594666 0.644516 -0.86943054 1.2312927l-3.1206207 2.3754578l-0.57715607 -0.7585144l2.8595352 -2.176712q0.4600067 -0.35017395 0.6021652 -0.5762024q0.15458679 -0.23548889 0.12753296 -0.52908325q-0.027061462 -0.29359436 -0.22575378 -0.554718q-0.3690033 -0.48495483 -0.9382553 -0.5621948q-0.55979156 -0.06478882 -1.2560272 0.4651947l-2.6357422 2.006363l-0.58662415 -0.7709503l2.9465637 -2.2429657q0.50974274 -0.38801575 0.6289139 -0.7732849q0.11916351 -0.3852539 -0.2025299 -0.8080292q-0.2460022 -0.32330322 -0.63768005 -0.47680664q-0.3822174 -0.1410675 -0.81251526 -0.009887695q-0.41786957 0.12171936 -1.039505 0.5949249l-2.3497925 1.7886963l-0.5866165 -0.7709503zm9.207695 9.056122l0.5060806 0.87153625q-0.83815765 0.34346008 -1.611496 0.12702942q-0.7733383 -0.21644592 -1.3694229 -0.9998169q-0.7569275 -0.99476624 -0.59241486 -2.042923q0.16451263 -1.048172 1.2710266 -1.8904572q1.1562424 -0.8801575 2.22258 -0.76893616q1.0882263 0.11419678 1.7978439 1.0467987q0.70015717 0.92015076 0.5137558 1.9653473q-0.17397308 1.0357208 -1.3053589 1.8969574q-0.062156677 0.047317505 -0.1989212 0.15141296l-2.573555 -3.3822021q-0.7175751 0.6051483 -0.8315811 1.2810211q-0.104537964 0.688324 0.3306961 1.260315q0.32169342 0.42277527 0.76013184 0.560318q0.4508667 0.12808228 1.0806351 -0.07640076zm-0.67742157 -3.4706116l1.9301605 2.5366516q0.53406525 -0.4850769 0.64024353 -0.9390106q0.15129852 -0.7042694 -0.293396 -1.2886963q-0.4068451 -0.5346985 -1.0417786 -0.62083435q-0.6225052 -0.09561157 -1.2352295 0.31188965zm-1.8461914 6.8112946l0.55947113 -0.4258728l3.8792496 5.098175l-0.55947113 0.4258728l-3.8792496 -5.098175zm8.111038 7.0471954l0.57190704 -0.43533325q-0.9930649 0.088272095 -1.6364517 -0.75727844q-0.40685272 -0.5346832 -0.45854187 -1.2219086q-0.051696777 -0.6872101 0.2936859 -1.3428497q0.34537506 -0.65563965 1.0416107 -1.1856232q0.68379974 -0.5205231 1.4011459 -0.7131195q0.7392502 -0.18962097 1.3658218 0.04034424q0.63899994 0.22052002 1.0647736 0.7800751q0.31223297 0.41033936 0.38417053 0.86613464q0.07194519 0.4557953 -0.050186157 0.8629608l2.250328 -1.7129822l0.5866165 0.77093506l-6.2661133 4.7698517l-0.5487671 -0.72120667zm0.4177475 -4.1471863q-0.87029266 0.6624756 -1.0310516 1.3543243q-0.13887024 0.69480896 0.2395935 1.1921997q0.38793182 0.5098114 1.0631332 0.54566956q0.67520905 0.035858154 1.5206375 -0.60769653q0.932457 -0.7097931 1.093216 -1.4016418q0.17021942 -0.67941284 -0.23662567 -1.2140961q-0.3879242 -0.5098114 -1.0755692 -0.5362091q-0.66574097 -0.023422241 -1.5733337 0.66744995zm4.761055 7.908478l0.5060806 0.871521q-0.83815765 0.34346008 -1.611496 0.12702942q-0.77334595 -0.21643066 -1.3694229 -0.9998169q-0.7569275 -0.99476624 -0.59241486 -2.042923q0.16451263 -1.0481567 1.2710266 -1.8904572q1.1562424 -0.8801422 2.22258 -0.7689209q1.0882263 0.11419678 1.7978439 1.0467834q0.70015717 0.920166 0.5137558 1.9653625q-0.17397308 1.0357208 -1.3053589 1.8969421q-0.062164307 0.047317505 -0.1989212 0.15142822l-2.573555 -3.3822174q-0.7175751 0.6051483 -0.8315811 1.2810364q-0.104537964 0.688324 0.3306961 1.260315q0.32169342 0.42277527 0.76013184 0.560318q0.4508667 0.12806702 1.0806351 -0.07640076zm-0.67742157 -3.4706268l1.9301605 2.5366669q0.53406525 -0.48509216 0.64024353 -0.9390106q0.15129852 -0.70428467 -0.293396 -1.2887115q-0.4068451 -0.5346832 -1.0417862 -0.62083435q-0.62249756 -0.09561157 -1.2352219 0.31188965zm-1.3068848 7.5200806l6.278549 -4.779312l0.53930664 0.70877075l-0.58434296 0.4447937q0.5249176 -0.0068359375 0.93551636 0.1715393q0.41059875 0.17837524 0.7512207 0.62602234q0.43523407 0.57199097 0.47746277 1.2467651q0.0422287 0.67477417 -0.33450317 1.3150177q-0.3643036 0.6307678 -1.0232391 1.13237q-0.69623566 0.5299835 -1.4449387 0.7071686q-0.7362747 0.16772461 -1.4036636 -0.09008789q-0.65792084 -0.24537659 -1.0553131 -0.76763916q-0.29330444 -0.38546753 -0.36821747 -0.81936646q-0.065452576 -0.421463 0.031814575 -0.8096924l-2.2130356 1.6845856l-0.5866165 -0.77093506zm4.5083313 -2.332138q-0.87029266 0.6624756 -1.0186157 1.3448486q-0.13589478 0.6729126 0.24256897 1.1703033q0.3879242 0.5098114 1.085022 0.548645q0.71899414 0.041793823 1.6390152 -0.6585388q0.8578644 -0.65301514 1.0186234 -1.3448639q0.17022705 -0.6793976 -0.2082367 -1.1767883q-0.37846375 -0.4973755 -1.1317902 -0.5326843q-0.74385834 -0.022872925 -1.6265869 0.64907837zm1.949089 4.3935547l0.7014847 0.6638794q-0.41270447 0.41233826 -0.44374084 0.88760376q-0.009140015 0.47825623 0.38824463 1.0005035q0.4068451 0.5346832 0.8074341 0.62249756q0.41004944 0.100234985 0.70843506 -0.12690735q0.26109314 -0.19874573 0.23997498 -0.5361328q-0.023536682 -0.23736572 -0.33499146 -0.9821167q-0.43202972 -1.0064392 -0.53829956 -1.4557495q-0.084373474 -0.44631958 0.056678772 -0.8286133q0.15052032 -0.3698578 0.48620605 -0.6253967q0.31082153 -0.23658752 0.66355133 -0.28909302q0.3651657 -0.061965942 0.7284546 0.054229736q0.26922607 0.06997681 0.5927963 0.3146057q0.32357025 0.24461365 0.58849335 0.59277344q0.4068451 0.5346985 0.5604248 1.0461731q0.16304016 0.5239105 0.031440735 0.9186249q-0.109703064 0.39770508 -0.48807526 0.8035431l-0.66716003 -0.6703491q0.30081177 -0.32717896 0.2980652 -0.7178192q0.01915741 -0.38768005 -0.3214569 -0.83532715q-0.40685272 -0.5346832 -0.7512207 -0.62602234q-0.34436798 -0.09132385 -0.5805893 0.08850098q-0.14919281 0.11355591 -0.19485474 0.28578186q-0.04863739 0.19410706 0.015724182 0.45932007q0.047851562 0.14030457 0.3214569 0.83532715q0.40364838 0.96913147 0.5128937 1.3965302q0.10923767 0.42741394 -0.022361755 0.8221283q-0.11916351 0.38526917 -0.51701355 0.68811035q-0.38541412 0.29338074 -0.8914032 0.3250885q-0.5059967 0.031707764 -1.014183 -0.24909973q-0.50818634 -0.28082275 -0.91503143 -0.815506q-0.6717758 -0.8828583 -0.6707611 -1.6298218q0.022903442 -0.7440033 0.64938354 -1.4172668z" fill-rule="nonzero"></path><path fill="#000000" fill-opacity="0.0" d="m53.480316 55.42551l0 49.165356l-29.984253 0l0 -49.165356z" fill-rule="nonzero"></path><path fill="#000000" d="m34.240314 68.84738l0.71875 0q-0.84375 -0.53125 -0.84375 -1.59375q0 -0.671875 0.375 -1.25q0.375 -0.578125 1.046875 -0.890625q0.671875 -0.3125 1.546875 -0.3125q0.859375 0 1.546875 0.28125q0.703125 0.296875 1.0625 0.859375q0.375 0.5625 0.375 1.265625q0 0.515625 -0.21875 0.921875q-0.21875 0.40625 -0.5625 0.65625l2.828125 0l0 0.96875l-7.875 0l0 -0.90625zm2.84375 -3.046875q-1.09375 0 -1.640625 0.453125q-0.53125 0.46875 -0.53125 1.09375q0 0.640625 0.515625 1.078125q0.515625 0.4375 1.578125 0.4375q1.171875 0 1.71875 -0.453125q0.546875 -0.4375 0.546875 -1.109375q0 -0.640625 -0.53125 -1.078125q-0.515625 -0.421875 -1.65625 -0.421875zm-1.0 9.176498l-0.125 1.0q-0.875 -0.234375 -1.359375 -0.875q-0.484375 -0.640625 -0.484375 -1.625q0 -1.25 0.765625 -1.984375q0.765625 -0.734375 2.15625 -0.734375q1.453125 0 2.234375 0.734375q0.796875 0.75 0.796875 1.921875q0 1.15625 -0.78125 1.875q-0.765625 0.71875 -2.1875 0.71875q-0.078125 0 -0.25 0l0 -4.25q-0.9375 0.046875 -1.4375 0.515625q-0.5 0.484375 -0.5 1.203125q0 0.53125 0.265625 0.90625q0.28125 0.375 0.90625 0.59375zm1.5625 -3.171875l0 3.1875q0.71875 -0.0625 1.078125 -0.359375q0.546875 -0.46875 0.546875 -1.203125q0 -0.671875 -0.453125 -1.125q-0.4375 -0.453125 -1.171875 -0.5zm-5.59375 5.1921234l7.890625 0l0 0.890625l-0.734375 0q0.421875 0.3125 0.640625 0.703125q0.21875 0.390625 0.21875 0.953125q0 0.71875 -0.375 1.28125q-0.375 0.5625 -1.0625 0.84375q-0.671875 0.28125 -1.5 0.28125q-0.875 0 -1.578125 -0.3125q-0.6875 -0.3125 -1.0625 -0.921875q-0.375 -0.59375 -0.375 -1.25q0 -0.484375 0.203125 -0.875q0.203125 -0.375 0.515625 -0.625l-2.78125 0l0 -0.96875zm5.0 0.875q-1.09375 0 -1.625 0.453125q-0.515625 0.453125 -0.515625 1.078125q0 0.640625 0.53125 1.09375q0.546875 0.46875 1.703125 0.46875q1.078125 0 1.625 -0.453125q0.546875 -0.4375 0.546875 -1.0625q0 -0.625 -0.578125 -1.109375q-0.578125 -0.46875 -1.6875 -0.46875zm-1.109375 4.6764984l0.15625 0.953125q-0.578125 0.078125 -0.890625 0.4375q-0.296875 0.375 -0.296875 1.03125q0 0.671875 0.265625 0.984375q0.265625 0.328125 0.640625 0.328125q0.328125 0 0.515625 -0.28125q0.125 -0.203125 0.328125 -0.984375q0.265625 -1.0625 0.453125 -1.484375q0.203125 -0.40625 0.546875 -0.625q0.34375 -0.203125 0.765625 -0.203125q0.390625 0 0.703125 0.171875q0.328125 0.171875 0.546875 0.484375q0.171875 0.21875 0.28125 0.609375q0.109375 0.390625 0.109375 0.828125q0 0.671875 -0.1875 1.171875q-0.1875 0.515625 -0.53125 0.75q-0.328125 0.25 -0.875 0.34375l-0.125 -0.9375q0.4375 -0.078125 0.671875 -0.390625q0.25 -0.296875 0.25 -0.859375q0 -0.671875 -0.21875 -0.953125q-0.21875 -0.28125 -0.515625 -0.28125q-0.1875 0 -0.328125 0.109375q-0.15625 0.125 -0.265625 0.375q-0.046875 0.140625 -0.25 0.859375q-0.265625 1.015625 -0.4375 1.421875q-0.171875 0.40625 -0.515625 0.640625q-0.328125 0.234375 -0.828125 0.234375q-0.484375 0 -0.90625 -0.28125q-0.421875 -0.28125 -0.65625 -0.8125q-0.234375 -0.53125 -0.234375 -1.203125q0 -1.109375 0.453125 -1.703125q0.46875 -0.578125 1.375 -0.734375z" fill-rule="nonzero"></path></g></svg>

