<?xml version="1.0" encoding="UTF-8" standalone="no"?>
<!DOCTYPE svg PUBLIC "-//W3C//DTD SVG 1.1//EN"
 "http://www.w3.org/Graphics/SVG/1.1/DTD/svg11.dtd">
<!-- Generated by graphviz version 2.36.0 (20140111.2315)
 -->
<!-- Title: mygraph Pages: 1 -->
<svg width="406pt" height="190pt"
 viewBox="0.00 0.00 406.00 190.00" xmlns="http://www.w3.org/2000/svg" xmlns:xlink="http://www.w3.org/1999/xlink">
<g id="graph0" class="graph" transform="scale(1 1) rotate(0) translate(4 186)">
<title>mygraph</title>
<polygon fill="white" stroke="none" points="-4,4 -4,-186 402,-186 402,4 -4,4"/>
<!-- //main:hello&#45;world -->
<g id="node1" class="node"><title>//main:hello&#45;world</title>
<polygon fill="none" stroke="black" points="264.25,-182 145.75,-182 145.75,-146 264.25,-146 264.25,-182"/>
<text text-anchor="middle" x="205" y="-160.3" font-family="Times,serif" font-size="14.00">//main:hello&#45;world</text>
</g>
<!-- //main:hello&#45;time -->
<g id="node2" class="node"><title>//main:hello&#45;time</title>
<polygon fill="none" stroke="black" points="119.5,-110 8.5,-110 8.5,-74 119.5,-74 119.5,-110"/>
<text text-anchor="middle" x="64" y="-88.3" font-family="Times,serif" font-size="14.00">//main:hello&#45;time</text>
</g>
<!-- //main:hello&#45;world&#45;&gt;//main:hello&#45;time -->
<g id="edge1" class="edge"><title>//main:hello&#45;world&#45;&gt;//main:hello&#45;time</title>
<path fill="none" stroke="black" d="M170.508,-145.876C151.56,-136.469 127.868,-124.708 107.644,-114.667"/>
<polygon fill="black" stroke="black" points="109.138,-111.502 98.6251,-110.19 106.026,-117.771 109.138,-111.502"/>
</g>
<!-- //main:hello&#45;world.cc -->
<g id="node3" class="node"><title>//main:hello&#45;world.cc</title>
<polygon fill="none" stroke="black" points="272,-110 138,-110 138,-74 272,-74 272,-110"/>
<text text-anchor="middle" x="205" y="-88.3" font-family="Times,serif" font-size="14.00">//main:hello&#45;world.cc</text>
</g>
<!-- //main:hello&#45;world&#45;&gt;//main:hello&#45;world.cc -->
<g id="edge2" class="edge"><title>//main:hello&#45;world&#45;&gt;//main:hello&#45;world.cc</title>
<path fill="none" stroke="black" d="M205,-145.697C205,-137.983 205,-128.712 205,-120.112"/>
<polygon fill="black" stroke="black" points="208.5,-120.104 205,-110.104 201.5,-120.104 208.5,-120.104"/>
</g>
<!-- //lib:hello&#45;greet -->
<g id="node4" class="node"><title>//lib:hello&#45;greet</title>
<polygon fill="none" stroke="black" points="391.25,-110 290.75,-110 290.75,-74 391.25,-74 391.25,-110"/>
<text text-anchor="middle" x="341" y="-88.3" font-family="Times,serif" font-size="14.00">//lib:hello&#45;greet</text>
</g>
<!-- //main:hello&#45;world&#45;&gt;//lib:hello&#45;greet -->
<g id="edge3" class="edge"><title>//main:hello&#45;world&#45;&gt;//lib:hello&#45;greet</title>
<path fill="none" stroke="black" d="M238.269,-145.876C256.463,-136.512 279.191,-124.814 298.64,-114.803"/>
<polygon fill="black" stroke="black" points="300.313,-117.878 307.603,-110.19 297.11,-111.654 300.313,-117.878"/>
</g>
<!-- //main:hello&#45;time.cc\n//main:hello&#45;time.h -->
<g id="node5" class="node"><title>//main:hello&#45;time.cc\n//main:hello&#45;time.h</title>
<polygon fill="none" stroke="black" points="128,-38 0,-38 0,-0 128,-0 128,-38"/>
<text text-anchor="middle" x="64" y="-22.8" font-family="Times,serif" font-size="14.00">//main:hello&#45;time.cc</text>
<text text-anchor="middle" x="64" y="-7.8" font-family="Times,serif" font-size="14.00">//main:hello&#45;time.h</text>
</g>
<!-- //main:hello&#45;time&#45;&gt;//main:hello&#45;time.cc\n//main:hello&#45;time.h -->
<g id="edge4" class="edge"><title>//main:hello&#45;time&#45;&gt;//main:hello&#45;time.cc\n//main:hello&#45;time.h</title>
<path fill="none" stroke="black" d="M64,-73.8129C64,-66.1101 64,-56.8234 64,-48.149"/>
<polygon fill="black" stroke="black" points="67.5001,-48.0195 64,-38.0196 60.5001,-48.0196 67.5001,-48.0195"/>
</g>
<!-- //lib:hello&#45;greet.cc\n//lib:hello&#45;greet.h -->
<g id="node6" class="node"><title>//lib:hello&#45;greet.cc\n//lib:hello&#45;greet.h</title>
<polygon fill="none" stroke="black" points="398.5,-38 283.5,-38 283.5,-0 398.5,-0 398.5,-38"/>
<text text-anchor="middle" x="341" y="-22.8" font-family="Times,serif" font-size="14.00">//lib:hello&#45;greet.cc</text>
<text text-anchor="middle" x="341" y="-7.8" font-family="Times,serif" font-size="14.00">//lib:hello&#45;greet.h</text>
</g>
<!-- //lib:hello&#45;greet&#45;&gt;//lib:hello&#45;greet.cc\n//lib:hello&#45;greet.h -->
<g id="edge5" class="edge"><title>//lib:hello&#45;greet&#45;&gt;//lib:hello&#45;greet.cc\n//lib:hello&#45;greet.h</title>
<path fill="none" stroke="black" d="M341,-73.8129C341,-66.1101 341,-56.8234 341,-48.149"/>
<polygon fill="black" stroke="black" points="344.5,-48.0195 341,-38.0196 337.5,-48.0196 344.5,-48.0195"/>
</g>
</g>
</svg>
