<?xml version="1.0" encoding="UTF-8" standalone="no"?>
<!DOCTYPE svg PUBLIC "-//W3C//DTD SVG 1.1//EN" "http://www.w3.org/Graphics/SVG/1.1/DTD/svg11.dtd">
<!-- Generated by graphviz version 2.40.1 (20161225.0304)
 -->
<!-- Title: G Pages: 1 -->
<svg xmlns="http://www.w3.org/2000/svg" xmlns:xlink="http://www.w3.org/1999/xlink" width="188pt" height="56pt" viewBox="0.00 0.00 188.00 55.76">
<g id="graph0" class="graph" transform="scale(1 1) rotate(0) translate(4 51.757)">
<title>G</title>
<polygon fill="white" stroke="transparent" points="-4,4 -4,-51.757 184,-51.757 184,4 -4,4"/>
<!-- a -->
<g id="node1" class="node">
<title>a</title>
<ellipse fill="none" stroke="black" cx="18" cy="-29.757" rx="18" ry="18"/>
<text text-anchor="middle" x="18" y="-26.057" font-family="Times,serif" font-size="14.00">a</text>
</g>
<!-- b -->
<g id="node2" class="node">
<title>b</title>
<ellipse fill="none" stroke="black" cx="90" cy="-29.757" rx="18" ry="18"/>
<text text-anchor="middle" x="90" y="-26.057" font-family="Times,serif" font-size="14.00">b</text>
</g>
<!-- a&#45;&gt;b -->
<g id="edge1" class="edge">
<title>a-&gt;b</title>
<path fill="none" stroke="black" d="M36.1686,-29.757C43.869,-29.757 53.0257,-29.757 61.5834,-29.757"/>
<polygon fill="black" stroke="black" points="61.5868,-33.2571 71.5867,-29.757 61.5867,-26.2571 61.5868,-33.2571"/>
</g>
<!-- c -->
<g id="node3" class="node">
<title>c</title>
<ellipse fill="none" stroke="black" cx="162" cy="-29.757" rx="18" ry="18"/>
<text text-anchor="middle" x="162" y="-26.057" font-family="Times,serif" font-size="14.00">c</text>
</g>
<!-- a&#45;&gt;c -->
<g id="edge3" class="edge">
<title>a-&gt;c</title>
<path fill="none" stroke="black" d="M33.3269,-19.6799C43.7533,-13.4476 58.1264,-6.0321 72,-2.757 87.572,.919 92.428,.919 108,-2.757 118.2968,-5.1878 128.8688,-9.8992 137.8982,-14.7149"/>
<polygon fill="black" stroke="black" points="136.2461,-17.8015 146.6731,-19.6799 139.6933,-11.7091 136.2461,-17.8015"/>
</g>
<!-- b&#45;&gt;c -->
<g id="edge2" class="edge">
<title>b-&gt;c</title>
<path fill="none" stroke="black" d="M108.1686,-29.757C115.869,-29.757 125.0257,-29.757 133.5834,-29.757"/>
<polygon fill="black" stroke="black" points="133.5868,-33.2571 143.5867,-29.757 133.5867,-26.2571 133.5868,-33.2571"/>
</g>
</g>
</svg>
