<?xml version="1.0" encoding="UTF-8" standalone="no"?>
<!DOCTYPE svg PUBLIC "-//W3C//DTD SVG 1.1//EN" "http://www.w3.org/Graphics/SVG/1.1/DTD/svg11.dtd">
<!-- Generated by graphviz version 2.40.1 (20161225.0304)
 -->
<!-- Title: G1 Pages: 1 -->
<svg xmlns="http://www.w3.org/2000/svg" xmlns:xlink="http://www.w3.org/1999/xlink" width="498pt" height="188pt" viewBox="0.00 0.00 498.19 188.00">
<g id="graph0" class="graph" transform="scale(1 1) rotate(0) translate(4 184)">
<title>G1</title>
<polygon fill="white" stroke="transparent" points="-4,4 -4,-184 494.1903,-184 494.1903,4 -4,4"/>
<!-- Target -->
<g id="node1" class="node">
<title>Target</title>
<ellipse fill="none" stroke="black" cx="319.1459" cy="-162" rx="33.5952" ry="18"/>
<text text-anchor="middle" x="319.1459" y="-158.3" font-family="Times,serif" font-size="14.00">Target</text>
</g>
<!-- Rule -->
<g id="node2" class="node">
<title>Rule</title>
<ellipse fill="none" stroke="black" cx="196.1459" cy="-90" rx="27.0966" ry="18"/>
<text text-anchor="middle" x="196.1459" y="-86.3" font-family="Times,serif" font-size="14.00">Rule</text>
</g>
<!-- Target&#45;&gt;Rule -->
<g id="edge1" class="edge">
<title>Target-&gt;Rule</title>
<path fill="none" stroke="black" d="M296.2988,-148.6261C276.3598,-136.9545 247.3049,-119.9468 225.6191,-107.2526"/>
<polygon fill="black" stroke="black" points="227.2227,-104.1357 216.8244,-102.1045 223.6864,-110.1769 227.2227,-104.1357"/>
</g>
<!-- File -->
<g id="node6" class="node">
<title>File</title>
<ellipse fill="none" stroke="black" cx="319.1459" cy="-90" rx="27" ry="18"/>
<text text-anchor="middle" x="319.1459" y="-86.3" font-family="Times,serif" font-size="14.00">File</text>
</g>
<!-- Target&#45;&gt;File -->
<g id="edge5" class="edge">
<title>Target-&gt;File</title>
<path fill="none" stroke="black" d="M319.1459,-143.8314C319.1459,-136.131 319.1459,-126.9743 319.1459,-118.4166"/>
<polygon fill="black" stroke="black" points="322.646,-118.4132 319.1459,-108.4133 315.646,-118.4133 322.646,-118.4132"/>
</g>
<!-- Package group -->
<g id="node9" class="node">
<title>Package group</title>
<ellipse fill="none" stroke="black" cx="427.1459" cy="-90" rx="63.0888" ry="18"/>
<text text-anchor="middle" x="427.1459" y="-86.3" font-family="Times,serif" font-size="14.00">Package group</text>
</g>
<!-- Target&#45;&gt;Package group -->
<g id="edge8" class="edge">
<title>Target-&gt;Package group</title>
<path fill="none" stroke="black" d="M340.4832,-147.7751C355.5596,-137.7242 376.077,-124.0459 393.3637,-112.5215"/>
<polygon fill="black" stroke="black" points="395.684,-115.1811 402.0631,-106.7219 391.8011,-109.3567 395.684,-115.1811"/>
</g>
<!-- cc_library -->
<g id="node3" class="node">
<title>cc_library</title>
<ellipse fill="none" stroke="black" cx="46.1459" cy="-18" rx="46.2923" ry="18"/>
<text text-anchor="middle" x="46.1459" y="-14.3" font-family="Times,serif" font-size="14.00">cc_library</text>
</g>
<!-- Rule&#45;&gt;cc_library -->
<g id="edge2" class="edge">
<title>Rule-&gt;cc_library</title>
<path fill="none" stroke="black" d="M174.0129,-79.3762C150.5101,-68.0948 112.9146,-50.049 84.5596,-36.4386"/>
<polygon fill="black" stroke="black" points="85.8614,-33.1811 75.3316,-32.0091 82.8322,-39.4918 85.8614,-33.1811"/>
</g>
<!-- java_test -->
<g id="node4" class="node">
<title>java_test</title>
<ellipse fill="none" stroke="black" cx="152.1459" cy="-18" rx="42.4939" ry="18"/>
<text text-anchor="middle" x="152.1459" y="-14.3" font-family="Times,serif" font-size="14.00">java_test</text>
</g>
<!-- Rule&#45;&gt;java_test -->
<g id="edge3" class="edge">
<title>Rule-&gt;java_test</title>
<path fill="none" stroke="black" d="M185.9408,-73.3008C180.654,-64.6496 174.077,-53.8873 168.134,-44.1623"/>
<polygon fill="black" stroke="black" points="171.1106,-42.3209 162.9095,-35.6132 165.1376,-45.9711 171.1106,-42.3209"/>
</g>
<!-- ... -->
<g id="node5" class="node">
<title>...</title>
<ellipse fill="none" stroke="black" cx="239.1459" cy="-18" rx="27" ry="18"/>
<text text-anchor="middle" x="239.1459" y="-14.3" font-family="Times,serif" font-size="14.00">...</text>
</g>
<!-- Rule&#45;&gt;... -->
<g id="edge4" class="edge">
<title>Rule-&gt;...</title>
<path fill="none" stroke="black" d="M206.3363,-72.937C211.5308,-64.2393 217.9565,-53.4799 223.7407,-43.7948"/>
<polygon fill="black" stroke="black" points="226.9061,-45.3206 229.0287,-34.9405 220.8963,-41.7314 226.9061,-45.3206"/>
</g>
<!-- Source -->
<g id="node7" class="node">
<title>Source</title>
<ellipse fill="none" stroke="black" cx="319.1459" cy="-18" rx="35.194" ry="18"/>
<text text-anchor="middle" x="319.1459" y="-14.3" font-family="Times,serif" font-size="14.00">Source</text>
</g>
<!-- File&#45;&gt;Source -->
<g id="edge6" class="edge">
<title>File-&gt;Source</title>
<path fill="none" stroke="black" d="M319.1459,-71.8314C319.1459,-64.131 319.1459,-54.9743 319.1459,-46.4166"/>
<polygon fill="black" stroke="black" points="322.646,-46.4132 319.1459,-36.4133 315.646,-46.4133 322.646,-46.4132"/>
</g>
<!-- Generated -->
<g id="node8" class="node">
<title>Generated</title>
<ellipse fill="none" stroke="black" cx="419.1459" cy="-18" rx="46.5926" ry="18"/>
<text text-anchor="middle" x="419.1459" y="-14.3" font-family="Times,serif" font-size="14.00">Generated</text>
</g>
<!-- File&#45;&gt;Generated -->
<g id="edge7" class="edge">
<title>File-&gt;Generated</title>
<path fill="none" stroke="black" d="M337.9551,-76.4574C352.2161,-66.1894 372.1136,-51.8633 388.6413,-39.9633"/>
<polygon fill="black" stroke="black" points="390.8591,-42.6794 396.9294,-33.9959 386.7689,-36.9986 390.8591,-42.6794"/>
</g>
</g>
</svg>
