<?xml version="1.0" encoding="UTF-8"?><svg xmlns="http://www.w3.org/2000/svg" viewBox="0 0 900 900"><defs><style>.c{fill:#fff;}.d{fill:#9be583;}.e,.f,.g{fill:none;stroke:#fff;stroke-width:2.5px;}.e,.g{stroke-miterlimit:10;}.f{stroke-linejoin:bevel;}.g{stroke-dasharray:0 0 5 10;}</style></defs><g id="a"/><g id="b"><polygon class="d" points="727.04 508.98 746.69 520.72 746.69 419.92 654.99 366.39 635.16 354.61 635.16 455.41 727.04 508.98"/><path class="c" d="M414.36,191.13l-82.35,49.13,84.71,49.98,83.22-47.55c1.13-.65,1.14-2.27,0-2.93l-45.85-26.56-39.74-22.07Z"/><line class="g" x1="551.59" y1="150.18" x2="467.45" y2="100.49"/><polyline class="e" points="538.14 369.85 416.99 440.52 294.65 368.44"/><polyline class="e" points="481.32 336.03 538.61 369.02 538.61 489.16 416.99 560.45 294.65 487.03"/><polyline class="e" points="352.73 336.03 295.44 369.02 295.44 487.88"/><line class="e" x1="416.99" y1="440.52" x2="416.99" y2="560.45"/><polyline class="e" points="502.49 240.1 416.87 290.29 330.71 240.37"/><polygon class="e" points="502.49 239.96 502.49 322.23 416.87 374.72 330.71 324.8 330.71 240.37 414.46 191.22 502.49 239.96"/><line class="e" x1="416.87" y1="290.29" x2="416.87" y2="374.72"/><path class="c" d="M349.99,335.69l-15.81,10.16-37.84,22.59c5.86,3.32,77.93,46.59,77.93,46.59l42.64,24.56,120.61-70.38-55.67-33.53-61.17,36.78c-2.51,1.52-5.64,1.57-8.19,.13l-62.5-36.92Z"/><polyline class="e" points="425.48 500.58 425.48 544.07 516.96 491.55"/><polyline class="e" points="425.48 298.83 425.48 358.84 493.52 317.34"/><line class="e" x1="408.54" y1="443.27" x2="408.54" y2="544.63"/><line class="e" x1="408.54" y1="298.83" x2="408.54" y2="359.69"/><polyline class="e" points="626.79 648.63 686.27 613.24 523.63 519.5 307.92 642.61 471.68 738.61 490.07 727.86 534.49 701.91"/><g><ellipse class="e" cx="598.36" cy="678.09" rx="32.94" ry="67.1" transform="translate(-89.88 1264.74) rotate(-89.02)"/><ellipse class="c" cx="599.82" cy="676.78" rx="5.83" ry="11.88" transform="translate(-87.14 1264.91) rotate(-89.02)"/><path class="e" d="M665.24,694.68c-.47,2.75-1.66,5.5-3.62,8.2-12.35,16.99-50.68,25.49-85.61,18.97-4.7-.88-44.47-8.65-44.75-31.39"/><line class="e" x1="531.17" y1="691.58" x2="531.17" y2="674.08"/><line class="e" x1="665.29" y1="695.25" x2="665.29" y2="679.44"/><line class="e" x1="552.62" y1="653.9" x2="574.46" y2="667.08"/><line class="e" x1="616.62" y1="691.17" x2="638.46" y2="704.35"/><line class="e" x1="559.02" y1="703.97" x2="577.47" y2="692.68"/><line class="e" x1="621.14" y1="664.44" x2="639.59" y2="653.15"/></g><g><polyline class="e" points="675.82 271.31 496.53 164.02 484.08 156.38 441.3 130.96 441.3 206.47"/><line class="e" x1="725.8" y1="382.28" x2="725.8" y2="345.01"/><line class="e" x1="725.8" y1="524.87" x2="725.8" y2="497.48"/><line class="e" x1="538.88" y1="453.71" x2="660.86" y2="527.41"/><polyline class="e" points="674.98 298.42 484.61 187.17 441.28 161.76"/></g><g><g><g><polygon class="f" points="735.22 503.05 754.88 514.79 754.88 414 663.17 360.46 643.35 348.68 643.35 449.48 735.22 503.05"/><line class="f" x1="755.03" y1="415.15" x2="771.82" y2="404.96"/><polyline class="f" points="754.88 514.79 771.82 505.75 771.82 404.96 680.12 351.43 660.29 339.65 643.35 348.68"/></g><polygon class="c" points="660.29 339.65 645.36 349.19 756.04 414.58 771.82 404.96 660.29 339.65"/></g><g><path class="e" d="M682.54,402.72c-13.4,1.82-23.81,12.53-27.69,22.24l20.49,12.08c1.67-2.6,5.76-5.99,10.41-7.33l-3.21-27Z"/><path class="e" d="M695.07,430.09c6.94,1.91,12.07,5.63,15.4,10.5l17.37-11.58c-6.48-10.34-16.22-19.52-30.84-24.7-1.75-.62-3.47-1.06-5.16-1.36l3.23,27.15Z"/><path class="e" d="M714.22,449.14c.76,3.19,.99,6.6,.67,10.14l25.47,13.26c-.5-9.22-2.33-22.6-8.17-35.38l-17.98,11.99Z"/><path class="c" d="M714.22,449.14c.76,3.19,.99,6.6,.67,10.14l25.47,13.26c-.5-9.22-2.33-22.6-8.17-35.38l-17.98,11.99Z"/></g></g><polygon class="e" points="662.25 486.17 748.41 537.37 748.41 616.92 662.25 565.72 662.25 486.17"/><polygon class="e" points="675.8 235.73 761.96 286.93 761.96 366.48 675.8 315.28 675.8 235.73"/><line class="e" x1="678.07" y1="531.07" x2="704.66" y2="546.09"/><line class="e" x1="677.88" y1="546.7" x2="725.88" y2="573.8"/><line class="e" x1="694.16" y1="279.5" x2="720.75" y2="294.51"/><line class="e" x1="693.98" y1="295.12" x2="741.97" y2="322.23"/><g><polyline class="e" points="306.26 552.64 244.56 588.81 182.47 552.83"/><polygon class="e" points="182.47 552.83 244.17 516.67 306.26 552.64 306.26 613.48 244.56 649.65 182.47 613.68 182.47 552.83"/><line class="e" x1="244.56" y1="588.81" x2="244.56" y2="649.65"/><polygon class="c" points="183.69 553.01 245.05 588.96 304.91 553.01 243.17 517.24 183.69 553.01"/><line class="e" x1="252.68" y1="633.85" x2="298.14" y2="607.03"/><line class="e" x1="236.3" y1="595.87" x2="236.3" y2="634.7"/></g><polygon class="e" points="364.95 637.31 400.89 616.58 437.51 638 402.96 660.11 364.95 637.31"/><polygon class="e" points="423.69 604.83 459.62 584.1 496.25 605.52 461.7 627.63 423.69 604.83"/><polygon class="e" points="481.29 569.25 517.22 548.52 553.85 569.95 519.3 592.06 481.29 569.25"/><polyline class="e" points="401.66 628.7 401.66 646.21 474.51 646.91"/><polyline class="e" points="516.86 559.24 516.86 576.75 589.71 577.45"/><line class="e" x1="459.62" y1="584.1" x2="461.7" y2="627.63"/><line class="e" x1="424.81" y1="605.05" x2="496.25" y2="605.52"/><circle class="c" cx="250.36" cy="341.93" r="14.36"/><circle class="c" cx="646.78" cy="174.22" r="14.36"/><circle class="c" cx="270.69" cy="302.65" r="7.39"/><circle class="c" cx="355.87" cy="143.41" r="7.39"/><circle class="c" cx="368.34" cy="741.43" r="7.39"/><circle class="c" cx="747.3" cy="680.56" r="14.36"/><circle class="c" cx="722.74" cy="651.33" r="7.39"/><g><line class="g" x1="506.27" y1="786.04" x2="422.13" y2="736.35"/><line class="e" x1="517.57" y1="735.22" x2="366.5" y2="827.27"/></g><g><line class="g" x1="284.34" y1="499.74" x2="200.2" y2="450.04"/><line class="g" x1="172.53" y1="522.32" x2="131.73" y2="498.04"/><line class="e" x1="295.64" y1="448.91" x2="144.58" y2="540.96"/></g><line class="e" x1="321.81" y1="764.43" x2="410.36" y2="817.82"/><line class="e" x1="539.45" y1="271.31" x2="630.08" y2="327.22"/><line class="e" x1="537.75" y1="394.98" x2="622.46" y2="446.65"/><line class="e" x1="579.39" y1="329.25" x2="625.71" y2="357.39"/><line class="e" x1="539.45" y1="304.35" x2="564.25" y2="320.05"/><line class="e" x1="539.45" y1="337.38" x2="600.63" y2="375.18"/><line class="e" x1="579.39" y1="386.85" x2="642.79" y2="424.63"/><line class="e" x1="615.68" y1="383.97" x2="643.62" y2="400.94"/><line class="e" x1="518.27" y1="207.48" x2="518.27" y2="359.41"/><g><line class="c" x1="599.82" y1="676.78" x2="647.87" y2="677.05"/><polygon class="c" points="599.83 675.53 647.87 677.05 599.82 678.03 599.83 675.53 599.83 675.53"/></g><g><line class="c" x1="691.07" y1="445.34" x2="666.88" y2="417.29"/><polygon class="c" points="690.12 446.15 666.88 417.29 692.02 444.52 690.12 446.15 690.12 446.15"/></g><ellipse class="c" cx="693.89" cy="449.57" rx="5.72" ry="8.44" transform="translate(-131.7 404.91) rotate(-29.84)"/></g></svg>