<svg xmlns="http://www.w3.org/2000/svg" viewBox="0 0 900 900"><defs><style>.c{fill:#fff}.e,.f,.g{fill:none;stroke:#fff;stroke-width:2.5px}.e,.g{stroke-miterlimit:10}.f{stroke-linejoin:bevel}.g{stroke-dasharray:0 0 5 10}</style></defs><g id="b"><path d="m727.04 508.98 19.65 11.74v-100.8l-91.7-53.53-19.83-11.78v100.8l91.88 53.57z" style="fill:#9be583"/><path d="m414.36 191.13-82.35 49.13 84.71 49.98 83.22-47.55a1.686 1.686 0 0 0 0-2.93l-45.85-26.56-39.74-22.07Z" class="c"/><path d="m551.59 150.18-84.14-49.69" class="g"/><path d="m538.14 369.85-121.15 70.67-122.34-72.08" class="e"/><path d="m481.32 336.03 57.29 32.99v120.14l-121.62 71.29-122.34-73.42" class="e"/><path d="m352.73 336.03-57.29 32.99v118.86M416.99 440.52v119.93M502.49 240.1l-85.62 50.19-86.16-49.92" class="e"/><path d="M502.49 239.96v82.27l-85.62 52.49-86.16-49.92v-84.43l83.75-49.15 88.03 48.74zM416.87 290.29v84.43" class="e"/><path d="m349.99 335.69-15.81 10.16-37.84 22.59c5.86 3.32 77.93 46.59 77.93 46.59l42.64 24.56 120.61-70.38-55.67-33.53-61.17 36.78a8.11 8.11 0 0 1-8.19.13l-62.5-36.92Z" class="c"/><path d="M425.48 500.58v43.49l91.48-52.52M425.48 298.83v60.01l68.04-41.5M408.54 443.27v101.36M408.54 298.83v60.86M626.79 648.63l59.48-35.39-162.64-93.74-215.71 123.11 163.76 96 18.39-10.75 44.42-25.95" class="e"/><ellipse cx="598.36" cy="678.09" class="e" rx="32.94" ry="67.1" transform="rotate(-89.02 598.34 678.085)"/><ellipse cx="599.82" cy="676.78" class="c" rx="5.83" ry="11.88" transform="rotate(-89.02 599.796 676.777)"/><path d="M665.24 694.68c-.47 2.75-1.66 5.5-3.62 8.2-12.35 16.99-50.68 25.49-85.61 18.97-4.7-.88-44.47-8.65-44.75-31.39M531.17 691.58v-17.5M665.29 695.25v-15.81M552.62 653.9l21.84 13.18M616.62 691.17l21.84 13.18M559.02 703.97l18.45-11.29M621.14 664.44l18.45-11.29M675.82 271.31 496.53 164.02l-12.45-7.64-42.78-25.42v75.51M725.8 382.28v-37.27M725.8 524.87v-27.39M538.88 453.71l121.98 73.7" class="e"/><path d="M674.98 298.42 484.61 187.17l-43.33-25.41" class="e"/><path d="m735.22 503.05 19.66 11.74V414l-91.71-53.54-19.82-11.78v100.8l91.87 53.57zM755.03 415.15l16.79-10.19" class="f"/><path d="m754.88 514.79 16.94-9.04V404.96l-91.7-53.53-19.83-11.78-16.94 9.03" class="f"/><path d="m660.29 339.65-14.93 9.54 110.68 65.39 15.78-9.62-111.53-65.31z" class="c"/><path d="M682.54 402.72c-13.4 1.82-23.81 12.53-27.69 22.24l20.49 12.08c1.67-2.6 5.76-5.99 10.41-7.33l-3.21-27ZM695.07 430.09c6.94 1.91 12.07 5.63 15.4 10.5l17.37-11.58c-6.48-10.34-16.22-19.52-30.84-24.7-1.75-.62-3.47-1.06-5.16-1.36l3.23 27.15ZM714.22 449.14c.76 3.19.99 6.6.67 10.14l25.47 13.26c-.5-9.22-2.33-22.6-8.17-35.38l-17.98 11.99Z" class="e"/><path d="M714.22 449.14c.76 3.19.99 6.6.67 10.14l25.47 13.26c-.5-9.22-2.33-22.6-8.17-35.38l-17.98 11.99Z" class="c"/><path d="m662.25 486.17 86.16 51.2v79.55l-86.16-51.2v-79.55zM675.8 235.73l86.16 51.2v79.55l-86.16-51.2v-79.55zM678.07 531.07l26.59 15.02M677.88 546.7l48 27.1M694.16 279.5l26.59 15.01M693.98 295.12l47.99 27.11M306.26 552.64l-61.7 36.17-62.09-35.98" class="e"/><path d="m182.47 552.83 61.7-36.16 62.09 35.97v60.84l-61.7 36.17-62.09-35.97v-60.85zM244.56 588.81v60.84" class="e"/><path d="m183.69 553.01 61.36 35.95 59.86-35.95-61.74-35.77-59.48 35.77z" class="c"/><path d="m252.68 633.85 45.46-26.82M236.3 595.87v38.83M364.95 637.31l35.94-20.73L437.51 638l-34.55 22.11-38.01-22.8zM423.69 604.83l35.93-20.73 36.63 21.42-34.55 22.11-38.01-22.8zM481.29 569.25l35.93-20.73 36.63 21.43-34.55 22.11-38.01-22.81z" class="e"/><path d="M401.66 628.7v17.51l72.85.7M516.86 559.24v17.51l72.85.7M459.62 584.1l2.08 43.53M424.81 605.05l71.44.47" class="e"/><circle cx="250.36" cy="341.93" r="14.36" class="c"/><circle cx="646.78" cy="174.22" r="14.36" class="c"/><circle cx="270.69" cy="302.65" r="7.39" class="c"/><circle cx="355.87" cy="143.41" r="7.39" class="c"/><circle cx="368.34" cy="741.43" r="7.39" class="c"/><circle cx="747.3" cy="680.56" r="14.36" class="c"/><circle cx="722.74" cy="651.33" r="7.39" class="c"/><path d="m506.27 786.04-84.14-49.69" class="g"/><path d="M517.57 735.22 366.5 827.27" class="e"/><path d="m284.34 499.74-84.14-49.7M172.53 522.32l-40.8-24.28" class="g"/><path d="m295.64 448.91-151.06 92.05M321.81 764.43l88.55 53.39M539.45 271.31l90.63 55.91M537.75 394.98l84.71 51.67M579.39 329.25l46.32 28.14M539.45 304.35l24.8 15.7M539.45 337.38l61.18 37.8M579.39 386.85l63.4 37.78M615.68 383.97l27.94 16.97M518.27 207.48v151.93" class="e"/><path d="m599.82 676.78 48.05.27M599.83 675.53l48.04 1.52-48.05.98.01-2.5zM691.07 445.34l-24.19-28.05M690.12 446.15l-23.24-28.86 25.14 27.23-1.9 1.63z" class="c"/><ellipse cx="693.89" cy="449.57" class="c" rx="5.72" ry="8.44" transform="rotate(-29.84 693.964 449.59)"/></g></svg>