<svg xmlns="http://www.w3.org/2000/svg" id="Layer_1" viewBox="0 0 53.52 33.45"><defs><style>.cls-1{fill:#9be583}.cls-2{fill:#303030}</style></defs><path d="M38.21 28.35v-7.6l-2.64-1.46v-.92l-1.16-.68v3.83l-12.33-7.45-.02-5.34c.06.01.12.05.17.05.1 0 .19-.02.27-.07.19-.1.3-.3.33-.56.05-.52-.27-1.11-.74-1.36-.02 0-.03 0-.05-.02v-2.9l12.36 7.36v1.13l-3.52-2.07-.15-.09v4.87l6.61 3.89.53.31V14.4l-2.31-1.36V9.16L22.95 1.6l-.05-.03-1 .64-.05.05v.04l.02 4.4c-.15-.03-.29-.03-.41.04-.19.1-.3.3-.33.56-.05.51.28 1.12.74 1.36h.01l.02 4.21c-3.27.06-5.92 2.73-5.92 6.02 0 2.37 1.38 4.41 3.37 5.4l-1.43 3.2c-.21.48-.12 1.03.23 1.38.38.39 1.12.85 2.47.85.82 0 1.54-.23 2.13-.69.55-.42.74-1.16.45-1.8l-1.04-2.33c1.63-.04 3.11-.73 4.17-1.83v5.18l6.08 3.53.05.03 5.71-3.43.05-.03Zm-5.66 3.17v-7.41l5.46-3.12v7.25l-5.46 3.28Zm-6.04-9.79s.03-.04.04-.07l-.04-.02v-.81l5.83 3.29v7.41l-5.83-3.38v-6.42Zm-5.5 7 .02.2s1.47-.16 2.03-1.35c.11.49-.05 1-.46 1.31-.56.43-1.23.65-2.01.65-1.27 0-1.97-.43-2.32-.8-.29-.29-.37-.76-.19-1.16l2.51-5.64 2.38 5.35c-.43 1.28-1.95 1.44-1.97 1.44Zm-.41-7.28-1.19 2.67c-1.92-.95-3.25-2.93-3.25-5.21 0-3.18 2.56-5.76 5.72-5.82v1.11l5.8 3.5c.08.39.13.79.13 1.21 0 .31-.03.61-.08.91l-1.37.83-.05.03v1.01c-.64 1.23-2.14 1.78-2.16 1.79l.07.19c.06-.02 1.35-.49 2.09-1.58v.71a5.798 5.798 0 0 1-4.25 1.93l-1.46-3.27Zm13.92.26Zm-.07.08.08.02.05-.04 1-.64v-1.59l2.34 1.29-5.47 3.13-5.78-3.25 3-1.8 4.79 2.89Zm-6.49-2.1c.03-.26.06-.51.06-.78 0-.37-.04-.72-.1-1.07l1.56.94-1.51.91ZM21.54 6.94c.05-.03.12-.04.18-.04.09 0 .19.03.29.08.39.21.67.73.63 1.17-.02.19-.1.33-.22.4-.13.07-.3.05-.47-.04-.39-.21-.67-.73-.63-1.17.02-.19.1-.33.22-.4Zm16.14 12.01-.33-.19-6.41-3.77v-4.41l6.73 3.96v4.41ZM22.05 3.63v-.99l12.37 7.37v.97L22.05 3.63Zm1.05 23.64Z" class="cls-2"/><circle cx="42.12" cy="20.7" r=".31" class="cls-1"/><path d="m8.55 21.89 1.55.93-.12.07.1.17.21-.13L13.76 25l.1-.18-5.21-3.1-.1.17zM41.85 27.48l-.23-.14-.1.17.23.14.1-.17zM42.74 28.24l.23.13.1-.16-.23-.14-.1.17zM40.63 26.75l-.23-.14-.1.18.23.13.1-.17zM41.24 27.11l-.23-.13-.1.17.23.13.1-.17zM43.35 28.6l.23.14.1-.17-.23-.14-.1.17zM8.16 23.99l.1.18.22-.14-.1-.17-.22.13zM9.37 23.26l.1.17.23-.14-.1-.17-.23.14zM8.76 23.63l.11.17.22-.14-.1-.17-.23.14zM13.34 21.08l-.1-.17-.22.14.1.17.22-.14zM14.84 19.94l.1.17.2-.12-.1-.17-.2.12zM14.23 20.31l.1.17.23-.14-.11-.17-.22.14zM13.62 20.68l.11.17.22-.14-.1-.17-.23.14zM11.52 22.19l-.1-.17-.23.13.11.17.22-.13zM12.13 21.82l-.1-.17-.23.13.1.17.23-.13zM12.74 21.45l-.11-.17-.22.13.1.17.23-.13zM7.55 24.36l.1.17.23-.13-.11-.17-.22.13zM10.91 22.56l-.1-.18-.22.14.1.17.22-.13zM6.94 24.73l.1.17.23-.13-.11-.17-.22.13zM43.83 27.02l-1.37.82-.23-.13-.1.17.14.08-4.92 2.99.1.17 6.48-3.93-.1-.17zM22.37 15.54l.22.13.1-.17-.22-.14-.1.18zM21.767 15.166l.102-.172.224.132-.102.173zM24.52 16.6l-.22-.14-.11.17.23.14.1-.17zM25.13 16.96l-.22-.14-.11.18.23.13.1-.17zM23.58 16.27l.23.13.1-.17-.22-.13-.11.17zM22.97 15.9l.23.13.1-.17-.22-.13-.11.17zM26.35 17.69l-.23-.13-.1.17.23.13.1-.17zM25.74 17.33l-.22-.14-.11.17.23.14.1-.17zM24.52 10.27c.13.07.26.11.39.11.1 0 .19-.02.27-.07.19-.1.3-.3.33-.56.05-.51-.28-1.12-.74-1.36-.24-.13-.47-.14-.66-.04-.19.1-.3.3-.33.56-.05.51.27 1.11.74 1.36Zm-.31-1.74c.05-.03.11-.04.18-.04.09 0 .19.03.29.08.39.21.67.73.63 1.17-.02.19-.1.33-.22.4-.13.07-.3.05-.47-.04-.39-.21-.67-.73-.63-1.17.02-.19.1-.33.22-.4ZM27.43 10.01c-.24-.13-.47-.14-.66-.04-.19.1-.3.3-.33.56-.05.51.28 1.12.74 1.36.13.07.26.11.39.11.1 0 .19-.02.27-.07.19-.1.3-.3.33-.56.05-.52-.27-1.11-.74-1.36Zm.31 1.75c-.13.07-.3.05-.47-.04-.39-.21-.67-.73-.63-1.17.02-.19.1-.33.22-.4.05-.03.11-.04.18-.04.09 0 .19.03.29.08.39.21.67.73.63 1.17-.02.19-.1.33-.22.4Z" class="cls-2"/><circle cx="9.93" cy="18.1" r=".64" class="cls-1"/><path d="M16.55 9.34c0-.49-.4-.88-.88-.88s-.88.4-.88.88.4.88.88.88.88-.4.88-.88ZM30.75 15.08v-4.19l-.32-.2v4.65l3.99 2.34 1.15.68 1.79 1.05v-.44l-6.61-3.89z" class="cls-1"/><path d="M30.95 11v3.96l6.41 3.77v-3.96L30.95 11Zm1.08 1.93 4.55 2.74-.1.17-4.55-2.74.1-.17ZM36.48 17l-4.55-2.74.1-.17 4.55 2.74-.1.17Z" class="cls-1"/><path d="m32.04 14.1-.11.17 4.56 2.74.1-.17-4.55-2.74zM36.49 15.84l.1-.17-4.55-2.73-.11.17 4.56 2.73z" class="cls-2"/></svg>