<?xml version="1.0" encoding="UTF-8"?><svg id="Layer_1" xmlns="http://www.w3.org/2000/svg" viewBox="0 0 53.52 33.45"><defs><style>.cls-1{fill:#9be583;}.cls-2{fill:#303030;}</style></defs><path class="cls-2" d="M38.21,28.35v-7.6l-2.64-1.46v-.92l-1.16-.68v3.83l-12.33-7.45-.02-5.34c.06,.01,.12,.05,.17,.05,.1,0,.19-.02,.27-.07,.19-.1,.3-.3,.33-.56,.05-.52-.27-1.11-.74-1.36-.02,0-.03,0-.05-.02V3.87l12.36,7.36v1.13l-3.52-2.07-.15-.09v4.87l6.61,3.89,.53,.31v-4.87l-2.31-1.36v-3.88L22.95,1.6l-.05-.03-1,.64-.05,.05v.04h0l.02,4.4c-.15-.03-.29-.03-.41,.04-.19,.1-.3,.3-.33,.56-.05,.51,.28,1.12,.74,1.36h.01l.02,4.21c-3.27,.06-5.92,2.73-5.92,6.02,0,2.37,1.38,4.41,3.37,5.4l-1.43,3.2c-.21,.48-.12,1.03,.23,1.38,.38,.39,1.12,.85,2.47,.85,.82,0,1.54-.23,2.13-.69,.55-.42,.74-1.16,.45-1.8l-1.04-2.33c1.63-.04,3.11-.73,4.17-1.83v5.18l6.08,3.53,.05,.03,5.71-3.43,.05-.03Zm-5.66,3.17v-7.41l5.46-3.12v7.25l-5.46,3.28Zm-6.04-9.79s.03-.04,.04-.07l-.04-.02v-.81l5.83,3.29v7.41l-5.83-3.38v-6.42Zm-5.5,7l.02,.2s1.47-.16,2.03-1.35c.11,.49-.05,1-.46,1.31-.56,.43-1.23,.65-2.01,.65-1.27,0-1.97-.43-2.32-.8-.29-.29-.37-.76-.19-1.16l2.51-5.64,2.38,5.35c-.43,1.28-1.95,1.44-1.97,1.44Zm-.41-7.28l-1.19,2.67c-1.92-.95-3.25-2.93-3.25-5.21,0-3.18,2.56-5.76,5.72-5.82v1.11l5.8,3.5c.08,.39,.13,.79,.13,1.21,0,.31-.03,.61-.08,.91l-1.37,.83-.05,.03v1.01c-.64,1.23-2.14,1.78-2.16,1.79l.07,.19c.06-.02,1.35-.49,2.09-1.58v.71c-1.05,1.17-2.57,1.91-4.25,1.93l-1.46-3.27Zm13.92,.26h0Zm-.07,.08l.08,.02,.05-.04,1-.64v-1.59l2.34,1.29-5.47,3.13-5.78-3.25,3-1.8,4.79,2.89Zm-6.49-2.1c.03-.26,.06-.51,.06-.78,0-.37-.04-.72-.1-1.07l1.56,.94-1.51,.91Zm-6.42-12.75c.05-.03,.12-.04,.18-.04,.09,0,.19,.03,.29,.08,.39,.21,.67,.73,.63,1.17-.02,.19-.1,.33-.22,.4-.13,.07-.3,.05-.47-.04-.39-.21-.67-.73-.63-1.17,.02-.19,.1-.33,.22-.4Zm16.14,12.01l-.33-.19-6.41-3.77v-4.41l6.73,3.96v4.41ZM22.05,3.63v-.99l12.37,7.37v.97L22.05,3.63Zm1.05,23.64h0Z"/><circle class="cls-1" cx="42.12" cy="20.7" r=".31"/><polygon class="cls-2" points="8.55 21.89 10.1 22.82 9.98 22.89 10.08 23.06 10.29 22.93 13.76 25 13.86 24.82 8.65 21.72 8.55 21.89"/><polygon class="cls-2" points="41.85 27.48 41.62 27.34 41.52 27.51 41.75 27.65 41.85 27.48"/><polygon class="cls-2" points="42.74 28.24 42.97 28.37 43.07 28.21 42.84 28.07 42.74 28.24"/><polygon class="cls-2" points="40.63 26.75 40.4 26.61 40.3 26.79 40.53 26.92 40.63 26.75"/><polygon class="cls-2" points="41.24 27.11 41.01 26.98 40.91 27.15 41.14 27.28 41.24 27.11"/><polygon class="cls-2" points="43.35 28.6 43.58 28.74 43.68 28.57 43.45 28.43 43.35 28.6"/><polygon class="cls-2" points="8.16 23.99 8.26 24.17 8.48 24.03 8.38 23.86 8.16 23.99"/><polygon class="cls-2" points="9.37 23.26 9.47 23.43 9.7 23.29 9.6 23.12 9.37 23.26"/><polygon class="cls-2" points="8.76 23.63 8.87 23.8 9.09 23.66 8.99 23.49 8.76 23.63"/><polygon class="cls-2" points="13.34 21.08 13.24 20.91 13.02 21.05 13.12 21.22 13.34 21.08"/><polygon class="cls-2" points="14.84 19.94 14.94 20.11 15.14 19.99 15.04 19.82 14.84 19.94"/><polygon class="cls-2" points="14.23 20.31 14.33 20.48 14.56 20.34 14.45 20.17 14.23 20.31"/><polygon class="cls-2" points="13.62 20.68 13.73 20.85 13.95 20.71 13.85 20.54 13.62 20.68"/><polygon class="cls-2" points="11.52 22.19 11.42 22.02 11.19 22.15 11.3 22.32 11.52 22.19"/><polygon class="cls-2" points="12.13 21.82 12.03 21.65 11.8 21.78 11.9 21.95 12.13 21.82"/><polygon class="cls-2" points="12.74 21.45 12.63 21.28 12.41 21.41 12.51 21.58 12.74 21.45"/><polygon class="cls-2" points="7.55 24.36 7.65 24.53 7.88 24.4 7.77 24.23 7.55 24.36"/><polygon class="cls-2" points="10.91 22.56 10.81 22.38 10.59 22.52 10.69 22.69 10.91 22.56"/><polygon class="cls-2" points="6.94 24.73 7.04 24.9 7.27 24.77 7.16 24.6 6.94 24.73"/><polygon class="cls-2" points="43.83 27.02 42.46 27.84 42.46 27.84 42.23 27.71 42.13 27.88 42.27 27.96 37.35 30.95 37.45 31.12 43.93 27.19 43.83 27.02"/><polygon class="cls-2" points="22.37 15.54 22.59 15.67 22.69 15.5 22.47 15.36 22.37 15.54"/><rect class="cls-2" x="21.83" y="15.02" width=".2" height=".26" transform="translate(-2.26 26.34) rotate(-59.47)"/><polygon class="cls-2" points="24.52 16.6 24.3 16.46 24.19 16.63 24.42 16.77 24.52 16.6"/><polygon class="cls-2" points="25.13 16.96 24.91 16.82 24.8 17 25.03 17.13 25.13 16.96"/><polygon class="cls-2" points="23.58 16.27 23.81 16.4 23.91 16.23 23.69 16.1 23.58 16.27"/><polygon class="cls-2" points="22.97 15.9 23.2 16.03 23.3 15.86 23.08 15.73 22.97 15.9"/><polygon class="cls-2" points="26.35 17.69 26.12 17.56 26.02 17.73 26.25 17.86 26.35 17.69"/><polygon class="cls-2" points="25.74 17.33 25.52 17.19 25.41 17.36 25.64 17.5 25.74 17.33"/><path class="cls-2" d="M24.52,10.27c.13,.07,.26,.11,.39,.11,.1,0,.19-.02,.27-.07,.19-.1,.3-.3,.33-.56,.05-.51-.28-1.12-.74-1.36-.24-.13-.47-.14-.66-.04-.19,.1-.3,.3-.33,.56-.05,.51,.27,1.11,.74,1.36Zm-.31-1.74c.05-.03,.11-.04,.18-.04,.09,0,.19,.03,.29,.08,.39,.21,.67,.73,.63,1.17-.02,.19-.1,.33-.22,.4-.13,.07-.3,.05-.47-.04-.39-.21-.67-.73-.63-1.17,.02-.19,.1-.33,.22-.4Z"/><path class="cls-2" d="M27.43,10.01c-.24-.13-.47-.14-.66-.04-.19,.1-.3,.3-.33,.56-.05,.51,.28,1.12,.74,1.36,.13,.07,.26,.11,.39,.11,.1,0,.19-.02,.27-.07,.19-.1,.3-.3,.33-.56,.05-.52-.27-1.11-.74-1.36Zm.31,1.75c-.13,.07-.3,.05-.47-.04-.39-.21-.67-.73-.63-1.17,.02-.19,.1-.33,.22-.4,.05-.03,.11-.04,.18-.04,.09,0,.19,.03,.29,.08,.39,.21,.67,.73,.63,1.17-.02,.19-.1,.33-.22,.4Z"/><circle class="cls-1" cx="9.93" cy="18.1" r=".64"/><path class="cls-1" d="M16.55,9.34c0-.49-.4-.88-.88-.88s-.88,.4-.88,.88,.4,.88,.88,.88,.88-.4,.88-.88Z"/><polygon class="cls-1" points="30.75 15.08 30.75 10.89 30.43 10.69 30.43 15.34 34.42 17.68 35.57 18.36 37.36 19.41 37.36 18.97 30.75 15.08"/><path class="cls-1" d="M30.95,11v3.96l6.41,3.77v-3.96l-6.41-3.77Zm1.08,1.93l4.55,2.74-.1,.17-4.55-2.74,.1-.17Zm4.45,4.07l-4.55-2.74,.1-.17,4.55,2.74-.1,.17Z"/><polygon class="cls-2" points="32.04 14.1 31.93 14.27 36.49 17.01 36.59 16.84 32.04 14.1"/><polygon class="cls-2" points="36.49 15.84 36.59 15.67 32.04 12.94 31.93 13.11 36.49 15.84"/></svg>