<svg xmlns="http://www.w3.org/2000/svg" xml:space="preserve" id="Layer_1" x="0" y="0" style="enable-background:new 0 0 317.8 86.5" version="1.1" viewBox="0 0 317.8 86.5"><style>.st0,.st1{fill:none;stroke:#fff;stroke-width:2;stroke-linejoin:round;stroke-miterlimit:10}.st1{opacity:.2}.st2{fill:#fff}</style><path stroke-width="1.99998" d="M43.436 64.677 22.223 43.464 64.649 1.038l21.213 21.213z" class="st0"/><path stroke-width="1.99998" d="M64.668 43.426 43.455 64.64 1.029 22.213 22.242 1z" class="st0"/><path stroke-width="1.99998" d="M43.422 85.511 22.209 64.298l42.426-42.426 21.213 21.213z" class="st1"/><path stroke-width="1.99998" d="M64.682 64.26 43.469 85.473 1.043 43.047l21.213-21.213z" class="st1"/><path d="M1 22.2V43l21.2 21.2V43.4zM43.4 64.6v20.9L22.2 64.2V43.4zM85.9 22.2V43L64.6 64.2V43.4zM43.4 64.6l21.2-21.2v20.8L43.4 85.5z" class="st0"/><path d="M22.2 1v20.8M64.6 1v20.8M43.4 22.1v21" class="st1"/><path d="M117.2 76.5v-66H141c5.2 0 9.6 1.7 13.4 5.1 3.8 3.4 5.7 7.7 5.7 12.9 0 3.1-.8 5.9-2.4 8.3-1.6 2.4-3.8 4.2-6.5 5.4v.4c3.3 1.1 5.9 3 8 5.7 2.1 2.7 3.1 5.8 3.1 9.4 0 5.4-2 9.9-5.9 13.5-4 3.6-8.6 5.3-14 5.3h-25.2zm8.4-37.7H141c3.2 0 5.8-1.1 7.7-3.2 1.9-2.1 2.9-4.4 2.9-7 0-2.5-.9-4.8-2.8-6.9-1.9-2.1-4.3-3.1-7.4-3.1h-15.8v20.2zm0 29.5h17c3.3 0 5.9-1.1 7.9-3.4s3-4.8 3-7.5-1-5.2-3.1-7.4-4.8-3.4-8.2-3.4h-16.7v21.7zM184.7 77.9c-4.8 0-8.8-1.4-12-4.1-3.2-2.8-4.8-6.4-4.8-11 0-4.9 1.9-8.8 5.7-11.6 3.8-2.8 8.5-4.2 14.1-4.2 5 0 9.1.9 12.3 2.8v-1.3c0-3.3-1.1-6-3.4-8s-5.1-3-8.4-3c-2.5 0-4.7.6-6.7 1.8-2 1.2-3.4 2.8-4.1 4.8l-7.7-3.3c1-2.7 3.1-5.2 6.2-7.5s7.1-3.5 12.2-3.5c5.8 0 10.6 1.7 14.4 5.1 3.8 3.4 5.7 8.1 5.7 14.3v27.3h-8.1v-6.3h-.4c-3.6 5.1-8.5 7.7-15 7.7zm1.4-7.7c3.5 0 6.7-1.3 9.5-3.9 2.9-2.6 4.3-5.7 4.3-9.3-2.4-2-6-2.9-10.8-2.9-4.1 0-7.2.9-9.3 2.7-2.1 1.8-3.1 3.9-3.1 6.3 0 2.2 1 4 2.9 5.3 1.8 1.1 4 1.8 6.5 1.8zM216.3 76.5v-7.4L242 39h-25v-7.7h35.4v7.4l-25.7 30h26.1v7.7h-36.5zM280.4 77.9c-6.8 0-12.4-2.3-16.6-6.8-4.3-4.5-6.4-10.3-6.4-17.2 0-6.6 2.1-12.2 6.2-17 4.1-4.7 9.4-7.1 15.9-7.1 6.7 0 12.1 2.2 16.1 6.5 4 4.4 6 10.2 6 17.5l-.1 1.6h-35.7c.2 4.5 1.8 8.1 4.6 10.8 2.8 2.6 6.1 4 9.8 4 6.1 0 10.2-2.6 12.3-7.7l7.6 3.1c-1.5 3.5-3.9 6.4-7.3 8.8-3.3 2.3-7.5 3.5-12.4 3.5zm12.2-29.5c-.2-2.6-1.4-5-3.5-7.4-2.2-2.3-5.4-3.5-9.7-3.5-3.1 0-5.9 1-8.2 2.9-2.3 2-3.9 4.6-4.7 7.9h26.1zM317.8 76.5h-8.5v-66h8.5v66z" class="st2"/></svg>