<?xml version="1.0" encoding="UTF-8"?><svg xmlns="http://www.w3.org/2000/svg" viewBox="0 0 900 900"><defs><style>.c{fill:#fff;}.d{fill:#9be583;}.e,.f,.g{fill:none;stroke:#fff;stroke-width:2.5px;}.e,.g{stroke-miterlimit:10;}.f{stroke-linejoin:bevel;}.g{stroke-dasharray:0 0 5 10;}</style></defs><g id="a"/><g id="b"><circle class="c" cx="394.47" cy="305.22" r="7.39"/><g><line class="g" x1="332.79" y1="649.07" x2="421.34" y2="702.47"/><line class="g" x1="309.07" y1="583.56" x2="464.26" y2="676.49"/><line class="e" x1="360.35" y1="684.39" x2="470.47" y2="620.58"/></g><g><line class="e" x1="496.94" y1="270.7" x2="496.94" y2="245.34"/><polyline class="e" points="703.94 341.23 703.94 512.02 546.32 604.49 382.93 509.79"/><line class="e" x1="527.69" y1="205.53" x2="617.41" y2="255.98"/><polyline class="e" points="383.63 530.89 546.43 626.56 703.94 533.12 703.94 512.02 471.65 375.46"/><polyline class="e" points="471.65 337.17 471.65 375.46 341.19 453.73"/><polygon class="e" points="441.94 239 528.1 290.2 528.1 369.76 441.94 318.56 441.94 239"/><polygon class="e" points="441.94 133.52 528.1 184.72 528.1 264.27 441.94 213.07 441.94 133.52"/><line class="e" x1="647.12" y1="351.27" x2="676.49" y2="368.21"/><line class="e" x1="551.69" y1="296.21" x2="637.56" y2="345.57"/><line class="e" x1="551.69" y1="270.18" x2="658.98" y2="332.58"/><line class="e" x1="553.95" y1="325.24" x2="636.12" y2="373.71"/><line class="e" x1="551.69" y1="373.52" x2="679.03" y2="445.52"/><line class="e" x1="551.69" y1="351.5" x2="662.14" y2="413.64"/><line class="e" x1="457.76" y1="281.57" x2="505.76" y2="308.68"/><line class="e" x1="457.57" y1="297.2" x2="505.57" y2="324.3"/><line class="e" x1="457.76" y1="178.42" x2="484.35" y2="193.43"/><line class="e" x1="457.57" y1="194.04" x2="505.57" y2="221.15"/><polyline class="e" points="485.05 365.9 690.43 487.65 690.43 332.89"/><g><polygon class="c" points="581.7 477.05 592.31 470.51 582.43 464.67 571.79 471.23 581.7 477.05"/><polygon class="c" points="516.67 438.04 527.29 431.49 517.4 425.65 506.77 432.21 516.67 438.04"/><polygon class="c" points="583.28 489.85 572.64 496.42 582.55 502.24 593.16 495.7 583.28 489.85"/><polygon class="c" points="451.54 412.3 440.91 418.87 450.81 424.69 461.42 418.14 451.54 412.3"/><polygon class="c" points="494.12 424.93 504.73 418.38 494.85 412.54 484.21 419.1 494.12 424.93"/><polygon class="c" points="473.26 399.63 462.62 406.19 472.53 412.01 483.14 405.47 473.26 399.63"/><polygon class="c" points="538.16 464.23 527.52 470.8 537.43 476.62 548.04 470.08 538.16 464.23"/><polygon class="c" points="495.68 438.33 485.05 444.89 494.96 450.72 505.57 444.17 495.68 438.33"/><polygon class="c" points="560.71 477.34 550.08 483.91 559.98 489.73 570.6 483.19 560.71 477.34"/><polygon class="c" points="604.27 489.56 614.88 483.02 604.99 477.17 594.36 483.74 604.27 489.56"/><polygon class="c" points="474.55 451.19 463.92 457.76 473.83 463.58 484.44 457.03 474.55 451.19"/><polygon class="c" points="516.57 451.32 505.93 457.88 515.84 463.71 526.45 457.16 516.57 451.32"/><polygon class="c" points="430.41 425.17 419.77 431.73 429.68 437.56 440.29 431.01 430.41 425.17"/><polygon class="c" points="604.87 502.77 594.24 509.33 604.14 515.16 614.75 508.61 604.87 502.77"/><polygon class="c" points="583.74 515.63 573.1 522.2 583.01 528.02 593.62 521.48 583.74 515.63"/><polygon class="c" points="562.15 502.72 551.51 509.28 561.42 515.11 572.03 508.56 562.15 502.72"/><polygon class="c" points="649.14 503.2 638.51 509.76 648.41 515.59 659.02 509.04 649.14 503.2"/><path class="c" d="M471.5,376.91l-130.11,77.21,41.59,24.65,1.75,31.35,163.01,94.94,156.14-92.89-232.38-135.25Zm154.43,112.79l1.27-2.15,14.1,8.33-14.78,9.12-1.31-2.13,11.25-6.94-10.54-6.23Zm-6.22-6.74l-15.42,9.51-14.78-8.69,15.45-9.53,14.75,8.71Zm-146.66-44.98l-1.27,2.15-14.13-8.31,14.81-9.14,1.31,2.13-11.28,6.96,10.56,6.21Zm-9.41,4.85l1.31,2.13-13.65,8.43-12.99-7.64,1.27-2.15,11.69,6.88,12.37-7.63Zm10.88,5.43l14.75,8.71-15.42,9.51-14.78-8.69,15.45-9.53Zm5.68-3.33l15.45-9.53,14.75,8.71-15.42,9.51-14.78-8.69Zm36.33,3.46l14.75,8.72-15.42,9.51-14.78-8.69,15.45-9.53Zm21.59,12.92l14.75,8.71-15.42,9.51-14.78-8.69,15.45-9.53Zm22.55,13.11l14.75,8.72-15.42,9.51-14.78-8.69,15.45-9.53Zm22.57,12.51l14.75,8.71-15.42,9.51-14.78-8.69,15.45-9.53Zm21.59,12.92l14.75,8.71-15.42,9.51-14.78-8.69,15.45-9.53Zm-7.69-29.39l-15.42,9.51-14.78-8.69,15.45-9.53,14.75,8.71Zm-25.63-14.15l1.31,2.13-13.65,8.43-12.99-7.64,1.27-2.15,11.69,6.88,12.37-7.63Zm-20.3-12.93l-1.27,2.15-11.67-6.89-12.4,7.65-1.31-2.13,13.68-8.45,12.97,7.66Zm-19.1-11.94l-15.42,9.51-14.78-8.69,15.45-9.53,14.75,8.71Zm-22.55-13.11l-15.42,9.51-14.78-8.69,15.45-9.53,14.75,8.72Zm-36.34-21.63l14.75,8.71-15.42,9.51-14.78-8.69,15.45-9.53Zm-21.72,12.68l14.75,8.71-15.42,9.51-14.78-8.69,15.45-9.53Zm-21.13,12.87l14.75,8.71-15.42,9.51-14.78-8.69,15.45-9.53Zm55.26,123.79l-74.56-44.19,42.35-23.01,70.88,42.35-38.66,24.85Zm-5.68-75.25l15.45-9.53,58.9,34.74-15.42,9.51-58.93-34.72Zm66.71,38.54l15.45-9.53,14.75,8.71-15.42,9.51-14.78-8.69Zm21.59,12.92l15.45-9.53,14.75,8.71-15.42,9.51-14.78-8.69Zm49.7,13.39l-11.67-6.89-12.4,7.65-1.31-2.13,13.68-8.45,12.97,7.66-1.27,2.15Zm8.77-4.45l-14.78-8.69,15.45-9.53,14.75,8.71-15.42,9.51Zm6.93-21.37l15.45-9.53,14.75,8.71-15.42,9.51-14.78-8.69Z"/><polygon class="c" points="626.7 528.27 637.31 521.72 627.42 515.88 616.79 522.44 626.7 528.27"/><polygon class="c" points="495.43 464.18 484.8 470.75 538.85 502.6 549.46 496.05 495.43 464.18"/></g></g><g><polygon class="d" points="296.73 441.42 234.74 478.91 169.12 441.42 106.18 481.12 105.23 550.38 236.07 627.81 360.62 552.38 361.29 480.43 296.73 441.42"/><polyline class="e" points="256.97 627.02 128.77 550.86 128.77 480.61 192.08 441.84 256.18 478.24 318.7 441.05 382.8 479.03 257.15 552.63 128.77 480.61"/><polyline class="e" points="383.59 479.03 383.59 551.84 256.97 627.02"/><polyline class="e" points="193.66 589.82 193.66 516.22 256.18 478.24 318.7 517.02 318.7 590.61"/></g><g><circle class="c" cx="571.11" cy="179.95" r="14.36"/><circle class="c" cx="546.56" cy="150.72" r="7.39"/></g><g><g><path class="e" d="M617.57,607.07l28.7,19.55s-14.2,1.18-19.55,10.4c-4.63,7.99-1.17,13.2,8.32,18.72,10.63,6.18,27.45,6.65,36.6,1.66,6.74-3.67,9.41-6.9,10.36-8.34,.29-.44,.87-.57,1.32-.31l28.22,16.24c.78,.45,1.74,.41,2.49-.09l20.83-14.15s-8.43-8.6-10.4-14.14c-2.37-6.68,3.74-16.64,16.64-19.96,12.89-3.33,24.54-2.5,31.61,2.08,6.93,4.49,7.9,5.41,7.9,5.41l3.24-2.43c.06-.04,.12-.09,.19-.13l24.44-14.91"/><line class="e" x1="781.13" y1="646.71" x2="780.61" y2="624.13"/><line class="e" x1="712.81" y1="665.72" x2="712.81" y2="691.07"/><path class="e" d="M681.62,673.19l31.19,17.88,22.09-13.15v-25.41c-.03-2.88,18.48-24.64,47.35-4.78l26.7-16.68v-24.28l-94.9-56.67-96.49,56.98v33.27l5.79,4.25v25.28c2.76,3.94,11.87,11.81,25.32,13.12,18.61,1.82,28.25-7.62,32.94-9.51h0v-23.52"/><polyline class="e" points="672.02 586.81 714.56 561.03 790.42 607.33"/><path class="e" d="M729.9,644.04s14.78-20.14,40.94-9.88"/></g><g><path class="e" d="M672.95,711.98l-24.44,14.91c-.06,.04-.13,.08-.19,.13l-3.24,2.43s-.97-.92-7.9-5.41c-7.07-4.58-18.72-5.41-31.61-2.08-12.89,3.33-19.01,13.28-16.64,19.96,1.97,5.54,10.4,14.14,10.4,14.14l-20.83,14.15c-.74,.5-1.71,.54-2.49,.09l-93.97-57.91"/><line class="e" x1="645.6" y1="752.03" x2="645.08" y2="729.44"/><line class="e" x1="577.29" y1="771.04" x2="577.29" y2="796.39"/><path class="e" d="M643.61,694.27l29.82,17.81v24.28l-26.7,16.68c-28.87-19.87-47.38,1.9-47.35,4.78v24.41l-22.09,14.15-95.25-59.72v-24.27l96.49-56.98,30.69,18.33v33.83"/><path class="e" d="M594.37,749.36s14.78-20.14,40.94-9.88"/></g><path class="e" d="M607.58,673.78s-14.2,1.18-19.55,10.4c-4.63,7.99-1.17,13.2,8.32,18.72,10.63,6.18,27.45,6.65,36.6,1.66,6.74-3.67,9.41-6.9,10.36-8.34,.29-.44,.87-.57,1.32-.31"/></g><g><polyline class="e" points="343.39 311.97 257.78 362.16 171.61 312.24"/><polyline class="e" points="295 283.94 343.39 311.83 343.39 394.11 257.78 446.6 171.61 396.67 171.61 312.24 218.63 284.68"/><line class="e" x1="257.78" y1="362.16" x2="257.78" y2="446.6"/><polyline class="e" points="319.39 209.46 257.7 245.62 195.61 209.65"/><polygon class="e" points="195.61 209.65 257.31 173.48 319.39 209.46 319.39 270.3 257.7 306.47 195.61 270.49 195.61 209.65"/><line class="e" x1="257.7" y1="245.62" x2="257.7" y2="306.47"/><path class="c" d="M219.79,285.02l-46.87,27.11,84.71,49.98,83.22-47.55c1.13-.65,1.14-2.27,0-2.93l-45.85-26.56-31.9,19c-3.38,2.01-7.59,2.02-10.98,.02l-32.34-19.07Z"/><polygon class="c" points="196.83 209.82 258.19 245.78 318.05 209.82 256.31 174.06 196.83 209.82"/><polyline class="e" points="266.38 370.71 266.38 430.72 334.43 389.21"/><line class="e" x1="265.81" y1="290.67" x2="311.27" y2="263.85"/><line class="e" x1="249.44" y1="370.71" x2="249.44" y2="431.56"/><line class="e" x1="249.44" y1="252.68" x2="249.44" y2="291.52"/></g><g><g><polygon class="f" points="731.56 358.38 751.22 370.12 751.22 305.51 636.92 237.18 617.1 225.4 617.1 290.02 675.91 325.14 731.56 358.38"/><line class="f" x1="751.37" y1="306.66" x2="768.16" y2="296.47"/><polyline class="f" points="751.22 370.12 768.16 361.09 768.16 296.47 653.86 228.14 634.04 216.37 617.1 225.4"/></g><polygon class="c" points="634.04 216.37 619.11 225.9 752.38 306.09 768.16 296.47 634.04 216.37"/></g><g><circle class="c" cx="279.02" cy="682.47" r="14.36"/><circle class="c" cx="252.21" cy="727.78" r="7.39"/></g><line class="e" x1="666.72" y1="278.83" x2="732.16" y2="317.64"/><line class="e" x1="665.59" y1="295.77" x2="731.03" y2="334.58"/><ellipse class="e" cx="642.94" cy="272.74" rx="8.8" ry="12.96" transform="translate(-50.47 356.11) rotate(-29.84)"/></g></svg>