<svg xmlns="http://www.w3.org/2000/svg" viewBox="0 0 900 900"><defs><style>.c{fill:#fff}.e,.f{fill:none;stroke:#fff;stroke-miterlimit:10;stroke-width:2.5px}.f{stroke-dasharray:0 0 5 10}</style></defs><g id="b"><circle cx="281.76" cy="476.61" r="117.6" style="fill:#9be583"/><path d="M636.58 630.18v48.57l-238.47-141.7M613.62 402.43l22.96 13.64v86.42M352.07 374.18V247.01l42.78 25.42M360.07 577.9c16.44 10.53 22.12 24.7 12.57 37.84-14.86 20.46-61 30.68-103.06 22.83-42.05-7.85-64.1-30.79-49.23-51.25 2.82-3.89 6.78-7.4 11.61-10.5" class="e"/><path d="M360.07 577.9c16.44 10.53 22.12 24.7 12.57 37.84-14.86 20.46-61 30.68-103.06 22.83-42.05-7.85-64.1-30.79-49.23-51.25 2.82-3.89 6.78-7.4 11.61-10.5 0 0 25.22 19.47 63.06 19.47s65.05-18.4 65.05-18.4Z" class="c"/><path d="M377 621.51c-.57 3.3-2 6.62-4.36 9.87-14.86 20.46-61 30.68-103.06 22.83-32.95-6.15-53.62-21.56-53.87-37.79M215.61 617.78v-21.07M373.79 590.95 393 603.47a46.95 46.95 0 0 0 48.47-.45 38.75 38.75 0 0 1 40.09-.33c11.44 6.78 11.34 23.38-.19 30.01l-20.16 10.79c-12.42 7.15-12.75 24.95-.62 32.56l17.38 10.97M377.06 603.17v19.03" class="e"/><circle cx="296.45" cy="477.74" r="117.6" class="e"/><path d="M184.24 441.84c-33.69-84.71 44.83-139.1 89.77-131.88 17.49 2.81 33.84 8.41 48.12 16.49v11.18l-19.72 11.55c-37.54-22.14-69.22-18.74-87.18-.54-14.52 14.72-27.62 42.17-19.92 69.61" class="e"/><path d="M207.34 401.89s-11.55-53.43 32.37-66.54M207.95 332.7s35.74-35.26 94.46 4.69l19.72-10.94M302.4 337.4v42.05M600.95 470.9V338.44L553.09 310M538.86 256.01l-143.47-85.25M538.86 388.47V256.01l14.24-9.26" class="e"/><path d="m538.86 388.47-109.63-64.21-33.84 19.49V170.76l14.84-8.15 142.87 84.14V377.2l-14.24 11.27zM468.47 681.89l36.88 21.26M535.46 683.91l-61.07 39.32v17.57" class="e"/><path d="M457.66 696.46v22.31c0 7.94 4.24 15.27 11.11 19.24l63.07 40.86 61.35-38.48c0-10.95-5.56-21.16-14.76-27.1l-49.32-31.85a58.787 58.787 0 0 0-60.64.46c-14.28 8.74-14.23 29.51.09 38.18 0 0 63 19.47 63 58.79" class="e"/><circle cx="124.48" cy="553.38" r="14.36" class="c"/><circle cx="161.75" cy="585.57" r="7.39" class="c"/><circle cx="244.15" cy="231.5" r="7.39" class="c"/><circle cx="419.26" cy="792.25" r="7.39" class="c"/><ellipse cx="436.41" cy="263.05" class="c" rx="8.11" ry="11.94" transform="rotate(-29.84 436.457 263.066)"/><ellipse cx="463.86" cy="278.15" class="c" rx="8.11" ry="11.94" transform="rotate(-29.84 463.908 278.158)"/><ellipse cx="493.07" cy="293.77" class="c" rx="8.11" ry="11.94" transform="rotate(-29.84 493.127 293.781)"/><path d="m394.13 219.64-84.14-49.69" class="f"/><path d="M413.24 463.9c1.1 6.2-8.47 12.06-14.87 7.04-1.68-1.32-2.75-3.23-3.32-5.29-3.25-11.87-14.92-20.57-27.11-20.81-1.12-.02-2.28.03-3.3.48-3.35 1.48-3.57 6.35-1.89 9.6s4.61 5.74 6.19 9.04l.05.1c2.36 5.03-2.74 10.4-7.96 8.5-6.39-2.33-12.01-6.84-15.45-12.73-.73-1.25-1.68-2.36-2.81-3.25l-.05-.04c-2.38-1.87-5.78.39-4.97 3.31 1.91 6.84 5.7 12.55 11.12 16.75 4.67 3.63 11.76 5.61 17.84 8.27 3.65 1.6 4.76 6.23 2.29 9.36-4.9 6.21-9.46 12.71-12.32 20.05-5.08 13.03-4.66 28.34-12.85 39.69-5.17 7.16-13.61 11.74-22.38 12.58-3.98.38-7.53-2.72-7.66-6.71-.4-11.95-11.13-24.62-6.06-35.86 2.06-4.56 6.54-8.05 6.21-13.47-.22-3.65-2.64-6.92-6.08-8.17-5.46-1.99-11.17 1.41-16.78 2.78-7.1 1.73-14.96 0-20.69-4.53-5.07-4.02-8.29-9.85-11.38-15.53-1.58-2.9-3.21-6.13-2.52-9.35.56-2.62 2.56-4.67 4.46-6.56 7.86-7.8 15.73-15.6 23.59-23.41.85-.84 1.44-1.94 1.5-3.14.19-3.83-4.78-4.46-6.97-7.16-1.92-2.37-1.29-6.02.51-8.48 1.8-2.46 4.49-4.07 6.98-5.84 3.98-2.83 7.56-6.22 10.61-10.03 1.08-1.35 2.16-2.97 1.89-4.68-.38-2.36-3.19-3.95-1.67-6.86.69-1.31 1.94-2.23 3.34-2.7 10.83-3.59 23.37-2.88 32.74-9.44-1.39-.48-1.78-2.43-1.07-3.72s2.14-2 3.53-2.46c4.64-1.53 9.9-1.05 14.19 1.3.56.31 1.17.66 1.8.57 2.36-.34.45-4.49 1.96-6.33 0 0 46.57 14.98 59.37 87.14ZM202.82 548.69c6.24 4.56 13.13 8.45 20.66 10.19 7.53 1.74 15.8 1.18 22.49-2.7.55-.32 1.11-.68 1.46-1.21.38-.57.48-1.27.5-1.95.21-7.2-7.46-12.19-14.56-13.4-5.5-.94-12.04-1.02-15.24-5.59-5.37-7.69 4.67-18.86.49-27.25-2.08-4.19-6.94-6.01-10.94-8.44a31.05 31.05 0 0 1-9.85-9.54c-.72-1.11-1.39-2.31-1.55-3.62-.35-2.9 1.77-5.45 2.63-8.23 2.38-7.66-4.85-15.12-4.95-23.14-.04-3.29 1.13-6.45 2.28-9.53 2.18-5.81 4.45-11.77 8.63-16.36 8.68-9.53 24.14-11.62 30.91-22.58.77-1.25 1.35-3.03.29-4.06-.5-.49-1.23-.64-1.91-.78a52.56 52.56 0 0 1-12.01-4.09c-1.94-.94-4.12-2.61-3.67-4.71.23-1.07 1.12-1.88 2.09-2.39 3.4-1.8 7.58-.65 11.13.85 3.55 1.5 7.23 3.34 11.04 2.82s7.29-4.84 5.36-8.17c-.61-1.06-1.64-1.81-2.34-2.81-1.65-2.38-1.07-5.77.6-8.14s4.21-3.95 6.68-5.46c0 0-76.48 27.28-73.6 109.72 1.88 53.84 23.37 70.6 23.37 70.6ZM474.28 484.02a33.804 33.804 0 0 1 16.54 29.06v9.83c0 1.81-1.97 2.94-3.53 2.01L456.3 506.5a2.888 2.888 0 0 1-1.41-2.47v-8.98c0-9.96 10.84-16.12 19.4-11.04Z" class="c"/><ellipse cx="471.56" cy="473.57" class="c" rx="9.63" ry="14.2" transform="rotate(-29.84 471.62 473.609)"/><ellipse cx="475.1" cy="493.76" class="e" rx="31.88" ry="46.98" transform="rotate(-29.84 475.166 493.787)"/><path d="M559.59 534.63a33.804 33.804 0 0 1 16.54 29.06v9.83c0 1.81-1.97 2.94-3.53 2.01l-30.99-18.42a2.888 2.888 0 0 1-1.41-2.47v-8.98c0-9.96 10.84-16.12 19.4-11.04Z" class="c"/><ellipse cx="556.88" cy="524.18" class="c" rx="9.63" ry="14.2" transform="rotate(-29.84 556.952 524.22)"/><ellipse cx="560.41" cy="544.37" class="e" rx="31.88" ry="46.98" transform="rotate(-29.84 560.475 544.413)"/><path d="m352.06 277.81 43.33 25.41M613.79 433.77l22.65 13.28M592.62 197.96l107.3 62.4M592.62 228.45l107.3 62.4M592.62 256.97l107.3 62.4M477.71 374.65l107.86 60.51M430.5 766.72l-151.34-89.79" class="e"/><path d="m384.2 739.61-89.23 53.65" class="f"/><path d="m166.33 709.93 88.55 53.4" class="e"/><path d="m142.61 644.43 155.19 92.92" class="f"/><path d="m193.89 745.26 110.12-63.81M716.45 233.18l14.53-9.58M572.99 147.93l143.46 85.25v130.65" class="e"/><path d="m587.54 139.45 143.44 84.15v132.01l-14.53 8.99-29.04-17.37-34.64 21.34.27-41.88-80.05-46.31V147.93l14.55-8.48zM553.66 294.18l60.42 36.71v131.58l-13.13 8.43-105.91-62.94-37.56 19.66v-87.13M600.95 338.44l13.13-7.55" class="e"/><path d="m395.39 170.76 14.84-8.15 142.87 84.14-14.24 9.26-143.47-85.25zM571.58 148.17l14.83-8.15 142.87 84.14-14.24 9.26-143.46-85.25zM553.66 309.81l.75-15.06 59.49 35.39-14.31 7.53-45.93-27.86z" class="c"/><circle cx="753.28" cy="383.75" r="7.39" class="c"/><ellipse cx="657.35" cy="697.3" class="e" rx="42.52" ry="24.55"/><ellipse cx="743.9" cy="645.15" class="e" rx="42.52" ry="24.55"/><path d="m721.7 495.26-.18 3.19c-.35 5.71-.98 11.58-4.09 17.52-2.53 4.82-9.47 16.72-15.12 19.56-.9.45-2.51 1.28-2.51 1.28s-2.64-.11-4.68.99c-2.04 1.1 1.24 1.31 1.24 1.31-7.3 5.43-3.66 8.78 5.93 5.08 7.79-3.38 15.08-8.13 20.3-16.5M727.73 625.59c-1.99.25-.75.38-2.58 4.89-.12 2.04-2.47 4.2-2.86 4.61-1.18 1.24-6.52 5.19-6.52 5.19s-3.7 4.49 2.5 4.46c6.2-.02 11.06-1.36 15.39-7.31 1.09-2.06 1.59-7.15.8-9.22-1.79-1.38-4.42-3.25-6.73-2.63ZM755.17 638.96c-1.7.52-1.72 1.54-2.15 7.01-.06.61-1.89 3.04-2.32 3.52-1.32 1.47-7.32 6.23-7.32 6.23s-4.1 5.31 3.05 5.06c7.15-.26 12.47-2 17.51-8.25 1.18-2.42 1.54-9.07.55-11.42-2.12-1.52-6.66-2.95-9.31-2.14Z" class="e"/><path d="M755.94 567.87c-.37.05-.73.1-1.06.13-4.29.38-7.86.23-10.94-.24-.41-.06-.81-.13-1.2-.19-.01-.01-.02-.01-.02-.01-2.6-.46-4.68-1.17-6.66-2.02-.21-.09-.41-.18-.62-.27-1.7-.75-3.36-1.6-5.26-2.47-5.03-2.29-6.6-4.59-7.47-6.57.31 4.82.77 11.69 1.14 15.6.61 6.45 1.01 59.07 1.01 59.07l1.02 1.54c2.03 2.38 5.36 2.26 7.91.59 0 0 1.71-1.58 1.7-2.82.21-3.03 6.94-52.9 6.92-52.74 0 0 .35-2.68 2.08-2.62 1.66.15 2.03 5.44 2.03 5.44l6.34 65.85s.83 1.5 3.83 2.07 5.21.33 6.83-.71c0 0 1.69-.71 1.7-2.05.06-1.43 2.25-49.05 2.49-72.4 0-.96-2.63-3.11-3.71-4.66-.76-1.1.18-1.92-.65-1.69-1.88.51-4.3.93-7.42 1.17Z" class="c"/><path d="M759.43 458.21c-.25-1.38-.35-2.13-.57-2.91-2.5-7.77-14.05-18.25-27.75-4.4h-.01s-3.76 4.1-6.14 3.8c-.89.75 2.02 5.7 5.79 6.72.02 0 .04 0 .06.01.17.04.34.09.52.12h.05c1.15.21 2.53.18 3.97-.04 0 0 2.22-.24 4.69-.6 5.67-.58 7.5 5.46 8.01 1.71.92-4.45 4.75-2.69 5.15-.34.32 2.08.83 6.8 1.88 7.06h.01c.05.05.11.09.18.13.02 0 .03.02.04.03.06.03.13.06.2.08.08.03.16.05.26.06.15.02.32.02.51 0 .17-.04.34-.16.53-.32 1.47-1.29 3.52-6.25 2.61-11.13Z" class="e"/><path d="M755.79 469.65c-.1 0-.18-.03-.26-.06-.07-.02-.14-.05-.2-.08-.01 0-.02-.02-.04-.03-.06-.04-.12-.08-.18-.13h-.01c-1.05-.26-1.56-4.98-1.88-7.06-.39-2.36-4.23-4.11-5.15.34-.51 3.75-2.34-2.29-8.01-1.71-2.47.37-4.69.6-4.69.6-1.44.22-2.82.24-3.97.04h-.05c-.18-.03-.35-.08-.52-.12-.02 0-.04 0-.06-.01-.29-.08-.57-.19-.85-.31-.02.18-.05.36-.06.54-.57 4.48 2.08 11.42 7.99 13.83.31.13.6.24.93.34.07.02.27.1.52.23.61.32 1.35 1.01.8 2.25-.03.08-6.5 8.13.41 11 1.99.61 4.01.5 5.85-.03 0 0 7.35-2.91 8.05-9.14-.24-.88-.39-1.71-.46-2.47-.22-2.14.08-3.82.41-4.92l.03-.11c.12-.25.26-.51.41-.76.26-.48.55-.94.84-1.39.03-.07.07-.13.11-.18.14-.22.27-.44.4-.66-.12 0-.25.02-.36 0Z" class="c"/><path d="M760.59 522.96c.52 3.03 1.19 6.4 2.05 10.34 1.15 7.44 2.06 14.87 2.88 22.21.25 2.23-2.66 11.31-1.89 12.31.62.8 1.59-.1 1.96-.49.03.77.1 1.45.23 1.97 1.4 7.33 7.7 4.61 7.93 1.81.21-2.5-.19-6.37-.44-8.42.41-9.24.43-18.93.72-27.24.01-4.08 0-7.88-.05-11.32" class="e"/><path d="m759.38 516.43-1.24 4.62s3.92 4.65 10.29 4.65 5.82-2.44 5.82-2.44-1.57-25.73-1.86-27.04c-2.12-9.35-17.18-16.49-17.18-16.49l-1.84-1.28-.51-.35-1.59 2.36c-2.05-.47-11.17-3.69-11.37-3.93-.1-.01-.19-.01-.3-.01-1.82-.02-4.47.51-6.41 1.27-8.91 2.45-11.97 18.12-12.05 18.81 0 0-.31 1.75 1.17 2.76.49.58 2.48 1.71 2.66 2.21-.37 1.51-2.36 21.23-3.26 36.28-.1 1.55-.36 5.61-.41 9.31-.05 2.19-.04 4.04.05 5.39.09.33.19.68.31 1.03.03.1.05.18.08.25.16.46.35.94.58 1.43.31.82 1.6 5.49 2.23 6.42M661.41 702.53s-1.02 6.44 1.56 10.77c3.87 3.94 10.03 1.24 15.87-1.18 8.93-3.61 4.02-7.06-.13-6.43-10.12.59-9.72-4.44-9.72-4.44l-7.59 1.27ZM633.42 684.51s-2.49 7.07-.56 10.73c2.71 3.4 10.22 1.03 15.51-1.16 8.08-3.27 3.63-6.38-.11-5.82-9.15.53-8.99-4.13-8.99-4.13l-5.84.38ZM673.85 547.76c-1.16-6.48-6.87-11.14-14.38-16.22 0 0-7.74.86-14.47-2.65-4.3-1.71-16.83 2.44-18.79 19.27-.24 1.32-.69 3.27-1.01 5.51-.84 5.82-.32 27.94-.07 30.92.73 8.77 1.12 13.03 2.41 21.61 1.86 15.72 40.26 22.48 46.26 8.5 1.15-5.78 1.55-11.95 1.75-21.01" class="e"/><path d="M673.72 614.83c-6.21 13.78-44.33 7.02-46.19-8.64-.11-.74-.21-1.43-.31-2.11.21 2.21.51 4.65.76 7.2.31 4.79.84 12.75 1.26 17.08.62 6.45.73 59.07.73 59.07l1.34 1.54c2.07 2.38 5.47 2.26 8.07.59 0 0 2.01-1.75 2-2.99 0-1.25 6.8-52.57 6.8-52.57s-.38-2.3 2.12-2.62c2.88.75 3.19 6.55 3.19 6.55l4.74 68.4s1.48 2.21 6.85 1.71 6.17-2.54 6.17-2.54 3.01-67.83 2.76-86.08c-.02-1.75-.13-3.26-.3-4.59Z" class="c"/><path d="M662.22 569.85c2.04 8.67 5.44 17.08 8.91 20.88 1.53 1.63 3.11 2.64 5.53 3.19 10.72 2.44 23.46-4.29 24.84-5.24.87-.48 8.58-4.81 5.62-7.55-1.75-1.62-4.27-1.16-6.17-.44h.01s1.21-2.69-.52-1.71c-.59.33-1 .78-1.31 1.24-.44.49-1.06 1.83-1.91 2.09-13.36 5.31-19.71 3.91-20.19-6.34-.15-3.2-.25-6.92-.43-10.63-.39-8.19-1.11-16.38-3.36-19.12M666.18 504.45v.19c-.08.78-.82 1.38-1.59 1.26h-.09c-.25-.03-.49 0-.72.05-.67.14-1.19.53-1.19.53s-2.8 1.91-1.93 6.09c.92 3.34-.71 4.46-1.46 3.53-.75-.94-3.29-2.25-4.29.12-.64 1.52.91 3.71 1.98 5.69 0 .01.02.04.03.07.27.81 1.66 6.08-9.36 5.93-8.82.43-12.02-6.92-13.17-11.69-.63-2.61-.73-5.33-.25-7.97.82-4.45 3.1-7.81 8.16-10.61 5.02-2.5 11.44-1.68 11.48-1.67 10.5 1.42 12.27 7.82 12.27 7.82.09.24.13.46.13.67Z" class="e"/><path d="m664.96 506-.07-.1h-.31c-.03-.01-.06-.01-.09-.01-.25-.03-.49 0-.72.05-.67.14-1.19.53-1.19.53s-2.8 1.91-1.93 6.09c.92 3.34-.71 4.46-1.46 3.53-.75-.94-3.29-2.25-4.29.12-.64 1.52.91 3.71 1.98 5.69.01.01.02.04.03.07.27.8 1.6 5.89-8.8 5.93.88.86 1.6 1.37 2.09 1.37 3.26 0 7.64-1.17 7.64-1.17l1.5-.65c4.18-1.67 10.35-13.57 5.62-21.44Z" class="c"/><path d="M662.22 569.85c6.9.81 12.24-2.79 14.37-4.52-.39-8.19-1.11-16.38-3.36-19.12-3.26-3.97-5.79-4.88-10.25-1.31-3.72 3.65-3.22 14.5-.76 24.95ZM658.9 532.1l-.49-5.43" class="e"/><path d="m678.52 382.4 96.74 57.93" class="f"/><path d="m656.27 432.56 68.65-39.78" class="e"/></g></svg>