<?xml version="1.0" encoding="UTF-8"?><svg id="Layer_1" xmlns="http://www.w3.org/2000/svg" viewBox="0 0 40 25"><defs><style>.cls-1{fill:#9be583;}.cls-2{fill:#303030;}</style></defs><path class="cls-1" d="M12.8,15.62s.02-.1,.03-.25l-4.99,2.85c-.01,.08-.02,.16-.05,.25l5.01-2.86Z"/><path class="cls-1" d="M12.63,14.65c-.2-.2-.47-.14-.5-.14l-4.61,2.58c.17,.12,.41,.37,.46,.83l4.83-2.75c0-.1,0-.34-.17-.51Z"/><path class="cls-2" d="M13.15,15.19l.03-.02,.38-.95,.23-.15-.11-.17-.24,.16-1.16,.14-.21,.11h0l-5.16,2.88c-.17,.1-.43,.4-.23,.83,.13,.28,.39,.37,.62,.37,.12,0,.23-.02,.31-.05l.21-.12,4.99-2.85,.32-.18Zm-5.64,1.9l4.61-2.58s.3-.07,.5,.14c.17,.17,.17,.42,.17,.51l-4.83,2.75c-.05-.46-.29-.71-.46-.83Zm5.51-2.06l-.03,.02c0-.15-.05-.37-.22-.54-.06-.07-.13-.11-.2-.14l.75-.09-.3,.76Zm-5.48,3.13s-.49,.16-.67-.22c-.17-.37,.11-.55,.14-.57l.3-.17c.09,.05,.44,.26,.46,.82l-.24,.14Z"/><polygon class="cls-2" points="23.62 22.02 23.72 22.2 23.88 22.09 23.79 21.92 23.62 22.02"/><polygon class="cls-2" points="26.69 20.2 26.79 20.38 26.95 20.28 26.85 20.1 26.69 20.2"/><polygon class="cls-2" points="25.54 20.88 25.54 20.88 24.17 19.98 24.06 20.14 25.4 21.03 25.47 21.14 25.47 21.15 25.53 21.12 26.77 21.94 26.88 21.77 25.54 20.89 25.54 20.88"/><polygon class="cls-2" points="25.98 20.62 25.81 20.72 25.91 20.9 26.08 20.8 25.98 20.62"/><polygon class="cls-2" points="26.41 20.36 26.25 20.46 26.35 20.64 26.52 20.54 26.41 20.36"/><polygon class="cls-2" points="24.49 21.5 24.59 21.68 24.76 21.58 24.66 21.4 24.49 21.5"/><polygon class="cls-2" points="24.05 21.76 24.16 21.94 24.32 21.84 24.22 21.66 24.05 21.76"/><polygon class="cls-2" points="24.93 21.24 25.03 21.41 25.2 21.32 25.1 21.14 24.93 21.24"/><path class="cls-1" d="M30.05,7.55c.12,0,.23-.1,.23-.23s-.1-.23-.23-.23-.23,.1-.23,.23,.1,.23,.23,.23Z"/><path class="cls-1" d="M33.39,13.44c-.35,0-.63,.28-.63,.63s.28,.63,.63,.63,.63-.28,.63-.63-.28-.63-.63-.63Z"/><polygon class="cls-2" points="13.99 20.2 14.86 20.72 14.96 20.55 14.09 20.03 13.99 20.2"/><polygon class="cls-2" points="11.57 18.76 13.47 19.89 13.57 19.72 11.67 18.59 11.57 18.76"/><polygon class="cls-2" points="13.47 17.51 16.76 19.47 16.86 19.3 13.57 17.34 13.47 17.51"/><polygon class="cls-2" points="14.05 19.09 15.82 20.15 15.92 19.98 14.15 18.92 14.05 19.09"/><polygon class="cls-2" points="13.48 18.61 12.64 18.12 12.54 18.29 13.38 18.79 13.48 18.61"/><polygon class="cls-2" points="11.21 22.42 11.37 22.52 11.48 22.35 11.31 22.25 11.21 22.42"/><polygon class="cls-2" points="12.07 22.96 12.23 23.06 12.34 22.9 12.17 22.79 12.07 22.96"/><polygon class="cls-2" points="9.06 21.05 9.22 21.16 9.33 20.99 9.16 20.88 9.06 21.05"/><polygon class="cls-2" points="9.92 21.6 10.08 21.7 10.19 21.53 10.02 21.43 9.92 21.6"/><polygon class="cls-2" points="9.49 21.32 9.65 21.43 9.76 21.26 9.59 21.15 9.49 21.32"/><polygon class="cls-2" points="10.35 21.87 10.51 21.97 10.62 21.81 10.45 21.7 10.35 21.87"/><polygon class="cls-2" points="11.64 22.69 11.8 22.79 11.91 22.62 11.75 22.52 11.64 22.69"/><polygon class="cls-2" points="10.78 22.14 10.94 22.25 11.05 22.08 10.89 21.97 10.78 22.14"/><path class="cls-1" d="M27.55,13.32c-.31-.2-.62-.29-.91-.29-.17,0-.32,.03-.47,.1-.19,.08-.34,.22-.46,.4,.14-.07,.29-.11,.45-.12,.31-.02,.64,.06,.99,.26,.03,.01,.05,.02,.08,.04,.03,.02,.06,.05,.09,.07,.45,.22,1.07,.71,1.31,1.81,.18,.52,.25,1.06,.17,1.55-.02,.13-.06,.26-.1,.37,.19-.21,.33-.5,.38-.85,.19-1.19-.49-2.68-1.52-3.33Z"/><path class="cls-1" d="M24.94,14.7c.06-.37,.2-.66,.39-.88,.15-.42,.41-.73,.76-.88,.43-.2,.94-.14,1.45,.14-.83-.54-1.68-.59-2.32-.22-.18,.22-.33,.49-.42,.8-.3,1.02-.02,2.27,.62,3.28-.4-.7-.6-1.52-.48-2.24Z"/><path class="cls-1" d="M28.88,18.38c.04-.07,.1-.15,.2-.24,.08-.07,.15-.11,.21-.13,.04-.09,.09-.18,.12-.29,.31-1.05,.02-2.34-.64-3.37,.42,.72,.63,1.58,.51,2.33-.09,.59-.38,1.02-.8,1.24-.41,.56-1.12,.68-1.86,.27,.65,.43,1.35,.57,1.93,.37,.12-.04,.23-.1,.33-.17Z"/><path class="cls-2" d="M27.66,13.15s-.08-.04-.13-.06c-.51-.28-1.02-.34-1.45-.14-.35,.16-.61,.47-.76,.88-.04,.12-.08,.26-.1,.4-.2,1.26,.52,2.84,1.61,3.53,.34,.22,.69,.33,1.02,.33,.19,0,.38-.04,.55-.12,.02-.01,.04-.03,.07-.04,.42-.22,.7-.65,.8-1.24,.12-.75-.09-1.61-.51-2.33-.28-.49-.66-.92-1.11-1.2Zm1.42,3.5c-.06,.36-.19,.64-.38,.85-.06,.07-.12,.12-.19,.17-.33,.04-.69-.06-1.05-.28-.09-.06-.18-.13-.27-.2l.12-.07,.05-.03v-3.07c.4,.23,.88,.68,1.08,1.62l.2-.04h0c-.24-1.11-.86-1.6-1.31-1.82-.03-.02-.06-.05-.09-.07-.03-.02-.05-.02-.08-.04v.04c-.21-.08-.36-.1-.36-.1l-.02,.2s.16,.02,.38,.12v3.06l-.13,.07c-.78-.74-1.26-1.98-1.1-2.99,.04-.26,.12-.47,.24-.66-.16,.01-.31,.05-.45,.12,.12-.18,.28-.31,.46-.4,.15-.07,.3-.1,.47-.1,.29,0,.6,.1,.91,.29,1.03,.65,1.71,2.14,1.52,3.33Z"/><path class="cls-1" d="M31.52,21.96l-2.71-3.39v-.02s-.02,.02-.03,.03c-.07,.06-.11,.11-.14,.16,0,0-.01,0-.02,.01-.2,.07-.42,.1-.63,.1-.52,0-1.07-.19-1.59-.56-1.43-1.02-2.23-3.12-1.78-4.67,.03-.1,.08-.19,.12-.29-.17,.22-.31,.47-.41,.78-.36,1.25,.1,2.83,1.05,3.92,.04,.05,.09,.11,.13,.15,.17,.18,.36,.35,.56,.49,.9,.64,1.84,.69,2.51,.25l2.66,3.33c.06,.07,.27,.06,.44-.07,.05-.04,.07-.09,.09-.14-.01,0-.02,0-.03,0-.09,0-.16-.03-.21-.08Z"/><path class="cls-1" d="M29.12,18.41h0s-.06,.09-.08,.12l2.64,3.31s.07,0,.13,0c0-.02,0-.05,0-.07l-2.69-3.35Z"/><path class="cls-2" d="M29.71,18.17c.31-.27,.54-.63,.68-1.09,.46-1.55-.34-3.65-1.78-4.67-.41-.29-.84-.46-1.27-.52v-3.62l-3.67,2.15-1.65,.97c-.08,0-.16-.01-.23-.03l1.94-1.13,3.2-1.86-.1-.17h-.02v-.84l-.49,.29v-2.97l-.83,.49-5.86,3.44c-.15,0-.29-.03-.41-.06l6.23-3.62v.07h.2v-1.46l-.35,.2v-1.48l-1.53,.9-6.49,3.82c-.06,0-.1-.01-.16-.02l6.73-4.01,.71-.42-.1-.17-.49,.29-7.15,4.26c-.06-.02-.12-.03-.18-.05l7.42-4.42,.2-.12-.04-.07V.99L15.47,6.08l-.05,.03V14.9l-6.5,3.56,.28,.18-.28,.15,5.61,3.5,.05,.03,6.31-3.46v.64s.11,.67,1.15,.71h.03l3.43-2.04s-.09-.1-.13-.15l-3.22,1.91V11.55l1.43-.84,3.57-2.09v3.25c-.26-.02-.52,0-.76,.08-.06,.02-.11,.06-.16,.08l-.31,.11s-.02,0-.02,0c-.01,0-.02,.01-.03,.01l-.1,.04h0c-.46,.21-.82,.59-1.03,1.11-.04,.1-.09,.19-.12,.29-.45,1.56,.34,3.65,1.78,4.67,.52,.37,1.07,.56,1.59,.56,.22,0,.43-.03,.63-.1,0,0,.01,0,.02-.01,.03-.05,.08-.1,.14-.16,.01-.01,.03-.02,.04-.03v.02l2.7,3.39c.05,.06,.12,.08,.21,.08,.01,0,.02,0,.03,0,.11,0,.23-.05,.34-.13,.11-.08,.19-.22,.2-.36,0-.08,0-.15-.05-.2l-2.54-3.17Zm-3.1-9.84l-2.77,1.61-2.31,1.34c-.07-.03-.12-.06-.17-.09l2.56-1.49,2.54-1.48-.1-.17-2.34,1.36-2.82,1.64c-.05-.06-.08-.1-.1-.14l3.01-1.74,2.5-1.45v.62Zm-9.42-1.15v10.4c-1.02-.09-1.49-.7-1.58-.83V6.92l-.08-.54c.22,.24,.76,.73,1.66,.81Zm7.9-3.32l-.55,.32-1.52,.88-4.78,2.77-.05,.03v.09h-.01s0,.02,.01,.04v9.14l-.81,.41V7.15l7.71-4.53v1.24Zm.29,1.61l.73-.43v2.72h.02l-1.93,1.12-3.27,1.9-.05,.03v.09h0v7.28l-1.13,.68V8.77l5.64-3.3Zm-5.84,13.44c-1.03-.09-1.14-.67-1.14-.69V8.31c.19,.21,.52,.45,1.14,.5v10.1Zm-.58-10.44c-.08-.04-.16-.08-.22-.12l6.38-3.7-.1-.17-6.44,3.74c-.09-.1-.14-.18-.17-.24l7.03-4.08v.81l-6.48,3.77Zm-2.78-1.82l7.65-4.46-.05-.09-.05-.09-7.72,4.5v.03c-.17-.13-.29-.26-.36-.34L24.01,1.34v.89l-7.61,4.53c-.08-.04-.15-.07-.21-.11Zm-6.88,11.82l6.1-3.34v.1l-6.02,3.29-.09-.06Zm5.28,3.62l-5.27-3.29,6.1-3.34v1.37s.56,.91,1.87,.97h.03l.89-.45v.89s.13,.82,1.43,.88h.03l1.22-.72v.23l-6.3,3.45Zm7.36-2.08c-.77-.07-.86-.51-.86-.52V11.23c.15,.16,.42,.32,.86,.36v8.42Zm9.86,1.82c-.07,.02-.12,.02-.13,0l-2.64-3.31s.04-.07,.08-.11c.03-.03,.06-.07,.1-.11,.1-.09,.18-.12,.23-.13l2.66,3.31s0,.18-.12,.28c-.06,.05-.12,.07-.17,.08Zm-5.2-3.64s-.07-.04-.11-.06c-.43-.31-.79-.72-1.08-1.18-.64-1.01-.92-2.26-.62-3.28,.09-.31,.24-.58,.42-.8,.19-.23,.43-.4,.7-.5l.05-.02c.17-.06,.36-.09,.55-.09,.48,0,.99,.18,1.47,.52,1.37,.98,2.13,2.97,1.7,4.45-.09,.3-.23,.56-.4,.78h0c-.06,.03-.13,.07-.21,.14-.1,.09-.16,.17-.2,.24-.11,.07-.21,.13-.33,.17-.58,.2-1.28,.06-1.93-.37Z"/><path class="cls-1" d="M11.83,11.84c.26,0,.46-.21,.46-.46s-.21-.46-.46-.46-.46,.21-.46,.46,.21,.46,.46,.46Z"/></svg>