<svg xmlns="http://www.w3.org/2000/svg" id="Layer_1" viewBox="0 0 40 25"><defs><style>.cls-1{fill:#9be583}.cls-2{fill:#303030}</style></defs><path d="M12.18 13.4c0-.26-.21-.46-.46-.46s-.46.21-.46.46.21.46.46.46.46-.21.46-.46ZM26.33 4.69c.12 0 .23-.1.23-.23s-.1-.23-.23-.23-.23.1-.23.23.1.23.23.23ZM33.26 15.13c-.35 0-.63.28-.63.63s.28.63.63.63.63-.28.63-.63-.28-.63-.63-.63Z" class="cls-1"/><path d="m11.92 17.4-.03.02-1.31-.79-.11.18 1.35.8.04.06.03-.02 2.32 1.38.1-.17-2.36-1.41-.03-.05zM12.79 16.87l-.17.1.11.17.16-.1-.1-.17zM11.32 17.76l.1.17.17-.1-.11-.17-.16.1zM10.88 18.03l.11.17.16-.1-.1-.18-.17.11zM12.35 17.13l-.16.1.1.18.17-.11-.11-.17zM13.22 16.6l-.16.11.1.17.17-.1-.11-.18zM32.25 20.25l-.02-.01-.02.04-4.39 2.66.1.18 4.32-2.63.04.03.06-.08 1.22-.75-.1-.17-1.21.73zM10.31 3.89l-.82.44-.06.05v5.36l3.93 2.45.06.02h.02l.87-.45V6.62l-3.95-2.69-.05-.03Zm-.69.73 3.71 2.53v4.8L9.62 9.64V4.62ZM32.97 20.97l.16.11.11-.17-.16-.11-.11.17zM32.54 20.69l.17.1.11-.16-.17-.11-.11.17zM31.274 19.838l.108-.157.156.108-.108.156zM31.97 20.06l-.17-.1-.11.17.17.1.11-.17zM19.54 19.62l-1.01.54.95.56 1.01-.55-.95-.55Zm0 .23.54.32-.6.33-.54-.32.6-.32ZM24.81 21.16l-.05-.08-.16.08-.59.33-.55-.33-.15-.08-.05.08-.05.09.79.47.86-.47-.05-.09zM21.58 22.08l.95.56 1.01-.55-.95-.55-1.01.54Zm.95.33-.54-.32.6-.32.54.32-.6.33ZM20.56 21.17l.59-.32.55.32.15.08.1-.17-.8-.46-.85.46.04.09h.01l.04.09.17-.09zM20.81 18.78l-.86.46.1.17.16-.08.59-.32.55.32.15.08.05-.08.05-.09-.79-.46zM22.58 19.7l-.86.46.1.18.16-.09.6-.32.54.32.15.09.05-.09.05-.08-.79-.47z" class="cls-2"/><path d="m10.19 6.75 2.28 1.42.11-.17-2.28-1.42-.11.17zM10.19 7.86l2.28 1.42.11-.17-2.28-1.42-.11.17zM10.19 8.93l2.28 1.41.11-.17-2.28-1.41-.11.17zM27.28 20l-.21.02c.02-.13.11-.24.2-.25l.4-.03h.01c.11 0 .29.11.38.27l.22.37c.08.13.2.23.33.25h.12c.01 0 .02 0 .04-.01s.06-.02.09-.04l.02-.02.75-.38h.02l.6-.45c.17-.12.19-.41.06-.64l-.21-.37c-.07-.12-.09-.29-.07-.42-.04.15-.16.23-.3.17l-.33-.13h-.03l.07-.15c.05-.11.19-.16.31-.12l.3.12h.02c.09.04.18.03.26 0h.03s.01-.01.02-.01l.74-.38s.03-.01.04-.02c.09-.06.15-.17.16-.31l.05-.96c.01-.24-.14-.5-.34-.59l-.33-.14c-.14-.06-.3-.26-.34-.44l-.14-.53c-.05-.19 0-.38.09-.45l.24-.19c.16-.13.18-.41.04-.65l-.54-.92c-.03-.05-.07-.09-.11-.13V8.19h-3.42l-4.84-3.3h-.02l-.12-.1-.03-.02-2.8.06.99-.77-.12-.16-1.05.82a3.38 3.38 0 0 0-.91-1.14c-.51-.4-1.06-.54-1.5-.39-.35.12-.61.41-.72.83-.25.94.29 2.29 1.22 3.01.3.23.61.37.91.43v1.35c-.48-.34-.99-.47-1.41-.33-.35.12-.61.41-.72.83-.25.94.29 2.29 1.22 3.01.3.23.61.38.91.43v1.64c-.48-.34-.99-.47-1.41-.33-.35.12-.61.41-.72.83-.25.94.29 2.29 1.22 3.01.38.29.78.45 1.14.45.13 0 .25-.02.36-.06.35-.12.61-.41.72-.83.11-.4.06-.86-.08-1.32l2.7.06 1.54.96v.05c0 .11.02.24.09.35l.54.92c.08.14.2.23.33.26.09.02.18 0 .25-.04l.25-.17c.08-.05.25-.03.38.08l.38.35c.13.12.23.37.23.54v.39c-.02.24.14.5.34.58l.8.32h.01s.09.03.14.03c.06 0 .11-.02.16-.05.01 0 .02-.02.03-.03l.74-.37h.02c.03-.02.05-.05.07-.08-.12-.16-.31-.27-.45-.26Zm-1.68-.15v-.39c.02-.23-.11-.53-.28-.69l-.38-.35a.603.603 0 0 0-.4-.16c-.08 0-.16.02-.22.06l-.25.17s-.06.02-.09.01a.357.357 0 0 1-.2-.17l-.54-.92c-.09-.16-.08-.33 0-.39l.24-.19c.15-.12.22-.41.16-.66l-.14-.53c-.06-.24-.26-.49-.46-.58l-.33-.14c-.13-.06-.23-.24-.22-.4l.04-.79v-.17c.01-.07.04-.11.07-.14.04-.01.09 0 .13 0l.31.12s.08.02.13.02c.18.01.36-.08.43-.24l.18-.4c.09-.19.05-.5-.07-.72l-.21-.37c-.09-.16-.07-.33 0-.38l.27-.2.33-.24h.01s.05-.03.08-.02c.07.01.15.07.2.16l.22.37c.13.21.37.36.56.36h.03l.29-.03h.11c.21-.03.38-.23.4-.48v-.2l.03-.18c0-.07.03-.12.07-.14s.09-.02.12 0l.81.33c.13.05.23.23.23.39v.39c-.02.23.11.53.28.69l.38.35c.18.17.46.22.63.1l.25-.17s.05-.02.09-.01c.07.02.15.08.2.17l.54.91c.09.16.08.33 0 .39l-.23.18c-.08.07-.14.19-.16.33-.02.11-.02.22 0 .33l.14.53c.06.24.26.49.46.58l.33.14c.13.06.23.24.22.4l-.05.96c0 .07-.03.12-.07.15h-.01s-.08.02-.11 0l-.09-.03-.24-.09a.453.453 0 0 0-.56.22l-.11.24-.07.15c-.09.19-.05.5.07.72l.21.37c.09.16.07.33 0 .38l-.23.17-.37.28s-.06.02-.09.02c-.07-.01-.14-.07-.2-.16l-.22-.37c-.13-.22-.38-.38-.58-.36l-.4.03c-.21.02-.38.23-.4.47l-.03.39c0 .07-.03.12-.07.15-.04.02-.09.02-.12 0l-.08-.03-.73-.3c-.13-.05-.23-.23-.23-.39Zm4.13-7.53h-.02c-.09-.02-.18 0-.25.05l-.25.17c-.08.05-.25.03-.38-.08l-.38-.35a.851.851 0 0 1-.23-.54v-.39c.02-.24-.13-.5-.34-.58l-.81-.33a.304.304 0 0 0-.21-.01l-.07.02h-.02l-.17.1v-2h3.12v3.96ZM15.58 4.05c.09-.35.3-.59.59-.69.09-.03.2-.05.3-.05.32 0 .67.14 1.02.41.37.29.67.68.88 1.11l-1.34 1.05-.72-1.16-.17.11.83 1.35 1.48-1.16c.22.52.3 1.07.18 1.51-.09.35-.3.59-.59.69-.38.13-.86 0-1.32-.36-.87-.67-1.38-1.93-1.15-2.8Zm0 5.29c.09-.35.3-.59.59-.69.09-.03.2-.05.3-.05.32 0 .67.14 1.02.41.37.29.67.68.88 1.11l-1.34 1.05-.72-1.16-.17.11.83 1.35 1.48-1.16c.22.52.3 1.07.18 1.51-.09.35-.3.59-.59.69-.38.13-.86 0-1.32-.36-.87-.67-1.38-1.93-1.15-2.8Zm3.05 8.06c-.09.35-.3.59-.59.69-.38.13-.86 0-1.32-.36-.87-.67-1.38-1.93-1.15-2.8.09-.35.3-.59.59-.69.09-.03.2-.05.3-.05.32 0 .67.14 1.02.41.37.29.67.68.88 1.1l-1.34 1.04-.72-1.16-.17.11.83 1.35 1.48-1.16c.22.52.3 1.07.18 1.51Zm.05-1.47c-.02-.06-.05-.11-.07-.17l1.09-.85-.12-.16-1.05.82c-.2-.4-.48-.76-.81-1.05v-1.78h.04c.13 0 .25-.02.36-.06.35-.12.61-.41.72-.83.13-.5.04-1.11-.21-1.69l1.08-.85-.12-.16-1.05.82c-.2-.4-.48-.76-.81-1.05V7.44h.04c.13 0 .25-.02.36-.06.35-.12.61-.41.72-.83.12-.46.05-1.03-.16-1.56l2.78-.06.03.02v11.03l-2.79-.06Zm2.99.16V5.11l4.73 3.23v2.14l-.4.21c-.09.06-.15.17-.16.31v.13l-.03.26c0 .15-.11.28-.22.29h-.06l.02-.3c0-.11.06-.19.14-.23-.04-.04-.08-.06-.11-.11l-.22-.37c-.08-.13-.2-.23-.33-.25a.26.26 0 0 0-.23.05l-.79.4H24l-.61.46a.38.38 0 0 0-.14.31c0 .11.02.22.08.33l.21.37c.09.16.12.41.06.54l-.18.4c-.03.06-.09.1-.16.12l.05-.11c.05-.11.04-.26 0-.41h-.02s-.02.01-.02.02l-.77.4h-.01a.43.43 0 0 0-.16.31v.12l-.05.84c-.01.24.14.5.34.59l.33.14c.14.06.3.26.34.44l.14.53c.05.19 0 .39-.09.45l-.19.15-.05.04s-.03.04-.05.06l-1.4-.87Z" class="cls-2"/><path d="M25.4 19.85v-.39c.02-.17-.09-.42-.22-.54l-.38-.35c-.13-.12-.3-.14-.38-.08l-.25.17a.27.27 0 0 1-.25.04.522.522 0 0 1-.33-.26l-.54-.92a.654.654 0 0 1-.09-.35l-.19.15c-.12.1-.13.33-.02.52l.54.91c.11.19.31.27.43.18l.25-.17c.13-.09.35-.05.5.09l.38.35c.15.14.27.41.26.61v.39c-.02.2.11.42.28.49l.81.33c.17.07.31-.04.33-.23v-.04l-.79-.32c-.21-.08-.36-.34-.35-.58ZM23.04 12.26l.21.37c.04.06.05.14.07.21.04.15.05.31 0 .41l-.05.11c.07-.02.13-.05.16-.12l.18-.4c.06-.13.03-.38-.06-.54l-.21-.37a.577.577 0 0 1-.08-.33l-.18.13c-.13.09-.14.32-.03.51ZM25.69 11.13c-.07.04-.13.11-.14.23l-.02.31h.06c.11-.01.21-.15.22-.29l.02-.26c-.05 0-.1 0-.14.01ZM22.05 13.95l-.05.96c0 .2.12.42.28.49l.33.14c.17.07.35.3.4.51l.14.53c.02.08.02.17.01.25l.19-.15c.08-.06.14-.26.09-.45l-.14-.53c-.05-.18-.21-.38-.34-.44l-.33-.14c-.21-.09-.36-.35-.34-.59l.04-.84c-.15-.03-.27.07-.28.25ZM27.99 20.68c.11.19.31.26.43.17l.31-.23h-.12c-.13-.02-.25-.12-.33-.25l-.22-.37c-.1-.16-.28-.27-.38-.27h-.01l-.4.03c-.1 0-.18.12-.2.25l.21-.02c.14-.01.33.1.45.26.01.02.03.04.05.06l.22.37ZM25.06 13.68c.17-.06.35-.07.53-.07.26.01.54.09.82.25.07.04.13.08.2.12.1.07.2.14.3.23.96.89 1.37 2.42.93 3.44 0 .02 0 .03-.02.05.12-.1.22-.24.3-.41.46-.99.06-2.5-.89-3.38-.5-.46-1.07-.66-1.57-.57-.23.04-.42.16-.59.32ZM29.74 18.05c-.11-.05-.26 0-.31.12l-.07.15h.03l.33.13c.14.06.26-.02.3-.17 0-.02.02-.05.02-.07v-.03l-.3-.12Z" class="cls-1"/><path d="M26.56 20.54v-.13c.02-.19.14-.34.29-.37.02-.25.19-.46.4-.47l.4-.03c.2-.01.45.14.58.36l.22.37c.05.08.12.14.2.16.03 0 .07 0 .09-.02l.37-.28a.43.43 0 0 0-.06-.24l-.21-.37c-.11-.19-.14-.47-.07-.63l.18-.4c.04-.08.1-.13.18-.16l.11-.24c.09-.2.35-.3.56-.22l.24.09.03-.72c0-.2-.12-.42-.28-.49l-.33-.14c-.17-.07-.35-.3-.4-.51l-.14-.53c-.05-.21 0-.46.12-.55l.15-.12c.02-.14.08-.26.16-.32 0-.09-.02-.18-.07-.26l-.54-.91c-.11-.19-.31-.27-.43-.18l-.25.17c-.13.09-.35.05-.5-.09l-.38-.35c-.15-.14-.27-.41-.26-.61v-.39c.02-.2-.11-.42-.28-.49l-.67-.27v.2c-.03.25-.2.46-.41.47h-.11c-.05.15-.16.26-.28.27l-.4.03c-.16.01-.38-.13-.49-.31l-.22-.37c-.08-.14-.21-.22-.33-.21l-.27.2c-.07.05-.09.23 0 .38l.21.37c.12.22.16.54.07.72l-.18.4a.44.44 0 0 1-.43.24l-.04.08c-.07.16-.27.23-.43.17l-.17-.07-.04.79c0 .16.1.34.22.4l.33.14c.19.08.4.34.46.58l.14.53c.07.25 0 .54-.16.66l-.24.19c-.07.06-.09.23 0 .39l.54.92c.05.09.13.15.2.17.03 0 .06 0 .09-.01l.25-.17c.06-.04.14-.06.22-.06.14 0 .29.06.4.16l.38.35c.17.16.3.46.29.69v.39c-.02.16.09.34.22.39l.73.3Zm-.95-7.38c.56-.11 1.2.11 1.74.62 1.01.93 1.43 2.55.94 3.61-.18.39-.46.65-.81.79-.57.55-1.49.49-2.29-.25-.98-.9-1.39-2.47-.91-3.49.08-.18.19-.31.31-.43.22-.45.58-.75 1.03-.84Z" class="cls-1"/><path d="M24.57 14.03c-.49 1.06-.07 2.68.94 3.61.45.42.97.65 1.45.65.1 0 .19 0 .29-.03.08-.02.16-.05.23-.08.35-.14.63-.41.81-.79.49-1.06.07-2.68-.94-3.61-.55-.5-1.18-.73-1.74-.62-.45.09-.81.39-1.03.84 0 0-.01.02-.02.03Zm1.08-.67c.5-.09 1.07.11 1.57.57.95.88 1.35 2.39.89 3.38-.08.17-.18.3-.3.42s.01-.05.02-.06c-.4.03-.83-.12-1.23-.44v-3.24a1.06 1.06 0 0 0-.2-.12v3.21c-.93-.88-1.33-2.38-.87-3.36.02-.04.04-.06.06-.1-.19 0-.37 0-.53.07.17-.16.36-.28.59-.32Z" class="cls-2"/></svg>