<?xml version="1.0" encoding="UTF-8"?><svg id="Layer_1" xmlns="http://www.w3.org/2000/svg" viewBox="0 0 40 25"><defs><style>.cls-1{fill:#9be583;}.cls-2{fill:#303030;}</style></defs><polygon class="cls-1" points="9.1 18.74 7.86 18.94 11.08 20.52 11.77 23.35 12.4 22.48 11.82 20.07 9.1 18.74"/><path class="cls-1" d="M14.03,17.97c-.01,.34-.03,.66-.04,.86,.12-.02,.31-.05,.52-.11,.12-.03,.24,.03,.28,.14,.04,.09,.04,.27-.34,.48-.35,.19-.68,.36-.92,.36-.08,0-.16-.02-.21-.07-.18-.12-.17-.33-.14-.46l-.09-1.05-.8,.13s0,.09,0,.13c.09,0,.22,0,.34,0,.24,0,.37,.05,.4,.17,.03,.16-.15,.26-.36,.34-.05,.02-.11,.05-.18,.08-.25,.11-.52,.24-.73,.24-.11,0-.2-.03-.26-.11-.07-.13-.04-.24-.03-.29,0-.09,0-.24,0-.41l-1.97,.31,2.51,1.23,.57,2.31,3.29-4.54-1.85,.29Z"/><circle class="cls-1" cx="20.6" cy="5.48" r=".46"/><path class="cls-1" d="M31.97,8.87c.12,0,.23-.1,.23-.23s-.1-.23-.23-.23-.23,.1-.23,.23,.1,.23,.23,.23Z"/><path class="cls-1" d="M25.26,16.42c-.35,0-.63,.28-.63,.63s.28,.63,.63,.63,.63-.28,.63-.63-.28-.63-.63-.63Z"/><g><path class="cls-2" d="M14.1,16.26c.33-.16,.54-.33,.55-.33l.05-.04-.23-2.31h.01c.11,0,.23-.05,.3-.12,.05-.06,.08-.12,.07-.19-.02-.25-.08-.31-.26-.37-.02,0-.05-.01-.07-.02,.02-.06,.04-.15,.06-.24,.03-.11,.06-.23,.08-.34l.11-.52v.02c0-.08,.02-.16,.02-.24,0-.04,0-.09,0-.14h0c0-.5-.08-1.5-.53-1.95-.27-.27-.6-.35-.77-.38v-.07c.31-.13,.58-.37,.38-1.32,0,0,.01-.02,.02-.03-.09,.03-.18,.06-.28,.09-.02,.02-.08,.09-.05,.23,.05,.2-.01,.31-.09,.35-.07,.03-.15,.02-.2-.05-.01-.01-.04-.03-.05-.03,0,.03,.05,.13,.08,.18l.03,.06-.04,.02,.04-.02h0c.02,.06,.05,.2-.04,.33-.1,.14-.31,.2-.62,.2h-.03c-.05,0-.15,0-.26-.01-.05,0-.09,0-.14,0-.04,0-.08,0-.13-.01-.1,.02-.2,.06-.27,.11-.09,.05-.85,.51-.88,2.29,0,.55,.32,.82,.45,.91,0,.04,0,.08,0,.11h0l-.03,.17c-.19,.38-.12,.81-.07,1.17,.02,.1,.03,.19,.04,.28,.03,.36-.16,1.69-.16,1.7v.05l.02,.04s.12,.15,.31,.31c0,.22-.04,1.02-.06,1.72l-3.19,.5,.8,.39,2.72,1.33,.59,2.4,.15,.63,4.42-6.11-2.93,.46c.02-.54,.04-1.03,.05-1.19Zm-2.4,2.59v-.04h0c.07,0,.16-.02,.23-.07,.06-.04,.1-.09,.14-.13h.15c.1,0,.26,0,.41,0,.02,0,.03,0,.04,0-.03,.01-.06,.03-.1,.04-.06,.02-.12,.05-.19,.08-.19,.09-.63,.29-.69,.21,0-.02-.01-.04,0-.1Zm.76-2.3c.11,.02,.23,.03,.36,.03,.04,0,.09,0,.13-.01l.09,1.04-.71,.11c.03-.37,.08-.78,.13-1.17Zm.95,2.7s.1,.01,.16,0c.15-.06,.24-.13,.29-.18v.03s.32-.03,.7-.15c0,0-.01,.07-.25,.2-.48,.26-.76,.36-.85,.29-.08-.05-.06-.14-.05-.18Zm-1.12-10.05c.11,.15,.26,.2,.42,.22,.01,0,.02,0,.03,.01,.01,0,.03,0,.04,0,.02,0,.04,0,.07,0s.05,0,.07,0h.01s.09-.01,.14-.02c.16-.03,.3-.08,.36-.11,.1,.01,.43,.07,.69,.33,.37,.36,.46,1.28,.46,1.77,0,.04-.03,.24-.2,.24-.23,0-.31-.11-.31-.11l-.2,.13s.15,.22,.51,.22c.06,0,.11-.02,.16-.04-.02,.11-.05,.24-.08,.37-.08,.09-.15,.14-.23,.15-.11,0-.19-.06-.21-.08-.08-.37-.2-.76-.22-.84l-.03-.79h-.24l.03,.81v.03s.16,.5,.24,.92v.09c-.52,.09-1.65,.2-2.1-.12,0-.05,0-.11,0-.16-.02-.19-.04-1.48,0-1.82,0-.84,.17-1.18,.62-1.2Zm-.86,1.19c-.04,.28-.03,1.12-.02,1.57-.1-.12-.2-.3-.2-.57,0-.59,.1-1.02,.22-1.33,0,.11-.01,.22-.01,.33Zm.03,5.32c.04-.25,.18-1.36,.15-1.71,0-.09-.02-.19-.04-.29-.05-.34-.11-.73,.05-1.04v-.02c.63,.31,1.81,.15,2.19,.09,0,.04,.01,.07,.02,.11h0c.02,.14,.05,.27,.08,.34,.04,.09,.17,.19,.3,.27l.23,2.3c-.13,.09-.47,.32-.93,.46-.24,.07-.48,.11-.7,.11-.77,0-1.24-.49-1.36-.62Zm4.98,1.6l-3.78,5.22-.08-.32-.57-2.31-2.51-1.23-.42-.21,2.4-.37c0,.1,0,.19,0,.28,0,.17,0,.33,0,.41-.02,.05-.04,.17,.03,.29,.06,.08,.15,.11,.26,.11,.21,0,.48-.12,.73-.24,.07-.03,.13-.06,.18-.08,.21-.08,.39-.18,.36-.34-.02-.12-.16-.16-.4-.17-.12,0-.25,0-.34,0,0-.03,0-.09,0-.13,0-.08,0-.17,.02-.28l.76-.12,.02,.27,.09,1.05c-.04,.13-.04,.34,.14,.46,.06,.05,.13,.07,.21,.07,.24,0,.56-.16,.92-.36,.38-.21,.37-.39,.34-.48-.04-.11-.17-.17-.28-.14-.21,.06-.4,.09-.52,.11,.01-.21,.02-.52,.04-.86,0-.09,0-.18,.01-.28l2.41-.38Z"/><path class="cls-2" d="M11.94,7.5c-.04,.08-.09,.16-.11,.26-.03,.17-.02,.35,.02,.52,.05,.19,.13,.34,.22,.46,.11,.01,.26,.03,.38,.03,.1,0,.19,0,.23,0,.33,0,.41-.07,.43-.1,.02-.03,.02-.07,.01-.09l-.02-.04c-.07-.12-.15-.25-.09-.38,.04-.09,.1-.14,.19-.15,.05,0,.11,0,.15,.02h0c-.06-.28,.08-.44,.16-.5h.03l.14-.06c.08-.03,.16-.05,.24-.08-.07-.14-.27-.39-.76-.46-.02,0-.14-.02-.3-.01,0-.03,.02-.05,.02-.07,0-.21-.13-.48-.39-.59-.2-.09-.41-.1-.59-.03-.16,.06-.28,.19-.34,.34v.02s-.09,.48,.2,.77c.07,.07,.13,.1,.2,.12Z"/><path class="cls-2" d="M20.65,16.73h-.01l-.1,.21h0c.06,.04,.11,.06,.15,.08h.01l.12-.2h-.02s-.07-.04-.1-.06l-.06-.03Z"/><path class="cls-2" d="M24.4,12.66h0l-.21,.15h.03s.08,.09,.12,.13v.02l.18-.18h0l-.11-.12Z"/><path class="cls-2" d="M24.76,12.97h0l-.14,.2h.02s.02,.01,.03,.02c0,0,.02,0,.03,.02l.1,.05,.12-.2-.1-.06s-.04-.02-.05-.03Z"/><path class="cls-2" d="M29.36,16.02h.01s.05,.09,.08,.14v.02l.22-.12h0c-.03-.06-.06-.12-.1-.17h0l-.2,.13Z"/><path class="cls-2" d="M24.24,11.02c.02-.06,.05-.1,.07-.14h0l-.22-.14v.02c-.02,.05-.06,.1-.08,.16h0l.22,.11h.01Z"/><path class="cls-2" d="M24.1,11.47c0-.05,.02-.1,.03-.15v-.02l-.23-.05h0c-.02,.07-.03,.13-.04,.19h0l.24,.05v-.02Z"/><path class="cls-2" d="M23.86,11.99l.24-.03h0c0-.06,0-.11-.02-.17h-.24c0,.08,0,.13,.02,.19h0Z"/><polygon class="cls-2" points="21.27 17.07 21.1 16.97 20.98 17.18 21.15 17.28 21.27 17.07"/><path class="cls-2" d="M24.23,12.39s-.04-.09-.06-.14h0l-.23,.07h.01c.02,.08,.05,.13,.07,.18v.02l.22-.11v-.02Z"/><path class="cls-2" d="M24.75,18.94s-.06-.02-.08-.03h-.02l-.07,.22h0s.1,.04,.15,.05h.03l.07-.22h0s-.06-.02-.08-.02Z"/><path class="cls-2" d="M20.24,16.82h.03l.07-.22h-.01s-.05-.02-.07-.02c-.03-.02-.06-.03-.1-.04h0l-.07,.23h.01s.1,.04,.15,.05Z"/><path class="cls-2" d="M24.5,10.63s.07-.09,.11-.12h.01l-.16-.18h0c-.05,.05-.09,.09-.13,.13v.02l.17,.16h0Z"/><path class="cls-2" d="M25.15,19.04h-.02l-.05,.23h.02s.08,.02,.12,.03c0,0,.03,.01,.05,.01h.01l.04-.23h0s-.11-.03-.16-.04Z"/><polygon class="cls-2" points="27.07 9.09 27.24 9 27.13 8.79 26.95 8.88 27.07 9.09"/><path class="cls-2" d="M29.17,15.49l-.14,.19v.02s.09,.06,.13,.09h.02l.16-.16h-.02s-.08-.09-.13-.12l-.02-.02Z"/><path class="cls-2" d="M24.9,10.03l-.08,.03s-.06,.04-.09,.06h0l.13,.21h0s.05-.04,.08-.05l.08-.05-.11-.19h-.01Z"/><path class="cls-2" d="M29.57,16.44h0c.02,.06,.03,.12,.04,.17h0l.24-.03v-.02c-.02-.05-.03-.12-.05-.18h0l-.23,.06Z"/><path class="cls-2" d="M19.78,16.69h.01l.05-.23h-.01c-.07-.02-.13-.03-.18-.04h-.01l-.04,.24h.01c.07,0,.12,.02,.17,.03Z"/><path class="cls-2" d="M24.21,18.73h-.02l-.1,.21h.02s.05,.03,.08,.04c.03,0,.05,.02,.08,.03h.01l.09-.22h-.03s-.09-.04-.13-.06Z"/><polygon class="cls-2" points="26.62 9.34 26.8 9.25 26.68 9.03 26.51 9.13 26.62 9.34"/><polygon class="cls-2" points="25.06 13.42 25.23 13.52 25.35 13.31 25.18 13.21 25.06 13.42"/><polygon class="cls-2" points="25.17 9.87 25.29 10.08 25.46 9.99 25.34 9.78 25.17 9.87"/><polygon class="cls-2" points="21.71 17.32 21.54 17.22 21.42 17.43 21.59 17.53 21.71 17.32"/><polygon class="cls-2" points="27.27 14.68 27.45 14.78 27.57 14.57 27.39 14.47 27.27 14.68"/><path class="cls-2" d="M17.75,16.57s-.07,.02-.1,.03c-.02,0-.04,.02-.06,.02h-.02l.08,.24h.02c.06-.03,.11-.05,.16-.06h.01l-.07-.24h-.02Z"/><path class="cls-2" d="M29.64,16.92c0,.06,0,.11,0,.16h0l.24,.04v-.02c0-.07,0-.12,0-.18h-.24Z"/><path class="cls-2" d="M27.28,19.01c-.05,.01-.11,.03-.16,.04h-.02l.05,.24h.02s.11-.03,.17-.05h0l-.05-.24h-.02Z"/><path class="cls-2" d="M27.76,18.87s-.11,.04-.16,.05h0l.07,.23h0s.1-.03,.17-.05h0l-.08-.24h0Z"/><polygon class="cls-2" points="22.75 18.19 22.92 18.29 23.04 18.08 22.87 17.98 22.75 18.19"/><polygon class="cls-2" points="22.31 17.94 22.48 18.04 22.6 17.83 22.43 17.73 22.31 17.94"/><polygon class="cls-2" points="21.86 17.69 22.04 17.78 22.16 17.58 21.98 17.48 21.86 17.69"/><polygon class="cls-2" points="28.16 15.18 28.33 15.28 28.45 15.07 28.28 14.97 28.16 15.18"/><path class="cls-2" d="M28.68,18.44l-.15,.08s-.01,0-.02,0h0l.12,.23,.02-.02h0l.14-.09-.11-.19v-.02Z"/><path class="cls-2" d="M29.57,17.39s-.03,.1-.05,.15h0l.22,.1h.01c.02-.06,.04-.12,.06-.18v-.02l-.23-.06h0Z"/><path class="cls-2" d="M28.23,18.68h0s-.1,.05-.15,.07h-.02l.1,.23h.02s.1-.06,.15-.08h.02l-.1-.21h-.01Z"/><path class="cls-2" d="M29.37,17.82s-.05,.08-.09,.13h-.01l.19,.16h0c.04-.06,.07-.11,.1-.16h.01l-.2-.14h0Z"/><path class="cls-2" d="M29.06,18.18s-.06,.06-.1,.08l-.03,.03,.14,.19h.01s.09-.08,.14-.12h0l-.16-.19h0Z"/><polygon class="cls-2" points="28.6 15.44 28.78 15.53 28.9 15.32 28.72 15.22 28.6 15.44"/><path class="cls-2" d="M18.09,16.47h-.02l.06,.24h.04s.09-.03,.13-.04h.02l-.04-.22h-.02s-.1,0-.17,.02Z"/><polygon class="cls-2" points="26.24 13.81 26.07 13.71 25.95 13.92 26.12 14.02 26.24 13.81"/><polygon class="cls-2" points="26.06 9.38 26.18 9.59 26.35 9.49 26.23 9.28 26.06 9.38"/><polygon class="cls-2" points="26.51 13.96 26.39 14.17 26.56 14.27 26.68 14.06 26.51 13.96"/><polygon class="cls-2" points="27.72 14.93 27.89 15.03 28.01 14.82 27.84 14.72 27.72 14.93"/><polygon class="cls-2" points="25.8 13.56 25.62 13.46 25.5 13.67 25.68 13.77 25.8 13.56"/><polygon class="cls-2" points="25.61 9.63 25.73 9.84 25.91 9.74 25.79 9.53 25.61 9.63"/><path class="cls-2" d="M26.14,19.15l-.02,.22,.02,.02s.11,0,.17-.01v-.24h-.17Z"/><path class="cls-2" d="M26.79,19.1s-.1,.02-.16,.02h-.02l.03,.24h0c.06,0,.12,0,.17-.02h.02l-.03-.22-.02-.02Z"/><polygon class="cls-2" points="26.95 14.22 26.83 14.42 27.01 14.52 27.12 14.31 26.95 14.22"/><path class="cls-2" d="M19.12,16.37v.24h.08s.06,0,.09,0h0l.02-.24h0c-.06,0-.12,0-.18,0h-.01Z"/><polygon class="cls-2" points="23.19 18.44 23.36 18.54 23.48 18.33 23.31 18.23 23.19 18.44"/><path class="cls-2" d="M23.87,18.55l-.12-.06-.12,.21,.12,.06s.03,.02,.05,.03h0l.12-.2-.03-.02s-.02,0-.03-.02Z"/><path class="cls-2" d="M18.61,16.39h-.02l.02,.24h.06s.08,0,.12,0h.02v-.25h-.03c-.06,0-.12,0-.17,.02Z"/><path class="cls-2" d="M17.26,16.76s-.1,.05-.15,.08h-.01l.1,.22h.02c.06-.04,.1-.06,.15-.08h.01l-.1-.23h-.02Z"/><path class="cls-2" d="M25.64,19.12h-.02l-.02,.24h0c.06,0,.12,0,.18,0h0l.02-.23h-.07s-.08-.01-.11-.02Z"/><polygon class="cls-2" points="17.96 9.25 17.79 9.14 17.67 9.35 17.84 9.45 17.96 9.25"/><polygon class="cls-2" points="17.53 8.98 17.36 8.88 17.23 9.09 17.4 9.19 17.53 8.98"/><polygon class="cls-2" points="17.09 8.72 16.92 8.62 16.79 8.83 16.96 8.93 17.09 8.72"/><polygon class="cls-2" points="19.54 10.19 19.42 10.39 19.59 10.49 19.71 10.29 19.54 10.19"/><polygon class="cls-2" points="18.4 9.51 18.23 9.4 18.11 9.61 18.28 9.71 18.4 9.51"/><polygon class="cls-2" points="20.59 10.81 20.42 10.71 20.29 10.91 20.47 11.01 20.59 10.81"/><polygon class="cls-2" points="20.15 10.55 19.98 10.45 19.86 10.65 20.03 10.75 20.15 10.55"/><polygon class="cls-2" points="18.84 9.77 18.67 9.67 18.54 9.87 18.72 9.97 18.84 9.77"/><polygon class="cls-2" points="29.63 11.47 33.36 13.7 33.49 13.49 29.75 11.27 29.63 11.47"/><polygon class="cls-2" points="33.49 12.46 31.62 11.35 31.5 11.56 33.36 12.67 33.49 12.46"/><rect class="cls-2" x="30.13" y="10.02" width=".24" height="1.31" transform="translate(5.6 31.21) rotate(-59.22)"/><rect class="cls-2" x="31.44" y="12.87" width=".24" height="1.31" transform="translate(3.78 33.72) rotate(-59.22)"/><polygon class="cls-2" points="19.09 10.2 19.15 10.23 19.23 10.12 20.73 9.23 20.61 9.03 16.47 11.45 16.59 11.66 19.09 10.2"/><polygon class="cls-2" points="18.78 21.05 18.91 21.26 19.08 21.15 18.95 20.95 18.78 21.05"/><polygon class="cls-2" points="18.35 21.32 18.47 21.52 18.64 21.42 18.52 21.21 18.35 21.32"/><polygon class="cls-2" points="20.53 19.99 20.65 20.2 20.82 20.09 20.7 19.89 20.53 19.99"/><polygon class="cls-2" points="20.39 20.36 20.26 20.15 20.09 20.26 20.22 20.46 20.39 20.36"/><polygon class="cls-2" points="19.95 20.62 19.83 20.42 19.66 20.52 19.78 20.73 19.95 20.62"/><polygon class="cls-2" points="19.39 20.68 19.37 20.7 18.06 19.92 17.94 20.13 19.31 20.94 19.34 20.99 19.37 20.98 21.68 22.35 21.8 22.14 19.41 20.72 19.39 20.68"/><path class="cls-2" d="M27.61,8.9l.09-.06h0l.49-.31h0l.09-.06c.1-.06,2.44-1.6,2.5-3.34,.05-1.31-.98-2.72-2.3-3.14-.61-.2-1.2-.15-1.67,.12h0l-.13,.07h0l-.56,.36s-.02,0-.03,.01h-.01l-.02,.02h0c-.43,.32-.68,.82-.71,1.43-.07,1.8,2.09,4.7,2.18,4.82l.07,.09Zm-1.39-6.15l.04-.03c.25-.17,.55-.26,.88-.26,.22,0,.45,.04,.69,.12,1.22,.4,2.18,1.7,2.13,2.9-.05,1.43-1.86,2.78-2.3,3.09-.37-.51-2.12-3.04-2.06-4.57,.02-.54,.24-.98,.62-1.25Z"/><path class="cls-2" d="M28.09,5.93c.2,0,.39-.05,.54-.16,.23-.16,.37-.42,.38-.74,.02-.65-.49-1.35-1.14-1.56-.34-.11-.67-.07-.92,.1-.23,.16-.37,.42-.38,.74-.02,.65,.49,1.35,1.14,1.56,.13,.04,.26,.06,.38,.06Zm-.61-2.29c.1,0,.2,.02,.31,.05,.56,.18,1,.78,.98,1.32,0,.11-.03,.21-.07,.29-.1,0-.21,0-.32-.04-.56-.18-1-.78-.97-1.33,0-.11,.03-.21,.07-.3h.01Z"/></g></svg>