<svg xmlns="http://www.w3.org/2000/svg" id="Layer_1" viewBox="0 0 40 25"><defs><style>.cls-1{fill:#9be583}.cls-2{fill:#303030}</style></defs><path d="M12.8 15.62s.02-.1.03-.25l-4.99 2.85c-.01.08-.02.16-.05.25l5.01-2.86ZM12.63 14.65c-.2-.2-.47-.14-.5-.14l-4.61 2.58c.17.12.41.37.46.83l4.83-2.75c0-.1 0-.34-.17-.51Z" class="cls-1"/><path d="m13.15 15.19.03-.02.38-.95.23-.15-.11-.17-.24.16-1.16.14-.21.11-5.16 2.88c-.17.1-.43.4-.23.83.13.28.39.37.62.37.12 0 .23-.02.31-.05l.21-.12 4.99-2.85.32-.18Zm-5.64 1.9 4.61-2.58s.3-.07.5.14c.17.17.17.42.17.51l-4.83 2.75c-.05-.46-.29-.71-.46-.83Zm5.51-2.06-.03.02c0-.15-.05-.37-.22-.54a.522.522 0 0 0-.2-.14l.75-.09-.3.76Zm-5.48 3.13s-.49.16-.67-.22c-.17-.37.11-.55.14-.57l.3-.17c.09.05.44.26.46.82l-.24.14ZM23.62 22.02l.1.18.16-.11-.09-.17-.17.1zM26.69 20.2l.1.18.16-.1-.1-.18-.16.1zM25.54 20.88l-1.37-.9-.11.16 1.34.89.07.11v.01l.06-.03 1.24.82.11-.17-1.34-.88v-.01zM25.98 20.62l-.17.1.1.18.17-.1-.1-.18zM26.41 20.36l-.16.1.1.18.17-.1-.11-.18zM24.49 21.5l.1.18.17-.1-.1-.18-.17.1zM24.05 21.76l.11.18.16-.1-.1-.18-.17.1zM24.93 21.24l.1.17.17-.09-.1-.18-.17.1z" class="cls-2"/><path d="M30.05 7.55c.12 0 .23-.1.23-.23s-.1-.23-.23-.23-.23.1-.23.23.1.23.23.23ZM33.39 13.44c-.35 0-.63.28-.63.63s.28.63.63.63.63-.28.63-.63-.28-.63-.63-.63Z" class="cls-1"/><path d="m13.99 20.2.87.52.1-.17-.87-.52-.1.17zM11.57 18.76l1.9 1.13.1-.17-1.9-1.13-.1.17zM13.47 17.51l3.29 1.96.1-.17-3.29-1.96-.1.17zM14.05 19.09l1.77 1.06.1-.17-1.77-1.06-.1.17zM13.48 18.61l-.84-.49-.1.17.84.5.1-.18zM11.21 22.42l.16.1.11-.17-.17-.1-.1.17zM12.07 22.96l.16.1.11-.16-.17-.11-.1.17zM9.06 21.05l.16.11.11-.17-.17-.11-.1.17zM9.92 21.6l.16.1.11-.17-.17-.1-.1.17zM9.49 21.32l.16.11.11-.17-.17-.11-.1.17zM10.35 21.87l.16.1.11-.16-.17-.11-.1.17zM11.64 22.69l.16.1.11-.17-.16-.1-.11.17zM10.78 22.14l.16.11.11-.17-.16-.11-.11.17z" class="cls-2"/><path d="M27.55 13.32c-.31-.2-.62-.29-.91-.29-.17 0-.32.03-.47.1-.19.08-.34.22-.46.4.14-.07.29-.11.45-.12.31-.02.64.06.99.26a.3.3 0 0 1 .08.04c.03.02.06.05.09.07.45.22 1.07.71 1.31 1.81.18.52.25 1.06.17 1.55a2 2 0 0 1-.1.37c.19-.21.33-.5.38-.85.19-1.19-.49-2.68-1.52-3.33Z" class="cls-1"/><path d="M24.94 14.7c.06-.37.2-.66.39-.88.15-.42.41-.73.76-.88.43-.2.94-.14 1.45.14-.83-.54-1.68-.59-2.32-.22-.18.22-.33.49-.42.8-.3 1.02-.02 2.27.62 3.28-.4-.7-.6-1.52-.48-2.24ZM28.88 18.38c.04-.07.1-.15.2-.24a.63.63 0 0 1 .21-.13c.04-.09.09-.18.12-.29.31-1.05.02-2.34-.64-3.37.42.72.63 1.58.51 2.33-.09.59-.38 1.02-.8 1.24-.41.56-1.12.68-1.86.27.65.43 1.35.57 1.93.37.12-.04.23-.1.33-.17Z" class="cls-1"/><path d="M27.66 13.15s-.08-.04-.13-.06c-.51-.28-1.02-.34-1.45-.14-.35.16-.61.47-.76.88-.04.12-.08.26-.1.4-.2 1.26.52 2.84 1.61 3.53.34.22.69.33 1.02.33.19 0 .38-.04.55-.12.02-.01.04-.03.07-.04.42-.22.7-.65.8-1.24.12-.75-.09-1.61-.51-2.33-.28-.49-.66-.92-1.11-1.2Zm1.42 3.5c-.06.36-.19.64-.38.85-.06.07-.12.12-.19.17-.33.04-.69-.06-1.05-.28-.09-.06-.18-.13-.27-.2l.12-.07.05-.03v-3.07c.4.23.88.68 1.08 1.62l.2-.04c-.24-1.11-.86-1.6-1.31-1.82-.03-.02-.06-.05-.09-.07-.03-.02-.05-.02-.08-.04v.04c-.21-.08-.36-.1-.36-.1l-.02.2s.16.02.38.12v3.06l-.13.07c-.78-.74-1.26-1.98-1.1-2.99.04-.26.12-.47.24-.66-.16.01-.31.05-.45.12.12-.18.28-.31.46-.4.15-.07.3-.1.47-.1.29 0 .6.1.91.29 1.03.65 1.71 2.14 1.52 3.33Z" class="cls-2"/><path d="m31.52 21.96-2.71-3.39v-.02l-.03.03c-.07.06-.11.11-.14.16 0 0-.01 0-.02.01-.2.07-.42.1-.63.1-.52 0-1.07-.19-1.59-.56-1.43-1.02-2.23-3.12-1.78-4.67.03-.1.08-.19.12-.29-.17.22-.31.47-.41.78-.36 1.25.1 2.83 1.05 3.92a3.711 3.711 0 0 0 .69.64c.9.64 1.84.69 2.51.25l2.66 3.33c.06.07.27.06.44-.07.05-.04.07-.09.09-.14h-.03c-.09 0-.16-.03-.21-.08ZM29.12 18.41l-.08.12 2.64 3.31h.13v-.07l-2.69-3.35Z" class="cls-1"/><path d="M29.71 18.17c.31-.27.54-.63.68-1.09.46-1.55-.34-3.65-1.78-4.67-.41-.29-.84-.46-1.27-.52V8.27l-3.67 2.15-1.65.97c-.08 0-.16-.01-.23-.03l1.94-1.13 3.2-1.86-.1-.17h-.02v-.84l-.49.29V4.68l-.83.49-5.86 3.44c-.15 0-.29-.03-.41-.06l6.23-3.62V5h.2V3.54l-.35.2V2.26l-1.53.9-6.49 3.82c-.06 0-.1-.01-.16-.02l6.73-4.01.71-.42-.1-.17-.49.29-7.15 4.26c-.06-.02-.12-.03-.18-.05l7.42-4.42.2-.12-.04-.07V.99l-8.75 5.09-.05.03v8.79l-6.5 3.56.28.18-.28.15 5.61 3.5.05.03 6.31-3.46v.64s.11.67 1.15.71h.03l3.43-2.04s-.09-.1-.13-.15l-3.22 1.91v-8.38l1.43-.84 3.57-2.09v3.25c-.26-.02-.52 0-.76.08-.06.02-.11.06-.16.08l-.31.11h-.02c-.01 0-.02.01-.03.01l-.1.04c-.46.21-.82.59-1.03 1.11-.04.1-.09.19-.12.29-.45 1.56.34 3.65 1.78 4.67.52.37 1.07.56 1.59.56.22 0 .43-.03.63-.1 0 0 .01 0 .02-.01.03-.05.08-.1.14-.16.01-.01.03-.02.04-.03v.02l2.7 3.39c.05.06.12.08.21.08h.03c.11 0 .23-.05.34-.13.11-.08.19-.22.2-.36 0-.08 0-.15-.05-.2l-2.54-3.17Zm-3.1-9.84-2.77 1.61-2.31 1.34c-.07-.03-.12-.06-.17-.09l2.56-1.49 2.54-1.48-.1-.17-2.34 1.36-2.82 1.64a.757.757 0 0 1-.1-.14l3.01-1.74 2.5-1.45v.62Zm-9.42-1.15v10.4c-1.02-.09-1.49-.7-1.58-.83V6.92l-.08-.54c.22.24.76.73 1.66.81Zm7.9-3.32-.55.32-1.52.88-4.78 2.77-.05.03v.09h-.01s0 .02.01.04v9.14l-.81.41V7.15l7.71-4.53v1.24Zm.29 1.61.73-.43v2.72h.02L24.2 8.88l-3.27 1.9-.05.03v7.37l-1.13.68V8.77l5.64-3.3Zm-5.84 13.44c-1.03-.09-1.14-.67-1.14-.69V8.31c.19.21.52.45 1.14.5v10.1Zm-.58-10.44c-.08-.04-.16-.08-.22-.12l6.38-3.7-.1-.17-6.44 3.74c-.09-.1-.14-.18-.17-.24l7.03-4.08v.81l-6.48 3.77Zm-2.78-1.82 7.65-4.46-.05-.09-.05-.09-7.72 4.5v.03a2.47 2.47 0 0 1-.36-.34l8.36-4.86v.89L16.4 6.76c-.08-.04-.15-.07-.21-.11ZM9.3 18.47l6.1-3.34v.1l-6.02 3.29-.09-.06Zm5.28 3.62L9.31 18.8l6.1-3.34v1.37s.56.91 1.87.97h.03l.89-.45v.89s.13.82 1.43.88h.03l1.22-.72v.23l-6.3 3.45Zm7.36-2.08c-.77-.07-.86-.51-.86-.52v-8.26c.15.16.42.32.86.36v8.42Zm9.86 1.82c-.07.02-.12.02-.13 0l-2.64-3.31s.04-.07.08-.11c.03-.03.06-.07.1-.11.1-.09.18-.12.23-.13l2.66 3.31s0 .18-.12.28a.37.37 0 0 1-.17.08Zm-5.2-3.64s-.07-.04-.11-.06c-.43-.31-.79-.72-1.08-1.18-.64-1.01-.92-2.26-.62-3.28.09-.31.24-.58.42-.8.19-.23.43-.4.7-.5l.05-.02c.17-.06.36-.09.55-.09.48 0 .99.18 1.47.52 1.37.98 2.13 2.97 1.7 4.45-.09.3-.23.56-.4.78a.967.967 0 0 0-.41.38c-.11.07-.21.13-.33.17-.58.2-1.28.06-1.93-.37Z" class="cls-2"/><path d="M11.83 11.84c.26 0 .46-.21.46-.46s-.21-.46-.46-.46-.46.21-.46.46.21.46.46.46Z" class="cls-1"/></svg>