<?xml version="1.0" encoding="UTF-8"?><svg id="Layer_1" xmlns="http://www.w3.org/2000/svg" viewBox="0 0 40 25"><defs><style>.cls-1{fill:#9be583;}.cls-2{fill:#303030;}</style></defs><path class="cls-1" d="M12.18,13.4c0-.26-.21-.46-.46-.46s-.46,.21-.46,.46,.21,.46,.46,.46,.46-.21,.46-.46Z"/><path class="cls-1" d="M26.33,4.69c.12,0,.23-.1,.23-.23s-.1-.23-.23-.23-.23,.1-.23,.23,.1,.23,.23,.23Z"/><path class="cls-1" d="M33.26,15.13c-.35,0-.63,.28-.63,.63s.28,.63,.63,.63,.63-.28,.63-.63-.28-.63-.63-.63Z"/><polygon class="cls-2" points="11.92 17.4 11.89 17.42 10.58 16.63 10.47 16.81 11.82 17.61 11.86 17.67 11.89 17.65 14.21 19.03 14.31 18.86 11.95 17.45 11.92 17.4"/><polygon class="cls-2" points="12.79 16.87 12.62 16.97 12.73 17.14 12.89 17.04 12.79 16.87"/><polygon class="cls-2" points="11.32 17.76 11.42 17.93 11.59 17.83 11.48 17.66 11.32 17.76"/><polygon class="cls-2" points="10.88 18.03 10.99 18.2 11.15 18.1 11.05 17.92 10.88 18.03"/><polygon class="cls-2" points="12.35 17.13 12.19 17.23 12.29 17.41 12.46 17.3 12.35 17.13"/><polygon class="cls-2" points="13.22 16.6 13.06 16.71 13.16 16.88 13.33 16.78 13.22 16.6"/><polygon class="cls-2" points="32.25 20.25 32.23 20.24 32.21 20.28 27.82 22.94 27.92 23.12 32.24 20.49 32.28 20.52 32.34 20.44 33.56 19.69 33.46 19.52 32.25 20.25"/><path class="cls-2" d="M10.31,3.89l-.82,.44-.06,.05h0v5.36l3.93,2.45,.06,.02h.02l.87-.45V6.62l-3.95-2.69-.05-.03Zm-.69,.73l3.71,2.53v4.8l-3.71-2.31V4.62Z"/><polygon class="cls-2" points="32.97 20.97 33.13 21.08 33.24 20.91 33.08 20.8 32.97 20.97"/><polygon class="cls-2" points="32.54 20.69 32.71 20.79 32.82 20.63 32.65 20.52 32.54 20.69"/><rect class="cls-2" x="31.31" y="19.72" width=".19" height=".19" transform="translate(-2.73 34.43) rotate(-55.43)"/><polygon class="cls-2" points="31.97 20.06 31.8 19.96 31.69 20.13 31.86 20.23 31.97 20.06"/><path class="cls-2" d="M19.54,19.62l-1.01,.54,.95,.56,1.01-.55-.95-.55Zm0,.23l.54,.32-.6,.33-.54-.32,.6-.32Z"/><polygon class="cls-2" points="24.81 21.16 24.76 21.08 24.6 21.16 24.01 21.49 23.46 21.16 23.31 21.08 23.26 21.16 23.26 21.16 23.21 21.25 24 21.72 24.86 21.25 24.81 21.16 24.81 21.16"/><path class="cls-2" d="M21.58,22.08l.95,.56,1.01-.55-.95-.55-1.01,.54Zm.95,.33l-.54-.32,.6-.32,.54,.32-.6,.33Z"/><polygon class="cls-2" points="20.56 21.17 21.15 20.85 21.7 21.17 21.85 21.25 21.95 21.08 21.15 20.62 20.3 21.08 20.34 21.17 20.35 21.17 20.39 21.26 20.56 21.17"/><polygon class="cls-2" points="20.81 18.78 19.95 19.24 20.05 19.41 20.21 19.33 20.8 19.01 21.35 19.33 21.5 19.41 21.55 19.33 21.55 19.33 21.6 19.24 20.81 18.78"/><polygon class="cls-2" points="22.58 19.7 21.72 20.16 21.82 20.34 21.98 20.25 22.58 19.93 23.12 20.25 23.27 20.34 23.32 20.25 23.32 20.25 23.37 20.17 22.58 19.7"/><polygon class="cls-2" points="10.19 6.75 12.47 8.17 12.58 8 10.3 6.58 10.19 6.75"/><polygon class="cls-2" points="10.19 7.86 12.47 9.28 12.58 9.11 10.3 7.69 10.19 7.86"/><polygon class="cls-2" points="10.19 8.93 12.47 10.34 12.58 10.17 10.3 8.76 10.19 8.93"/><path class="cls-2" d="M27.28,20l-.21,.02c.02-.13,.11-.24,.2-.25l.4-.03h.01c.11,0,.29,.11,.38,.27l.22,.37c.08,.13,.2,.23,.33,.25,.04,0,.08,0,.12,0,.01,0,.02,0,.04-.01h0s.06-.02,.09-.04l.02-.02,.75-.38h0s.01,0,.02,0l.6-.45c.17-.12,.19-.41,.06-.64l-.21-.37c-.07-.12-.09-.29-.07-.42-.04,.15-.16,.23-.3,.17l-.33-.13s-.02,0-.03,0l.07-.15c.05-.11,.19-.16,.31-.12l.3,.12h.02c.09,.04,.18,.03,.26,0h.03s.01-.01,.02-.01h0l.74-.38h0s.03-.01,.04-.02c.09-.06,.15-.17,.16-.31l.05-.96c.01-.24-.14-.5-.34-.59l-.33-.14c-.14-.06-.3-.26-.34-.44l-.14-.53c-.05-.19,0-.38,.09-.45l.24-.19c.16-.13,.18-.41,.04-.65l-.54-.92c-.03-.05-.07-.09-.11-.13v-4.28h-3.42l-4.84-3.3h-.02l-.12-.1-.03-.02-2.8,.06,.99-.77-.12-.16-1.05,.82c-.22-.44-.53-.84-.91-1.14-.51-.4-1.06-.54-1.5-.39-.35,.12-.61,.41-.72,.83-.25,.94,.29,2.29,1.22,3.01,.3,.23,.61,.37,.91,.43v1.35c-.48-.34-.99-.47-1.41-.33-.35,.12-.61,.41-.72,.83-.25,.94,.29,2.29,1.22,3.01,.3,.23,.61,.38,.91,.43v1.64c-.48-.34-.99-.47-1.41-.33-.35,.12-.61,.41-.72,.83-.25,.94,.29,2.29,1.22,3.01,.38,.29,.78,.45,1.14,.45,.13,0,.25-.02,.36-.06,.35-.12,.61-.41,.72-.83,.11-.4,.06-.86-.08-1.32l2.7,.06,1.54,.96s0,.03,0,.05c0,.11,.02,.24,.09,.35l.54,.92c.08,.14,.2,.23,.33,.26,.09,.02,.18,0,.25-.04l.25-.17c.08-.05,.25-.03,.38,.08l.38,.35c.13,.12,.23,.37,.23,.54v.39c-.02,.24,.14,.5,.34,.58l.8,.32h.01s.09,.03,.14,.03c.06,0,.11-.02,.16-.05,.01,0,.02-.02,.03-.03h0l.74-.37h0s.01,0,.02,0c.03-.02,.05-.05,.07-.08-.12-.16-.31-.27-.45-.26Zm-1.68-.15v-.39c.02-.23-.11-.53-.28-.69l-.38-.35c-.12-.11-.27-.16-.4-.16-.08,0-.16,.02-.22,.06l-.25,.17s-.06,.02-.09,.01c-.07-.02-.15-.08-.2-.17l-.54-.92c-.09-.16-.08-.33,0-.39l.24-.19c.15-.12,.22-.41,.16-.66l-.14-.53c-.06-.24-.26-.49-.46-.58l-.33-.14c-.13-.06-.23-.24-.22-.4l.04-.79v-.17c.01-.07,.04-.11,.07-.14,.04-.01,.09,0,.13,0l.31,.12s.08,.02,.13,.02c.18,.01,.36-.08,.43-.24l.18-.4c.09-.19,.05-.5-.07-.72l-.21-.37c-.09-.16-.07-.33,0-.38l.27-.2,.33-.24h.01s.05-.03,.08-.02c.07,.01,.15,.07,.2,.16l.22,.37c.13,.21,.37,.36,.56,.36h.03l.29-.03h.11c.21-.03,.38-.23,.4-.48v-.2l.03-.18c0-.07,.03-.12,.07-.14h0s.09-.02,.12,0l.81,.33c.13,.05,.23,.23,.23,.39v.39c-.02,.23,.11,.53,.28,.69l.38,.35c.18,.17,.46,.22,.63,.1l.25-.17s.05-.02,.09-.01c.07,.02,.15,.08,.2,.17l.54,.91c.09,.16,.08,.33,0,.39l-.23,.18h0c-.08,.07-.14,.19-.16,.33-.02,.11-.02,.22,0,.33l.14,.53c.06,.24,.26,.49,.46,.58l.33,.14c.13,.06,.23,.24,.22,.4l-.05,.96c0,.07-.03,.12-.07,.15h-.01s-.08,.02-.11,0l-.09-.03-.24-.09c-.21-.08-.47,.02-.56,.22l-.11,.24-.07,.15c-.09,.19-.05,.5,.07,.72l.21,.37c.09,.16,.07,.33,0,.38l-.23,.17-.37,.28s-.06,.02-.09,.02c-.07-.01-.14-.07-.2-.16l-.22-.37c-.13-.22-.38-.38-.58-.36l-.4,.03c-.21,.02-.38,.23-.4,.47h0l-.03,.39c0,.07-.03,.12-.07,.15-.04,.02-.09,.02-.12,0l-.08-.03-.73-.3c-.13-.05-.23-.23-.23-.39Zm4.13-7.53s-.01,0-.02,0c-.09-.02-.18,0-.25,.05l-.25,.17c-.08,.05-.25,.03-.38-.08l-.38-.35c-.13-.12-.23-.37-.23-.54v-.39c.02-.24-.13-.5-.34-.58l-.81-.33c-.07-.03-.14-.03-.21-.01h0l-.07,.02h-.02l-.17,.1v-2h3.12v3.96ZM15.58,4.05c.09-.35,.3-.59,.59-.69,.09-.03,.2-.05,.3-.05,.32,0,.67,.14,1.02,.41,.37,.29,.67,.68,.88,1.11l-1.34,1.05-.72-1.16-.17,.11,.83,1.35,1.48-1.16c.22,.52,.3,1.07,.18,1.51h0c-.09,.35-.3,.59-.59,.69-.38,.13-.86,0-1.32-.36-.87-.67-1.38-1.93-1.15-2.8Zm0,5.29c.09-.35,.3-.59,.59-.69,.09-.03,.2-.05,.3-.05,.32,0,.67,.14,1.02,.41,.37,.29,.67,.68,.88,1.11l-1.34,1.05-.72-1.16-.17,.11,.83,1.35,1.48-1.16c.22,.52,.3,1.07,.18,1.51h0c-.09,.35-.3,.59-.59,.69-.38,.13-.86,0-1.32-.36-.87-.67-1.38-1.93-1.15-2.8Zm3.05,8.06h0c-.09,.35-.3,.59-.59,.69-.38,.13-.86,0-1.32-.36-.87-.67-1.38-1.93-1.15-2.8,.09-.35,.3-.59,.59-.69,.09-.03,.2-.05,.3-.05,.32,0,.67,.14,1.02,.41,.37,.29,.67,.68,.88,1.1l-1.34,1.04-.72-1.16-.17,.11,.83,1.35,1.48-1.16c.22,.52,.3,1.07,.18,1.51Zm.05-1.47c-.02-.06-.05-.11-.07-.17l1.09-.85-.12-.16-1.05,.82c-.2-.4-.48-.76-.81-1.05v-1.78s.03,0,.04,0c.13,0,.25-.02,.36-.06,.35-.12,.61-.41,.72-.83,.13-.5,.04-1.11-.21-1.69l1.08-.85-.12-.16-1.05,.82c-.2-.4-.48-.76-.81-1.05v-1.48s.02,0,.04,0c.13,0,.25-.02,.36-.06,.35-.12,.61-.41,.72-.83,.12-.46,.05-1.03-.16-1.56l2.78-.06,.03,.02V15.98l-2.79-.06Zm2.99,.16h0V5.11l4.73,3.23v2.14l-.4,.21h0c-.09,.06-.15,.17-.16,.31v.13l-.03,.26c0,.15-.11,.28-.22,.29h-.06l.02-.3c0-.11,.06-.19,.14-.23-.04-.04-.08-.06-.11-.11l-.22-.37c-.08-.13-.2-.23-.33-.25-.09-.02-.17,0-.23,.05h0l-.79,.4h-.01l-.61,.46c-.09,.07-.14,.18-.14,.31,0,.11,.02,.22,.08,.33l.21,.37c.09,.16,.12,.41,.06,.54l-.18,.4c-.03,.06-.09,.1-.16,.12l.05-.11c.05-.11,.04-.26,0-.41h-.02s-.02,.01-.02,.02h0l-.77,.4h-.01c-.09,.07-.15,.18-.16,.31v.12l-.05,.84c-.01,.24,.14,.5,.34,.59l.33,.14c.14,.06,.3,.26,.34,.44l.14,.53c.05,.19,0,.39-.09,.45l-.19,.15-.05,.04s-.03,.04-.05,.06l-1.4-.87Z"/><path class="cls-1" d="M25.4,19.85v-.39c.02-.17-.09-.42-.22-.54l-.38-.35c-.13-.12-.3-.14-.38-.08l-.25,.17c-.07,.05-.15,.07-.25,.04-.13-.03-.25-.12-.33-.26l-.54-.92c-.07-.11-.09-.24-.09-.35l-.19,.15c-.12,.1-.13,.33-.02,.52l.54,.91c.11,.19,.31,.27,.43,.18l.25-.17c.13-.09,.35-.05,.5,.09l.38,.35c.15,.14,.27,.41,.26,.61v.39c-.02,.2,.11,.42,.28,.49l.81,.33c.17,.07,.31-.04,.33-.23v-.04l-.79-.32c-.21-.08-.36-.34-.35-.58Z"/><path class="cls-1" d="M23.04,12.26l.21,.37c.04,.06,.05,.14,.07,.21,.04,.15,.05,.31,0,.41l-.05,.11c.07-.02,.13-.05,.16-.12l.18-.4c.06-.13,.03-.38-.06-.54l-.21-.37c-.06-.11-.09-.22-.08-.33l-.18,.13c-.13,.09-.14,.32-.03,.51Z"/><path class="cls-1" d="M25.69,11.13c-.07,.04-.13,.11-.14,.23l-.02,.31h.06c.11-.01,.21-.15,.22-.29l.02-.26c-.05,0-.1,0-.14,.01Z"/><path class="cls-1" d="M22.05,13.95l-.05,.96c0,.2,.12,.42,.28,.49l.33,.14c.17,.07,.35,.3,.4,.51l.14,.53c.02,.08,.02,.17,.01,.25l.19-.15c.08-.06,.14-.26,.09-.45l-.14-.53c-.05-.18-.21-.38-.34-.44l-.33-.14c-.21-.09-.36-.35-.34-.59l.04-.84c-.15-.03-.27,.07-.28,.25Z"/><path class="cls-1" d="M27.99,20.68c.11,.19,.31,.26,.43,.17l.31-.23s-.08,0-.12,0c-.13-.02-.25-.12-.33-.25l-.22-.37c-.1-.16-.28-.27-.38-.27h-.01l-.4,.03c-.1,0-.18,.12-.2,.25l.21-.02c.14-.01,.33,.1,.45,.26,.01,.02,.03,.04,.05,.06l.22,.37Z"/><path class="cls-1" d="M25.06,13.68c.17-.06,.35-.07,.53-.07,.26,.01,.54,.09,.82,.25,.07,.04,.13,.08,.2,.12,.1,.07,.2,.14,.3,.23,.96,.89,1.37,2.42,.93,3.44,0,.02,0,.03-.02,.05h0c.12-.1,.22-.24,.3-.41,.46-.99,.06-2.5-.89-3.38-.5-.46-1.07-.66-1.57-.57-.23,.04-.42,.16-.59,.32Z"/><path class="cls-1" d="M29.74,18.05c-.11-.05-.26,0-.31,.12l-.07,.15s.02,0,.03,0l.33,.13c.14,.06,.26-.02,.3-.17,0-.02,.02-.05,.02-.07v-.03l-.3-.12Z"/><path class="cls-1" d="M26.56,20.54v-.13c.02-.19,.14-.34,.29-.37h0c.02-.25,.19-.46,.4-.47l.4-.03c.2-.01,.45,.14,.58,.36l.22,.37c.05,.08,.12,.14,.2,.16,.03,0,.07,0,.09-.02l.37-.28c0-.08-.01-.16-.06-.24l-.21-.37c-.11-.19-.14-.47-.07-.63l.18-.4c.04-.08,.1-.13,.18-.16l.11-.24c.09-.2,.35-.3,.56-.22l.24,.09,.03-.72c0-.2-.12-.42-.28-.49l-.33-.14c-.17-.07-.35-.3-.4-.51l-.14-.53c-.05-.21,0-.46,.12-.55l.15-.12c.02-.14,.08-.26,.16-.32h0c0-.09-.02-.18-.07-.26l-.54-.91c-.11-.19-.31-.27-.43-.18l-.25,.17c-.13,.09-.35,.05-.5-.09l-.38-.35c-.15-.14-.27-.41-.26-.61v-.39c.02-.2-.11-.42-.28-.49l-.67-.27v.2c-.03,.25-.2,.46-.41,.47h-.11c-.05,.15-.16,.26-.28,.27l-.4,.03c-.16,.01-.38-.13-.49-.31l-.22-.37c-.08-.14-.21-.22-.33-.21l-.27,.2c-.07,.05-.09,.23,0,.38l.21,.37c.12,.22,.16,.54,.07,.72l-.18,.4c-.08,.17-.26,.25-.43,.24l-.04,.08c-.07,.16-.27,.23-.43,.17l-.17-.07-.04,.79c0,.16,.1,.34,.22,.4l.33,.14c.19,.08,.4,.34,.46,.58l.14,.53c.07,.25,0,.54-.16,.66l-.24,.19c-.07,.06-.09,.23,0,.39l.54,.92c.05,.09,.13,.15,.2,.17,.03,0,.06,0,.09-.01l.25-.17c.06-.04,.14-.06,.22-.06,.14,0,.29,.06,.4,.16l.38,.35c.17,.16,.3,.46,.29,.69v.39c-.02,.16,.09,.34,.22,.39l.73,.3Zm-.95-7.38c.56-.11,1.2,.11,1.74,.62,1.01,.93,1.43,2.55,.94,3.61-.18,.39-.46,.65-.81,.79-.57,.55-1.49,.49-2.29-.25-.98-.9-1.39-2.47-.91-3.49,.08-.18,.19-.31,.31-.43,.22-.45,.58-.75,1.03-.84Z"/><path class="cls-2" d="M24.57,14.03c-.49,1.06-.07,2.68,.94,3.61h0c.45,.42,.97,.65,1.45,.65,.1,0,.19,0,.29-.03,.08-.02,.16-.05,.23-.08,.35-.14,.63-.41,.81-.79,.49-1.06,.07-2.68-.94-3.61-.55-.5-1.18-.73-1.74-.62-.45,.09-.81,.39-1.03,.84,0,0-.01,.02-.02,.03Zm1.08-.67c.5-.09,1.07,.11,1.57,.57,.95,.88,1.35,2.39,.89,3.38-.08,.17-.18,.3-.3,.42h0s.01-.05,.02-.06c-.4,.03-.83-.12-1.23-.44v-3.24c-.07-.05-.13-.09-.2-.12v3.21c-.93-.88-1.33-2.38-.87-3.36,.02-.04,.04-.06,.06-.1-.19,0-.37,0-.53,.07,.17-.16,.36-.28,.59-.32Z"/></svg>