<?xml version="1.0" encoding="UTF-8"?><svg xmlns="http://www.w3.org/2000/svg" viewBox="0 0 900 900"><defs><style>.c{fill:#fff;}.d{fill:#9be583;}.e,.f,.g{fill:none;stroke:#fff;stroke-width:2.5px;}.e,.g{stroke-miterlimit:10;}.f{stroke-linejoin:bevel;}.g{stroke-dasharray:0 0 5 10;}</style></defs><g id="a"><g><g><ellipse class="e" cx="711.35" cy="468.37" rx="34.71" ry="51.14" transform="translate(-138.74 416.09) rotate(-29.84)"/><path class="e" d="M736.56,512.94l16.3-9.02c7.2-5.42,11.65-15.06,11.64-27.63-.02-25.14-17.88-52.5-39.88-61.1-7.57-2.96-14.64-3.31-20.67-1.48l-17.48,9.74"/></g><polyline class="e" points="690.24 455.83 707.18 484.07 789.63 416.3"/><path class="c" d="M736.56,512.94l16.3-9.02c7.2-5.42,11.65-15.06,11.64-27.63-.02-25.14-17.88-52.5-39.88-61.1-7.57-2.96-14.64-3.31-20.67-1.48l-17.48,9.74s34.18-11.93,54.69,27.62c23.2,44.75-4.6,61.87-4.6,61.87Z"/></g><line class="e" x1="400.76" y1="406.73" x2="442.27" y2="430.58"/></g><g id="b"><path class="d" d="M662.5,451.76l-125.36-72.85v132.99l162.16,97.58v-90.8s-37.65-19.48-36.8-66.92Z"/><g><polyline class="f" points="346.22 129.85 403.26 229.81 346.03 264.82 346.03 229.24 234.46 164.6 234.46 105.87 346.22 172.77 346.22 129.85"/><polygon class="c" points="234.46 105.87 253.09 95.15 345.66 149.62 346.22 172.77 234.46 105.87"/><polyline class="f" points="346.22 129.85 363.16 119.69 419.07 219.08 403.26 229.81"/><polygon class="c" points="346.22 129.85 363.16 119.69 419.07 219.08 403.26 229.81 346.22 129.85"/></g><line class="e" x1="644.1" y1="332.02" x2="644.1" y2="428.32"/><g><g><polygon class="f" points="649.58 335.83 669.23 347.57 669.23 261.78 522.18 174.51 502.36 162.73 502.36 248.53 649.58 335.83"/><line class="f" x1="669.38" y1="262.93" x2="686.17" y2="252.74"/><polyline class="f" points="669.23 347.57 686.17 338.54 686.17 252.74 594.47 199.21 519.3 153.7 502.36 162.73"/></g><polygon class="c" points="519.3 153.7 504.37 163.23 670.39 262.36 686.17 252.74 519.3 153.7"/></g><line class="e" x1="539.1" y1="215.74" x2="643.82" y2="276.7"/><line class="e" x1="539.28" y1="238.43" x2="643.82" y2="299.29"/><polyline class="e" points="535.4 197.6 516.76 186.3 516.76 239.04 530.88 246.95"/><g><line class="e" x1="492.43" y1="651.24" x2="288.39" y2="529.97"/><line class="g" x1="446.12" y1="624.13" x2="356.9" y2="677.78"/><g><line class="g" x1="302.73" y1="587.75" x2="359.72" y2="621.87"/><line class="e" x1="255.82" y1="629.78" x2="383.21" y2="554.51"/></g></g><line class="g" x1="223.34" y1="230.75" x2="304.62" y2="279.66"/><g><line class="g" x1="280.29" y1="409.38" x2="196.15" y2="359.69"/><line class="g" x1="168.48" y1="431.97" x2="127.68" y2="407.69"/><line class="e" x1="291.59" y1="358.56" x2="140.53" y2="450.61"/></g><line class="e" x1="365.47" y1="518.39" x2="231.07" y2="438.2"/><line class="e" x1="365.47" y1="526.6" x2="365.47" y2="518.39"/><polyline class="e" points="365.47 518.39 427.87 481.97 294.6 400.65 231.07 438.2 231.07 446.09 365.47 526.6 429 489.46 429 482.25"/><line class="e" x1="518.79" y1="303.52" x2="518.79" y2="460.51"/><polyline class="e" points="405.84 225.59 527.82 298.44 527.82 455.99 518.79 461.07 304.2 335.71 304.2 205.26"/><polyline class="e" points="527.1 298.85 518.79 303.52 398.95 232.57"/><polygon class="c" points="398.95 232.57 518.79 303.52 527.1 298.85 403.59 222.77 398.95 232.57"/><polyline class="e" points="371.96 374.37 371.96 392.18 342.6 407.99 412.62 449.21 444.24 430.58 444.24 417.03"/><line class="e" x1="304.2" y1="309.73" x2="518.22" y2="430.71"/><g><polyline class="e" points="709.66 513.03 709.66 607.52 601.15 671.17 442.17 579.03"/><polyline class="e" points="549.75 513.51 709.66 607.52 709.66 622.04 601.23 686.37 441.56 592.54 441.56 578.42 549.75 513.51 549.75 374.17 671.34 445.12"/><line class="e" x1="601.23" y1="670.24" x2="601.23" y2="685.68"/><line class="e" x1="671.11" y1="516.13" x2="691.32" y2="527.79"/><line class="e" x1="604.85" y1="456.2" x2="663.96" y2="490.18"/><line class="e" x1="604.85" y1="441.04" x2="680.86" y2="485.92"/><line class="e" x1="606.4" y1="478.94" x2="662.97" y2="512.31"/><line class="e" x1="604.85" y1="512.18" x2="692.51" y2="561.74"/><line class="e" x1="604.85" y1="497.02" x2="692.51" y2="546.58"/></g><polyline class="e" points="435.49 243.54 435.49 174.62 501.84 213.73"/><g><circle class="c" cx="412.54" cy="105.32" r="14.36"/><circle class="c" cx="447.85" cy="119.82" r="7.39"/></g><circle class="c" cx="735.5" cy="383.21" r="14.36"/><circle class="c" cx="186.61" cy="566.18" r="14.36"/><circle class="c" cx="716.65" cy="347.3" r="7.39"/><circle class="c" cx="244.34" cy="314.25" r="7.39"/><line class="e" x1="587.12" y1="396.7" x2="587.12" y2="535.61"/><line class="e" x1="333" y1="222.05" x2="333" y2="326.09"/><line class="e" x1="457.93" y1="317.07" x2="478.15" y2="328.73"/><line class="e" x1="392.24" y1="279.17" x2="451.34" y2="313.14"/><line class="e" x1="392.24" y1="259.01" x2="466.1" y2="301.96"/><line class="e" x1="393.79" y1="299.91" x2="450.36" y2="333.27"/><line class="e" x1="392.24" y1="335.14" x2="479.9" y2="384.71"/><line class="e" x1="392.24" y1="317.98" x2="479.9" y2="367.55"/><g><polygon class="c" points="565.48 556.93 558.98 560.95 564.98 564.48 571.47 560.47 565.48 556.93"/><polygon class="c" points="579.76 565.81 573.25 569.83 579.25 573.36 585.74 569.35 579.76 565.81"/><polygon class="c" points="564.4 546.85 570.9 542.85 564.91 539.31 558.41 543.32 564.4 546.85"/><polygon class="c" points="520.87 547.94 514.36 551.95 520.36 555.48 526.86 551.48 520.87 547.94"/><polygon class="c" points="535.31 539.15 528.81 543.16 534.81 546.69 541.3 542.68 535.31 539.15"/><polygon class="c" points="550.15 530.48 543.65 534.5 549.65 538.03 556.14 534.02 550.15 530.48"/><polygon class="c" points="624.26 582.48 630.76 578.47 624.77 574.93 618.27 578.95 624.26 582.48"/><polygon class="c" points="594.51 574.64 588.01 578.66 594.01 582.18 600.5 578.18 594.51 574.64"/><polygon class="c" points="640.11 600.98 633.6 604.99 639.6 608.52 646.09 604.52 640.11 600.98"/><polygon class="c" points="609.93 583.6 603.42 587.61 609.42 591.14 615.91 587.14 609.93 583.6"/><polygon class="c" points="579.82 555.81 586.31 551.81 580.33 548.27 573.82 552.28 579.82 555.81"/><polygon class="c" points="670.37 601.27 663.86 605.29 669.86 608.82 676.35 604.81 670.37 601.27"/><polygon class="c" points="625.66 609.77 619.16 613.79 625.16 617.31 631.65 613.31 625.66 609.77"/><polygon class="c" points="639.69 591.03 646.18 587.02 640.19 583.48 633.69 587.5 639.69 591.03"/><polygon class="c" points="655.02 617.48 661.51 613.47 655.52 609.94 649.02 613.95 655.02 617.48"/><polygon class="c" points="610.91 600.94 604.4 604.96 610.4 608.49 616.9 604.48 610.91 600.94"/><polygon class="c" points="625.35 592.15 618.85 596.16 624.85 599.69 631.34 595.69 625.35 592.15"/><polygon class="c" points="565.31 574.61 558.81 578.62 594.98 599.94 601.47 595.93 565.31 574.61"/><path class="c" d="M548.95,514.5l-105.37,62.53c-1.36,.81,1.11,2.33,2.48,3.13l154.99,90.27,106.72-63.49-158.82-92.44Zm105.35,77.43l1.27-2.15,10.2,6.03-10.66,6.58-1.31-2.13,7.13-4.4-6.64-3.92Zm-3.29-4.95l-11.3,6.97-10.88-6.4,11.32-6.99,10.85,6.41Zm-100.8-31.08l-1.27,2.15-10.23-6.01,10.68-6.59,1.31,2.13-7.15,4.41,6.65,3.91Zm-6.84,3.32l1.31,2.13-9.54,5.88-9.09-5.34,1.27-2.15,7.79,4.58,8.25-5.09Zm7.64,3.59l10.85,6.41-11.3,6.97-10.87-6.4,11.32-6.99Zm3.12-1.81l11.32-6.99,10.85,6.41-11.3,6.97-10.88-6.4Zm25.59,1.89l10.85,6.41-11.3,6.97-10.88-6.4,11.32-6.99Zm14.76,8.83l10.85,6.41-11.3,6.97-10.87-6.4,11.32-6.99Zm15.42,8.96l10.85,6.41-11.3,6.97-10.88-6.4,11.32-6.99Zm15.42,8.55l10.85,6.41-11.3,6.97-10.88-6.4,11.32-6.99Zm14.76,8.83l10.85,6.41-11.3,6.97-10.88-6.4,11.32-6.99Zm-4.49-19.63l-11.3,6.97-10.87-6.4,11.32-6.99,10.85,6.41Zm-18.49-10l1.31,2.13-9.54,5.88-9.09-5.34,1.27-2.15,7.79,4.58,8.25-5.09Zm-13.46-8.84l-1.27,2.15-7.77-4.59-8.27,5.1-1.31-2.13,9.55-5.9,9.07,5.36Zm-12.49-7.83l-11.3,6.97-10.88-6.4,11.32-6.99,10.85,6.41Zm-15.42-8.96l-11.3,6.97-10.87-6.4,11.32-6.99,10.85,6.41Zm-25.61-15.24l10.85,6.41-11.3,6.97-10.88-6.4,11.32-6.99Zm-14.84,8.67l10.85,6.41-11.3,6.97-10.88-6.4,11.32-6.99Zm-14.44,8.79l10.85,6.41-11.3,6.97-10.87-6.4,11.32-6.99Zm37.78,85.07l-50.96-30.2,28.94-15.73,48.45,28.94-26.42,16.99Zm-4.65-51.42l11.32-6.99,41.03,24.2-11.3,6.97-41.04-24.18Zm45.59,26.34l11.32-6.99,10.85,6.41-11.3,6.97-10.87-6.4Zm14.76,8.83l11.32-6.99,10.85,6.41-11.3,6.97-10.88-6.4Zm34.53,9.48l-7.77-4.59-8.27,5.1-1.31-2.13,9.56-5.9,9.07,5.36-1.27,2.15Zm6.2-2.92l-10.87-6.4,11.32-6.99,10.85,6.41-11.3,6.97Zm3.97-15.06l11.32-6.99,10.85,6.41-11.3,6.97-10.88-6.4Z"/><polygon class="c" points="551.04 565.73 544.54 569.74 550.53 573.27 557.03 569.26 551.04 565.73"/></g><g><path class="c" d="M298.25,417.89l4.08,2.47-4.71,2.83-4.09-2.47,4.72-2.84m0-2.92l-9.57,5.76,8.93,5.39,9.55-5.74-8.91-5.4h0Z"/><polyline class="e" points="281.7 435.18 272.77 429.79 282.33 424.03"/><polyline class="e" points="275.75 438.63 266.2 444.38 257.27 438.99"/><path class="c" d="M314.58,427.63l4.08,2.47-4.71,2.83-4.09-2.47,4.72-2.84m0-2.92l-9.57,5.76,8.93,5.39,9.55-5.74-8.91-5.4h0Z"/><path class="c" d="M298.65,436.69l4.08,2.47-4.71,2.83-4.09-2.47,4.72-2.84m0-2.92l-9.57,5.76,8.93,5.39,9.55-5.74-8.91-5.4h0Z"/><path class="c" d="M283.15,445.89l4.08,2.47-4.71,2.83-4.09-2.47,4.72-2.84m0-2.92l-9.57,5.76,8.93,5.39,9.55-5.74-8.91-5.4h0Z"/><polyline class="e" points="320.12 440.1 329.69 434.34 338.6 439.75"/><path class="c" d="M313.76,446.32l4.08,2.47-4.71,2.83-4.09-2.47,4.72-2.84m0-2.92l-9.57,5.76,8.93,5.39,9.55-5.74-8.91-5.4h0Z"/><path class="c" d="M298.26,455.52l36.03,21.8-4.7,2.83-36.04-21.79,4.72-2.84m0-2.92l-9.57,5.76,40.88,24.71,9.55-5.74-40.86-24.73h0Z"/><polyline class="e" points="354.23 449.33 344.68 455.08 335.75 449.69"/><path class="c" d="M329.38,455.91l4.08,2.47-4.71,2.83-4.09-2.47,4.72-2.84m0-2.92l-9.57,5.76,8.93,5.39,9.55-5.74-8.91-5.4h0Z"/><path class="c" d="M361.63,456.59l4.08,2.47-4.71,2.83-4.09-2.47,4.72-2.84m0-2.92l-9.57,5.76,8.93,5.39,9.55-5.74-8.91-5.4h0Z"/><path class="c" d="M345.71,465.64l4.08,2.47-4.71,2.83-4.09-2.47,4.72-2.84m0-2.92l-9.57,5.76,8.93,5.39,9.55-5.74-8.91-5.4h0Z"/><path class="c" d="M377.97,465.89l4.08,2.47-4.71,2.83-4.09-2.47,4.72-2.84m0-2.92l-9.57,5.76,8.93,5.39,9.55-5.74-8.91-5.4h0Z"/><path class="c" d="M362.04,474.94l4.08,2.47-4.71,2.83-4.09-2.47,4.72-2.84m0-2.92l-9.57,5.76,8.93,5.39,9.55-5.74-8.91-5.4h0Z"/><path class="c" d="M346.54,484.14l4.08,2.47-4.71,2.83-4.09-2.47,4.72-2.84m0-2.92l-9.57,5.76,8.93,5.39,9.55-5.74-8.91-5.4h0Z"/><polyline class="e" points="393.6 472.55 402.51 477.95 392.96 483.7"/><path class="c" d="M377.67,484.53l4.08,2.47-4.71,2.83-4.09-2.47,4.72-2.84m0-2.92l-9.57,5.76,8.93,5.39,9.55-5.74-8.91-5.4h0Z"/><path class="c" d="M362.17,493.73l4.08,2.47-4.71,2.83-4.09-2.47,4.72-2.84m0-2.92l-9.57,5.76,8.93,5.39,9.55-5.74-8.91-5.4h0Z"/></g></g></svg>