<?xml version="1.0" encoding="utf-8"?>
<!-- Generator: Adobe Illustrator 26.3.1, SVG Export Plug-In . SVG Version: 6.00 Build 0)  -->
<svg version="1.1" id="Layer_1" xmlns="http://www.w3.org/2000/svg" xmlns:xlink="http://www.w3.org/1999/xlink" x="0px" y="0px"
	 viewBox="0 0 900 900" style="enable-background:new 0 0 900 900;" xml:space="preserve">
<style type="text/css">
	.st0{fill:none;stroke:#FFFFFF;stroke-width:2.5;stroke-miterlimit:10;}
	.st1{fill:#FFFFFF;}
	.st2{fill:#9BE583;}
	.st3{fill:none;stroke:#FFFFFF;stroke-width:2.5;stroke-miterlimit:10;stroke-dasharray:0,0,5,10;}
	.st4{fill-rule:evenodd;clip-rule:evenodd;fill:none;stroke:#FFFFFF;stroke-width:2.5;stroke-miterlimit:10;}
	.st5{fill-rule:evenodd;clip-rule:evenodd;fill:#FFFFFF;stroke:#FFFFFF;stroke-width:2.5;stroke-miterlimit:10;}
	.st6{fill:#FFFFFF;stroke:#FFFFFF;stroke-width:0.5;stroke-miterlimit:10;}
</style>
<g id="a">
</g>
<g id="b">
	<g>
		<line class="st0" x1="311.62" y1="407.27" x2="478.21" y2="503.83"/>
		<polyline class="st0" points="549.08,332.09 687.54,414.17 687.54,247.02 		"/>
		<g>
			<polygon class="st1" points="580.39,416.37 569.75,422.93 579.66,428.76 590.27,422.21 			"/>
			<polygon class="st1" points="559.25,429.24 548.62,435.8 558.53,441.63 569.14,435.08 			"/>
			<polygon class="st1" points="579.53,391.18 568.9,397.75 578.81,403.57 589.42,397.03 			"/>
			<polygon class="st1" points="580.84,442.15 570.21,448.71 580.12,454.54 590.73,447.99 			"/>
			<polygon class="st1" points="601.25,441.68 611.86,435.13 601.98,429.29 591.34,435.85 			"/>
			<polygon class="st1" points="460.6,369.45 443.07,359.12 442.79,373.7 448.38,376.99 			"/>
			<polygon class="st1" points="601.38,416.08 611.99,409.54 602.1,403.69 591.47,410.26 			"/>
			<polygon class="st1" points="567.7,409.7 557.82,403.86 550.3,408.5 550.32,412.27 557.09,416.25 			"/>
			<polygon class="st1" points="646.25,429.72 635.62,436.28 645.52,442.11 656.13,435.56 			"/>
			<path class="st1" d="M550.03,350.82l0.17,36.08l6.05,3.56l12.37-7.63l1.31,2.13l-13.65,8.43l-6.07-3.57l0.07,15.76l7.5-4.63
				l14.75,8.72l-15.42,9.51l-6.79-3.99l0.03,7.2l-79-46.57l0.93,1.51L461,384.29l10.56,6.21l-1.27,2.16l-14.13-8.31l14.48-8.94
				l-9.73-5.73l1.13,1.83l-13.65,8.43l-5.68-3.34l-0.65,33.38l8.45-4.59l70.88,42.35l-38.66,24.85l-74.56-44.19l19.33-10.51
				l-75.01-45.54l-38.07,22.59l-2.95,1.48l230.4,134.96l159.09-92.68l-150.95-87.86L550.03,350.82z M535.34,431.65l-58.27-34.34
				l14.8-9.14l1.31,2.13l-11.28,6.96l54.7,32.23l-1.27,2.15L535.34,431.65z M623.04,416.22l1.27-2.15l14.1,8.33l-14.78,9.12
				l-1.31-2.13l11.25-6.94l-10.54-6.23L623.04,416.22z M616.82,409.48l-15.42,9.51l-14.78-8.69l15.45-9.53l14.75,8.72V409.48z
				 M616.7,435.07l-15.42,9.51l-14.78-8.69l15.45-9.53l14.75,8.72V435.07z M564.06,397.78l15.45-9.53l14.75,8.72l-15.42,9.51
				l-14.78-8.69V397.78z M580.36,413.43l14.75,8.72l-15.42,9.51l-14.78-8.69l15.45-9.53V413.43z M543.78,435.83l15.45-9.54
				l14.75,8.72l-15.42,9.51L543.78,435.83z M565.37,448.75l15.45-9.53l14.75,8.72l-15.42,9.51l-14.78-8.69V448.75z M615.07,462.14
				l-11.67-6.89L591,462.9l-1.31-2.13l13.68-8.45l12.97,7.66l-1.27,2.15L615.07,462.14z M623.84,457.69L609.06,449l15.45-9.53
				l14.75,8.72l-15.42,9.51V457.69z M630.77,436.32l15.45-9.53l14.75,8.72l-15.42,9.51l-14.78-8.69V436.32z"/>
			<polygon class="st1" points="623.81,454.79 634.42,448.24 624.53,442.4 613.9,448.96 			"/>
		</g>
	</g>
	<polygon class="st2" points="312.98,254.59 425.2,321.27 425.2,424.88 312.98,358.2 	"/>
	<g>
		<polyline class="st0" points="467.77,207.22 467.77,98.23 700.01,233.38 700.06,438.84 541.9,531.55 311.49,397.47 		"/>
		<polyline class="st0" points="549.24,350.18 700.06,438.84 700.06,458.94 542.55,552.39 310.6,416.08 310.6,396.58 351.2,372.22 
					"/>
	</g>
	<circle class="st1" cx="303.91" cy="202.54" r="14.36"/>
	<circle class="st1" cx="277.1" cy="247.85" r="7.39"/>
	<circle class="st1" cx="737.61" cy="488.28" r="14.36"/>
	<circle class="st1" cx="212.72" cy="334.81" r="7.39"/>
	<circle class="st1" cx="700.53" cy="635.83" r="7.39"/>
	<circle class="st1" cx="736.16" cy="196.49" r="14.36"/>
	<g>
		<line class="st3" x1="370.17" y1="664.16" x2="514.45" y2="755.8"/>
		<line class="st0" x1="324.5" y1="715" x2="434.61" y2="651.19"/>
	</g>
	<polyline class="st0" points="441.65,357.45 549.45,421.5 549.45,255.15 428.02,182.99 428.02,158.65 369.27,122.89 369.27,148.08 
		369.27,280.07 	"/>
	<polygon class="st0" points="330.21,256.57 442.42,323.25 442.42,426.86 330.21,360.18 	"/>
	<polyline class="st0" points="340.75,351.95 340.75,278.85 429.33,331.2 429.33,404.3 370.27,369.4 	"/>
	<polyline class="st0" points="384.34,289.67 384.34,178.23 531.17,265.2 531.17,390.75 	"/>
	<line class="st0" x1="384.34" y1="153.57" x2="413.71" y2="171.08"/>
	<g>
		
			<ellipse transform="matrix(0.8674 -0.4976 0.4976 0.8674 -14.7245 272.7493)" class="st0" cx="504.45" cy="164.01" rx="8.8" ry="12.96"/>
		
			<ellipse transform="matrix(0.8674 -0.4976 0.4976 0.8674 -18.9279 289.7522)" class="st0" cx="534.26" cy="180.39" rx="8.8" ry="12.96"/>
		
			<ellipse transform="matrix(0.8674 -0.4976 0.4976 0.8674 -23.1636 307.7746)" class="st0" cx="565.96" cy="197.35" rx="8.8" ry="12.96"/>
	</g>
	<polygon class="st1" points="447.59,234.89 447.59,295.44 397.9,266.51 397.9,205.56 	"/>
	<g>
		<line class="st0" x1="579.17" y1="270.16" x2="634.51" y2="302.09"/>
		<line class="st0" x1="491.07" y1="195.05" x2="565.61" y2="238.28"/>
		<line class="st0" x1="549.53" y1="304.97" x2="569" y2="316.21"/>
		<line class="st0" x1="581.99" y1="245.4" x2="663.31" y2="291.75"/>
		<line class="st0" x1="549.8" y1="278.37" x2="647.5" y2="336.1"/>
		<line class="st0" x1="580.3" y1="322.2" x2="660.49" y2="368.72"/>
	</g>
	<line class="st3" x1="637.84" y1="495.88" x2="729.89" y2="551"/>
	<line class="st3" x1="288.63" y1="428.58" x2="204.49" y2="378.89"/>
	<line class="st0" x1="299.92" y1="377.76" x2="148.86" y2="469.81"/>
</g>
<g>
	<path class="st4" d="M540.46,581.03c-0.18-2.07,2.27-4.01,5.49-4.35l15.48-1.61c3.21-0.33,6.07,1.06,6.38,3.11l0.6,4.01
		c0.31,2.05,3.04,4.11,6.06,4.59l7.67,1.21c3.04,0.48,7.23-0.48,9.37-2.15l4.17-3.26c2.13-1.67,5.84-2.02,8.29-0.79l11.79,5.92
		c2.45,1.23,2.78,3.62,0.74,5.33l-3.98,3.36c-2.04,1.72-2.51,4.55-1.07,6.32l3.65,4.48c1.45,1.77,5.21,2.98,8.41,2.69l6.25-0.57
		c3.2-0.29,5.99,1.15,6.24,3.23l1.18,9.99c0.25,2.07-2.14,4.05-5.33,4.43l-6.23,0.73c-3.19,0.37-6.58,2.33-7.57,4.35l-2.51,5.12
		c-0.99,2.03,0.14,4.69,2.53,5.94l4.67,2.45c2.39,1.26,2.63,3.65,0.53,5.35l-10.1,8.2c-2.1,1.7-5.8,2.12-8.27,0.93l-4.84-2.32
		c-2.47-1.19-6.81-1.26-9.64-0.17l-7.2,2.76c-2.85,1.09-5.02,3.66-4.84,5.72l0.35,4.04c0.18,2.07-2.27,4.01-5.49,4.35l-15.48,1.61
		c-3.21,0.33-6.07-1.06-6.38-3.11l-0.61-4.01c-0.31-2.05-3.04-4.11-6.06-4.59l-7.67-1.21c-3.04-0.48-7.23,0.48-9.37,2.15l-4.17,3.26
		c-2.13,1.67-5.84,2.02-8.29,0.79l-11.79-5.92c-2.45-1.23-2.78-3.62-0.74-5.33l3.98-3.36c2.04-1.72,2.51-4.55,1.07-6.32l-3.65-4.48
		c-1.45-1.77-5.21-2.98-8.41-2.69l-6.25,0.57c-3.2,0.29-5.99-1.15-6.24-3.23l-1.18-9.99c-0.25-2.07,2.14-4.05,5.33-4.43l6.23-0.73
		c3.19-0.37,6.58-2.33,7.57-4.35l2.51-5.12c0.99-2.03-0.14-4.69-2.53-5.94l-4.67-2.45c-2.39-1.26-2.63-3.65-0.53-5.35l10.1-8.2
		c2.1-1.7,5.8-2.12,8.27-0.93l4.84,2.32c2.47,1.19,6.81,1.26,9.64,0.17l7.2-2.76c2.85-1.09,5.02-3.66,4.84-5.72L540.46,581.03z
		 M542.53,604.62c-18.59,7.13-26.02,22.28-16.59,33.84c9.43,11.56,32.14,15.16,50.74,8.03c18.59-7.13,26.02-22.28,16.59-33.84
		C583.84,601.08,561.12,597.49,542.53,604.62L542.53,604.62z"/>
	<g>
		<path class="st5" d="M495.78,617.54l4.67,2.45c0.01,0.01,0.02,0.01,0.03,0.02c0.27-0.31,0.51-0.63,0.66-0.95l2.51-5.12
			c0.99-2.03-0.14-4.69-2.53-5.94l-0.44-0.23c0,0-0.72,0.88-1.06,0.86c-5.71-1.03-5.12-5.99-5.12-5.99l-1.11,9.38
			C492.87,615.02,493.39,616.28,495.78,617.54z"/>
		<path class="st5" d="M541.85,616.61c18.59-7.13,41.31-3.54,50.74,8.03c1.51,1.85,2.58,3.8,3.25,5.79
			c2.58-5.9,1.94-12.25-2.57-17.78c-9.43-11.56-32.14-15.16-50.74-8.03h0c-15.61,5.99-23.35,17.63-19.85,28.05
			C525.5,626.23,532.15,620.33,541.85,616.61z"/>
		<path class="st5" d="M617.77,591.09c-0.1,0.46-0.31,0.92-0.67,1.36c-1.21,2.37-3.55,4.47-5,5.62c-0.04,0.03-0.05,0.07-0.08,0.11
			l-0.69-0.35c-0.95,1.61-0.96,3.56,0.13,4.9l2.9,3.56l1.47-1.24c1.33-1.12,1.63-2.53,1-3.72l0.32,0.09L617.77,591.09z"/>
		<path class="st5" d="M504.17,656.81l2.51-2.12c2.04-1.72,2.51-4.55,1.07-6.32l-3.65-4.48c-1.45-1.77-5.21-2.98-8.41-2.69
			l-6.25,0.57c-3.2,0.29-5.99-1.15-6.24-3.23l-0.13-1.12c-0.58,0.41-1.05-8.87-1.05-8.87c-0.31,0.54-0.75,11.4-0.68,11.99l1.18,9.99
			c0.25,2.07,3.04,3.52,6.24,3.23l6.25-0.57c3.2-0.29,6.96,0.91,8.41,2.69L504.17,656.81z"/>
		<path class="st5" d="M636.51,634.53l0.63-11.12c-0.1,2.02-3.87,3.39-5.28,3.56l-6.23,0.73c-3.19,0.37-6.58,2.33-7.57,4.35
			l-2.51,5.12c-0.99,2.02,0.13,4.66,2.49,5.92c1.42-1.65,4.23-3.08,6.91-3.39l6.23-0.73C634.38,638.58,636.76,636.6,636.51,634.53z"
			/>
		<path class="st5" d="M624.02,660.09l0.69-11.84l-0.03,0.31c-0.01,0.1-0.01,0.2-0.03,0.3l-0.13,1.22l-4.84,6.2l-1.83-0.96
			l-4.66,3.79c-2.1,1.7-5.8,2.12-8.27,0.93l-4.84-2.32c-2.47-1.19-6.81-1.26-9.64-0.17l-7.2,2.76c-2.85,1.09-5.02,3.66-4.84,5.72
			l0.35,4.04c0.18,2.07-2.27,4.01-5.49,4.35l-15.48,1.61c-3.21,0.33-6.07-1.06-6.38-3.11l-0.6-4.01c-0.31-2.05-3.04-4.11-6.06-4.59
			l-7.67-1.21c-3.04-0.48-7.23,0.48-9.37,2.15l-4.17,3.26c-2.13,1.67-5.84,2.02-8.29,0.79l-8.05-4.04
			c-0.17,0.29-0.25,0.89-0.59,0.84c-6.05-0.94-5.21-5.73-5.21-5.73l-0.64,11.73c-0.01,0.05-0.01,0.09-0.02,0.14l0,0
			c-0.14,1.2,0.55,2.39,2.05,3.14l11.79,5.92c2.45,1.23,6.16,0.87,8.29-0.79l4.17-3.26c2.13-1.67,6.33-2.63,9.37-2.15l7.67,1.21
			c3.02,0.48,5.75,2.53,6.06,4.59l0.61,4.01c0.31,2.05,3.16,3.45,6.38,3.11l15.48-1.61c3.22-0.33,5.67-2.28,5.49-4.35l-0.35-4.04
			c-0.18-2.07,1.98-4.63,4.84-5.72l7.2-2.76c2.84-1.09,7.17-1.02,9.64,0.17l4.84,2.32c2.47,1.19,6.18,0.77,8.27-0.93l10.1-8.2
			C623.64,662.06,624.1,661.05,624.02,660.09L624.02,660.09z"/>
	</g>
</g>
<g>
	<polygon class="st4" points="153.69,589.97 271.51,659.58 447.15,557.33 328.14,486.55 	"/>
</g>
<g>
	<path class="st6" d="M259.33,539.72c-0.94,0.32-1.83,0.69-2.64,1.13c-2.62,1.43-4.08,3.27-4.11,5.19
		c-0.04,2.06,1.59,4.23,4.46,5.95c6.47,3.86,17.28,4.22,23.59,0.78c0.3-0.16,0.57-0.33,0.84-0.5l-20.42,0.25L259.33,539.72z"/>
	<path class="st6" d="M214.61,575.71l20.13-0.24c0.04-0.22,0.07-0.43,0.07-0.65c0.04-2.06-1.59-4.23-4.46-5.95
		c-3.49-2.08-8.23-3.14-12.85-3.14c-2.83,0-5.62,0.41-8.04,1.22l3.91-0.52L214.61,575.71z"/>
	<path class="st6" d="M309.26,512.48c-0.94,0.32-1.83,0.69-2.64,1.13c-2.62,1.43-4.08,3.27-4.11,5.19
		c-0.04,2.06,1.59,4.23,4.46,5.95c6.47,3.86,17.28,4.22,23.59,0.78c0.3-0.16,0.57-0.33,0.84-0.5l-20.42,0.25L309.26,512.48z"/>
	<path class="st6" d="M314.46,521.23l20.13-0.24c0.04-0.22,0.07-0.43,0.07-0.65c0.04-2.06-1.59-4.23-4.46-5.95
		c-3.49-2.08-8.23-3.14-12.85-3.14c-2.83,0-5.62,0.41-8.04,1.22l3.91-0.52L314.46,521.23z"/>
	<path class="st6" d="M209.4,566.96c-0.94,0.32-1.83,0.69-2.64,1.13c-2.62,1.43-4.08,3.27-4.11,5.19c-0.04,2.06,1.59,4.23,4.46,5.95
		c6.47,3.86,17.28,4.22,23.59,0.78c0.3-0.16,0.57-0.33,0.84-0.5l-20.42,0.25L209.4,566.96z"/>
	<path class="st6" d="M328.14,478.07L153.69,581.49l117.82,69.61l175.64-102.25L328.14,478.07z M304.7,510.1
		c7.65-4.17,19.76-3.8,27.55,0.85c4.2,2.51,6.48,5.87,6.41,9.46c0,0.18-0.04,0.35-0.05,0.53l23.15-0.28l0.05,4l-24.65,0.3
		c-1.05,1.56-2.63,2.95-4.7,4.08c-3.56,1.94-8.08,2.9-12.69,2.9c-5.29,0-10.69-1.27-14.86-3.75c-4.2-2.51-6.48-5.87-6.41-9.46
		C298.57,515.31,300.77,512.25,304.7,510.1z M380.42,550.93l-2.05,3.44l-27.32-16.3l2.05-3.44L380.42,550.93z M254.78,537.34
		c7.65-4.17,19.76-3.8,27.55,0.85c4.2,2.51,6.48,5.87,6.41,9.46c0,0.18-0.04,0.35-0.05,0.53l23.15-0.28l0.05,4l-24.65,0.3
		c-1.05,1.56-2.63,2.95-4.7,4.08c-3.56,1.94-8.08,2.9-12.69,2.9c-5.29,0-10.69-1.27-14.86-3.75c-4.2-2.51-6.48-5.87-6.41-9.46
		C248.65,542.55,250.85,539.49,254.78,537.34z M232.62,583.52c-3.56,1.94-8.08,2.9-12.69,2.9c-5.29,0-10.69-1.27-14.86-3.75
		c-4.2-2.51-6.48-5.87-6.41-9.46c0.07-3.42,2.27-6.48,6.2-8.62c7.65-4.17,19.75-3.8,27.55,0.85c4.2,2.51,6.48,5.87,6.41,9.46
		c0,0.18-0.04,0.35-0.05,0.53l23.15-0.28l0.05,4l-24.65,0.3C236.27,581,234.69,582.39,232.62,583.52z M267.64,614.37l-26.96-16.09
		l2.05-3.44l26.96,16.09L267.64,614.37z M294.43,618.34l-43.23-25.8l2.05-3.44l43.23,25.8L294.43,618.34z M322.73,590.22
		l-32.13-19.17l2.05-3.44l32.13,19.17L322.73,590.22z M342.88,590.22l-41.76-24.92l2.05-3.44l41.76,24.92L342.88,590.22z
		 M340.52,543.8l2.05-3.44l44.41,26.5l-2.05,3.44L340.52,543.8z"/>
	<path class="st6" d="M264.54,548.47l20.13-0.24c0.04-0.22,0.07-0.43,0.07-0.65c0.04-2.06-1.59-4.23-4.46-5.95
		c-3.49-2.08-8.23-3.14-12.85-3.14c-2.83,0-5.62,0.41-8.04,1.22l3.91-0.52L264.54,548.47z"/>
</g>
</svg>
