<svg xmlns="http://www.w3.org/2000/svg" xml:space="preserve" id="Layer_1" x="0" y="0" style="enable-background:new 0 0 900 900" version="1.1" viewBox="0 0 900 900"><style>.st0{fill:none;stroke:#fff;stroke-width:2.5;stroke-miterlimit:10}.st1{fill:#fff}.st3{fill:none;stroke-width:2.5;stroke-dasharray:0,0,5,10}.st3,.st4,.st5,.st6{stroke:#fff;stroke-miterlimit:10}.st4{fill-rule:evenodd;clip-rule:evenodd;fill:none;stroke-width:2.5}.st5,.st6{fill:#fff}.st5{fill-rule:evenodd;clip-rule:evenodd;stroke-width:2.5}.st6{stroke-width:.5}</style><g id="b"><path d="m311.62 407.27 166.59 96.56M549.08 332.09l138.46 82.08V247.02" class="st0"/><path d="m580.39 416.37-10.64 6.56 9.91 5.83 10.61-6.55zM559.25 429.24l-10.63 6.56 9.91 5.83 10.61-6.55zM579.53 391.18l-10.63 6.57 9.91 5.82 10.61-6.54zM580.84 442.15l-10.63 6.56 9.91 5.83 10.61-6.55zM601.25 441.68l10.61-6.55-9.88-5.84-10.64 6.56zM460.6 369.45l-17.53-10.33-.28 14.58 5.59 3.29zM601.38 416.08l10.61-6.54-9.89-5.85-10.63 6.57zM567.7 409.7l-9.88-5.84-7.52 4.64.02 3.77 6.77 3.98zM646.25 429.72l-10.63 6.56 9.9 5.83 10.61-6.55z" class="st1"/><path d="m550.03 350.82.17 36.08 6.05 3.56 12.37-7.63 1.31 2.13-13.65 8.43-6.07-3.57.07 15.76 7.5-4.63 14.75 8.72-15.42 9.51-6.79-3.99.03 7.2-79-46.57.93 1.51-11.28 6.96 10.56 6.21-1.27 2.16-14.13-8.31 14.48-8.94-9.73-5.73 1.13 1.83-13.65 8.43-5.68-3.34-.65 33.38 8.45-4.59 70.88 42.35-38.66 24.85-74.56-44.19 19.33-10.51-75.01-45.54-38.07 22.59-2.95 1.48 230.4 134.96 159.09-92.68-150.95-87.86.02-.02zm-14.69 80.83-58.27-34.34 14.8-9.14 1.31 2.13-11.28 6.96 54.7 32.23-1.27 2.15.01.01zm87.7-15.43 1.27-2.15 14.1 8.33-14.78 9.12-1.31-2.13 11.25-6.94-10.54-6.23h.01zm-6.22-6.74-15.42 9.51-14.78-8.69 15.45-9.53 14.75 8.72v-.01zm-.12 25.59-15.42 9.51-14.78-8.69 15.45-9.53 14.75 8.72v-.01zm-52.64-37.29 15.45-9.53 14.75 8.72-15.42 9.51-14.78-8.69v-.01zm16.3 15.65 14.75 8.72-15.42 9.51-14.78-8.69 15.45-9.53v-.01zm-36.58 22.4 15.45-9.54 14.75 8.72-15.42 9.51-14.78-8.69zm21.59 12.92 15.45-9.53 14.75 8.72-15.42 9.51-14.78-8.69v-.01zm49.7 13.39-11.67-6.89-12.4 7.65-1.31-2.13 13.68-8.45 12.97 7.66-1.27 2.15v.01zm8.77-4.45L609.06 449l15.45-9.53 14.75 8.72-15.42 9.51v-.01zm6.93-21.37 15.45-9.53 14.75 8.72-15.42 9.51-14.78-8.69v-.01z" class="st1"/><path d="m623.81 454.79 10.61-6.55-9.89-5.84-10.63 6.56z" class="st1"/><path d="m312.98 254.59 112.22 66.68v103.61L312.98 358.2z" style="fill:#9be583"/><path d="M467.77 207.22V98.23l232.24 135.15.05 205.46-158.16 92.71-230.41-134.08" class="st0"/><path d="m549.24 350.18 150.82 88.66v20.1l-157.51 93.45L310.6 416.08v-19.5l40.6-24.36" class="st0"/><circle cx="303.91" cy="202.54" r="14.36" class="st1"/><circle cx="277.1" cy="247.85" r="7.39" class="st1"/><circle cx="737.61" cy="488.28" r="14.36" class="st1"/><circle cx="212.72" cy="334.81" r="7.39" class="st1"/><circle cx="700.53" cy="635.83" r="7.39" class="st1"/><circle cx="736.16" cy="196.49" r="14.36" class="st1"/><path d="m370.17 664.16 144.28 91.64" class="st3"/><path d="m324.5 715 110.11-63.81M441.65 357.45l107.8 64.05V255.15l-121.43-72.16v-24.34l-58.75-35.76v157.18" class="st0"/><path d="m330.21 256.57 112.21 66.68v103.61l-112.21-66.68z" class="st0"/><path d="M340.75 351.95v-73.1l88.58 52.35v73.1l-59.06-34.9M384.34 289.67V178.23l146.83 86.97v125.55M384.34 153.57l29.37 17.51" class="st0"/><ellipse cx="504.45" cy="164.01" class="st0" rx="8.8" ry="12.96" transform="rotate(-29.842 504.424 164.01)"/><ellipse cx="534.26" cy="180.39" class="st0" rx="8.8" ry="12.96" transform="rotate(-29.842 534.227 180.399)"/><ellipse cx="565.96" cy="197.35" class="st0" rx="8.8" ry="12.96" transform="rotate(-29.842 565.926 197.358)"/><path d="M447.59 234.89v60.55l-49.69-28.93v-60.95z" class="st1"/><path d="m579.17 270.16 55.34 31.93M491.07 195.05l74.54 43.23M549.53 304.97 569 316.21M581.99 245.4l81.32 46.35M549.8 278.37l97.7 57.73M580.3 322.2l80.19 46.52" class="st0"/><path d="M637.84 495.88 729.89 551M288.63 428.58l-84.14-49.69" class="st3"/><path d="m299.92 377.76-151.06 92.05" class="st0"/></g><path d="M540.46 581.03c-.18-2.07 2.27-4.01 5.49-4.35l15.48-1.61c3.21-.33 6.07 1.06 6.38 3.11l.6 4.01c.31 2.05 3.04 4.11 6.06 4.59l7.67 1.21c3.04.48 7.23-.48 9.37-2.15l4.17-3.26c2.13-1.67 5.84-2.02 8.29-.79l11.79 5.92c2.45 1.23 2.78 3.62.74 5.33l-3.98 3.36c-2.04 1.72-2.51 4.55-1.07 6.32l3.65 4.48c1.45 1.77 5.21 2.98 8.41 2.69l6.25-.57c3.2-.29 5.99 1.15 6.24 3.23l1.18 9.99c.25 2.07-2.14 4.05-5.33 4.43l-6.23.73c-3.19.37-6.58 2.33-7.57 4.35l-2.51 5.12c-.99 2.03.14 4.69 2.53 5.94l4.67 2.45c2.39 1.26 2.63 3.65.53 5.35l-10.1 8.2c-2.1 1.7-5.8 2.12-8.27.93l-4.84-2.32c-2.47-1.19-6.81-1.26-9.64-.17l-7.2 2.76c-2.85 1.09-5.02 3.66-4.84 5.72l.35 4.04c.18 2.07-2.27 4.01-5.49 4.35l-15.48 1.61c-3.21.33-6.07-1.06-6.38-3.11l-.61-4.01c-.31-2.05-3.04-4.11-6.06-4.59l-7.67-1.21c-3.04-.48-7.23.48-9.37 2.15l-4.17 3.26c-2.13 1.67-5.84 2.02-8.29.79l-11.79-5.92c-2.45-1.23-2.78-3.62-.74-5.33l3.98-3.36c2.04-1.72 2.51-4.55 1.07-6.32l-3.65-4.48c-1.45-1.77-5.21-2.98-8.41-2.69l-6.25.57c-3.2.29-5.99-1.15-6.24-3.23l-1.18-9.99c-.25-2.07 2.14-4.05 5.33-4.43l6.23-.73c3.19-.37 6.58-2.33 7.57-4.35l2.51-5.12c.99-2.03-.14-4.69-2.53-5.94l-4.67-2.45c-2.39-1.26-2.63-3.65-.53-5.35l10.1-8.2c2.1-1.7 5.8-2.12 8.27-.93l4.84 2.32c2.47 1.19 6.81 1.26 9.64.17l7.2-2.76c2.85-1.09 5.02-3.66 4.84-5.72l-.34-4.04zm2.07 23.59c-18.59 7.13-26.02 22.28-16.59 33.84 9.43 11.56 32.14 15.16 50.74 8.03 18.59-7.13 26.02-22.28 16.59-33.84-9.43-11.57-32.15-15.16-50.74-8.03z" class="st4"/><path d="m495.78 617.54 4.67 2.45c.01.01.02.01.03.02.27-.31.51-.63.66-.95l2.51-5.12c.99-2.03-.14-4.69-2.53-5.94l-.44-.23s-.72.88-1.06.86c-5.71-1.03-5.12-5.99-5.12-5.99l-1.11 9.38c-.52 3 0 4.26 2.39 5.52zM541.85 616.61c18.59-7.13 41.31-3.54 50.74 8.03 1.51 1.85 2.58 3.8 3.25 5.79 2.58-5.9 1.94-12.25-2.57-17.78-9.43-11.56-32.14-15.16-50.74-8.03-15.61 5.99-23.35 17.63-19.85 28.05 2.82-6.44 9.47-12.34 19.17-16.06zM617.77 591.09c-.1.46-.31.92-.67 1.36-1.21 2.37-3.55 4.47-5 5.62-.04.03-.05.07-.08.11l-.69-.35c-.95 1.61-.96 3.56.13 4.9l2.9 3.56 1.47-1.24c1.33-1.12 1.63-2.53 1-3.72l.32.09.62-10.33zM504.17 656.81l2.51-2.12c2.04-1.72 2.51-4.55 1.07-6.32l-3.65-4.48c-1.45-1.77-5.21-2.98-8.41-2.69l-6.25.57c-3.2.29-5.99-1.15-6.24-3.23l-.13-1.12c-.58.41-1.05-8.87-1.05-8.87-.31.54-.75 11.4-.68 11.99l1.18 9.99c.25 2.07 3.04 3.52 6.24 3.23l6.25-.57c3.2-.29 6.96.91 8.41 2.69l.75.93zM636.51 634.53l.63-11.12c-.1 2.02-3.87 3.39-5.28 3.56l-6.23.73c-3.19.37-6.58 2.33-7.57 4.35l-2.51 5.12c-.99 2.02.13 4.66 2.49 5.92 1.42-1.65 4.23-3.08 6.91-3.39l6.23-.73c3.2-.39 5.58-2.37 5.33-4.44zM624.02 660.09l.69-11.84-.03.31c-.01.1-.01.2-.03.3l-.13 1.22-4.84 6.2-1.83-.96-4.66 3.79c-2.1 1.7-5.8 2.12-8.27.93l-4.84-2.32c-2.47-1.19-6.81-1.26-9.64-.17l-7.2 2.76c-2.85 1.09-5.02 3.66-4.84 5.72l.35 4.04c.18 2.07-2.27 4.01-5.49 4.35l-15.48 1.61c-3.21.33-6.07-1.06-6.38-3.11l-.6-4.01c-.31-2.05-3.04-4.11-6.06-4.59l-7.67-1.21c-3.04-.48-7.23.48-9.37 2.15l-4.17 3.26c-2.13 1.67-5.84 2.02-8.29.79l-8.05-4.04c-.17.29-.25.89-.59.84-6.05-.94-5.21-5.73-5.21-5.73l-.64 11.73c-.01.05-.01.09-.02.14-.14 1.2.55 2.39 2.05 3.14l11.79 5.92c2.45 1.23 6.16.87 8.29-.79l4.17-3.26c2.13-1.67 6.33-2.63 9.37-2.15l7.67 1.21c3.02.48 5.75 2.53 6.06 4.59l.61 4.01c.31 2.05 3.16 3.45 6.38 3.11l15.48-1.61c3.22-.33 5.67-2.28 5.49-4.35l-.35-4.04c-.18-2.07 1.98-4.63 4.84-5.72l7.2-2.76c2.84-1.09 7.17-1.02 9.64.17l4.84 2.32c2.47 1.19 6.18.77 8.27-.93l10.1-8.2c1.01-.85 1.47-1.86 1.39-2.82z" class="st5"/><path d="m153.69 589.97 117.82 69.61 175.64-102.25-119.01-70.78z" class="st4"/><path d="M259.33 539.72c-.94.32-1.83.69-2.64 1.13-2.62 1.43-4.08 3.27-4.11 5.19-.04 2.06 1.59 4.23 4.46 5.95 6.47 3.86 17.28 4.22 23.59.78.3-.16.57-.33.84-.5l-20.42.25-1.72-12.8zM214.61 575.71l20.13-.24c.04-.22.07-.43.07-.65.04-2.06-1.59-4.23-4.46-5.95-3.49-2.08-8.23-3.14-12.85-3.14-2.83 0-5.62.41-8.04 1.22l3.91-.52 1.24 9.28zM309.26 512.48c-.94.32-1.83.69-2.64 1.13-2.62 1.43-4.08 3.27-4.11 5.19-.04 2.06 1.59 4.23 4.46 5.95 6.47 3.86 17.28 4.22 23.59.78.3-.16.57-.33.84-.5l-20.42.25-1.72-12.8z" class="st6"/><path d="m314.46 521.23 20.13-.24c.04-.22.07-.43.07-.65.04-2.06-1.59-4.23-4.46-5.95-3.49-2.08-8.23-3.14-12.85-3.14-2.83 0-5.62.41-8.04 1.22l3.91-.52 1.24 9.28zM209.4 566.96c-.94.32-1.83.69-2.64 1.13-2.62 1.43-4.08 3.27-4.11 5.19-.04 2.06 1.59 4.23 4.46 5.95 6.47 3.86 17.28 4.22 23.59.78.3-.16.57-.33.84-.5l-20.42.25-1.72-12.8z" class="st6"/><path d="M328.14 478.07 153.69 581.49l117.82 69.61 175.64-102.25-119.01-70.78zM304.7 510.1c7.65-4.17 19.76-3.8 27.55.85 4.2 2.51 6.48 5.87 6.41 9.46 0 .18-.04.35-.05.53l23.15-.28.05 4-24.65.3c-1.05 1.56-2.63 2.95-4.7 4.08-3.56 1.94-8.08 2.9-12.69 2.9-5.29 0-10.69-1.27-14.86-3.75-4.2-2.51-6.48-5.87-6.41-9.46.07-3.42 2.27-6.48 6.2-8.63zm75.72 40.83-2.05 3.44-27.32-16.3 2.05-3.44 27.32 16.3zm-125.64-13.59c7.65-4.17 19.76-3.8 27.55.85 4.2 2.51 6.48 5.87 6.41 9.46 0 .18-.04.35-.05.53l23.15-.28.05 4-24.65.3c-1.05 1.56-2.63 2.95-4.7 4.08-3.56 1.94-8.08 2.9-12.69 2.9-5.29 0-10.69-1.27-14.86-3.75-4.2-2.51-6.48-5.87-6.41-9.46.07-3.42 2.27-6.48 6.2-8.63zm-22.16 46.18c-3.56 1.94-8.08 2.9-12.69 2.9-5.29 0-10.69-1.27-14.86-3.75-4.2-2.51-6.48-5.87-6.41-9.46.07-3.42 2.27-6.48 6.2-8.62 7.65-4.17 19.75-3.8 27.55.85 4.2 2.51 6.48 5.87 6.41 9.46 0 .18-.04.35-.05.53l23.15-.28.05 4-24.65.3c-1.05 1.55-2.63 2.94-4.7 4.07zm35.02 30.85-26.96-16.09 2.05-3.44 26.96 16.09-2.05 3.44zm26.79 3.97-43.23-25.8 2.05-3.44 43.23 25.8-2.05 3.44zm28.3-28.12-32.13-19.17 2.05-3.44 32.13 19.17-2.05 3.44zm20.15 0-41.76-24.92 2.05-3.44 41.76 24.92-2.05 3.44zm-2.36-46.42 2.05-3.44 44.41 26.5-2.05 3.44-44.41-26.5z" class="st6"/><path d="m264.54 548.47 20.13-.24c.04-.22.07-.43.07-.65.04-2.06-1.59-4.23-4.46-5.95-3.49-2.08-8.23-3.14-12.85-3.14-2.83 0-5.62.41-8.04 1.22l3.91-.52 1.24 9.28z" class="st6"/></svg>