<?xml version="1.0" encoding="UTF-8"?><svg id="Layer_1" xmlns="http://www.w3.org/2000/svg" viewBox="0 0 53.52 33.45"><defs><style>.cls-1{fill:#9be583;}.cls-2{fill:#303030;}</style></defs><path class="cls-1" d="M13.08,19.41c.38,0,.68-.31,.68-.68s-.31-.68-.68-.68-.68,.31-.68,.68,.31,.68,.68,.68Z"/><path class="cls-1" d="M28.82,15.91c.18,0,.33-.15,.33-.33s-.15-.33-.33-.33-.33,.15-.33,.33,.15,.33,.33,.33Z"/><path class="cls-1" d="M27.49,6.72c.52,0,.94-.42,.94-.94s-.42-.94-.94-.94-.94,.42-.94,.94,.42,.94,.94,.94Z"/><path class="cls-1" d="M32.42,10.49l1.18,4.07,1.28-2.61s-1.15-1.39-2.46-1.46Z"/><path class="cls-1" d="M33.44,14.89l.03-.06-1.25-4.32c-.1,0-.2,.01-.3,.03h-.01s-.02,0-.02,0c-.02,0-.03,0-.05,0v.05l1.19,4.05,.08,.28,.12,.4,.13-.26,.09-.18Z"/><g><path class="cls-2" d="M31.39,13.92l.2,.12,1.52,.89-.08-.28-2.19-1.29c0-.34,.11-2.11,1.02-2.76v-.05s.02,0,.04,0c0,0,.02,0,.02,0h.01s.02-.02,.03-.02c.08-.04,.16-.06,.25-.09l.02,.08,1.25,4.32,.03,.1-.06-.03-.09,.18,3.81,2.24h.03v-.02h.02l1-.62v-.05s.03-1.2-.36-2.6c-.36-1.3-1.16-3.05-2.92-4.03-.87-.49-1.6-.57-2.17-.23-.03,.02-.06,.05-.09,.08h0l-.88,.56h0c-1.14,.75-1.15,2.94-1.15,3.03v.06l.75,.44h0Zm1.04-3.43l-.02-.06c.29-.06,.58-.03,.86,.04,.21,.07,.42,.16,.66,.29,.51,.28,.93,.63,1.28,1.02l-1.51,3.09-.09-.3-1.18-4.07Zm1.37,4.61l1.55-3.16c1.57,1.83,1.74,4.4,1.75,5.1l-3.3-1.94Z"/><path class="cls-2" d="M13.02,13.83l-.12,.16h.02s.1,.08,.15,.11h0l.11-.16-.05-.03s-.07-.05-.11-.07h0Z"/><path class="cls-2" d="M12.6,13.5l-.13,.15h.01s.09,.09,.13,.12l.02,.02,.08-.11,.04-.04v-.02c-.05-.04-.1-.08-.14-.11h-.01Z"/><polygon class="cls-2" points="13.37 14.29 13.55 14.4 13.65 14.23 13.48 14.12 13.37 14.29"/><path class="cls-2" d="M12.63,7.57h0l.04-.19h-.02c-.06-.02-.13-.03-.2-.02h-.02l.02,.19h.05s.07,.01,.12,.02Z"/><polygon class="cls-2" points="13.02 7.52 12.92 7.69 13.1 7.79 13.2 7.62 13.02 7.52"/><path class="cls-2" d="M11.53,8.64c.02-.06,.04-.11,.05-.17h.01l-.19-.08v.02c-.02,.05-.04,.11-.06,.18h0l.19,.06h0Z"/><polygon class="cls-2" points="13.5 7.78 13.4 7.96 13.58 8.06 13.68 7.89 13.5 7.78"/><path class="cls-2" d="M12.03,7.75s.08-.06,.14-.1h0l-.1-.17h0c-.06,.04-.11,.07-.16,.11h0v.02l.12,.15h0Z"/><path class="cls-2" d="M11.44,9.16s0-.11,.02-.17v-.02l-.2-.03v.02c0,.06-.02,.12-.02,.18h0l.2,.04v-.02Z"/><path class="cls-2" d="M11.72,8.15c.03-.05,.06-.09,.09-.15h0l-.17-.12h0c-.04,.07-.07,.12-.1,.18h0l.18,.1h0Z"/><polygon class="cls-2" points="15.41 8.85 15.31 9.03 15.5 9.13 15.59 8.96 15.41 8.85"/><polygon class="cls-2" points="13.85 14.57 14.02 14.68 14.13 14.5 13.95 14.4 13.85 14.57"/><polygon class="cls-2" points="15.79 9.3 15.98 9.4 16.07 9.22 15.89 9.12 15.79 9.3"/><polygon class="cls-2" points="14.93 8.59 14.84 8.76 15.02 8.86 15.12 8.69 14.93 8.59"/><path class="cls-2" d="M11.41,9.65v-.13h0l-.18-.02-.02,.02v.19h.2v-.06Z"/><polygon class="cls-2" points="15.26 15.41 15.44 15.52 15.54 15.35 15.36 15.24 15.26 15.41"/><polygon class="cls-2" points="14.79 15.13 14.97 15.24 15.07 15.07 14.89 14.96 14.79 15.13"/><polygon class="cls-2" points="13.97 8.05 13.88 8.23 14.06 8.33 14.16 8.15 13.97 8.05"/><polygon class="cls-2" points="14.32 14.85 14.49 14.96 14.6 14.78 14.42 14.68 14.32 14.85"/><polygon class="cls-2" points="14.45 8.32 14.36 8.49 14.54 8.6 14.64 8.42 14.45 8.32"/><path class="cls-2" d="M11.42,10.24v-.18h-.2v.21h.19v-.03Z"/><path class="cls-2" d="M11.96,12.68h-.01l-.18,.08h0c.03,.07,.06,.12,.09,.17h.01l.17-.09h0s-.05-.1-.08-.16Z"/><path class="cls-2" d="M11.8,12.37h.01v-.02s-.05-.11-.07-.16h0l-.19,.05h0c.02,.07,.05,.13,.07,.19v.02l.18-.08Z"/><path class="cls-2" d="M12.25,13.13v-.02l-.17,.12h.01c.04,.06,.08,.11,.12,.16h0l.15-.12h0c-.04-.06-.08-.1-.11-.14Z"/><path class="cls-2" d="M11.64,11.85c-.02-.06-.03-.12-.04-.18h0l-.19,.04h0c.02,.07,.03,.13,.04,.19h0l.19-.04h0Z"/><path class="cls-2" d="M11.46,10.8v-.02s-.01-.06-.01-.09,0-.06,0-.09h-.2v.02s.01,.06,.01,.09,0,.06,0,.09h.2Z"/><path class="cls-2" d="M11.53,11.33h0s0-.07-.02-.1c0-.03,0-.06,0-.09h0l-.2,.02h0c.01,.05,.01,.08,.02,.12,0,.02,0,.05,0,.07h0l.2-.02Z"/><polygon class="cls-2" points="27.64 28.48 27.81 28.58 27.92 28.41 27.74 28.31 27.64 28.48"/><polygon class="cls-2" points="25.93 27.46 26.03 27.29 25.85 27.18 25.75 27.35 25.93 27.46"/><polygon class="cls-2" points="27.16 28.2 27.34 28.3 27.45 28.13 27.27 28.03 27.16 28.2"/><polygon class="cls-2" points="28.11 28.76 28.29 28.86 28.39 28.69 28.21 28.59 28.11 28.76"/><polygon class="cls-2" points="25.46 27.18 25.56 27.01 25.38 26.9 25.28 27.07 25.46 27.18"/><polygon class="cls-2" points="28.58 29.04 28.76 29.14 28.86 28.98 28.68 28.87 28.58 29.04"/><polygon class="cls-2" points="24.99 26.9 25.09 26.73 24.91 26.62 24.81 26.79 24.99 26.9"/><polygon class="cls-2" points="26.69 27.92 26.87 28.02 26.97 27.85 26.8 27.74 26.69 27.92"/><polygon class="cls-2" points="27.43 26.8 27.32 26.63 23.59 29.05 23.7 29.22 26.28 27.55 26.22 27.64 26.4 27.74 26.5 27.57 26.37 27.49 27.43 26.8"/><polygon class="cls-2" points="28.22 22.84 28.04 22.73 27.94 22.91 28.12 23.01 28.22 22.84"/><rect class="cls-2" x="33.86" y="15.83" width=".2" height=".21"/><rect class="cls-2" x="33.86" y="18.57" width=".2" height=".21"/><polygon class="cls-2" points="27.75 22.56 27.57 22.45 27.47 22.63 27.65 22.73 27.75 22.56"/><rect class="cls-2" x="33.86" y="19.12" width=".2" height=".21"/><rect class="cls-2" x="33.86" y="20.22" width=".2" height=".21"/><rect class="cls-2" x="33.86" y="18.02" width=".2" height=".21"/><rect class="cls-2" x="33.86" y="19.67" width=".2" height=".21"/><polygon class="cls-2" points="28.7 23.12 28.52 23.01 28.41 23.18 28.59 23.29 28.7 23.12"/><rect class="cls-2" x="33.86" y="17.48" width=".2" height=".2"/><polygon class="cls-2" points="26.16 21.62 26.05 21.79 26.23 21.9 26.33 21.72 26.16 21.62"/><polygon class="cls-2" points="29.36 23.74 29.54 23.85 29.64 23.68 29.46 23.57 29.36 23.74"/><polygon class="cls-2" points="28.89 23.46 29.07 23.57 29.17 23.4 28.99 23.29 28.89 23.46"/><rect class="cls-2" x="33.86" y="16.93" width=".2" height=".21"/><rect class="cls-2" x="33.86" y="16.38" width=".2" height=".21"/><polygon class="cls-2" points="27.18 22.45 27.28 22.28 27.1 22.18 27 22.35 27.18 22.45"/><polygon class="cls-2" points="29.83 24.02 30.01 24.13 30.11 23.95 29.93 23.85 29.83 24.02"/><polygon class="cls-2" points="25.58 21.51 25.76 21.62 25.86 21.45 25.68 21.34 25.58 21.51"/><path class="cls-2" d="M26.53,22.07l.17,.11,.11-.18-.18-.1,1.94-1.27-3.23-1.88v-3.04l-1.23-.68c.93-.89,1.51-2.14,1.51-3.52,0-2.7-2.2-4.89-4.89-4.89s-4.89,2.2-4.89,4.89c0,1.26,.49,2.4,1.28,3.27l-1.26,.75-.02-.02-.03,.05-.08,.05-.05,.03v4.86l-3.21,2.08,6.78,4.17,7.38-4.84-.09,.16Zm-10.65-6.25l4.68,2.64v6.08l-4.68-2.84v-5.88Zm4.88,2.63l4.38-2.5v5.23l-.03,.05,.03,.02v.53l-4.38,2.76v-6.08Zm-4.73-6.94c0-2.59,2.11-4.69,4.69-4.69s4.69,2.11,4.69,4.69-2.1,4.69-4.69,4.69-4.69-2.11-4.69-4.69Zm1.21,3.42c.89,.91,2.12,1.47,3.49,1.47,1.24,0,2.36-.48,3.22-1.24l1.1,.61-4.39,2.51-4.64-2.61,1.22-.74Zm2,11.58l-6.4-3.93,2.83-1.84v1.07l4.93,2.99,.05,.03,4.63-2.92,.05-.03v-.64l.05-.08-.05-.03v-2.16l2.85,1.66-8.95,5.87Z"/><polygon class="cls-2" points="23.69 20.4 23.87 20.5 23.97 20.33 23.79 20.22 23.69 20.4"/><polygon class="cls-2" points="24.16 20.68 24.34 20.78 24.45 20.61 24.27 20.5 24.16 20.68"/><polygon class="cls-2" points="24.64 20.95 24.82 21.06 24.92 20.89 24.74 20.78 24.64 20.95"/><path class="cls-2" d="M23.9,14.1l.07,.07c.96-.86,.99-2.5,.99-2.57h-.2s0,.13-.03,.33c-.05,.46-.22,1.32-.73,1.91-.05,.06-.1,.13-.17,.19l.07,.07h0Z"/><path class="cls-2" d="M23.49,19.22c-.13-.09-.3-.11-.48-.04-.35,.13-.62,.54-.62,.92,0,.2,.07,.36,.21,.45,.08,.05,.17,.08,.26,.08,.07,0,.15-.01,.22-.04,.35-.13,.62-.54,.62-.92,0-.2-.07-.36-.21-.45Zm-.18,.94l-.17-.11,.1-.17,.18,.1-.11,.18Zm-.58-.49h0l.04-.07h.01l.16,.1-.1,.18-.16-.11h0l.06-.1Z"/><path class="cls-2" d="M30.88,25.61l6.76,4.03v-1.48l-6.76-3.99v1.44Zm.2-1.09l6.36,3.75v1.01l-6.36-3.79v-.98Z"/><path class="cls-2" d="M34.54,22.49l-3.67-2.16v1.44l3.67,2.18v-1.46Zm-3.47-.83v-.98l3.27,1.93v1l-3.27-1.94Z"/><path class="cls-2" d="M35.33,24.91l-4.46-2.63v1.44l4.46,2.65v-1.47Zm-4.26-1.3v-.98l4.06,2.39v1l-4.06-2.41Z"/><path class="cls-2" d="M38.28,22.5l-1.39-.82c-.24-.14-.52-.14-.76,0-.1,.05-.16,.14-.22,.22l-1.84-1.1v-.03h-.05l-3.57-2.12-.15-.09,.02,5.72v.02h0v1.75l7.85,4.74,.07,.03,.09-.08v-5.71h0c.13,0,.26-.03,.37-.1,.24-.14,.38-.38,.38-.65v-.35c0-.58-.31-1.13-.82-1.43Zm-.14,8.03l-7.61-4.6-.03-7.03,5.32,3.17c-.03,.08-.07,.16-.07,.25v.35c0,.58,.31,1.13,.82,1.43l1.39,.82c.05,.03,.12,.03,.18,.05v5.56Zm.76-6.26c0,.2-.1,.38-.28,.48-.17,.1-.38,.1-.56,0l-1.39-.82c-.44-.26-.72-.74-.72-1.26v-.35c0-.2,.1-.38,.28-.48,.09-.05,.18-.07,.27-.07s.19,.03,.28,.08l1.39,.82c.44,.26,.72,.74,.72,1.26v.35Z"/><rect class="cls-2" x="37.3" y="22.27" width=".2" height="1.49" transform="translate(-1.5 43.38) rotate(-59.24)"/><rect class="cls-2" x="37.3" y="22.9" width=".2" height="1.49" transform="translate(-2.14 43.49) rotate(-58.95)"/><path class="cls-2" d="M13.58,6.57c.38,.3,.78,.45,1.14,.45,.13,0,.25-.02,.36-.06,.08-.03,.14-.07,.21-.11h0l.05-.02,.69-.41,.17-.1v-.02c.19-.15,.35-.35,.43-.64,.14-.53,.02-1.2-.27-1.81l1.19-.93-.12-.16-1.16,.9c-.22-.39-.51-.75-.86-1.02-.51-.4-1.06-.54-1.5-.39-.08,.03-.15,.06-.22,.11h0l-.81,.48-.05,.03h-.02c-.21,.17-.37,.4-.44,.7-.25,.94,.29,2.29,1.22,3.01Zm-1.02-2.96c.09-.35,.3-.59,.59-.69,.09-.03,.2-.05,.3-.05,.32,0,.67,.14,1.02,.41,.37,.29,.67,.68,.88,1.11l-1.34,1.04-.72-1.16-.17,.11,.83,1.35,1.48-1.15c.22,.52,.3,1.07,.18,1.51-.09,.35-.3,.59-.59,.69-.38,.13-.86,0-1.32-.36-.87-.67-1.38-1.93-1.15-2.8Z"/><path class="cls-2" d="M34.1,8.64h.02l.07-.18h-.01l-.18-.07h-.01l-.06,.19h.01s.1,.04,.16,.06Z"/><path class="cls-2" d="M31.43,8.94s.09-.07,.14-.1h0l-.11-.17h0c-.05,.04-.1,.07-.15,.11h-.01l.12,.17h0Z"/><path class="cls-2" d="M31.88,8.67s.11-.05,.16-.07h0l-.07-.19h-.01c-.06,.02-.12,.05-.18,.08h-.01l.09,.18h.01Z"/><path class="cls-2" d="M31.05,9.31h.04l-.03-.02s.07-.07,.11-.12l-.14-.14h0c-.05,.05-.09,.1-.12,.15h-.02l.16,.13h0Z"/><path class="cls-2" d="M32.37,8.49c.07,0,.12-.02,.18-.03h.01l-.03-.2h0c-.07,.01-.13,.02-.19,.04h0l.04,.2h0Z"/><path class="cls-2" d="M33.07,8.43h.02v-.2h-.01s-.07-.01-.11-.01c-.03,0-.05,.01-.08,.01h0v.18l.09,.02h.1Z"/><path class="cls-2" d="M34.54,8.82s.04,.02,.07,.03h0l.09-.17h-.02c-.06-.03-.11-.06-.16-.08h-.02l-.07,.16v.02h0s.06,.03,.09,.04Z"/><path class="cls-2" d="M33.6,8.49h.01l.04-.19h-.01c-.07-.02-.13-.03-.18-.04h-.02l-.03,.2h.02c.05,0,.11,.02,.17,.03Z"/></g></svg>