<?xml version="1.0" encoding="UTF-8"?><svg id="Layer_1" xmlns="http://www.w3.org/2000/svg" viewBox="0 0 40 25"><defs><style>.cls-1{fill:#9be583;}.cls-2{fill:#303030;}</style></defs><path class="cls-1" d="M31.39,14.23c-.12,0-.23,.1-.23,.23s.1,.23,.23,.23,.23-.1,.23-.23-.1-.23-.23-.23Z"/><circle class="cls-1" cx="17.22" cy="21.02" r=".46"/><circle class="cls-1" cx="23.88" cy="3.66" r=".63"/><polygon class="cls-1" points="18.38 17.17 21.5 15.39 21.5 15.19 15.57 18.59 15.51 18.55 9.14 14.77 9.14 11.64 8.95 11.76 8.95 15.21 12.14 17.11 15.26 18.97 18.15 17.31 18.38 17.17"/><polygon class="cls-1" points="12.07 9.85 9.65 11.32 12.42 12.88 14.83 11.41 12.07 9.85"/><polygon class="cls-1" points="9.42 11.47 9.38 11.49 9.38 14.63 12.34 16.39 12.34 13.1 9.42 11.47"/><polygon class="cls-1" points="18.38 13.03 15.69 11.36 15.22 11.64 15.07 11.55 12.66 13.01 15.58 14.65 18.38 13.03"/><polygon class="cls-1" points="15.92 11.22 18.61 12.89 21.08 11.46 18.3 9.81 15.92 11.22"/><polygon class="cls-1" points="18.49 13.24 15.58 14.93 15.52 14.89 12.58 13.24 12.58 16.53 15.57 18.31 18.49 16.64 18.49 13.24"/><polygon class="cls-1" points="18.73 16.5 21.49 14.91 21.48 11.7 21.32 11.6 18.73 13.1 18.73 16.5"/><g><path class="cls-2" d="M25.39,10.09c0-2.45-1.99-5.24-4.43-6.21l-.19-.08c-1.15-.46-2.25-.43-3.09,.02v-.02l-.19,.11s-.02,0-.03,.01h-.01l-.85,.54s-.02,0-.02,.01h-.02v.02c-.77,.53-1.2,1.45-1.2,2.58v3.81l-2.99-1.7-3.24,1.98v3.6l6.37,3.79,.06,.04,5.92-3.4,.37-.21,.06-.04,.02-3.7,.09-.05-3.39-2.01-3.04,1.77v-3.86c0-1.06,.39-1.9,1.1-2.39l.04-.02c.42-.28,.93-.42,1.49-.42,.49,0,1.03,.11,1.57,.33l.19,.08c2.36,.95,4.28,3.63,4.28,5.99v4.99c0,1.04-.38,1.87-1.07,2.36l-.12,.07c-.78,.49-1.87,.52-3.01,.07l-.19-.08c-.53-.21-1.04-.52-1.51-.89l-.23,.13c.51,.41,1.06,.75,1.64,.98l.19,.08c.57,.23,1.14,.34,1.66,.34s.97-.11,1.37-.32h0l.1-.06c.06-.03,.12-.06,.17-.1,.01,0,.02-.02,.03-.03l.77-.47s.06-.03,.09-.05c0,0,.01-.01,.02-.01h.02v-.02c.76-.54,1.18-1.44,1.18-2.57v-4.5l.07-.13-.07-.04v-.33Zm-9.7,1.27l2.69,1.67-2.8,1.62-2.92-1.64,2.41-1.46,.47-.28,.16,.1Zm-3.31-1.89l2.92,1.66-.47,.29-2.41,1.46-2.77-1.55-.16-.09,2.88-1.76Zm-3,2.02v-.05l.04,.02,2.92,1.64v3.28l-2.96-1.76v-3.14Zm3.2,5.04v-3.29l2.95,1.65,.06,.03,2.91-1.69v3.4l-2.92,1.68-3-1.78Zm9.11-1.73l-.19,.11-2.76,1.59v-3.4l2.58-1.5,.39-.23-.02,3.43Zm-3.05-5.35l2.92,1.73-.48,.28-2.47,1.43-2.69-1.67-.15-.1,2.87-1.68Z"/><polygon class="cls-2" points="22.68 20.71 22.51 20.82 22.63 21.02 22.8 20.92 22.68 20.71"/><polygon class="cls-2" points="21.2 21.61 21.32 21.82 21.49 21.71 21.37 21.51 21.2 21.61"/><polygon class="cls-2" points="23.55 20.19 23.38 20.29 23.5 20.49 23.67 20.4 23.55 20.19"/><polygon class="cls-2" points="24.25 19.76 24.37 19.97 24.54 19.86 24.42 19.66 24.25 19.76"/><polygon class="cls-2" points="24.68 19.5 24.81 19.7 24.98 19.6 24.85 19.4 24.68 19.5"/><polygon class="cls-2" points="22.24 20.98 22.07 21.08 22.19 21.29 22.36 21.18 22.24 20.98"/><polygon class="cls-2" points="23.98 19.92 23.81 20.03 23.94 20.23 24.11 20.13 23.98 19.92"/><polygon class="cls-2" points="23.11 20.45 22.94 20.56 23.06 20.76 23.23 20.66 23.11 20.45"/><polygon class="cls-2" points="20.76 21.88 20.89 22.08 21.06 21.98 20.93 21.77 20.76 21.88"/><polygon class="cls-2" points="25.12 19.23 25.24 19.44 25.41 19.33 25.29 19.13 25.12 19.23"/><polygon class="cls-2" points="21.81 21.25 21.79 21.26 20.48 20.48 20.36 20.69 21.73 21.51 21.76 21.55 21.78 21.54 24.09 22.92 24.22 22.71 21.83 21.29 21.81 21.25"/><polygon class="cls-2" points="11.11 18.54 11.28 18.65 11.4 18.44 11.24 18.34 11.11 18.54"/><polygon class="cls-2" points="10.68 18.27 10.85 18.37 10.98 18.17 10.81 18.07 10.68 18.27"/><polygon class="cls-2" points="11.54 18.81 11.71 18.92 11.84 18.72 11.67 18.61 11.54 18.81"/><polygon class="cls-2" points="8.96 17.18 9.12 17.28 9.25 17.08 9.08 16.97 8.96 17.18"/><polygon class="cls-2" points="9.39 17.45 9.55 17.56 9.68 17.35 9.52 17.25 9.39 17.45"/><polygon class="cls-2" points="10.25 18 10.42 18.1 10.54 17.9 10.38 17.79 10.25 18"/><polygon class="cls-2" points="12.83 19.63 13 19.74 13.13 19.53 12.96 19.43 12.83 19.63"/><polygon class="cls-2" points="13.26 19.9 13.43 20.01 13.56 19.8 13.39 19.7 13.26 19.9"/><polygon class="cls-2" points="11.97 19.09 12.14 19.19 12.27 18.99 12.1 18.88 11.97 19.09"/><polygon class="cls-2" points="12.4 19.36 12.57 19.46 12.7 19.26 12.53 19.15 12.4 19.36"/><polygon class="cls-2" points="9.82 17.72 9.98 17.83 10.11 17.63 9.94 17.52 9.82 17.72"/><polygon class="cls-2" points="6.8 15.82 6.97 15.92 7.1 15.72 6.93 15.61 6.8 15.82"/><polygon class="cls-2" points="7.23 16.09 7.4 16.19 7.53 15.99 7.36 15.9 7.23 16.09"/><rect class="cls-2" x="8.55" y="16.76" width=".24" height=".2" transform="translate(-10.2 15.03) rotate(-57.23)"/><polygon class="cls-2" points="8.1 16.63 8.26 16.74 8.39 16.54 8.22 16.43 8.1 16.63"/><polygon class="cls-2" points="7.66 16.36 7.83 16.47 7.96 16.26 7.79 16.16 7.66 16.36"/><path class="cls-2" d="M28.67,14.86l-.08-.03s-.06-.01-.08-.02h.19v-.18h-.25v.17c-.47-.16-.94-.13-1.28,.1-.34,.23-.53,.63-.53,1.12v.56c0,1.03,.83,2.2,1.86,2.61l.08,.03c.24,.1,.48,.15,.71,.15,.27,0,.51-.07,.71-.2,.34-.23,.53-.63,.53-1.12v-.56c0-1.03-.83-2.2-1.86-2.61Zm1.62,3.17c0,.41-.15,.74-.42,.92-.3,.21-.74,.22-1.2,.04l-.08-.03c-.94-.38-1.71-1.45-1.71-2.39v-.56c0-.41,.15-.74,.42-.92,.16-.11,.36-.16,.58-.16,.19,0,.4,.04,.62,.13l.08,.03s.06,.03,.1,.05h-.21v.18h.24v-.16c.88,.42,1.58,1.43,1.58,2.32v.56Z"/><path class="cls-2" d="M32.23,9.4l.13-.2-.71-.46v-.47l.58,.37,.13-.2-.71-.46v-1.12c0-.27-.13-.51-.35-.66l-.87-.56v-1.18h-.24v1.03l-.36-.23v-1.23h-.24v1.08l-.37-.24v-1.22h-.24v1.06l-.52-.33c-.11-.07-.25-.08-.36-.01-.12,.06-.18,.18-.18,.31v.94l-.51-.32-.13,.2,.63,.4v.47l-.5-.32-.13,.2,.63,.4v.41l-.5-.32-.13,.2,.63,.4v.99c0,.27,.13,.52,.36,.66l.71,.45v.93h.24v-.78l.37,.23v.92h.24v-.77l.36,.23v.98h.24v-.83l.67,.43c.06,.04,.12,.06,.19,.06,.06,0,.12-.01,.17-.04,.12-.06,.18-.18,.18-.31v-.79l.59,.38,.13-.2-.72-.46v-.41l.59,.38Zm-.83-.12l-.41-.26-.13,.2,.53,.34v.95c0,.06-.04,.09-.06,.1-.02,0-.06,.03-.12,0l-.8-.51v-.63h-.24v.48l-.36-.23v-.59h-.24v.44l-.37-.24v-.63h-.24v.47l-.58-.37c-.16-.1-.25-.27-.25-.46v-.84l.2,.13,.13-.2-.33-.21v-.41l.22,.14,.13-.2-.35-.22v-.47l.17,.11,.13-.2-.3-.19v-1.09c0-.06,.04-.09,.06-.1,.01,0,.03-.01,.05-.01,.02,0,.04,0,.06,.02l.65,.42v.54h.24v-.39l.37,.24v.53h.24v-.37l.36,.23v.48h.24v-.33l.74,.48c.16,.1,.25,.27,.25,.46v.97l-.35-.22-.13,.2,.48,.31v.47l-.34-.22-.13,.2,.46,.3v.41Z"/><path class="cls-2" d="M27.04,11.75l.16-.18s-.09-.08-.13-.11h0l-.02-.02-.08,.12h.02l-.08,.08s.08,.07,.12,.11Z"/><path class="cls-2" d="M27.44,11.8l-.17,.18s.07,.08,.11,.12l.18-.15s-.08-.09-.12-.13l-.11,.1,.11-.11h0Z"/><polygon class="cls-2" points="28.58 16.16 28.14 15.97 28.59 17.03 29.03 15.97 28.59 16.16 28.58 16.16"/><polygon class="cls-2" points="25.75 10.62 25.64 10.83 25.79 10.92 25.91 10.71 25.76 10.62 25.75 10.62"/><path class="cls-2" d="M28.49,13.59l-.23,.08,.1-.03-.1,.03c.02,.05,.03,.11,.05,.16l.23-.07c-.02-.06-.03-.11-.05-.17h0Z"/><path class="cls-2" d="M28.42,14.32l.24-.04c0-.06-.02-.11-.03-.17v-.02l-.24,.05h.11l-.11,.02c.01,.05,.02,.11,.03,.16Z"/><path class="cls-2" d="M28.2,13.15l-.11,.04v.02h0c.02,.05,.04,.1,.06,.15l.22-.09c-.02-.05-.04-.11-.07-.16l-.11,.04Z"/><path class="cls-2" d="M27.58,12.34h0c.03,.06,.06,.1,.09,.15l.2-.13s-.07-.1-.1-.14h0l-.2,.13Z"/><path class="cls-2" d="M28.07,12.65h0l-.21,.1,.11-.04-.1,.06s.05,.1,.08,.15l.21-.12c-.03-.05-.06-.1-.08-.15h0Z"/><polygon class="cls-2" points="28.71 15.65 28.71 15.64 28.47 15.65 28.47 15.82 28.71 15.82 28.71 15.65"/><path class="cls-2" d="M26.8,11.24s-.1-.07-.14-.1h0l-.12,.2s.09,.06,.13,.09l.14-.19Z"/><polygon class="cls-2" points="26.2 10.87 26.09 11.08 26.22 11.15 26.37 10.97 26.21 10.87 26.2 10.87"/><polygon class="cls-2" points="23.54 9.38 23.53 9.38 23.42 9.58 23.42 9.59 23.57 9.67 23.69 9.46 23.54 9.38"/><polygon class="cls-2" points="23.98 9.63 23.97 9.62 23.87 9.83 23.86 9.84 24.01 9.92 24.13 9.71 23.98 9.63"/><polygon class="cls-2" points="22.97 9.34 23.12 9.42 23.24 9.22 23.09 9.13 23.08 9.13 22.98 9.34 22.97 9.34"/><polygon class="cls-2" points="22.66 9.54 22.7 9.14 22.77 9.01 23.09 8.76 21.95 8.63 22.66 9.54"/></g></svg>