<svg xmlns="http://www.w3.org/2000/svg" xml:space="preserve" id="Layer_1" x="0" y="0" style="enable-background:new 0 0 900 900" version="1.1" viewBox="0 0 900 900"><style>.st1,.st2{fill:none;stroke:#fff;stroke-width:2.5}.st1{stroke-miterlimit:10}.st2{stroke-linejoin:bevel}.st3{fill:#fff}.st4{fill:none;stroke:#fff;stroke-width:2.5;stroke-miterlimit:10;stroke-dasharray:0,0,5,10}</style><g id="b"><path d="M722.66 409.37c0 1.61-.02 3.2-.07 4.78-2.15 69.65-52.83 106.2-115.08 81.87C543.85 471.14 492.2 392 492.13 319.26c-.04-44.74 19.45-76.63 49.27-88.77 18.66-7.6 41.38-7.46 65.88 2.12 63.66 24.88 115.31 104.02 115.38 176.76z" style="fill:#9be583"/><path d="M739.6 407.67c0 1.61-.02 3.2-.07 4.78-2.15 69.65-52.83 106.2-115.08 81.87-63.66-24.88-115.31-104.02-115.38-176.76-.04-44.74 19.45-76.63 49.27-88.77 18.66-7.6 41.38-7.46 65.88 2.12 63.66 24.88 115.31 104.02 115.38 176.76z" class="st1"/><path d="m564.04 563.73 45.18 26.35-193.89 114.45-224.75-131.01 18.83-12.43M459.1 496.53l28.89 17.07" class="st2"/><path d="m564.04 563.73 45.18 26.35-193.89 114.45-224.75-131.01 18.83-12.43-.38 8.66 92.23 54.21 9.04-3.76.38 7.9 105.41 62.5 157.74-93.74-.38-18.83zM487.99 513.6l-28.89-17.07 7.43 16z" class="st3"/><path d="m310.58 607.21 156.14-94.31c-17.51-57.04-98.26-57.6-98.26-57.6l-159.25 92.05 101.36 59.58 105.32 62.96 157.93-92.91c-12.97-17.68-51.94-69.09-107.1-64.08M416.46 690.6v-20.71" class="st2"/><path d="M573.45 576.69v19.51l-156.99 94.4-105.78-62.87.18-7.91-8.84 4.52-92.8-54.97v-22.02M346.06 486.18s44.42 10.16 59.86 35.01M357.73 477.52s44.42 10.16 59.86 35.01" class="st2"/><path d="M373.92 590.83s44.42 10.16 59.86 35.01M359.99 599.49s44.42 10.16 59.86 35.01M404.42 571.07s44.42 10.16 59.86 35.01M463.15 535.49s44.42 10.16 59.86 35.01M390.49 579.73s44.42 10.16 59.86 35.01" class="st2"/><path d="m281.69 530.98 51.2-30.12c28.24-.75 54.96 32 54.96 32l-50.07 30.87s-25.84-27.93-56.09-32.75z" class="st3"/><path d="m310.58 606.93.28 12.89M311.43 617.37l61.83 36.99M382.86 660.29l33.32 19.77 43.77-24.85M467.01 650.97l59.57-35.01M533.05 612.16l40.09-23.72M302.02 624.34V602.5M277.17 598.74l-68.14-39.91M282.44 602.13l19.39 11.35M244.24 454.14V247.46c-22.31-1.07-25.69-14.91-25.69-14.91" class="st2"/><path d="m265.35 441.6-21.11 12.55c-23.44-1.07-25.41-15.09-25.41-15.09V232.37l158.4-92.25v24.28" class="st2"/><path d="M382.88 165.82c-16.94-1.13-14.68-12.71-14.68-12.71l-145.69 84.91s18.92-10.47 21.74 9.45l145.69-85.6v202.65l-8.86 5.48M284.89 478.48v-158.9c-17.15-.82-19.75-11.46-19.75-11.46" class="st2"/><path d="m284.89 319.59 95.73-56.1v158.1l-95.73 56.9c-18.02-.82-19.54-11.6-19.54-11.6v-158.9l105.5-61.21v18.67" class="st2"/><path d="M375.19 266.52c-13.02-.87-11.29-9.77-11.29-9.77l-95.29 55.35" class="st2"/><circle cx="155.02" cy="405.17" r="7.39" class="st3"/><path d="M612.4 489.87v58.5L418.44 433.11V254.03l90.96 54.05M418.44 274.36l90.93 54.29M476.89 361.21l28.81 16.85M431.71 314.91l12.14 7.14M431.71 329.03l12.14 7.14M431.71 341.58l12.14 7.14M431.71 394.53l12.14 7.15M431.71 408.65l12.14 7.14M431.71 421.2l12.14 7.15M476.61 388.4l45.16 26.64M474.07 437.53l45.16 26.64M533.36 470.57l45.16 26.63M476.89 415.51l28.74 16.25M456.84 297.9v156.96M607.9 318.86l28.81 16.85M562.72 267.47l12.14 7.15M562.72 281.59l12.14 7.15M562.72 294.14l12.14 7.15M562.72 347.1l12.14 7.14M562.72 361.21l12.14 7.15M562.72 373.77l12.14 7.14M610.16 346.9l45.16 26.63M667.76 380.4l70.98 42.27M607.9 373.16l28.74 16.25M717.83 436.03l15.77 8.91M649.69 396.87l56.67 32.96M607.9 401.68l28.81 16.85M610.16 429.72l45.16 26.64M667.76 463.23l39.08 23.27M607.9 455.98l28.74 16.25M649.69 479.7l32.61 18.96M587.85 225.03v247.34" class="st1"/><path d="m359.85 320.75-48.32 28.06M337.98 430.01l-26.45 15.37M359.85 337.69l-48.32 28.06M368.48 223.9 272 279.35M274.17 432.27v25.98M274.17 331.76v80.18M230.69 365.07v25.98M230.69 397.26v38.97M230.69 264.56v80.18M241.42 238.02l129.88-77.37" class="st2"/><circle cx="472.64" cy="222.69" r="14.36" class="st3"/><path d="m128.05 514.72 43.84 28.98" class="st1"/><path d="m104.33 449.22 138.72 82.62" class="st4"/><path d="m124.27 539.04 110.12-63.81" class="st1"/><path d="m463.84 704.92-89.22 53.65" class="st4"/><path d="m361.84 711.24 43.84 28.98" class="st1"/><path d="m495.4 184.65-84.14-49.69" class="st4"/><path d="m506.69 133.83-117.71 71.72" class="st1"/><circle cx="663.95" cy="559.47" r="14.36" class="st3"/><circle cx="695.19" cy="581.42" r="7.39" class="st3"/><circle cx="199" cy="653.82" r="14.36" class="st3"/><circle cx="236.27" cy="686.01" r="7.39" class="st3"/><ellipse cx="605.63" cy="659.38" class="st1" rx="32.94" ry="67.1" transform="rotate(-89.02 605.6 659.35)"/><ellipse cx="605.89" cy="658.34" class="st1" rx="24.7" ry="52.96" transform="rotate(-89.02 605.854 658.313)"/><path d="M628.02 628.63c-34.93-6.52-73.26 1.98-85.61 18.97s5.96 36.05 40.9 42.57c34.93 6.52 73.26-1.98 85.61-18.97s-5.96-36.05-40.9-42.57zm27.82 38.63c-9.73 12.74-39.98 19.08-67.56 14.17-27.58-4.91-42.05-19.22-32.31-31.95 9.73-12.74 39.98-19.08 67.56-14.17 27.58 4.91 42.05 19.22 32.31 31.95z" class="st3"/><path d="M627.29 644.12c17 3.03 25.92 11.85 19.92 19.7M587.79 673.84c-19.17-3.41-29.22-13.35-22.46-22.21M557.87 694.89c-12.16-6.23-19.18-14.54-19.31-23.13M672.54 675.99c-.47 2.75-1.66 5.5-3.62 8.2-12.35 16.99-50.68 25.49-85.61 18.97-4.7-.88-9.11-1.98-13.18-3.28M538.47 672.89v-17.51M672.59 676.56v-15.81" class="st1"/><path d="m569.38 700.93-70.46 43.45a8.393 8.393 0 0 1-8.93-.08c-3.4-2.18-3.29-7.19.19-9.23l74.5-43.65c1.11-.65 2.45-.78 3.66-.35 4.34 1.54 4.97 7.43 1.04 9.85v.01z" class="st1"/><path d="M490.89 734.71a4.91 4.91 0 0 1 4.13-.39c4.9 1.74 5.6 8.38 1.18 11.1" class="st1"/></g></svg>