<?xml version="1.0" encoding="UTF-8"?><svg id="Layer_1" xmlns="http://www.w3.org/2000/svg" viewBox="0 0 53.52 33.45"><defs><style>.cls-1{fill:#9be583;}.cls-2{fill:#303030;}</style></defs><path class="cls-1" d="M21.06,26.08c-.44-.7-1.47-1.2-2.67-1.23-.13,0-.26,0-.39,.02l1.1,1.38-.16,.12-1.19-1.49c-.33,.04-.64,.12-.91,.23-.15,.09-.3,.2-.42,.31-.29,.29-.45,.62-.45,.97,0,1,1.25,1.85,2.8,1.88,.03,0,.07,0,.1,0,.88,0,1.69-.28,2.2-.74,.14-.22,.22-.46,.22-.72s-.08-.52-.23-.75Z"/><path class="cls-1" d="M16.13,27.89c.53,.46,1.34,.77,2.27,.79,.78,.02,1.49-.17,2.02-.5h0c-.45,.19-.98,.3-1.53,.3-.03,0-.07,0-.1,0-1.65-.04-2.99-.97-2.99-2.08,0-.28,.09-.55,.25-.79-.33,.3-.53,.68-.53,1.09,0,.31,.12,.6,.32,.86,.09,.12,.19,.23,.31,.33Z"/><path class="cls-1" d="M16.2,17.54h0s.09-.01,.16,.03c.12,.07,.24,.27,.3,.5,.02,.09,.1,.41,0,.58-.04,.06-.08,.08-.12,.09h0l-.29,.08c.19,.36,.43,.59,.57,.55,.19-.05,.26-.6,.07-1.34-.17-.66-.52-1.13-.73-1.13-.01,0-.02,0-.03,0-.13,.03-.21,.32-.2,.71l.27-.08h0Z"/><path class="cls-1" d="M15.97,17.82l.02,.02,.02-.03h-.03Z"/><path class="cls-1" d="M16.85,19.57h0s-.05,0-.07,0c-.26,0-.54-.3-.74-.7-.01,0-.02,0-.04,0-.03,0-.07,0-.11-.03-.14-.08-.25-.33-.3-.51-.03-.12-.09-.41,0-.57,.03-.05,.07-.08,.12-.09h.01c-.01-.23,0-.44,.05-.61l-.06,.04c-.3,.08-.36,.78-.18,1.47,.18,.69,.62,1.26,.92,1.18l1.37-.14,.04-.16-1.02,.11Z"/><path class="cls-1" d="M23.1,18.71s.03-.02,.05-.03c.24-.56,.18-1.56-.11-2.54-.26-.85-.71-1.61-1.18-2.01-.25-.21-.49-.3-.72-.28l-4.77,2.92c.3,.17,.58,.68,.72,1.22,.13,.5,.17,1.05,.03,1.36l6-.63Z"/><path class="cls-1" d="M19.4,19.46l.71-.08,.33-.03,2.28-.24c.11-.03,.19-.1,.27-.19l-4.91,.52-.04,.16,1.16-.12,.2-.02Z"/><g><polygon class="cls-2" points="10.34 22.07 11.5 22.77 11.44 22.8 11.54 22.97 11.7 22.88 14.36 24.47 14.46 24.29 10.44 21.9 10.34 22.07"/><polygon class="cls-2" points="14.72 20.81 14.82 20.98 15 20.87 14.9 20.7 14.72 20.81"/><polygon class="cls-2" points="10.97 23.09 11.07 23.26 11.25 23.15 11.15 22.98 10.97 23.09"/><polygon class="cls-2" points="9.56 23.94 9.66 24.11 9.84 24 9.74 23.83 9.56 23.94"/><polygon class="cls-2" points="10.03 23.66 10.13 23.83 10.31 23.72 10.21 23.55 10.03 23.66"/><polygon class="cls-2" points="10.5 23.37 10.6 23.54 10.78 23.43 10.68 23.26 10.5 23.37"/><polygon class="cls-2" points="15.19 20.52 15.29 20.69 15.45 20.6 15.34 20.43 15.19 20.52"/><polygon class="cls-2" points="14.25 21.09 14.35 21.26 14.53 21.16 14.43 20.99 14.25 21.09"/><polygon class="cls-2" points="14.06 21.44 13.96 21.27 13.78 21.38 13.88 21.55 14.06 21.44"/><polygon class="cls-2" points="9.09 24.23 9.2 24.4 9.37 24.29 9.27 24.11 9.09 24.23"/><polygon class="cls-2" points="13.59 21.73 13.49 21.55 13.31 21.66 13.41 21.83 13.59 21.73"/><polygon class="cls-2" points="13.12 22.01 13.02 21.84 12.84 21.95 12.95 22.12 13.12 22.01"/><polygon class="cls-2" points="12.19 22.58 12.08 22.41 11.9 22.52 12.01 22.69 12.19 22.58"/><polygon class="cls-2" points="12.66 22.29 12.55 22.12 12.37 22.23 12.48 22.4 12.66 22.29"/><polygon class="cls-2" points="38.13 28.68 38.03 28.85 38.21 28.96 38.31 28.79 38.13 28.68"/><polygon class="cls-2" points="37.19 28.12 37.09 28.29 37.27 28.4 37.37 28.23 37.19 28.12"/><polygon class="cls-2" points="37.66 28.4 37.56 28.57 37.74 28.68 37.84 28.51 37.66 28.4"/><polygon class="cls-2" points="39.44 29.7 39.62 29.8 39.72 29.63 39.54 29.53 39.44 29.7"/><polygon class="cls-2" points="38.97 29.42 39.15 29.52 39.25 29.35 39.07 29.24 38.97 29.42"/><polygon class="cls-2" points="40.86 30.54 41.04 30.64 41.14 30.47 40.96 30.37 40.86 30.54"/><rect class="cls-2" x="40.43" y="30.13" width=".2" height=".2" transform="translate(-6.1 49.77) rotate(-59.45)"/><polygon class="cls-2" points="39.91 29.98 40.09 30.08 40.19 29.91 40.02 29.81 39.91 29.98"/><polygon class="cls-2" points="39.7 28.3 39.59 28.13 35.87 30.55 35.98 30.72 38.55 29.05 38.5 29.13 38.68 29.24 38.78 29.07 38.65 28.99 39.7 28.3"/><polygon class="cls-2" points="19.2 19.71 19.3 19.71 19.4 19.71 19.4 19.46 19.2 19.48 19.2 19.71"/><path class="cls-2" d="M34.04,16.54h-.01l-.13,.13v.02h0s.08,.08,.13,.11l.02,.02,.13-.15h-.01s-.1-.09-.14-.13Z"/><path class="cls-2" d="M34.46,16.87v-.03l-.12,.19h0c.06,.04,.11,.08,.17,.1h0l.09-.17h0s-.1-.06-.15-.09Z"/><path class="cls-2" d="M31.77,11.81l-.2,.04,.04,.21,.2-.04v-.04l-.04-.15v-.02Z"/><path class="cls-2" d="M31.59,8.01c-.02,.06-.04,.12-.05,.18h0l.18,.06h.01c.02-.07,.04-.12,.05-.18h.01l-.19-.07h0Z"/><path class="cls-2" d="M31.63,8.77c0-.07,.02-.13,.03-.18h0l-.19-.04h0c-.01,.07-.02,.13-.03,.19h0l.2,.04h0Z"/><path class="cls-2" d="M31.58,9.31c0-.06,0-.11,.01-.18h-.01v-.02h-.19s0,.07,0,.11v.09h.2Z"/><path class="cls-2" d="M31.56,9.65h-.2v.2h.2v-.2Z"/><path class="cls-2" d="M31.68,12.39h.01c0,.06,.02,.1,.03,.15v.06l.21-.05v-.02c-.02-.06-.04-.11-.05-.17h0l-.2,.03Z"/><path class="cls-2" d="M31.71,11.48h-.01s0-.07,0-.1-.01-.06-.01-.09h0l-.2,.02h0s0,.07,0,.1c.01,.03,.01,.06,.02,.09h0l.2-.02Z"/><path class="cls-2" d="M31.63,10.94h0c-.01-.07-.01-.13-.02-.19h-.2v.02s.01,.09,.02,.14v.06l.2-.03Z"/><path class="cls-2" d="M31.58,10.4h0v-.1s0-.06,0-.09h-.2c0,.06,.01,.11,.01,.17v.04l.2-.02Z"/><path class="cls-2" d="M31.99,13.47c.02,.06,.04,.12,.06,.17h.01l.19-.05v-.02s-.05-.11-.07-.17h0l-.19,.06h0Z"/><path class="cls-2" d="M32.37,13.92v-.02l-.18,.07h-.01v.02s.05,.1,.07,.15v.03l.19-.08h0s-.02-.07-.03-.09c-.02-.03-.03-.06-.04-.08Z"/><path class="cls-2" d="M31.82,12.94s.02,.05,.03,.08c.01,.03,.02,.06,.03,.1h0l.19-.05h0s-.02-.08-.03-.12l-.03-.08-.19,.06h0Z"/><path class="cls-2" d="M40.58,24.9V12.86h-.2v12.03c0,.54-.28,1.03-.74,1.31-.46,.28-1.02,.3-1.51,.06l-2.26-1.16v-4.81l1.53,.9h0l.06,.04,.97-.56V7.86l-6.85-4.03-.05-.03-.97,.56v3.72l-1.89,1.18-2.97-1.77-.45-2.03-3.86-2.3v2.74l-2.26-1.35v3c-.07-.01-.15,0-.22,.03-.12,.06-.19,.19-.21,.35-.03,.31,.16,.67,.44,.81h0v.51c-.08-.01-.17,0-.24,.03-.12,.06-.19,.19-.21,.35-.03,.31,.16,.67,.44,.81h.01v.51c-.09-.01-.17-.01-.24,.03-.12,.06-.19,.19-.21,.35-.03,.31,.16,.67,.44,.81,0,0,.01,0,.02,0v2.64l-3.13,1.92h0c-.13,.05-.22,.17-.27,.35-.05,.17-.06,.38-.05,.6h-.01s-.09,.05-.12,.1c-.09,.16-.03,.45,0,.57,.05,.18,.15,.43,.3,.51,.04,.02,.08,.03,.11,.03,.02,0,.03,0,.04,0,.2,.4,.48,.7,.74,.7,.02,0,.05,0,.07,0h0l1.02-.11-.04,.16-1.08,3.92v.05l.8,1.02c-.5,.14-.94,.36-1.26,.67-.1,.1-.19,.21-.26,.32-.16,.25-.25,.52-.25,.79,0,1.11,1.34,2.04,2.99,2.08,.03,0,.07,0,.1,0,.56,0,1.08-.11,1.53-.3h0c-.52,.32-1.23,.52-2.02,.5-.92-.02-1.74-.33-2.27-.79-.12-.1-.22-.21-.31-.33,.16,1.01,1.42,1.83,2.96,1.86,.03,0,.07,0,.1,0,.96,0,1.85-.31,2.39-.84,.33-.33,.51-.71,.51-1.12v-.94c0-1.11-1.34-2.04-2.99-2.08-.36,0-.7,.04-1.02,.11l-.81-1.02,1.09-3.94,.04-.16,4.91-.52,.15-.02c.21-.06,.36-.23,.47-.46l9.8-.95v2.65l-.02,6.84c0,.07,.01,.15,.03,.21l-12.29-7.43-.69-.42-.33,.03,.61,.37,12.9,7.8c.06,.06,.12,.11,.19,.15,.13,.07,.26,.11,.4,.11,.15,0,.3-.04,.44-.13l.49-.31c.45-.28,.72-.76,.72-1.3v-.74l2.17,1.11c.25,.13,.52,.19,.79,.19,.31,0,.63-.09,.91-.26,.52-.32,.83-.87,.83-1.49Zm-21.9-.24s.06,0,.1,0c1.54,.04,2.8,.88,2.8,1.88,0,.35-.15,.69-.45,.97-.01,.01-.04,.02-.05,.04-.51,.46-1.31,.74-2.2,.74-.03,0-.06,0-.1,0-1.54-.04-2.8-.88-2.8-1.88,0-.35,.16-.69,.45-.97,.12-.12,.26-.22,.42-.31,.24-.15,.53-.25,.84-.33l.08,.1,1.19,1.49,.16-.12-1.1-1.38-.11-.13c.25-.05,.51-.08,.78-.08ZM31.91,7.76h0c.03-.08,.06-.12,.08-.17h.01l-.13-.08,.3-.19h.02s.08-.06,.11-.08h.02c.07-.06,.15-.1,.23-.12,.32-.08,.69,0,1.08,.22,.82,.48,1.9,1.81,2.48,4.08,.67,2.63,.3,5.38-.77,5.66-.05,.01-.1,.02-.15,.02h-.11c-.06-.01-.11-.02-.16-.03h0l-.02,.06-1.3,.13v-.88s.02,.02,.03,.03h.01l.15-.12h0s-.07-.09-.12-.14h0l-.06,.03v-1.19l-2.84-1.71v-5.1l1.01-.63s-.03,.06-.05,.1h0l.18,.1Zm-1.24,2.8h0Zm-.1-2.24v2.07l-1.7-1.01,1.7-1.06Zm-1.89,1.18l.85,.51,1.04,.62v2.55l-3.96-2.39,2-1.24,.08-.05Zm-7.08-5.98l3.48,2.07,.45,2.03,2.96,1.76-.1,.06-1.98,1.23-2.97-1.79-.45-2.03-.76-.46-.63-.37V3.52Zm-2.7,4.44c0-.09,.05-.16,.1-.19,.02-.01,.05-.02,.08-.02,.04,0,.09,.01,.14,.04,.2,.11,.36,.39,.33,.62h0c0,.09-.05,.16-.1,.19-.06,.03-.14,.02-.23-.02-.2-.11-.36-.39-.34-.62Zm0,1.71c0-.09,.05-.16,.1-.19,.02-.01,.05-.02,.08-.02,.04,0,.09,.01,.14,.04,.2,.11,.36,.39,.33,.62h0c0,.09-.05,.16-.1,.19-.06,.03-.14,.02-.23-.02-.2-.11-.36-.39-.34-.62Zm0,1.71c0-.09,.05-.16,.1-.19,.02-.01,.05-.02,.08-.02,.04,0,.09,.01,.15,.04,.2,.11,.36,.39,.33,.62,0,.09-.05,.16-.1,.19-.06,.03-.14,.02-.23-.02-.2-.11-.36-.39-.34-.62Zm.46,.86s.01,0,.02,0c.06,0,.12-.01,.18-.04,.12-.06,.19-.19,.21-.35h0c.03-.3-.15-.63-.41-.79v-.53s.02,0,.03,0c.06,0,.12-.01,.18-.04,.12-.06,.19-.19,.21-.35,.03-.3-.15-.64-.42-.8v-.52s.02,0,.03,0c.06,0,.12-.01,.18-.04,.12-.06,.19-.19,.21-.35,.03-.3-.16-.65-.42-.8v-2.71l3.47,2.07,.45,2.03,2.95,1.78-4.36,2.71c-.17-.06-.34-.08-.49-.04l-2,1.22v-2.46Zm-3.4,5.61l-.02-.02h.03l-.02,.02Zm-.2,.46c-.06-.25-.04-.4-.03-.42,.04,0,.16,.15,.22,.38,.07,.25,.04,.41,.02,.43h0s-.15-.16-.21-.39Zm1.03,1.09c-.14,.04-.38-.19-.57-.55l.29-.08h0s.08-.03,.12-.09c.1-.17,.03-.49,0-.58-.06-.23-.18-.43-.3-.5-.07-.04-.12-.04-.16-.03h0l-.27,.08c-.01-.39,.06-.67,.2-.71,.01,0,.02,0,.03,0,.21,0,.56,.47,.73,1.13,.19,.74,.12,1.29-.07,1.34Zm6.33-.7s-.03,.03-.05,.03l-6,.63c.14-.3,.1-.86-.03-1.36-.14-.53-.42-1.05-.72-1.22l4.77-2.92,.32-.2c.28-.08,.64,.11,.99,.53,.36,.42,.69,1.04,.88,1.7,.2,.67,.29,1.36,.25,1.88-.02,.3-.12,.78-.43,.93Zm.55-.45c.04-.14,.07-.29,.08-.46,.04-.56-.05-1.25-.26-1.96-.2-.68-.54-1.32-.92-1.77-.17-.2-.34-.34-.51-.44l4.34-2.7,7,4.22v2.17l-9.72,.94Zm11.53-.92h.02s.03,0,.05,0h.07s.03-.02,.05-.02c1.3-.34,1.56-3.4,.92-5.9-.51-1.98-1.47-3.56-2.57-4.21-.44-.26-.86-.34-1.23-.25-.1,.02-.19,.07-.28,.12h0l-.02-.02v.03h0l-1.43,.9v-3.37l6.6,3.88v12.47l-3.76-2.21v-1.26l1.61-.16Zm.45,8.76c0,.46-.23,.88-.63,1.13l-.49,.31c-.2,.12-.43,.13-.64,.02-.2-.11-.32-.32-.32-.55v-8.01l2.13,1.24h-.05v4.8l-.51-.26c0-.29-.18-.59-.43-.73-.14-.08-.3-.09-.42-.02-.12,.06-.19,.19-.21,.35-.03,.31,.16,.67,.44,.81,.08,.04,.16,.07,.24,.07,.06,0,.12-.01,.18-.04,.09-.05,.14-.13,.17-.23l.54,.28v.85Zm-.71-1.27h0c0,.09-.05,.16-.1,.19-.06,.03-.14,.02-.23-.02-.2-.11-.36-.39-.33-.62,0-.09,.05-.16,.1-.19,.02-.01,.05-.02,.08-.02,.04,0,.09,.01,.14,.04,.2,.11,.36,.39,.33,.62Z"/><polygon class="cls-2" points="35.03 9.61 32.32 8.01 32.27 8.09 32.22 8.18 34.93 9.79 35.03 9.61"/><polygon class="cls-2" points="43.18 13.47 43.23 13.38 40.53 11.78 40.43 11.95 43.13 13.56 43.18 13.47"/><polygon class="cls-2" points="34.1 10.39 34.05 10.47 35.87 11.56 35.98 11.39 34.15 10.3 34.1 10.39"/><polygon class="cls-2" points="33.34 9.94 33.39 9.85 32.32 9.22 32.27 9.3 32.22 9.39 33.29 10.02 33.34 9.94"/><polygon class="cls-2" points="32.97 12.27 32.92 12.36 35.87 14.11 35.98 13.94 33.02 12.19 32.97 12.27"/><polygon class="cls-2" points="34.69 14.69 35.87 15.39 35.98 15.22 34.8 14.52 34.69 14.69"/><polygon class="cls-2" points="34.02 14.06 32.32 13.05 32.27 13.13 32.22 13.22 33.92 14.23 34.02 14.06"/><polygon class="cls-2" points="35.21 12.33 35.26 12.24 32.32 10.49 32.27 10.58 32.22 10.67 35.16 12.41 35.21 12.33"/><polygon class="cls-2" points="41.36 13.53 41.3 13.62 43.76 15.08 43.86 14.9 41.41 13.44 41.36 13.53"/><polygon class="cls-2" points="41.36 16.08 41.3 16.17 43.65 17.56 43.7 17.48 43.76 17.39 41.41 16 41.36 16.08"/><polygon class="cls-2" points="41.3 14.89 43.68 16.3 43.78 16.13 41.41 14.72 41.3 14.89"/></g><path class="cls-1" d="M41.36,7c.38,0,.68-.31,.68-.68s-.31-.68-.68-.68-.68,.31-.68,.68,.31,.68,.68,.68Z"/><circle class="cls-1" cx="14.08" cy="8.53" r=".33"/><path class="cls-1" d="M27.88,26.77c-.52,0-.94,.42-.94,.94s.42,.94,.94,.94,.94-.42,.94-.94-.42-.94-.94-.94Z"/></svg>