<?xml version="1.0" encoding="UTF-8"?><svg xmlns="http://www.w3.org/2000/svg" viewBox="0 0 900 900"><defs><style>.c{fill:#fff;}.d{fill:#9be583;}.e,.f,.g{fill:none;stroke:#fff;stroke-width:2.5px;}.e,.g{stroke-miterlimit:10;}.f{stroke-linejoin:bevel;}.g{stroke-dasharray:0 0 5 10;}</style></defs><g id="a"/><g id="b"><polygon class="d" points="242.14 465.29 198.65 439.57 197.52 540.96 173.24 526.28 213.04 620.31 268.68 583.31 243.26 566.37 242.14 465.29"/><path class="f" d="M428.96,402.04v-87.5c0-43.76-7.53-87.2-22.25-128.41l-10.89-30.47c-3.48-9.73-17.26-9.68-20.66,.08l-10.99,31.51c-14.16,40.6-21.36,83.31-21.29,126.31l.22,87.92"/><path class="f" d="M343.09,471.91v3.55c0,7.35,5.96,13.3,13.3,13.3h59.26c7.07,0,12.85-5.52,13.28-12.48,.02-.27,.03-.55,.03-.82h0v-3.81"/><path class="f" d="M356.86,488.45v.49c0,4.97,4.03,9,9,9h40.09c4.97,0,9-4.03,9-9h0"/><path class="c" d="M356.86,488.45v.49c0,4.97,4.03,9,9,9h40.09c4.97,0,9-4.03,9-9h0l-58.09-.49Z"/><g><line class="f" x1="269.99" y1="480.54" x2="316.11" y2="453.43"/><polyline class="f" points="546.3 509.23 388.79 601.35 270.68 531.46"/><line class="f" x1="387.7" y1="675.92" x2="388.79" y2="601.35"/><polyline class="f" points="460.2 458.36 546.3 509.23 546.3 584.44 387.7 677.89 257.8 602.76"/></g><polyline class="f" points="531.79 593.53 514.3 642.01 428.41 654.59"/><polygon class="c" points="428.41 654.59 514.3 642.01 531.79 593.53 428.41 654.59"/><polygon class="f" points="570.2 689.45 443.64 707.98 395.45 680.84 528.85 664.3 559.51 588.85 597.9 612.68 570.2 689.45"/><polygon class="f" points="644.18 732.93 517.62 751.46 469.43 724.33 602.83 707.78 633.49 632.33 671.88 656.16 644.18 732.93"/><polygon class="c" points="570.2 689.45 443.64 707.98 395.45 680.84 528.85 664.3 559.51 588.85 597.9 612.68 570.2 689.45"/><polygon class="c" points="644.18 732.93 517.62 751.46 469.43 724.33 602.83 707.78 633.49 632.33 671.88 656.16 644.18 732.93"/><g><g><polyline class="f" points="277.9 587.83 251.36 571.08 251.36 470.47 207.69 444.4"/><line class="f" x1="250.89" y1="470.28" x2="270.09" y2="458.51"/><polyline class="f" points="182.28 530.8 207.69 546.04 207.69 444.4 227.88 432.4 270.65 457.38 270.65 558.47 298.04 575.27 222.08 624.83 182.28 530.8 201.1 519.17 207.97 523.17"/></g><line class="f" x1="252.58" y1="570.23" x2="271.22" y2="558.89"/></g><path class="f" d="M347.64,252.43s34.32,41.22,75.54,0"/><path class="f" d="M348.74,242.8s33.32,40.03,73.35,0"/><path class="c" d="M407.27,186.13l-10.89-30.47c-3.48-9.73-17.26-9.68-20.66,.08l-10.99,31.51c-6.34,18.18-11.27,36.77-14.79,55.63,1.63,1.9,34.03,38.64,72.85,.33-3.68-19.37-8.85-38.46-15.51-57.09Z"/><path class="f" d="M348.17,463.35c14.55,10.99,42.65,24.28,75.22-1.12"/><path class="f" d="M348.17,452.88c14.55,10.99,42.65,24.28,75.22-1.12"/><line class="f" x1="182.42" y1="601.81" x2="290.42" y2="666.61"/><circle class="f" cx="384.44" cy="325.81" r="23.72"/><path class="f" d="M407.31,319.6c0,12.18-10.25,22.06-22.89,22.06s-22.89-9.88-22.89-22.06"/><g><polygon class="f" points="675.34 500.42 695 512.16 695 454.54 580.7 386.21 560.88 374.43 560.88 432.05 619.69 467.18 675.34 500.42"/><line class="f" x1="695.15" y1="455.7" x2="711.94" y2="445.51"/><polyline class="f" points="695 512.16 711.94 503.12 711.94 445.51 597.65 377.18 577.82 365.4 560.88 374.43"/></g><g><path class="f" d="M312.04,522.89v-48.34c0-13.08,3.47-25.92,10.07-37.22l26.32-45.08"/><path class="f" d="M306.16,518.97v-47.87c0-13.21,3.54-26.18,10.26-37.55l26.42-44.72,6.12,3.97-.51,71.36-35.98,58.73-6.31-3.92Z"/></g><g><path class="f" d="M459.89,522.89v-48.34c0-13.08-3.47-25.92-10.07-37.22l-26.32-45.08"/><path class="f" d="M465.76,518.97v-47.87c0-13.21-3.54-26.18-10.26-37.55l-26.42-44.72-6.12,3.97,.51,71.36,35.98,58.73,6.31-3.92Z"/></g><polyline class="e" points="648.43 483.36 648.43 515.42 454.46 400.16 454.46 221.08 648.43 336.34 648.43 406.56"/><line class="e" x1="454.46" y1="241.41" x2="648.43" y2="356.66"/><line class="f" x1="384.44" y1="270.47" x2="384.44" y2="302.09"/><line class="f" x1="384.44" y1="349.52" x2="384.44" y2="466.42"/><g><line class="e" x1="512.92" y1="333.34" x2="554.78" y2="357.41"/><line class="e" x1="467.74" y1="281.96" x2="479.88" y2="289.1"/><line class="e" x1="467.74" y1="296.07" x2="479.88" y2="303.22"/><line class="e" x1="467.74" y1="308.63" x2="479.88" y2="315.77"/><line class="e" x1="467.74" y1="361.58" x2="479.88" y2="368.72"/><line class="e" x1="467.74" y1="375.7" x2="479.88" y2="382.84"/><line class="e" x1="467.74" y1="388.25" x2="479.88" y2="395.4"/><line class="e" x1="512.92" y1="306.32" x2="620.21" y2="368.72"/><line class="e" x1="515.18" y1="361.38" x2="560.34" y2="388.02"/><line class="e" x1="512.92" y1="387.64" x2="541.66" y2="403.89"/><line class="e" x1="492.86" y1="264.95" x2="492.86" y2="424.07"/></g><polyline class="e" points="397.52 636.76 397.52 661.24 489.01 608.72"/><line class="e" x1="378.79" y1="606.18" x2="378.79" y2="662.09"/><line class="e" x1="570.52" y1="415.87" x2="635.55" y2="454"/><line class="e" x1="570.89" y1="398.93" x2="616.35" y2="425.38"/><polyline class="e" points="667.15 458.85 650.98 448.79 650.98 474.71 674.61 489.01 674.61 471.28"/><polyline class="e" points="682.6 477.32 682.6 459.1 668.51 450.51"/><line class="e" x1="661.64" y1="468.04" x2="682.6" y2="459.1"/><polygon class="c" points="577.82 365.4 562.89 374.94 696.16 455.12 711.94 445.51 577.82 365.4"/><circle class="c" cx="726.97" cy="373.08" r="14.36"/><circle class="c" cx="702.42" cy="343.85" r="7.39"/><circle class="c" cx="236.81" cy="288.37" r="14.36"/><circle class="c" cx="212.25" cy="259.14" r="7.39"/><circle class="c" cx="423.16" cy="746.91" r="14.36"/><circle class="c" cx="178.37" cy="424.03" r="7.39"/><circle class="c" cx="462.98" cy="182.34" r="7.39"/><polygon class="c" points="422.96 392.8 429.08 388.83 461.62 444.68 464.44 457.38 465.76 518.97 459.46 522.89 460.21 468.4 458.23 457.67 452.02 440.44 422.96 392.8"/><polygon class="c" points="348.4 392.8 342.28 388.83 309.74 444.68 306.92 457.38 305.6 518.97 311.9 522.89 311.16 468.4 313.13 457.67 319.34 440.44 348.4 392.8"/><polyline class="e" points="324.58 547.17 388.96 585.29 518.28 509.34"/><line class="g" x1="816.95" y1="607.47" x2="727.73" y2="661.12"/><g><line class="e" x1="599.08" y1="577.79" x2="687.64" y2="631.19"/><line class="g" x1="575.37" y1="512.28" x2="730.55" y2="605.21"/><line class="e" x1="626.65" y1="613.12" x2="736.76" y2="549.31"/></g><g><line class="e" x1="294.75" y1="414.47" x2="187.45" y2="348.96"/><line class="g" x1="274.12" y1="348.47" x2="230.37" y2="374.94"/></g><g><line class="g" x1="231.04" y1="727" x2="319.6" y2="780.39"/><line class="g" x1="207.33" y1="661.49" x2="362.51" y2="754.42"/><line class="e" x1="258.61" y1="762.32" x2="368.72" y2="698.51"/></g><polygon class="c" points="208.25 522.89 201.48 519.5 182.28 530.8 206.56 545.48 208.25 522.89"/><polygon class="c" points="207.69 446.09 229.15 432.54 270.93 456.25 251.17 469.81 207.69 446.09"/><polygon class="c" points="252.3 570.89 270.93 559.03 297.48 574.84 277.71 587.83 252.3 570.89"/></g></svg>