<svg xmlns="http://www.w3.org/2000/svg" viewBox="0 0 900 900"><defs><style>.c{fill:#fff}.e,.f,.g{fill:none;stroke:#fff;stroke-width:2.5px}.e,.g{stroke-miterlimit:10}.f{stroke-linejoin:bevel}.g{stroke-dasharray:0 0 5 10}</style></defs><g id="b"><path d="m242.14 465.29-43.49-25.72-1.13 101.39-24.28-14.68 39.8 94.03 55.64-37-25.42-16.94-1.12-101.08z" style="fill:#9be583"/><path d="M428.96 402.04v-87.5c0-43.76-7.53-87.2-22.25-128.41l-10.89-30.47c-3.48-9.73-17.26-9.68-20.66.08l-10.99 31.51a381.694 381.694 0 0 0-21.29 126.31l.22 87.92M343.09 471.91v3.55c0 7.35 5.96 13.3 13.3 13.3h59.26c7.07 0 12.85-5.52 13.28-12.48.02-.27.03-.55.03-.82v-3.81" class="f"/><path d="M356.86 488.45v.49a9 9 0 0 0 9 9h40.09a9 9 0 0 0 9-9" class="f"/><path d="M356.86 488.45v.49a9 9 0 0 0 9 9h40.09a9 9 0 0 0 9-9l-58.09-.49Z" class="c"/><path d="m269.99 480.54 46.12-27.11M546.3 509.23l-157.51 92.12-118.11-69.89M387.7 675.92l1.09-74.57" class="f"/><path d="m460.2 458.36 86.1 50.87v75.21l-158.6 93.45-129.9-75.13M531.79 593.53l-17.49 48.48-85.89 12.58" class="f"/><path d="m428.41 654.59 85.89-12.58 17.49-48.48-103.38 61.06z" class="c"/><path d="m570.2 689.45-126.56 18.53-48.19-27.14 133.4-16.54 30.66-75.45 38.39 23.83-27.7 76.77z" class="f"/><path d="m644.18 732.93-126.56 18.53-48.19-27.13 133.4-16.55 30.66-75.45 38.39 23.83-27.7 76.77z" class="f"/><path d="m570.2 689.45-126.56 18.53-48.19-27.14 133.4-16.54 30.66-75.45 38.39 23.83-27.7 76.77z" class="c"/><path d="m644.18 732.93-126.56 18.53-48.19-27.13 133.4-16.55 30.66-75.45 38.39 23.83-27.7 76.77z" class="c"/><path d="m277.9 587.83-26.54-16.75V470.47l-43.67-26.07M250.89 470.28l19.2-11.77" class="f"/><path d="m182.28 530.8 25.41 15.24V444.4l20.19-12 42.77 24.98v101.09l27.39 16.8-75.96 49.56-39.8-94.03 18.82-11.63 6.87 4M252.58 570.23l18.64-11.34M347.64 252.43s34.32 41.22 75.54 0" class="f"/><path d="M348.74 242.8s33.32 40.03 73.35 0" class="f"/><path d="m407.27 186.13-10.89-30.47c-3.48-9.73-17.26-9.68-20.66.08l-10.99 31.51a381.393 381.393 0 0 0-14.79 55.63c1.63 1.9 34.03 38.64 72.85.33a380.607 380.607 0 0 0-15.51-57.09Z" class="c"/><path d="M348.17 463.35c14.55 10.99 42.65 24.28 75.22-1.12" class="f"/><path d="M348.17 452.88c14.55 10.99 42.65 24.28 75.22-1.12M182.42 601.81l108 64.8" class="f"/><circle cx="384.44" cy="325.81" r="23.72" class="f"/><path d="M407.31 319.6c0 12.18-10.25 22.06-22.89 22.06s-22.89-9.88-22.89-22.06M675.34 500.42 695 512.16v-57.62l-114.3-68.33-19.82-11.78v57.62l58.81 35.13 55.65 33.24zM695.15 455.7l16.79-10.19" class="f"/><path d="m695 512.16 16.94-9.04v-57.61l-114.29-68.33-19.83-11.78-16.94 9.03M312.04 522.89v-48.34c0-13.08 3.47-25.92 10.07-37.22l26.32-45.08" class="f"/><path d="M306.16 518.97V471.1a73.8 73.8 0 0 1 10.26-37.55l26.42-44.72 6.12 3.97-.51 71.36-35.98 58.73-6.31-3.92ZM459.89 522.89v-48.34c0-13.08-3.47-25.92-10.07-37.22l-26.32-45.08" class="f"/><path d="M465.76 518.97V471.1a73.8 73.8 0 0 0-10.26-37.55l-26.42-44.72-6.12 3.97.51 71.36 35.98 58.73 6.31-3.92Z" class="f"/><path d="M648.43 483.36v32.06L454.46 400.16V221.08l193.97 115.26v70.22M454.46 241.41l193.97 115.25" class="e"/><path d="M384.44 270.47v31.62M384.44 349.52v116.9" class="f"/><path d="m512.92 333.34 41.86 24.07M467.74 281.96l12.14 7.14M467.74 296.07l12.14 7.15M467.74 308.63l12.14 7.14M467.74 361.58l12.14 7.14M467.74 375.7l12.14 7.14M467.74 388.25l12.14 7.15M512.92 306.32l107.29 62.4M515.18 361.38l45.16 26.64M512.92 387.64l28.74 16.25M492.86 264.95v159.12M397.52 636.76v24.48l91.49-52.52M378.79 606.18v55.91M570.52 415.87 635.55 454M570.89 398.93l45.46 26.45M667.15 458.85l-16.17-10.06v25.92l23.63 14.3v-17.73M682.6 477.32V459.1l-14.09-8.59M661.64 468.04l20.96-8.94" class="e"/><path d="m577.82 365.4-14.93 9.54 133.27 80.18 15.78-9.61-134.12-80.11z" class="c"/><circle cx="726.97" cy="373.08" r="14.36" class="c"/><circle cx="702.42" cy="343.85" r="7.39" class="c"/><circle cx="236.81" cy="288.37" r="14.36" class="c"/><circle cx="212.25" cy="259.14" r="7.39" class="c"/><circle cx="423.16" cy="746.91" r="14.36" class="c"/><circle cx="178.37" cy="424.03" r="7.39" class="c"/><circle cx="462.98" cy="182.34" r="7.39" class="c"/><path d="m422.96 392.8 6.12-3.97 32.54 55.85 2.82 12.7 1.32 61.59-6.3 3.92.75-54.49-1.98-10.73-6.21-17.23-29.06-47.64zM348.4 392.8l-6.12-3.97-32.54 55.85-2.82 12.7-1.32 61.59 6.3 3.92-.74-54.49 1.97-10.73 6.21-17.23 29.06-47.64z" class="c"/><path d="m324.58 547.17 64.38 38.12 129.32-75.95" class="e"/><path d="m816.95 607.47-89.22 53.65" class="g"/><path d="m599.08 577.79 88.56 53.4" class="e"/><path d="m575.37 512.28 155.18 92.93" class="g"/><path d="m626.65 613.12 110.11-63.81M294.75 414.47l-107.3-65.51" class="e"/><path d="m274.12 348.47-43.75 26.47M231.04 727l88.56 53.39M207.33 661.49l155.18 92.93" class="g"/><path d="m258.61 762.32 110.11-63.81" class="e"/><path d="m208.25 522.89-6.77-3.39-19.2 11.3 24.28 14.68 1.69-22.59zM207.69 446.09l21.46-13.55 41.78 23.71-19.76 13.56-43.48-23.72zM252.3 570.89l18.63-11.86 26.55 15.81-19.77 12.99-25.41-16.94z" class="c"/></g></svg>