<?xml version="1.0" encoding="UTF-8"?><svg id="Layer_1" xmlns="http://www.w3.org/2000/svg" viewBox="0 0 40 25"><defs><style>.cls-1{fill:#9be583;}.cls-2{fill:#303030;}</style></defs><path class="cls-1" d="M13.24,4.45c.28,0,.5-.22,.5-.5s-.22-.5-.5-.5-.5,.22-.5,.5,.22,.5,.5,.5Z"/><circle class="cls-1" cx="10.48" cy="9.87" r=".24"/><polygon class="cls-1" points="21.22 9.1 20.65 8.78 22.16 14.54 22.53 14.09 21.22 9.1"/><polygon class="cls-1" points="24.65 15.23 25.02 15.74 25.32 15.37 23.78 13.19 23.47 13.56 24.54 15.06 24.65 15.23"/><polygon class="cls-1" points="25.63 15.01 23.85 12.5 24.93 11.19 21.51 9.26 22.72 13.87 23.24 13.23 23.33 13.36 23.79 12.8 25.48 15.18 25.63 15.01"/><g><path class="cls-2" d="M18.2,3.55c-.08,.04-.13,.13-.14,.23-.02,.18,.09,.39,.26,.48,.05,.03,.1,.04,.15,.04,.04,0,.08,0,.12-.03,.08-.04,.13-.13,.14-.23,.02-.18-.09-.39-.26-.48-.09-.05-.19-.05-.27-.01Z"/><path class="cls-2" d="M19.07,4.05c-.08,.04-.13,.13-.14,.23-.02,.18,.09,.39,.26,.48,.05,.03,.1,.04,.15,.04,.04,0,.08,0,.12-.03,.08-.04,.13-.13,.14-.23h0c.02-.18-.1-.39-.26-.48-.09-.05-.19-.05-.27-.01Z"/><path class="cls-2" d="M19.92,4.55c-.08,.04-.13,.13-.14,.23-.02,.18,.09,.39,.26,.48,.05,.03,.1,.04,.15,.04,.04,0,.08,0,.12-.03,.08-.04,.13-.13,.14-.23,.02-.18-.1-.39-.26-.48-.09-.05-.19-.05-.27-.01Z"/><polygon class="cls-2" points="25.28 20.4 25.4 20.61 25.57 20.51 25.46 20.3 25.28 20.4"/><polygon class="cls-2" points="28.95 18.29 29.07 18.5 29.25 18.4 29.13 18.19 28.95 18.29"/><polygon class="cls-2" points="29.87 17.76 29.99 17.97 30.17 17.87 30.05 17.66 29.87 17.76"/><polygon class="cls-2" points="30.51 17.4 30.33 17.5 30.45 17.71 30.63 17.6 30.51 17.4"/><polygon class="cls-2" points="29.41 18.02 29.53 18.23 29.71 18.13 29.59 17.92 29.41 18.02"/><polygon class="cls-2" points="24.36 20.93 24.48 21.14 24.66 21.03 24.54 20.82 24.36 20.93"/><polygon class="cls-2" points="25.74 20.14 25.85 20.35 26.04 20.24 25.92 20.03 25.74 20.14"/><polygon class="cls-2" points="22.98 21.72 23.1 21.93 23.28 21.82 23.16 21.61 22.98 21.72"/><polygon class="cls-2" points="23.44 21.45 23.56 21.66 23.74 21.56 23.62 21.35 23.44 21.45"/><polygon class="cls-2" points="23.9 21.19 24.02 21.4 24.2 21.3 24.08 21.09 23.9 21.19"/><polygon class="cls-2" points="24.82 20.66 24.94 20.87 25.12 20.77 25 20.56 24.82 20.66"/><polygon class="cls-2" points="27.11 19.34 27.23 19.55 27.41 19.45 27.29 19.24 27.11 19.34"/><polygon class="cls-2" points="28.49 18.55 28.61 18.76 28.79 18.66 28.67 18.45 28.49 18.55"/><polygon class="cls-2" points="26.2 19.87 26.31 20.08 26.49 19.98 26.38 19.77 26.2 19.87"/><polygon class="cls-2" points="27.57 19.08 27.69 19.29 27.87 19.19 27.75 18.98 27.57 19.08"/><polygon class="cls-2" points="26.65 19.61 26.77 19.82 26.95 19.71 26.83 19.51 26.65 19.61"/><polygon class="cls-2" points="28.03 18.82 28.15 19.03 28.33 18.92 28.21 18.72 28.03 18.82"/><path class="cls-2" d="M28.67,17.42v-.92h0v-.07h0v-7.8l-1.66-.97v-1.5l-5.94-3.49v1.52l-3.66-2.14v3.3l.07,.04-.06,.1,.16,.09,.06-.1h0l.05-.1-.05-.03V2.48l3.42,2v2.94l.15,.09-.06,.1,.17,.09,.05-.1,.06-.11-.13-.08V3.09l5.46,3.21v6.94l-2.05-1.2,.92-1.12-.9-.51v-.14h-.22v.02l-3.53-1.99,.21,.8,1.31,4.99,.12,.46,.82-1,.31-.37,1.55,2.18,.23,.33,.51-.62,2.25,1.34-8.22,4.51-10.62-6.5,4.53-2.48v1.21l5.21,3.07v-2.27l.04-.08,.05-.1-.1-.05v-3.13l-2.44-1.44v-.13h-.23l-2.54-1.49v4.16l-4.8,2.63-.06,.06v.14h.01v.97l10.88,6.58,.06,.04,8.51-4.63,.06-.03ZM14.24,7.94l4.73,2.78v5.08l-4.73-2.78V7.94Zm10.4,4.24h-.03l.03-.04v.04Zm.93,3.13l-.09-.12-1.69-2.38-.46,.56-.57,.68-.05-.18-1.21-4.6-.13-.48,3.91,2.2-1.05,1.27,1.78,2.51-.45,.54Zm.65-.41l.1-.12-1.68-2.37-.02-.03h.14v-.04l2.26,1.33V7.94l1.42,.83v7.45l-2.22-1.32Z"/><polygon class="cls-2" points="18.33 5.86 18.27 5.97 18.44 6.06 18.5 5.95 18.55 5.85 18.39 5.76 18.33 5.86"/><polygon class="cls-2" points="19.73 14 19.56 13.91 19.51 14.01 19.45 14.12 19.61 14.21 19.67 14.11 19.73 14"/><polygon class="cls-2" points="18.74 6.09 18.69 6.2 18.85 6.29 18.91 6.19 18.97 6.08 18.8 5.99 18.74 6.09"/><polygon class="cls-2" points="19.16 6.33 19.1 6.43 19.27 6.53 19.33 6.42 19.39 6.32 19.22 6.23 19.16 6.33"/><polygon class="cls-2" points="20.99 7.36 21.05 7.25 20.88 7.16 20.83 7.26 20.77 7.37 20.93 7.46 20.99 7.36"/><polygon class="cls-2" points="20.41 7.03 20.35 7.13 20.51 7.23 20.57 7.12 20.63 7.02 20.47 6.92 20.41 7.03"/><polygon class="cls-2" points="20.16 6.89 20.22 6.78 20.05 6.69 19.99 6.8 19.94 6.9 20.1 6.99 20.16 6.89"/><polygon class="cls-2" points="19.58 6.56 19.52 6.67 19.68 6.76 19.74 6.65 19.8 6.55 19.64 6.46 19.58 6.56"/><polygon class="cls-2" points="19.86 14.35 20.03 14.44 20.08 14.34 20.14 14.23 19.98 14.14 19.92 14.25 19.86 14.35"/><polygon class="cls-2" points="17.91 5.63 17.86 5.73 18.02 5.83 18.08 5.72 18.14 5.62 17.97 5.52 17.91 5.63"/><polygon class="cls-2" points="23.05 15.87 22.89 15.78 22.83 15.88 22.77 15.99 22.94 16.08 22.99 15.98 23.05 15.87"/><polygon class="cls-2" points="22.64 15.64 22.47 15.54 22.41 15.65 22.36 15.75 22.52 15.85 22.58 15.74 22.64 15.64"/><polygon class="cls-2" points="23.89 16.34 23.72 16.25 23.66 16.35 23.6 16.45 23.77 16.55 23.83 16.44 23.89 16.34"/><polygon class="cls-2" points="24.3 16.57 24.14 16.48 24.08 16.58 24.02 16.69 24.18 16.78 24.24 16.67 24.3 16.57"/><polygon class="cls-2" points="21.33 15.04 21.39 14.94 21.23 14.84 21.17 14.95 21.11 15.05 21.27 15.15 21.33 15.04"/><polygon class="cls-2" points="21.81 15.17 21.64 15.08 21.58 15.18 21.52 15.29 21.69 15.38 21.75 15.28 21.81 15.17"/><polygon class="cls-2" points="22 15.42 21.94 15.52 22.11 15.61 22.16 15.51 22.22 15.4 22.06 15.31 22 15.42"/><polygon class="cls-2" points="24.65 15.23 24.54 15.06 24.52 15.22 24.65 15.22 24.65 15.23"/><polygon class="cls-2" points="24.65 15.7 24.76 15.71 24.76 15.53 24.65 15.52 24.54 15.52 24.52 15.69 24.65 15.7"/><polygon class="cls-2" points="24.44 16.92 24.6 17.02 24.72 16.81 24.65 16.77 24.55 16.71 24.49 16.82 24.44 16.92"/><polygon class="cls-2" points="24.65 16.18 24.76 16.18 24.76 16.01 24.65 16 24.54 16 24.52 16.17 24.65 16.18"/><polygon class="cls-2" points="24.65 16.66 24.76 16.66 24.76 16.49 24.65 16.48 24.54 16.47 24.52 16.65 24.65 16.66"/><polygon class="cls-2" points="23.47 16.1 23.3 16.01 23.24 16.12 23.19 16.22 23.35 16.31 23.41 16.21 23.47 16.1"/><polygon class="cls-2" points="20.5 14.57 20.56 14.47 20.4 14.38 20.34 14.48 20.28 14.59 20.44 14.68 20.5 14.57"/><polygon class="cls-2" points="20.69 14.82 20.86 14.91 20.92 14.81 20.98 14.7 20.81 14.61 20.75 14.71 20.69 14.82"/><polygon class="cls-2" points="24.37 9.12 24.21 9.03 24.15 9.13 24.09 9.24 24.26 9.33 24.31 9.23 24.37 9.12"/><polygon class="cls-2" points="24.54 9.8 24.52 9.99 24.65 9.99 24.76 9.99 24.76 9.8 24.65 9.8 24.54 9.8"/><polygon class="cls-2" points="21.88 7.72 21.71 7.63 21.66 7.73 21.6 7.84 21.76 7.93 21.82 7.82 21.88 7.72"/><polygon class="cls-2" points="23.12 8.42 22.96 8.33 22.9 8.43 22.84 8.54 23.01 8.63 23.07 8.52 23.12 8.42"/><polygon class="cls-2" points="22.29 7.95 22.13 7.86 22.07 7.96 22.01 8.07 22.18 8.16 22.23 8.06 22.29 7.95"/><polygon class="cls-2" points="24.76 9.35 24.62 9.26 24.56 9.36 24.51 9.46 24.52 9.51 24.65 9.51 24.77 9.51 24.76 9.35"/><polygon class="cls-2" points="23.54 8.65 23.38 8.56 23.32 8.67 23.26 8.77 23.42 8.86 23.48 8.76 23.54 8.65"/><polygon class="cls-2" points="22.71 8.19 22.55 8.09 22.49 8.2 22.43 8.3 22.59 8.4 22.65 8.29 22.71 8.19"/><polygon class="cls-2" points="23.96 8.89 23.79 8.79 23.73 8.9 23.67 9 23.84 9.1 23.9 8.99 23.96 8.89"/><polygon class="cls-2" points="16.77 8.72 16.77 8.53 16.65 8.53 16.53 8.53 16.53 8.72 16.65 8.72 16.77 8.72"/><polygon class="cls-2" points="16.77 6.33 16.77 6.14 16.65 6.14 16.53 6.14 16.53 6.33 16.65 6.33 16.77 6.33"/><polygon class="cls-2" points="16.77 7.29 16.77 7.1 16.65 7.1 16.53 7.1 16.53 7.29 16.65 7.29 16.77 7.29"/><polygon class="cls-2" points="16.77 5.12 16.83 5.02 16.89 4.92 16.73 4.82 16.67 4.93 16.65 4.95 16.61 5.03 16.65 5.05 16.77 5.12"/><polygon class="cls-2" points="16.77 5.38 16.77 5.19 16.65 5.19 16.53 5.19 16.53 5.38 16.65 5.38 16.77 5.38"/><polygon class="cls-2" points="17.25 5.25 17.31 5.15 17.14 5.06 17.08 5.16 17.02 5.27 17.19 5.36 17.25 5.25"/><polygon class="cls-2" points="16.77 5.86 16.77 5.67 16.65 5.67 16.53 5.67 16.53 5.86 16.65 5.86 16.77 5.86"/><polygon class="cls-2" points="16.77 7.76 16.77 7.58 16.65 7.58 16.53 7.58 16.53 7.76 16.65 7.76 16.77 7.76"/><polygon class="cls-2" points="16.77 6.81 16.77 6.62 16.65 6.62 16.53 6.62 16.53 6.81 16.65 6.81 16.77 6.81"/><polygon class="cls-2" points="16.77 8.24 16.77 8.05 16.65 8.05 16.53 8.05 16.53 8.24 16.65 8.24 16.77 8.24"/><polygon class="cls-2" points="13.52 15.64 13.62 15.85 13.76 15.79 15.23 15.08 17.84 16.65 18.13 16.83 18.26 16.63 15.3 14.84 15.24 14.81 13.52 15.64"/><path class="cls-2" d="M19.88,17.74l1.05-.57-.99-.57-1.05,.57,.99,.58Zm.57-.58l-.56,.31-.5-.3,.56-.3,.5,.29Z"/><polygon class="cls-2" points="20.81 18.27 21 18.17 21.55 17.87 22.06 18.17 22.24 18.27 22.36 18.06 21.56 17.6 20.69 18.06 20.75 18.17 20.75 18.17 20.81 18.27"/><polygon class="cls-2" points="20.4 16.32 20.4 16.32 20.46 16.43 20.66 16.32 21.21 16.03 21.72 16.32 21.89 16.43 22.02 16.22 21.21 15.75 20.35 16.22 20.4 16.32"/><polygon class="cls-2" points="22.18 17.25 22.18 17.25 22.23 17.36 22.43 17.25 22.98 16.96 23.49 17.25 23.67 17.35 23.79 17.15 22.98 16.68 22.12 17.14 22.18 17.25"/></g><path class="cls-1" d="M29,6.13c-.24,0-.44,.2-.44,.44s.2,.44,.44,.44,.44-.2,.44-.44-.2-.44-.44-.44Z"/></svg>