<svg xmlns="http://www.w3.org/2000/svg" id="Layer_1" viewBox="0 0 40 25"><defs><style>.cls-1{fill:#9be583}.cls-2{fill:#303030}</style></defs><path d="M15.45 20.54c-.32 0-.66-.09-1-.28-1.21-.65-2.09-2.29-1.97-3.64.03-.3.11-.56.22-.79-.3.25-.51.65-.56 1.19-.1 1.11.5 2.41 1.4 3.17.11.06.22.13.34.19.35.17.69.31 1.01.43.38.02.72-.1.98-.34-.14.04-.28.07-.43.07Z" class="cls-1"/><path d="M14.48 15.8c-.48-.26-.94-.31-1.33-.2-.25.24-.4.6-.44 1.05-.12 1.27.71 2.8 1.84 3.41.54.29 1.06.33 1.46.11.06-.03.11-.08.16-.12.1-.21.18-.44.2-.72.12-1.31-.73-2.89-1.91-3.53ZM23.7 20.53c-.3 0-.54.24-.54.54s.24.54.54.54.54-.24.54-.54-.24-.54-.54-.54ZM16.95 12.97a.47.47 0 1 0-.001.939.47.47 0 0 0 .001-.939ZM30.03 8.58c-.14 0-.26.12-.26.26s.12.26.26.26.26-.12.26-.26-.12-.26-.26-.26Z" class="cls-1"/><path d="M28.09 8.49V6.14l-3.38-2.01v-.54l-1.54-.89v1.87c-1.31-.19-2.52.22-3.37 1.22l-2.18-1.28v4.32l-3.51 4.97c-2.04-.34-3.71.49-4.03.74-.39.23-.59.45-.61.48l-.03.04v.05s.54 3.62 4.35 5.49c1.45.71 2.67.94 3.64.94 1.61 0 2.52-.63 2.61-.7l.79-.49v-.08s-.09-.4-.32-.98l5.31-1.37s.07-.03.11-.04l2.47 1.46v-3.1c.17-.21.3-.44.43-.68v3.23h.24v-3.71h-.03c.06-.17.12-.35.16-.53v-.04c.42-1.92-.05-4.15-1.09-6.03ZM23.4 3.12l1.06.61v.54l3.38 2.01v1.8c-.68-1.1-1.57-2.06-2.6-2.71-.62-.39-1.24-.63-1.85-.76v-1.5Zm0 1.73c.56.12 1.14.36 1.72.72 1.11.7 2.04 1.77 2.73 2.99v1.88L23.4 7.82V4.84Zm-5.55.08 1.79 1.05s-.08.09-.12.14l-.04.06h-.01l-.03.06-1.59 2.26V4.94Zm0 3.98 1.12-1.59.1.03v.02c.16 0 .35.06.53.16l-.11 1.57.09-.03 1.04 1.29s-.04.05-.07.07c-.26.14-.61.09-.98-.12-.33-.19-.62-.5-.84-.84 0 .07 0 .14.01.21h-.14V9.88h.14v.03c.21.25.44.46.7.61.26.15.53.23.77.23.16 0 .31-.03.44-.1.29-.15.47-.47.5-.88.03-.42-.11-.9-.35-1.34v-.02c-.26-.44-.62-.83-1.03-1.06-.22-.13-.44-.21-.65-.23v.03h-.04l.19-.28.07.03c.02-.06.05-.11.07-.16l-.04-.03.18-.25h.02s.03-.06.05-.09c0-.02.02-.04.04-.06l.04-.07-.07-.05.07.05c.04-.06.09-.1.13-.15l1.79 1.06v5.79L19 11.4h.06v-.03s-.03-.09-.04-.13v-.05l-.24.05v.02l-.95-.54V8.9Zm2.94 1.3-.96-1.2.87-.27c.16.34.25.7.23 1.03a.85.85 0 0 1-.14.44Zm-1.04-1.43.08-1.1c.3.21.56.51.75.84l-.83.26Zm-6.59 6.83c.08-.08.17-.14.26-.2.17-.09.37-.14.58-.14.28 0 .58.08.89.25 1.13.61 1.96 2.14 1.84 3.41-.05.5-.24.88-.54 1.12-.05.04-.1.09-.16.12-.41.22-.93.18-1.46-.11-1.13-.61-1.96-2.14-1.84-3.41.04-.45.2-.81.44-1.05Zm3.81 3.34c.13-1.35-.76-2.99-1.97-3.64-.55-.3-1.09-.34-1.55-.16l.4-.56c.35.1.73.24 1.13.41 2.49 1.1 3.76 3.03 4.36 4.35l-2.83.73c.25-.28.41-.66.46-1.13Zm-2.08 1.87a9.24 9.24 0 0 1-1.01-.43c-.12-.06-.23-.12-.34-.19-3.13-1.72-3.78-4.63-3.86-5.07.22-.22 1.44-1.27 3.93-.62l-.74 1.05h.02c-.07.1-.13.18-.18.29-.12.23-.2.49-.22.79-.13 1.35.76 2.99 1.97 3.64.34.19.68.28 1 .28.15 0 .29-.03.43-.07h.03l3.53-.91c.23.54.35.96.39 1.12-.35.22-2.1 1.15-4.93.13Zm13.25-1.89-1.93-1.13c.75-.26 1.41-.7 1.93-1.27v2.4Zm0-2.77c-.55.68-1.32 1.2-2.2 1.47l-1.58-.93v-5.79l3.79 2.23v3.03Zm.81-1.69v.04c-.11.47-.31.91-.57 1.31V13l-4.27-2.51v6.35l1.51.89-.21.05-.02-.02h-.18v.07l-.32.08.02-.18h-.02s-.1 0-.16-.03h-.02l-.04.24h.07l-4.36 1.12c-.55-1.27-1.82-3.29-4.57-4.7-.5-.25-.98-.42-1.46-.52l3.25-4.61v1.61l1.45.86-.15.04c.02.07.03.12.05.17v.03l.23-.07v-.02s0-.03-.02-.05v-.04l2.71 1.6V7.02l-1.88-1.1c.81-.93 1.93-1.31 3.16-1.11v3.16l4.93 2.9V9.04c.85 1.73 1.23 3.71.86 5.44Z" class="cls-2"/><path d="m22.09 6.41-.19-.11-.12.21.19.11.12-.21zM21.28 6.22l.19.11.13-.21-.2-.11-.12.21zM22.54 11.79h-.22l-.02.22h.24v-.22zM20.79 5.93l.19.11.12-.21-.19-.11-.12.21zM22.3 6.86h.24v-.17l-.15-.1-.12.21.03.01v.05zM22.54 12.58v-.22h-.22l-.02.22h.24zM22.54 10.65h-.22l-.02.22h.24v-.22zM22.54 9.5h-.22l-.02.22h.24V9.5zM22.54 11.22h-.22l-.02.22h.24v-.22zM22.54 8.93h-.22l-.02.22h.24v-.22zM22.54 10.07h-.22l-.02.22h.24v-.22zM22.54 7.21h-.22l-.02.22h.24v-.22zM22.54 7.78h-.22l-.02.23h.24v-.23zM22.54 8.36h-.22l-.02.22h.24v-.22zM26.93 11.55l.06-.11h-.01l-.11.21.17.1.12-.21-.17-.1-.06.11zM26.42 11.25l.06-.1-.01-.01-.11.21.17.1.12-.2-.17-.1-.06.1zM25.85 11.06l.07-.11-.07.11.17.1.12-.21-.17-.11-.12.22zM25.35 10.76l.06-.11-.06.11.17.1.12-.21-.18-.1-.11.21zM25.13 3.93l3.39 2.01v1.97h.24V5.8l-3.39-2.01.01-.54-1.37-.79-.12.21 1.25.71-.01.55zM27.5 13.92l-2.38-1.39-.12.2 2.37 1.4.13-.21zM27.5 15.68l-2.38-1.39-.12.2 2.37 1.4.13-.21zM26.13 14.25l1.24.73.13-.2-1.25-.74-.12.21zM25.75 13.75l-.63-.37-.12.2.63.38.12-.21zM23.64 3.82l.44.23.11-.21-.44-.23-.11.21zM24.26 5.64h-.24v1.88l2.97 1.69.12-.21-2.85-1.62V5.64zM18.96 10.87v-.08c-.01-.03-.01-.06-.02-.09l-.24.03c.01.07.03.13.03.18v.02l.24-.04v-.02ZM18.71 8.14v.08c-.01.03-.01.06-.02.09l.23.05v-.09c0-.03 0-.06.02-.09l-.24-.06v.02ZM18.87 10.39l.02-.02c0-.06-.02-.11-.02-.17h-.24v.06s0 .09.02.14h.22ZM19.02 7.86c0-.06.03-.11.04-.17v-.02l-.23-.06v.02s-.02.06-.02.09c0 .02 0 .04-.02.06h-.12l.33.08h.02ZM18.83 9.37V9.17h-.24v.17h-.03l.03.02h.23ZM18.86 8.85c0-.06.01-.11.01-.17l-.23-.04c0 .06-.02.12-.02.19l.24.04v-.02ZM22.05 16.38l-.15.18s.09.08.14.11l.15-.17h-.01s-.09-.08-.14-.12ZM20.48 14.63s-.04-.07-.06-.11l-.04-.05-.2.12v.02s.05.06.07.09c0 .02.02.03.03.05v.02l.2-.13ZM20.21 14.19l-.09-.15-.21.11c.04.07.07.12.09.16v.02l.22-.13ZM20.79 15.04h-.02s-.05-.08-.07-.12l-.03-.03-.19.13.04.06s.04.07.07.1l.17-.12h.03v-.02ZM19.97 13.76c-.02-.06-.05-.11-.08-.16v-.02l-.22.11v.02s.03.05.05.07c0 .03.02.06.04.08l.22-.1ZM21.09 15.42s-.03-.04-.05-.06c-.02-.02-.03-.04-.05-.06h-.01l-.19.14c.04.05.07.09.11.13l-.02.02h.04l.16-.14h.02l.02-.03h-.04ZM19.59 12.82h-.07s-.03-.09-.05-.13v-.03l-.23.08v.03s.04.1.07.15l.28-.1ZM21.32 15.68l-.17.15c.04.06.08.1.11.14h.02l.16-.15v-.02l-.11-.12ZM19.34 12.34s0-.05-.02-.07c0-.03-.02-.06-.03-.08v-.02l-.23.08c.02.07.04.12.06.18h.02l.28-.09h-.08ZM19.73 13.29c-.02-.05-.05-.1-.07-.15h-.01l-.21.08v.02s.04.07.05.11l.03.06.22-.1v-.02ZM23.77 17.43l-.09.22c.06.03.11.05.17.06v.02l.09-.23s-.1-.05-.16-.07ZM23.31 17.22l-.11.21h.01s.05.03.07.04c.03 0 .06.03.09.04h.02l.1-.21-.04-.02s-.09-.04-.13-.06ZM24.26 17.84l.09.03h.02l.06-.23h-.02s-.05-.02-.08-.02c-.03-.01-.05-.02-.08-.03h-.02l-.06.23s.05.02.08.02ZM22.96 17.02s-.06-.03-.09-.04h-.01l-.13.19.04.02s.09.05.13.08h.01l.12-.2s-.04-.03-.06-.05ZM21.71 16.07l-.05-.04-.16.17s.08.09.13.13h.02l.14-.15v-.02s-.07-.06-.1-.09ZM22.54 16.76s-.06-.05-.09-.07h-.01l-.14.19s.04.03.06.05l.09.06.13-.18v-.04h-.06Z" class="cls-2"/></svg>