<?xml version="1.0" encoding="UTF-8"?><svg id="Layer_1" xmlns="http://www.w3.org/2000/svg" viewBox="0 0 40 25"><defs><style>.cls-1{fill:#9be583;}.cls-2{fill:#303030;}</style></defs><path class="cls-1" d="M21,5.38c.06-.19,.17-.33,.3-.44-.08,0-.15,.02-.22,.04-.26,.1-.44,.29-.53,.57l.76,.83c.05-.15,.14-.25,.25-.3l-.58-.63,.02-.07Z"/><path class="cls-1" d="M21.94,8.33c.01-.28,.07-.49,.19-.64,.11-.14,.3-.27,.55-.38,.12-.05,.21-.11,.27-.17,.04-.05,.07-.12,.07-.23,0-.14-.04-.29-.12-.44-.09-.15-.21-.28-.36-.37-.14-.08-.26-.11-.34-.07-.06,.03-.1,.07-.14,.13,.15,.1,.28,.22,.37,.38,.1,.17,.15,.34,.14,.5,0,.14-.04,.24-.1,.31-.06,.07-.17,.13-.31,.2-.24,.1-.41,.21-.51,.34-.1,.13-.15,.32-.16,.57v.26l.88,.52v-.13c0-.07,.02-.13,.03-.18l-.47-.28v-.33Z"/><path class="cls-1" d="M22.3,9.99c-.08-.15-.19-.27-.31-.36,0,.03-.02,.07-.02,.12,0,.16,.04,.34,.14,.52,.09,.16,.2,.28,.32,.36,0-.03,.01-.04,.02-.07,0-.19-.04-.38-.15-.58Z"/><path class="cls-1" d="M23.27,8.12c.11-.14,.16-.34,.17-.61,.01-.28-.04-.56-.16-.86-.12-.3-.28-.58-.5-.84-.22-.26-.47-.47-.75-.64-.14-.08-.27-.14-.39-.17-.17,.08-.31,.21-.39,.4l.59,.65c.06-.1,.14-.17,.24-.21,.16-.07,.35-.05,.56,.08,.19,.11,.34,.26,.45,.45,.11,.19,.16,.38,.16,.57,0,.16-.05,.29-.14,.38-.08,.08-.19,.15-.35,.22-.22,.09-.37,.19-.46,.31-.08,.11-.13,.28-.14,.5v.19l.31,.18c.06-.08,.17-.16,.32-.24,.2-.1,.36-.22,.46-.35Z"/><path class="cls-1" d="M21.9,10.39h0c-.12-.22-.18-.44-.17-.65,0-.1,.02-.17,.05-.23-.11-.04-.22-.05-.31,0-.12,.06-.18,.19-.19,.38,0,.19,.04,.38,.15,.58,.11,.2,.25,.35,.41,.44,.16,.1,.3,.11,.42,.04,.03-.02,.05-.05,.08-.08-.17-.11-.32-.26-.44-.48Z"/><g><path class="cls-2" d="M26.94,13.15c.42-.21,.7-.62,.7-1.11V7.7c0-.83-.44-1.62-1.16-2.05l-5.56-3.33c-.4-.24-.87-.22-1.26,0h0l-.65,.31h0s-.03,.01-.04,.02c-.4,.23-.63,.63-.63,1.09v2.25s-.04,0-.06,.01c-.03,.01-.06,.05-.08,.1l-.38-.18c-.42-.2-.9-.17-1.29,.08-.39,.25-.62,.67-.62,1.13v2.12c0,1.2,.65,2.31,1.68,2.9l6.82,3.89c.33,.19,.53,.53,.53,.91,0,.38-.19,.72-.52,.91l-.43,.25c-.9-.45-1.97-.44-2.85,.08l-2.36,1.38c-.47,.28-.77,.79-.77,1.34v.15h.12l-.06,.1,3.3,1.96,2.87-1.68c.38-.23,.63-.63,.64-1.07h0v-1.05h0c0-.45-.24-.86-.62-1.09l.29-.17c.4-.24,.64-.65,.64-1.12s-.25-.88-.65-1.11l-6.82-3.89c-.96-.55-1.56-1.58-1.56-2.69v-2.12c0-.38,.19-.73,.51-.93,.32-.2,.71-.23,1.06-.07l.48,.22s0,.06,.02,.09h0c.03,.05,.07,.09,.12,.12v1.49c0,.83,.44,1.62,1.16,2.05l3.22,1.93c.27,2.14,1.65,2.75,1.93,2.85h0l.04,.04h.05l.02-.04,.86-.42-.15-.12c-.29-.23-.48-.57-.58-1.01l.16,.09c.38,.23,.85,.24,1.24,.02h0l.65-.32h0Zm-3.19,5.11l-1.27,.75-1.1-.66c.74-.4,1.61-.42,2.37-.09Zm-5.48,2.65c0-.46,.25-.9,.65-1.13l2.21-1.3,3,1.79-1.97,1.15c-.5,.29-.81,.81-.87,1.37l-3.02-1.8v-.08Zm3.27,1.85c.07-.47,.34-.89,.75-1.13l1.95-1.14v.68s-.06,.05-.1,.07l-2.6,1.52Zm2.94-1.84v-.61c.07-.07,.14-.14,.19-.22v.28h0c0,.21-.08,.4-.19,.56Zm-.37-2.51l.04,.02c.32,.2,.52,.54,.52,.92,0,.29-.12,.56-.33,.76l-1.62-.96,1.31-.77s.05,.02,.08,.03Zm-5.59-11.98s-.06-.05-.08-.09c-.02-.04-.03-.08-.03-.12,.03,.02,.06,.05,.08,.09,.02,.04,.03,.08,.03,.12Zm6.67,6.81l-.62-.37-.68-.41h0v.2h0s-.02,.42,.07,.89c.01,.08,.03,.14,.05,.21,.05,.18,.1,.35,.19,.53,.02,.03,.02,.07,.04,.1-.48-.35-1.11-1.06-1.27-2.43v-.06l-3.33-1.99c-.64-.39-1.04-1.09-1.04-1.84v-1.41s.05,0,.06-.02c.04-.02,.11-.08,.12-.22,0-.08-.02-.16-.06-.24-.03-.05-.07-.09-.12-.12V3.74c0-.37,.19-.7,.51-.88,.16-.09,.33-.13,.5-.13s.36,.05,.52,.15l5.56,3.33c.64,.39,1.04,1.09,1.04,1.84v3.76c0,.46-.03,.75-.07,.93-.04,.12-.11,.22-.19,.32h-.06v.06c-.06,.06-.12,.11-.19,.15-.32,.18-.7,.18-1.02-.01Z"/><path class="cls-2" d="M23.45,5.6c-.22-.27-.49-.49-.78-.67-.41-.24-.76-.31-1.06-.2-.12,.04-.22,.12-.31,.2-.13,.12-.23,.26-.3,.44l-.02,.07,.58,.63,.37,.4,.07-.19s.04-.08,.06-.11c.04-.06,.08-.1,.14-.13,.08-.04,.2-.01,.34,.07,.15,.09,.27,.21,.36,.37,.09,.15,.13,.3,.12,.44,0,.1-.03,.18-.07,.23-.05,.06-.14,.11-.27,.17-.26,.11-.44,.24-.55,.38-.12,.15-.18,.36-.19,.64v.33l.46,.28,.66,.38v-.33c.02-.2,.06-.29,.09-.34,.05-.07,.14-.14,.29-.21,.21-.11,.38-.24,.5-.39,.12-.16,.19-.38,.2-.68,0-.29-.05-.6-.17-.91-.12-.31-.29-.6-.52-.87Zm.29,2.32c-.1,.12-.24,.23-.42,.32-.18,.09-.3,.18-.38,.29-.07,.09-.1,.22-.12,.39l-.35-.2-.31-.18v-.19c.02-.22,.06-.39,.14-.5,.09-.11,.24-.21,.46-.31,.16-.07,.27-.14,.35-.22,.08-.09,.13-.22,.14-.38,0-.18-.05-.37-.16-.57-.11-.19-.26-.34-.45-.45-.21-.13-.4-.15-.56-.08-.1,.05-.18,.12-.24,.21l-.59-.65c.08-.19,.21-.32,.39-.4,.02,0,.03-.02,.05-.03,.22-.08,.51-.02,.85,.18,.27,.16,.51,.37,.72,.61,.21,.25,.37,.52,.48,.81,.11,.28,.16,.56,.15,.82,0,.25-.06,.43-.15,.54Z"/><path class="cls-2" d="M22.53,9.32c-.2-.12-.38-.13-.54-.05-.07,.04-.15,.11-.2,.24-.03,.06-.05,.14-.05,.23,0,.21,.05,.42,.17,.64h0c.12,.21,.27,.37,.44,.48h.02c.11,.08,.22,.11,.32,.11,.08,0,.15-.02,.22-.06,.16-.09,.24-.25,.25-.48,0-.21-.05-.42-.17-.64-.12-.21-.27-.38-.45-.48Zm.25,1.4s-.12,.07-.3-.04c-.01,0-.03-.02-.04-.03-.12-.08-.23-.2-.32-.36-.1-.18-.15-.36-.14-.52,0-.05,0-.09,.02-.12,.03-.11,.09-.14,.11-.15,.03-.02,.12-.06,.31,.05,.14,.08,.26,.22,.36,.39,.1,.18,.14,.35,.14,.51,0,.21-.1,.27-.13,.28Z"/><polygon class="cls-2" points="29.18 14.81 28.99 14.7 28.87 14.9 29.06 15.01 29.18 14.81"/><polygon class="cls-2" points="29.81 15.46 30 15.57 30.12 15.37 29.94 15.26 29.81 15.46"/><polygon class="cls-2" points="30.88 15.82 30.76 16.03 30.94 16.14 31.07 15.93 30.88 15.82"/><polygon class="cls-2" points="28.23 14.24 28.05 14.13 27.93 14.34 28.11 14.45 28.23 14.24"/><polygon class="cls-2" points="30.29 15.74 30.47 15.85 30.6 15.65 30.41 15.54 30.29 15.74"/><polygon class="cls-2" points="28.71 14.52 28.52 14.41 28.4 14.62 28.58 14.73 28.71 14.52"/><polygon class="cls-2" points="18.06 17.86 12.83 14.74 12.96 14.67 12.84 14.46 12.65 14.57 12.72 14.68 11.79 14.12 11.66 14.33 12.36 14.74 12.18 14.84 12.3 15.05 12.48 14.94 12.36 14.75 17.94 18.07 18.06 17.86"/><polygon class="cls-2" points="29.57 15.04 29.47 14.98 29.35 15.17 26.44 16.88 26.56 17.08 30.62 14.7 30.5 14.49 29.57 15.04"/><polygon class="cls-2" points="15.33 13.28 15.21 13.07 15.02 13.18 15.15 13.39 15.33 13.28"/><polygon class="cls-2" points="11.23 15.4 11.36 15.61 11.54 15.5 11.41 15.3 11.23 15.4"/><polygon class="cls-2" points="14.86 13.56 14.73 13.35 14.55 13.46 14.67 13.66 14.86 13.56"/><polygon class="cls-2" points="11.71 15.12 11.83 15.33 12.01 15.22 11.89 15.02 11.71 15.12"/><polygon class="cls-2" points="13.91 14.11 13.79 13.9 13.6 14.01 13.72 14.22 13.91 14.11"/><polygon class="cls-2" points="14.38 13.83 14.26 13.63 14.08 13.73 14.2 13.94 14.38 13.83"/><polygon class="cls-2" points="13.43 14.39 13.31 14.18 13.13 14.29 13.25 14.5 13.43 14.39"/></g><path class="cls-1" d="M18.46,16.02c.29,0,.52-.23,.52-.52s-.23-.52-.52-.52-.52,.23-.52,.52,.23,.52,.52,.52Z"/><circle class="cls-1" cx="29.09" cy="10.78" r=".25"/></svg>