<svg xmlns="http://www.w3.org/2000/svg" id="Layer_1" viewBox="0 0 40 25"><defs><style>.cls-1{fill:#9be583}.cls-2{fill:#303030}</style></defs><path d="M13.24 4.45c.28 0 .5-.22.5-.5s-.22-.5-.5-.5-.5.22-.5.5.22.5.5.5Z" class="cls-1"/><circle cx="10.48" cy="9.87" r=".24" class="cls-1"/><path d="m21.22 9.1-.57-.32 1.51 5.76.37-.45-1.31-4.99zM24.65 15.23l.37.51.3-.37-1.54-2.18-.31.37 1.07 1.5.11.17z" class="cls-1"/><path d="m25.63 15.01-1.78-2.51 1.08-1.31-3.42-1.93 1.21 4.61.52-.64.09.13.46-.56 1.69 2.38.15-.17z" class="cls-1"/><path d="M18.2 3.55c-.08.04-.13.13-.14.23-.02.18.09.39.26.48.05.03.1.04.15.04.04 0 .08 0 .12-.03.08-.04.13-.13.14-.23a.512.512 0 0 0-.26-.48.288.288 0 0 0-.27-.01ZM19.07 4.05c-.08.04-.13.13-.14.23-.02.18.09.39.26.48.05.03.1.04.15.04.04 0 .08 0 .12-.03.08-.04.13-.13.14-.23.02-.18-.1-.39-.26-.48a.288.288 0 0 0-.27-.01ZM19.92 4.55c-.08.04-.13.13-.14.23-.02.18.09.39.26.48.05.03.1.04.15.04.04 0 .08 0 .12-.03.08-.04.13-.13.14-.23.02-.18-.1-.39-.26-.48a.288.288 0 0 0-.27-.01ZM25.28 20.4l.12.21.17-.1-.11-.21-.18.1zM28.95 18.29l.12.21.18-.1-.12-.21-.18.1zM29.87 17.76l.12.21.18-.1-.12-.21-.18.1zM30.51 17.4l-.18.1.12.21.18-.11-.12-.2zM29.41 18.02l.12.21.18-.1-.12-.21-.18.1zM24.36 20.93l.12.21.18-.11-.12-.21-.18.11zM25.74 20.14l.11.21.19-.11-.12-.21-.18.11zM22.98 21.72l.12.21.18-.11-.12-.21-.18.11zM23.44 21.45l.12.21.18-.1-.12-.21-.18.1zM23.9 21.19l.12.21.18-.1-.12-.21-.18.1zM24.82 20.66l.12.21.18-.1-.12-.21-.18.1zM27.11 19.34l.12.21.18-.1-.12-.21-.18.1zM28.49 18.55l.12.21.18-.1-.12-.21-.18.1zM26.2 19.87l.11.21.18-.1-.11-.21-.18.1zM27.57 19.08l.12.21.18-.1-.12-.21-.18.1zM26.65 19.61l.12.21.18-.11-.12-.2-.18.1zM28.03 18.82l.12.21.18-.11-.12-.2-.18.1z" class="cls-2"/><path d="M28.67 17.42V8.63l-1.66-.97v-1.5l-5.94-3.49v1.52l-3.66-2.14v3.3l.07.04-.06.1.16.09.06-.1.05-.1-.05-.03V2.48l3.42 2v2.94l.15.09-.06.1.17.09.05-.1.06-.11-.13-.08V3.09l5.46 3.21v6.94l-2.05-1.2.92-1.12-.9-.51v-.14h-.22v.02L20.98 8.3l.21.8 1.31 4.99.12.46.82-1 .31-.37 1.55 2.18.23.33.51-.62 2.25 1.34-8.22 4.51-10.62-6.5 4.53-2.48v1.21l5.21 3.07v-2.27l.04-.08.05-.1-.1-.05v-3.13l-2.44-1.44v-.13h-.23l-2.54-1.49v4.16l-4.8 2.63-.06.06v.14h.01v.97L20 22.07l.06.04 8.51-4.63.06-.03ZM14.24 7.94l4.73 2.78v5.08l-4.73-2.78V7.94Zm10.4 4.24h-.03l.03-.04v.04Zm.93 3.13-.09-.12-1.69-2.38-.46.56-.57.68-.05-.18-1.21-4.6-.13-.48 3.91 2.2-1.05 1.27 1.78 2.51-.45.54Zm.65-.41.1-.12-1.68-2.37-.02-.03h.14v-.04l2.26 1.33V7.94l1.42.83v7.45l-2.22-1.32Z" class="cls-2"/><path d="m18.33 5.86-.06.11.17.09.06-.11.05-.1-.16-.09-.06.1zM19.73 14l-.17-.09-.05.1-.06.11.16.09.06-.1.06-.11zM18.74 6.09l-.05.11.16.09.06-.1.06-.11-.17-.09-.06.1zM19.16 6.33l-.06.1.17.1.06-.11.06-.1-.17-.09-.06.1zM20.99 7.36l.06-.11-.17-.09-.05.1-.06.11.16.09.06-.1zM20.41 7.03l-.06.1.16.1.06-.11.06-.1-.16-.1-.06.11zM20.16 6.89l.06-.11-.17-.09-.06.11-.05.1.16.09.06-.1zM19.58 6.56l-.06.11.16.09.06-.11.06-.1-.16-.09-.06.1zM19.86 14.35l.17.09.05-.1.06-.11-.16-.09-.06.11-.06.1zM17.91 5.63l-.05.1.16.1.06-.11.06-.1-.17-.1-.06.11zM23.05 15.87l-.16-.09-.06.1-.06.11.17.09.05-.1.06-.11zM22.64 15.64l-.17-.1-.06.11-.05.1.16.1.06-.11.06-.1zM23.89 16.34l-.17-.09-.06.1-.06.1.17.1.06-.11.06-.1zM24.3 16.57l-.16-.09-.06.1-.06.11.16.09.06-.11.06-.1zM21.33 15.04l.06-.1-.16-.1-.06.11-.06.1.16.1.06-.11zM21.81 15.17l-.17-.09-.06.1-.06.11.17.09.06-.1.06-.11zM22 15.42l-.06.1.17.09.05-.1.06-.11-.16-.09-.06.11zM24.65 15.23l-.11-.17-.02.16h.13v.01zM24.65 15.7l.11.01v-.18l-.11-.01h-.11l-.02.17.13.01zM24.44 16.92l.16.1.12-.21-.07-.04-.1-.06-.06.11-.05.1zM24.65 16.18h.11v-.17l-.11-.01h-.11l-.02.17.13.01zM24.65 16.66h.11v-.17l-.11-.01-.11-.01-.02.18.13.01zM23.47 16.1l-.17-.09-.06.11-.05.1.16.09.06-.1.06-.11zM20.5 14.57l.06-.1-.16-.09-.06.1-.06.11.16.09.06-.11zM20.69 14.82l.17.09.06-.1.06-.11-.17-.09-.06.1-.06.11zM24.37 9.12l-.16-.09-.06.1-.06.11.17.09.05-.1.06-.11zM24.54 9.8l-.02.19h.24V9.8h-.22zM21.88 7.72l-.17-.09-.05.1-.06.11.16.09.06-.11.06-.1zM23.12 8.42l-.16-.09-.06.1-.06.11.17.09.06-.11.05-.1zM22.29 7.95l-.16-.09-.06.1-.06.11.17.09.05-.1.06-.11zM24.76 9.35l-.14-.09-.06.1-.05.1.01.05h.25l-.01-.16zM23.54 8.65l-.16-.09-.06.11-.06.1.16.09.06-.1.06-.11zM22.71 8.19l-.16-.1-.06.11-.06.1.16.1.06-.11.06-.1zM23.96 8.89l-.17-.1-.06.11-.06.1.17.1.06-.11.06-.1zM16.77 8.72v-.19h-.24v.19h.24zM16.77 6.33v-.19h-.24v.19h.24zM16.77 7.29V7.1h-.24v.19h.24zM16.77 5.12l.06-.1.06-.1-.16-.1-.06.11-.02.02-.04.08.04.02.12.07zM16.77 5.38v-.19h-.24v.19h.24zM17.25 5.25l.06-.1-.17-.09-.06.1-.06.11.17.09.06-.11zM16.77 5.86v-.19h-.24v.19h.24zM16.77 7.76v-.18h-.24v.18h.24zM16.77 6.81v-.19h-.24v.19h.24zM16.77 8.24v-.19h-.24v.19h.24zM13.52 15.64l.1.21.14-.06 1.47-.71 2.61 1.57.29.18.13-.2-2.96-1.79-.06-.03-1.72.83zM19.88 17.74l1.05-.57-.99-.57-1.05.57.99.58Zm.57-.58-.56.31-.5-.3.56-.3.5.29ZM20.81 18.27l.19-.1.55-.3.51.3.18.1.12-.21-.8-.46-.87.46.06.11.06.1zM20.4 16.32l.06.11.2-.11.55-.29.51.29.17.11.13-.21-.81-.47-.86.47.05.1zM22.18 17.25l.05.11.2-.11.55-.29.51.29.18.1.12-.2-.81-.47-.86.46.06.11z" class="cls-2"/><path d="M29 6.13c-.24 0-.44.2-.44.44s.2.44.44.44.44-.2.44-.44-.2-.44-.44-.44Z" class="cls-1"/></svg>