<?xml version="1.0" encoding="UTF-8"?><svg id="Layer_1" xmlns="http://www.w3.org/2000/svg" viewBox="0 0 40 25"><defs><style>.cls-1{fill:#9be583;}.cls-2{fill:#303030;}</style></defs><path class="cls-1" d="M15.45,20.54c-.32,0-.66-.09-1-.28-1.21-.65-2.09-2.29-1.97-3.64,.03-.3,.11-.56,.22-.79-.3,.25-.51,.65-.56,1.19-.1,1.11,.5,2.41,1.4,3.17,.11,.06,.22,.13,.34,.19,.35,.17,.69,.31,1.01,.43,.38,.02,.72-.1,.98-.34-.14,.04-.28,.07-.43,.07Z"/><path class="cls-1" d="M14.48,15.8c-.48-.26-.94-.31-1.33-.2-.25,.24-.4,.6-.44,1.05-.12,1.27,.71,2.8,1.84,3.41,.54,.29,1.06,.33,1.46,.11,.06-.03,.11-.08,.16-.12,.1-.21,.18-.44,.2-.72,.12-1.31-.73-2.89-1.91-3.53Z"/><path class="cls-1" d="M23.7,20.53c-.3,0-.54,.24-.54,.54s.24,.54,.54,.54,.54-.24,.54-.54-.24-.54-.54-.54Z"/><path class="cls-1" d="M16.95,12.97c-.26,0-.47,.21-.47,.47s.21,.47,.47,.47,.47-.21,.47-.47-.21-.47-.47-.47Z"/><path class="cls-1" d="M30.03,8.58c-.14,0-.26,.12-.26,.26s.12,.26,.26,.26,.26-.12,.26-.26-.12-.26-.26-.26Z"/><g><path class="cls-2" d="M28.09,8.49v-2.35l-3.38-2.01v-.54l-1.54-.89v1.87c-1.31-.19-2.52,.22-3.37,1.22l-2.18-1.28v4.32l-3.51,4.97c-2.04-.34-3.71,.49-4.03,.74-.39,.23-.59,.45-.61,.48l-.03,.04v.05s.54,3.62,4.35,5.49c1.45,.71,2.67,.94,3.64,.94,1.61,0,2.52-.63,2.61-.7l.79-.49v-.08s-.09-.4-.32-.98l5.31-1.37s.07-.03,.11-.04l2.47,1.46v-3.1c.17-.21,.3-.44,.43-.68v3.23h.24v-3.71h-.03c.06-.17,.12-.35,.16-.53v-.04c.42-1.92-.05-4.15-1.09-6.03Zm-4.69-5.37l1.06,.61v.54l3.38,2.01v1.8c-.68-1.1-1.57-2.06-2.6-2.71-.62-.39-1.24-.63-1.85-.76v-1.5Zm0,1.73c.56,.12,1.14,.36,1.72,.72,1.11,.7,2.04,1.77,2.73,2.99v1.88l-4.45-2.62v-2.98Zm-5.55,.08l1.79,1.05s-.08,.09-.12,.14h0l-.04,.06h-.01l-.03,.06-1.59,2.26v-3.56Zm0,3.98l1.12-1.59,.1,.03v.02c.16,0,.35,.06,.53,.16l-.11,1.57,.09-.03,1.04,1.29s-.04,.05-.07,.07c-.26,.14-.61,.09-.98-.12-.33-.19-.62-.5-.84-.84,0,.07,0,.14,.01,.21h-.14v.02c0,.06,0,.12,0,.18h.14v.03c.21,.25,.44,.46,.7,.61,.26,.15,.53,.23,.77,.23,.16,0,.31-.03,.44-.1,.29-.15,.47-.47,.5-.88,.03-.42-.11-.9-.35-1.34v-.02c-.26-.44-.62-.83-1.03-1.06-.22-.13-.44-.21-.65-.23,0,0,0,.02,0,.03h-.04l.19-.28,.07,.03h0c.02-.06,.05-.11,.07-.16h0l-.04-.03,.18-.25h.02s.03-.06,.05-.09c0-.02,.02-.04,.04-.06h0l.04-.07-.07-.05,.07,.05c.04-.06,.09-.1,.13-.15l1.79,1.06v5.79l-2.62-1.54h.06v-.03s-.03-.09-.04-.13v-.05l-.24,.05v.02h0l-.95-.54v-1.82Zm2.94,1.3l-.96-1.2,.87-.27c.16,.34,.25,.7,.23,1.03-.01,.18-.06,.32-.14,.44Zm-1.04-1.43l.08-1.1c.3,.21,.56,.51,.75,.84l-.83,.26Zm-6.59,6.83c.08-.08,.17-.14,.26-.2,.17-.09,.37-.14,.58-.14,.28,0,.58,.08,.89,.25,1.13,.61,1.96,2.14,1.84,3.41-.05,.5-.24,.88-.54,1.12-.05,.04-.1,.09-.16,.12-.41,.22-.93,.18-1.46-.11-1.13-.61-1.96-2.14-1.84-3.41,.04-.45,.2-.81,.44-1.05Zm3.81,3.34c.13-1.35-.76-2.99-1.97-3.64-.55-.3-1.09-.34-1.55-.16l.4-.56c.35,.1,.73,.24,1.13,.41,2.49,1.1,3.76,3.03,4.36,4.35l-2.83,.73c.25-.28,.41-.66,.46-1.13Zm-2.08,1.87c-.32-.12-.66-.25-1.01-.43-.12-.06-.23-.12-.34-.19-3.13-1.72-3.78-4.63-3.86-5.07,.22-.22,1.44-1.27,3.93-.62l-.74,1.05h.02c-.07,.1-.13,.18-.18,.29-.12,.23-.2,.49-.22,.79-.13,1.35,.76,2.99,1.97,3.64,.34,.19,.68,.28,1,.28,.15,0,.29-.03,.43-.07h.03l3.53-.91c.23,.54,.35,.96,.39,1.12-.35,.22-2.1,1.15-4.93,.13Zm13.25-1.89l-1.93-1.13c.75-.26,1.41-.7,1.93-1.27v2.4Zm0-2.77c-.55,.68-1.32,1.2-2.2,1.47l-1.58-.93v-5.79l3.79,2.23v3.03Zm.81-1.69v.04c-.11,.47-.31,.91-.57,1.31v-2.82l-4.27-2.51v6.35l1.51,.89-.21,.05-.02-.02h-.18v.07l-.32,.08,.02-.18h-.02s-.1,0-.16-.03h-.02l-.04,.24h.02s.03,0,.05,0l-4.36,1.12c-.55-1.27-1.82-3.29-4.57-4.7-.5-.25-.98-.42-1.46-.52l3.25-4.61v1.61l1.45,.86-.15,.04h0c.02,.07,.03,.12,.05,.17v.03l.23-.07v-.02s0-.03-.02-.05c0-.01,0-.03,0-.04l2.71,1.6V7.02l-1.88-1.1c.81-.93,1.93-1.31,3.16-1.11v3.16l4.93,2.9v-1.83c.85,1.73,1.23,3.71,.86,5.44Z"/><polygon class="cls-2" points="22.09 6.41 21.9 6.3 21.78 6.51 21.97 6.62 22.09 6.41"/><polygon class="cls-2" points="21.28 6.22 21.47 6.33 21.6 6.12 21.4 6.01 21.28 6.22"/><polygon class="cls-2" points="22.54 11.79 22.32 11.79 22.3 12.01 22.54 12.01 22.54 11.79"/><polygon class="cls-2" points="20.79 5.93 20.98 6.04 21.1 5.83 20.91 5.72 20.79 5.93"/><polygon class="cls-2" points="22.3 6.86 22.54 6.86 22.54 6.69 22.39 6.59 22.27 6.8 22.3 6.81 22.3 6.86"/><polygon class="cls-2" points="22.54 12.58 22.54 12.36 22.32 12.36 22.3 12.58 22.54 12.58"/><polygon class="cls-2" points="22.54 10.65 22.32 10.65 22.3 10.87 22.54 10.87 22.54 10.65"/><polygon class="cls-2" points="22.54 9.5 22.32 9.5 22.3 9.72 22.54 9.72 22.54 9.5"/><polygon class="cls-2" points="22.54 11.22 22.32 11.22 22.3 11.44 22.54 11.44 22.54 11.22"/><polygon class="cls-2" points="22.54 8.93 22.32 8.93 22.3 9.15 22.54 9.15 22.54 8.93"/><polygon class="cls-2" points="22.54 10.07 22.32 10.07 22.3 10.29 22.54 10.29 22.54 10.07"/><polygon class="cls-2" points="22.54 7.21 22.32 7.21 22.3 7.43 22.54 7.43 22.54 7.21"/><polygon class="cls-2" points="22.54 7.78 22.32 7.78 22.3 8.01 22.54 8.01 22.54 7.78"/><polygon class="cls-2" points="22.54 8.36 22.32 8.36 22.3 8.58 22.54 8.58 22.54 8.36"/><polygon class="cls-2" points="26.93 11.55 26.99 11.44 26.98 11.44 26.87 11.65 27.04 11.75 27.16 11.54 26.99 11.44 26.93 11.55"/><polygon class="cls-2" points="26.42 11.25 26.48 11.15 26.47 11.14 26.36 11.35 26.53 11.45 26.65 11.25 26.48 11.15 26.42 11.25"/><polygon class="cls-2" points="25.85 11.06 25.92 10.95 25.85 11.06 26.02 11.16 26.14 10.95 25.97 10.84 25.85 11.06"/><polygon class="cls-2" points="25.35 10.76 25.41 10.65 25.35 10.76 25.52 10.86 25.64 10.65 25.46 10.55 25.35 10.76"/><polygon class="cls-2" points="25.13 3.93 28.52 5.94 28.52 7.91 28.76 7.91 28.76 5.8 25.37 3.79 25.38 3.25 24.01 2.46 23.89 2.67 25.14 3.38 25.13 3.93"/><polygon class="cls-2" points="27.5 13.92 25.12 12.53 25 12.73 27.37 14.13 27.5 13.92"/><polygon class="cls-2" points="27.5 15.68 25.12 14.29 25 14.49 27.37 15.89 27.5 15.68"/><polygon class="cls-2" points="26.13 14.25 27.37 14.98 27.5 14.78 26.25 14.04 26.13 14.25"/><polygon class="cls-2" points="25.75 13.75 25.12 13.38 25 13.58 25.63 13.96 25.75 13.75"/><polygon class="cls-2" points="23.64 3.82 24.08 4.05 24.19 3.84 23.75 3.61 23.64 3.82"/><polygon class="cls-2" points="24.26 5.64 24.02 5.64 24.02 7.52 26.99 9.21 27.11 9 24.26 7.38 24.26 5.64"/><path class="cls-2" d="M18.96,10.87s0-.05,0-.08c-.01-.03-.01-.06-.02-.09h0l-.24,.03h0c.01,.07,.03,.13,.03,.18v.02l.24-.04v-.02Z"/><path class="cls-2" d="M18.71,8.14s0,.05,0,.08c-.01,.03-.01,.06-.02,.09h0l.23,.05h0s0-.06,0-.09c0-.03,0-.06,.02-.09h0l-.24-.06v.02Z"/><path class="cls-2" d="M18.87,10.39l.02-.02c0-.06-.02-.11-.02-.17h-.24v.06s0,.09,.02,.14h.22Z"/><path class="cls-2" d="M19.02,7.86h0c0-.06,.03-.11,.04-.17v-.02l-.23-.06v.02s-.02,.06-.02,.09c0,.02,0,.04-.02,.06h-.12l.33,.08h.02Z"/><path class="cls-2" d="M18.83,9.37h0c0-.07,0-.13,0-.18v-.02h-.24v.17h-.03l.03,.02h.23Z"/><path class="cls-2" d="M18.86,8.85c0-.06,.01-.11,.01-.17h0l-.23-.04h0c0,.06-.02,.12-.02,.19h0l.24,.04v-.02Z"/><path class="cls-2" d="M22.05,16.38h0l-.15,.18h0s.09,.08,.14,.11h0l.15-.17h-.01s-.09-.08-.14-.12Z"/><path class="cls-2" d="M20.48,14.63h0s-.04-.07-.06-.11l-.04-.05-.2,.12v.02s.05,.06,.07,.09c0,.02,.02,.03,.03,.05v.02l.2-.13h0Z"/><path class="cls-2" d="M20.21,14.19s-.06-.1-.09-.15h0l-.21,.11h0c.04,.07,.07,.12,.09,.16v.02l.22-.13h0Z"/><path class="cls-2" d="M20.79,15.04h-.02s-.05-.08-.07-.12l-.03-.03-.19,.13,.04,.06s.04,.07,.07,.1h0l.17-.12h.03v-.02Z"/><path class="cls-2" d="M19.97,13.76h0c-.02-.06-.05-.11-.08-.16v-.02l-.22,.11v.02s.03,.05,.05,.07c0,.03,.02,.06,.04,.08h0l.22-.1Z"/><path class="cls-2" d="M21.09,15.42s-.03-.04-.05-.06c-.02-.02-.03-.04-.05-.06h-.01l-.19,.14h0c.04,.05,.07,.09,.11,.13l-.02,.02h.04l.16-.14h.02l.02-.03h-.04Z"/><path class="cls-2" d="M19.59,12.82h-.07s-.03-.09-.05-.13v-.03l-.23,.08v.03s.04,.1,.07,.15h0l.28-.1Z"/><path class="cls-2" d="M21.32,15.68h0l-.17,.15h0c.04,.06,.08,.1,.11,.14h.02l.16-.15h0v-.02l-.11-.12Z"/><path class="cls-2" d="M19.34,12.34s0-.05-.02-.07c0-.03-.02-.06-.03-.08v-.02l-.23,.08h0c.02,.07,.04,.12,.06,.18h.02l.28-.09h-.08Z"/><path class="cls-2" d="M19.73,13.29c-.02-.05-.05-.1-.07-.15h-.01l-.21,.08v.02s.04,.07,.05,.11l.03,.06,.22-.1v-.02Z"/><path class="cls-2" d="M23.77,17.43h0l-.09,.22h0c.06,.03,.11,.05,.17,.06v.02l.09-.23h0s-.1-.05-.16-.07Z"/><path class="cls-2" d="M23.31,17.22h0l-.11,.21h.01s.05,.03,.07,.04c.03,0,.06,.03,.09,.04h.02l.1-.21-.04-.02s-.09-.04-.13-.06Z"/><path class="cls-2" d="M24.26,17.84s.06,.02,.09,.03h.02l.06-.23h-.02s-.05-.02-.08-.02c-.03-.01-.05-.02-.08-.03h-.02l-.06,.23h0s.05,.02,.08,.02Z"/><path class="cls-2" d="M22.96,17.02s-.06-.03-.09-.04h-.01l-.13,.19,.04,.02s.09,.05,.13,.08h.01l.12-.2h0s-.04-.03-.06-.05Z"/><path class="cls-2" d="M21.71,16.07l-.05-.04-.16,.17h0s.08,.09,.13,.13h.02l.14-.15h0v-.02s-.07-.06-.1-.09Z"/><path class="cls-2" d="M22.54,16.76s-.06-.05-.09-.07h-.01l-.14,.19h0s.04,.03,.06,.05c.03,.02,.06,.04,.09,.06h0l.13-.18v-.04h-.02s-.03,0-.04,0Z"/></g></svg>