<svg version="1.1" viewBox="0.0 0.0 1239.3517060367453 509.40682414698165" fill="none" stroke="none" stroke-linecap="square" stroke-miterlimit="10" xmlns:xlink="http://www.w3.org/1999/xlink" xmlns="http://www.w3.org/2000/svg"><clipPath id="p.0"><path d="m0 0l1239.3517 0l0 509.40683l-1239.3517 0l0 -509.40683z" clip-rule="nonzero"/></clipPath><g clip-path="url(#p.0)"><path fill="#000000" fill-opacity="0.0" d="m0 0l1239.3517 0l0 509.40683l-1239.3517 0z" fill-rule="evenodd"/><path fill="#cfe2f3" d="m341.19684 54.166656l556.958 0l0 399.45538l-556.958 0z" fill-rule="evenodd"/><path stroke="#000000" stroke-width="1.0" stroke-linejoin="round" stroke-linecap="butt" d="m341.19684 54.166656l556.958 0l0 399.45538l-556.958 0z" fill-rule="evenodd"/><path fill="#000000" d="m829.33484 440.54202l0 -13.359375l5.015625 0q1.53125 0 2.453125 0.40625q0.921875 0.40625 1.4375 1.25q0.53125 0.84375 0.53125 1.765625q0 0.859375 -0.46875 1.625q-0.453125 0.75 -1.390625 1.203125q1.203125 0.359375 1.859375 1.21875q0.65625 0.859375 0.65625 2.015625q0 0.9375 -0.40625 1.75q-0.390625 0.796875 -0.984375 1.234375q-0.578125 0.4375 -1.453125 0.671875q-0.875 0.21875 -2.15625 0.21875l-5.09375 0zm1.78125 -7.75l2.875 0q1.1875 0 1.6875 -0.140625q0.671875 -0.203125 1.015625 -0.671875q0.34375 -0.46875 0.34375 -1.171875q0 -0.65625 -0.328125 -1.15625q-0.3125 -0.515625 -0.90625 -0.703125q-0.59375 -0.1875 -2.03125 -0.1875l-2.65625 0l0 4.03125zm0 6.171875l3.3125 0q0.859375 0 1.203125 -0.0625q0.609375 -0.109375 1.015625 -0.359375q0.421875 -0.265625 0.6875 -0.75q0.265625 -0.484375 0.265625 -1.125q0 -0.75 -0.390625 -1.296875q-0.375 -0.546875 -1.0625 -0.765625q-0.671875 -0.234375 -1.953125 -0.234375l-3.078125 0l0 4.59375zm10.4904785 1.578125l0 -13.359375l1.640625 0l0 13.359375l-1.640625 0zm3.5822754 -4.84375q0 -2.6875 1.484375 -3.96875q1.25 -1.078125 3.046875 -1.078125q2.0 0 3.265625 1.3125q1.265625 1.296875 1.265625 3.609375q0 1.859375 -0.5625 2.9375q-0.5625 1.0625 -1.640625 1.65625q-1.0625 0.59375 -2.328125 0.59375q-2.03125 0 -3.28125 -1.296875q-1.25 -1.3125 -1.25 -3.765625zm1.6875 0q0 1.859375 0.796875 2.796875q0.8125 0.921875 2.046875 0.921875q1.21875 0 2.03125 -0.921875q0.8125 -0.9375 0.8125 -2.84375q0 -1.796875 -0.8125 -2.71875q-0.8125 -0.921875 -2.03125 -0.921875q-1.234375 0 -2.046875 0.921875q-0.796875 0.90625 -0.796875 2.765625zm15.610107 1.296875l1.609375 0.21875q-0.265625 1.65625 -1.359375 2.609375q-1.078125 0.9375 -2.671875 0.9375q-1.984375 0 -3.1875 -1.296875q-1.203125 -1.296875 -1.203125 -3.71875q0 -1.578125 0.515625 -2.75q0.515625 -1.171875 1.578125 -1.75q1.0625 -0.59375 2.3125 -0.59375q1.578125 0 2.578125 0.796875q1.0 0.796875 1.28125 2.265625l-1.59375 0.234375q-0.234375 -0.96875 -0.8125 -1.453125q-0.578125 -0.5 -1.390625 -0.5q-1.234375 0 -2.015625 0.890625q-0.78125 0.890625 -0.78125 2.8125q0 1.953125 0.75 2.84375q0.75 0.875 1.953125 0.875q0.96875 0 1.609375 -0.59375q0.65625 -0.59375 0.828125 -1.828125zm3.015625 3.546875l0 -13.359375l1.640625 0l0 7.625l3.890625 -3.9375l2.109375 0l-3.6875 3.59375l4.0625 6.078125l-2.015625 0l-3.203125 -4.953125l-1.15625 1.125l0 3.828125l-1.640625 0zm20.230164 0l-1.640625 0l0 -10.453125q-0.59375 0.5625 -1.5625 1.140625q-0.953125 0.5625 -1.71875 0.84375l0 -1.59375q1.375 -0.640625 2.40625 -1.5625q1.03125 -0.921875 1.453125 -1.78125l1.0625 0l0 13.40625z" fill-rule="nonzero"/><path fill="#000000" d="m512.57086 24.39895l0 0c0 -7.0448933 5.4783325 -12.755906 12.236206 -12.755906l0 0c3.2452393 0 6.357605 1.3439217 8.652344 3.7361183c2.2947388 2.3921957 3.5839233 5.63671 3.5839233 9.019788l0 0c0 7.0448914 -5.4783936 12.755903 -12.236267 12.755903l0 0c-6.7578735 0 -12.236206 -5.711012 -12.236206 -12.755903z" fill-rule="evenodd"/><path stroke="#000000" stroke-width="1.0" stroke-linejoin="round" stroke-linecap="butt" d="m512.57086 24.39895l0 0c0 -7.0448933 5.4783325 -12.755906 12.236206 -12.755906l0 0c3.2452393 0 6.357605 1.3439217 8.652344 3.7361183c2.2947388 2.3921957 3.5839233 5.63671 3.5839233 9.019788l0 0c0 7.0448914 -5.4783936 12.755903 -12.236267 12.755903l0 0c-6.7578735 0 -12.236206 -5.711012 -12.236206 -12.755903z" fill-rule="evenodd"/><path fill="#000000" d="m352.4134 71.68241l344.7874 0l0 12.251968l-344.7874 0z" fill-rule="evenodd"/><path stroke="#000000" stroke-width="1.0" stroke-linejoin="round" stroke-linecap="butt" d="m352.4134 71.68241l344.7874 0l0 12.251968l-344.7874 0z" fill-rule="evenodd"/><path fill="#000000" fill-opacity="0.0" d="m524.80707 37.154854l0 34.519684" fill-rule="evenodd"/><path stroke="#000000" stroke-width="1.0" stroke-linejoin="round" stroke-linecap="butt" d="m524.80707 37.154854l0 28.519684" fill-rule="evenodd"/><path fill="#000000" stroke="#000000" stroke-width="1.0" stroke-linecap="butt" d="m523.15533 65.67454l1.6517334 4.538101l1.6517334 -4.538101z" fill-rule="evenodd"/><path fill="#000000" d="m352.4134 425.46982l344.7874 0l0 12.251953l-344.7874 0z" fill-rule="evenodd"/><path stroke="#000000" stroke-width="1.0" stroke-linejoin="round" stroke-linecap="butt" d="m352.4134 425.46982l344.7874 0l0 12.251953l-344.7874 0z" fill-rule="evenodd"/><path fill="#ffffff" d="m363.79922 172.78757l0 0c0 -4.601013 3.7298584 -8.330872 8.330872 -8.330872l81.25949 0c2.2095032 0 4.328491 0.87771606 5.8908386 2.4400482c1.5623169 1.5623474 2.440033 3.6813354 2.440033 5.8908234l0 33.32251c0 4.601013 -3.7298584 8.330872 -8.330872 8.330872l-81.25949 0c-4.601013 0 -8.330872 -3.7298584 -8.330872 -8.330872z" fill-rule="evenodd"/><path stroke="#000000" stroke-width="1.0" stroke-linejoin="round" stroke-linecap="butt" d="m363.79922 172.78757l0 0c0 -4.601013 3.7298584 -8.330872 8.330872 -8.330872l81.25949 0c2.2095032 0 4.328491 0.87771606 5.8908386 2.4400482c1.5623169 1.5623474 2.440033 3.6813354 2.440033 5.8908234l0 33.32251c0 4.601013 -3.7298584 8.330872 -8.330872 8.330872l-81.25949 0c-4.601013 0 -8.330872 -3.7298584 -8.330872 -8.330872z" fill-rule="evenodd"/><path fill="#000000" d="m406.5068 196.36882l5.125 -13.359375l1.90625 0l5.46875 13.359375l-2.015625 0l-1.546875 -4.046875l-5.59375 0l-1.46875 4.046875l-1.875 0zm3.859375 -5.484375l4.53125 0l-1.40625 -3.703125q-0.625 -1.6875 -0.9375 -2.765625q-0.265625 1.28125 -0.71875 2.546875l-1.46875 3.921875z" fill-rule="nonzero"/><path fill="#efefef" d="m518.1877 202.97375l358.04724 0l0 187.9685l-358.04724 0z" fill-rule="evenodd"/><path stroke="#000000" stroke-width="1.0" stroke-linejoin="round" stroke-linecap="butt" d="m518.1877 202.97375l358.04724 0l0 187.9685l-358.04724 0z" fill-rule="evenodd"/><path fill="#000000" d="m807.4149 377.86224l0 -13.359375l5.015625 0q1.53125 0 2.453125 0.40625q0.921875 0.40625 1.4375 1.25q0.53125 0.84375 0.53125 1.765625q0 0.859375 -0.46875 1.625q-0.453125 0.75 -1.390625 1.203125q1.203125 0.359375 1.859375 1.21875q0.65625 0.859375 0.65625 2.015625q0 0.9375 -0.40625 1.75q-0.390625 0.796875 -0.984375 1.234375q-0.578125 0.4375 -1.453125 0.671875q-0.875 0.21875 -2.15625 0.21875l-5.09375 0zm1.78125 -7.75l2.875 0q1.1875 0 1.6875 -0.140625q0.671875 -0.203125 1.015625 -0.671875q0.34375 -0.46875 0.34375 -1.171875q0 -0.65625 -0.328125 -1.15625q-0.3125 -0.515625 -0.90625 -0.703125q-0.59375 -0.1875 -2.03125 -0.1875l-2.65625 0l0 4.03125zm0 6.171875l3.3125 0q0.859375 0 1.203125 -0.0625q0.609375 -0.109375 1.015625 -0.359375q0.421875 -0.265625 0.6875 -0.75q0.265625 -0.484375 0.265625 -1.125q0 -0.75 -0.390625 -1.296875q-0.375 -0.546875 -1.0625 -0.765625q-0.671875 -0.234375 -1.953125 -0.234375l-3.078125 0l0 4.59375zm10.4904175 1.578125l0 -13.359375l1.640625 0l0 13.359375l-1.640625 0zm3.5823364 -4.84375q0 -2.6875 1.484375 -3.96875q1.25 -1.078125 3.046875 -1.078125q2.0 0 3.265625 1.3125q1.265625 1.296875 1.265625 3.609375q0 1.859375 -0.5625 2.9375q-0.5625 1.0625 -1.640625 1.65625q-1.0625 0.59375 -2.328125 0.59375q-2.03125 0 -3.28125 -1.296875q-1.25 -1.3125 -1.25 -3.765625zm1.6875 0q0 1.859375 0.796875 2.796875q0.8125 0.921875 2.046875 0.921875q1.21875 0 2.03125 -0.921875q0.8125 -0.9375 0.8125 -2.84375q0 -1.796875 -0.8125 -2.71875q-0.8125 -0.921875 -2.03125 -0.921875q-1.234375 0 -2.046875 0.921875q-0.796875 0.90625 -0.796875 2.765625zm15.610107 1.296875l1.609375 0.21875q-0.265625 1.65625 -1.359375 2.609375q-1.078125 0.9375 -2.671875 0.9375q-1.984375 0 -3.1875 -1.296875q-1.203125 -1.296875 -1.203125 -3.71875q0 -1.578125 0.515625 -2.75q0.515625 -1.171875 1.578125 -1.75q1.0625 -0.59375 2.3125 -0.59375q1.578125 0 2.578125 0.796875q1.0 0.796875 1.28125 2.265625l-1.59375 0.234375q-0.234375 -0.96875 -0.8125 -1.453125q-0.578125 -0.5 -1.390625 -0.5q-1.234375 0 -2.015625 0.890625q-0.78125 0.890625 -0.78125 2.8125q0 1.953125 0.75 2.84375q0.75 0.875 1.953125 0.875q0.96875 0 1.609375 -0.59375q0.65625 -0.59375 0.828125 -1.828125zm3.015625 3.546875l0 -13.359375l1.640625 0l0 7.625l3.890625 -3.9375l2.109375 0l-3.6875 3.59375l4.0625 6.078125l-2.015625 0l-3.203125 -4.953125l-1.15625 1.125l0 3.828125l-1.640625 0zm22.667664 -1.578125l0 1.578125l-8.828125 0q-0.015625 -0.59375 0.1875 -1.140625q0.34375 -0.90625 1.078125 -1.78125q0.75 -0.875 2.15625 -2.015625q2.171875 -1.78125 2.9375 -2.828125q0.765625 -1.046875 0.765625 -1.96875q0 -0.984375 -0.703125 -1.640625q-0.6875 -0.671875 -1.8125 -0.671875q-1.1875 0 -1.90625 0.71875q-0.703125 0.703125 -0.703125 1.953125l-1.6875 -0.171875q0.171875 -1.890625 1.296875 -2.875q1.140625 -0.984375 3.03125 -0.984375q1.921875 0 3.046875 1.0625q1.125 1.0625 1.125 2.640625q0 0.796875 -0.328125 1.578125q-0.328125 0.78125 -1.09375 1.640625q-0.75 0.84375 -2.53125 2.34375q-1.46875 1.234375 -1.890625 1.6875q-0.421875 0.4375 -0.6875 0.875l6.546875 0z" fill-rule="nonzero"/><path fill="#000000" d="m522.96454 224.41734l344.7874 0l0 12.251968l-344.7874 0z" fill-rule="evenodd"/><path stroke="#000000" stroke-width="1.0" stroke-linejoin="round" stroke-linecap="butt" d="m522.96454 224.41734l344.7874 0l0 12.251968l-344.7874 0z" fill-rule="evenodd"/><path fill="#000000" d="m522.96454 337.6352l344.7874 0l0 12.251953l-344.7874 0z" fill-rule="evenodd"/><path stroke="#000000" stroke-width="1.0" stroke-linejoin="round" stroke-linecap="butt" d="m522.96454 337.6352l344.7874 0l0 12.251953l-344.7874 0z" fill-rule="evenodd"/><path fill="#ffffff" d="m537.2507 270.491l0 0c0 -4.601013 3.7298584 -8.330872 8.330872 -8.330872l81.25952 0c2.2094727 0 4.32843 0.87771606 5.890808 2.4400635c1.5623169 1.5623169 2.4400635 3.6813354 2.4400635 5.890808l0 33.32251c0 4.601013 -3.7298584 8.330872 -8.330872 8.330872l-81.25952 0c-4.601013 0 -8.330872 -3.7298584 -8.330872 -8.330872z" fill-rule="evenodd"/><path stroke="#000000" stroke-width="1.0" stroke-linejoin="round" stroke-linecap="butt" d="m537.2507 270.491l0 0c0 -4.601013 3.7298584 -8.330872 8.330872 -8.330872l81.25952 0c2.2094727 0 4.32843 0.87771606 5.890808 2.4400635c1.5623169 1.5623169 2.4400635 3.6813354 2.4400635 5.890808l0 33.32251c0 4.601013 -3.7298584 8.330872 -8.330872 8.330872l-81.25952 0c-4.601013 0 -8.330872 -3.7298584 -8.330872 -8.330872z" fill-rule="evenodd"/><path fill="#000000" d="m580.9123 294.07224l0 -13.359375l4.609375 0q1.546875 0 2.375 0.203125q1.140625 0.25 1.953125 0.953125q1.0625 0.890625 1.578125 2.28125q0.53125 1.390625 0.53125 3.171875q0 1.515625 -0.359375 2.703125q-0.359375 1.171875 -0.921875 1.9375q-0.546875 0.765625 -1.203125 1.21875q-0.65625 0.4375 -1.59375 0.671875q-0.9375 0.21875 -2.140625 0.21875l-4.828125 0zm1.765625 -1.578125l2.859375 0q1.3125 0 2.0625 -0.234375q0.75 -0.25 1.203125 -0.703125q0.625 -0.625 0.96875 -1.6875q0.359375 -1.0625 0.359375 -2.578125q0 -2.09375 -0.6875 -3.21875q-0.6875 -1.125 -1.671875 -1.5q-0.703125 -0.28125 -2.28125 -0.28125l-2.8125 0l0 10.203125z" fill-rule="nonzero"/><path fill="#ffffff" d="m646.39764 270.491l0 0c0 -4.601013 3.7298584 -8.330872 8.330872 -8.330872l81.25952 0c2.2094727 0 4.328491 0.87771606 5.890808 2.4400635c1.5623169 1.5623169 2.4400635 3.6813354 2.4400635 5.890808l0 33.32251c0 4.601013 -3.7298584 8.330872 -8.330872 8.330872l-81.25952 0c-4.601013 0 -8.330872 -3.7298584 -8.330872 -8.330872z" fill-rule="evenodd"/><path stroke="#000000" stroke-width="1.0" stroke-linejoin="round" stroke-linecap="butt" d="m646.39764 270.491l0 0c0 -4.601013 3.7298584 -8.330872 8.330872 -8.330872l81.25952 0c2.2094727 0 4.328491 0.87771606 5.890808 2.4400635c1.5623169 1.5623169 2.4400635 3.6813354 2.4400635 5.890808l0 33.32251c0 4.601013 -3.7298584 8.330872 -8.330872 8.330872l-81.25952 0c-4.601013 0 -8.330872 -3.7298584 -8.330872 -8.330872z" fill-rule="evenodd"/><path fill="#000000" d="m690.6052 294.07224l0 -13.359375l9.65625 0l0 1.578125l-7.875 0l0 4.09375l7.375 0l0 1.5625l-7.375 0l0 4.546875l8.1875 0l0 1.578125l-9.96875 0z" fill-rule="nonzero"/><path fill="#ffffff" d="m755.5446 270.491l0 0c0 -4.601013 3.7298584 -8.330872 8.330872 -8.330872l81.25952 0c2.2094727 0 4.328491 0.87771606 5.890808 2.4400635c1.5623169 1.5623169 2.4400635 3.6813354 2.4400635 5.890808l0 33.32251c0 4.601013 -3.7298584 8.330872 -8.330872 8.330872l-81.25952 0c-4.601013 0 -8.330872 -3.7298584 -8.330872 -8.330872z" fill-rule="evenodd"/><path stroke="#000000" stroke-width="1.0" stroke-linejoin="round" stroke-linecap="butt" d="m755.5446 270.491l0 0c0 -4.601013 3.7298584 -8.330872 8.330872 -8.330872l81.25952 0c2.2094727 0 4.328491 0.87771606 5.890808 2.4400635c1.5623169 1.5623169 2.4400635 3.6813354 2.4400635 5.890808l0 33.32251c0 4.601013 -3.7298584 8.330872 -8.330872 8.330872l-81.25952 0c-4.601013 0 -8.330872 -3.7298584 -8.330872 -8.330872z" fill-rule="evenodd"/><path fill="#000000" d="m800.3385 294.07224l0 -13.359375l9.015625 0l0 1.578125l-7.25 0l0 4.140625l6.265625 0l0 1.578125l-6.265625 0l0 6.0625l-1.765625 0z" fill-rule="nonzero"/><path fill="#000000" fill-opacity="0.0" d="m586.2113 312.14438l109.13385 25.480316" fill-rule="evenodd"/><path stroke="#000000" stroke-width="1.0" stroke-linejoin="round" stroke-linecap="butt" d="m586.2113 312.14438l103.291016 24.11615" fill-rule="evenodd"/><path fill="#000000" stroke="#000000" stroke-width="1.0" stroke-linecap="butt" d="m689.1268 337.869l4.794739 -0.5766907l-4.043701 -2.6402588z" fill-rule="evenodd"/><path fill="#000000" fill-opacity="0.0" d="m695.3583 312.14438l0 25.480316" fill-rule="evenodd"/><path stroke="#000000" stroke-width="1.0" stroke-linejoin="round" stroke-linecap="butt" d="m695.3583 312.14438l0 19.480316" fill-rule="evenodd"/><path fill="#000000" stroke="#000000" stroke-width="1.0" stroke-linecap="butt" d="m693.70654 331.6247l1.6517334 4.538086l1.6517334 -4.538086z" fill-rule="evenodd"/><path fill="#000000" fill-opacity="0.0" d="m804.50525 312.14438l-109.13385 25.480316" fill-rule="evenodd"/><path stroke="#000000" stroke-width="1.0" stroke-linejoin="round" stroke-linecap="butt" d="m804.50525 312.14438l-103.291016 24.11615" fill-rule="evenodd"/><path fill="#000000" stroke="#000000" stroke-width="1.0" stroke-linecap="butt" d="m700.8387 334.65204l-4.043701 2.6402588l4.7948 0.5766907z" fill-rule="evenodd"/><path fill="#000000" fill-opacity="0.0" d="m695.3583 236.66931l109.13385 25.480316" fill-rule="evenodd"/><path stroke="#000000" stroke-width="1.0" stroke-linejoin="round" stroke-linecap="butt" d="m695.3583 236.66931l103.291016 24.11615" fill-rule="evenodd"/><path fill="#000000" stroke="#000000" stroke-width="1.0" stroke-linecap="butt" d="m798.27374 262.39392l4.794739 -0.5766907l-4.043701 -2.6402588z" fill-rule="evenodd"/><path fill="#000000" fill-opacity="0.0" d="m695.3583 236.66931l0 25.480316" fill-rule="evenodd"/><path stroke="#000000" stroke-width="1.0" stroke-linejoin="round" stroke-linecap="butt" d="m695.3583 236.66931l0 19.480316" fill-rule="evenodd"/><path fill="#000000" stroke="#000000" stroke-width="1.0" stroke-linecap="butt" d="m693.70654 256.14963l1.6517334 4.538086l1.6517334 -4.538086z" fill-rule="evenodd"/><path fill="#000000" fill-opacity="0.0" d="m695.3583 236.66931l-109.13385 25.480316" fill-rule="evenodd"/><path stroke="#000000" stroke-width="1.0" stroke-linejoin="round" stroke-linecap="butt" d="m695.3583 236.66931l-103.291016 24.11615" fill-rule="evenodd"/><path fill="#000000" stroke="#000000" stroke-width="1.0" stroke-linecap="butt" d="m591.6917 259.17697l-4.043701 2.6402588l4.7948 0.5766907z" fill-rule="evenodd"/><path fill="#ffffff" d="m512.57086 485.00525l0 0c0 -7.0448914 5.4783325 -12.75592 12.236206 -12.75592l0 0c3.2452393 0 6.357605 1.3439331 8.652344 3.736145c2.2947388 2.3921814 3.5839233 5.636688 3.5839233 9.019775l0 0c0 7.0448914 -5.4783936 12.75592 -12.236267 12.75592l0 0c-6.7578735 0 -12.236206 -5.711029 -12.236206 -12.75592z" fill-rule="evenodd"/><path stroke="#000000" stroke-width="1.0" stroke-linejoin="round" stroke-linecap="butt" d="m512.57086 485.00525l0 0c0 -7.0448914 5.4783325 -12.75592 12.236206 -12.75592l0 0c3.2452393 0 6.357605 1.3439331 8.652344 3.736145c2.2947388 2.3921814 3.5839233 5.636688 3.5839233 9.019775l0 0c0 7.0448914 -5.4783936 12.75592 -12.236267 12.75592l0 0c-6.7578735 0 -12.236206 -5.711029 -12.236206 -12.75592z" fill-rule="evenodd"/><path fill="#000000" d="m514.96454 485.00525l0 0c0 -5.8272705 4.4066772 -10.551178 9.842529 -10.551178l0 0c2.6104126 0 5.1138916 1.1116333 6.959717 3.0903625c1.8458252 1.9787292 2.8828125 4.6624756 2.8828125 7.4608154l0 0c0 5.8272705 -4.406616 10.551178 -9.842529 10.551178l0 0c-5.435852 0 -9.842529 -4.7239075 -9.842529 -10.551178z" fill-rule="evenodd"/><path stroke="#000000" stroke-width="1.0" stroke-linejoin="round" stroke-linecap="butt" d="m514.96454 485.00525l0 0c0 -5.8272705 4.4066772 -10.551178 9.842529 -10.551178l0 0c2.6104126 0 5.1138916 1.1116333 6.959717 3.0903625c1.8458252 1.9787292 2.8828125 4.6624756 2.8828125 7.4608154l0 0c0 5.8272705 -4.406616 10.551178 -9.842529 10.551178l0 0c-5.435852 0 -9.842529 -4.7239075 -9.842529 -10.551178z" fill-rule="evenodd"/><path fill="#000000" fill-opacity="0.0" d="m524.80707 437.72177l0 36.724426" fill-rule="evenodd"/><path stroke="#000000" stroke-width="1.0" stroke-linejoin="round" stroke-linecap="butt" d="m524.80707 437.72177l0 30.724426" fill-rule="evenodd"/><path fill="#000000" stroke="#000000" stroke-width="1.0" stroke-linecap="butt" d="m523.15533 468.4462l1.6517334 4.538086l1.6517334 -4.538086z" fill-rule="evenodd"/><path fill="#ffffff" d="m646.39764 126.792816l0 0c0 -4.601013 3.7298584 -8.330872 8.330872 -8.330872l81.25952 0c2.2094727 0 4.328491 0.87771606 5.890808 2.4400558c1.5623169 1.5623398 2.4400635 3.6813278 2.4400635 5.8908157l0 33.32251c0 4.601013 -3.7298584 8.330872 -8.330872 8.330872l-81.25952 0c-4.601013 0 -8.330872 -3.7298584 -8.330872 -8.330872z" fill-rule="evenodd"/><path stroke="#000000" stroke-width="1.0" stroke-linejoin="round" stroke-linecap="butt" d="m646.39764 126.792816l0 0c0 -4.601013 3.7298584 -8.330872 8.330872 -8.330872l81.25952 0c2.2094727 0 4.328491 0.87771606 5.890808 2.4400558c1.5623169 1.5623398 2.4400635 3.6813278 2.4400635 5.8908157l0 33.32251c0 4.601013 -3.7298584 8.330872 -8.330872 8.330872l-81.25952 0c-4.601013 0 -8.330872 -3.7298584 -8.330872 -8.330872z" fill-rule="evenodd"/><path fill="#000000" d="m699.5905 145.68657l1.765625 0.453125q-0.5625 2.171875 -2.0 3.328125q-1.4375 1.140625 -3.53125 1.140625q-2.15625 0 -3.515625 -0.875q-1.34375 -0.890625 -2.0625 -2.546875q-0.703125 -1.671875 -0.703125 -3.59375q0 -2.078125 0.796875 -3.625q0.796875 -1.5625 2.265625 -2.359375q1.484375 -0.8125 3.25 -0.8125q2.0 0 3.359375 1.015625q1.375 1.015625 1.90625 2.875l-1.734375 0.40625q-0.46875 -1.453125 -1.359375 -2.109375q-0.875 -0.671875 -2.203125 -0.671875q-1.546875 0 -2.578125 0.734375q-1.03125 0.734375 -1.453125 1.984375q-0.421875 1.234375 -0.421875 2.5625q0 1.703125 0.5 2.96875q0.5 1.265625 1.546875 1.90625q1.046875 0.625 2.265625 0.625q1.484375 0 2.515625 -0.859375q1.03125 -0.859375 1.390625 -2.546875z" fill-rule="nonzero"/><path fill="#ffffff" d="m363.79922 303.29413l0 0c0 -4.601013 3.7298584 -8.330872 8.330872 -8.330872l81.25949 0c2.2095032 0 4.328491 0.87771606 5.8908386 2.4400635c1.5623169 1.5623474 2.440033 3.6813354 2.440033 5.890808l0 33.32251c0 4.601013 -3.7298584 8.330872 -8.330872 8.330872l-81.25949 0c-4.601013 0 -8.330872 -3.7298584 -8.330872 -8.330872z" fill-rule="evenodd"/><path stroke="#000000" stroke-width="1.0" stroke-linejoin="round" stroke-linecap="butt" d="m363.79922 303.29413l0 0c0 -4.601013 3.7298584 -8.330872 8.330872 -8.330872l81.25949 0c2.2095032 0 4.328491 0.87771606 5.8908386 2.4400635c1.5623169 1.5623474 2.440033 3.6813354 2.440033 5.890808l0 33.32251c0 4.601013 -3.7298584 8.330872 -8.330872 8.330872l-81.25949 0c-4.601013 0 -8.330872 -3.7298584 -8.330872 -8.330872z" fill-rule="evenodd"/><path fill="#000000" d="m407.89743 326.87537l0 -13.359375l5.015625 0q1.53125 0 2.453125 0.40625q0.921875 0.40625 1.4375 1.25q0.53125 0.84375 0.53125 1.765625q0 0.859375 -0.46875 1.625q-0.453125 0.75 -1.390625 1.203125q1.203125 0.359375 1.859375 1.21875q0.65625 0.859375 0.65625 2.015625q0 0.9375 -0.40625 1.75q-0.390625 0.796875 -0.984375 1.234375q-0.578125 0.4375 -1.453125 0.671875q-0.875 0.21875 -2.15625 0.21875l-5.09375 0zm1.78125 -7.75l2.875 0q1.1875 0 1.6875 -0.140625q0.671875 -0.203125 1.015625 -0.671875q0.34375 -0.46875 0.34375 -1.171875q0 -0.65625 -0.328125 -1.15625q-0.3125 -0.515625 -0.90625 -0.703125q-0.59375 -0.1875 -2.03125 -0.1875l-2.65625 0l0 4.03125zm0 6.171875l3.3125 0q0.859375 0 1.203125 -0.0625q0.609375 -0.109375 1.015625 -0.359375q0.421875 -0.265625 0.6875 -0.75q0.265625 -0.484375 0.265625 -1.125q0 -0.75 -0.390625 -1.296875q-0.375 -0.546875 -1.0625 -0.765625q-0.671875 -0.234375 -1.953125 -0.234375l-3.078125 0l0 4.59375z" fill-rule="nonzero"/><path fill="#000000" fill-opacity="0.0" d="m524.80707 83.93438l170.55121 34.51969" fill-rule="evenodd"/><path stroke="#000000" stroke-width="1.0" stroke-linejoin="round" stroke-linecap="butt" d="m524.80707 83.93438l164.67047 33.329422" fill-rule="evenodd"/><path fill="#000000" stroke="#000000" stroke-width="1.0" stroke-linecap="butt" d="m689.14984 118.882706l4.7755737 -0.7186432l-4.1202393 -2.519165z" fill-rule="evenodd"/><path fill="#000000" fill-opacity="0.0" d="m695.3583 168.4462l0 55.968506" fill-rule="evenodd"/><path stroke="#000000" stroke-width="1.0" stroke-linejoin="round" stroke-linecap="butt" d="m695.3583 168.4462l0 49.968506" fill-rule="evenodd"/><path fill="#000000" stroke="#000000" stroke-width="1.0" stroke-linecap="butt" d="m693.70654 218.4147l1.6517334 4.538086l1.6517334 -4.538086z" fill-rule="evenodd"/><path fill="#000000" fill-opacity="0.0" d="m524.80707 83.93438l-112.03146 80.53544" fill-rule="evenodd"/><path stroke="#000000" stroke-width="1.0" stroke-linejoin="round" stroke-linecap="butt" d="m524.80707 83.93438l-107.15964 77.03326" fill-rule="evenodd"/><path fill="#000000" stroke="#000000" stroke-width="1.0" stroke-linecap="butt" d="m416.68332 159.62648l-2.7207031 3.9900208l4.648926 -1.3077087z" fill-rule="evenodd"/><path fill="#000000" fill-opacity="0.0" d="m412.75986 214.44095l0 80.53543" fill-rule="evenodd"/><path stroke="#000000" stroke-width="1.0" stroke-linejoin="round" stroke-linecap="butt" d="m412.75986 214.44095l0 74.53543" fill-rule="evenodd"/><path fill="#000000" stroke="#000000" stroke-width="1.0" stroke-linecap="butt" d="m411.10812 288.97638l1.6517334 4.538086l1.6517029 -4.538086z" fill-rule="evenodd"/><path fill="#000000" fill-opacity="0.0" d="m412.75986 344.9475l112.06296 80.53543" fill-rule="evenodd"/><path stroke="#000000" stroke-width="1.0" stroke-linejoin="round" stroke-linecap="butt" d="m412.75986 344.9475l107.190704 77.033905" fill-rule="evenodd"/><path fill="#000000" stroke="#000000" stroke-width="1.0" stroke-linecap="butt" d="m518.98663 423.3227l4.649048 1.3070984l-2.7211914 -3.989685z" fill-rule="evenodd"/><path fill="#000000" fill-opacity="0.0" d="m695.3583 349.88715l-170.55121 75.590546" fill-rule="evenodd"/><path stroke="#000000" stroke-width="1.0" stroke-linejoin="round" stroke-linecap="butt" d="m695.3583 349.88715l-165.06586 73.15936" fill-rule="evenodd"/><path fill="#000000" stroke="#000000" stroke-width="1.0" stroke-linecap="butt" d="m529.62317 421.53644l-3.4795532 3.348877l4.818115 -0.32876587z" fill-rule="evenodd"/></g></svg>