<svg version="1.1" viewBox="0.0 0.0 1031.0997375328084 365.0577427821522" fill="none" stroke="none" stroke-linecap="square" stroke-miterlimit="10" xmlns:xlink="http://www.w3.org/1999/xlink" xmlns="http://www.w3.org/2000/svg"><clipPath id="p.0"><path d="m0 0l1031.0997 0l0 365.05774l-1031.0997 0l0 -365.05774z" clip-rule="nonzero"/></clipPath><g clip-path="url(#p.0)"><path fill="#000000" fill-opacity="0.0" d="m0 0l1031.0997 0l0 365.05774l-1031.0997 0z" fill-rule="evenodd"/><path fill="#cfe2f3" d="m221.73885 271.47644l393.69025 0l0 80.934326l-393.69025 0z" fill-rule="evenodd"/><path fill="#a5b4c2" d="m615.4291 271.47644l193.93182 -193.93182l0 80.93434l-193.93182 193.93181z" fill-rule="evenodd"/><path fill="#d8e7f5" d="m221.73885 271.47644l193.93181 -193.93182l393.69025 0l-193.93182 193.93182z" fill-rule="evenodd"/><path fill="#000000" fill-opacity="0.0" d="m221.73885 271.47644l193.93181 -193.93182l393.69025 0l0 80.93434l-193.93182 193.93181l-393.69025 0zm0 0l393.69025 0l193.93182 -193.93182m-193.93182 193.93182l0 80.934326" fill-rule="evenodd"/><path stroke="#000000" stroke-width="1.0" stroke-linejoin="round" stroke-linecap="butt" d="m221.73885 271.47644l193.93181 -193.93182l393.69025 0l0 80.93434l-193.93182 193.93181l-393.69025 0zm0 0l393.69025 0l193.93182 -193.93182m-193.93182 193.93182l0 80.934326" fill-rule="evenodd"/><path fill="#000000" d="m389.35364 318.8636l0 -13.359375l5.015625 0q1.53125 0 2.453125 0.40625q0.921875 0.40625 1.4375 1.25q0.53125 0.84375 0.53125 1.765625q0 0.859375 -0.46875 1.625q-0.453125 0.75 -1.390625 1.203125q1.203125 0.359375 1.859375 1.21875q0.65625 0.859375 0.65625 2.015625q0 0.9375 -0.40625 1.75q-0.390625 0.796875 -0.984375 1.234375q-0.578125 0.4375 -1.453125 0.671875q-0.875 0.21875 -2.15625 0.21875l-5.09375 0zm1.78125 -7.75l2.875 0q1.1875 0 1.6875 -0.140625q0.671875 -0.203125 1.015625 -0.671875q0.34375 -0.46875 0.34375 -1.171875q0 -0.65625 -0.328125 -1.15625q-0.3125 -0.515625 -0.90625 -0.703125q-0.59375 -0.1875 -2.03125 -0.1875l-2.65625 0l0 4.03125zm0 6.171875l3.3125 0q0.859375 0 1.203125 -0.0625q0.609375 -0.109375 1.015625 -0.359375q0.421875 -0.265625 0.6875 -0.75q0.265625 -0.484375 0.265625 -1.125q0 -0.75 -0.390625 -1.296875q-0.375 -0.546875 -1.0625 -0.765625q-0.671875 -0.234375 -1.953125 -0.234375l-3.078125 0l0 4.59375zm10.490448 1.578125l0 -13.359375l1.640625 0l0 13.359375l-1.640625 0zm3.5823364 -4.84375q0 -2.6875 1.484375 -3.96875q1.25 -1.078125 3.046875 -1.078125q2.0 0 3.265625 1.3125q1.265625 1.296875 1.265625 3.609375q0 1.859375 -0.5625 2.9375q-0.5625 1.0625 -1.640625 1.65625q-1.0625 0.59375 -2.328125 0.59375q-2.03125 0 -3.28125 -1.296875q-1.25 -1.3125 -1.25 -3.765625zm1.6875 0q0 1.859375 0.796875 2.796875q0.8125 0.921875 2.046875 0.921875q1.21875 0 2.03125 -0.921875q0.8125 -0.9375 0.8125 -2.84375q0 -1.796875 -0.8125 -2.71875q-0.8125 -0.921875 -2.03125 -0.921875q-1.234375 0 -2.046875 0.921875q-0.796875 0.90625 -0.796875 2.765625zm15.610077 1.296875l1.609375 0.21875q-0.265625 1.65625 -1.359375 2.609375q-1.078125 0.9375 -2.671875 0.9375q-1.984375 0 -3.1875 -1.296875q-1.203125 -1.296875 -1.203125 -3.71875q0 -1.578125 0.515625 -2.75q0.515625 -1.171875 1.578125 -1.75q1.0625 -0.59375 2.3125 -0.59375q1.578125 0 2.578125 0.796875q1.0 0.796875 1.28125 2.265625l-1.59375 0.234375q-0.234375 -0.96875 -0.8125 -1.453125q-0.578125 -0.5 -1.390625 -0.5q-1.234375 0 -2.015625 0.890625q-0.78125 0.890625 -0.78125 2.8125q0 1.953125 0.75 2.84375q0.75 0.875 1.953125 0.875q0.96875 0 1.609375 -0.59375q0.65625 -0.59375 0.828125 -1.828125zm3.015625 3.546875l0 -13.359375l1.640625 0l0 7.625l3.890625 -3.9375l2.109375 0l-3.6875 3.59375l4.0625 6.078125l-2.015625 0l-3.203125 -4.953125l-1.15625 1.125l0 3.828125l-1.640625 0zm20.230194 0l-1.640625 0l0 -10.453125q-0.59375 0.5625 -1.5625 1.140625q-0.953125 0.5625 -1.71875 0.84375l0 -1.59375q1.375 -0.640625 2.40625 -1.5625q1.03125 -0.921875 1.453125 -1.78125l1.0625 0l0 13.40625z" fill-rule="nonzero"/><path fill="#cfe2f3" d="m221.73885 206.9375l191.85121 0l0 63.693726l-191.85121 0z" fill-rule="evenodd"/><path fill="#a5b4c2" d="m413.59006 206.9375l194.2905 -194.29051l0 63.693733l-194.2905 194.29051z" fill-rule="evenodd"/><path fill="#d8e7f5" d="m221.73885 206.9375l194.29051 -194.29051l191.8512 0l-194.2905 194.29051z" fill-rule="evenodd"/><path fill="#000000" fill-opacity="0.0" d="m221.73885 206.9375l194.29051 -194.29051l191.8512 0l0 63.693733l-194.2905 194.29051l-191.85121 0zm0 0l191.85121 0l194.2905 -194.29051m-194.2905 194.29051l0 63.693726" fill-rule="evenodd"/><path stroke="#000000" stroke-width="1.0" stroke-linejoin="round" stroke-linecap="butt" d="m221.73885 206.9375l194.29051 -194.29051l191.8512 0l0 63.693733l-194.2905 194.29051l-191.85121 0zm0 0l191.85121 0l194.2905 -194.29051m-194.2905 194.29051l0 63.693726" fill-rule="evenodd"/><path fill="#cfe2f3" d="m423.21915 206.9375l191.85123 0l0 63.693726l-191.85123 0z" fill-rule="evenodd"/><path fill="#a5b4c2" d="m615.0704 206.9375l194.29053 -194.29051l0 63.693733l-194.29053 194.29051z" fill-rule="evenodd"/><path fill="#d8e7f5" d="m423.21915 206.9375l194.29056 -194.29051l191.8512 0l-194.29053 194.29051z" fill-rule="evenodd"/><path fill="#000000" fill-opacity="0.0" d="m423.21915 206.9375l194.29056 -194.29051l191.8512 0l0 63.693733l-194.29053 194.29051l-191.85123 0zm0 0l191.85123 0l194.29053 -194.29051m-194.29053 194.29051l0 63.693726" fill-rule="evenodd"/><path stroke="#000000" stroke-width="1.0" stroke-linejoin="round" stroke-linecap="butt" d="m423.21915 206.9375l194.29056 -194.29051l191.8512 0l0 63.693733l-194.29053 194.29051l-191.85123 0zm0 0l191.85123 0l194.29053 -194.29051m-194.29053 194.29051l0 63.693726" fill-rule="evenodd"/><path fill="#d9d9d9" d="m498.26904 144.43506l119.45862 0l0 39.36415l-119.45862 0z" fill-rule="evenodd"/><path fill="#adadad" d="m617.72766 144.43506l49.990173 -49.990173l0 39.36415l-49.990173 49.990173z" fill-rule="evenodd"/><path fill="#e0e0e0" d="m498.26904 144.43506l49.990173 -49.990173l119.45862 0l-49.990173 49.990173z" fill-rule="evenodd"/><path fill="#000000" fill-opacity="0.0" d="m498.26904 144.43506l49.990173 -49.990173l119.45862 0l0 39.36415l-49.990173 49.990173l-119.45862 0zm0 0l119.45862 0l49.990173 -49.990173m-49.990173 49.990173l0 39.36415" fill-rule="evenodd"/><path stroke="#000000" stroke-width="1.0" stroke-linejoin="round" stroke-linecap="butt" d="m498.26904 144.43506l49.990173 -49.990173l119.45862 0l0 39.36415l-49.990173 49.990173l-119.45862 0zm0 0l119.45862 0l49.990173 -49.990173m-49.990173 49.990173l0 39.36415" fill-rule="evenodd"/><path fill="#000000" d="m528.76807 171.03714l0 -13.359375l5.015625 0q1.53125 0 2.453125 0.40625q0.921875 0.40625 1.4375 1.25q0.53125 0.84375 0.53125 1.765625q0 0.859375 -0.46875 1.625q-0.453125 0.75 -1.390625 1.203125q1.203125 0.359375 1.859375 1.21875q0.65625 0.859375 0.65625 2.015625q0 0.9375 -0.40625 1.75q-0.390625 0.796875 -0.984375 1.234375q-0.578125 0.4375 -1.453125 0.671875q-0.875 0.21875 -2.15625 0.21875l-5.09375 0zm1.78125 -7.75l2.875 0q1.1875 0 1.6875 -0.140625q0.671875 -0.203125 1.015625 -0.671875q0.34375 -0.46875 0.34375 -1.171875q0 -0.65625 -0.328125 -1.15625q-0.3125 -0.515625 -0.90625 -0.703125q-0.59375 -0.1875 -2.03125 -0.1875l-2.65625 0l0 4.03125zm0 6.171875l3.3125 0q0.859375 0 1.203125 -0.0625q0.609375 -0.109375 1.015625 -0.359375q0.421875 -0.265625 0.6875 -0.75q0.265625 -0.484375 0.265625 -1.125q0 -0.75 -0.390625 -1.296875q-0.375 -0.546875 -1.0625 -0.765625q-0.671875 -0.234375 -1.953125 -0.234375l-3.078125 0l0 4.59375zm10.4904175 1.578125l0 -13.359375l1.640625 0l0 13.359375l-1.640625 0zm3.5823364 -4.84375q0 -2.6875 1.484375 -3.96875q1.25 -1.078125 3.046875 -1.078125q2.0 0 3.265625 1.3125q1.265625 1.296875 1.265625 3.609375q0 1.859375 -0.5625 2.9375q-0.5625 1.0625 -1.640625 1.65625q-1.0625 0.59375 -2.328125 0.59375q-2.03125 0 -3.28125 -1.296875q-1.25 -1.3125 -1.25 -3.765625zm1.6875 0q0 1.859375 0.796875 2.796875q0.8125 0.921875 2.046875 0.921875q1.21875 0 2.03125 -0.921875q0.8125 -0.9375 0.8125 -2.84375q0 -1.796875 -0.8125 -2.71875q-0.8125 -0.921875 -2.03125 -0.921875q-1.234375 0 -2.046875 0.921875q-0.796875 0.90625 -0.796875 2.765625zm15.610107 1.296875l1.609375 0.21875q-0.265625 1.65625 -1.359375 2.609375q-1.078125 0.9375 -2.671875 0.9375q-1.984375 0 -3.1875 -1.296875q-1.203125 -1.296875 -1.203125 -3.71875q0 -1.578125 0.515625 -2.75q0.515625 -1.171875 1.578125 -1.75q1.0625 -0.59375 2.3125 -0.59375q1.578125 0 2.578125 0.796875q1.0 0.796875 1.28125 2.265625l-1.59375 0.234375q-0.234375 -0.96875 -0.8125 -1.453125q-0.578125 -0.5 -1.390625 -0.5q-1.234375 0 -2.015625 0.890625q-0.78125 0.890625 -0.78125 2.8125q0 1.953125 0.75 2.84375q0.75 0.875 1.953125 0.875q0.96875 0 1.609375 -0.59375q0.65625 -0.59375 0.828125 -1.828125zm3.015625 3.546875l0 -13.359375l1.640625 0l0 7.625l3.890625 -3.9375l2.109375 0l-3.6875 3.59375l4.0625 6.078125l-2.015625 0l-3.203125 -4.953125l-1.15625 1.125l0 3.828125l-1.640625 0zm22.667664 -1.578125l0 1.578125l-8.828125 0q-0.015625 -0.59375 0.1875 -1.140625q0.34375 -0.90625 1.078125 -1.78125q0.75 -0.875 2.15625 -2.015625q2.171875 -1.78125 2.9375 -2.828125q0.765625 -1.046875 0.765625 -1.96875q0 -0.984375 -0.703125 -1.640625q-0.6875 -0.671875 -1.8125 -0.671875q-1.1875 0 -1.90625 0.71875q-0.703125 0.703125 -0.703125 1.953125l-1.6875 -0.171875q0.171875 -1.890625 1.296875 -2.875q1.140625 -0.984375 3.03125 -0.984375q1.921875 0 3.046875 1.0625q1.125 1.0625 1.125 2.640625q0 0.796875 -0.328125 1.578125q-0.328125 0.78125 -1.09375 1.640625q-0.75 0.84375 -2.53125 2.34375q-1.46875 1.234375 -1.890625 1.6875q-0.421875 0.4375 -0.6875 0.875l6.546875 0z" fill-rule="nonzero"/><path fill="#ffffff" d="m661.80707 36.95154l0 0c0 -2.7165413 2.2022095 -4.9187317 4.918762 -4.9187317l23.044434 0c1.3045044 0 2.555603 0.518219 3.4780273 1.4406624c0.92248535 0.9224396 1.4406738 2.1735382 1.4406738 3.4780693l0 19.674343c0 2.7165413 -2.2022095 4.9187355 -4.918701 4.9187355l-23.044434 0c-2.7165527 0 -4.918762 -2.2021942 -4.918762 -4.9187355z" fill-rule="evenodd"/><path stroke="#000000" stroke-width="1.0" stroke-linejoin="round" stroke-linecap="butt" d="m661.80707 36.95154l0 0c0 -2.7165413 2.2022095 -4.9187317 4.918762 -4.9187317l23.044434 0c1.3045044 0 2.555603 0.518219 3.4780273 1.4406624c0.92248535 0.9224396 1.4406738 2.1735382 1.4406738 3.4780693l0 19.674343c0 2.7165413 -2.2022095 4.9187355 -4.918701 4.9187355l-23.044434 0c-2.7165527 0 -4.918762 -2.2021942 -4.918762 -4.9187355z" fill-rule="evenodd"/><path fill="#000000" d="m683.2165 49.021214l1.765625 0.453125q-0.5625 2.171875 -2.0 3.328125q-1.4375 1.140625 -3.53125 1.140625q-2.15625 0 -3.515625 -0.875q-1.34375 -0.890625 -2.0625 -2.546875q-0.703125 -1.671875 -0.703125 -3.59375q0 -2.078125 0.796875 -3.625q0.796875 -1.5625 2.265625 -2.359375q1.484375 -0.8125 3.25 -0.8125q2.0 0 3.359375 1.015625q1.375 1.015625 1.90625 2.875l-1.734375 0.40625q-0.46875 -1.453125 -1.359375 -2.109375q-0.875 -0.671875 -2.203125 -0.671875q-1.546875 0 -2.578125 0.734375q-1.03125 0.734375 -1.453125 1.984375q-0.421875 1.234375 -0.421875 2.5625q0 1.703125 0.5 2.96875q0.5 1.265625 1.546875 1.90625q1.046875 0.625 2.265625 0.625q1.484375 0 2.515625 -0.859375q1.03125 -0.859375 1.390625 -2.546875z" fill-rule="nonzero"/><path fill="#d9d9d9" d="m498.26904 118.02427l42.166016 0l0 25.725075l-42.166016 0z" fill-rule="evenodd"/><path fill="#adadad" d="m540.43506 118.02427l50.55835 -50.558388l0 25.725067l-50.55835 50.558395z" fill-rule="evenodd"/><path fill="#e0e0e0" d="m498.26904 118.02427l50.55835 -50.558388l42.166016 0l-50.55835 50.558388z" fill-rule="evenodd"/><path fill="#000000" fill-opacity="0.0" d="m498.26904 118.02427l50.55835 -50.558388l42.166016 0l0 25.725067l-50.55835 50.558395l-42.166016 0zm0 0l42.166016 0l50.55835 -50.558388m-50.55835 50.558388l0 25.725075" fill-rule="evenodd"/><path stroke="#000000" stroke-width="1.0" stroke-linejoin="round" stroke-linecap="butt" d="m498.26904 118.02427l50.55835 -50.558388l42.166016 0l0 25.725067l-50.55835 50.558395l-42.166016 0zm0 0l42.166016 0l50.55835 -50.558388m-50.55835 50.558388l0 25.725075" fill-rule="evenodd"/><path fill="#d9d9d9" d="m536.6312 118.02427l42.166016 0l0 25.725075l-42.166016 0z" fill-rule="evenodd"/><path fill="#adadad" d="m578.79724 118.02427l50.55841 -50.558388l0 25.725067l-50.55841 50.558395z" fill-rule="evenodd"/><path fill="#e0e0e0" d="m536.6312 118.02427l50.55841 -50.558388l42.166016 0l-50.55841 50.558388z" fill-rule="evenodd"/><path fill="#000000" fill-opacity="0.0" d="m536.6312 118.02427l50.55841 -50.558388l42.166016 0l0 25.725067l-50.55841 50.558395l-42.166016 0zm0 0l42.166016 0l50.55841 -50.558388m-50.55841 50.558388l0 25.725075" fill-rule="evenodd"/><path stroke="#000000" stroke-width="1.0" stroke-linejoin="round" stroke-linecap="butt" d="m536.6312 118.02427l50.55841 -50.558388l42.166016 0l0 25.725067l-50.55841 50.558395l-42.166016 0zm0 0l42.166016 0l50.55841 -50.558388m-50.55841 50.558388l0 25.725075" fill-rule="evenodd"/><path fill="#d9d9d9" d="m574.9934 118.02427l42.166077 0l0 25.725075l-42.166077 0z" fill-rule="evenodd"/><path fill="#adadad" d="m617.1595 118.02427l50.55835 -50.558388l0 25.725067l-50.55835 50.558395z" fill-rule="evenodd"/><path fill="#e0e0e0" d="m574.9934 118.02427l50.55841 -50.558388l42.166016 0l-50.55835 50.558388z" fill-rule="evenodd"/><path fill="#000000" fill-opacity="0.0" d="m574.9934 118.02427l50.55841 -50.558388l42.166016 0l0 25.725067l-50.55835 50.558395l-42.166077 0zm0 0l42.166077 0l50.55835 -50.558388m-50.55835 50.558388l0 25.725075" fill-rule="evenodd"/><path stroke="#000000" stroke-width="1.0" stroke-linejoin="round" stroke-linecap="butt" d="m574.9934 118.02427l50.55841 -50.558388l42.166016 0l0 25.725067l-50.55835 50.558395l-42.166077 0zm0 0l42.166077 0l50.55835 -50.558388m-50.55835 50.558388l0 25.725075" fill-rule="evenodd"/><path fill="#ffffff" d="m427.00394 60.60771l0 0c0 -2.716545 2.202179 -4.9187355 4.9187317 -4.9187355l23.044434 0c1.3045349 0 2.5556335 0.5182228 3.4780579 1.4406624c0.92245483 0.9224434 1.4406738 2.173542 1.4406738 3.4780731l0 19.67434c0 2.716545 -2.2022095 4.9187393 -4.9187317 4.9187393l-23.044434 0c-2.7165527 0 -4.9187317 -2.2021942 -4.9187317 -4.9187393z" fill-rule="evenodd"/><path stroke="#000000" stroke-width="1.0" stroke-linejoin="round" stroke-linecap="butt" d="m427.00394 60.60771l0 0c0 -2.716545 2.202179 -4.9187355 4.9187317 -4.9187355l23.044434 0c1.3045349 0 2.5556335 0.5182228 3.4780579 1.4406624c0.92245483 0.9224434 1.4406738 2.173542 1.4406738 3.4780731l0 19.67434c0 2.716545 -2.2022095 4.9187393 -4.9187317 4.9187393l-23.044434 0c-2.7165527 0 -4.9187317 -2.2021942 -4.9187317 -4.9187393z" fill-rule="evenodd"/><path fill="#000000" d="m437.41333 77.36488l5.125 -13.359375l1.90625 0l5.46875 13.359375l-2.015625 0l-1.546875 -4.046875l-5.59375 0l-1.46875 4.046875l-1.875 0zm3.859375 -5.484375l4.53125 0l-1.40625 -3.703125q-0.625 -1.6875 -0.9375 -2.765625q-0.265625 1.28125 -0.71875 2.546875l-1.46875 3.921875z" fill-rule="nonzero"/><path fill="#ffffff" d="m378.94357 120.45548l0 0c0 -2.716545 2.202179 -4.9187393 4.9187317 -4.9187393l23.044434 0c1.3045044 0 2.555603 0.5182266 3.4780579 1.4406662c0.92245483 0.9224396 1.4406738 2.1735382 1.4406738 3.4780731l0 19.67434c0 2.7165375 -2.2022095 4.9187317 -4.9187317 4.9187317l-23.044434 0c-2.7165527 0 -4.9187317 -2.2021942 -4.9187317 -4.9187317z" fill-rule="evenodd"/><path stroke="#000000" stroke-width="1.0" stroke-linejoin="round" stroke-linecap="butt" d="m378.94357 120.45548l0 0c0 -2.716545 2.202179 -4.9187393 4.9187317 -4.9187393l23.044434 0c1.3045044 0 2.555603 0.5182266 3.4780579 1.4406662c0.92245483 0.9224396 1.4406738 2.1735382 1.4406738 3.4780731l0 19.67434c0 2.7165375 -2.2022095 4.9187317 -4.9187317 4.9187317l-23.044434 0c-2.7165527 0 -4.9187317 -2.2021942 -4.9187317 -4.9187317z" fill-rule="evenodd"/><path fill="#000000" d="m390.7436 137.21265l0 -13.359375l5.015625 0q1.53125 0 2.453125 0.40625q0.921875 0.40625 1.4375 1.25q0.53125 0.84375 0.53125 1.765625q0 0.859375 -0.46875 1.625q-0.453125 0.75 -1.390625 1.203125q1.203125 0.359375 1.859375 1.21875q0.65625 0.859375 0.65625 2.015625q0 0.9375 -0.40625 1.75q-0.390625 0.796875 -0.984375 1.234375q-0.578125 0.4375 -1.453125 0.671875q-0.875 0.21875 -2.15625 0.21875l-5.09375 0zm1.78125 -7.75l2.875 0q1.1875 0 1.6875 -0.140625q0.671875 -0.203125 1.015625 -0.671875q0.34375 -0.46875 0.34375 -1.171875q0 -0.65625 -0.328125 -1.15625q-0.3125 -0.515625 -0.90625 -0.703125q-0.59375 -0.1875 -2.03125 -0.1875l-2.65625 0l0 4.03125zm0 6.171875l3.3125 0q0.859375 0 1.203125 -0.0625q0.609375 -0.109375 1.015625 -0.359375q0.421875 -0.265625 0.6875 -0.75q0.265625 -0.484375 0.265625 -1.125q0 -0.75 -0.390625 -1.296875q-0.375 -0.546875 -1.0625 -0.765625q-0.671875 -0.234375 -1.953125 -0.234375l-3.078125 0l0 4.59375z" fill-rule="nonzero"/><path fill="#ffffff" d="m515.521 73.42398l0 0c0 -2.7165375 2.2022095 -4.9187317 4.918762 -4.9187317l23.044373 0c1.3045654 0 2.555664 0.518219 3.4780884 1.4406662c0.9224243 0.9224396 1.4406738 2.1735382 1.4406738 3.4780655l0 19.674347c0 2.7165375 -2.2022095 4.9187317 -4.918762 4.9187317l-23.044373 0c-2.7165527 0 -4.918762 -2.2021942 -4.918762 -4.9187317z" fill-rule="evenodd"/><path stroke="#000000" stroke-width="1.0" stroke-linejoin="round" stroke-linecap="butt" d="m515.521 73.42398l0 0c0 -2.7165375 2.2022095 -4.9187317 4.918762 -4.9187317l23.044373 0c1.3045654 0 2.555664 0.518219 3.4780884 1.4406662c0.9224243 0.9224396 1.4406738 2.1735382 1.4406738 3.4780655l0 19.674347c0 2.7165375 -2.2022095 4.9187317 -4.918762 4.9187317l-23.044373 0c-2.7165527 0 -4.918762 -2.2021942 -4.918762 -4.9187317z" fill-rule="evenodd"/><path fill="#000000" d="m527.3992 90.18115l0 -13.359375l4.609375 0q1.546875 0 2.375 0.203125q1.140625 0.25 1.953125 0.953125q1.0625 0.890625 1.578125 2.28125q0.53125 1.390625 0.53125 3.171875q0 1.515625 -0.359375 2.703125q-0.359375 1.171875 -0.921875 1.9375q-0.546875 0.765625 -1.203125 1.21875q-0.65625 0.4375 -1.59375 0.671875q-0.9375 0.21875 -2.140625 0.21875l-4.828125 0zm1.765625 -1.578125l2.859375 0q1.3125 0 2.0625 -0.234375q0.75 -0.25 1.203125 -0.703125q0.625 -0.625 0.96875 -1.6875q0.359375 -1.0625 0.359375 -2.578125q0 -2.09375 -0.6875 -3.21875q-0.6875 -1.125 -1.671875 -1.5q-0.703125 -0.28125 -2.28125 -0.28125l-2.8125 0l0 10.203125z" fill-rule="nonzero"/><path fill="#ffffff" d="m604.9147 73.42398l0 0c0 -2.7165375 2.2022095 -4.9187317 4.918762 -4.9187317l23.044434 0c1.3045044 0 2.555603 0.518219 3.4780273 1.4406662c0.92248535 0.9224396 1.4406738 2.1735382 1.4406738 3.4780655l0 19.674347c0 2.7165375 -2.2021484 4.9187317 -4.918701 4.9187317l-23.044434 0c-2.7165527 0 -4.918762 -2.2021942 -4.918762 -4.9187317z" fill-rule="evenodd"/><path stroke="#000000" stroke-width="1.0" stroke-linejoin="round" stroke-linecap="butt" d="m604.9147 73.42398l0 0c0 -2.7165375 2.2022095 -4.9187317 4.918762 -4.9187317l23.044434 0c1.3045044 0 2.555603 0.518219 3.4780273 1.4406662c0.92248535 0.9224396 1.4406738 2.1735382 1.4406738 3.4780655l0 19.674347c0 2.7165375 -2.2021484 4.9187317 -4.918701 4.9187317l-23.044434 0c-2.7165527 0 -4.918762 -2.2021942 -4.918762 -4.9187317z" fill-rule="evenodd"/><path fill="#000000" d="m617.1889 90.18115l0 -13.359375l9.015625 0l0 1.578125l-7.25 0l0 4.140625l6.265625 0l0 1.578125l-6.265625 0l0 6.0625l-1.765625 0z" fill-rule="nonzero"/><path fill="#ffffff" d="m560.21783 73.42398l0 0c0 -2.7165375 2.2022095 -4.9187317 4.918762 -4.9187317l23.044434 0c1.3045044 0 2.555603 0.518219 3.4780273 1.4406662c0.92248535 0.9224396 1.4406738 2.1735382 1.4406738 3.4780655l0 19.674347c0 2.7165375 -2.2022095 4.9187317 -4.918701 4.9187317l-23.044434 0c-2.7165527 0 -4.918762 -2.2021942 -4.918762 -4.9187317z" fill-rule="evenodd"/><path stroke="#000000" stroke-width="1.0" stroke-linejoin="round" stroke-linecap="butt" d="m560.21783 73.42398l0 0c0 -2.7165375 2.2022095 -4.9187317 4.918762 -4.9187317l23.044434 0c1.3045044 0 2.555603 0.518219 3.4780273 1.4406662c0.92248535 0.9224396 1.4406738 2.1735382 1.4406738 3.4780655l0 19.674347c0 2.7165375 -2.2022095 4.9187317 -4.918701 4.9187317l-23.044434 0c-2.7165527 0 -4.918762 -2.2021942 -4.918762 -4.9187317z" fill-rule="evenodd"/><path fill="#000000" d="m572.12726 90.18115l0 -13.359375l9.65625 0l0 1.578125l-7.875 0l0 4.09375l7.375 0l0 1.5625l-7.375 0l0 4.546875l8.1875 0l0 1.578125l-9.96875 0z" fill-rule="nonzero"/></g></svg>