<svg xmlns="http://www.w3.org/2000/svg" viewBox="0 0 900 900"><defs><style>.c{fill:#fff}.e,.f,.g{fill:none;stroke:#fff;stroke-width:2.5px}.e,.g{stroke-miterlimit:10}.f{stroke-linejoin:bevel}.g{stroke-dasharray:0 0 5 10}</style></defs><g id="b"><circle cx="394.47" cy="305.22" r="7.39" class="c"/><path d="m332.79 649.07 88.55 53.4M309.07 583.56l155.19 92.93" class="g"/><path d="m360.35 684.39 110.12-63.81M496.94 270.7v-25.36M703.94 341.23v170.79l-157.62 92.47-163.39-94.7M527.69 205.53l89.72 50.45" class="e"/><path d="m383.63 530.89 162.8 95.67 157.51-93.44v-21.1L471.65 375.46" class="e"/><path d="M471.65 337.17v38.29l-130.46 78.27M441.94 239l86.16 51.2v79.56l-86.16-51.2V239zM441.94 133.52l86.16 51.2v79.55l-86.16-51.2v-79.55zM647.12 351.27l29.37 16.94M551.69 296.21l85.87 49.36M551.69 270.18l107.29 62.4M553.95 325.24l82.17 48.47M551.69 373.52l127.34 72M551.69 351.5l110.45 62.14M457.76 281.57l48 27.11M457.57 297.2l48 27.1M457.76 178.42l26.59 15.01M457.57 194.04l48 27.11" class="e"/><path d="m485.05 365.9 205.38 121.75V332.89" class="e"/><path d="m581.7 477.05 10.61-6.54-9.88-5.84-10.64 6.56 9.91 5.82zM516.67 438.04l10.62-6.55-9.89-5.84-10.63 6.56 9.9 5.83zM583.28 489.85l-10.64 6.57 9.91 5.82 10.61-6.54-9.88-5.85zM451.54 412.3l-10.63 6.57 9.9 5.82 10.61-6.55-9.88-5.84zM494.12 424.93l10.61-6.55-9.88-5.84-10.64 6.56 9.91 5.83zM473.26 399.63l-10.64 6.56 9.91 5.82 10.61-6.54-9.88-5.84zM538.16 464.23l-10.64 6.57 9.91 5.82 10.61-6.54-9.88-5.85zM495.68 438.33l-10.63 6.56 9.91 5.83 10.61-6.55-9.89-5.84zM560.71 477.34l-10.63 6.57 9.9 5.82 10.62-6.54-9.89-5.85zM604.27 489.56l10.61-6.54-9.89-5.85-10.63 6.57 9.91 5.82zM474.55 451.19l-10.63 6.57 9.91 5.82 10.61-6.55-9.89-5.84zM516.57 451.32l-10.64 6.56 9.91 5.83 10.61-6.55-9.88-5.84zM430.41 425.17l-10.64 6.56 9.91 5.83 10.61-6.55-9.88-5.84zM604.87 502.77l-10.63 6.56 9.9 5.83 10.61-6.55-9.88-5.84zM583.74 515.63l-10.64 6.57 9.91 5.82 10.61-6.54-9.88-5.85zM562.15 502.72l-10.64 6.56 9.91 5.83 10.61-6.55-9.88-5.84zM649.14 503.2l-10.63 6.56 9.9 5.83 10.61-6.55-9.88-5.84z" class="c"/><path d="m471.5 376.91-130.11 77.21 41.59 24.65 1.75 31.35 163.01 94.94 156.14-92.89L471.5 376.92ZM625.93 489.7l1.27-2.15 14.1 8.33-14.78 9.12-1.31-2.13 11.25-6.94-10.54-6.23Zm-6.22-6.74-15.42 9.51-14.78-8.69 15.45-9.53 14.75 8.71Zm-146.66-44.98-1.27 2.15-14.13-8.31 14.81-9.14 1.31 2.13-11.28 6.96 10.56 6.21Zm-9.41 4.85 1.31 2.13-13.65 8.43-12.99-7.64 1.27-2.15 11.69 6.88 12.37-7.63Zm10.88 5.43 14.75 8.71-15.42 9.51-14.78-8.69 15.45-9.53Zm5.68-3.33 15.45-9.53 14.75 8.71-15.42 9.51-14.78-8.69Zm36.33 3.46 14.75 8.72-15.42 9.51-14.78-8.69 15.45-9.53Zm21.59 12.92 14.75 8.71-15.42 9.51-14.78-8.69 15.45-9.53Zm22.55 13.11 14.75 8.72-15.42 9.51-14.78-8.69 15.45-9.53Zm22.57 12.51 14.75 8.71-15.42 9.51-14.78-8.69 15.45-9.53Zm21.59 12.92 14.75 8.71-15.42 9.51-14.78-8.69 15.45-9.53Zm-7.69-29.39-15.42 9.51-14.78-8.69 15.45-9.53 14.75 8.71Zm-25.63-14.15 1.31 2.13-13.65 8.43-12.99-7.64 1.27-2.15 11.69 6.88 12.37-7.63Zm-20.3-12.93-1.27 2.15-11.67-6.89-12.4 7.65-1.31-2.13 13.68-8.45 12.97 7.66Zm-19.1-11.94-15.42 9.51-14.78-8.69 15.45-9.53 14.75 8.71Zm-22.55-13.11-15.42 9.51-14.78-8.69 15.45-9.53 14.75 8.72Zm-36.34-21.63 14.75 8.71-15.42 9.51-14.78-8.69 15.45-9.53Zm-21.72 12.68 14.75 8.71-15.42 9.51-14.78-8.69 15.45-9.53Zm-21.13 12.87 14.75 8.71-15.42 9.51-14.78-8.69 15.45-9.53Zm55.26 123.79-74.56-44.19 42.35-23.01 70.88 42.35-38.66 24.85Zm-5.68-75.25 15.45-9.53L554.3 496l-15.42 9.51-58.93-34.72Zm66.71 38.54 15.45-9.53 14.75 8.71-15.42 9.51-14.78-8.69Zm21.59 12.92 15.45-9.53 14.75 8.71-15.42 9.51-14.78-8.69Zm49.7 13.39-11.67-6.89-12.4 7.65-1.31-2.13 13.68-8.45 12.97 7.66-1.27 2.15Zm8.77-4.45-14.78-8.69 15.45-9.53 14.75 8.71-15.42 9.51Zm6.93-21.37 15.45-9.53 14.75 8.71-15.42 9.51-14.78-8.69Z" class="c"/><path d="m626.7 528.27 10.61-6.55-9.89-5.84-10.63 6.56 9.91 5.83zM495.43 464.18l-10.63 6.57 54.05 31.85 10.61-6.55-54.03-31.87z" class="c"/><path d="m296.73 441.42-61.99 37.49-65.62-37.49-62.94 39.7-.95 69.26 130.84 77.43 124.55-75.43.67-71.95-64.56-39.01z" style="fill:#9be583"/><path d="m256.97 627.02-128.2-76.16v-70.25l63.31-38.77 64.1 36.4 62.52-37.19 64.1 37.98-125.65 73.6-128.38-72.02" class="e"/><path d="M383.59 479.03v72.81l-126.62 75.18" class="e"/><path d="M193.66 589.82v-73.6l62.52-37.98 62.52 38.78v73.59" class="e"/><circle cx="571.11" cy="179.95" r="14.36" class="c"/><circle cx="546.56" cy="150.72" r="7.39" class="c"/><path d="m617.57 607.07 28.7 19.55s-14.2 1.18-19.55 10.4c-4.63 7.99-1.17 13.2 8.32 18.72 10.63 6.18 27.45 6.65 36.6 1.66 6.74-3.67 9.41-6.9 10.36-8.34.29-.44.87-.57 1.32-.31l28.22 16.24c.78.45 1.74.41 2.49-.09l20.83-14.15s-8.43-8.6-10.4-14.14c-2.37-6.68 3.74-16.64 16.64-19.96 12.89-3.33 24.54-2.5 31.61 2.08 6.93 4.49 7.9 5.41 7.9 5.41l3.24-2.43c.06-.04.12-.09.19-.13l24.44-14.91M781.13 646.71l-.52-22.58M712.81 665.72v25.35" class="e"/><path d="m681.62 673.19 31.19 17.88 22.09-13.15v-25.41c-.03-2.88 18.48-24.64 47.35-4.78l26.7-16.68v-24.28l-94.9-56.67-96.49 56.98v33.27l5.79 4.25v25.28c2.76 3.94 11.87 11.81 25.32 13.12 18.61 1.82 28.25-7.62 32.94-9.51v-23.52" class="e"/><path d="m672.02 586.81 42.54-25.78 75.86 46.3M729.9 644.04s14.78-20.14 40.94-9.88M672.95 711.98l-24.44 14.91c-.06.04-.13.08-.19.13l-3.24 2.43s-.97-.92-7.9-5.41c-7.07-4.58-18.72-5.41-31.61-2.08s-19.01 13.28-16.64 19.96c1.97 5.54 10.4 14.14 10.4 14.14l-20.83 14.15c-.74.5-1.71.54-2.49.09l-93.97-57.91M645.6 752.03l-.52-22.59M577.29 771.04v25.35" class="e"/><path d="m643.61 694.27 29.82 17.81v24.28l-26.7 16.68c-28.87-19.87-47.38 1.9-47.35 4.78v24.41l-22.09 14.15-95.25-59.72v-24.27l96.49-56.98 30.69 18.33v33.83" class="e"/><path d="M594.37 749.36s14.78-20.14 40.94-9.88M607.58 673.78s-14.2 1.18-19.55 10.4c-4.63 7.99-1.17 13.2 8.32 18.72 10.63 6.18 27.45 6.65 36.6 1.66 6.74-3.67 9.41-6.9 10.36-8.34.29-.44.87-.57 1.32-.31M343.39 311.97l-85.61 50.19-86.17-49.92" class="e"/><path d="m295 283.94 48.39 27.89v82.28l-85.61 52.49-86.17-49.93v-84.43l47.02-27.56M257.78 362.16v84.44M319.39 209.46l-61.69 36.16-62.09-35.97" class="e"/><path d="m195.61 209.65 61.7-36.17 62.08 35.98v60.84l-61.69 36.17-62.09-35.98v-60.84zM257.7 245.62v60.85" class="e"/><path d="m219.79 285.02-46.87 27.11 84.71 49.98 83.22-47.55a1.686 1.686 0 0 0 0-2.93L295 285.07l-31.9 19a10.774 10.774 0 0 1-10.98.02l-32.34-19.07ZM196.83 209.82l61.36 35.96 59.86-35.96-61.74-35.76-59.48 35.76z" class="c"/><path d="M266.38 370.71v60.01l68.05-41.51M265.81 290.67l45.46-26.82M249.44 370.71v60.85M249.44 252.68v38.84" class="e"/><path d="m731.56 358.38 19.66 11.74v-64.61l-114.3-68.33-19.82-11.78v64.62l58.81 35.12 55.65 33.24zM751.37 306.66l16.79-10.19" class="f"/><path d="m751.22 370.12 16.94-9.03v-64.62l-114.3-68.33-19.82-11.77-16.94 9.03" class="f"/><path d="m634.04 216.37-14.93 9.53 133.27 80.19 15.78-9.62-134.12-80.1z" class="c"/><circle cx="279.02" cy="682.47" r="14.36" class="c"/><circle cx="252.21" cy="727.78" r="7.39" class="c"/><path d="m666.72 278.83 65.44 38.81M665.59 295.77l65.44 38.81" class="e"/><ellipse cx="642.94" cy="272.74" class="e" rx="8.8" ry="12.96" transform="rotate(-29.84 643.006 272.762)"/></g></svg>