<svg xmlns="http://www.w3.org/2000/svg" id="Layer_1" viewBox="0 0 40 25"><defs><style>.cls-1{fill:#9be583}.cls-2{fill:#303030}</style></defs><path d="m9.1 18.74-1.24.2 3.22 1.58.69 2.83.63-.87-.58-2.41-2.72-1.33z" class="cls-1"/><path d="M14.03 17.97c-.01.34-.03.66-.04.86.12-.02.31-.05.52-.11.12-.03.24.03.28.14.04.09.04.27-.34.48-.35.19-.68.36-.92.36-.08 0-.16-.02-.21-.07-.18-.12-.17-.33-.14-.46l-.09-1.05-.8.13v.13h.34c.24 0 .37.05.4.17.03.16-.15.26-.36.34-.05.02-.11.05-.18.08-.25.11-.52.24-.73.24-.11 0-.2-.03-.26-.11-.07-.13-.04-.24-.03-.29v-.41l-1.97.31 2.51 1.23.57 2.31 3.29-4.54-1.85.29Z" class="cls-1"/><circle cx="20.6" cy="5.48" r=".46" class="cls-1"/><path d="M31.97 8.87c.12 0 .23-.1.23-.23s-.1-.23-.23-.23-.23.1-.23.23.1.23.23.23ZM25.26 16.42c-.35 0-.63.28-.63.63s.28.63.63.63.63-.28.63-.63-.28-.63-.63-.63Z" class="cls-1"/><path d="M14.1 16.26c.33-.16.54-.33.55-.33l.05-.04-.23-2.31h.01c.11 0 .23-.05.3-.12.05-.06.08-.12.07-.19-.02-.25-.08-.31-.26-.37-.02 0-.05-.01-.07-.02.02-.06.04-.15.06-.24.03-.11.06-.23.08-.34l.11-.52v.02c0-.08.02-.16.02-.24v-.14c0-.5-.08-1.5-.53-1.95-.27-.27-.6-.35-.77-.38v-.07c.31-.13.58-.37.38-1.32 0 0 .01-.02.02-.03-.09.03-.18.06-.28.09-.02.02-.08.09-.05.23.05.2-.01.31-.09.35-.07.03-.15.02-.2-.05-.01-.01-.04-.03-.05-.03 0 .03.05.13.08.18l.03.06-.04.02.04-.02c.02.06.05.2-.04.33-.1.14-.31.2-.62.2h-.03c-.05 0-.15 0-.26-.01h-.14c-.04 0-.08 0-.13-.01-.1.02-.2.06-.27.11-.09.05-.85.51-.88 2.29 0 .55.32.82.45.91v.11l-.03.17c-.19.38-.12.81-.07 1.17.02.1.03.19.04.28.03.36-.16 1.69-.16 1.7v.05l.02.04s.12.15.31.31c0 .22-.04 1.02-.06 1.72l-3.19.5.8.39 2.72 1.33.59 2.4.15.63 4.42-6.11-2.93.46c.02-.54.04-1.03.05-1.19Zm-2.4 2.59v-.04c.07 0 .16-.02.23-.07.06-.04.1-.09.14-.13h.6c-.03.01-.06.03-.1.04-.06.02-.12.05-.19.08-.19.09-.63.29-.69.21 0-.02-.01-.04 0-.1Zm.76-2.3c.11.02.23.03.36.03.04 0 .09 0 .13-.01l.09 1.04-.71.11c.03-.37.08-.78.13-1.17Zm.95 2.7s.1.01.16 0c.15-.06.24-.13.29-.18v.03s.32-.03.7-.15c0 0-.01.07-.25.2-.48.26-.76.36-.85.29-.08-.05-.06-.14-.05-.18ZM12.29 9.2c.11.15.26.2.42.22.01 0 .02 0 .03.01H12.93s.09-.01.14-.02c.16-.03.3-.08.36-.11.1.01.43.07.69.33.37.36.46 1.28.46 1.77 0 .04-.03.24-.2.24-.23 0-.31-.11-.31-.11l-.2.13s.15.22.51.22c.06 0 .11-.02.16-.04-.02.11-.05.24-.08.37-.08.09-.15.14-.23.15a.32.32 0 0 1-.21-.08c-.08-.37-.2-.76-.22-.84l-.03-.79h-.24l.03.81v.03s.16.5.24.92v.09c-.52.09-1.65.2-2.1-.12v-.16c-.02-.19-.04-1.48 0-1.82 0-.84.17-1.18.62-1.2Zm-.86 1.19c-.04.28-.03 1.12-.02 1.57-.1-.12-.2-.3-.2-.57 0-.59.1-1.02.22-1.33 0 .11-.01.22-.01.33Zm.03 5.32c.04-.25.18-1.36.15-1.71 0-.09-.02-.19-.04-.29-.05-.34-.11-.73.05-1.04v-.02c.63.31 1.81.15 2.19.09 0 .04.01.07.02.11.02.14.05.27.08.34.04.09.17.19.3.27l.23 2.3c-.13.09-.47.32-.93.46-.24.07-.48.11-.7.11-.77 0-1.24-.49-1.36-.62Zm4.98 1.6-3.78 5.22-.08-.32-.57-2.31-2.51-1.23-.42-.21 2.4-.37v.69c-.02.05-.04.17.03.29.06.08.15.11.26.11.21 0 .48-.12.73-.24.07-.03.13-.06.18-.08.21-.08.39-.18.36-.34-.02-.12-.16-.16-.4-.17h-.34v-.13c0-.08 0-.17.02-.28l.76-.12.02.27.09 1.05c-.04.13-.04.34.14.46.06.05.13.07.21.07.24 0 .56-.16.92-.36.38-.21.37-.39.34-.48a.238.238 0 0 0-.28-.14c-.21.06-.4.09-.52.11.01-.21.02-.52.04-.86 0-.09 0-.18.01-.28l2.41-.38Z" class="cls-2"/><path d="M11.94 7.5c-.04.08-.09.16-.11.26-.03.17-.02.35.02.52.05.19.13.34.22.46.11.01.26.03.38.03h.23c.33 0 .41-.07.43-.1a.1.1 0 0 0 .01-.09l-.02-.04c-.07-.12-.15-.25-.09-.38.04-.09.1-.14.19-.15.05 0 .11 0 .15.02-.06-.28.08-.44.16-.5h.03l.14-.06c.08-.03.16-.05.24-.08-.07-.14-.27-.39-.76-.46-.02 0-.14-.02-.3-.01 0-.03.02-.05.02-.07 0-.21-.13-.48-.39-.59-.2-.09-.41-.1-.59-.03-.16.06-.28.19-.34.34v.02s-.09.48.2.77c.07.07.13.1.2.12ZM20.65 16.73h-.01l-.1.21c.06.04.11.06.15.08h.01l.12-.2h-.02s-.07-.04-.1-.06l-.06-.03ZM24.4 12.66l-.21.15h.03s.08.09.12.13v.02l.18-.18-.11-.12ZM24.76 12.97l-.14.2h.02s.02.01.03.02c0 0 .02 0 .03.02l.1.05.12-.2-.1-.06s-.04-.02-.05-.03ZM29.36 16.02h.01s.05.09.08.14v.02l.22-.12c-.03-.06-.06-.12-.1-.17l-.2.13ZM24.24 11.02c.02-.06.05-.1.07-.14l-.22-.14v.02c-.02.05-.06.1-.08.16l.22.11h.01ZM24.1 11.47c0-.05.02-.1.03-.15v-.02l-.23-.05c-.02.07-.03.13-.04.19l.24.05v-.02ZM23.86 11.99l.24-.03c0-.06 0-.11-.02-.17h-.24c0 .08 0 .13.02.19ZM21.27 17.07l-.17-.1-.12.21.17.1.12-.21zM24.23 12.39s-.04-.09-.06-.14l-.23.07h.01c.02.08.05.13.07.18v.02l.22-.11v-.02ZM24.75 18.94s-.06-.02-.08-.03h-.02l-.07.22s.1.04.15.05h.03l.07-.22s-.06-.02-.08-.02ZM20.24 16.82h.03l.07-.22h-.01s-.05-.02-.07-.02a.3.3 0 0 0-.1-.04l-.07.23h.01s.1.04.15.05ZM24.5 10.63s.07-.09.11-.12h.01l-.16-.18-.13.13v.02l.17.16ZM25.15 19.04h-.02l-.05.23h.02l.12.03s.03.01.05.01h.01l.04-.23s-.11-.03-.16-.04ZM27.07 9.09l.17-.09-.11-.21-.18.09.12.21zM29.17 15.49l-.14.19v.02s.09.06.13.09h.02l.16-.16h-.02s-.08-.09-.13-.12l-.02-.02ZM24.9 10.03l-.08.03-.09.06.13.21s.05-.04.08-.05l.08-.05-.11-.19h-.01ZM29.57 16.44c.02.06.03.12.04.17l.24-.03v-.02c-.02-.05-.03-.12-.05-.18l-.23.06ZM19.78 16.69h.01l.05-.23h-.01c-.07-.02-.13-.03-.18-.04h-.01l-.04.24h.01c.07 0 .12.02.17.03ZM24.21 18.73h-.02l-.1.21h.02s.05.03.08.04c.03 0 .05.02.08.03h.01l.09-.22h-.03s-.09-.04-.13-.06ZM26.62 9.34l.18-.09-.12-.22-.17.1.11.21zM25.06 13.42l.17.1.12-.21-.17-.1-.12.21zM25.17 9.87l.12.21.17-.09-.12-.21-.17.09zM21.71 17.32l-.17-.1-.12.21.17.1.12-.21zM27.27 14.68l.18.1.12-.21-.18-.1-.12.21zM17.75 16.57l-.1.03c-.02 0-.04.02-.06.02h-.02l.08.24h.02a.64.64 0 0 1 .16-.06h.01l-.07-.24h-.02ZM29.64 16.92v.16l.24.04V16.92h-.24ZM27.28 19.01c-.05.01-.11.03-.16.04h-.02l.05.24h.02s.11-.03.17-.05l-.05-.24h-.02ZM27.76 18.87s-.11.04-.16.05l.07.23.17-.05-.08-.24ZM22.75 18.19l.17.1.12-.21-.17-.1-.12.21zM22.31 17.94l.17.1.12-.21-.17-.1-.12.21zM21.86 17.69l.18.09.12-.2-.18-.1-.12.21zM28.16 15.18l.17.1.12-.21-.17-.1-.12.21zM28.68 18.44l-.15.08h-.02l.12.23.02-.02.14-.09-.11-.19v-.02ZM29.57 17.39s-.03.1-.05.15l.22.1h.01l.06-.18v-.02l-.23-.06ZM28.23 18.68s-.1.05-.15.07h-.02l.1.23h.02s.1-.06.15-.08h.02l-.1-.21h-.01ZM29.37 17.82s-.05.08-.09.13h-.01l.19.16c.04-.06.07-.11.1-.16h.01l-.2-.14ZM29.06 18.18s-.06.06-.1.08l-.03.03.14.19h.01s.09-.08.14-.12l-.16-.19ZM28.6 15.44l.18.09.12-.21-.18-.1-.12.22zM18.09 16.47h-.02l.06.24h.04s.09-.03.13-.04h.02l-.04-.22h-.02s-.1 0-.17.02ZM26.24 13.81l-.17-.1-.12.21.17.1.12-.21zM26.06 9.38l.12.21.17-.1-.12-.21-.17.1zM26.51 13.96l-.12.21.17.1.12-.21-.17-.1zM27.72 14.93l.17.1.12-.21-.17-.1-.12.21zM25.8 13.56l-.18-.1-.12.21.18.1.12-.21zM25.61 9.63l.12.21.18-.1-.12-.21-.18.1zM26.14 19.15l-.02.22.02.02s.11 0 .17-.01v-.24h-.17ZM26.79 19.1s-.1.02-.16.02h-.02l.03.24c.06 0 .12 0 .17-.02h.02l-.03-.22-.02-.02ZM26.95 14.22l-.12.2.18.1.11-.21-.17-.09zM19.12 16.37v.24H19.29l.02-.24h-.19ZM23.19 18.44l.17.1.12-.21-.17-.1-.12.21zM23.87 18.55l-.12-.06-.12.21.12.06s.03.02.05.03l.12-.2-.03-.02s-.02 0-.03-.02ZM18.61 16.39h-.02l.02.24H18.81v-.25h-.03c-.06 0-.12 0-.17.02ZM17.26 16.76s-.1.05-.15.08h-.01l.1.22h.02c.06-.04.1-.06.15-.08h.01l-.1-.23h-.02ZM25.64 19.12h-.02l-.02.24h.18l.02-.23h-.07s-.08-.01-.11-.02ZM17.96 9.25l-.17-.11-.12.21.17.1.12-.2zM17.53 8.98l-.17-.1-.13.21.17.1.13-.21zM17.09 8.72l-.17-.1-.13.21.17.1.13-.21zM19.54 10.19l-.12.2.17.1.12-.2-.17-.1zM18.4 9.51l-.17-.11-.12.21.17.1.12-.2zM20.59 10.81l-.17-.1-.13.2.18.1.12-.2zM20.15 10.55l-.17-.1-.12.2.17.1.12-.2zM18.84 9.77l-.17-.1-.13.2.18.1.12-.2zM29.63 11.47l3.73 2.23.13-.21-3.74-2.22-.12.2zM33.49 12.46l-1.87-1.11-.12.21 1.86 1.11.13-.21zM29.627 10.452l.123-.206 1.126.67-.123.206zM30.926 13.295l.123-.206 1.126.67-.123.206zM19.09 10.2l.06.03.08-.11 1.5-.89-.12-.2-4.14 2.42.12.21 2.5-1.46zM18.78 21.05l.13.21.17-.11-.13-.2-.17.1zM18.35 21.32l.12.2.17-.1-.12-.21-.17.11zM20.53 19.99l.12.21.17-.11-.12-.2-.17.1zM20.39 20.36l-.13-.21-.17.11.13.2.17-.1zM19.95 20.62l-.12-.2-.17.1.12.21.17-.11zM19.39 20.68l-.02.02-1.31-.78-.12.21 1.37.81.03.05.03-.01 2.31 1.37.12-.21-2.39-1.42-.02-.04zM27.61 8.9l.09-.06.49-.31.09-.06c.1-.06 2.44-1.6 2.5-3.34.05-1.31-.98-2.72-2.3-3.14-.61-.2-1.2-.15-1.67.12l-.13.07-.56.36s-.02 0-.03.01h-.01l-.02.02c-.43.32-.68.82-.71 1.43-.07 1.8 2.09 4.7 2.18 4.82l.07.09Zm-1.39-6.15.04-.03c.25-.17.55-.26.88-.26.22 0 .45.04.69.12 1.22.4 2.18 1.7 2.13 2.9-.05 1.43-1.86 2.78-2.3 3.09-.37-.51-2.12-3.04-2.06-4.57.02-.54.24-.98.62-1.25Z" class="cls-2"/><path d="M28.09 5.93c.2 0 .39-.05.54-.16.23-.16.37-.42.38-.74.02-.65-.49-1.35-1.14-1.56-.34-.11-.67-.07-.92.1-.23.16-.37.42-.38.74-.02.65.49 1.35 1.14 1.56.13.04.26.06.38.06Zm-.61-2.29c.1 0 .2.02.31.05.56.18 1 .78.98 1.32 0 .11-.03.21-.07.29-.1 0-.21 0-.32-.04-.56-.18-1-.78-.97-1.33 0-.11.03-.21.07-.3h.01Z" class="cls-2"/></svg>