<?xml version="1.0" encoding="UTF-8" standalone="no"?>
<!DOCTYPE svg PUBLIC "-//W3C//DTD SVG 1.1//EN"
 "http://www.w3.org/Graphics/SVG/1.1/DTD/svg11.dtd">
<!-- Generated by graphviz version 2.43.0 (0)
 -->
<!-- Title: mygraph Pages: 1 -->
<svg width="400pt" height="404pt"
 viewBox="0.00 0.00 615.00 404.00" xmlns="http://www.w3.org/2000/svg" xmlns:xlink="http://www.w3.org/1999/xlink">
<g id="graph0" class="graph" transform="scale(1 1) rotate(0) translate(4 400)">
<title>mygraph</title>
<polygon fill="white" stroke="transparent" points="-4,4 -4,-400 611,-400 611,4 -4,4"/>
<!-- &lt;root&gt; -->
<g id="node1" class="node">
<title>&lt;root&gt;</title>
<polygon fill="none" stroke="black" points="363.5,-396 163.5,-396 163.5,-360 363.5,-360 363.5,-396"/>
<text text-anchor="middle" x="263.5" y="-374.3" font-family="Times,serif" font-size="14.00">&lt;root&gt; (my_project@1.0)</text>
</g>
<!-- bazel_skylib@1.1.1 -->
<g id="node2" class="node">
<title>bazel_skylib@1.1.1</title>
<polygon fill="none" stroke="black" points="153,-108 0,-108 0,-72 153,-72 153,-108"/>
<text text-anchor="middle" x="76.5" y="-86.3" font-family="Times,serif" font-size="14.00">bazel_skylib@1.1.1</text>
</g>
<!-- &lt;root&gt;&#45;&gt;bazel_skylib@1.1.1 -->
<g id="edge1" class="edge">
<title>&lt;root&gt;&#45;&gt;bazel_skylib@1.1.1</title>
<path fill="none" stroke="black" d="M163.09,-365.67C137.38,-357.88 112.28,-345.04 95.5,-324 47.62,-263.97 60.13,-165.41 69.92,-118.06"/>
<polygon fill="black" stroke="black" points="73.36,-118.75 72.07,-108.23 66.52,-117.25 73.36,-118.75"/>
</g>
<!-- bazel_skylib@1.2.0 -->
<g id="node3" class="node">
<title>bazel_skylib@1.2.0</title>
<polygon fill="none" stroke="black" points="258,-324 105,-324 105,-288 258,-288 258,-324"/>
<text text-anchor="middle" x="181.5" y="-302.3" font-family="Times,serif" font-size="14.00">bazel_skylib@1.2.0</text>
</g>
<!-- &lt;root&gt;&#45;&gt;bazel_skylib@1.2.0 -->
<g id="edge2" class="edge">
<title>&lt;root&gt;&#45;&gt;bazel_skylib@1.2.0</title>
<path fill="none" stroke="black" d="M243.23,-359.7C233,-350.97 220.44,-340.24 209.32,-330.75"/>
<polygon fill="black" stroke="black" points="211.41,-327.94 201.54,-324.1 206.87,-333.26 211.41,-327.94"/>
</g>
<!-- rules_java@5.0.0 -->
<g id="node4" class="node">
<title>rules_java@5.0.0</title>
<polygon fill="none" stroke="black" points="415,-324 276,-324 276,-288 415,-288 415,-324"/>
<text text-anchor="middle" x="345.5" y="-302.3" font-family="Times,serif" font-size="14.00">rules_java@5.0.0</text>
</g>
<!-- &lt;root&gt;&#45;&gt;rules_java@5.0.0 -->
<g id="edge3" class="edge">
<title>&lt;root&gt;&#45;&gt;rules_java@5.0.0</title>
<path fill="none" stroke="black" d="M283.77,-359.7C294,-350.97 306.56,-340.24 317.68,-330.75"/>
<polygon fill="black" stroke="black" points="320.13,-333.26 325.46,-324.1 315.59,-327.94 320.13,-333.26"/>
</g>
<!-- stardoc@0.5.0 -->
<g id="node5" class="node">
<title>stardoc@0.5.0</title>
<polygon fill="none" stroke="black" points="584.5,-252 464.5,-252 464.5,-216 584.5,-216 584.5,-252"/>
<text text-anchor="middle" x="524.5" y="-230.3" font-family="Times,serif" font-size="14.00">stardoc@0.5.0</text>
</g>
<!-- &lt;root&gt;&#45;&gt;stardoc@0.5.0 -->
<g id="edge4" class="edge">
<title>&lt;root&gt;&#45;&gt;stardoc@0.5.0</title>
<path fill="none" stroke="black" d="M336.31,-359.89C364.92,-351.44 397.34,-339.64 424.5,-324 454.55,-306.69 483.54,-279.33 502.5,-259.51"/>
<polygon fill="black" stroke="black" points="505.2,-261.74 509.49,-252.06 500.1,-256.95 505.2,-261.74"/>
</g>
<!-- platforms@0.0.4 -->
<g id="node6" class="node">
<title>platforms@0.0.4</title>
<polygon fill="none" stroke="black" points="287.5,-36 151.5,-36 151.5,0 287.5,0 287.5,-36"/>
<text text-anchor="middle" x="219.5" y="-14.3" font-family="Times,serif" font-size="14.00">platforms@0.0.4</text>
</g>
<!-- bazel_skylib@1.1.1&#45;&gt;platforms@0.0.4 -->
<g id="edge5" class="edge">
<title>bazel_skylib@1.1.1&#45;&gt;platforms@0.0.4</title>
<path fill="none" stroke="black" d="M111.48,-71.88C130.7,-62.47 154.73,-50.71 175.24,-40.67"/>
<polygon fill="black" stroke="black" points="176.94,-43.73 184.38,-36.19 173.86,-37.44 176.94,-43.73"/>
</g>
<!-- bazel_skylib@1.2.0&#45;&gt;platforms@0.0.4 -->
<g id="edge6" class="edge">
<title>bazel_skylib@1.2.0&#45;&gt;platforms@0.0.4</title>
<path fill="none" stroke="black" d="M182.35,-287.92C184.47,-249.22 190.9,-152.01 205.5,-72 207.06,-63.44 209.29,-54.24 211.52,-45.94"/>
<polygon fill="black" stroke="black" points="214.96,-46.61 214.28,-36.03 208.22,-44.73 214.96,-46.61"/>
</g>
<!-- rules_java@5.0.0&#45;&gt;platforms@0.0.4 -->
<g id="edge7" class="edge">
<title>rules_java@5.0.0&#45;&gt;platforms@0.0.4</title>
<path fill="none" stroke="black" d="M320.98,-287.86C308.28,-278.23 293.05,-265.47 281.5,-252 257.24,-223.7 250.5,-215.29 238.5,-180 223.19,-134.99 219.81,-79.29 219.28,-46.6"/>
<polygon fill="black" stroke="black" points="222.78,-46.41 219.2,-36.44 215.78,-46.47 222.78,-46.41"/>
</g>
<!-- rules_cc@0.0.1 -->
<g id="node7" class="node">
<title>rules_cc@0.0.1</title>
<polygon fill="none" stroke="black" points="373,-180 248,-180 248,-144 373,-144 373,-180"/>
<text text-anchor="middle" x="310.5" y="-158.3" font-family="Times,serif" font-size="14.00">rules_cc@0.0.1</text>
</g>
<!-- rules_java@5.0.0&#45;&gt;rules_cc@0.0.1 -->
<g id="edge8" class="edge">
<title>rules_java@5.0.0&#45;&gt;rules_cc@0.0.1</title>
<path fill="none" stroke="black" d="M319.38,-287.82C307.92,-278.69 295.69,-266.39 289.5,-252 280.87,-231.94 287.57,-207.75 295.62,-189.65"/>
<polygon fill="black" stroke="black" points="298.95,-190.82 300.15,-180.29 292.65,-187.77 298.95,-190.82"/>
</g>
<!-- rules_proto@4.0.0 -->
<g id="node8" class="node">
<title>rules_proto@4.0.0</title>
<polygon fill="none" stroke="black" points="446.5,-252 298.5,-252 298.5,-216 446.5,-216 446.5,-252"/>
<text text-anchor="middle" x="372.5" y="-230.3" font-family="Times,serif" font-size="14.00">rules_proto@4.0.0</text>
</g>
<!-- rules_java@5.0.0&#45;&gt;rules_proto@4.0.0 -->
<g id="edge9" class="edge">
<title>rules_java@5.0.0&#45;&gt;rules_proto@4.0.0</title>
<path fill="none" stroke="black" d="M352.17,-287.7C355.21,-279.81 358.88,-270.3 362.26,-261.55"/>
<polygon fill="black" stroke="black" points="365.57,-262.69 365.9,-252.1 359.04,-260.17 365.57,-262.69"/>
</g>
<!-- bazel_skylib@1.0.3 -->
<g id="node9" class="node">
<title>bazel_skylib@1.0.3</title>
<polygon fill="none" stroke="black" points="478,-108 325,-108 325,-72 478,-72 478,-108"/>
<text text-anchor="middle" x="401.5" y="-86.3" font-family="Times,serif" font-size="14.00">bazel_skylib@1.0.3</text>
</g>
<!-- stardoc@0.5.0&#45;&gt;bazel_skylib@1.0.3 -->
<g id="edge10" class="edge">
<title>stardoc@0.5.0&#45;&gt;bazel_skylib@1.0.3</title>
<path fill="none" stroke="black" d="M500.1,-215.97C487.2,-206.28 471.57,-193.43 459.5,-180 442.1,-160.64 426.25,-135.57 415.54,-116.98"/>
<polygon fill="black" stroke="black" points="418.53,-115.15 410.56,-108.16 412.43,-118.59 418.53,-115.15"/>
</g>
<!-- rules_java@4.0.0 -->
<g id="node10" class="node">
<title>rules_java@4.0.0</title>
<polygon fill="none" stroke="black" points="607,-180 468,-180 468,-144 607,-144 607,-180"/>
<text text-anchor="middle" x="537.5" y="-158.3" font-family="Times,serif" font-size="14.00">rules_java@4.0.0</text>
</g>
<!-- stardoc@0.5.0&#45;&gt;rules_java@4.0.0 -->
<g id="edge11" class="edge">
<title>stardoc@0.5.0&#45;&gt;rules_java@4.0.0</title>
<path fill="none" stroke="black" d="M527.71,-215.7C529.15,-207.98 530.87,-198.71 532.46,-190.11"/>
<polygon fill="black" stroke="black" points="535.94,-190.58 534.32,-180.1 529.06,-189.3 535.94,-190.58"/>
</g>
<!-- rules_cc@0.0.1&#45;&gt;platforms@0.0.4 -->
<g id="edge13" class="edge">
<title>rules_cc@0.0.1&#45;&gt;platforms@0.0.4</title>
<path fill="none" stroke="black" d="M299.52,-143.87C283.74,-119.24 254.51,-73.64 236.09,-44.88"/>
<polygon fill="black" stroke="black" points="238.86,-42.72 230.52,-36.19 232.96,-46.5 238.86,-42.72"/>
</g>
<!-- rules_cc@0.0.1&#45;&gt;bazel_skylib@1.0.3 -->
<g id="edge12" class="edge">
<title>rules_cc@0.0.1&#45;&gt;bazel_skylib@1.0.3</title>
<path fill="none" stroke="black" d="M332.99,-143.7C344.46,-134.88 358.56,-124.03 370.98,-114.47"/>
<polygon fill="black" stroke="black" points="373.47,-116.98 379.26,-108.1 369.2,-111.43 373.47,-116.98"/>
</g>
<!-- rules_proto@4.0.0&#45;&gt;rules_cc@0.0.1 -->
<g id="edge15" class="edge">
<title>rules_proto@4.0.0&#45;&gt;rules_cc@0.0.1</title>
<path fill="none" stroke="black" d="M357.17,-215.7C349.74,-207.3 340.68,-197.07 332.52,-187.86"/>
<polygon fill="black" stroke="black" points="334.9,-185.27 325.65,-180.1 329.66,-189.91 334.9,-185.27"/>
</g>
<!-- rules_proto@4.0.0&#45;&gt;bazel_skylib@1.0.3 -->
<g id="edge14" class="edge">
<title>rules_proto@4.0.0&#45;&gt;bazel_skylib@1.0.3</title>
<path fill="none" stroke="black" d="M376,-215.87C380.96,-191.56 390.1,-146.82 395.98,-118.01"/>
<polygon fill="black" stroke="black" points="399.42,-118.69 397.99,-108.19 392.56,-117.29 399.42,-118.69"/>
</g>
<!-- bazel_skylib@1.0.3&#45;&gt;platforms@0.0.4 -->
<g id="edge16" class="edge">
<title>bazel_skylib@1.0.3&#45;&gt;platforms@0.0.4</title>
<path fill="none" stroke="black" d="M356.98,-71.88C331.77,-62.18 300.05,-49.98 273.43,-39.74"/>
<polygon fill="black" stroke="black" points="274.47,-36.39 263.88,-36.07 271.95,-42.92 274.47,-36.39"/>
</g>
<!-- rules_java@4.0.0&#45;&gt;bazel_skylib@1.0.3 -->
<g id="edge17" class="edge">
<title>rules_java@4.0.0&#45;&gt;bazel_skylib@1.0.3</title>
<path fill="none" stroke="black" d="M504.23,-143.88C486.04,-134.51 463.31,-122.81 443.86,-112.8"/>
<polygon fill="black" stroke="black" points="445.39,-109.65 434.9,-108.19 442.19,-115.88 445.39,-109.65"/>
</g>
</g>
</svg>