<svg xmlns="http://www.w3.org/2000/svg" id="Layer_1" viewBox="0 0 53.52 33.45"><defs><style>.cls-1{fill:#9be583}.cls-2{fill:#303030}</style></defs><path d="M13.08 19.41c.38 0 .68-.31.68-.68s-.31-.68-.68-.68-.68.31-.68.68.31.68.68.68ZM28.82 15.91c.18 0 .33-.15.33-.33s-.15-.33-.33-.33-.33.15-.33.33.15.33.33.33ZM27.49 6.72a.939.939 0 1 0 0-1.88.939.939 0 1 0 0 1.88ZM32.42 10.49l1.18 4.07 1.28-2.61s-1.15-1.39-2.46-1.46ZM33.44 14.89l.03-.06-1.25-4.32c-.1 0-.2.01-.3.03h-.08v.05l1.19 4.05.08.28.12.4.13-.26.09-.18Z" class="cls-1"/><path d="m31.39 13.92.2.12 1.52.89-.08-.28-2.19-1.29c0-.34.11-2.11 1.02-2.76v-.05H31.93s.02-.02.03-.02c.08-.04.16-.06.25-.09l.02.08 1.25 4.32.03.1-.06-.03-.09.18 3.81 2.24h.03v-.02h.02l1-.62v-.05s.03-1.2-.36-2.6c-.36-1.3-1.16-3.05-2.92-4.03-.87-.49-1.6-.57-2.17-.23-.03.02-.06.05-.09.08l-.88.56c-1.14.75-1.15 2.94-1.15 3.03v.06l.75.44Zm1.04-3.43-.02-.06c.29-.06.58-.03.86.04.21.07.42.16.66.29.51.28.93.63 1.28 1.02l-1.51 3.09-.09-.3-1.18-4.07Zm1.37 4.61 1.55-3.16c1.57 1.83 1.74 4.4 1.75 5.1l-3.3-1.94ZM13.02 13.83l-.12.16h.02s.1.08.15.11l.11-.16-.05-.03s-.07-.05-.11-.07ZM12.6 13.5l-.13.15h.01s.09.09.13.12l.02.02.08-.11.04-.04v-.02c-.05-.04-.1-.08-.14-.11h-.01ZM13.37 14.29l.18.11.1-.17-.17-.11-.11.17zM12.63 7.57l.04-.19h-.02a.442.442 0 0 0-.2-.02h-.02l.02.19h.05s.07.01.12.02ZM13.02 7.52l-.1.17.18.1.1-.17-.18-.1zM11.53 8.64c.02-.06.04-.11.05-.17h.01l-.19-.08v.02c-.02.05-.04.11-.06.18l.19.06ZM13.5 7.78l-.1.18.18.1.1-.17-.18-.11zM12.03 7.75s.08-.06.14-.1l-.1-.17c-.06.04-.11.07-.16.11v.02l.12.15ZM11.44 9.16s0-.11.02-.17v-.02l-.2-.03v.02c0 .06-.02.12-.02.18l.2.04v-.02ZM11.72 8.15c.03-.05.06-.09.09-.15l-.17-.12c-.04.07-.07.12-.1.18l.18.1ZM15.41 8.85l-.1.18.19.1.09-.17-.18-.11zM13.85 14.57l.17.11.11-.18-.18-.1-.1.17zM15.79 9.3l.19.1.09-.18-.18-.1-.1.18zM14.93 8.59l-.09.17.18.1.1-.17-.19-.1zM11.41 9.65v-.13l-.18-.02-.02.02v.19h.2v-.06ZM15.26 15.41l.18.11.1-.17-.18-.11-.1.17zM14.79 15.13l.18.11.1-.17-.18-.11-.1.17zM13.97 8.05l-.09.18.18.1.1-.18-.19-.1zM14.32 14.85l.17.11.11-.18-.18-.1-.1.17zM14.45 8.32l-.09.17.18.11.1-.18-.19-.1zM11.42 10.24v-.18h-.2v.21h.19v-.03ZM11.96 12.68h-.01l-.18.08c.03.07.06.12.09.17h.01l.17-.09-.08-.16ZM11.8 12.37h.01v-.02s-.05-.11-.07-.16l-.19.05c.02.07.05.13.07.19v.02l.18-.08ZM12.25 13.13v-.02l-.17.12h.01c.04.06.08.11.12.16l.15-.12c-.04-.06-.08-.1-.11-.14ZM11.64 11.85c-.02-.06-.03-.12-.04-.18l-.19.04c.02.07.03.13.04.19l.19-.04ZM11.46 10.8v-.02s-.01-.06-.01-.09v-.09h-.2v.02s.01.06.01.09v.09h.2ZM11.53 11.33s0-.07-.02-.1v-.09l-.2.02c.01.05.01.08.02.12v.07l.2-.02ZM27.64 28.48l.17.1.11-.17-.18-.1-.1.17zM25.93 27.46l.1-.17-.18-.11-.1.17.18.11zM27.16 28.2l.18.1.11-.17-.18-.1-.11.17zM28.11 28.76l.18.1.1-.17-.18-.1-.1.17zM25.46 27.18l.1-.17-.18-.11-.1.17.18.11zM28.58 29.04l.18.1.1-.16-.18-.11-.1.17zM24.99 26.9l.1-.17-.18-.11-.1.17.18.11zM26.69 27.92l.18.1.1-.17-.17-.11-.11.18zM27.43 26.8l-.11-.17-3.73 2.42.11.17 2.58-1.67-.06.09.18.1.1-.17-.13-.08 1.06-.69zM28.22 22.84l-.18-.11-.1.18.18.1.1-.17zM33.86 15.83h.2v.21h-.2zM33.86 18.57h.2v.21h-.2zM27.75 22.56l-.18-.11-.1.18.18.1.1-.17zM33.86 19.12h.2v.21h-.2zM33.86 20.22h.2v.21h-.2zM33.86 18.02h.2v.21h-.2zM33.86 19.67h.2v.21h-.2zM28.7 23.12l-.18-.11-.11.17.18.11.11-.17zM33.86 17.48h.2v.2h-.2zM26.16 21.62l-.11.17.18.11.1-.18-.17-.1zM29.36 23.74l.18.11.1-.17-.18-.11-.1.17zM28.89 23.46l.18.11.1-.17-.18-.11-.1.17zM33.86 16.93h.2v.21h-.2zM33.86 16.38h.2v.21h-.2zM27.18 22.45l.1-.17-.18-.1-.1.17.18.1zM29.83 24.02l.18.11.1-.18-.18-.1-.1.17zM25.58 21.51l.18.11.1-.17-.18-.11-.1.17z" class="cls-2"/><path d="m26.53 22.07.17.11.11-.18-.18-.1 1.94-1.27-3.23-1.88v-3.04l-1.23-.68c.93-.89 1.51-2.14 1.51-3.52 0-2.7-2.2-4.89-4.89-4.89s-4.89 2.2-4.89 4.89c0 1.26.49 2.4 1.28 3.27l-1.26.75-.02-.02-.03.05-.08.05-.05.03v4.86l-3.21 2.08 6.78 4.17 7.38-4.84-.09.16Zm-10.65-6.25 4.68 2.64v6.08l-4.68-2.84v-5.88Zm4.88 2.63 4.38-2.5v5.23l-.03.05.03.02v.53l-4.38 2.76v-6.08Zm-4.73-6.94c0-2.59 2.11-4.69 4.69-4.69s4.69 2.11 4.69 4.69-2.1 4.69-4.69 4.69-4.69-2.11-4.69-4.69Zm1.21 3.42c.89.91 2.12 1.47 3.49 1.47 1.24 0 2.36-.48 3.22-1.24l1.1.61-4.39 2.51-4.64-2.61 1.22-.74Zm2 11.58-6.4-3.93 2.83-1.84v1.07l4.93 2.99.05.03 4.63-2.92.05-.03v-.64l.05-.08-.05-.03v-2.16l2.85 1.66-8.95 5.87Z" class="cls-2"/><path d="m23.69 20.4.18.1.1-.17-.18-.11-.1.18zM24.16 20.68l.18.1.11-.17-.18-.11-.11.18zM24.64 20.95l.18.11.1-.17-.18-.11-.1.17zM23.9 14.1l.07.07c.96-.86.99-2.5.99-2.57h-.2s0 .13-.03.33c-.05.46-.22 1.32-.73 1.91-.05.06-.1.13-.17.19l.07.07ZM23.49 19.22a.502.502 0 0 0-.48-.04c-.35.13-.62.54-.62.92 0 .2.07.36.21.45.08.05.17.08.26.08.07 0 .15-.01.22-.04.35-.13.62-.54.62-.92 0-.2-.07-.36-.21-.45Zm-.18.94-.17-.11.1-.17.18.1-.11.18Zm-.58-.49.04-.07h.01l.16.1-.1.18-.16-.11.06-.1ZM30.88 25.61l6.76 4.03v-1.48l-6.76-3.99v1.44Zm.2-1.09 6.36 3.75v1.01l-6.36-3.79v-.98ZM34.54 22.49l-3.67-2.16v1.44l3.67 2.18v-1.46Zm-3.47-.83v-.98l3.27 1.93v1l-3.27-1.94ZM35.33 24.91l-4.46-2.63v1.44l4.46 2.65V24.9Zm-4.26-1.3v-.98l4.06 2.39v1l-4.06-2.41Z" class="cls-2"/><path d="m38.28 22.5-1.39-.82a.74.74 0 0 0-.76 0c-.1.05-.16.14-.22.22l-1.84-1.1v-.03h-.05l-3.57-2.12-.15-.09.02 5.72v1.77l7.85 4.74.07.03.09-.08v-5.71c.13 0 .26-.03.37-.1.24-.14.38-.38.38-.65v-.35c0-.58-.31-1.13-.82-1.43Zm-.14 8.03-7.61-4.6-.03-7.03 5.32 3.17c-.03.08-.07.16-.07.25v.35c0 .58.31 1.13.82 1.43l1.39.82c.05.03.12.03.18.05v5.56Zm.76-6.26c0 .2-.1.38-.28.48-.17.1-.38.1-.56 0l-1.39-.82a1.47 1.47 0 0 1-.72-1.26v-.35c0-.2.1-.38.28-.48a.544.544 0 0 1 .55.01l1.39.82c.44.26.72.74.72 1.26v.35Z" class="cls-2"/><path d="m36.714 22.717.102-.172 1.28.762-.102.172zM36.718 23.346l.103-.171 1.276.768-.103.171zM13.58 6.57c.38.3.78.45 1.14.45.13 0 .25-.02.36-.06.08-.03.14-.07.21-.11l.05-.02.69-.41.17-.1V6.3c.19-.15.35-.35.43-.64.14-.53.02-1.2-.27-1.81l1.19-.93-.12-.16-1.16.9a3.39 3.39 0 0 0-.86-1.02c-.51-.4-1.06-.54-1.5-.39-.08.03-.15.06-.22.11l-.81.48-.05.03h-.02c-.21.17-.37.4-.44.7-.25.94.29 2.29 1.22 3.01Zm-1.02-2.96c.09-.35.3-.59.59-.69.09-.03.2-.05.3-.05.32 0 .67.14 1.02.41.37.29.67.68.88 1.11l-1.34 1.04-.72-1.16-.17.11.83 1.35 1.48-1.15c.22.52.3 1.07.18 1.51-.09.35-.3.59-.59.69-.38.13-.86 0-1.32-.36-.87-.67-1.38-1.93-1.15-2.8ZM34.1 8.64h.02l.07-.18h-.01L34 8.39h-.01l-.06.19h.01s.1.04.16.06ZM31.43 8.94s.09-.07.14-.1l-.11-.17c-.05.04-.1.07-.15.11h-.01l.12.17ZM31.88 8.67s.11-.05.16-.07l-.07-.19h-.01c-.06.02-.12.05-.18.08h-.01l.09.18h.01ZM31.05 9.31h.04l-.03-.02s.07-.07.11-.12l-.14-.14c-.05.05-.09.1-.12.15h-.02l.16.13ZM32.37 8.49c.07 0 .12-.02.18-.03h.01l-.03-.2c-.07.01-.13.02-.19.04l.04.2ZM33.07 8.43h.02v-.2h-.01s-.07-.01-.11-.01c-.03 0-.05.01-.08.01v.18l.09.02h.1ZM34.54 8.82s.04.02.07.03l.09-.17h-.02c-.06-.03-.11-.06-.16-.08h-.02l-.07.16v.02s.06.03.09.04ZM33.6 8.49h.01l.04-.19h-.01c-.07-.02-.13-.03-.18-.04h-.02l-.03.2h.02c.05 0 .11.02.17.03Z" class="cls-2"/></svg>