<svg width="585" height="145" viewBox="0 0 585 145" fill="none" xmlns="http://www.w3.org/2000/svg">
<g clip-path="url(#clip0)">
<path d="M150 12.7H179.46V119.61H232.37V142.7H150V12.7Z" fill="#282C33"/>
<path d="M241.31 108.88V47.61H267.49V105.24C267.49 118.15 272.76 124.34 284.04 124.34C295.13 124.34 303.86 117.43 303.86 103.43V47.61H330V142.7H303.86V127.79C298.95 137.43 289.31 144.7 273.67 144.7C255.13 144.7 241.31 133.79 241.31 108.88Z" fill="#282C33"/>
<path d="M342.4 96.33V94.88C342.4 64.15 364.4 45.42 391.49 45.42C413.49 45.42 433.86 55.06 436.22 82.33H411.31C409.49 71.24 402.76 66.15 392.04 66.15C378.4 66.15 369.31 76.33 369.31 94.52V96C369.31 115.09 377.85 124.91 392.58 124.91C403.13 124.91 411.67 118.73 412.95 106.55H436.76C435.31 129.09 418.95 144.73 391.31 144.73C363.49 144.7 342.4 127.43 342.4 96.33Z" fill="#282C33"/>
<path d="M446.7 20.33C446.7 12.15 453.25 6 461.61 6C470.16 6 476.71 12.18 476.71 20.36C476.71 28.54 470.16 34.73 461.61 34.73C453.25 34.7 446.7 28.51 446.7 20.33ZM448.7 47.61H474.89V142.7H448.7V47.61Z" fill="#282C33"/>
<path d="M487.48 96.52V95.06C487.48 63.79 505.48 45.42 529.3 45.42C544.58 45.42 554.03 52.15 559.3 61.79V4.51001H585.49V142.7H559.3V126.88C554.4 136.52 542.76 144.7 528.76 144.7C505.67 144.7 487.48 128.15 487.48 96.52ZM560 95.61V94.15C560 75.24 551.64 65.61 537.27 65.61C522.55 65.61 514.36 75.61 514.36 94.52V96C514.36 114.91 523.46 124.18 536.55 124.18C550.39 124.15 560 114.88 560 95.61Z" fill="#282C33"/>
<path d="M50 0L0 28.9V144.5L50 115.6V0Z" fill="#282C33"/>
<path d="M100 142.7V86.7L50 115.6V142.7H100Z" fill="#282C33"/>
</g>
<defs>
<clipPath id="clip0">
<rect width="585" height="145" fill="white"/>
</clipPath>
</defs>
</svg>
