<?xml version="1.0" encoding="utf-8"?>
<!-- Generator: Adobe Illustrator 21.1.0, SVG Export Plug-In . SVG Version: 6.00 Build 0)  -->
<svg version="1.1" id="Camada_1" xmlns="http://www.w3.org/2000/svg" xmlns:xlink="http://www.w3.org/1999/xlink" x="0px" y="0px"
	 viewBox="0 0 119 51.4" style="enable-background:new 0 0 119 51.4;" xml:space="preserve">
<style type="text/css">
	.st0{enable-background:new    ;}
	.st1{fill:#04A8A8;}
	.st2{fill:#FFCE43;}
</style>
<g>
	<g>
		<g class="st0">
			<g>
				<g>
					<path class="st1" d="M74.1,33.5c-0.1,0-0.2,0.1-0.2,0.1c-1.3,0.7-2.6,1.1-4.1,1.3c-0.6,0.1-1.3,0.1-1.9,0.1
						c-3.8-0.1-6.9-1.6-9.4-4.5c-1.4-1.7-2.3-3.7-2.7-5.8c-0.2-0.8-0.2-1.7-0.2-2.5c0.2-5.6,3.9-10.1,8.9-11.7
						c0.8-0.2,1.6-0.4,2.5-0.5c0.7-0.1,1.5-0.1,2.2,0c2,0.2,3.9,0.8,5.6,1.8c2.9,1.9,4.8,4.5,5.6,7.9c0.2,0.7,0.2,1.4,0.3,2.1
						c0.1,0.6,0,1.2,0,1.9c0,5.7,0,11.5,0,17.2c0,0.3-0.1,0.5-0.3,0.6c-0.1,0.1-0.2,0.1-0.3,0.1c-1.8,0-3.5,0-5.3,0
						c-0.4,0-0.6-0.2-0.6-0.6c0-2.4,0-4.8,0-7.2V33.5z M62.1,22.4c0,3.3,2.6,6,6,6c3.3,0,6-2.7,6-6c0-3.3-2.7-6-6-6
						C64.8,16.4,62.2,19.1,62.1,22.4"/>
					<path class="st1" d="M18.5,33.5c-0.3,0.2-0.6,0.3-0.9,0.4c-1.1,0.5-2.3,0.9-3.6,1c-4.4,0.5-8.1-1-11-4.2
						c-1.6-1.7-2.5-3.8-2.9-6.1c-0.2-1-0.2-2-0.1-2.9c0.4-4.6,2.7-8.1,6.7-10.3c1.3-0.7,2.7-1.1,4.1-1.3c6.4-0.9,12.4,3.2,13.9,9.4
						c0.2,1,0.4,1.9,0.4,2.9c0,4,0,7.9,0,11.9c0,0.5-0.2,0.7-0.7,0.7c-1.7,0-3.4,0-5.1,0c-0.5,0-0.7-0.2-0.7-0.7
						C18.5,34,18.5,33.8,18.5,33.5 M6.6,22.4c-0.1,3.1,2.4,6,6,6c3.4,0,6-2.8,6-5.9c0-3.2-2.6-6-6-6C9.1,16.5,6.5,19.4,6.6,22.4"/>
					<path class="st1" d="M119,22.4c0.1,6.7-5.4,12.6-12.7,12.5c-7-0.1-12.5-5.8-12.4-12.7c0.1-6.7,5.5-12.5,12.8-12.4
						C113.6,10,119,15.7,119,22.4 M112.4,22.4c0-3.1-2.5-6-5.9-6c-3.4,0-5.9,2.7-6,5.8c-0.1,3.2,2.5,6.1,6,6.1
						C109.9,28.4,112.5,25.6,112.4,22.4"/>
					<path class="st1" d="M28,22.4c0-5.8,3.9-10.8,9.6-12.2c0.8-0.2,1.5-0.3,2.3-0.3c3.3-0.2,6.1,0.8,8.7,2.9
						c1.8,1.5,3.1,3.4,3.9,5.6c0.2,0.5,0,0.8-0.5,0.9c-1.7,0.4-3.4,0.9-5,1.3c-0.4,0.1-0.7,0-0.8-0.4c-0.4-1-1-1.8-1.8-2.4
						c-1-0.8-2-1.2-3.3-1.3c-2.9-0.2-5.5,1.7-6.2,4.3c-1,3.4,1.2,6.9,4.7,7.5c2.8,0.5,5.5-1,6.6-3.6c0.2-0.4,0.4-0.6,0.9-0.4
						c1.6,0.4,3.3,0.8,4.9,1.3c0,0,0.1,0,0.1,0c0.5,0.1,0.6,0.4,0.5,0.9c-0.4,1.1-0.9,2.1-1.5,3.1c-2,2.9-4.7,4.6-8.2,5.3
						c-0.8,0.2-1.6,0.2-2.4,0.2c-3.2-0.1-6-1.2-8.3-3.4c-2-1.9-3.3-4.2-3.8-7C28.1,23.9,28,23.2,28,22.4C28,22.4,28,22.4,28,22.4"/>
					<path class="st1" d="M90.6,22.4v11.8c0,0.5-0.2,0.8-0.8,0.8c-1.7,0-3.4,0-5.1,0c-0.5,0-0.7-0.2-0.7-0.7c0-7.9,0-15.8,0-23.6
						c0-0.5,0.2-0.7,0.7-0.7h5.1c0.5,0,0.8,0.2,0.8,0.8V22.4z"/>
				</g>
				<g>
					<g class="st0">
						<g>
							<g>
								<path class="st2" d="M74.2,50.7v-5.1c0-0.4,0.3-0.7,0.7-0.7H80c0.3,0,0.5,0.2,0.6,0.4c0.1,0.3,0,0.6-0.2,0.8l-5.1,5.1
									c-0.2,0.2-0.5,0.3-0.8,0.2C74.3,51.2,74.2,51,74.2,50.7"/>
							</g>
						</g>
					</g>
				</g>
				<g>
					<g class="st0">
						<g>
							<g>
								<path class="st2" d="M90.7,0.7l0,5.1c0,0.4-0.3,0.7-0.7,0.7l-5.1,0c-0.3,0-0.5-0.2-0.6-0.4c-0.1-0.3,0-0.6,0.2-0.8l5.1-5.1
									C89.7,0,90-0.1,90.3,0.1C90.5,0.2,90.7,0.4,90.7,0.7"/>
							</g>
						</g>
					</g>
				</g>
			</g>
		</g>
	</g>
</g>
</svg>
