<svg width="1132" height="324" viewBox="0 0 1132 324" fill="none" xmlns="http://www.w3.org/2000/svg">
<rect width="1132" height="324" rx="64" fill="#263238"/>
<path d="M382.284 156.05V133.672H401.982C403.858 133.672 405.645 133.851 407.342 134.208C409.129 134.476 410.692 135.012 412.032 135.816C413.372 136.62 414.444 137.737 415.248 139.166C416.052 140.595 416.454 142.427 416.454 144.66C416.454 148.68 415.248 151.583 412.836 153.37C410.424 155.157 407.342 156.05 403.59 156.05H382.284ZM361.246 117.324V213H407.61C411.898 213 416.052 212.464 420.072 211.392C424.181 210.32 427.799 208.667 430.926 206.434C434.142 204.201 436.688 201.342 438.564 197.858C440.44 194.285 441.378 190.086 441.378 185.262C441.378 179.277 439.904 174.185 436.956 169.986C434.097 165.698 429.72 162.705 423.824 161.008C428.112 158.953 431.328 156.318 433.472 153.102C435.705 149.886 436.822 145.866 436.822 141.042C436.822 136.575 436.063 132.823 434.544 129.786C433.115 126.749 431.06 124.337 428.38 122.55C425.7 120.674 422.484 119.334 418.732 118.53C414.98 117.726 410.826 117.324 406.27 117.324H361.246ZM382.284 196.652V170.388H405.198C409.754 170.388 413.417 171.46 416.186 173.604C418.955 175.659 420.34 179.143 420.34 184.056C420.34 186.557 419.893 188.612 419 190.22C418.196 191.828 417.079 193.123 415.65 194.106C414.221 194.999 412.568 195.669 410.692 196.116C408.816 196.473 406.851 196.652 404.796 196.652H382.284ZM513.216 213V143.722H494.188V180.036C494.188 187.093 493.026 192.185 490.704 195.312C488.381 198.349 484.629 199.868 479.448 199.868C474.892 199.868 471.72 198.483 469.934 195.714C468.147 192.855 467.254 188.567 467.254 182.85V143.722H448.226V186.334C448.226 190.622 448.583 194.553 449.298 198.126C450.102 201.61 451.442 204.603 453.318 207.104C455.194 209.516 457.74 211.392 460.956 212.732C464.261 214.072 468.46 214.742 473.552 214.742C477.572 214.742 481.502 213.849 485.344 212.062C489.185 210.275 492.312 207.372 494.724 203.352H495.126V213H513.216ZM541.861 133.002V117.324H522.833V133.002H541.861ZM522.833 143.722V213H541.861V143.722H522.833ZM552.02 117.324V213H571.048V117.324H552.02ZM629.849 178.16C629.849 181.019 629.581 183.788 629.045 186.468C628.509 189.148 627.616 191.56 626.365 193.704C625.114 195.759 623.417 197.411 621.273 198.662C619.218 199.913 616.628 200.538 613.501 200.538C610.553 200.538 608.007 199.913 605.863 198.662C603.808 197.322 602.066 195.625 600.637 193.57C599.297 191.426 598.314 189.014 597.689 186.334C597.064 183.654 596.751 180.974 596.751 178.294C596.751 175.435 597.019 172.711 597.555 170.12C598.18 167.44 599.118 165.073 600.369 163.018C601.709 160.963 603.451 159.311 605.595 158.06C607.739 156.809 610.374 156.184 613.501 156.184C616.628 156.184 619.218 156.809 621.273 158.06C623.328 159.311 624.98 160.963 626.231 163.018C627.571 164.983 628.509 167.306 629.045 169.986C629.581 172.577 629.849 175.301 629.849 178.16ZM630.117 204.156V213H648.207V117.324H629.179V152.164H628.911C626.767 148.769 623.819 146.223 620.067 144.526C616.404 142.739 612.518 141.846 608.409 141.846C603.317 141.846 598.85 142.873 595.009 144.928C591.168 146.893 587.952 149.529 585.361 152.834C582.86 156.139 580.939 159.981 579.599 164.358C578.348 168.646 577.723 173.113 577.723 177.758C577.723 182.582 578.348 187.227 579.599 191.694C580.939 196.161 582.86 200.136 585.361 203.62C587.952 207.015 591.212 209.739 595.143 211.794C599.074 213.759 603.63 214.742 608.811 214.742C613.367 214.742 617.432 213.938 621.005 212.33C624.668 210.633 627.616 207.908 629.849 204.156H630.117ZM680.277 156.05V133.672H699.975C701.851 133.672 703.638 133.851 705.335 134.208C707.122 134.476 708.685 135.012 710.025 135.816C711.365 136.62 712.437 137.737 713.241 139.166C714.045 140.595 714.447 142.427 714.447 144.66C714.447 148.68 713.241 151.583 710.829 153.37C708.417 155.157 705.335 156.05 701.583 156.05H680.277ZM659.239 117.324V213H705.603C709.891 213 714.045 212.464 718.065 211.392C722.174 210.32 725.792 208.667 728.919 206.434C732.135 204.201 734.681 201.342 736.557 197.858C738.433 194.285 739.371 190.086 739.371 185.262C739.371 179.277 737.897 174.185 734.949 169.986C732.09 165.698 727.713 162.705 721.817 161.008C726.105 158.953 729.321 156.318 731.465 153.102C733.698 149.886 734.815 145.866 734.815 141.042C734.815 136.575 734.056 132.823 732.537 129.786C731.108 126.749 729.053 124.337 726.373 122.55C723.693 120.674 720.477 119.334 716.725 118.53C712.973 117.726 708.819 117.324 704.263 117.324H659.239ZM680.277 196.652V170.388H703.191C707.747 170.388 711.41 171.46 714.179 173.604C716.948 175.659 718.333 179.143 718.333 184.056C718.333 186.557 717.886 188.612 716.993 190.22C716.189 191.828 715.072 193.123 713.643 194.106C712.214 194.999 710.561 195.669 708.685 196.116C706.809 196.473 704.844 196.652 702.789 196.652H680.277ZM811.209 213V143.722H792.181V180.036C792.181 187.093 791.019 192.185 788.697 195.312C786.374 198.349 782.622 199.868 777.441 199.868C772.885 199.868 769.713 198.483 767.927 195.714C766.14 192.855 765.247 188.567 765.247 182.85V143.722H746.219V186.334C746.219 190.622 746.576 194.553 747.291 198.126C748.095 201.61 749.435 204.603 751.311 207.104C753.187 209.516 755.733 211.392 758.949 212.732C762.254 214.072 766.453 214.742 771.545 214.742C775.565 214.742 779.495 213.849 783.337 212.062C787.178 210.275 790.305 207.372 792.717 203.352H793.119V213H811.209ZM869.468 178.16C869.468 181.019 869.2 183.788 868.664 186.468C868.128 189.148 867.235 191.56 865.984 193.704C864.734 195.759 863.036 197.411 860.892 198.662C858.838 199.913 856.247 200.538 853.12 200.538C850.172 200.538 847.626 199.913 845.482 198.662C843.428 197.322 841.686 195.625 840.256 193.57C838.916 191.426 837.934 189.014 837.308 186.334C836.683 183.654 836.37 180.974 836.37 178.294C836.37 175.435 836.638 172.711 837.174 170.12C837.8 167.44 838.738 165.073 839.988 163.018C841.328 160.963 843.07 159.311 845.214 158.06C847.358 156.809 849.994 156.184 853.12 156.184C856.247 156.184 858.838 156.809 860.892 158.06C862.947 159.311 864.6 160.963 865.85 163.018C867.19 164.983 868.128 167.306 868.664 169.986C869.2 172.577 869.468 175.301 869.468 178.16ZM869.736 204.156V213H887.826V117.324H868.798V152.164H868.53C866.386 148.769 863.438 146.223 859.686 144.526C856.024 142.739 852.138 141.846 848.028 141.846C842.936 141.846 838.47 142.873 834.628 144.928C830.787 146.893 827.571 149.529 824.98 152.834C822.479 156.139 820.558 159.981 819.218 164.358C817.968 168.646 817.342 173.113 817.342 177.758C817.342 182.582 817.968 187.227 819.218 191.694C820.558 196.161 822.479 200.136 824.98 203.62C827.571 207.015 830.832 209.739 834.762 211.794C838.693 213.759 843.249 214.742 848.43 214.742C852.986 214.742 857.051 213.938 860.624 212.33C864.287 210.633 867.235 207.908 869.468 204.156H869.736ZM946.026 178.16C946.026 181.019 945.758 183.788 945.222 186.468C944.686 189.148 943.793 191.56 942.542 193.704C941.292 195.759 939.594 197.411 937.45 198.662C935.396 199.913 932.805 200.538 929.678 200.538C926.73 200.538 924.184 199.913 922.04 198.662C919.986 197.322 918.244 195.625 916.814 193.57C915.474 191.426 914.492 189.014 913.866 186.334C913.241 183.654 912.928 180.974 912.928 178.294C912.928 175.435 913.196 172.711 913.732 170.12C914.358 167.44 915.296 165.073 916.546 163.018C917.886 160.963 919.628 159.311 921.772 158.06C923.916 156.809 926.552 156.184 929.678 156.184C932.805 156.184 935.396 156.809 937.45 158.06C939.505 159.311 941.158 160.963 942.408 163.018C943.748 164.983 944.686 167.306 945.222 169.986C945.758 172.577 946.026 175.301 946.026 178.16ZM946.294 204.156V213H964.384V117.324H945.356V152.164H945.088C942.944 148.769 939.996 146.223 936.244 144.526C932.582 142.739 928.696 141.846 924.586 141.846C919.494 141.846 915.028 142.873 911.186 144.928C907.345 146.893 904.129 149.529 901.538 152.834C899.037 156.139 897.116 159.981 895.776 164.358C894.526 168.646 893.9 173.113 893.9 177.758C893.9 182.582 894.526 187.227 895.776 191.694C897.116 196.161 899.037 200.136 901.538 203.62C904.129 207.015 907.39 209.739 911.32 211.794C915.251 213.759 919.807 214.742 924.988 214.742C929.544 214.742 933.609 213.938 937.182 212.33C940.845 210.633 943.793 207.908 946.026 204.156H946.294ZM1007.58 221.576L1036.52 143.722H1016.82L1001.68 191.158H1001.41L985.734 143.722H965.5L989.754 208.712C990.29 210.052 990.558 211.481 990.558 213C990.558 215.055 989.933 216.931 988.682 218.628C987.521 220.325 985.689 221.308 983.188 221.576C981.312 221.665 979.436 221.621 977.56 221.442C975.684 221.263 973.853 221.085 972.066 220.906V236.584C974.031 236.763 975.952 236.897 977.828 236.986C979.794 237.165 981.759 237.254 983.724 237.254C990.246 237.254 995.338 236.048 999 233.636C1002.66 231.224 1005.52 227.204 1007.58 221.576Z" fill="white"/>
<path d="M208.598 149.846V114.108H240.056C243.052 114.108 245.905 114.393 248.616 114.964C251.469 115.392 253.966 116.248 256.106 117.532C258.246 118.816 259.958 120.599 261.242 122.882C262.526 125.165 263.168 128.089 263.168 131.656C263.168 138.076 261.242 142.713 257.39 145.566C253.538 148.419 248.616 149.846 242.624 149.846H208.598ZM175 88V240.796H249.044C255.892 240.796 262.526 239.94 268.946 238.228C275.509 236.516 281.287 233.877 286.28 230.31C291.416 226.743 295.482 222.178 298.478 216.614C301.474 210.907 302.972 204.202 302.972 196.498C302.972 186.939 300.618 178.807 295.91 172.102C291.345 165.254 284.354 160.475 274.938 157.764C281.786 154.483 286.922 150.274 290.346 145.138C293.913 140.002 295.696 133.582 295.696 125.878C295.696 118.745 294.483 112.753 292.058 107.902C289.775 103.051 286.494 99.1993 282.214 96.346C277.934 93.35 272.798 91.21 266.806 89.926C260.814 88.642 254.18 88 246.904 88H175ZM208.598 214.688V172.744H245.192C252.468 172.744 258.317 174.456 262.74 177.88C267.163 181.161 269.374 186.725 269.374 194.572C269.374 198.567 268.661 201.848 267.234 204.416C265.95 206.984 264.167 209.053 261.884 210.622C259.601 212.049 256.962 213.119 253.966 213.832C250.97 214.403 247.831 214.688 244.55 214.688H208.598Z" fill="white"/>
<path d="M197.598 149.846V114.108H229.056C232.052 114.108 234.905 114.393 237.616 114.964C240.469 115.392 242.966 116.248 245.106 117.532C247.246 118.816 248.958 120.599 250.242 122.882C251.526 125.165 252.168 128.089 252.168 131.656C252.168 138.076 250.242 142.713 246.39 145.566C242.538 148.419 237.616 149.846 231.624 149.846H197.598ZM164 88V240.796H238.044C244.892 240.796 251.526 239.94 257.946 238.228C264.509 236.516 270.287 233.877 275.28 230.31C280.416 226.743 284.482 222.178 287.478 216.614C290.474 210.907 291.972 204.202 291.972 196.498C291.972 186.939 289.618 178.807 284.91 172.102C280.345 165.254 273.354 160.475 263.938 157.764C270.786 154.483 275.922 150.274 279.346 145.138C282.913 140.002 284.696 133.582 284.696 125.878C284.696 118.745 283.483 112.753 281.058 107.902C278.775 103.051 275.494 99.1993 271.214 96.346C266.934 93.35 261.798 91.21 255.806 89.926C249.814 88.642 243.18 88 235.904 88H164ZM197.598 214.688V172.744H234.192C241.468 172.744 247.317 174.456 251.74 177.88C256.163 181.161 258.374 186.725 258.374 194.572C258.374 198.567 257.661 201.848 256.234 204.416C254.95 206.984 253.167 209.053 250.884 210.622C248.601 212.049 245.962 213.119 242.966 213.832C239.97 214.403 236.831 214.688 233.55 214.688H197.598Z" fill="white"/>
<path d="M187.598 149.846V114.108H219.056C222.052 114.108 224.905 114.393 227.616 114.964C230.469 115.392 232.966 116.248 235.106 117.532C237.246 118.816 238.958 120.599 240.242 122.882C241.526 125.165 242.168 128.089 242.168 131.656C242.168 138.076 240.242 142.713 236.39 145.566C232.538 148.419 227.616 149.846 221.624 149.846H187.598ZM154 88V240.796H228.044C234.892 240.796 241.526 239.94 247.946 238.228C254.509 236.516 260.287 233.877 265.28 230.31C270.416 226.743 274.482 222.178 277.478 216.614C280.474 210.907 281.972 204.202 281.972 196.498C281.972 186.939 279.618 178.807 274.91 172.102C270.345 165.254 263.354 160.475 253.938 157.764C260.786 154.483 265.922 150.274 269.346 145.138C272.913 140.002 274.696 133.582 274.696 125.878C274.696 118.745 273.483 112.753 271.058 107.902C268.775 103.051 265.494 99.1993 261.214 96.346C256.934 93.35 251.798 91.21 245.806 89.926C239.814 88.642 233.18 88 225.904 88H154ZM187.598 214.688V172.744H224.192C231.468 172.744 237.317 174.456 241.74 177.88C246.163 181.161 248.374 186.725 248.374 194.572C248.374 198.567 247.661 201.848 246.234 204.416C244.95 206.984 243.167 209.053 240.884 210.622C238.601 212.049 235.962 213.119 232.966 213.832C229.97 214.403 226.831 214.688 223.55 214.688H187.598Z" fill="white"/>
<path d="M177.598 149.846V114.108H209.056C212.052 114.108 214.905 114.393 217.616 114.964C220.469 115.392 222.966 116.248 225.106 117.532C227.246 118.816 228.958 120.599 230.242 122.882C231.526 125.165 232.168 128.089 232.168 131.656C232.168 138.076 230.242 142.713 226.39 145.566C222.538 148.419 217.616 149.846 211.624 149.846H177.598ZM144 88V240.796H218.044C224.892 240.796 231.526 239.94 237.946 238.228C244.509 236.516 250.287 233.877 255.28 230.31C260.416 226.743 264.482 222.178 267.478 216.614C270.474 210.907 271.972 204.202 271.972 196.498C271.972 186.939 269.618 178.807 264.91 172.102C260.345 165.254 253.354 160.475 243.938 157.764C250.786 154.483 255.922 150.274 259.346 145.138C262.913 140.002 264.696 133.582 264.696 125.878C264.696 118.745 263.483 112.753 261.058 107.902C258.775 103.051 255.494 99.1993 251.214 96.346C246.934 93.35 241.798 91.21 235.806 89.926C229.814 88.642 223.18 88 215.904 88H144ZM177.598 214.688V172.744H214.192C221.468 172.744 227.317 174.456 231.74 177.88C236.163 181.161 238.374 186.725 238.374 194.572C238.374 198.567 237.661 201.848 236.234 204.416C234.95 206.984 233.167 209.053 230.884 210.622C228.601 212.049 225.962 213.119 222.966 213.832C219.97 214.403 216.831 214.688 213.55 214.688H177.598Z" fill="white"/>
<path d="M167.598 149.846V114.108H199.056C202.052 114.108 204.905 114.393 207.616 114.964C210.469 115.392 212.966 116.248 215.106 117.532C217.246 118.816 218.958 120.599 220.242 122.882C221.526 125.165 222.168 128.089 222.168 131.656C222.168 138.076 220.242 142.713 216.39 145.566C212.538 148.419 207.616 149.846 201.624 149.846H167.598ZM134 88V240.796H208.044C214.892 240.796 221.526 239.94 227.946 238.228C234.509 236.516 240.287 233.877 245.28 230.31C250.416 226.743 254.482 222.178 257.478 216.614C260.474 210.907 261.972 204.202 261.972 196.498C261.972 186.939 259.618 178.807 254.91 172.102C250.345 165.254 243.354 160.475 233.938 157.764C240.786 154.483 245.922 150.274 249.346 145.138C252.913 140.002 254.696 133.582 254.696 125.878C254.696 118.745 253.483 112.753 251.058 107.902C248.775 103.051 245.494 99.1993 241.214 96.346C236.934 93.35 231.798 91.21 225.806 89.926C219.814 88.642 213.18 88 205.904 88H134ZM167.598 214.688V172.744H204.192C211.468 172.744 217.317 174.456 221.74 177.88C226.163 181.161 228.374 186.725 228.374 194.572C228.374 198.567 227.661 201.848 226.234 204.416C224.95 206.984 223.167 209.053 220.884 210.622C218.601 212.049 215.962 213.119 212.966 213.832C209.97 214.403 206.831 214.688 203.55 214.688H167.598Z" fill="white"/>
<path d="M157.598 149.846V114.108H189.056C192.052 114.108 194.905 114.393 197.616 114.964C200.469 115.392 202.966 116.248 205.106 117.532C207.246 118.816 208.958 120.599 210.242 122.882C211.526 125.165 212.168 128.089 212.168 131.656C212.168 138.076 210.242 142.713 206.39 145.566C202.538 148.419 197.616 149.846 191.624 149.846H157.598ZM124 88V240.796H198.044C204.892 240.796 211.526 239.94 217.946 238.228C224.509 236.516 230.287 233.877 235.28 230.31C240.416 226.743 244.482 222.178 247.478 216.614C250.474 210.907 251.972 204.202 251.972 196.498C251.972 186.939 249.618 178.807 244.91 172.102C240.345 165.254 233.354 160.475 223.938 157.764C230.786 154.483 235.922 150.274 239.346 145.138C242.913 140.002 244.696 133.582 244.696 125.878C244.696 118.745 243.483 112.753 241.058 107.902C238.775 103.051 235.494 99.1993 231.214 96.346C226.934 93.35 221.798 91.21 215.806 89.926C209.814 88.642 203.18 88 195.904 88H124ZM157.598 214.688V172.744H194.192C201.468 172.744 207.317 174.456 211.74 177.88C216.163 181.161 218.374 186.725 218.374 194.572C218.374 198.567 217.661 201.848 216.234 204.416C214.95 206.984 213.167 209.053 210.884 210.622C208.601 212.049 205.962 213.119 202.966 213.832C199.97 214.403 196.831 214.688 193.55 214.688H157.598Z" fill="white"/>
<path d="M147.598 149.846V114.108H179.056C182.052 114.108 184.905 114.393 187.616 114.964C190.469 115.392 192.966 116.248 195.106 117.532C197.246 118.816 198.958 120.599 200.242 122.882C201.526 125.165 202.168 128.089 202.168 131.656C202.168 138.076 200.242 142.713 196.39 145.566C192.538 148.419 187.616 149.846 181.624 149.846H147.598ZM114 88V240.796H188.044C194.892 240.796 201.526 239.94 207.946 238.228C214.509 236.516 220.287 233.877 225.28 230.31C230.416 226.743 234.482 222.178 237.478 216.614C240.474 210.907 241.972 204.202 241.972 196.498C241.972 186.939 239.618 178.807 234.91 172.102C230.345 165.254 223.354 160.475 213.938 157.764C220.786 154.483 225.922 150.274 229.346 145.138C232.913 140.002 234.696 133.582 234.696 125.878C234.696 118.745 233.483 112.753 231.058 107.902C228.775 103.051 225.494 99.1993 221.214 96.346C216.934 93.35 211.798 91.21 205.806 89.926C199.814 88.642 193.18 88 185.904 88H114ZM147.598 214.688V172.744H184.192C191.468 172.744 197.317 174.456 201.74 177.88C206.163 181.161 208.374 186.725 208.374 194.572C208.374 198.567 207.661 201.848 206.234 204.416C204.95 206.984 203.167 209.053 200.884 210.622C198.601 212.049 195.962 213.119 192.966 213.832C189.97 214.403 186.831 214.688 183.55 214.688H147.598Z" fill="white"/>
</svg>
