<svg xmlns="http://www.w3.org/2000/svg" width="360" height="80" viewBox="0 0 360 80"><g fill="#64A800"><path d="M132.31 33.555c-4.291 4.283-6.777 9.763-7.472 15.374.7-5.611 3.186-11.091 7.489-15.39l-.017.016zM124.498 3.423v48.754h-.005c-.02 12.317-10 22.303-22.321 22.327-4.95-.008-9.495-1.652-13.192-4.384.92-.989 1.788-2.034 2.55-3.155 3.002 2.171 6.663 3.477 10.642 3.477 10.059-.005 18.259-8.203 18.264-18.268h.003v-48.751h-4.06v48.751c-.014 7.801-6.409 14.198-14.208 14.215-3.253-.007-6.206-1.196-8.602-3.066.594-1.276 1.094-2.596 1.484-3.971 1.841 1.827 4.361 2.969 7.118 2.977 5.539-.013 10.139-4.61 10.142-10.151v-48.755h-4.054v23.109c-1.95-.468-3.987-.734-6.085-.739-6.155.016-11.791 2.126-16.264 5.647-4.473-3.511-10.078-5.632-16.211-5.649-14.584.04-26.356 11.804-26.398 26.383.005 2.1.282 4.134.748 6.09h-5.474c-4.877 0-9.406-2.052-12.821-5.497-3.398-3.448-5.46-8.106-5.449-13.042.017-9.938 8.052-17.978 17.994-17.994 4.989.005 9.414 1.994 12.707 5.252l2.863-2.873c-4.007-3.988-9.473-6.437-15.569-6.437-12.179.022-22.034 9.876-22.056 22.052-.008 6.068 2.522 11.73 6.624 15.896 4.115 4.155 9.673 6.702 15.708 6.696l6.774.004c.594 1.424 1.323 2.777 2.148 4.062h-8.923c-14.38-.029-26.367-12.247-26.392-26.657.025-14.418 11.693-26.087 26.116-26.109 7.205 0 13.711 2.906 18.438 7.623l1.434-1.438 1.437-1.436h-.005c-5.452-5.442-12.994-8.812-21.303-8.812-16.668 0-30.173 13.508-30.178 30.172.025 16.672 13.736 30.685 30.455 30.715h12.124c1.493 1.551 3.175 2.91 5.005 4.062h-17.132c-19.06-.08-34.45-15.842-34.512-34.776.006-18.91 15.327-34.232 34.236-34.232 9.414-.005 18 3.825 24.171 9.988l.006.007 2.865-2.872-.005-.006c-6.892-6.891-16.515-11.186-27.037-11.18-21.161.006-38.287 17.141-38.298 38.293.112 21.195 17.173 38.698 38.574 38.836h31.021l.104.006h-.006c6.142-.017 11.767-2.131 16.239-5.64 4.475 3.512 10.103 5.623 16.241 5.637 14.579-.041 26.345-11.806 26.378-26.39h.008v-48.751h-4.061zm-22.325 54.844c-3.287-.006-6.091-2.808-6.094-6.093.003-3.277 2.807-6.078 6.094-6.091 3.276.013 6.08 2.813 6.08 6.091h.005c-.005 3.285-2.809 6.087-6.085 6.093zm6.086-27.54v4.257c-1.906-.687-3.951-1.07-6.088-1.075-10.064.007-18.265 8.206-18.273 18.266l.005.003c-.017 7.804-6.412 14.195-14.205 14.212v-.007c-7.807-.01-14.202-6.401-14.219-14.203.017-7.799 6.412-14.195 14.219-14.215 3.242.012 6.219 1.152 8.613 3.013-.605 1.291-1.108 2.636-1.501 4.023-1.845-1.824-4.361-2.967-7.112-2.974-5.547.013-10.148 4.612-10.159 10.147.011 5.547 4.612 10.142 10.159 10.154 5.53-.013 10.137-4.607 10.142-10.154l-.002-.016c.039-12.312 10.014-22.281 22.333-22.311 2.115.006 4.152.321 6.088.88zm-32.475 21.447c-.011 3.285-2.812 6.09-6.085 6.095-3.284-.005-6.085-2.81-6.097-6.095.011-3.273 2.812-6.078 6.097-6.086 3.273.008 6.074 2.809 6.08 6.086h.005zm-6.091 22.333l.006-.003c-12.324-.024-22.313-10.005-22.338-22.33.025-12.318 10.014-22.301 22.338-22.326 4.941.011 9.498 1.645 13.192 4.373-.926.989-1.772 2.052-2.536 3.174-3.002-2.181-6.677-3.48-10.656-3.483-10.067.007-18.268 8.208-18.276 18.268.008 10.06 8.209 18.258 18.276 18.263v.004c10.053-.009 18.253-8.207 18.259-18.269v-.003c.017-7.797 6.409-14.193 14.213-14.204 2.182.004 4.238.521 6.088 1.412v4.771c-1.705-1.31-3.803-2.122-6.088-2.127-5.544.01-10.14 4.612-10.156 10.15l.002.032c-.036 12.305-10.014 22.275-22.324 22.298zM132.33 70.863c5.117 5.123 11.92 7.703 18.613 7.703h55.812v-32.478h4.062v32.479h4.062v-32.479h4.054v32.479h4.062v-32.479h2.682c3.248.008 5.977 2.696 5.982 6.091l-.006 26.385h4.061l.005-26.381c-.005-5.609-4.521-10.142-10.042-10.156h-38.303v10.114c.016 5.54 4.614 10.14 10.158 10.149h5.168v4.06h-5.168c-7.81-.017-14.199-6.406-14.213-14.209v-14.171h42.357c7.796.011 14.1 6.387 14.1 14.215v26.382h4.059v-26.382c-.016-10.044-8.082-18.269-18.158-18.273h-42.357v-30.489h-4.06v48.718c.008 10.062 8.208 18.261 18.272 18.269h5.168v4.058h-5.168c-12.326-.023-22.307-10.009-22.33-22.326v-48.719h-4.062v31.619l-1.501-1.505c-5.137-5.135-11.95-7.715-18.655-7.707-6.705-.008-13.521 2.561-18.655 7.707l-.002.002c-4.303 4.299-6.789 9.778-7.489 15.39-.137 1.088-.229 2.181-.229 3.273-.005 6.704 2.573 13.527 7.715 18.654v-.002m2.871-2.87c-4.347-4.34-6.532-10.098-6.526-15.782-.005-5.688 2.179-11.448 6.529-15.791h-.003c4.341-4.35 10.098-6.527 15.787-6.521 5.687-.006 11.445 2.174 15.787 6.517l4.311 4.307-17.556 17.556h-2.539c-.923-.005-1.797-.217-2.606-.593l16.958-16.963-1.439-1.431c-3.552-3.558-8.245-5.332-12.916-5.332-4.676 0-9.369 1.774-12.913 5.332h-.003c-3.555 3.552-5.335 8.248-5.335 12.92 0 4.665 1.78 9.362 5.335 12.914l.005.003h-.005l.003.003.002.002c3.552 3.547 8.242 5.327 12.913 5.321h27.595c1.504 1.561 3.214 2.908 5.065 4.063l-32.66-.002c-5.689.01-11.442-2.173-15.784-6.513m35.941-21.612v5.759c.008 2.116.29 4.161.759 6.128h-12.645l11.886-11.887zm-20.156 20.009c-3.655-.007-7.288-1.378-10.039-4.143h-.005v-.002c-2.768-2.768-4.144-6.395-4.144-10.044 0-3.654 1.375-7.285 4.144-10.051v.003c2.754-2.765 6.384-4.142 10.042-4.146 3.008.005 6.005.941 8.51 2.812l-13.949 13.97v.085l-.039-.072c-.379-.808-.586-1.681-.594-2.601.008-1.613.586-3.121 1.761-4.307l5.7-5.675c-.469-.063-.918-.147-1.39-.147-2.647.004-5.212.983-7.173 2.951l.003.003-.003.004c-1.976 1.971-2.952 4.539-2.958 7.171.005 2.634.979 5.195 2.958 7.168l.005.011c1.962 1.967 4.534 2.941 7.171 2.947h22.221c.597 1.426 1.331 2.776 2.157 4.062h-24.378zm46.548-8.165c-3.287-.004-6.085-2.801-6.094-6.085v-6.053h11.262v12.142l-5.168-.004zm54.426 7.146v-37.772l-4.061-.001v10.561c-4.629-7.393-12.789-12.356-22.221-12.369h-2.682v-22.325h-4.062v22.324h-4.054v-22.324h-4.062v22.324h-4.062v-22.324h-4.054v22.324h-11.262v-22.326h-4.057l-.003 26.389h38.298c12.35.011 22.193 10.069 22.219 22.33l.002 13.189v13.194h4.063l-.002-13.194zM256.013 27.6v-.001"/><path d="M256.013 78.566h4.062v-50.967999999999996h-4.062v.002zM258.147 1.431c-6.725.017-12.138 5.437-12.146 12.155.008 6.711 5.421 12.137 12.146 12.147 6.724-.006 12.143-5.455 12.143-12.147 0-6.7-5.419-12.148-12.143-12.155zm0 20.239c-4.476-.006-8.083-3.618-8.086-8.089.003-4.468 3.61-8.082 8.086-8.086 4.476 0 8.089 3.628 8.089 8.086 0 4.459-3.613 8.089-8.089 8.089zM258.147 9.556c-2.229 0-4.021 1.799-4.021 4.028 0 2.224 1.791 4.028 4.021 4.028s4.028-1.805 4.028-4.028c.001-2.222-1.798-4.028-4.028-4.028zM300.667 78.566h-4.054M308.795 78.566h-4.066"/><path d="M300.667 78.566v-26.392c-.006-5.535-4.612-10.138-10.143-10.143-5.544.005-10.146 4.602-10.153 10.143v26.393h4.062v-26.388c.003-3.282 2.801-6.083 6.091-6.091 3.276.008 6.08 2.812 6.089 6.091v26.388h4.054zM290.521 37.964c7.802.02 14.191 6.416 14.208 14.21v26.393h4.065l-.006-26.393c-.012-10.055-8.211-18.256-18.268-18.261-10.066.005-18.259 8.206-18.272 18.261v26.393h4.067v-26.393c.013-7.794 6.4-14.191 14.206-14.21zM316.914 3.466l-4.062-.005v34.738c-4.662-7.431-12.896-12.382-22.327-12.408-9.434.026-17.665 4.971-22.327 12.395v-10.587l-4.057.001v24.427l-.008.152v26.388h4.064v-26.443c.045-12.29 10.022-22.253 22.327-22.276 12.311.029 22.296 10.005 22.324 22.326l.003 26.393h4.062v-75.101zM325.025 78.563v-75.09899999999999h-4.054v75.09899999999999zM354.361 52.177c3.504-4.476 5.622-10.1 5.639-16.237l-.006-8.34h-4.06v8.343c-.02 12.318-10.005 22.296-22.318 22.321v.005h-.466v-4.064h.463v.005h.003c10.053-.014 18.256-8.215 18.265-18.267l-.006-8.343h-4.051l-.004 8.343c-.016 7.794-6.402 14.187-14.204 14.201h-.466v-4.061h.466c5.532-.009 10.134-4.61 10.142-10.141l.009-8.343h-4.062v8.34c-.011 3.274-2.815 6.084-6.091 6.087h-.463v-38.565l-4.057.005v75.101h4.057v-16.245h.463c3.275.006 6.08 2.812 6.091 6.09v10.154h4.054v-10.154c-.002-2.756-1.148-5.275-2.974-7.116 1.387-.393 2.726-.899 4.015-1.506 1.858 2.402 3.011 5.371 3.021 8.622v10.157h4.061v-.003l-.006-10.154c-.003-3.975-1.297-7.646-3.465-10.651 1.124-.762 2.168-1.628 3.158-2.551 2.726 3.7 4.361 8.254 4.366 13.202v10.154h4.065l-.006-10.154c-.014-6.137-2.129-11.762-5.633-16.235z"/></g></svg>