<svg xmlns="http://www.w3.org/2000/svg" fill="none" viewBox="0 0 1224 216"><g clip-path="url(#a)"><path d="m1141.06 101.499-92 58.509 31.76-117.0187 60.24 58.5097ZM1217.47 101.499l-91.99 58.509 31.75-117.0187 60.24 58.5097Z" fill="#6aeafc"/><path d="M139.98 160.008 181.757 3.98291H282.45l-6.556 24.48729h-74.6l-10.299 38.4644h61.607l-6.557 24.4873h-61.607l-11.807 44.0991h74.599l-6.556 24.487H139.98ZM347.742 160.009l15.086-56.342c.986-3.6844 1.826-7.7655 2.52-12.244.694-4.4785.654-8.7765-.121-12.8938-.682-4.1895-2.506-7.6207-5.472-10.2933-2.894-2.6727-7.444-4.009-13.652-4.009-3.32 0-6.749.5418-10.288 1.6253-3.538 1.0835-7 2.9616-10.387 5.6342-3.294 2.6005-6.355 6.2122-9.181 10.8351-2.806 4.5507-5.167 10.4017-7.082 17.5528l-13.713-6.6094c2.669-9.9683 7-18.9975 12.992-27.0876 6.064-8.0902 13.487-14.519 22.271-19.2864 8.802-4.8397 18.69-7.2596 29.661-7.2596 8.662 0 15.421 1.4447 20.278 4.3341 4.856 2.8893 8.345 6.5733 10.466 11.0518 2.122 4.4785 3.299 9.2458 3.533 14.3022.234 5.0564-.041 9.8599-.827 14.4107-.693 4.4785-1.418 8.1263-2.172 10.9434L374.16 160.009h-26.418Zm-81.097 0 31.333-117.0188h23.279l-9.719 36.2975h3.14l-21.614 80.7213h-26.419ZM436.564 215.266c-6.496 0-12.469-1.012-17.919-3.034-5.377-2.023-9.935-4.948-13.674-8.777-3.758-3.756-6.438-8.307-8.038-13.652l27.228-11.918c1.096 4.261 3.395 7.403 6.895 9.426 3.554 2.095 7.64 3.142 12.26 3.142 5.414 0 10.511-.975 15.292-2.925 4.762-1.878 8.8-4.695 12.116-8.452 3.368-3.684 5.725-8.306 7.07-13.868l8.906-33.264h3.248l23.819-88.956h22.845l-32.841 122.653c-.793 2.961-1.691 5.779-2.696 8.451-.951 2.745-2.064 5.418-3.338 8.018-3.763 7.585-8.747 13.797-14.951 18.636-6.223 4.912-13.299 8.56-21.228 10.944-7.856 2.384-16.188 3.576-24.994 3.576Zm11.652-52.009c-10.755 0-19.413-2.709-25.975-8.126-6.562-5.418-10.796-12.785-12.705-22.104-1.908-9.318-1.295-19.828 1.838-31.53 3.172-11.846 8.197-22.3921 15.076-31.6381 6.97-9.3181 15.249-16.6498 24.837-21.9951 9.607-5.4175 19.933-8.1263 30.977-8.1263 11.115 0 19.702 2.7088 25.758 8.1263 6.148 5.3453 9.923 12.677 11.326 21.9951 1.403 9.3182.528 19.8643-2.625 31.6381-3.113 11.63-7.877 22.14-14.289 31.53-6.393 9.319-14.176 16.686-23.35 22.104-9.174 5.417-19.463 8.126-30.868 8.126Zm10.273-23.404c7.001 0 13.057-1.589 18.167-4.767 5.201-3.25 9.55-7.765 13.046-13.544 3.568-5.778 6.368-12.46 8.399-20.045 2.05-7.6564 2.828-14.3381 2.335-20.0445-.402-5.7787-2.27-10.2572-5.606-13.4355-3.316-3.2505-8.294-4.8758-14.935-4.8758-7.002 0-13.24 1.7336-18.716 5.2008-5.457 3.395-10.051 8.018-13.783 13.8689-3.713 5.7787-6.517 12.2075-8.412 19.2861-1.915 7.151-2.609 13.653-2.082 19.503.618 5.779 2.674 10.366 6.168 13.761 3.494 3.395 8.634 5.092 15.419 5.092ZM535.43 160.008 577.207 3.98291h93.872l-6.991 26.11249h-67.779l-10.415 38.8979h54.786l-6.963 26.0042h-54.786l-17.407 65.0105H535.43ZM650.943 160.008 693.59.732178h26.093L677.036 160.008h-26.093ZM760.457 163.257c-11.694 0-21.202-2.636-28.524-7.909-7.322-5.273-12.163-12.533-14.524-21.779-2.269-9.318-1.788-20.009 1.441-32.072 3.288-12.2794 8.624-23.0422 16.008-32.2881 7.384-9.2459 16.139-16.4693 26.266-21.6702 10.127-5.2008 20.928-7.8012 32.405-7.8012 11.766 0 21.31 2.6365 28.632 7.9096 7.322 5.273 12.153 12.5687 14.494 21.8868 2.361 9.2459 1.926 19.9004-1.303 31.9631-3.25 12.136-8.576 22.862-15.979 32.18-7.312 9.246-16.041 16.506-26.187 21.779-10.126 5.201-21.036 7.801-32.73 7.801h.001Zm6.556-24.487c10.394 0 19.046-3.467 25.956-10.402 6.909-6.934 11.834-15.891 14.773-26.871 3.037-11.3404 2.892-20.3695-.434-27.0873-3.307-6.79-10.085-10.185-20.335-10.185-7.002 0-13.202 1.5892-18.6 4.7675-5.307 3.106-9.798 7.4762-13.472 13.1104-3.654 5.562-6.468 12.0269-8.441 19.3944-3.036 11.341-2.902 20.406.405 27.196 3.398 6.718 10.114 10.077 20.147 10.077h.001ZM874.445 42.9893h26.094l-19.076 72.0537s-8.527 24.095 14.38 24.619c22.908.525 29.578-24.62 29.578-24.62l19.509-72.0527h25.77l-19.077 72.0527s-6.717 24.16 16.521 24.16c23.239 0 27.438-24.16 27.438-24.16l19.508-72.0527h26.09l-22.79 85.4017s-10.15 34.274-57.679 34.274c-21.892 0-29.855-18.402-29.855-18.402s-17.235 18.172-40.422 18.172c-45.617 0-38.187-36.804-38.187-36.804l22.198-82.6417Z" fill="#3f5166"/><path d="M125.192 66.9351H63.5846L57.028 91.4223h61.607l6.557-24.4872ZM142.472 3.98291H41.7786L35.2201 28.4701H136.06l6.412-24.48719ZM107.252 135.521H6.64832L0 160.008h100.271l6.981-24.487Z" fill="#6aeafc"/></g><defs><clipPath id="a"><path fill="#fff" transform="translate(0 .732178)" d="M0 0h1223.04v214.533H0z"/></clipPath></defs></svg>