<svg width="93" height="25" viewBox="0 0 93 25" fill="none" xmlns="http://www.w3.org/2000/svg">
<path d="M31.4833 17.2093V7.7907H33.2865V9.32367H33.4059C33.6069 8.80451 33.9357 8.3998 34.3923 8.10956C34.8489 7.81523 35.3955 7.66806 36.0322 7.66806C36.6772 7.66806 37.2175 7.81523 37.6532 8.10956C38.093 8.40389 38.4176 8.80859 38.627 9.32367H38.7275C38.9579 8.82086 39.3244 8.42024 39.8271 8.12182C40.3297 7.81931 40.9287 7.66806 41.624 7.66806C42.4994 7.66806 43.2136 7.93582 43.7665 8.47134C44.3236 9.00686 44.6021 9.81423 44.6021 10.8934V17.2093H42.7235V11.0651C42.7235 10.4274 42.5455 9.96548 42.1895 9.67932C41.8334 9.39317 41.4083 9.25009 40.914 9.25009C40.3025 9.25009 39.8271 9.43405 39.4878 9.80196C39.1485 10.1658 38.9789 10.6339 38.9789 11.2062V17.2093H37.1065V10.9486C37.1065 10.4376 36.9432 10.0268 36.6165 9.71611C36.2898 9.40543 35.8646 9.25009 35.341 9.25009C34.985 9.25009 34.6562 9.34207 34.3546 9.52603C34.0572 9.70589 33.8164 9.9573 33.6321 10.2803C33.452 10.6032 33.3619 10.9772 33.3619 11.4024V17.2093H31.4833Z" fill="black"/>
<path d="M51.1024 17.3994C50.1516 17.3994 49.3327 17.2011 48.6458 16.8046C47.963 16.404 47.4352 15.8419 47.0625 15.1183C46.6939 14.3907 46.5096 13.5383 46.5096 12.5613C46.5096 11.5966 46.6939 10.7463 47.0625 10.0104C47.4352 9.27462 47.9546 8.70026 48.6206 8.28738C49.2908 7.8745 50.0741 7.66806 50.9705 7.66806C51.515 7.66806 52.0428 7.75595 52.5538 7.93173C53.0648 8.10751 53.5234 8.38345 53.9297 8.75954C54.336 9.13563 54.6565 9.62414 54.891 10.2251C55.1256 10.8219 55.2429 11.5475 55.2429 12.4019V13.0519H47.5714V11.6783H53.402C53.402 11.1959 53.3014 10.7688 53.1004 10.3968C52.8993 10.0207 52.6166 9.72429 52.2522 9.50763C51.892 9.29097 51.4689 9.18264 50.983 9.18264C50.4553 9.18264 49.9945 9.30937 49.6008 9.56282C49.2112 9.81218 48.9096 10.1392 48.696 10.5439C48.4866 10.9445 48.3819 11.3799 48.3819 11.85V12.9231C48.3819 13.5526 48.495 14.0882 48.7212 14.5297C48.9515 14.9712 49.272 15.3084 49.6825 15.5414C50.0929 15.7703 50.5725 15.8848 51.1213 15.8848C51.4773 15.8848 51.8019 15.8358 52.0951 15.7376C52.3883 15.6354 52.6417 15.4842 52.8553 15.2839C53.069 15.0836 53.2323 14.8363 53.3454 14.5419L55.1235 14.8546C54.9811 15.3656 54.7256 15.8133 54.357 16.1975C53.9926 16.5777 53.5339 16.8741 52.981 17.0867C52.4323 17.2951 51.8061 17.3994 51.1024 17.3994Z" fill="black"/>
<path d="M57.1503 17.2093V7.7907H58.9661V9.28688H59.0666C59.2425 8.77998 59.5525 8.3814 59.9965 8.09116C60.4447 7.79683 60.9515 7.64966 61.517 7.64966C61.6343 7.64966 61.7725 7.65375 61.9316 7.66193C62.095 7.6701 62.2228 7.68032 62.3149 7.69259V9.44631C62.2395 9.42587 62.1055 9.40339 61.9128 9.37886C61.7201 9.35024 61.5274 9.33594 61.3348 9.33594C60.8908 9.33594 60.4949 9.42792 60.1473 9.61187C59.8038 9.79174 59.5316 10.0432 59.3305 10.3661C59.1294 10.685 59.0289 11.0488 59.0289 11.4576V17.2093H57.1503Z" fill="black"/>
<path d="M67.4643 20.9375C66.6978 20.9375 66.0381 20.8394 65.4852 20.6432C64.9365 20.4469 64.4883 20.1874 64.1407 19.8644C63.793 19.5415 63.5333 19.1879 63.3616 18.8036L64.9763 18.1536C65.0894 18.3335 65.2402 18.5236 65.4287 18.7239C65.6214 18.9283 65.8811 19.102 66.2078 19.2451C66.5387 19.3882 66.9638 19.4597 67.4832 19.4597C68.1953 19.4597 68.7838 19.2901 69.2487 18.9508C69.7137 18.6156 69.9461 18.08 69.9461 17.3442V15.4924H69.8267C69.7137 15.6927 69.5503 15.9155 69.3367 16.1607C69.1272 16.406 68.8382 16.6186 68.4696 16.7985C68.101 16.9783 67.6214 17.0683 67.0308 17.0683C66.2685 17.0683 65.5816 16.8945 64.97 16.5471C64.3627 16.1955 63.881 15.6784 63.5249 14.9957C63.1731 14.3089 62.9972 13.4648 62.9972 12.4632C62.9972 11.4617 63.171 10.6032 63.5187 9.88781C63.8705 9.17242 64.3522 8.62464 64.9637 8.24446C65.5753 7.86019 66.2685 7.66806 67.0434 7.66806C67.6424 7.66806 68.1262 7.76617 68.4948 7.96239C68.8634 8.15452 69.1503 8.37936 69.3555 8.6369C69.565 8.89444 69.7262 9.12132 69.8393 9.31754H69.9775V7.7907H71.8184V17.4178C71.8184 18.2272 71.6258 18.8915 71.2404 19.4107C70.8551 19.9298 70.3336 20.3141 69.6759 20.5635C69.0225 20.8128 68.2853 20.9375 67.4643 20.9375ZM67.4455 15.5476C67.9858 15.5476 68.4424 15.4249 68.8152 15.1796C69.1922 14.9303 69.477 14.5746 69.6697 14.1127C69.8665 13.6467 69.965 13.0887 69.965 12.4387C69.965 11.8051 69.8686 11.247 69.6759 10.7647C69.4833 10.2823 69.2005 9.90621 68.8278 9.6364C68.455 9.36251 67.9942 9.22556 67.4455 9.22556C66.88 9.22556 66.4088 9.36864 66.0318 9.6548C65.6549 9.93686 65.37 10.3211 65.1774 10.8076C64.9889 11.2941 64.8946 11.8378 64.8946 12.4387C64.8946 13.056 64.991 13.5976 65.1836 14.0636C65.3763 14.5297 65.6611 14.8935 66.0381 15.1551C66.4193 15.4167 66.8884 15.5476 67.4455 15.5476Z" fill="black"/>
<path d="M74.161 17.2093V7.7907H76.0396V17.2093H74.161ZM75.1097 6.33744C74.783 6.33744 74.5024 6.23115 74.2678 6.01858C74.0374 5.80192 73.9222 5.54438 73.9222 5.24596C73.9222 4.94345 74.0374 4.68591 74.2678 4.47334C74.5024 4.25668 74.783 4.14835 75.1097 4.14835C75.4364 4.14835 75.715 4.25668 75.9453 4.47334C76.1799 4.68591 76.2972 4.94345 76.2972 5.24596C76.2972 5.54438 76.1799 5.80192 75.9453 6.01858C75.715 6.23115 75.4364 6.33744 75.1097 6.33744Z" fill="black"/>
<path d="M82.9828 7.7907V9.26235H77.5292V7.7907H82.9828ZM79.0246 17.2093V6.69922C79.0246 6.11056 79.1565 5.62205 79.4204 5.23369C79.6843 4.84125 80.034 4.54896 80.4696 4.35683C80.9053 4.16061 81.3786 4.0625 81.8896 4.0625C82.2666 4.0625 82.5891 4.09316 82.8572 4.15448C83.1252 4.21171 83.3242 4.26485 83.454 4.31391L83.0142 5.79783C82.9263 5.7733 82.8132 5.74469 82.6749 5.71198C82.5367 5.67519 82.3692 5.6568 82.1723 5.6568C81.7158 5.6568 81.3891 5.76717 81.1922 5.98792C80.9995 6.20867 80.9032 6.52753 80.9032 6.94449V17.2093H79.0246Z" fill="black"/>
<path d="M85.9317 20.7413C85.651 20.7413 85.3955 20.7188 85.1651 20.6738C84.9348 20.6329 84.763 20.588 84.6499 20.5389L85.1023 19.0366C85.4458 19.1265 85.7516 19.1654 86.0196 19.1531C86.2877 19.1409 86.5244 19.0427 86.7296 18.8588C86.939 18.6748 87.1233 18.3744 87.2825 17.9574L87.515 17.3319L83.984 7.7907H85.9945L88.4386 15.0999H88.5391L90.9832 7.7907H93L89.0229 18.4663C88.8386 18.9569 88.604 19.3718 88.3192 19.7111C88.0344 20.0545 87.6951 20.312 87.3014 20.4837C86.9076 20.6554 86.4511 20.7413 85.9317 20.7413Z" fill="black"/>
<path fill-rule="evenodd" clip-rule="evenodd" d="M12.5 25C19.4036 25 25 19.4036 25 12.5C25 5.59644 19.4036 0 12.5 0C5.59644 0 0 5.59644 0 12.5C0 19.4036 5.59644 25 12.5 25ZM6.33336 10.8363C5.62696 10.5675 5.12502 9.88399 5.12502 9.08325C5.12502 8.04772 5.96449 7.20825 7.00002 7.20825C7.937 7.20825 8.71346 7.89553 8.85276 8.79347C8.95713 8.71964 9.06732 8.65233 9.18336 8.59155C9.65003 8.33599 10.1778 8.20821 10.7667 8.20821C11.3223 8.20821 11.8278 8.33599 12.2834 8.59155C12.6651 8.7964 12.9806 9.07538 13.2297 9.42849C13.499 9.08483 13.828 8.8114 14.2167 8.60821C14.7056 8.34154 15.25 8.20821 15.85 8.20821C16.45 8.20821 16.9889 8.33599 17.4667 8.59155C17.9445 8.83599 18.3223 9.19154 18.6 9.65821C18.8778 10.1249 19.0167 10.6804 19.0167 11.3249V14.3979C19.4863 14.7387 19.7917 15.292 19.7917 15.9165C19.7917 16.9521 18.9523 17.7915 17.9167 17.7915C16.8812 17.7915 16.0417 16.9521 16.0417 15.9165C16.0417 15.2846 16.3543 14.7257 16.8334 14.386V11.6749C16.8334 11.2082 16.6834 10.8471 16.3834 10.5915C16.0945 10.3249 15.7334 10.1915 15.3 10.1915C15.0223 10.1915 14.7611 10.2527 14.5167 10.3749C14.2834 10.486 14.1 10.6527 13.9667 10.8749C13.8334 11.0971 13.7667 11.3638 13.7667 11.6749V14.398C14.2363 14.7387 14.5417 15.292 14.5417 15.9165C14.5417 16.9521 13.7022 17.7915 12.6667 17.7915C11.6311 17.7915 10.7917 16.9521 10.7917 15.9165C10.7917 15.2846 11.1043 14.7257 11.5834 14.386V11.6749C11.5834 11.2082 11.4334 10.8471 11.1334 10.5915C10.8445 10.3249 10.4834 10.1915 10.05 10.1915C9.76114 10.1915 9.50003 10.2527 9.2667 10.3749C9.03337 10.486 8.85003 10.6527 8.7167 10.8749C8.58336 11.0971 8.5167 11.3638 8.5167 11.6749V14.398C8.9863 14.7387 9.29169 15.292 9.29169 15.9165C9.29169 16.9521 8.45222 17.7915 7.41669 17.7915C6.38115 17.7915 5.54169 16.9521 5.54169 15.9165C5.54169 15.2846 5.85432 14.7257 6.33336 14.386V10.8363Z" fill="black"/>
<path d="M7.04167 10.1249C7.61696 10.1249 8.08333 9.65855 8.08333 9.08325C8.08333 8.50796 7.61696 8.04158 7.04167 8.04158C6.46637 8.04158 6 8.50796 6 9.08325C6 9.65855 6.46637 10.1249 7.04167 10.1249Z" fill="black"/>
<path d="M7.45833 16.9582C8.03363 16.9582 8.5 16.4918 8.5 15.9165C8.5 15.3412 8.03363 14.8749 7.45833 14.8749C6.88304 14.8749 6.41667 15.3412 6.41667 15.9165C6.41667 16.4918 6.88304 16.9582 7.45833 16.9582Z" fill="black"/>
<path d="M17.9584 16.9582C18.5337 16.9582 19 16.4918 19 15.9165C19 15.3412 18.5337 14.8749 17.9584 14.8749C17.3831 14.8749 16.9167 15.3412 16.9167 15.9165C16.9167 16.4918 17.3831 16.9582 17.9584 16.9582Z" fill="black"/>
<path d="M13.75 15.9165C13.75 16.4918 13.2836 16.9582 12.7083 16.9582C12.133 16.9582 11.6667 16.4918 11.6667 15.9165C11.6667 15.3412 12.133 14.8749 12.7083 14.8749C13.2836 14.8749 13.75 15.3412 13.75 15.9165Z" fill="black"/>
</svg>
