<svg xmlns="http://www.w3.org/2000/svg" viewBox="0 0 186 63.599999999999994" width="310" height="106"><g transform="translate(15.5,5.300000000000001)"><path fill="#08090b" d="M62.547 19.275v-5.94h5.307v5.94h4.57v4.083h-4.57v7.46c0 1.782.995 2.524 2.432 2.524.848 0 1.695-.148 2.322-.37l.737 4.268c-1.032.483-2.58.78-3.943.78-3.943 0-6.855-2.488-6.855-6.904zm13.82.001h5.307v2.08l.221.073c1.18-1.447 2.95-2.524 5.05-2.524h.516v4.975h-.885c-1.953 0-3.649.668-4.902 1.706v12.287h-5.307zm32.544 10.097c0 5.345-3.98 8.834-9.213 8.834-5.197 0-9.214-3.489-9.214-8.834V19.276h5.307v10.097c0 3.006 1.658 4.454 3.907 4.454s3.906-1.448 3.906-4.454V19.276h5.307zm3.636-10.097h5.307v2.116l.22.074c1.254-1.484 3.391-2.56 6.155-2.56 3.649 0 6.67 2.635 6.67 7.794v11.135h-5.306V26.997c0-2.598-1.622-3.712-3.575-3.712-1.659 0-3.169.52-4.164 1.633v12.917h-5.307zm29.375 11.174-1.475 1.41v5.976h-5.306V10.739h5.306V25.81l.221.074 5.786-6.607h6.523l.075.223-7.592 7.46 8.808 10.69-.074.186h-6.45z"/><g fill="#08090b" clip-path="url(#a)"><path d="M26.224 53v-5.74c11.317 0 20.524-9.274 20.524-20.673S37.541 5.915 26.224 5.915 5.7 15.188 5.7 26.587H0C0 12.023 11.764.174 26.224.174s26.224 11.849 26.224 26.413S40.684 53 26.224 53"/><path d="M13.49 27.003h-5.7c0-10.398 8.268-18.858 18.432-18.858v5.831c-7.02 0-12.733 5.844-12.733 13.027"/><path d="M36.861 27.003h-5.7c0-2.788-2.216-5.055-4.941-5.055s-4.942 2.267-4.942 5.055h-5.7c0-6.003 4.774-10.887 10.642-10.887S36.86 21 36.86 27.003"/></g><defs><clipPath id="a"><path fill="#08090b" d="M0 .174h52.448V53H0z"/></clipPath></defs></g></svg>