<svg width="145" height="56" viewBox="0 0 145 56" fill="none" xmlns="http://www.w3.org/2000/svg">
<g clip-path="url(#clip0_1_21)">
<path d="M66.6612 12.0516V6.99268H71.0586V12.0516H74.846V15.5299H71.0586V21.8852C71.0586 23.403 71.8838 24.0353 73.0742 24.0353C73.7771 24.0353 74.4791 23.9089 74.9983 23.7192L75.6095 27.3554C74.7541 27.7665 73.4713 28.0194 72.3414 28.0194C69.0739 28.0194 66.6612 25.9006 66.6612 22.1386V15.53L66.6612 12.0516Z" fill="black"/>
<path d="M78.113 12.0525H82.5104V13.8233L82.6936 13.8859C83.671 12.6534 85.1375 11.7363 86.8775 11.7363H87.3054V15.9739H86.5722C84.9538 15.9739 83.5489 16.5429 82.5104 17.4275V27.8938H78.1129L78.113 12.0525Z" fill="black"/>
<path d="M105.08 20.6527C105.08 25.2064 101.781 28.1784 97.4452 28.1784C93.1391 28.1784 89.8105 25.2064 89.8105 20.6527V12.0522H94.2079V20.6527C94.2079 23.2141 95.582 24.4472 97.4452 24.4472C99.3083 24.4472 100.682 23.2141 100.682 20.6527V12.0522H105.08V20.6527Z" fill="black"/>
<path d="M108.09 12.0525H112.487V13.8545L112.67 13.9178C113.709 12.6534 115.48 11.7363 117.771 11.7363C120.794 11.7363 123.298 13.9816 123.298 18.3764V27.862H118.9V18.6293C118.9 16.416 117.557 15.467 115.938 15.467C114.564 15.467 113.312 15.9097 112.487 16.8585V27.862H108.09L108.09 12.0525Z" fill="black"/>
<path d="M132.431 21.5711L131.209 22.7723V27.8626H126.811V4.78027H131.209V17.6183L131.392 17.6815L136.187 12.0531H141.592L141.653 12.2427L135.363 18.5985L142.661 27.7048L142.6 27.8626H137.256L132.431 21.5711Z" fill="black"/>
<g clip-path="url(#clip1_1_21)">
<path d="M27.5747 55.1461V49.1532C39.4749 49.1532 49.1562 39.4725 49.1562 27.5734C49.1562 15.674 39.4749 5.99339 27.5747 5.99339C15.6746 5.99339 5.99329 15.674 5.99329 27.5734H0C0 12.3694 12.3703 0 27.5747 0C42.7797 0 55.15 12.3694 55.15 27.5734C55.15 42.7766 42.7797 55.1461 27.5747 55.1461H27.5747Z" fill="black"/>
<path d="M14.1859 28.0071H8.19215C8.19215 17.152 16.8873 8.32054 27.5744 8.32054V14.4083C20.1921 14.4083 14.1859 20.5086 14.1859 28.0071Z" fill="black"/>
<path d="M38.765 28.0076H32.7718C32.7718 25.0973 30.4408 22.7298 27.5754 22.7298C24.7104 22.7298 22.3795 25.0973 22.3795 28.0076H16.3857C16.3857 21.7407 21.4056 16.6425 27.5754 16.6425C33.7451 16.6425 38.765 21.7407 38.765 28.0076Z" fill="black"/>
</g>
</g>
<defs>
<clipPath id="clip0_1_21">
<rect width="145" height="55.5689" fill="white"/>
</clipPath>
<clipPath id="clip1_1_21">
<rect width="55.15" height="55.1461" fill="white"/>
</clipPath>
</defs>
</svg>
