<?xml version="1.0" encoding="UTF-8"?>
<svg id="Layer_1" xmlns="http://www.w3.org/2000/svg" viewBox="0 100 1205.08 511.015">
  <defs>
    <style>
      .cls-1 { fill: #00c859; stroke-width: 0px; }
    </style>
  </defs>
  <g transform="scale(1, 0.75)">
    <path class="cls-1" d="M866.1,308.74c-1.89-2.57-4.97-3.97-8.15-3.97h-40.48c-2.12,0-4.18.68-5.88,1.94l-56.43,41.87-65.14-123.82c-3.23-6.13-10.27-9.22-16.96-7.44l-127.39,33.89c-15.66,4.17-28.39,15.58-34.23,30.7l-138.71,358.89-50.21-111.41c-1.41-3.13-4.35-5.31-7.77-5.74l-86.83-10.94c-3.8-.48-7.53,1.28-9.58,4.52-2.05,3.24-2.03,7.37.03,10.59l123.24,192.45c3.65,5.7,9.96,9.15,16.73,9.15h31.54c3.5,0,6.74-1.86,8.51-4.88l221.7-378.01,75.72,53.68c5.29,3.75,11.5,6.01,17.97,6.53l57.39,4.61c.26.02.53.03.79.03,2.62,0,5.14-1.04,7.01-2.92l86.21-86.87c3.36-3.39,3.89-8.8.92-12.85ZM350.68,697.83l-104.32-162.9,60.43,7.61,55.94,124.12-12.05,31.17ZM379.62,709.68h-12.35l162.79-421.2c3.43-8.89,10.91-15.59,20.12-18.04l108.6-28.89-272.22,464.16c-1.44,2.46-4.08,3.97-6.93,3.97ZM630.12,329.44l48.85-83.29,60.14,114.34-31.87,23.65-77.12-54.69ZM768.19,391.3l-33.82-2.71,86.36-64.08h13.75l-66.29,66.79Z"/>
    <path class="cls-1" d="M560.36,530.05l22.3,60.93,21.28-60.93h17.93l-29.45,83.09h-19.53l-30.47-83.09h17.93Z"/>
    <path class="cls-1" d="M634.84,530.05h16.91v83.09h-16.91v-83.09Z"/>
    <path class="cls-1" d="M670.89,530.05h39.36c11.66,0,24.78,4.52,24.78,25.07,0,14.14-3.94,24.05-13.56,25.95l17.49,32.07h-18.37l-15.45-30.47c-2.77-.29-17.2-1.6-17.35-1.75v32.22h-16.91v-83.09ZM709.08,569.27c4.52,0,9.04-1.9,9.04-13.26,0-10.35-6.85-11.08-9.04-11.08h-21.28v24.34h21.28Z"/>
    <path class="cls-1" d="M750.77,530.05h67.05v15.89h-25.07v67.2h-16.91v-67.2h-25.07v-15.89Z"/>
    <path class="cls-1" d="M834.55,530.05h17.05v45.19c0,19.39,5.98,22.74,18.8,22.74,11.52,0,18.07-3.5,18.07-22.74v-45.19h17.06v45.19c0,33.96-17.49,38.63-35.13,38.63-19.82,0-36-3.79-35.86-38.63v-45.19Z"/>
    <path class="cls-1" d="M922.38,551.63c0-12.24,4.96-22.01,21.57-22.01,7.58,0,29.44,1.17,40.38,3.21v12.39s-22.74-.87-37.75-.87c-5.83,0-7.29,3.64-7.29,7.58v6.12c0,6.41,2.77,6.56,7.29,6.56h21.72c14.72,0,19.97,9.48,19.97,21.14v8.16c0,16.76-10.06,20.7-19.97,20.7-7,0-37.17-.87-42.71-3.35v-12.1s24.64.58,39.07.58c5.1,0,6.71-6.12,6.71-6.12v-7.29c0-4.23-1.75-6.27-6.71-6.27h-21.14c-15.31,0-21.14-6.85-21.14-20.85v-7.58Z"/>
    <path class="cls-1" d="M751.98,633.43h16.91v61.22c-.15,5.98,2.92,5.98,7.58,5.98h34.26v15.89h-43.15c-9.04,0-15.6-5.1-15.6-15.6v-67.49Z"/>
    <path class="cls-1" d="M858.09,633.43h19.39l28.72,83.09h-17.93l-6.85-18.8h-29.01l-7.29,18.8h-17.93l30.9-83.09ZM877.19,683.28l-9.47-28.28-10.5,28.28h19.97Z"/>
    <path class="cls-1" d="M923.68,633.28h38.92c18.08,0,25.07,9.77,25.07,22.3,0,11.22-4.37,16.47-10.64,18.51,5.54,1.6,11.08,7.43,11.08,18.8,0,15.01-7.14,23.61-25.51,23.61h-38.92v-83.23ZM961.58,666.81c7.29,0,9.18-2.77,9.18-9.77,0-7.58-5.1-8.89-9.18-8.89h-20.99v18.66h20.99ZM961.58,701.5c4.23,0,9.48-1.02,9.48-10.35,0-6.56-2.19-10.93-9.48-10.93,0,0-17.64.15-20.99,0v21.28h20.99Z"/>
  </g>
</svg>
